<?xml version="1.0" encoding="utf-8" standalone="no"?>
<!DOCTYPE svg PUBLIC "-//W3C//DTD SVG 1.1//EN"
  "http://www.w3.org/Graphics/SVG/1.1/DTD/svg11.dtd">
<svg xmlns:xlink="http://www.w3.org/1999/xlink" width="568.46125pt" height="279.039062pt" viewBox="0 0 568.46125 279.039062" xmlns="http://www.w3.org/2000/svg" version="1.1">
 <metadata>
  <rdf:RDF xmlns:dc="http://purl.org/dc/elements/1.1/" xmlns:cc="http://creativecommons.org/ns#" xmlns:rdf="http://www.w3.org/1999/02/22-rdf-syntax-ns#">
   <cc:Work>
    <dc:type rdf:resource="http://purl.org/dc/dcmitype/StillImage"/>
    <dc:date>2026-04-05T14:58:22.454547</dc:date>
    <dc:format>image/svg+xml</dc:format>
    <dc:creator>
     <cc:Agent>
      <dc:title>Matplotlib v3.9.4, https://matplotlib.org/</dc:title>
     </cc:Agent>
    </dc:creator>
   </cc:Work>
  </rdf:RDF>
 </metadata>
 <defs>
  <style type="text/css">*{stroke-linejoin: round; stroke-linecap: butt}</style>
 </defs>
 <g id="figure_1">
  <g id="patch_1">
   <path d="M 0 279.039062 
L 568.46125 279.039062 
L 568.46125 0 
L 0 0 
z
" style="fill: #ffffff"/>
  </g>
  <g id="axes_1">
   <g id="patch_2">
    <path d="M 43.78125 241.478125 
L 561.26125 241.478125 
L 561.26125 22.318125 
L 43.78125 22.318125 
z
" style="fill: #ffffff"/>
   </g>
   <g id="PolyCollection_1">
    <defs>
     <path id="m980f8034cd" d="M 247.047045 -37.560938 
L 247.047045 -40.46221 
L 248.50781 -40.406224 
L 249.968576 -40.351408 
L 251.429342 -40.297733 
L 252.890108 -40.245174 
L 254.350874 -40.193705 
L 255.811639 -40.1433 
L 257.272405 -40.093935 
L 258.733171 -40.045585 
L 260.193937 -39.998229 
L 261.654702 -39.951842 
L 263.115468 -39.906404 
L 264.576234 -39.861892 
L 266.037 -39.818285 
L 267.497765 -39.775564 
L 268.958531 -39.733709 
L 270.419297 -39.692699 
L 271.880063 -39.652517 
L 273.340828 -39.613144 
L 274.801594 -39.574561 
L 276.26236 -39.536753 
L 277.723126 -39.499701 
L 279.183892 -39.463389 
L 280.644657 -39.4278 
L 282.105423 -39.39292 
L 283.566189 -39.358733 
L 285.026955 -39.325223 
L 286.48772 -39.292376 
L 287.948486 -39.260178 
L 289.409252 -39.228614 
L 290.870018 -39.197672 
L 292.330783 -39.167338 
L 293.791549 -39.137599 
L 295.252315 -39.108442 
L 296.713081 -39.079855 
L 298.173846 -39.051825 
L 299.634612 -39.024342 
L 301.095378 -38.997394 
L 302.556144 -38.970969 
L 304.01691 -38.945057 
L 305.477675 -38.919646 
L 306.938441 -38.894726 
L 308.399207 -38.870288 
L 309.859973 -38.84632 
L 311.320738 -38.822814 
L 312.781504 -38.79976 
L 314.24227 -38.777148 
L 315.703036 -38.75497 
L 317.163801 -38.733216 
L 318.624567 -38.711877 
L 320.085333 -38.690946 
L 321.546099 -38.670414 
L 323.006864 -38.650273 
L 324.46763 -38.630514 
L 325.928396 -38.611131 
L 327.389162 -38.592115 
L 328.849928 -38.57346 
L 330.310693 -38.555157 
L 331.771459 -38.5372 
L 333.232225 -38.519582 
L 334.692991 -38.502295 
L 336.153756 -38.485334 
L 337.614522 -38.468692 
L 339.075288 -38.452362 
L 340.536054 -38.436339 
L 341.996819 -38.420616 
L 343.457585 -38.405187 
L 344.918351 -38.390046 
L 346.379117 -38.375188 
L 347.839882 -38.360607 
L 349.300648 -38.346298 
L 350.761414 -38.332255 
L 352.22218 -38.318473 
L 353.682946 -38.304947 
L 355.143711 -38.291672 
L 356.604477 -38.278643 
L 358.065243 -38.265855 
L 359.526009 -38.253304 
L 360.986774 -38.240984 
L 362.44754 -38.228892 
L 363.908306 -38.217023 
L 365.369072 -38.205372 
L 366.829837 -38.193936 
L 368.290603 -38.18271 
L 369.751369 -38.171691 
L 371.212135 -38.160873 
L 372.6729 -38.150254 
L 374.133666 -38.13983 
L 375.594432 -38.129596 
L 377.055198 -38.119549 
L 378.515964 -38.109686 
L 379.976729 -38.100003 
L 381.437495 -38.090496 
L 382.898261 -38.081163 
L 384.359027 -38.072 
L 385.819792 -38.063003 
L 387.280558 -38.05417 
L 388.741324 -38.045497 
L 390.20209 -38.036982 
L 391.662855 -38.028621 
L 393.123621 -38.020411 
L 394.584387 -38.01235 
L 396.045153 -38.004435 
L 397.505918 -37.996663 
L 398.966684 -37.989031 
L 400.42745 -37.981537 
L 401.888216 -37.974178 
L 403.348981 -37.966952 
L 404.809747 -37.959856 
L 406.270513 -37.952887 
L 407.731279 -37.946044 
L 409.192045 -37.939323 
L 410.65281 -37.932724 
L 412.113576 -37.926242 
L 413.574342 -37.919877 
L 415.035108 -37.913626 
L 416.495873 -37.907487 
L 417.956639 -37.901457 
L 419.417405 -37.895536 
L 420.878171 -37.88972 
L 422.338936 -37.884008 
L 423.799702 -37.878398 
L 425.260468 -37.872887 
L 426.721234 -37.867475 
L 428.181999 -37.86216 
L 429.642765 -37.856939 
L 431.103531 -37.851811 
L 432.564297 -37.846774 
L 434.025063 -37.841826 
L 435.485828 -37.836966 
L 436.946594 -37.832193 
L 438.40736 -37.827504 
L 439.868126 -37.822898 
L 441.328891 -37.818373 
L 442.789657 -37.813929 
L 444.250423 -37.809563 
L 445.711189 -37.805275 
L 447.171954 -37.801062 
L 448.63272 -37.796923 
L 450.093486 -37.792858 
L 451.554252 -37.788864 
L 453.015017 -37.784941 
L 454.475783 -37.781087 
L 455.936549 -37.7773 
L 457.397315 -37.77358 
L 458.858081 -37.769926 
L 460.318846 -37.766336 
L 461.779612 -37.762809 
L 463.240378 -37.759344 
L 464.701144 -37.755939 
L 466.161909 -37.752594 
L 467.622675 -37.749308 
L 469.083441 -37.74608 
L 470.544207 -37.742908 
L 472.004972 -37.739791 
L 473.465738 -37.736729 
L 474.926504 -37.733721 
L 476.38727 -37.730765 
L 477.848035 -37.727861 
L 479.308801 -37.725007 
L 480.769567 -37.722203 
L 482.230333 -37.719449 
L 483.691099 -37.716742 
L 485.151864 -37.714082 
L 486.61263 -37.711469 
L 488.073396 -37.708901 
L 489.534162 -37.706378 
L 490.994927 -37.703898 
L 492.455693 -37.701462 
L 493.916459 -37.699068 
L 495.377225 -37.696716 
L 496.83799 -37.694404 
L 498.298756 -37.692133 
L 499.759522 -37.689901 
L 501.220288 -37.687707 
L 502.681053 -37.685552 
L 504.141819 -37.683434 
L 505.602585 -37.681353 
L 507.063351 -37.679307 
L 508.524117 -37.677298 
L 509.984882 -37.675322 
L 511.445648 -37.673381 
L 512.906414 -37.671474 
L 514.36718 -37.669599 
L 515.827945 -37.667757 
L 517.288711 -37.665947 
L 518.749477 -37.664167 
L 520.210243 -37.662419 
L 521.671008 -37.6607 
L 523.131774 -37.659012 
L 524.59254 -37.657352 
L 526.053306 -37.655721 
L 527.514071 -37.654118 
L 528.974837 -37.652542 
L 530.435603 -37.650994 
L 531.896369 -37.649472 
L 533.357135 -37.647976 
L 534.8179 -37.646506 
L 536.278666 -37.645061 
L 537.739432 -37.643641 
L 537.739432 -37.560938 
L 537.739432 -37.560938 
L 536.278666 -37.560938 
L 534.8179 -37.560938 
L 533.357135 -37.560938 
L 531.896369 -37.560938 
L 530.435603 -37.560938 
L 528.974837 -37.560938 
L 527.514071 -37.560938 
L 526.053306 -37.560938 
L 524.59254 -37.560938 
L 523.131774 -37.560938 
L 521.671008 -37.560938 
L 520.210243 -37.560938 
L 518.749477 -37.560938 
L 517.288711 -37.560938 
L 515.827945 -37.560938 
L 514.36718 -37.560938 
L 512.906414 -37.560938 
L 511.445648 -37.560938 
L 509.984882 -37.560938 
L 508.524117 -37.560938 
L 507.063351 -37.560938 
L 505.602585 -37.560938 
L 504.141819 -37.560938 
L 502.681053 -37.560938 
L 501.220288 -37.560938 
L 499.759522 -37.560938 
L 498.298756 -37.560938 
L 496.83799 -37.560938 
L 495.377225 -37.560938 
L 493.916459 -37.560938 
L 492.455693 -37.560938 
L 490.994927 -37.560938 
L 489.534162 -37.560938 
L 488.073396 -37.560938 
L 486.61263 -37.560938 
L 485.151864 -37.560938 
L 483.691099 -37.560938 
L 482.230333 -37.560938 
L 480.769567 -37.560938 
L 479.308801 -37.560938 
L 477.848035 -37.560938 
L 476.38727 -37.560938 
L 474.926504 -37.560938 
L 473.465738 -37.560938 
L 472.004972 -37.560938 
L 470.544207 -37.560938 
L 469.083441 -37.560938 
L 467.622675 -37.560938 
L 466.161909 -37.560938 
L 464.701144 -37.560938 
L 463.240378 -37.560938 
L 461.779612 -37.560938 
L 460.318846 -37.560938 
L 458.858081 -37.560938 
L 457.397315 -37.560938 
L 455.936549 -37.560938 
L 454.475783 -37.560938 
L 453.015017 -37.560938 
L 451.554252 -37.560938 
L 450.093486 -37.560938 
L 448.63272 -37.560938 
L 447.171954 -37.560938 
L 445.711189 -37.560938 
L 444.250423 -37.560938 
L 442.789657 -37.560938 
L 441.328891 -37.560938 
L 439.868126 -37.560938 
L 438.40736 -37.560938 
L 436.946594 -37.560938 
L 435.485828 -37.560938 
L 434.025063 -37.560938 
L 432.564297 -37.560938 
L 431.103531 -37.560938 
L 429.642765 -37.560938 
L 428.181999 -37.560938 
L 426.721234 -37.560938 
L 425.260468 -37.560938 
L 423.799702 -37.560938 
L 422.338936 -37.560938 
L 420.878171 -37.560938 
L 419.417405 -37.560938 
L 417.956639 -37.560938 
L 416.495873 -37.560938 
L 415.035108 -37.560938 
L 413.574342 -37.560938 
L 412.113576 -37.560938 
L 410.65281 -37.560938 
L 409.192045 -37.560938 
L 407.731279 -37.560938 
L 406.270513 -37.560938 
L 404.809747 -37.560938 
L 403.348981 -37.560938 
L 401.888216 -37.560938 
L 400.42745 -37.560938 
L 398.966684 -37.560938 
L 397.505918 -37.560938 
L 396.045153 -37.560938 
L 394.584387 -37.560938 
L 393.123621 -37.560938 
L 391.662855 -37.560938 
L 390.20209 -37.560938 
L 388.741324 -37.560938 
L 387.280558 -37.560938 
L 385.819792 -37.560938 
L 384.359027 -37.560938 
L 382.898261 -37.560938 
L 381.437495 -37.560938 
L 379.976729 -37.560938 
L 378.515964 -37.560938 
L 377.055198 -37.560938 
L 375.594432 -37.560938 
L 374.133666 -37.560938 
L 372.6729 -37.560938 
L 371.212135 -37.560938 
L 369.751369 -37.560938 
L 368.290603 -37.560938 
L 366.829837 -37.560938 
L 365.369072 -37.560938 
L 363.908306 -37.560938 
L 362.44754 -37.560938 
L 360.986774 -37.560938 
L 359.526009 -37.560938 
L 358.065243 -37.560938 
L 356.604477 -37.560938 
L 355.143711 -37.560938 
L 353.682946 -37.560938 
L 352.22218 -37.560938 
L 350.761414 -37.560938 
L 349.300648 -37.560938 
L 347.839882 -37.560938 
L 346.379117 -37.560938 
L 344.918351 -37.560938 
L 343.457585 -37.560938 
L 341.996819 -37.560938 
L 340.536054 -37.560938 
L 339.075288 -37.560938 
L 337.614522 -37.560938 
L 336.153756 -37.560938 
L 334.692991 -37.560938 
L 333.232225 -37.560938 
L 331.771459 -37.560938 
L 330.310693 -37.560938 
L 328.849928 -37.560938 
L 327.389162 -37.560938 
L 325.928396 -37.560938 
L 324.46763 -37.560938 
L 323.006864 -37.560938 
L 321.546099 -37.560938 
L 320.085333 -37.560938 
L 318.624567 -37.560938 
L 317.163801 -37.560938 
L 315.703036 -37.560938 
L 314.24227 -37.560938 
L 312.781504 -37.560938 
L 311.320738 -37.560938 
L 309.859973 -37.560938 
L 308.399207 -37.560938 
L 306.938441 -37.560938 
L 305.477675 -37.560938 
L 304.01691 -37.560938 
L 302.556144 -37.560938 
L 301.095378 -37.560938 
L 299.634612 -37.560938 
L 298.173846 -37.560938 
L 296.713081 -37.560938 
L 295.252315 -37.560938 
L 293.791549 -37.560938 
L 292.330783 -37.560938 
L 290.870018 -37.560938 
L 289.409252 -37.560938 
L 287.948486 -37.560938 
L 286.48772 -37.560938 
L 285.026955 -37.560938 
L 283.566189 -37.560938 
L 282.105423 -37.560938 
L 280.644657 -37.560938 
L 279.183892 -37.560938 
L 277.723126 -37.560938 
L 276.26236 -37.560938 
L 274.801594 -37.560938 
L 273.340828 -37.560938 
L 271.880063 -37.560938 
L 270.419297 -37.560938 
L 268.958531 -37.560938 
L 267.497765 -37.560938 
L 266.037 -37.560938 
L 264.576234 -37.560938 
L 263.115468 -37.560938 
L 261.654702 -37.560938 
L 260.193937 -37.560938 
L 258.733171 -37.560938 
L 257.272405 -37.560938 
L 255.811639 -37.560938 
L 254.350874 -37.560938 
L 252.890108 -37.560938 
L 251.429342 -37.560938 
L 249.968576 -37.560938 
L 248.50781 -37.560938 
L 247.047045 -37.560938 
z
" style="stroke: #ff0000; stroke-opacity: 0.3"/>
    </defs>
    <g clip-path="url(#p99059228d1)">
     <use xlink:href="#m980f8034cd" x="0" y="279.039062" style="fill: #ff0000; fill-opacity: 0.3; stroke: #ff0000; stroke-opacity: 0.3"/>
    </g>
   </g>
   <g id="matplotlib.axis_1">
    <g id="xtick_1">
     <g id="line2d_1">
      <defs>
       <path id="m53da0412f9" d="M 0 0 
L 0 3.5 
" style="stroke: #000000; stroke-width: 0.8"/>
      </defs>
      <g>
       <use xlink:href="#m53da0412f9" x="65.724423" y="241.478125" style="stroke: #000000; stroke-width: 0.8"/>
      </g>
     </g>
     <g id="text_1">
      <!-- 0 -->
      <g transform="translate(62.543173 256.076563) scale(0.1 -0.1)">
       <defs>
        <path id="DejaVuSans-30" d="M 2034 4250 
Q 1547 4250 1301 3770 
Q 1056 3291 1056 2328 
Q 1056 1369 1301 889 
Q 1547 409 2034 409 
Q 2525 409 2770 889 
Q 3016 1369 3016 2328 
Q 3016 3291 2770 3770 
Q 2525 4250 2034 4250 
z
M 2034 4750 
Q 2819 4750 3233 4129 
Q 3647 3509 3647 2328 
Q 3647 1150 3233 529 
Q 2819 -91 2034 -91 
Q 1250 -91 836 529 
Q 422 1150 422 2328 
Q 422 3509 836 4129 
Q 1250 4750 2034 4750 
z
" transform="scale(0.015625)"/>
       </defs>
       <use xlink:href="#DejaVuSans-30"/>
      </g>
     </g>
    </g>
    <g id="xtick_2">
     <g id="line2d_2">
      <g>
       <use xlink:href="#m53da0412f9" x="160.127424" y="241.478125" style="stroke: #000000; stroke-width: 0.8"/>
      </g>
     </g>
     <g id="text_2">
      <!-- 2 -->
      <g transform="translate(156.946174 256.076563) scale(0.1 -0.1)">
       <defs>
        <path id="DejaVuSans-32" d="M 1228 531 
L 3431 531 
L 3431 0 
L 469 0 
L 469 531 
Q 828 903 1448 1529 
Q 2069 2156 2228 2338 
Q 2531 2678 2651 2914 
Q 2772 3150 2772 3378 
Q 2772 3750 2511 3984 
Q 2250 4219 1831 4219 
Q 1534 4219 1204 4116 
Q 875 4013 500 3803 
L 500 4441 
Q 881 4594 1212 4672 
Q 1544 4750 1819 4750 
Q 2544 4750 2975 4387 
Q 3406 4025 3406 3419 
Q 3406 3131 3298 2873 
Q 3191 2616 2906 2266 
Q 2828 2175 2409 1742 
Q 1991 1309 1228 531 
z
" transform="scale(0.015625)"/>
       </defs>
       <use xlink:href="#DejaVuSans-32"/>
      </g>
     </g>
    </g>
    <g id="xtick_3">
     <g id="line2d_3">
      <g>
       <use xlink:href="#m53da0412f9" x="254.530426" y="241.478125" style="stroke: #000000; stroke-width: 0.8"/>
      </g>
     </g>
     <g id="text_3">
      <!-- 4 -->
      <g transform="translate(251.349176 256.076563) scale(0.1 -0.1)">
       <defs>
        <path id="DejaVuSans-34" d="M 2419 4116 
L 825 1625 
L 2419 1625 
L 2419 4116 
z
M 2253 4666 
L 3047 4666 
L 3047 1625 
L 3713 1625 
L 3713 1100 
L 3047 1100 
L 3047 0 
L 2419 0 
L 2419 1100 
L 313 1100 
L 313 1709 
L 2253 4666 
z
" transform="scale(0.015625)"/>
       </defs>
       <use xlink:href="#DejaVuSans-34"/>
      </g>
     </g>
    </g>
    <g id="xtick_4">
     <g id="line2d_4">
      <g>
       <use xlink:href="#m53da0412f9" x="348.933428" y="241.478125" style="stroke: #000000; stroke-width: 0.8"/>
      </g>
     </g>
     <g id="text_4">
      <!-- 6 -->
      <g transform="translate(345.752178 256.076563) scale(0.1 -0.1)">
       <defs>
        <path id="DejaVuSans-36" d="M 2113 2584 
Q 1688 2584 1439 2293 
Q 1191 2003 1191 1497 
Q 1191 994 1439 701 
Q 1688 409 2113 409 
Q 2538 409 2786 701 
Q 3034 994 3034 1497 
Q 3034 2003 2786 2293 
Q 2538 2584 2113 2584 
z
M 3366 4563 
L 3366 3988 
Q 3128 4100 2886 4159 
Q 2644 4219 2406 4219 
Q 1781 4219 1451 3797 
Q 1122 3375 1075 2522 
Q 1259 2794 1537 2939 
Q 1816 3084 2150 3084 
Q 2853 3084 3261 2657 
Q 3669 2231 3669 1497 
Q 3669 778 3244 343 
Q 2819 -91 2113 -91 
Q 1303 -91 875 529 
Q 447 1150 447 2328 
Q 447 3434 972 4092 
Q 1497 4750 2381 4750 
Q 2619 4750 2861 4703 
Q 3103 4656 3366 4563 
z
" transform="scale(0.015625)"/>
       </defs>
       <use xlink:href="#DejaVuSans-36"/>
      </g>
     </g>
    </g>
    <g id="xtick_5">
     <g id="line2d_5">
      <g>
       <use xlink:href="#m53da0412f9" x="443.33643" y="241.478125" style="stroke: #000000; stroke-width: 0.8"/>
      </g>
     </g>
     <g id="text_5">
      <!-- 8 -->
      <g transform="translate(440.15518 256.076563) scale(0.1 -0.1)">
       <defs>
        <path id="DejaVuSans-38" d="M 2034 2216 
Q 1584 2216 1326 1975 
Q 1069 1734 1069 1313 
Q 1069 891 1326 650 
Q 1584 409 2034 409 
Q 2484 409 2743 651 
Q 3003 894 3003 1313 
Q 3003 1734 2745 1975 
Q 2488 2216 2034 2216 
z
M 1403 2484 
Q 997 2584 770 2862 
Q 544 3141 544 3541 
Q 544 4100 942 4425 
Q 1341 4750 2034 4750 
Q 2731 4750 3128 4425 
Q 3525 4100 3525 3541 
Q 3525 3141 3298 2862 
Q 3072 2584 2669 2484 
Q 3125 2378 3379 2068 
Q 3634 1759 3634 1313 
Q 3634 634 3220 271 
Q 2806 -91 2034 -91 
Q 1263 -91 848 271 
Q 434 634 434 1313 
Q 434 1759 690 2068 
Q 947 2378 1403 2484 
z
M 1172 3481 
Q 1172 3119 1398 2916 
Q 1625 2713 2034 2713 
Q 2441 2713 2670 2916 
Q 2900 3119 2900 3481 
Q 2900 3844 2670 4047 
Q 2441 4250 2034 4250 
Q 1625 4250 1398 4047 
Q 1172 3844 1172 3481 
z
" transform="scale(0.015625)"/>
       </defs>
       <use xlink:href="#DejaVuSans-38"/>
      </g>
     </g>
    </g>
    <g id="xtick_6">
     <g id="line2d_6">
      <g>
       <use xlink:href="#m53da0412f9" x="537.739432" y="241.478125" style="stroke: #000000; stroke-width: 0.8"/>
      </g>
     </g>
     <g id="text_6">
      <!-- 10 -->
      <g transform="translate(531.376932 256.076563) scale(0.1 -0.1)">
       <defs>
        <path id="DejaVuSans-31" d="M 794 531 
L 1825 531 
L 1825 4091 
L 703 3866 
L 703 4441 
L 1819 4666 
L 2450 4666 
L 2450 531 
L 3481 531 
L 3481 0 
L 794 0 
L 794 531 
z
" transform="scale(0.015625)"/>
       </defs>
       <use xlink:href="#DejaVuSans-31"/>
       <use xlink:href="#DejaVuSans-30" x="63.623047"/>
      </g>
     </g>
    </g>
    <g id="text_7">
     <!-- χ² Value -->
     <g transform="translate(282.307969 269.754687) scale(0.1 -0.1)">
      <defs>
       <path id="DejaVuSans-3c7" d="M 2288 -781 
L 1822 416 
L 863 -1334 
L 184 -1334 
L 1541 1141 
L 972 2613 
Q 819 3006 338 3006 
L 184 3006 
L 184 3500 
L 403 3494 
Q 1209 3472 1413 2950 
L 1875 1753 
L 2834 3503 
L 3513 3503 
L 2156 1028 
L 2725 -444 
Q 2878 -838 3359 -838 
L 3513 -838 
L 3513 -1331 
L 3294 -1325 
Q 2488 -1303 2288 -781 
z
" transform="scale(0.015625)"/>
       <path id="DejaVuSans-b2" d="M 838 2444 
L 2163 2444 
L 2163 2088 
L 294 2088 
L 294 2431 
Q 400 2528 597 2703 
Q 1672 3656 1672 3950 
Q 1672 4156 1509 4282 
Q 1347 4409 1081 4409 
Q 919 4409 728 4354 
Q 538 4300 313 4191 
L 313 4575 
Q 553 4663 761 4706 
Q 969 4750 1147 4750 
Q 1600 4750 1872 4544 
Q 2144 4338 2144 4000 
Q 2144 3566 1109 2678 
Q 934 2528 838 2444 
z
" transform="scale(0.015625)"/>
       <path id="DejaVuSans-20" transform="scale(0.015625)"/>
       <path id="DejaVuSans-56" d="M 1831 0 
L 50 4666 
L 709 4666 
L 2188 738 
L 3669 4666 
L 4325 4666 
L 2547 0 
L 1831 0 
z
" transform="scale(0.015625)"/>
       <path id="DejaVuSans-61" d="M 2194 1759 
Q 1497 1759 1228 1600 
Q 959 1441 959 1056 
Q 959 750 1161 570 
Q 1363 391 1709 391 
Q 2188 391 2477 730 
Q 2766 1069 2766 1631 
L 2766 1759 
L 2194 1759 
z
M 3341 1997 
L 3341 0 
L 2766 0 
L 2766 531 
Q 2569 213 2275 61 
Q 1981 -91 1556 -91 
Q 1019 -91 701 211 
Q 384 513 384 1019 
Q 384 1609 779 1909 
Q 1175 2209 1959 2209 
L 2766 2209 
L 2766 2266 
Q 2766 2663 2505 2880 
Q 2244 3097 1772 3097 
Q 1472 3097 1187 3025 
Q 903 2953 641 2809 
L 641 3341 
Q 956 3463 1253 3523 
Q 1550 3584 1831 3584 
Q 2591 3584 2966 3190 
Q 3341 2797 3341 1997 
z
" transform="scale(0.015625)"/>
       <path id="DejaVuSans-6c" d="M 603 4863 
L 1178 4863 
L 1178 0 
L 603 0 
L 603 4863 
z
" transform="scale(0.015625)"/>
       <path id="DejaVuSans-75" d="M 544 1381 
L 544 3500 
L 1119 3500 
L 1119 1403 
Q 1119 906 1312 657 
Q 1506 409 1894 409 
Q 2359 409 2629 706 
Q 2900 1003 2900 1516 
L 2900 3500 
L 3475 3500 
L 3475 0 
L 2900 0 
L 2900 538 
Q 2691 219 2414 64 
Q 2138 -91 1772 -91 
Q 1169 -91 856 284 
Q 544 659 544 1381 
z
M 1991 3584 
L 1991 3584 
z
" transform="scale(0.015625)"/>
       <path id="DejaVuSans-65" d="M 3597 1894 
L 3597 1613 
L 953 1613 
Q 991 1019 1311 708 
Q 1631 397 2203 397 
Q 2534 397 2845 478 
Q 3156 559 3463 722 
L 3463 178 
Q 3153 47 2828 -22 
Q 2503 -91 2169 -91 
Q 1331 -91 842 396 
Q 353 884 353 1716 
Q 353 2575 817 3079 
Q 1281 3584 2069 3584 
Q 2775 3584 3186 3129 
Q 3597 2675 3597 1894 
z
M 3022 2063 
Q 3016 2534 2758 2815 
Q 2500 3097 2075 3097 
Q 1594 3097 1305 2825 
Q 1016 2553 972 2059 
L 3022 2063 
z
" transform="scale(0.015625)"/>
      </defs>
      <use xlink:href="#DejaVuSans-3c7"/>
      <use xlink:href="#DejaVuSans-b2" x="57.763672"/>
      <use xlink:href="#DejaVuSans-20" x="97.851562"/>
      <use xlink:href="#DejaVuSans-56" x="129.638672"/>
      <use xlink:href="#DejaVuSans-61" x="190.296875"/>
      <use xlink:href="#DejaVuSans-6c" x="251.576172"/>
      <use xlink:href="#DejaVuSans-75" x="279.359375"/>
      <use xlink:href="#DejaVuSans-65" x="342.738281"/>
     </g>
    </g>
   </g>
   <g id="matplotlib.axis_2">
    <g id="ytick_1">
     <g id="line2d_7">
      <defs>
       <path id="m3b46277bdc" d="M 0 0 
L -3.5 0 
" style="stroke: #000000; stroke-width: 0.8"/>
      </defs>
      <g>
       <use xlink:href="#m3b46277bdc" x="43.78125" y="241.478125" style="stroke: #000000; stroke-width: 0.8"/>
      </g>
     </g>
     <g id="text_8">
      <!-- 0.0 -->
      <g transform="translate(20.878125 245.277344) scale(0.1 -0.1)">
       <defs>
        <path id="DejaVuSans-2e" d="M 684 794 
L 1344 794 
L 1344 0 
L 684 0 
L 684 794 
z
" transform="scale(0.015625)"/>
       </defs>
       <use xlink:href="#DejaVuSans-30"/>
       <use xlink:href="#DejaVuSans-2e" x="63.623047"/>
       <use xlink:href="#DejaVuSans-30" x="95.410156"/>
      </g>
     </g>
    </g>
    <g id="ytick_2">
     <g id="line2d_8">
      <g>
       <use xlink:href="#m3b46277bdc" x="43.78125" y="192.83082" style="stroke: #000000; stroke-width: 0.8"/>
      </g>
     </g>
     <g id="text_9">
      <!-- 0.5 -->
      <g transform="translate(20.878125 196.630039) scale(0.1 -0.1)">
       <defs>
        <path id="DejaVuSans-35" d="M 691 4666 
L 3169 4666 
L 3169 4134 
L 1269 4134 
L 1269 2991 
Q 1406 3038 1543 3061 
Q 1681 3084 1819 3084 
Q 2600 3084 3056 2656 
Q 3513 2228 3513 1497 
Q 3513 744 3044 326 
Q 2575 -91 1722 -91 
Q 1428 -91 1123 -41 
Q 819 9 494 109 
L 494 744 
Q 775 591 1075 516 
Q 1375 441 1709 441 
Q 2250 441 2565 725 
Q 2881 1009 2881 1497 
Q 2881 1984 2565 2268 
Q 2250 2553 1709 2553 
Q 1456 2553 1204 2497 
Q 953 2441 691 2322 
L 691 4666 
z
" transform="scale(0.015625)"/>
       </defs>
       <use xlink:href="#DejaVuSans-30"/>
       <use xlink:href="#DejaVuSans-2e" x="63.623047"/>
       <use xlink:href="#DejaVuSans-35" x="95.410156"/>
      </g>
     </g>
    </g>
    <g id="ytick_3">
     <g id="line2d_9">
      <g>
       <use xlink:href="#m3b46277bdc" x="43.78125" y="144.183515" style="stroke: #000000; stroke-width: 0.8"/>
      </g>
     </g>
     <g id="text_10">
      <!-- 1.0 -->
      <g transform="translate(20.878125 147.982734) scale(0.1 -0.1)">
       <use xlink:href="#DejaVuSans-31"/>
       <use xlink:href="#DejaVuSans-2e" x="63.623047"/>
       <use xlink:href="#DejaVuSans-30" x="95.410156"/>
      </g>
     </g>
    </g>
    <g id="ytick_4">
     <g id="line2d_10">
      <g>
       <use xlink:href="#m3b46277bdc" x="43.78125" y="95.53621" style="stroke: #000000; stroke-width: 0.8"/>
      </g>
     </g>
     <g id="text_11">
      <!-- 1.5 -->
      <g transform="translate(20.878125 99.335429) scale(0.1 -0.1)">
       <use xlink:href="#DejaVuSans-31"/>
       <use xlink:href="#DejaVuSans-2e" x="63.623047"/>
       <use xlink:href="#DejaVuSans-35" x="95.410156"/>
      </g>
     </g>
    </g>
    <g id="ytick_5">
     <g id="line2d_11">
      <g>
       <use xlink:href="#m3b46277bdc" x="43.78125" y="46.888905" style="stroke: #000000; stroke-width: 0.8"/>
      </g>
     </g>
     <g id="text_12">
      <!-- 2.0 -->
      <g transform="translate(20.878125 50.688123) scale(0.1 -0.1)">
       <use xlink:href="#DejaVuSans-32"/>
       <use xlink:href="#DejaVuSans-2e" x="63.623047"/>
       <use xlink:href="#DejaVuSans-30" x="95.410156"/>
      </g>
     </g>
    </g>
    <g id="text_13">
     <!-- Probability Density -->
     <g transform="translate(14.798438 178.924688) rotate(-90) scale(0.1 -0.1)">
      <defs>
       <path id="DejaVuSans-50" d="M 1259 4147 
L 1259 2394 
L 2053 2394 
Q 2494 2394 2734 2622 
Q 2975 2850 2975 3272 
Q 2975 3691 2734 3919 
Q 2494 4147 2053 4147 
L 1259 4147 
z
M 628 4666 
L 2053 4666 
Q 2838 4666 3239 4311 
Q 3641 3956 3641 3272 
Q 3641 2581 3239 2228 
Q 2838 1875 2053 1875 
L 1259 1875 
L 1259 0 
L 628 0 
L 628 4666 
z
" transform="scale(0.015625)"/>
       <path id="DejaVuSans-72" d="M 2631 2963 
Q 2534 3019 2420 3045 
Q 2306 3072 2169 3072 
Q 1681 3072 1420 2755 
Q 1159 2438 1159 1844 
L 1159 0 
L 581 0 
L 581 3500 
L 1159 3500 
L 1159 2956 
Q 1341 3275 1631 3429 
Q 1922 3584 2338 3584 
Q 2397 3584 2469 3576 
Q 2541 3569 2628 3553 
L 2631 2963 
z
" transform="scale(0.015625)"/>
       <path id="DejaVuSans-6f" d="M 1959 3097 
Q 1497 3097 1228 2736 
Q 959 2375 959 1747 
Q 959 1119 1226 758 
Q 1494 397 1959 397 
Q 2419 397 2687 759 
Q 2956 1122 2956 1747 
Q 2956 2369 2687 2733 
Q 2419 3097 1959 3097 
z
M 1959 3584 
Q 2709 3584 3137 3096 
Q 3566 2609 3566 1747 
Q 3566 888 3137 398 
Q 2709 -91 1959 -91 
Q 1206 -91 779 398 
Q 353 888 353 1747 
Q 353 2609 779 3096 
Q 1206 3584 1959 3584 
z
" transform="scale(0.015625)"/>
       <path id="DejaVuSans-62" d="M 3116 1747 
Q 3116 2381 2855 2742 
Q 2594 3103 2138 3103 
Q 1681 3103 1420 2742 
Q 1159 2381 1159 1747 
Q 1159 1113 1420 752 
Q 1681 391 2138 391 
Q 2594 391 2855 752 
Q 3116 1113 3116 1747 
z
M 1159 2969 
Q 1341 3281 1617 3432 
Q 1894 3584 2278 3584 
Q 2916 3584 3314 3078 
Q 3713 2572 3713 1747 
Q 3713 922 3314 415 
Q 2916 -91 2278 -91 
Q 1894 -91 1617 61 
Q 1341 213 1159 525 
L 1159 0 
L 581 0 
L 581 4863 
L 1159 4863 
L 1159 2969 
z
" transform="scale(0.015625)"/>
       <path id="DejaVuSans-69" d="M 603 3500 
L 1178 3500 
L 1178 0 
L 603 0 
L 603 3500 
z
M 603 4863 
L 1178 4863 
L 1178 4134 
L 603 4134 
L 603 4863 
z
" transform="scale(0.015625)"/>
       <path id="DejaVuSans-74" d="M 1172 4494 
L 1172 3500 
L 2356 3500 
L 2356 3053 
L 1172 3053 
L 1172 1153 
Q 1172 725 1289 603 
Q 1406 481 1766 481 
L 2356 481 
L 2356 0 
L 1766 0 
Q 1100 0 847 248 
Q 594 497 594 1153 
L 594 3053 
L 172 3053 
L 172 3500 
L 594 3500 
L 594 4494 
L 1172 4494 
z
" transform="scale(0.015625)"/>
       <path id="DejaVuSans-79" d="M 2059 -325 
Q 1816 -950 1584 -1140 
Q 1353 -1331 966 -1331 
L 506 -1331 
L 506 -850 
L 844 -850 
Q 1081 -850 1212 -737 
Q 1344 -625 1503 -206 
L 1606 56 
L 191 3500 
L 800 3500 
L 1894 763 
L 2988 3500 
L 3597 3500 
L 2059 -325 
z
" transform="scale(0.015625)"/>
       <path id="DejaVuSans-44" d="M 1259 4147 
L 1259 519 
L 2022 519 
Q 2988 519 3436 956 
Q 3884 1394 3884 2338 
Q 3884 3275 3436 3711 
Q 2988 4147 2022 4147 
L 1259 4147 
z
M 628 4666 
L 1925 4666 
Q 3281 4666 3915 4102 
Q 4550 3538 4550 2338 
Q 4550 1131 3912 565 
Q 3275 0 1925 0 
L 628 0 
L 628 4666 
z
" transform="scale(0.015625)"/>
       <path id="DejaVuSans-6e" d="M 3513 2113 
L 3513 0 
L 2938 0 
L 2938 2094 
Q 2938 2591 2744 2837 
Q 2550 3084 2163 3084 
Q 1697 3084 1428 2787 
Q 1159 2491 1159 1978 
L 1159 0 
L 581 0 
L 581 3500 
L 1159 3500 
L 1159 2956 
Q 1366 3272 1645 3428 
Q 1925 3584 2291 3584 
Q 2894 3584 3203 3211 
Q 3513 2838 3513 2113 
z
" transform="scale(0.015625)"/>
       <path id="DejaVuSans-73" d="M 2834 3397 
L 2834 2853 
Q 2591 2978 2328 3040 
Q 2066 3103 1784 3103 
Q 1356 3103 1142 2972 
Q 928 2841 928 2578 
Q 928 2378 1081 2264 
Q 1234 2150 1697 2047 
L 1894 2003 
Q 2506 1872 2764 1633 
Q 3022 1394 3022 966 
Q 3022 478 2636 193 
Q 2250 -91 1575 -91 
Q 1294 -91 989 -36 
Q 684 19 347 128 
L 347 722 
Q 666 556 975 473 
Q 1284 391 1588 391 
Q 1994 391 2212 530 
Q 2431 669 2431 922 
Q 2431 1156 2273 1281 
Q 2116 1406 1581 1522 
L 1381 1569 
Q 847 1681 609 1914 
Q 372 2147 372 2553 
Q 372 3047 722 3315 
Q 1072 3584 1716 3584 
Q 2034 3584 2315 3537 
Q 2597 3491 2834 3397 
z
" transform="scale(0.015625)"/>
      </defs>
      <use xlink:href="#DejaVuSans-50"/>
      <use xlink:href="#DejaVuSans-72" x="58.552734"/>
      <use xlink:href="#DejaVuSans-6f" x="97.416016"/>
      <use xlink:href="#DejaVuSans-62" x="158.597656"/>
      <use xlink:href="#DejaVuSans-61" x="222.074219"/>
      <use xlink:href="#DejaVuSans-62" x="283.353516"/>
      <use xlink:href="#DejaVuSans-69" x="346.830078"/>
      <use xlink:href="#DejaVuSans-6c" x="374.613281"/>
      <use xlink:href="#DejaVuSans-69" x="402.396484"/>
      <use xlink:href="#DejaVuSans-74" x="430.179688"/>
      <use xlink:href="#DejaVuSans-79" x="469.388672"/>
      <use xlink:href="#DejaVuSans-20" x="528.568359"/>
      <use xlink:href="#DejaVuSans-44" x="560.355469"/>
      <use xlink:href="#DejaVuSans-65" x="637.357422"/>
      <use xlink:href="#DejaVuSans-6e" x="698.880859"/>
      <use xlink:href="#DejaVuSans-73" x="762.259766"/>
      <use xlink:href="#DejaVuSans-69" x="814.359375"/>
      <use xlink:href="#DejaVuSans-74" x="842.142578"/>
      <use xlink:href="#DejaVuSans-79" x="881.351562"/>
     </g>
    </g>
   </g>
   <g id="line2d_12">
    <path d="M 67.303068 32.754315 
L 68.881714 96.335643 
L 70.460359 124.935052 
L 72.039005 142.22261 
L 73.61765 154.173512 
L 75.196296 163.10194 
L 76.774941 170.119204 
L 78.353587 175.834909 
L 79.932232 180.615435 
L 81.510878 184.696222 
L 83.089523 188.236518 
L 84.668169 191.348504 
L 86.246814 194.113847 
L 87.82546 196.593652 
L 89.404105 198.834701 
L 92.561396 202.739131 
L 95.718687 206.03997 
L 98.875978 208.878444 
L 102.03327 211.35263 
L 105.190561 213.533184 
L 108.347852 215.472552 
L 111.505143 217.21066 
L 116.241079 219.506556 
L 120.977016 221.497242 
L 125.712952 223.240446 
L 130.448889 224.779447 
L 136.763471 226.570174 
L 143.078053 228.115974 
L 150.971281 229.770595 
L 158.864508 231.176069 
L 168.336381 232.600055 
L 177.808254 233.794408 
L 188.858773 234.957097 
L 201.487937 236.04544 
L 215.695747 237.031403 
L 231.482202 237.899777 
L 250.425948 238.704582 
L 272.526985 239.404081 
L 299.363959 240.009669 
L 330.936869 240.491645 
L 371.981653 240.883808 
L 427.234246 241.173465 
L 510.902458 241.364963 
L 537.739432 241.395421 
L 537.739432 241.395421 
" clip-path="url(#p99059228d1)" style="fill: none; stroke: #000000; stroke-width: 2; stroke-linecap: square"/>
   </g>
   <g id="line2d_13">
    <path d="M 90.898556 241.478125 
L 90.898556 22.318125 
" clip-path="url(#p99059228d1)" style="fill: none; stroke-dasharray: 7.4,3.2; stroke-dashoffset: 0; stroke: #0969da; stroke-width: 2"/>
   </g>
   <g id="line2d_14">
    <path d="M 247.047045 241.478125 
L 247.047045 22.318125 
" clip-path="url(#p99059228d1)" style="fill: none; stroke-dasharray: 2,3.3; stroke-dashoffset: 0; stroke: #ff0000; stroke-width: 2"/>
   </g>
   <g id="patch_3">
    <path d="M 43.78125 241.478125 
L 43.78125 22.318125 
" style="fill: none; stroke: #000000; stroke-width: 0.8; stroke-linejoin: miter; stroke-linecap: square"/>
   </g>
   <g id="patch_4">
    <path d="M 561.26125 241.478125 
L 561.26125 22.318125 
" style="fill: none; stroke: #000000; stroke-width: 0.8; stroke-linejoin: miter; stroke-linecap: square"/>
   </g>
   <g id="patch_5">
    <path d="M 43.78125 241.478125 
L 561.26125 241.478125 
" style="fill: none; stroke: #000000; stroke-width: 0.8; stroke-linejoin: miter; stroke-linecap: square"/>
   </g>
   <g id="patch_6">
    <path d="M 43.78125 22.318125 
L 561.26125 22.318125 
" style="fill: none; stroke: #000000; stroke-width: 0.8; stroke-linejoin: miter; stroke-linecap: square"/>
   </g>
   <g id="text_14">
    <!-- Chi-Squared Goodness-of-Fit Test -->
    <g transform="translate(203.662812 16.318125) scale(0.12 -0.12)">
     <defs>
      <path id="DejaVuSans-43" d="M 4122 4306 
L 4122 3641 
Q 3803 3938 3442 4084 
Q 3081 4231 2675 4231 
Q 1875 4231 1450 3742 
Q 1025 3253 1025 2328 
Q 1025 1406 1450 917 
Q 1875 428 2675 428 
Q 3081 428 3442 575 
Q 3803 722 4122 1019 
L 4122 359 
Q 3791 134 3420 21 
Q 3050 -91 2638 -91 
Q 1578 -91 968 557 
Q 359 1206 359 2328 
Q 359 3453 968 4101 
Q 1578 4750 2638 4750 
Q 3056 4750 3426 4639 
Q 3797 4528 4122 4306 
z
" transform="scale(0.015625)"/>
      <path id="DejaVuSans-68" d="M 3513 2113 
L 3513 0 
L 2938 0 
L 2938 2094 
Q 2938 2591 2744 2837 
Q 2550 3084 2163 3084 
Q 1697 3084 1428 2787 
Q 1159 2491 1159 1978 
L 1159 0 
L 581 0 
L 581 4863 
L 1159 4863 
L 1159 2956 
Q 1366 3272 1645 3428 
Q 1925 3584 2291 3584 
Q 2894 3584 3203 3211 
Q 3513 2838 3513 2113 
z
" transform="scale(0.015625)"/>
      <path id="DejaVuSans-2d" d="M 313 2009 
L 1997 2009 
L 1997 1497 
L 313 1497 
L 313 2009 
z
" transform="scale(0.015625)"/>
      <path id="DejaVuSans-53" d="M 3425 4513 
L 3425 3897 
Q 3066 4069 2747 4153 
Q 2428 4238 2131 4238 
Q 1616 4238 1336 4038 
Q 1056 3838 1056 3469 
Q 1056 3159 1242 3001 
Q 1428 2844 1947 2747 
L 2328 2669 
Q 3034 2534 3370 2195 
Q 3706 1856 3706 1288 
Q 3706 609 3251 259 
Q 2797 -91 1919 -91 
Q 1588 -91 1214 -16 
Q 841 59 441 206 
L 441 856 
Q 825 641 1194 531 
Q 1563 422 1919 422 
Q 2459 422 2753 634 
Q 3047 847 3047 1241 
Q 3047 1584 2836 1778 
Q 2625 1972 2144 2069 
L 1759 2144 
Q 1053 2284 737 2584 
Q 422 2884 422 3419 
Q 422 4038 858 4394 
Q 1294 4750 2059 4750 
Q 2388 4750 2728 4690 
Q 3069 4631 3425 4513 
z
" transform="scale(0.015625)"/>
      <path id="DejaVuSans-71" d="M 947 1747 
Q 947 1113 1208 752 
Q 1469 391 1925 391 
Q 2381 391 2643 752 
Q 2906 1113 2906 1747 
Q 2906 2381 2643 2742 
Q 2381 3103 1925 3103 
Q 1469 3103 1208 2742 
Q 947 2381 947 1747 
z
M 2906 525 
Q 2725 213 2448 61 
Q 2172 -91 1784 -91 
Q 1150 -91 751 415 
Q 353 922 353 1747 
Q 353 2572 751 3078 
Q 1150 3584 1784 3584 
Q 2172 3584 2448 3432 
Q 2725 3281 2906 2969 
L 2906 3500 
L 3481 3500 
L 3481 -1331 
L 2906 -1331 
L 2906 525 
z
" transform="scale(0.015625)"/>
      <path id="DejaVuSans-64" d="M 2906 2969 
L 2906 4863 
L 3481 4863 
L 3481 0 
L 2906 0 
L 2906 525 
Q 2725 213 2448 61 
Q 2172 -91 1784 -91 
Q 1150 -91 751 415 
Q 353 922 353 1747 
Q 353 2572 751 3078 
Q 1150 3584 1784 3584 
Q 2172 3584 2448 3432 
Q 2725 3281 2906 2969 
z
M 947 1747 
Q 947 1113 1208 752 
Q 1469 391 1925 391 
Q 2381 391 2643 752 
Q 2906 1113 2906 1747 
Q 2906 2381 2643 2742 
Q 2381 3103 1925 3103 
Q 1469 3103 1208 2742 
Q 947 2381 947 1747 
z
" transform="scale(0.015625)"/>
      <path id="DejaVuSans-47" d="M 3809 666 
L 3809 1919 
L 2778 1919 
L 2778 2438 
L 4434 2438 
L 4434 434 
Q 4069 175 3628 42 
Q 3188 -91 2688 -91 
Q 1594 -91 976 548 
Q 359 1188 359 2328 
Q 359 3472 976 4111 
Q 1594 4750 2688 4750 
Q 3144 4750 3555 4637 
Q 3966 4525 4313 4306 
L 4313 3634 
Q 3963 3931 3569 4081 
Q 3175 4231 2741 4231 
Q 1884 4231 1454 3753 
Q 1025 3275 1025 2328 
Q 1025 1384 1454 906 
Q 1884 428 2741 428 
Q 3075 428 3337 486 
Q 3600 544 3809 666 
z
" transform="scale(0.015625)"/>
      <path id="DejaVuSans-66" d="M 2375 4863 
L 2375 4384 
L 1825 4384 
Q 1516 4384 1395 4259 
Q 1275 4134 1275 3809 
L 1275 3500 
L 2222 3500 
L 2222 3053 
L 1275 3053 
L 1275 0 
L 697 0 
L 697 3053 
L 147 3053 
L 147 3500 
L 697 3500 
L 697 3744 
Q 697 4328 969 4595 
Q 1241 4863 1831 4863 
L 2375 4863 
z
" transform="scale(0.015625)"/>
      <path id="DejaVuSans-46" d="M 628 4666 
L 3309 4666 
L 3309 4134 
L 1259 4134 
L 1259 2759 
L 3109 2759 
L 3109 2228 
L 1259 2228 
L 1259 0 
L 628 0 
L 628 4666 
z
" transform="scale(0.015625)"/>
      <path id="DejaVuSans-54" d="M -19 4666 
L 3928 4666 
L 3928 4134 
L 2272 4134 
L 2272 0 
L 1638 0 
L 1638 4134 
L -19 4134 
L -19 4666 
z
" transform="scale(0.015625)"/>
     </defs>
     <use xlink:href="#DejaVuSans-43"/>
     <use xlink:href="#DejaVuSans-68" x="69.824219"/>
     <use xlink:href="#DejaVuSans-69" x="133.203125"/>
     <use xlink:href="#DejaVuSans-2d" x="160.986328"/>
     <use xlink:href="#DejaVuSans-53" x="197.070312"/>
     <use xlink:href="#DejaVuSans-71" x="260.546875"/>
     <use xlink:href="#DejaVuSans-75" x="324.023438"/>
     <use xlink:href="#DejaVuSans-61" x="387.402344"/>
     <use xlink:href="#DejaVuSans-72" x="448.681641"/>
     <use xlink:href="#DejaVuSans-65" x="487.544922"/>
     <use xlink:href="#DejaVuSans-64" x="549.068359"/>
     <use xlink:href="#DejaVuSans-20" x="612.544922"/>
     <use xlink:href="#DejaVuSans-47" x="644.332031"/>
     <use xlink:href="#DejaVuSans-6f" x="721.822266"/>
     <use xlink:href="#DejaVuSans-6f" x="783.003906"/>
     <use xlink:href="#DejaVuSans-64" x="844.185547"/>
     <use xlink:href="#DejaVuSans-6e" x="907.662109"/>
     <use xlink:href="#DejaVuSans-65" x="971.041016"/>
     <use xlink:href="#DejaVuSans-73" x="1032.564453"/>
     <use xlink:href="#DejaVuSans-73" x="1084.664062"/>
     <use xlink:href="#DejaVuSans-2d" x="1136.763672"/>
     <use xlink:href="#DejaVuSans-6f" x="1174.722656"/>
     <use xlink:href="#DejaVuSans-66" x="1235.904297"/>
     <use xlink:href="#DejaVuSans-2d" x="1265.609375"/>
     <use xlink:href="#DejaVuSans-46" x="1301.693359"/>
     <use xlink:href="#DejaVuSans-69" x="1351.962891"/>
     <use xlink:href="#DejaVuSans-74" x="1379.746094"/>
     <use xlink:href="#DejaVuSans-20" x="1418.955078"/>
     <use xlink:href="#DejaVuSans-54" x="1450.742188"/>
     <use xlink:href="#DejaVuSans-65" x="1494.826172"/>
     <use xlink:href="#DejaVuSans-73" x="1556.349609"/>
     <use xlink:href="#DejaVuSans-74" x="1608.449219"/>
    </g>
   </g>
   <g id="legend_1">
    <g id="patch_7">
     <path d="M 393.006562 89.035313 
L 554.26125 89.035313 
Q 556.26125 89.035313 556.26125 87.035313 
L 556.26125 29.318125 
Q 556.26125 27.318125 554.26125 27.318125 
L 393.006562 27.318125 
Q 391.006562 27.318125 391.006562 29.318125 
L 391.006562 87.035313 
Q 391.006562 89.035313 393.006562 89.035313 
z
" style="fill: #ffffff; opacity: 0.8; stroke: #cccccc; stroke-linejoin: miter"/>
    </g>
    <g id="line2d_15">
     <path d="M 395.006562 35.416562 
L 405.006562 35.416562 
L 415.006562 35.416562 
" style="fill: none; stroke: #000000; stroke-width: 2; stroke-linecap: square"/>
    </g>
    <g id="text_15">
     <!-- χ² distribution (df=1) -->
     <g transform="translate(423.006562 38.916562) scale(0.1 -0.1)">
      <defs>
       <path id="DejaVuSans-28" d="M 1984 4856 
Q 1566 4138 1362 3434 
Q 1159 2731 1159 2009 
Q 1159 1288 1364 580 
Q 1569 -128 1984 -844 
L 1484 -844 
Q 1016 -109 783 600 
Q 550 1309 550 2009 
Q 550 2706 781 3412 
Q 1013 4119 1484 4856 
L 1984 4856 
z
" transform="scale(0.015625)"/>
       <path id="DejaVuSans-3d" d="M 678 2906 
L 4684 2906 
L 4684 2381 
L 678 2381 
L 678 2906 
z
M 678 1631 
L 4684 1631 
L 4684 1100 
L 678 1100 
L 678 1631 
z
" transform="scale(0.015625)"/>
       <path id="DejaVuSans-29" d="M 513 4856 
L 1013 4856 
Q 1481 4119 1714 3412 
Q 1947 2706 1947 2009 
Q 1947 1309 1714 600 
Q 1481 -109 1013 -844 
L 513 -844 
Q 928 -128 1133 580 
Q 1338 1288 1338 2009 
Q 1338 2731 1133 3434 
Q 928 4138 513 4856 
z
" transform="scale(0.015625)"/>
      </defs>
      <use xlink:href="#DejaVuSans-3c7"/>
      <use xlink:href="#DejaVuSans-b2" x="57.763672"/>
      <use xlink:href="#DejaVuSans-20" x="97.851562"/>
      <use xlink:href="#DejaVuSans-64" x="129.638672"/>
      <use xlink:href="#DejaVuSans-69" x="193.115234"/>
      <use xlink:href="#DejaVuSans-73" x="220.898438"/>
      <use xlink:href="#DejaVuSans-74" x="272.998047"/>
      <use xlink:href="#DejaVuSans-72" x="312.207031"/>
      <use xlink:href="#DejaVuSans-69" x="353.320312"/>
      <use xlink:href="#DejaVuSans-62" x="381.103516"/>
      <use xlink:href="#DejaVuSans-75" x="444.580078"/>
      <use xlink:href="#DejaVuSans-74" x="507.958984"/>
      <use xlink:href="#DejaVuSans-69" x="547.167969"/>
      <use xlink:href="#DejaVuSans-6f" x="574.951172"/>
      <use xlink:href="#DejaVuSans-6e" x="636.132812"/>
      <use xlink:href="#DejaVuSans-20" x="699.511719"/>
      <use xlink:href="#DejaVuSans-28" x="731.298828"/>
      <use xlink:href="#DejaVuSans-64" x="770.3125"/>
      <use xlink:href="#DejaVuSans-66" x="833.789062"/>
      <use xlink:href="#DejaVuSans-3d" x="868.994141"/>
      <use xlink:href="#DejaVuSans-31" x="952.783203"/>
      <use xlink:href="#DejaVuSans-29" x="1016.40625"/>
     </g>
    </g>
    <g id="patch_8">
     <path d="M 395.006562 53.599375 
L 415.006562 53.599375 
L 415.006562 46.599375 
L 395.006562 46.599375 
z
" style="fill: #ff0000; fill-opacity: 0.3; stroke: #ff0000; stroke-opacity: 0.3; stroke-linejoin: miter"/>
    </g>
    <g id="text_16">
     <!-- Rejection region (α=0.05) -->
     <g transform="translate(423.006562 53.599375) scale(0.1 -0.1)">
      <defs>
       <path id="DejaVuSans-52" d="M 2841 2188 
Q 3044 2119 3236 1894 
Q 3428 1669 3622 1275 
L 4263 0 
L 3584 0 
L 2988 1197 
Q 2756 1666 2539 1819 
Q 2322 1972 1947 1972 
L 1259 1972 
L 1259 0 
L 628 0 
L 628 4666 
L 2053 4666 
Q 2853 4666 3247 4331 
Q 3641 3997 3641 3322 
Q 3641 2881 3436 2590 
Q 3231 2300 2841 2188 
z
M 1259 4147 
L 1259 2491 
L 2053 2491 
Q 2509 2491 2742 2702 
Q 2975 2913 2975 3322 
Q 2975 3731 2742 3939 
Q 2509 4147 2053 4147 
L 1259 4147 
z
" transform="scale(0.015625)"/>
       <path id="DejaVuSans-6a" d="M 603 3500 
L 1178 3500 
L 1178 -63 
Q 1178 -731 923 -1031 
Q 669 -1331 103 -1331 
L -116 -1331 
L -116 -844 
L 38 -844 
Q 366 -844 484 -692 
Q 603 -541 603 -63 
L 603 3500 
z
M 603 4863 
L 1178 4863 
L 1178 4134 
L 603 4134 
L 603 4863 
z
" transform="scale(0.015625)"/>
       <path id="DejaVuSans-63" d="M 3122 3366 
L 3122 2828 
Q 2878 2963 2633 3030 
Q 2388 3097 2138 3097 
Q 1578 3097 1268 2742 
Q 959 2388 959 1747 
Q 959 1106 1268 751 
Q 1578 397 2138 397 
Q 2388 397 2633 464 
Q 2878 531 3122 666 
L 3122 134 
Q 2881 22 2623 -34 
Q 2366 -91 2075 -91 
Q 1284 -91 818 406 
Q 353 903 353 1747 
Q 353 2603 823 3093 
Q 1294 3584 2113 3584 
Q 2378 3584 2631 3529 
Q 2884 3475 3122 3366 
z
" transform="scale(0.015625)"/>
       <path id="DejaVuSans-67" d="M 2906 1791 
Q 2906 2416 2648 2759 
Q 2391 3103 1925 3103 
Q 1463 3103 1205 2759 
Q 947 2416 947 1791 
Q 947 1169 1205 825 
Q 1463 481 1925 481 
Q 2391 481 2648 825 
Q 2906 1169 2906 1791 
z
M 3481 434 
Q 3481 -459 3084 -895 
Q 2688 -1331 1869 -1331 
Q 1566 -1331 1297 -1286 
Q 1028 -1241 775 -1147 
L 775 -588 
Q 1028 -725 1275 -790 
Q 1522 -856 1778 -856 
Q 2344 -856 2625 -561 
Q 2906 -266 2906 331 
L 2906 616 
Q 2728 306 2450 153 
Q 2172 0 1784 0 
Q 1141 0 747 490 
Q 353 981 353 1791 
Q 353 2603 747 3093 
Q 1141 3584 1784 3584 
Q 2172 3584 2450 3431 
Q 2728 3278 2906 2969 
L 2906 3500 
L 3481 3500 
L 3481 434 
z
" transform="scale(0.015625)"/>
       <path id="DejaVuSans-3b1" d="M 2644 1628 
L 2506 2350 
Q 2366 3091 1809 3091 
Q 1391 3091 1200 2747 
Q 959 2316 959 1747 
Q 959 1059 1194 731 
Q 1431 397 1809 397 
Q 2228 397 2453 1063 
L 2644 1628 
z
M 2966 2584 
L 3275 3500 
L 3788 3500 
L 3147 1603 
L 3272 919 
Q 3300 766 3409 638 
Q 3538 488 3638 488 
L 3913 488 
L 3913 0 
L 3569 0 
Q 3275 0 3013 263 
Q 2884 394 2831 669 
Q 2688 322 2394 50 
Q 2256 -78 1809 -78 
Q 1075 -78 719 397 
Q 353 888 353 1747 
Q 353 2666 750 3097 
Q 1191 3578 1809 3578 
Q 2781 3578 2966 2584 
z
" transform="scale(0.015625)"/>
      </defs>
      <use xlink:href="#DejaVuSans-52"/>
      <use xlink:href="#DejaVuSans-65" x="64.982422"/>
      <use xlink:href="#DejaVuSans-6a" x="126.505859"/>
      <use xlink:href="#DejaVuSans-65" x="154.289062"/>
      <use xlink:href="#DejaVuSans-63" x="215.8125"/>
      <use xlink:href="#DejaVuSans-74" x="270.792969"/>
      <use xlink:href="#DejaVuSans-69" x="310.001953"/>
      <use xlink:href="#DejaVuSans-6f" x="337.785156"/>
      <use xlink:href="#DejaVuSans-6e" x="398.966797"/>
      <use xlink:href="#DejaVuSans-20" x="462.345703"/>
      <use xlink:href="#DejaVuSans-72" x="494.132812"/>
      <use xlink:href="#DejaVuSans-65" x="532.996094"/>
      <use xlink:href="#DejaVuSans-67" x="594.519531"/>
      <use xlink:href="#DejaVuSans-69" x="657.996094"/>
      <use xlink:href="#DejaVuSans-6f" x="685.779297"/>
      <use xlink:href="#DejaVuSans-6e" x="746.960938"/>
      <use xlink:href="#DejaVuSans-20" x="810.339844"/>
      <use xlink:href="#DejaVuSans-28" x="842.126953"/>
      <use xlink:href="#DejaVuSans-3b1" x="881.140625"/>
      <use xlink:href="#DejaVuSans-3d" x="947.058594"/>
      <use xlink:href="#DejaVuSans-30" x="1030.847656"/>
      <use xlink:href="#DejaVuSans-2e" x="1094.470703"/>
      <use xlink:href="#DejaVuSans-30" x="1126.257812"/>
      <use xlink:href="#DejaVuSans-35" x="1189.880859"/>
      <use xlink:href="#DejaVuSans-29" x="1253.503906"/>
     </g>
    </g>
    <g id="line2d_16">
     <path d="M 395.006562 64.7775 
L 405.006562 64.7775 
L 415.006562 64.7775 
" style="fill: none; stroke-dasharray: 7.4,3.2; stroke-dashoffset: 0; stroke: #0969da; stroke-width: 2"/>
    </g>
    <g id="text_17">
     <!-- Test statistic = 0.533 -->
     <g transform="translate(423.006562 68.2775) scale(0.1 -0.1)">
      <defs>
       <path id="DejaVuSans-33" d="M 2597 2516 
Q 3050 2419 3304 2112 
Q 3559 1806 3559 1356 
Q 3559 666 3084 287 
Q 2609 -91 1734 -91 
Q 1441 -91 1130 -33 
Q 819 25 488 141 
L 488 750 
Q 750 597 1062 519 
Q 1375 441 1716 441 
Q 2309 441 2620 675 
Q 2931 909 2931 1356 
Q 2931 1769 2642 2001 
Q 2353 2234 1838 2234 
L 1294 2234 
L 1294 2753 
L 1863 2753 
Q 2328 2753 2575 2939 
Q 2822 3125 2822 3475 
Q 2822 3834 2567 4026 
Q 2313 4219 1838 4219 
Q 1578 4219 1281 4162 
Q 984 4106 628 3988 
L 628 4550 
Q 988 4650 1302 4700 
Q 1616 4750 1894 4750 
Q 2613 4750 3031 4423 
Q 3450 4097 3450 3541 
Q 3450 3153 3228 2886 
Q 3006 2619 2597 2516 
z
" transform="scale(0.015625)"/>
      </defs>
      <use xlink:href="#DejaVuSans-54"/>
      <use xlink:href="#DejaVuSans-65" x="44.083984"/>
      <use xlink:href="#DejaVuSans-73" x="105.607422"/>
      <use xlink:href="#DejaVuSans-74" x="157.707031"/>
      <use xlink:href="#DejaVuSans-20" x="196.916016"/>
      <use xlink:href="#DejaVuSans-73" x="228.703125"/>
      <use xlink:href="#DejaVuSans-74" x="280.802734"/>
      <use xlink:href="#DejaVuSans-61" x="320.011719"/>
      <use xlink:href="#DejaVuSans-74" x="381.291016"/>
      <use xlink:href="#DejaVuSans-69" x="420.5"/>
      <use xlink:href="#DejaVuSans-73" x="448.283203"/>
      <use xlink:href="#DejaVuSans-74" x="500.382812"/>
      <use xlink:href="#DejaVuSans-69" x="539.591797"/>
      <use xlink:href="#DejaVuSans-63" x="567.375"/>
      <use xlink:href="#DejaVuSans-20" x="622.355469"/>
      <use xlink:href="#DejaVuSans-3d" x="654.142578"/>
      <use xlink:href="#DejaVuSans-20" x="737.931641"/>
      <use xlink:href="#DejaVuSans-30" x="769.71875"/>
      <use xlink:href="#DejaVuSans-2e" x="833.341797"/>
      <use xlink:href="#DejaVuSans-35" x="865.128906"/>
      <use xlink:href="#DejaVuSans-33" x="928.751953"/>
      <use xlink:href="#DejaVuSans-33" x="992.375"/>
     </g>
    </g>
    <g id="line2d_17">
     <path d="M 395.006562 79.455625 
L 405.006562 79.455625 
L 415.006562 79.455625 
" style="fill: none; stroke-dasharray: 2,3.3; stroke-dashoffset: 0; stroke: #ff0000; stroke-width: 2"/>
    </g>
    <g id="text_18">
     <!-- Critical value = 3.841 -->
     <g transform="translate(423.006562 82.955625) scale(0.1 -0.1)">
      <defs>
       <path id="DejaVuSans-76" d="M 191 3500 
L 800 3500 
L 1894 563 
L 2988 3500 
L 3597 3500 
L 2284 0 
L 1503 0 
L 191 3500 
z
" transform="scale(0.015625)"/>
      </defs>
      <use xlink:href="#DejaVuSans-43"/>
      <use xlink:href="#DejaVuSans-72" x="69.824219"/>
      <use xlink:href="#DejaVuSans-69" x="110.9375"/>
      <use xlink:href="#DejaVuSans-74" x="138.720703"/>
      <use xlink:href="#DejaVuSans-69" x="177.929688"/>
      <use xlink:href="#DejaVuSans-63" x="205.712891"/>
      <use xlink:href="#DejaVuSans-61" x="260.693359"/>
      <use xlink:href="#DejaVuSans-6c" x="321.972656"/>
      <use xlink:href="#DejaVuSans-20" x="349.755859"/>
      <use xlink:href="#DejaVuSans-76" x="381.542969"/>
      <use xlink:href="#DejaVuSans-61" x="440.722656"/>
      <use xlink:href="#DejaVuSans-6c" x="502.001953"/>
      <use xlink:href="#DejaVuSans-75" x="529.785156"/>
      <use xlink:href="#DejaVuSans-65" x="593.164062"/>
      <use xlink:href="#DejaVuSans-20" x="654.6875"/>
      <use xlink:href="#DejaVuSans-3d" x="686.474609"/>
      <use xlink:href="#DejaVuSans-20" x="770.263672"/>
      <use xlink:href="#DejaVuSans-33" x="802.050781"/>
      <use xlink:href="#DejaVuSans-2e" x="865.673828"/>
      <use xlink:href="#DejaVuSans-38" x="897.460938"/>
      <use xlink:href="#DejaVuSans-34" x="961.083984"/>
      <use xlink:href="#DejaVuSans-31" x="1024.707031"/>
     </g>
    </g>
   </g>
  </g>
 </g>
 <defs>
  <clipPath id="p99059228d1">
   <rect x="43.78125" y="22.318125" width="517.48" height="219.16"/>
  </clipPath>
 </defs>
</svg>
