<?xml version="1.0" encoding="utf-8" standalone="no"?>
<!DOCTYPE svg PUBLIC "-//W3C//DTD SVG 1.1//EN"
  "http://www.w3.org/Graphics/SVG/1.1/DTD/svg11.dtd">
<svg xmlns:xlink="http://www.w3.org/1999/xlink" width="856.748438pt" height="347.72425pt" viewBox="0 0 856.748438 347.72425" xmlns="http://www.w3.org/2000/svg" version="1.1">
 <metadata>
  <rdf:RDF xmlns:dc="http://purl.org/dc/elements/1.1/" xmlns:cc="http://creativecommons.org/ns#" xmlns:rdf="http://www.w3.org/1999/02/22-rdf-syntax-ns#">
   <cc:Work>
    <dc:type rdf:resource="http://purl.org/dc/dcmitype/StillImage"/>
    <dc:date>2026-04-05T23:43:24.536399</dc:date>
    <dc:format>image/svg+xml</dc:format>
    <dc:creator>
     <cc:Agent>
      <dc:title>Matplotlib v3.9.4, https://matplotlib.org/</dc:title>
     </cc:Agent>
    </dc:creator>
   </cc:Work>
  </rdf:RDF>
 </metadata>
 <defs>
  <style type="text/css">*{stroke-linejoin: round; stroke-linecap: butt}</style>
 </defs>
 <g id="figure_1">
  <g id="patch_1">
   <path d="M -0 347.72425 
L 856.748438 347.72425 
L 856.748438 0 
L -0 0 
z
" style="fill: #ffffff"/>
  </g>
  <g id="axes_1">
   <g id="patch_2">
    <path d="M 71.248438 309.446125 
L 849.548438 309.446125 
L 849.548438 22.318125 
L 71.248438 22.318125 
z
" style="fill: #ffffff"/>
   </g>
   <g id="patch_3">
    <path d="M 251.7238 309.446125 
L 161.486119 309.446125 
L 161.486119 22.318125 
L 251.7238 22.318125 
z
" clip-path="url(#p94b770d6b6)" style="fill: #cce5ff; opacity: 0.35; stroke: #cce5ff; stroke-linejoin: miter"/>
   </g>
   <g id="patch_4">
    <path d="M 330.681771 309.446125 
L 296.84264 309.446125 
L 296.84264 22.318125 
L 330.681771 22.318125 
z
" clip-path="url(#p94b770d6b6)" style="fill: #d4edda; opacity: 0.35; stroke: #d4edda; stroke-linejoin: miter"/>
   </g>
   <g id="patch_5">
    <path d="M 594.626988 309.446125 
L 578.835394 309.446125 
L 578.835394 22.318125 
L 594.626988 22.318125 
z
" clip-path="url(#p94b770d6b6)" style="fill: #f8d7da; opacity: 0.35; stroke: #f8d7da; stroke-linejoin: miter"/>
   </g>
   <g id="patch_6">
    <path d="M 612.674524 309.446125 
L 594.626988 309.446125 
L 594.626988 22.318125 
L 612.674524 22.318125 
z
" clip-path="url(#p94b770d6b6)" style="fill: #fff3cd; opacity: 0.35; stroke: #fff3cd; stroke-linejoin: miter"/>
   </g>
   <g id="patch_7">
    <path d="M 669.073075 309.446125 
L 639.745829 309.446125 
L 639.745829 22.318125 
L 669.073075 22.318125 
z
" clip-path="url(#p94b770d6b6)" style="fill: #fce4b8; opacity: 0.35; stroke: #fce4b8; stroke-linejoin: miter"/>
   </g>
   <g id="patch_8">
    <path d="M 748.031046 309.446125 
L 680.352785 309.446125 
L 680.352785 22.318125 
L 748.031046 22.318125 
z
" clip-path="url(#p94b770d6b6)" style="fill: #e2d9f3; opacity: 0.35; stroke: #e2d9f3; stroke-linejoin: miter"/>
   </g>
   <g id="matplotlib.axis_1">
    <g id="xtick_1">
     <g id="line2d_1">
      <defs>
       <path id="m6477a0c456" d="M 0 0 
L 0 3.5 
" style="stroke: #000000; stroke-width: 0.8"/>
      </defs>
      <g>
       <use xlink:href="#m6477a0c456" x="748.031046" y="309.446125" style="stroke: #000000; stroke-width: 0.8"/>
      </g>
     </g>
     <g id="text_1">
      <!-- 1,000 -->
      <g transform="translate(733.716984 324.044562) scale(0.1 -0.1)">
       <defs>
        <path id="DejaVuSans-31" d="M 794 531 
L 1825 531 
L 1825 4091 
L 703 3866 
L 703 4441 
L 1819 4666 
L 2450 4666 
L 2450 531 
L 3481 531 
L 3481 0 
L 794 0 
L 794 531 
z
" transform="scale(0.015625)"/>
        <path id="DejaVuSans-2c" d="M 750 794 
L 1409 794 
L 1409 256 
L 897 -744 
L 494 -744 
L 750 256 
L 750 794 
z
" transform="scale(0.015625)"/>
        <path id="DejaVuSans-30" d="M 2034 4250 
Q 1547 4250 1301 3770 
Q 1056 3291 1056 2328 
Q 1056 1369 1301 889 
Q 1547 409 2034 409 
Q 2525 409 2770 889 
Q 3016 1369 3016 2328 
Q 3016 3291 2770 3770 
Q 2525 4250 2034 4250 
z
M 2034 4750 
Q 2819 4750 3233 4129 
Q 3647 3509 3647 2328 
Q 3647 1150 3233 529 
Q 2819 -91 2034 -91 
Q 1250 -91 836 529 
Q 422 1150 422 2328 
Q 422 3509 836 4129 
Q 1250 4750 2034 4750 
z
" transform="scale(0.015625)"/>
       </defs>
       <use xlink:href="#DejaVuSans-31"/>
       <use xlink:href="#DejaVuSans-2c" x="63.623047"/>
       <use xlink:href="#DejaVuSans-30" x="95.410156"/>
       <use xlink:href="#DejaVuSans-30" x="159.033203"/>
       <use xlink:href="#DejaVuSans-30" x="222.65625"/>
      </g>
     </g>
    </g>
    <g id="xtick_2">
     <g id="line2d_2">
      <g>
       <use xlink:href="#m6477a0c456" x="635.233945" y="309.446125" style="stroke: #000000; stroke-width: 0.8"/>
      </g>
     </g>
     <g id="text_2">
      <!-- 1,500 -->
      <g transform="translate(620.919882 324.044562) scale(0.1 -0.1)">
       <defs>
        <path id="DejaVuSans-35" d="M 691 4666 
L 3169 4666 
L 3169 4134 
L 1269 4134 
L 1269 2991 
Q 1406 3038 1543 3061 
Q 1681 3084 1819 3084 
Q 2600 3084 3056 2656 
Q 3513 2228 3513 1497 
Q 3513 744 3044 326 
Q 2575 -91 1722 -91 
Q 1428 -91 1123 -41 
Q 819 9 494 109 
L 494 744 
Q 775 591 1075 516 
Q 1375 441 1709 441 
Q 2250 441 2565 725 
Q 2881 1009 2881 1497 
Q 2881 1984 2565 2268 
Q 2250 2553 1709 2553 
Q 1456 2553 1204 2497 
Q 953 2441 691 2322 
L 691 4666 
z
" transform="scale(0.015625)"/>
       </defs>
       <use xlink:href="#DejaVuSans-31"/>
       <use xlink:href="#DejaVuSans-2c" x="63.623047"/>
       <use xlink:href="#DejaVuSans-35" x="95.410156"/>
       <use xlink:href="#DejaVuSans-30" x="159.033203"/>
       <use xlink:href="#DejaVuSans-30" x="222.65625"/>
      </g>
     </g>
    </g>
    <g id="xtick_3">
     <g id="line2d_3">
      <g>
       <use xlink:href="#m6477a0c456" x="522.436843" y="309.446125" style="stroke: #000000; stroke-width: 0.8"/>
      </g>
     </g>
     <g id="text_3">
      <!-- 2,000 -->
      <g transform="translate(508.122781 324.044562) scale(0.1 -0.1)">
       <defs>
        <path id="DejaVuSans-32" d="M 1228 531 
L 3431 531 
L 3431 0 
L 469 0 
L 469 531 
Q 828 903 1448 1529 
Q 2069 2156 2228 2338 
Q 2531 2678 2651 2914 
Q 2772 3150 2772 3378 
Q 2772 3750 2511 3984 
Q 2250 4219 1831 4219 
Q 1534 4219 1204 4116 
Q 875 4013 500 3803 
L 500 4441 
Q 881 4594 1212 4672 
Q 1544 4750 1819 4750 
Q 2544 4750 2975 4387 
Q 3406 4025 3406 3419 
Q 3406 3131 3298 2873 
Q 3191 2616 2906 2266 
Q 2828 2175 2409 1742 
Q 1991 1309 1228 531 
z
" transform="scale(0.015625)"/>
       </defs>
       <use xlink:href="#DejaVuSans-32"/>
       <use xlink:href="#DejaVuSans-2c" x="63.623047"/>
       <use xlink:href="#DejaVuSans-30" x="95.410156"/>
       <use xlink:href="#DejaVuSans-30" x="159.033203"/>
       <use xlink:href="#DejaVuSans-30" x="222.65625"/>
      </g>
     </g>
    </g>
    <g id="xtick_4">
     <g id="line2d_4">
      <g>
       <use xlink:href="#m6477a0c456" x="409.639742" y="309.446125" style="stroke: #000000; stroke-width: 0.8"/>
      </g>
     </g>
     <g id="text_4">
      <!-- 2,500 -->
      <g transform="translate(395.325679 324.044562) scale(0.1 -0.1)">
       <use xlink:href="#DejaVuSans-32"/>
       <use xlink:href="#DejaVuSans-2c" x="63.623047"/>
       <use xlink:href="#DejaVuSans-35" x="95.410156"/>
       <use xlink:href="#DejaVuSans-30" x="159.033203"/>
       <use xlink:href="#DejaVuSans-30" x="222.65625"/>
      </g>
     </g>
    </g>
    <g id="xtick_5">
     <g id="line2d_5">
      <g>
       <use xlink:href="#m6477a0c456" x="296.84264" y="309.446125" style="stroke: #000000; stroke-width: 0.8"/>
      </g>
     </g>
     <g id="text_5">
      <!-- 3,000 -->
      <g transform="translate(282.528578 324.044562) scale(0.1 -0.1)">
       <defs>
        <path id="DejaVuSans-33" d="M 2597 2516 
Q 3050 2419 3304 2112 
Q 3559 1806 3559 1356 
Q 3559 666 3084 287 
Q 2609 -91 1734 -91 
Q 1441 -91 1130 -33 
Q 819 25 488 141 
L 488 750 
Q 750 597 1062 519 
Q 1375 441 1716 441 
Q 2309 441 2620 675 
Q 2931 909 2931 1356 
Q 2931 1769 2642 2001 
Q 2353 2234 1838 2234 
L 1294 2234 
L 1294 2753 
L 1863 2753 
Q 2328 2753 2575 2939 
Q 2822 3125 2822 3475 
Q 2822 3834 2567 4026 
Q 2313 4219 1838 4219 
Q 1578 4219 1281 4162 
Q 984 4106 628 3988 
L 628 4550 
Q 988 4650 1302 4700 
Q 1616 4750 1894 4750 
Q 2613 4750 3031 4423 
Q 3450 4097 3450 3541 
Q 3450 3153 3228 2886 
Q 3006 2619 2597 2516 
z
" transform="scale(0.015625)"/>
       </defs>
       <use xlink:href="#DejaVuSans-33"/>
       <use xlink:href="#DejaVuSans-2c" x="63.623047"/>
       <use xlink:href="#DejaVuSans-30" x="95.410156"/>
       <use xlink:href="#DejaVuSans-30" x="159.033203"/>
       <use xlink:href="#DejaVuSans-30" x="222.65625"/>
      </g>
     </g>
    </g>
    <g id="xtick_6">
     <g id="line2d_6">
      <g>
       <use xlink:href="#m6477a0c456" x="184.045539" y="309.446125" style="stroke: #000000; stroke-width: 0.8"/>
      </g>
     </g>
     <g id="text_6">
      <!-- 3,500 -->
      <g transform="translate(169.731476 324.044562) scale(0.1 -0.1)">
       <use xlink:href="#DejaVuSans-33"/>
       <use xlink:href="#DejaVuSans-2c" x="63.623047"/>
       <use xlink:href="#DejaVuSans-35" x="95.410156"/>
       <use xlink:href="#DejaVuSans-30" x="159.033203"/>
       <use xlink:href="#DejaVuSans-30" x="222.65625"/>
      </g>
     </g>
    </g>
    <g id="xtick_7">
     <g id="line2d_7">
      <g>
       <use xlink:href="#m6477a0c456" x="71.248438" y="309.446125" style="stroke: #000000; stroke-width: 0.8"/>
      </g>
     </g>
     <g id="text_7">
      <!-- 4,000 -->
      <g transform="translate(56.934375 324.044562) scale(0.1 -0.1)">
       <defs>
        <path id="DejaVuSans-34" d="M 2419 4116 
L 825 1625 
L 2419 1625 
L 2419 4116 
z
M 2253 4666 
L 3047 4666 
L 3047 1625 
L 3713 1625 
L 3713 1100 
L 3047 1100 
L 3047 0 
L 2419 0 
L 2419 1100 
L 313 1100 
L 313 1709 
L 2253 4666 
z
" transform="scale(0.015625)"/>
       </defs>
       <use xlink:href="#DejaVuSans-34"/>
       <use xlink:href="#DejaVuSans-2c" x="63.623047"/>
       <use xlink:href="#DejaVuSans-30" x="95.410156"/>
       <use xlink:href="#DejaVuSans-30" x="159.033203"/>
       <use xlink:href="#DejaVuSans-30" x="222.65625"/>
      </g>
     </g>
    </g>
    <g id="text_8">
     <!-- Wavenumber (cm$^{-1}$) -->
     <g transform="translate(408.348438 338.444562) scale(0.1 -0.1)">
      <defs>
       <path id="DejaVuSans-57" d="M 213 4666 
L 850 4666 
L 1831 722 
L 2809 4666 
L 3519 4666 
L 4500 722 
L 5478 4666 
L 6119 4666 
L 4947 0 
L 4153 0 
L 3169 4050 
L 2175 0 
L 1381 0 
L 213 4666 
z
" transform="scale(0.015625)"/>
       <path id="DejaVuSans-61" d="M 2194 1759 
Q 1497 1759 1228 1600 
Q 959 1441 959 1056 
Q 959 750 1161 570 
Q 1363 391 1709 391 
Q 2188 391 2477 730 
Q 2766 1069 2766 1631 
L 2766 1759 
L 2194 1759 
z
M 3341 1997 
L 3341 0 
L 2766 0 
L 2766 531 
Q 2569 213 2275 61 
Q 1981 -91 1556 -91 
Q 1019 -91 701 211 
Q 384 513 384 1019 
Q 384 1609 779 1909 
Q 1175 2209 1959 2209 
L 2766 2209 
L 2766 2266 
Q 2766 2663 2505 2880 
Q 2244 3097 1772 3097 
Q 1472 3097 1187 3025 
Q 903 2953 641 2809 
L 641 3341 
Q 956 3463 1253 3523 
Q 1550 3584 1831 3584 
Q 2591 3584 2966 3190 
Q 3341 2797 3341 1997 
z
" transform="scale(0.015625)"/>
       <path id="DejaVuSans-76" d="M 191 3500 
L 800 3500 
L 1894 563 
L 2988 3500 
L 3597 3500 
L 2284 0 
L 1503 0 
L 191 3500 
z
" transform="scale(0.015625)"/>
       <path id="DejaVuSans-65" d="M 3597 1894 
L 3597 1613 
L 953 1613 
Q 991 1019 1311 708 
Q 1631 397 2203 397 
Q 2534 397 2845 478 
Q 3156 559 3463 722 
L 3463 178 
Q 3153 47 2828 -22 
Q 2503 -91 2169 -91 
Q 1331 -91 842 396 
Q 353 884 353 1716 
Q 353 2575 817 3079 
Q 1281 3584 2069 3584 
Q 2775 3584 3186 3129 
Q 3597 2675 3597 1894 
z
M 3022 2063 
Q 3016 2534 2758 2815 
Q 2500 3097 2075 3097 
Q 1594 3097 1305 2825 
Q 1016 2553 972 2059 
L 3022 2063 
z
" transform="scale(0.015625)"/>
       <path id="DejaVuSans-6e" d="M 3513 2113 
L 3513 0 
L 2938 0 
L 2938 2094 
Q 2938 2591 2744 2837 
Q 2550 3084 2163 3084 
Q 1697 3084 1428 2787 
Q 1159 2491 1159 1978 
L 1159 0 
L 581 0 
L 581 3500 
L 1159 3500 
L 1159 2956 
Q 1366 3272 1645 3428 
Q 1925 3584 2291 3584 
Q 2894 3584 3203 3211 
Q 3513 2838 3513 2113 
z
" transform="scale(0.015625)"/>
       <path id="DejaVuSans-75" d="M 544 1381 
L 544 3500 
L 1119 3500 
L 1119 1403 
Q 1119 906 1312 657 
Q 1506 409 1894 409 
Q 2359 409 2629 706 
Q 2900 1003 2900 1516 
L 2900 3500 
L 3475 3500 
L 3475 0 
L 2900 0 
L 2900 538 
Q 2691 219 2414 64 
Q 2138 -91 1772 -91 
Q 1169 -91 856 284 
Q 544 659 544 1381 
z
M 1991 3584 
L 1991 3584 
z
" transform="scale(0.015625)"/>
       <path id="DejaVuSans-6d" d="M 3328 2828 
Q 3544 3216 3844 3400 
Q 4144 3584 4550 3584 
Q 5097 3584 5394 3201 
Q 5691 2819 5691 2113 
L 5691 0 
L 5113 0 
L 5113 2094 
Q 5113 2597 4934 2840 
Q 4756 3084 4391 3084 
Q 3944 3084 3684 2787 
Q 3425 2491 3425 1978 
L 3425 0 
L 2847 0 
L 2847 2094 
Q 2847 2600 2669 2842 
Q 2491 3084 2119 3084 
Q 1678 3084 1418 2786 
Q 1159 2488 1159 1978 
L 1159 0 
L 581 0 
L 581 3500 
L 1159 3500 
L 1159 2956 
Q 1356 3278 1631 3431 
Q 1906 3584 2284 3584 
Q 2666 3584 2933 3390 
Q 3200 3197 3328 2828 
z
" transform="scale(0.015625)"/>
       <path id="DejaVuSans-62" d="M 3116 1747 
Q 3116 2381 2855 2742 
Q 2594 3103 2138 3103 
Q 1681 3103 1420 2742 
Q 1159 2381 1159 1747 
Q 1159 1113 1420 752 
Q 1681 391 2138 391 
Q 2594 391 2855 752 
Q 3116 1113 3116 1747 
z
M 1159 2969 
Q 1341 3281 1617 3432 
Q 1894 3584 2278 3584 
Q 2916 3584 3314 3078 
Q 3713 2572 3713 1747 
Q 3713 922 3314 415 
Q 2916 -91 2278 -91 
Q 1894 -91 1617 61 
Q 1341 213 1159 525 
L 1159 0 
L 581 0 
L 581 4863 
L 1159 4863 
L 1159 2969 
z
" transform="scale(0.015625)"/>
       <path id="DejaVuSans-72" d="M 2631 2963 
Q 2534 3019 2420 3045 
Q 2306 3072 2169 3072 
Q 1681 3072 1420 2755 
Q 1159 2438 1159 1844 
L 1159 0 
L 581 0 
L 581 3500 
L 1159 3500 
L 1159 2956 
Q 1341 3275 1631 3429 
Q 1922 3584 2338 3584 
Q 2397 3584 2469 3576 
Q 2541 3569 2628 3553 
L 2631 2963 
z
" transform="scale(0.015625)"/>
       <path id="DejaVuSans-20" transform="scale(0.015625)"/>
       <path id="DejaVuSans-28" d="M 1984 4856 
Q 1566 4138 1362 3434 
Q 1159 2731 1159 2009 
Q 1159 1288 1364 580 
Q 1569 -128 1984 -844 
L 1484 -844 
Q 1016 -109 783 600 
Q 550 1309 550 2009 
Q 550 2706 781 3412 
Q 1013 4119 1484 4856 
L 1984 4856 
z
" transform="scale(0.015625)"/>
       <path id="DejaVuSans-63" d="M 3122 3366 
L 3122 2828 
Q 2878 2963 2633 3030 
Q 2388 3097 2138 3097 
Q 1578 3097 1268 2742 
Q 959 2388 959 1747 
Q 959 1106 1268 751 
Q 1578 397 2138 397 
Q 2388 397 2633 464 
Q 2878 531 3122 666 
L 3122 134 
Q 2881 22 2623 -34 
Q 2366 -91 2075 -91 
Q 1284 -91 818 406 
Q 353 903 353 1747 
Q 353 2603 823 3093 
Q 1294 3584 2113 3584 
Q 2378 3584 2631 3529 
Q 2884 3475 3122 3366 
z
" transform="scale(0.015625)"/>
       <path id="DejaVuSans-2212" d="M 678 2272 
L 4684 2272 
L 4684 1741 
L 678 1741 
L 678 2272 
z
" transform="scale(0.015625)"/>
       <path id="DejaVuSans-29" d="M 513 4856 
L 1013 4856 
Q 1481 4119 1714 3412 
Q 1947 2706 1947 2009 
Q 1947 1309 1714 600 
Q 1481 -109 1013 -844 
L 513 -844 
Q 928 -128 1133 580 
Q 1338 1288 1338 2009 
Q 1338 2731 1133 3434 
Q 928 4138 513 4856 
z
" transform="scale(0.015625)"/>
      </defs>
      <use xlink:href="#DejaVuSans-57" transform="translate(0 0.684375)"/>
      <use xlink:href="#DejaVuSans-61" transform="translate(98.876953 0.684375)"/>
      <use xlink:href="#DejaVuSans-76" transform="translate(160.15625 0.684375)"/>
      <use xlink:href="#DejaVuSans-65" transform="translate(219.335938 0.684375)"/>
      <use xlink:href="#DejaVuSans-6e" transform="translate(280.859375 0.684375)"/>
      <use xlink:href="#DejaVuSans-75" transform="translate(344.238281 0.684375)"/>
      <use xlink:href="#DejaVuSans-6d" transform="translate(407.617188 0.684375)"/>
      <use xlink:href="#DejaVuSans-62" transform="translate(505.029297 0.684375)"/>
      <use xlink:href="#DejaVuSans-65" transform="translate(568.505859 0.684375)"/>
      <use xlink:href="#DejaVuSans-72" transform="translate(630.029297 0.684375)"/>
      <use xlink:href="#DejaVuSans-20" transform="translate(671.142578 0.684375)"/>
      <use xlink:href="#DejaVuSans-28" transform="translate(702.929688 0.684375)"/>
      <use xlink:href="#DejaVuSans-63" transform="translate(741.943359 0.684375)"/>
      <use xlink:href="#DejaVuSans-6d" transform="translate(796.923828 0.684375)"/>
      <use xlink:href="#DejaVuSans-2212" transform="translate(895.292969 38.965625) scale(0.7)"/>
      <use xlink:href="#DejaVuSans-31" transform="translate(953.945312 38.965625) scale(0.7)"/>
      <use xlink:href="#DejaVuSans-29" transform="translate(1001.21582 0.684375)"/>
     </g>
    </g>
   </g>
   <g id="matplotlib.axis_2">
    <g id="ytick_1">
     <g id="line2d_8">
      <path d="M 71.248438 298.054596 
L 849.548438 298.054596 
" clip-path="url(#p94b770d6b6)" style="fill: none; stroke: #b0b0b0; stroke-opacity: 0.3; stroke-width: 0.8; stroke-linecap: square"/>
     </g>
     <g id="line2d_9">
      <defs>
       <path id="mb2d346a71f" d="M 0 0 
L -3.5 0 
" style="stroke: #000000; stroke-width: 0.8"/>
      </defs>
      <g>
       <use xlink:href="#mb2d346a71f" x="71.248438" y="298.054596" style="stroke: #000000; stroke-width: 0.8"/>
      </g>
     </g>
     <g id="text_9">
      <!-- −0.0025 -->
      <g transform="translate(20.878125 301.853815) scale(0.1 -0.1)">
       <defs>
        <path id="DejaVuSans-2e" d="M 684 794 
L 1344 794 
L 1344 0 
L 684 0 
L 684 794 
z
" transform="scale(0.015625)"/>
       </defs>
       <use xlink:href="#DejaVuSans-2212"/>
       <use xlink:href="#DejaVuSans-30" x="83.789062"/>
       <use xlink:href="#DejaVuSans-2e" x="147.412109"/>
       <use xlink:href="#DejaVuSans-30" x="179.199219"/>
       <use xlink:href="#DejaVuSans-30" x="242.822266"/>
       <use xlink:href="#DejaVuSans-32" x="306.445312"/>
       <use xlink:href="#DejaVuSans-35" x="370.068359"/>
      </g>
     </g>
    </g>
    <g id="ytick_2">
     <g id="line2d_10">
      <path d="M 71.248438 259.6346 
L 849.548438 259.6346 
" clip-path="url(#p94b770d6b6)" style="fill: none; stroke: #b0b0b0; stroke-opacity: 0.3; stroke-width: 0.8; stroke-linecap: square"/>
     </g>
     <g id="line2d_11">
      <g>
       <use xlink:href="#mb2d346a71f" x="71.248438" y="259.6346" style="stroke: #000000; stroke-width: 0.8"/>
      </g>
     </g>
     <g id="text_10">
      <!-- 0.0000 -->
      <g transform="translate(29.257813 263.433819) scale(0.1 -0.1)">
       <use xlink:href="#DejaVuSans-30"/>
       <use xlink:href="#DejaVuSans-2e" x="63.623047"/>
       <use xlink:href="#DejaVuSans-30" x="95.410156"/>
       <use xlink:href="#DejaVuSans-30" x="159.033203"/>
       <use xlink:href="#DejaVuSans-30" x="222.65625"/>
       <use xlink:href="#DejaVuSans-30" x="286.279297"/>
      </g>
     </g>
    </g>
    <g id="ytick_3">
     <g id="line2d_12">
      <path d="M 71.248438 221.214604 
L 849.548438 221.214604 
" clip-path="url(#p94b770d6b6)" style="fill: none; stroke: #b0b0b0; stroke-opacity: 0.3; stroke-width: 0.8; stroke-linecap: square"/>
     </g>
     <g id="line2d_13">
      <g>
       <use xlink:href="#mb2d346a71f" x="71.248438" y="221.214604" style="stroke: #000000; stroke-width: 0.8"/>
      </g>
     </g>
     <g id="text_11">
      <!-- 0.0025 -->
      <g transform="translate(29.257813 225.013822) scale(0.1 -0.1)">
       <use xlink:href="#DejaVuSans-30"/>
       <use xlink:href="#DejaVuSans-2e" x="63.623047"/>
       <use xlink:href="#DejaVuSans-30" x="95.410156"/>
       <use xlink:href="#DejaVuSans-30" x="159.033203"/>
       <use xlink:href="#DejaVuSans-32" x="222.65625"/>
       <use xlink:href="#DejaVuSans-35" x="286.279297"/>
      </g>
     </g>
    </g>
    <g id="ytick_4">
     <g id="line2d_14">
      <path d="M 71.248438 182.794607 
L 849.548438 182.794607 
" clip-path="url(#p94b770d6b6)" style="fill: none; stroke: #b0b0b0; stroke-opacity: 0.3; stroke-width: 0.8; stroke-linecap: square"/>
     </g>
     <g id="line2d_15">
      <g>
       <use xlink:href="#mb2d346a71f" x="71.248438" y="182.794607" style="stroke: #000000; stroke-width: 0.8"/>
      </g>
     </g>
     <g id="text_12">
      <!-- 0.0050 -->
      <g transform="translate(29.257813 186.593826) scale(0.1 -0.1)">
       <use xlink:href="#DejaVuSans-30"/>
       <use xlink:href="#DejaVuSans-2e" x="63.623047"/>
       <use xlink:href="#DejaVuSans-30" x="95.410156"/>
       <use xlink:href="#DejaVuSans-30" x="159.033203"/>
       <use xlink:href="#DejaVuSans-35" x="222.65625"/>
       <use xlink:href="#DejaVuSans-30" x="286.279297"/>
      </g>
     </g>
    </g>
    <g id="ytick_5">
     <g id="line2d_16">
      <path d="M 71.248438 144.374611 
L 849.548438 144.374611 
" clip-path="url(#p94b770d6b6)" style="fill: none; stroke: #b0b0b0; stroke-opacity: 0.3; stroke-width: 0.8; stroke-linecap: square"/>
     </g>
     <g id="line2d_17">
      <g>
       <use xlink:href="#mb2d346a71f" x="71.248438" y="144.374611" style="stroke: #000000; stroke-width: 0.8"/>
      </g>
     </g>
     <g id="text_13">
      <!-- 0.0075 -->
      <g transform="translate(29.257813 148.17383) scale(0.1 -0.1)">
       <defs>
        <path id="DejaVuSans-37" d="M 525 4666 
L 3525 4666 
L 3525 4397 
L 1831 0 
L 1172 0 
L 2766 4134 
L 525 4134 
L 525 4666 
z
" transform="scale(0.015625)"/>
       </defs>
       <use xlink:href="#DejaVuSans-30"/>
       <use xlink:href="#DejaVuSans-2e" x="63.623047"/>
       <use xlink:href="#DejaVuSans-30" x="95.410156"/>
       <use xlink:href="#DejaVuSans-30" x="159.033203"/>
       <use xlink:href="#DejaVuSans-37" x="222.65625"/>
       <use xlink:href="#DejaVuSans-35" x="286.279297"/>
      </g>
     </g>
    </g>
    <g id="ytick_6">
     <g id="line2d_18">
      <path d="M 71.248438 105.954615 
L 849.548438 105.954615 
" clip-path="url(#p94b770d6b6)" style="fill: none; stroke: #b0b0b0; stroke-opacity: 0.3; stroke-width: 0.8; stroke-linecap: square"/>
     </g>
     <g id="line2d_19">
      <g>
       <use xlink:href="#mb2d346a71f" x="71.248438" y="105.954615" style="stroke: #000000; stroke-width: 0.8"/>
      </g>
     </g>
     <g id="text_14">
      <!-- 0.0100 -->
      <g transform="translate(29.257813 109.753834) scale(0.1 -0.1)">
       <use xlink:href="#DejaVuSans-30"/>
       <use xlink:href="#DejaVuSans-2e" x="63.623047"/>
       <use xlink:href="#DejaVuSans-30" x="95.410156"/>
       <use xlink:href="#DejaVuSans-31" x="159.033203"/>
       <use xlink:href="#DejaVuSans-30" x="222.65625"/>
       <use xlink:href="#DejaVuSans-30" x="286.279297"/>
      </g>
     </g>
    </g>
    <g id="ytick_7">
     <g id="line2d_20">
      <path d="M 71.248438 67.534619 
L 849.548438 67.534619 
" clip-path="url(#p94b770d6b6)" style="fill: none; stroke: #b0b0b0; stroke-opacity: 0.3; stroke-width: 0.8; stroke-linecap: square"/>
     </g>
     <g id="line2d_21">
      <g>
       <use xlink:href="#mb2d346a71f" x="71.248438" y="67.534619" style="stroke: #000000; stroke-width: 0.8"/>
      </g>
     </g>
     <g id="text_15">
      <!-- 0.0125 -->
      <g transform="translate(29.257813 71.333837) scale(0.1 -0.1)">
       <use xlink:href="#DejaVuSans-30"/>
       <use xlink:href="#DejaVuSans-2e" x="63.623047"/>
       <use xlink:href="#DejaVuSans-30" x="95.410156"/>
       <use xlink:href="#DejaVuSans-31" x="159.033203"/>
       <use xlink:href="#DejaVuSans-32" x="222.65625"/>
       <use xlink:href="#DejaVuSans-35" x="286.279297"/>
      </g>
     </g>
    </g>
    <g id="ytick_8">
     <g id="line2d_22">
      <path d="M 71.248438 29.114622 
L 849.548438 29.114622 
" clip-path="url(#p94b770d6b6)" style="fill: none; stroke: #b0b0b0; stroke-opacity: 0.3; stroke-width: 0.8; stroke-linecap: square"/>
     </g>
     <g id="line2d_23">
      <g>
       <use xlink:href="#mb2d346a71f" x="71.248438" y="29.114622" style="stroke: #000000; stroke-width: 0.8"/>
      </g>
     </g>
     <g id="text_16">
      <!-- 0.0150 -->
      <g transform="translate(29.257813 32.913841) scale(0.1 -0.1)">
       <use xlink:href="#DejaVuSans-30"/>
       <use xlink:href="#DejaVuSans-2e" x="63.623047"/>
       <use xlink:href="#DejaVuSans-30" x="95.410156"/>
       <use xlink:href="#DejaVuSans-31" x="159.033203"/>
       <use xlink:href="#DejaVuSans-35" x="222.65625"/>
       <use xlink:href="#DejaVuSans-30" x="286.279297"/>
      </g>
     </g>
    </g>
    <g id="text_17">
     <!-- Absorbance -->
     <g transform="translate(14.798438 195.429) rotate(-90) scale(0.1 -0.1)">
      <defs>
       <path id="DejaVuSans-41" d="M 2188 4044 
L 1331 1722 
L 3047 1722 
L 2188 4044 
z
M 1831 4666 
L 2547 4666 
L 4325 0 
L 3669 0 
L 3244 1197 
L 1141 1197 
L 716 0 
L 50 0 
L 1831 4666 
z
" transform="scale(0.015625)"/>
       <path id="DejaVuSans-73" d="M 2834 3397 
L 2834 2853 
Q 2591 2978 2328 3040 
Q 2066 3103 1784 3103 
Q 1356 3103 1142 2972 
Q 928 2841 928 2578 
Q 928 2378 1081 2264 
Q 1234 2150 1697 2047 
L 1894 2003 
Q 2506 1872 2764 1633 
Q 3022 1394 3022 966 
Q 3022 478 2636 193 
Q 2250 -91 1575 -91 
Q 1294 -91 989 -36 
Q 684 19 347 128 
L 347 722 
Q 666 556 975 473 
Q 1284 391 1588 391 
Q 1994 391 2212 530 
Q 2431 669 2431 922 
Q 2431 1156 2273 1281 
Q 2116 1406 1581 1522 
L 1381 1569 
Q 847 1681 609 1914 
Q 372 2147 372 2553 
Q 372 3047 722 3315 
Q 1072 3584 1716 3584 
Q 2034 3584 2315 3537 
Q 2597 3491 2834 3397 
z
" transform="scale(0.015625)"/>
       <path id="DejaVuSans-6f" d="M 1959 3097 
Q 1497 3097 1228 2736 
Q 959 2375 959 1747 
Q 959 1119 1226 758 
Q 1494 397 1959 397 
Q 2419 397 2687 759 
Q 2956 1122 2956 1747 
Q 2956 2369 2687 2733 
Q 2419 3097 1959 3097 
z
M 1959 3584 
Q 2709 3584 3137 3096 
Q 3566 2609 3566 1747 
Q 3566 888 3137 398 
Q 2709 -91 1959 -91 
Q 1206 -91 779 398 
Q 353 888 353 1747 
Q 353 2609 779 3096 
Q 1206 3584 1959 3584 
z
" transform="scale(0.015625)"/>
      </defs>
      <use xlink:href="#DejaVuSans-41"/>
      <use xlink:href="#DejaVuSans-62" x="68.408203"/>
      <use xlink:href="#DejaVuSans-73" x="131.884766"/>
      <use xlink:href="#DejaVuSans-6f" x="183.984375"/>
      <use xlink:href="#DejaVuSans-72" x="245.166016"/>
      <use xlink:href="#DejaVuSans-62" x="286.279297"/>
      <use xlink:href="#DejaVuSans-61" x="349.755859"/>
      <use xlink:href="#DejaVuSans-6e" x="411.035156"/>
      <use xlink:href="#DejaVuSans-63" x="474.414062"/>
      <use xlink:href="#DejaVuSans-65" x="529.394531"/>
     </g>
    </g>
   </g>
   <g id="line2d_24">
    <path d="M 849.526961 255.961648 
L 849.091925 245.926345 
L 848.765626 228.191675 
L 848.548108 222.858979 
L 848.33059 228.207043 
L 847.895531 244.896689 
L 847.678013 258.159272 
L 847.242955 291.938133 
L 847.134196 295.56498 
L 847.025437 295.242252 
L 846.916656 296.394852 
L 846.264079 267.825743 
L 846.15532 270.469039 
L 845.720284 294.197228 
L 845.611503 293.567141 
L 845.393985 280.90391 
L 844.30635 208.520637 
L 843.762555 186.067991 
L 843.653774 187.036175 
L 843.327497 197.885982 
L 843.218738 197.44031 
L 843.001197 183.086599 
L 842.674921 161.632873 
L 842.566162 162.708633 
L 842.239862 172.928352 
L 842.131103 172.052376 
L 841.478527 152.181554 
L 841.043468 117.065678 
L 840.934709 121.891229 
L 840.608433 167.503449 
L 840.390892 190.140511 
L 840.282133 189.679471 
L 840.064615 167.303665 
L 839.629557 120.677157 
L 839.412039 116.251174 
L 839.085739 113.561774 
L 838.868221 111.840558 
L 838.650703 111.36415 
L 838.541944 110.534278 
L 838.324404 105.432103 
L 837.998127 95.873208 
L 837.889368 95.827104 
L 837.671828 103.326687 
L 837.236792 137.904684 
L 836.801733 173.819696 
L 836.692974 177.123816 
L 836.584215 176.678144 
L 836.366675 167.149985 
L 836.040398 155.101474 
L 835.931639 156.254074 
L 835.60534 164.260801 
L 835.496581 163.261881 
L 835.279063 152.565754 
L 834.844004 124.442317 
L 834.626486 119.601398 
L 834.517705 119.66287 
L 834.300187 123.935173 
L 833.75637 140.916811 
L 833.538852 142.238459 
L 833.103793 141.654475 
L 832.995034 140.962915 
L 832.777516 137.105548 
L 832.342458 126.993405 
L 832.233699 127.177821 
L 832.016181 131.357916 
L 831.689882 137.581956 
L 831.581123 137.505116 
L 831.146064 133.294284 
L 831.037305 134.508356 
L 830.819787 141.485427 
L 830.058452 172.421208 
L 829.840911 175.802168 
L 829.732152 175.587016 
L 829.514635 170.807569 
L 828.970817 154.025714 
L 828.862058 153.702986 
L 828.644518 155.685458 
L 828.318241 158.543906 
L 828.209482 158.190442 
L 827.991941 155.116842 
L 827.448147 144.635867 
L 827.339365 144.635867 
L 827.121847 147.386739 
L 826.686789 154.51749 
L 826.57803 154.855586 
L 826.469271 154.271602 
L 826.251753 150.091507 
L 825.816694 132.86398 
L 825.490417 122.997725 
L 825.272877 121.153565 
L 825.164118 121.184301 
L 824.9466 122.275429 
L 824.185265 128.299685 
L 824.076483 127.976957 
L 823.858965 126.117429 
L 823.641447 122.275429 
L 823.423907 114.775846 
L 822.988871 93.967576 
L 822.880112 94.843552 
L 822.662572 107.091847 
L 822.227536 131.511596 
L 821.901236 138.227412 
L 821.574959 140.394299 
L 821.357419 140.670923 
L 821.24866 140.717027 
L 821.139901 140.932179 
L 820.922383 142.238459 
L 820.487325 147.817043 
L 820.052266 152.719434 
L 819.725989 154.13329 
L 819.508449 154.655802 
L 819.290931 156.192602 
L 818.964654 161.279409 
L 818.529596 167.780073 
L 818.312078 168.917305 
L 818.203296 168.948041 
L 817.985778 168.256481 
L 817.55072 166.581369 
L 817.441961 166.658209 
L 817.115684 167.841545 
L 816.898143 168.456265 
L 816.680625 168.487001 
L 816.354349 167.887649 
L 815.810531 166.489161 
L 815.701772 166.550633 
L 815.484232 167.272929 
L 815.157955 168.471633 
L 814.940414 168.579209 
L 814.722896 168.579209 
L 814.287838 169.255401 
L 814.179079 169.163193 
L 813.744043 167.964489 
L 813.635262 168.041329 
L 813.417744 168.978777 
L 812.982685 171.161032 
L 812.873926 171.09956 
L 812.656408 169.900857 
L 812.003832 163.769025 
L 811.895073 163.661449 
L 811.133738 164.952361 
L 810.916197 166.443057 
L 810.481161 169.608865 
L 810.37238 169.578129 
L 809.828585 167.979857 
L 809.393527 168.087433 
L 809.176009 167.964489 
L 809.067227 168.041329 
L 808.849709 168.609945 
L 807.653316 173.158872 
L 807.435798 173.220344 
L 807.109498 172.989824 
L 806.89198 172.605624 
L 806.130645 170.822937 
L 805.586828 170.930513 
L 805.36931 171.437656 
L 805.151769 172.697832 
L 804.390434 178.153472 
L 804.281675 178.122736 
L 804.064157 177.523384 
L 803.737857 176.647408 
L 803.411581 176.24784 
L 803.19404 175.417968 
L 802.650223 172.651728 
L 802.541464 172.574888 
L 802.323946 172.820776 
L 801.671369 174.111688 
L 801.236311 175.879008 
L 800.910034 176.739616 
L 800.801275 176.647408 
L 800.366217 175.264288 
L 800.257458 175.341128 
L 800.039917 176.647408 
L 799.604881 180.228152 
L 799.496122 180.120576 
L 799.278582 178.353256 
L 798.952305 175.141344 
L 798.843546 174.78788 
L 798.734765 174.926192 
L 798.517247 176.47836 
L 797.755911 183.808895 
L 797.538393 184.577295 
L 797.429612 184.654135 
L 797.320853 184.500455 
L 797.103335 183.470799 
L 796.450759 178.93724 
L 796.342 179.47512 
L 796.0157 183.793527 
L 795.689423 187.574055 
L 795.471883 188.035095 
L 795.254365 187.466479 
L 794.49303 184.085519 
L 794.384271 184.423615 
L 794.16673 186.344615 
L 793.731694 190.463239 
L 793.622935 190.601551 
L 793.405395 189.879255 
L 793.079118 188.542239 
L 792.861577 188.403927 
L 792.644059 188.327087 
L 792.426542 187.497215 
L 791.991483 184.730975 
L 791.882724 184.715607 
L 791.665206 186.160199 
L 791.121389 191.692678 
L 791.01263 191.953934 
L 790.903848 191.923198 
L 790.577571 191.001119 
L 789.707477 187.712367 
L 789.598696 187.835311 
L 789.381178 188.680551 
L 788.619842 192.537918 
L 788.402324 192.82991 
L 788.184784 192.645494 
L 787.749748 191.554366 
L 787.423449 190.878175 
L 787.205931 190.816703 
L 786.98839 191.216271 
L 786.553354 192.399606 
L 786.335814 192.553286 
L 786.118296 192.59939 
L 785.574479 193.045062 
L 785.248202 192.814542 
L 785.139443 193.014326 
L 784.921902 194.120822 
L 784.595625 195.842038 
L 784.486866 195.888142 
L 784.269326 195.165846 
L 784.051808 194.412814 
L 783.943049 194.305238 
L 783.507991 194.59723 
L 783.290473 194.151558 
L 782.420356 191.67731 
L 782.311597 191.723414 
L 782.094079 192.722334 
L 781.65902 195.457838 
L 781.550261 195.534678 
L 781.332744 194.889222 
L 781.006444 193.690518 
L 780.897685 193.659782 
L 780.680167 194.412814 
L 780.245109 197.040742 
L 780.13635 197.13295 
L 780.027591 196.82559 
L 779.375015 193.44463 
L 779.157474 194.259134 
L 778.28738 198.639014 
L 778.178621 198.731222 
L 778.069862 198.531438 
L 777.852321 197.225158 
L 777.308526 192.722334 
L 777.199745 192.59939 
L 777.090986 192.937486 
L 776.764709 195.949614 
L 776.43841 198.20871 
L 776.329651 198.177974 
L 776.112133 197.179054 
L 775.677074 195.073638 
L 775.459556 194.873854 
L 775.242016 195.350262 
L 774.915739 196.456758 
L 774.80698 196.487494 
L 774.58944 195.580782 
L 774.154404 192.98359 
L 774.045645 192.952854 
L 773.828104 193.582942 
L 773.501827 194.428182 
L 772.740492 194.90459 
L 772.522952 194.474286 
L 772.196675 193.67515 
L 772.087916 193.67515 
L 771.652857 194.458918 
L 771.544098 194.305238 
L 771.326558 193.168006 
L 770.891522 190.524711 
L 770.782763 190.463239 
L 770.347705 191.139431 
L 770.130187 190.832071 
L 769.912646 190.447871 
L 769.47761 190.201983 
L 769.26007 189.295271 
L 768.825034 187.251327 
L 768.281217 186.144831 
L 768.063676 185.606951 
L 767.954917 185.560847 
L 767.737399 185.914311 
L 767.4111 186.359983 
L 767.084823 186.375351 
L 766.867305 186.959335 
L 766.323487 188.987911 
L 766.105947 189.095487 
L 765.235853 188.526871 
L 765.018335 187.927519 
L 764.583276 186.390719 
L 764.474517 186.329247 
L 764.256999 186.682711 
L 763.821941 187.497215 
L 763.386883 187.988991 
L 763.278124 187.912151 
L 763.060606 187.143751 
L 762.734306 185.622319 
L 762.625547 185.560847 
L 762.408029 186.359983 
L 762.08173 187.804575 
L 761.972971 187.912151 
L 761.320395 187.466479 
L 761.102877 186.790287 
L 760.559059 184.546559 
L 759.797724 184.300671 
L 759.580183 184.500455 
L 759.253907 184.761711 
L 759.036389 184.454351 
L 758.60133 183.132703 
L 758.166272 181.964735 
L 758.057513 181.964735 
L 757.839995 182.379671 
L 757.513695 182.994391 
L 757.296178 182.671663 
L 756.969878 182.041575 
L 756.861119 182.149151 
L 756.534842 183.271015 
L 756.317302 183.824263 
L 756.208543 183.901103 
L 755.991025 183.685951 
L 755.338448 182.825343 
L 754.794631 182.425775 
L 754.577113 181.826423 
L 753.815778 178.798928 
L 753.706996 178.78356 
L 753.489478 179.106288 
L 753.163202 180.24352 
L 752.728143 181.949367 
L 752.510625 182.164519 
L 752.293085 182.010839 
L 751.640508 181.196336 
L 750.879173 179.16776 
L 750.335356 179.567328 
L 750.117838 179.306072 
L 749.682779 178.583776 
L 749.465261 178.522304 
L 749.138962 178.614512 
L 748.921444 178.337888 
L 748.595145 177.216024 
L 748.268868 176.171 
L 748.05135 175.971216 
L 747.833877 175.955848 
L 747.616178 175.587016 
L 747.289969 173.911904 
L 746.96376 172.113848 
L 746.746287 171.79112 
L 746.528589 172.329 
L 746.093643 174.772512 
L 745.658472 176.877928 
L 745.440999 177.3236 
L 745.11479 177.461912 
L 744.679619 177.677064 
L 744.35341 178.199576 
L 743.809502 179.183128 
L 743.374556 179.674904 
L 742.939385 180.673824 
L 742.830649 180.643088 
L 742.613176 180.120576 
L 742.286967 179.459752 
L 742.069494 179.890056 
L 741.743059 180.689192 
L 741.634323 180.643088 
L 741.41685 180.043736 
L 740.872942 178.291784 
L 740.32926 177.185288 
L 740.111787 177.154552 
L 739.894089 177.692432 
L 739.132708 180.904344 
L 738.915236 180.228152 
L 738.48029 178.383992 
L 738.371554 178.337888 
L 737.827646 178.829664 
L 737.610173 178.32252 
L 737.175002 177.108448 
L 736.63132 176.171 
L 736.304885 174.188528 
L 735.86994 171.391552 
L 735.761203 171.222504 
L 735.652467 171.299344 
L 735.326032 171.86796 
L 735.217295 171.79112 
L 734.999823 171.068824 
L 734.673613 169.993065 
L 734.564651 170.023801 
L 734.129706 170.945881 
L 734.020969 170.730729 
L 733.803497 169.332241 
L 733.259589 164.752577 
L 732.715907 161.940233 
L 731.519355 152.043242 
L 730.757975 145.788467 
L 729.452912 131.311812 
L 728.909005 122.167853 
L 727.603942 98.593344 
L 725.646236 72.652162 
L 725.320027 69.885922 
L 724.667383 66.028555 
L 723.688529 57.591524 
L 723.253358 54.08762 
L 722.709676 49.32354 
L 722.492203 48.847132 
L 721.839559 48.678084 
L 721.622086 49.492588 
L 721.186915 51.24454 
L 721.078179 51.275276 
L 720.75197 50.875708 
L 720.316798 50.16878 
L 719.446682 48.24778 
L 719.011736 47.633061 
L 718.467828 47.218125 
L 718.250355 46.511197 
L 717.924146 44.267469 
L 717.488975 41.270709 
L 717.271502 40.932613 
L 717.054029 40.917245 
L 716.836557 40.394733 
L 716.401385 37.705333 
L 716.075176 36.291478 
L 715.857478 36.107062 
L 715.422532 36.27611 
L 715.205059 35.953382 
L 714.878625 35.369398 
L 714.769888 35.384766 
L 714.552415 35.922646 
L 714.008508 37.797541 
L 713.791035 37.797541 
L 713.573562 37.797541 
L 713.356089 38.427629 
L 712.920918 41.578069 
L 712.2685 46.818557 
L 711.615856 53.70342 
L 710.528266 60.788067 
L 709.875622 70.300858 
L 709.005505 80.674257 
L 708.244125 90.7864 
L 706.177682 120.984517 
L 705.416301 130.25142 
L 704.763883 135.046236 
L 704.002502 142.591923 
L 701.718361 156.884162 
L 700.956981 161.033521 
L 700.304562 165.905177 
L 699.869391 167.242193 
L 699.325709 168.640681 
L 698.781801 170.177481 
L 698.455592 170.484841 
L 698.129157 170.684625 
L 697.802948 171.237872 
L 697.259266 172.882248 
L 696.715358 175.079872 
L 696.280187 176.908664 
L 696.062714 177.062344 
L 695.845242 176.662776 
L 695.519032 176.109528 
L 695.41007 176.217104 
L 695.192598 176.985504 
L 694.648916 179.459752 
L 694.322481 180.028368 
L 693.996272 180.258888 
L 693.670062 180.258888 
L 693.126155 180.028368 
L 692.147301 180.258888 
L 691.821092 180.443304 
L 691.603394 180.289624 
L 691.059712 179.213864 
L 690.842239 179.536592 
L 690.407068 180.658456 
L 690.080859 180.796768 
L 689.536951 180.796768 
L 689.210742 180.689192 
L 688.993269 180.904344 
L 688.666834 181.334647 
L 688.449361 181.196336 
L 688.014416 180.658456 
L 687.796717 180.93508 
L 687.253035 182.149151 
L 687.035562 182.072311 
L 686.274182 180.996552 
L 686.056484 181.211704 
L 685.295329 182.533351 
L 684.642685 182.625559 
L 684.316475 182.210623 
L 684.098777 182.072311 
L 683.881304 182.471879 
L 683.446359 183.670583 
L 683.119924 183.808895 
L 682.902451 183.962575 
L 682.576242 184.316039 
L 682.358543 184.223831 
L 681.488652 183.255647 
L 680.836008 182.733135 
L 680.618535 182.871447 
L 679.965891 183.901103 
L 679.639682 183.808895 
L 679.421984 184.208463 
L 679.095774 184.838551 
L 678.987038 184.715607 
L 678.551867 183.532271 
L 678.44313 183.578375 
L 678.116921 184.761711 
L 677.899448 185.391799 
L 677.790712 185.437903 
L 677.573014 185.053703 
L 677.246804 184.438983 
L 677.138068 184.454351 
L 676.920595 184.838551 
L 676.376688 186.114095 
L 676.267951 186.083359 
L 675.941742 185.391799 
L 675.615307 184.853919 
L 675.397834 185.084439 
L 674.853927 186.175567 
L 673.875073 186.605871 
L 673.657601 186.283143 
L 673.331391 185.314959 
L 672.570011 182.441143 
L 671.80863 181.749583 
L 671.591158 182.656295 
L 670.938514 186.867127 
L 670.829777 186.959335 
L 670.612304 186.728815 
L 670.068397 185.898943 
L 669.850924 186.037255 
L 669.524715 186.421455 
L 668.980807 186.482927 
L 668.654598 186.959335 
L 668.545862 186.913231 
L 668.328163 186.344615 
L 668.001954 185.253487 
L 667.893218 185.222751 
L 667.675745 185.898943 
L 667.131837 188.803495 
L 667.023101 188.911071 
L 666.914364 188.742023 
L 666.588155 186.959335 
L 666.370457 186.037255 
L 666.26172 186.114095 
L 666.044247 187.343535 
L 665.718038 189.464319 
L 665.609302 189.710207 
L 665.50034 189.664103 
L 665.282867 189.064751 
L 664.847921 187.912151 
L 664.304014 187.051543 
L 663.65137 185.484007 
L 663.542633 185.606951 
L 663.32516 186.406087 
L 662.672516 189.510423 
L 662.455044 189.710207 
L 662.237571 189.418215 
L 661.47619 187.881415 
L 660.932508 187.358903 
L 660.823546 187.481847 
L 660.279864 189.034015 
L 660.171128 188.911071 
L 659.62722 187.420375 
L 659.518484 187.481847 
L 658.974576 188.388559 
L 658.757103 188.342455 
L 658.430894 188.019727 
L 657.886987 187.374271 
L 657.560777 187.297431 
L 657.234568 186.821023 
L 656.908133 186.252407 
L 656.690661 186.206303 
L 656.364451 186.544399 
L 655.92928 187.005439 
L 655.1679 187.435743 
L 654.950427 187.574055 
L 654.732954 187.097647 
L 654.08031 184.623399 
L 653.862837 184.715607 
L 653.31893 185.145911 
L 653.101457 184.577295 
L 652.557775 182.272095 
L 652.448813 182.164519 
L 652.23134 182.395039 
L 651.796394 183.209543 
L 651.687658 183.255647 
L 651.578922 183.163439 
L 651.361223 182.395039 
L 650.926278 180.228152 
L 650.708805 180.105208 
L 650.491106 180.16668 
L 650.273633 179.828584 
L 649.947424 179.229232 
L 649.620989 179.198496 
L 649.512253 178.967976 
L 649.29478 177.7078 
L 648.968571 175.448704 
L 648.859835 175.295024 
L 648.750873 175.510176 
L 648.098454 178.184208 
L 647.772019 178.261048 
L 647.554547 178.722088 
L 647.228337 180.504776 
L 646.793166 182.932919 
L 646.68443 182.948287 
L 646.466957 182.272095 
L 646.032011 180.7814 
L 645.923049 180.766032 
L 645.705576 181.303911 
L 645.161894 183.655215 
L 644.617987 183.424695 
L 644.074079 183.962575 
L 643.856606 183.793527 
L 643.530397 183.209543 
L 643.203962 182.041575 
L 642.66028 179.613432 
L 642.116373 178.798928 
L 641.572691 176.47836 
L 641.463954 176.70888 
L 640.81131 180.228152 
L 640.593837 180.366464 
L 639.832457 180.412568 
L 639.179813 181.24244 
L 638.96234 180.689192 
L 638.20096 177.815376 
L 637.983487 177.677064 
L 637.766014 177.846112 
L 637.548316 178.583776 
L 636.895897 181.795687 
L 635.917044 182.871447 
L 635.699346 182.717767 
L 634.720492 180.965816 
L 634.50302 180.919712 
L 634.285547 181.01192 
L 634.17681 180.93508 
L 633.959338 180.182048 
L 633.741639 179.413648 
L 633.632903 179.505856 
L 633.306693 180.351096 
L 632.654049 180.827504 
L 632.545313 180.581616 
L 632.32784 179.198496 
L 631.56646 172.267528 
L 631.348987 173.25108 
L 631.022552 175.064504 
L 630.913816 175.0184 
L 630.696343 173.71212 
L 630.370134 171.683544 
L 630.261397 172.006272 
L 629.71749 175.079872 
L 629.608753 174.926192 
L 629.064846 172.63636 
L 628.847373 173.435496 
L 628.521164 174.94156 
L 628.412427 174.956928 
L 628.194729 174.203896 
L 627.86852 173.204976 
L 627.651047 173.881168 
L 627.433574 174.618832 
L 627.324612 174.588096 
L 626.889666 173.758224 
L 626.563457 173.835064 
L 626.237022 173.358656 
L 626.128286 173.466232 
L 625.910813 174.434416 
L 625.149433 178.906504 
L 625.040696 178.891136 
L 624.823223 177.86148 
L 624.170579 172.774672 
L 623.953107 172.55952 
L 623.517935 172.959088 
L 623.300463 172.805408 
L 622.974253 172.17532 
L 622.539082 171.283976 
L 622.321609 171.222504 
L 622.212873 171.545232 
L 621.9954 174.449784 
L 621.668965 181.565167 
L 621.560229 182.072311 
L 621.451493 181.611271 
L 620.690112 175.55628 
L 620.472639 175.341128 
L 620.037694 175.663856 
L 619.602522 175.110608 
L 619.38505 175.832904 
L 619.05884 177.139184 
L 618.841142 177.231392 
L 618.514933 177.062344 
L 618.29746 177.185288 
L 617.862289 177.584856 
L 617.53608 177.139184 
L 617.427343 177.216024 
L 617.20987 178.030528 
L 616.774699 180.074472 
L 616.665963 180.043736 
L 616.44849 179.275336 
L 616.122055 177.815376 
L 616.013319 177.661696 
L 615.904582 177.738536 
L 615.3609 179.229232 
L 615.143202 178.70672 
L 614.816993 177.55412 
L 614.708256 177.492648 
L 614.490783 177.876848 
L 614.164349 178.522304 
L 614.055612 178.4762 
L 613.838139 177.999792 
L 613.294232 176.462992 
L 612.859286 175.971216 
L 612.533077 175.571648 
L 612.315378 175.003032 
L 611.989169 173.374024 
L 611.554224 171.360816 
L 611.336525 171.25324 
L 611.227789 171.222504 
L 611.119052 171.007353 
L 610.90158 169.532025 
L 610.248936 162.447377 
L 609.596292 159.988498 
L 608.835137 154.225498 
L 608.508702 153.626146 
L 607.96502 151.858826 
L 607.856283 151.797354 
L 607.747547 151.920298 
L 607.529849 152.90385 
L 606.87743 157.160786 
L 606.550995 157.575722 
L 606.333523 157.560354 
L 606.11605 157.176154 
L 605.789615 156.407754 
L 605.680879 156.377018 
L 605.463406 156.853426 
L 604.810762 159.143258 
L 604.375816 160.910577 
L 604.26708 160.864473 
L 604.049607 159.757978 
L 603.505699 156.315546 
L 603.288226 155.777666 
L 603.070528 155.639354 
L 602.744319 155.700826 
L 602.635582 155.501042 
L 602.41811 154.36381 
L 602.091675 152.75017 
L 601.982938 153.088266 
L 601.656729 155.915978 
L 601.221784 160.987417 
L 600.56914 169.009513 
L 600.460403 168.671417 
L 599.916496 163.769025 
L 599.807759 164.014913 
L 599.263851 167.073145 
L 599.155115 166.796521 
L 598.611433 162.939153 
L 598.502697 163.231145 
L 598.176262 166.443057 
L 597.850053 168.778993 
L 597.63258 169.178561 
L 597.414881 169.009513 
L 596.871199 168.164273 
L 596.653727 168.978777 
L 596.327292 171.63744 
L 595.892346 175.233552 
L 595.78361 175.464072 
L 595.674873 175.32576 
L 595.457175 174.142424 
L 595.130966 172.052376 
L 594.913493 171.729648 
L 594.587058 172.02164 
L 594.369585 171.453024 
L 593.93464 169.854753 
L 593.825903 170.546313 
L 593.281996 178.030528 
L 593.173259 178.01516 
L 592.738088 177.154552 
L 592.520615 177.538752 
L 592.08567 178.460832 
L 591.868197 178.383992 
L 591.650498 178.291784 
L 591.541762 178.383992 
L 591.324289 179.09092 
L 590.780381 181.749583 
L 590.454172 181.488327 
L 590.345436 181.642007 
L 590.127963 182.840711 
L 589.801528 184.961495 
L 589.692792 184.746343 
L 589.257846 182.809975 
L 589.040148 182.656295 
L 588.713939 182.594823 
L 588.387729 182.302831 
L 587.735085 181.380751 
L 587.517613 181.841791 
L 587.191178 182.871447 
L 587.082441 182.963655 
L 586.864968 182.640927 
L 586.647496 182.425775 
L 586.538759 182.733135 
L 586.321061 184.592663 
L 585.994852 188.173407 
L 585.886115 188.450031 
L 585.777379 188.111935 
L 585.233471 184.669503 
L 585.124735 184.884655 
L 584.581053 187.128383 
L 584.363354 186.221671 
L 583.928409 183.547639 
L 583.819672 183.301751 
L 583.710936 183.332487 
L 583.493238 183.947207 
L 582.514384 188.250247 
L 582.188175 190.939647 
L 582.079439 190.847439 
L 581.753229 188.603711 
L 581.426795 186.928599 
L 580.883113 185.207383 
L 580.230469 182.456511 
L 580.121732 182.395039 
L 579.904259 182.748503 
L 579.577825 183.732055 
L 579.469088 183.793527 
L 579.360352 183.670583 
L 579.034143 182.871447 
L 578.925406 182.979023 
L 578.707708 184.300671 
L 578.272762 187.743103 
L 578.164026 187.881415 
L 577.837591 187.589423 
L 577.728854 187.727735 
L 577.185172 189.387479 
L 576.967474 188.296351 
L 576.641265 185.898943 
L 576.532528 185.668423 
L 576.423792 185.929679 
L 576.097583 188.864967 
L 575.879884 190.263455 
L 575.771148 190.324927 
L 575.553675 189.541159 
L 575.009768 187.082279 
L 574.466086 185.683791 
L 574.139651 185.022967 
L 574.030914 185.007599 
L 573.922178 185.268855 
L 573.704705 186.790287 
L 573.269534 190.324927 
L 572.943325 191.170167 
L 572.725852 191.354583 
L 572.508379 191.293111 
L 572.290906 190.862807 
L 571.964471 190.048303 
L 571.855735 189.986831 
L 571.638262 190.217351 
L 571.311827 190.586183 
L 571.203091 190.509343 
L 570.985618 189.971463 
L 570.332974 187.589423 
L 570.224238 187.589423 
L 570.006765 188.265615 
L 569.245384 192.092246 
L 568.919175 192.706966 
L 568.810439 192.737702 
L 568.592966 192.44571 
L 567.831586 190.601551 
L 567.613887 190.570815 
L 567.396414 190.847439 
L 567.070205 192.06151 
L 566.635034 193.859566 
L 566.417561 194.043982 
L 565.982616 193.690518 
L 565.764917 193.997878 
L 565.329971 195.688358 
L 564.895026 197.916718 
L 564.459855 201.558934 
L 564.133645 204.048549 
L 564.024909 204.325173 
L 563.915947 204.217597 
L 563.698474 202.911317 
L 562.393412 191.262375 
L 562.175939 190.647655 
L 562.067203 190.663023 
L 561.849504 191.385319 
L 560.979387 196.395286 
L 560.761914 195.719094 
L 560.326969 193.890302 
L 560.218007 194.028614 
L 560.000534 195.027534 
L 559.674325 196.51823 
L 559.565588 196.533598 
L 559.021681 195.380998 
L 558.804208 195.82667 
L 558.477999 196.395286 
L 558.2603 196.226238 
L 558.042828 195.67299 
L 557.390184 193.337054 
L 557.172711 193.98251 
L 556.629029 196.579702 
L 556.41133 196.67191 
L 556.193857 196.349182 
L 555.758912 195.119742 
L 555.432477 194.428182 
L 555.215004 194.428182 
L 554.888795 194.458918 
L 554.56236 194.320606 
L 553.909942 194.59723 
L 553.583507 194.458918 
L 553.148561 194.90459 
L 553.039825 194.67407 
L 552.822352 193.413894 
L 552.278444 189.802415 
L 552.169708 189.787047 
L 551.952235 190.555447 
L 551.408328 193.260214 
L 551.190855 193.475366 
L 550.973382 192.891382 
L 550.538211 191.016487 
L 550.429474 191.093327 
L 550.212002 192.307398 
L 549.668094 196.456758 
L 549.450621 196.656542 
L 549.233148 196.303078 
L 548.906714 195.242686 
L 548.580504 194.243766 
L 548.471768 194.243766 
L 548.036597 195.012166 
L 547.92786 194.67407 
L 547.601651 191.585102 
L 547.384178 189.879255 
L 547.275442 189.817783 
L 547.057743 191.170167 
L 546.622798 194.259134 
L 546.405325 194.474286 
L 545.752681 194.259134 
L 544.338656 191.892462 
L 543.686238 191.938566 
L 543.468765 192.706966 
L 543.14233 193.98251 
L 543.033594 193.874934 
L 542.816121 192.476446 
L 542.38095 189.295271 
L 542.272214 189.233799 
L 542.054741 189.802415 
L 541.728532 190.509343 
L 541.402097 190.540079 
L 541.184624 190.955015 
L 540.749678 192.015406 
L 540.53198 191.75415 
L 540.423244 191.60047 
L 540.314507 191.646574 
L 540.205771 192.046142 
L 539.988298 194.243766 
L 539.661863 198.393126 
L 539.553127 198.715854 
L 539.44439 198.177974 
L 539.009445 193.429262 
L 538.900708 193.705886 
L 538.68301 196.856326 
L 538.356801 201.43599 
L 538.248064 201.35915 
L 537.704157 196.625806 
L 537.59542 196.764118 
L 537.377947 197.471046 
L 537.269211 197.501782 
L 537.051738 196.487494 
L 536.725303 194.812382 
L 536.616567 195.027534 
L 536.399094 196.917798 
L 535.964148 201.866293 
L 535.855186 202.219757 
L 535.74645 202.035341 
L 535.202768 199.315206 
L 534.98507 199.51499 
L 534.876333 199.43815 
L 534.65886 198.116502 
L 534.223915 193.90567 
L 534.114953 193.736622 
L 534.006216 194.074718 
L 533.571271 197.563254 
L 533.245062 199.407414 
L 532.701154 201.143998 
L 532.157246 206.584269 
L 532.04851 206.568901 
L 531.831037 203.787293 
L 531.396091 194.720174 
L 531.287129 194.105454 
L 531.178393 194.52039 
L 530.417238 202.066077 
L 530.308276 202.096813 
L 530.19954 202.419541 
L 529.764594 205.108941 
L 529.655858 203.894869 
L 529.438385 196.641174 
L 528.894477 174.050216 
L 528.785741 173.466232 
L 528.568268 175.433336 
L 528.241833 178.39936 
L 528.133097 178.045896 
L 527.915624 174.342208 
L 527.589189 160.188282 
L 527.154244 141.485427 
L 527.045507 140.701659 
L 526.936771 141.546899 
L 526.5016 151.336314 
L 525.957918 160.772265 
L 525.522746 164.906257 
L 524.979064 168.256481 
L 524.870328 168.056697 
L 524.65263 166.074225 
L 524.32642 162.462745 
L 524.217684 162.309065 
L 524.108948 162.954521 
L 523.782513 168.487001 
L 523.456304 173.804328 
L 523.238831 174.880088 
L 523.021358 175.110608 
L 522.912621 175.725328 
L 522.694923 179.01408 
L 522.259977 187.036175 
L 522.151241 186.990071 
L 521.607333 181.457591 
L 521.281124 182.856079 
L 521.172388 182.502615 
L 520.954689 178.798928 
L 520.519744 168.456265 
L 520.411007 167.887649 
L 520.302271 168.487001 
L 520.084573 172.528784 
L 519.649627 182.225991 
L 519.540891 182.840711 
L 519.432154 182.379671 
L 518.77951 174.265368 
L 518.453301 174.741776 
L 518.235602 173.435496 
L 518.01813 171.86796 
L 517.909393 171.975536 
L 517.69192 174.94156 
L 517.256749 183.271015 
L 517.039276 183.885735 
L 516.713067 183.271015 
L 516.604331 183.286383 
L 516.495594 183.178807 
L 516.386858 182.625559 
L 516.16916 179.32144 
L 515.625478 168.686785 
L 515.516741 168.886569 
L 515.08157 172.083112 
L 514.972834 171.25324 
L 514.755361 166.688945 
L 514.320189 156.223338 
L 514.211453 155.992818 
L 514.102717 157.176154 
L 513.776507 166.458425 
L 513.450073 173.128136 
L 513.341336 172.851512 
L 513.123863 169.224665 
L 512.797654 163.108201 
L 512.579956 161.894129 
L 512.362483 161.725081 
L 512.253747 161.264041 
L 512.036274 158.482434 
L 511.274893 142.684131 
L 511.166157 143.222011 
L 510.948684 147.371371 
L 510.29604 164.383745 
L 509.860869 169.040249 
L 509.099714 174.618832 
L 508.882241 174.895456 
L 508.664543 174.142424 
L 508.229597 170.884409 
L 507.142008 162.785473 
L 507.033046 162.631793 
L 506.924309 162.908417 
L 506.706836 164.645001 
L 506.054192 170.945881 
L 505.836719 171.314712 
L 505.727983 170.991985 
L 505.401774 168.333321 
L 505.184075 166.904097 
L 505.075339 166.904097 
L 504.857866 168.487001 
L 504.531657 171.683544 
L 504.422921 172.083112 
L 504.314184 172.037008 
L 504.096486 171.038088 
L 503.552804 167.780073 
L 503.444067 167.611025 
L 503.335105 167.856913 
L 503.117633 169.839385 
L 502.464989 181.426855 
L 501.81257 190.924279 
L 501.595097 192.153718 
L 501.486361 192.122982 
L 501.268662 190.463239 
L 500.398546 178.39936 
L 500.289809 178.307152 
L 500.181073 178.045896 
L 499.9636 176.647408 
L 499.637391 174.541992 
L 499.528429 174.603464 
L 499.20222 175.617752 
L 499.093483 175.525544 
L 498.87601 174.895456 
L 498.767274 174.910824 
L 498.549576 176.647408 
L 498.11463 181.442223 
L 498.005894 181.426855 
L 496.809342 176.462992 
L 496.700605 176.754984 
L 496.483133 178.814296 
L 496.048187 186.006519 
L 495.613016 197.071478 
L 495.17807 207.106781 
L 494.851635 209.826917 
L 494.525426 212.070644 
L 494.199217 216.527364 
L 493.546573 226.393619 
L 493.220364 229.697739 
L 492.785192 236.321346 
L 492.676456 236.321346 
L 492.458983 232.156619 
L 491.915076 217.387972 
L 491.806339 217.526284 
L 491.371394 221.721748 
L 491.262432 221.614172 
L 491.044959 219.662436 
L 490.71875 216.358316 
L 490.610013 216.158532 
L 490.501277 216.604204 
L 490.283578 219.155292 
L 489.848633 225.102707 
L 489.739896 225.410067 
L 489.63116 225.056603 
L 489.087252 220.645988 
L 488.978516 221.09166 
L 488.761043 224.195995 
L 488.108399 236.244506 
L 487.890926 239.379578 
L 487.673453 245.880241 
L 487.347019 258.282216 
L 487.238282 259.204296 
L 487.129546 256.591736 
L 486.912073 239.026114 
L 486.150693 148.523971 
L 485.93322 140.916811 
L 485.715747 138.918972 
L 485.606785 139.410748 
L 485.389312 142.807075 
L 484.84563 153.841298 
L 484.301722 159.404514 
L 483.540342 173.63528 
L 483.214133 174.111688 
L 482.99666 175.70996 
L 482.561489 179.536592 
L 482.126543 181.734215 
L 481.90907 182.610191 
L 481.800108 182.072311 
L 481.582636 177.969056 
L 481.038954 163.492401 
L 480.821255 162.186121 
L 480.603782 161.279409 
L 479.951138 155.74693 
L 479.842402 156.085026 
L 479.516193 158.958842 
L 478.972285 163.799761 
L 478.537339 165.520977 
L 478.210905 167.027041 
L 477.775959 168.994145 
L 477.667223 169.009513 
L 477.44975 168.256481 
L 476.688369 164.091753 
L 476.470896 164.568161 
L 476.253424 165.121409 
L 476.144462 165.167513 
L 475.818252 164.706473 
L 475.709516 164.829417 
L 475.492043 166.181801 
L 474.078019 180.212784 
L 473.969282 180.013 
L 473.75181 177.999792 
L 473.207902 171.222504 
L 472.881693 169.946961 
L 472.229049 168.164273 
L 472.011576 168.625313 
L 471.685141 169.393713 
L 471.576405 169.224665 
L 471.358932 168.148905 
L 470.162606 160.403434 
L 470.053869 160.219018 
L 469.945133 160.403434 
L 469.72766 161.878761 
L 469.292489 165.935913 
L 469.183753 165.951281 
L 468.96628 164.091753 
L 468.639845 160.295858 
L 468.531109 160.019234 
L 468.422372 160.449538 
L 468.096163 164.276169 
L 467.769728 167.457345 
L 467.334782 169.532025 
L 467.226046 169.624233 
L 467.11731 169.409081 
L 466.899611 168.072065 
L 466.464666 164.844785 
L 466.247193 164.306905 
L 466.138456 164.368377 
L 465.920758 165.213617 
L 465.485812 167.903017 
L 465.377076 167.887649 
L 465.159378 166.443057 
L 464.724432 162.355169 
L 464.506959 161.986337 
L 464.289486 162.293697 
L 464.071788 162.862313 
L 463.745579 164.783313 
L 463.419369 166.781153 
L 463.310407 166.827257 
L 463.092935 165.551713 
L 462.114081 155.854506 
L 462.005345 155.700826 
L 461.896609 155.839138 
L 461.679136 156.914898 
L 461.243965 159.604298 
L 461.135228 159.650402 
L 460.917755 158.651482 
L 460.265111 154.348442 
L 459.938902 152.780906 
L 459.394994 149.384579 
L 458.851312 147.724835 
L 457.981196 143.052963 
L 457.763723 143.821363 
L 457.219815 146.602971 
L 456.784644 147.033275 
L 456.458435 148.708387 
L 455.806016 152.381338 
L 454.826937 157.544986 
L 454.500728 159.020314 
L 454.391992 159.05105 
L 454.174519 158.420962 
L 453.848084 157.268362 
L 453.739348 157.268362 
L 453.521875 158.082866 
L 453.086929 160.157546 
L 452.977967 160.003866 
L 452.543022 158.082866 
L 452.434285 158.28265 
L 452.216813 160.096074 
L 451.781641 163.984177 
L 451.672905 164.122489 
L 451.455432 163.738289 
L 451.128997 162.677897 
L 450.802788 160.43417 
L 449.606462 149.353843 
L 449.497726 149.338475 
L 449.280253 151.105794 
L 448.953818 156.97637 
L 448.083701 174.357576 
L 447.757492 177.16992 
L 447.648756 177.492648 
L 447.540019 177.338968 
L 447.322321 175.70996 
L 446.996112 172.912984 
L 446.887375 172.774672 
L 446.669902 173.78896 
L 446.343467 175.679224 
L 445.691049 178.061264 
L 444.494497 182.533351 
L 444.168288 184.608031 
L 443.950815 184.823183 
L 443.733117 184.930759 
L 443.515644 185.468639 
L 442.971962 187.405007 
L 442.754489 187.758471 
L 442.536791 188.926439 
L 442.210582 190.647655 
L 442.101845 190.432503 
L 441.557938 187.220591 
L 441.449201 187.266695 
L 441.122992 188.204143 
L 441.014256 187.758471 
L 440.579084 184.684871 
L 440.144139 186.851759 
L 439.92644 185.822103 
L 439.708968 184.946127 
L 439.600231 185.130543 
L 439.274022 187.481847 
L 438.730114 191.077959 
L 438.621378 191.231639 
L 438.512642 191.016487 
L 438.186432 188.803495 
L 437.859997 187.205223 
L 437.751261 187.205223 
L 437.533788 187.758471 
L 437.207353 189.479687 
L 436.663671 192.36887 
L 436.337462 192.783806 
L 436.119764 193.045062 
L 435.467345 194.305238 
L 435.249647 194.028614 
L 434.923438 192.722334 
L 434.597229 191.52363 
L 434.488492 191.508263 
L 434.270794 192.21519 
L 433.618375 195.21195 
L 433.29194 195.780566 
L 433.074468 195.872774 
L 432.748258 195.918878 
L 432.204351 196.779486 
L 431.986878 196.149398 
L 431.551707 194.505022 
L 431.225498 193.997878 
L 430.68159 192.630126 
L 430.355381 192.67623 
L 430.137908 192.276662 
L 429.811699 191.477527 
L 429.702962 191.538998 
L 429.485264 192.338134 
L 429.050318 194.28987 
L 428.832845 194.505022 
L 428.615147 194.228398 
L 428.288938 192.937486 
L 427.527557 189.080119 
L 426.874913 187.988991 
L 426.657441 187.712367 
L 426.548704 187.850679 
L 426.004797 189.525791 
L 425.89606 189.479687 
L 425.678587 189.218431 
L 425.569851 189.249167 
L 425.352378 189.925359 
L 425.025943 191.339215 
L 424.917207 191.462159 
L 424.80847 191.339215 
L 424.482261 190.063671 
L 424.155826 188.941807 
L 423.938354 188.726655 
L 423.612144 188.680551 
L 423.394672 188.311719 
L 422.415818 184.961495 
L 421.980647 183.378591 
L 421.219267 182.195255 
L 421.11053 182.348935 
L 420.893057 183.363223 
L 420.458112 185.637687 
L 420.34915 185.714527 
L 420.240413 185.576215 
L 419.914204 184.285303 
L 419.479033 182.702399 
L 419.370297 182.687031 
L 419.152824 183.224911 
L 418.717878 185.914311 
L 418.391443 187.896783 
L 418.173971 188.204143 
L 417.956498 187.405007 
L 417.303854 184.039415 
L 417.195117 183.916471 
L 417.086381 183.962575 
L 416.868908 184.638767 
L 416.216264 187.988991 
L 415.998791 188.096567 
L 415.672356 187.942887 
L 415.454884 187.604791 
L 414.802465 185.929679 
L 414.367294 186.037255 
L 414.149821 186.190935 
L 413.71465 186.744183 
L 413.605914 186.605871 
L 413.388441 185.775999 
L 412.844533 183.501535 
L 412.62706 183.240279 
L 412.518324 183.271015 
L 412.300851 183.839631 
L 411.430734 188.035095 
L 411.321998 188.004359 
L 411.104299 187.604791 
L 410.560617 186.359983 
L 410.343145 186.129463 
L 410.125672 185.376431 
L 409.690501 183.271015 
L 409.581764 183.393959 
L 409.364291 184.654135 
L 409.037857 186.436823 
L 408.92912 186.452191 
L 408.276702 185.192015 
L 407.950267 185.145911 
L 407.624058 185.099807 
L 407.08015 185.560847 
L 406.862677 185.945047 
L 406.427506 186.897863 
L 406.31877 186.682711 
L 405.666351 183.685951 
L 405.448653 184.039415 
L 405.23118 184.269935 
L 405.013707 183.947207 
L 404.796234 183.609111 
L 404.687498 183.624479 
L 403.056001 186.221671 
L 402.729791 185.745263 
L 402.403357 184.746343 
L 401.750938 181.795687 
L 401.641976 181.780319 
L 401.424503 182.456511 
L 400.880821 184.869287 
L 400.771859 184.853919 
L 400.554387 184.239199 
L 399.901742 181.611271 
L 399.68427 181.534431 
L 399.466797 181.949367 
L 399.140588 182.717767 
L 399.031851 182.779239 
L 398.814153 182.471879 
L 398.052998 180.596984 
L 397.617827 179.137024 
L 397.50909 179.275336 
L 396.965183 181.288543 
L 396.856446 181.134864 
L 396.204028 178.768192 
L 395.98633 179.137024 
L 395.116213 181.964735 
L 394.89874 181.411487 
L 394.355058 179.336808 
L 394.246096 179.413648 
L 394.028623 180.120576 
L 393.593677 181.718847 
L 393.484941 181.718847 
L 393.267468 180.950448 
L 392.506088 176.278576 
L 392.288389 176.386152 
L 392.070917 176.509096 
L 391.635971 176.432256 
L 391.418272 176.831824 
L 390.657118 178.583776 
L 390.439419 178.768192 
L 390.221946 178.368624 
L 389.787001 177.154552 
L 389.460566 176.970136 
L 389.243093 176.032688 
L 388.699411 172.743936 
L 388.590449 172.697832 
L 388.26424 173.266448 
L 387.720332 174.065584 
L 387.611596 174.080952 
L 387.394123 173.71212 
L 387.067914 173.005192 
L 386.959177 173.082032 
L 386.41527 174.772512 
L 386.306533 174.695672 
L 385.545153 173.066664 
L 385.218944 173.02056 
L 384.892509 173.297184 
L 384.5663 173.619912 
L 384.348827 173.55844 
L 384.131354 173.158872 
L 383.587447 171.837224 
L 383.369974 171.975536 
L 383.043539 172.498048 
L 382.934802 172.467312 
L 382.608593 171.71428 
L 382.39112 171.376184 
L 382.173648 171.514496 
L 381.847213 171.837224 
L 381.521004 171.529864 
L 381.303531 171.391552 
L 381.085832 171.545232 
L 380.86836 171.745016 
L 380.650887 171.652808 
L 379.998243 170.853673 
L 379.672034 170.546313 
L 379.345824 170.300425 
L 379.128126 170.592417 
L 378.69318 171.422288 
L 378.258009 171.760384 
L 377.823063 172.544152 
L 377.605591 172.48268 
L 377.387892 172.282896 
L 377.170419 172.390472 
L 376.735474 172.94372 
L 376.517775 172.774672 
L 376.191566 172.436576 
L 375.974093 172.544152 
L 375.647884 173.112768 
L 374.23386 176.970136 
L 373.581216 180.427936 
L 373.14627 183.516903 
L 372.493626 188.742023 
L 372.167417 189.602631 
L 371.949944 190.032935 
L 371.079827 192.507182 
L 370.862129 192.184454 
L 370.318447 190.739863 
L 369.557066 188.726655 
L 369.44833 188.695919 
L 369.230857 189.187695 
L 368.578213 192.29203 
L 368.469477 192.276662 
L 368.252004 191.708046 
L 367.816833 190.294191 
L 367.490623 190.002199 
L 366.837979 189.879255 
L 366.620507 190.232719 
L 366.076599 191.323847 
L 365.75039 191.385319 
L 365.532917 191.75415 
L 365.097746 192.568654 
L 364.880273 192.399606 
L 364.554064 192.21519 
L 364.227629 192.245926 
L 364.010156 191.892462 
L 363.683947 191.323847 
L 363.466248 191.446791 
L 363.140039 191.692678 
L 362.922566 191.385319 
L 362.487395 190.647655 
L 362.269922 190.739863 
L 361.943713 191.446791 
L 361.508542 192.722334 
L 361.399805 192.814542 
L 361.291069 192.737702 
L 361.073596 192.184454 
L 360.747161 191.323847 
L 360.638651 191.308479 
L 360.420952 191.738782 
L 360.094743 192.384238 
L 359.986007 192.230558 
L 359.768534 191.247007 
L 359.442099 189.725575 
L 359.333363 189.725575 
L 359.11589 190.632287 
L 358.789455 192.261294 
L 358.680719 192.36887 
L 358.463246 191.90783 
L 358.137037 191.031855 
L 357.593129 190.386399 
L 357.049447 189.218431 
L 356.831748 189.172327 
L 356.614276 189.433583 
L 356.288066 190.432503 
L 355.961632 191.400687 
L 355.744159 191.477527 
L 354.656569 190.663023 
L 354.439096 191.047223 
L 354.112887 191.938566 
L 354.003925 192.000038 
L 353.786452 191.615838 
L 353.460243 190.939647 
L 353.351507 191.031855 
L 352.807599 192.322766 
L 352.590126 192.153718 
L 352.263691 191.723414 
L 351.828746 191.646574 
L 350.849893 191.615838 
L 350.63242 191.492895 
L 350.523683 191.52363 
L 350.305985 191.953934 
L 349.54483 194.581862 
L 349.435868 194.52039 
L 349.218395 193.890302 
L 348.565751 191.216271 
L 348.348278 191.047223 
L 348.130806 191.277743 
L 347.913333 191.585102 
L 347.804596 191.60047 
L 347.587124 191.170167 
L 347.151952 189.879255 
L 347.043216 189.894623 
L 346.608045 190.570815 
L 346.390572 190.278823 
L 346.064363 189.802415 
L 345.84689 190.294191 
L 345.302982 192.476446 
L 345.194246 192.568654 
L 344.976773 192.338134 
L 344.432865 190.893543 
L 343.780221 188.864967 
L 343.671485 188.972543 
L 343.454012 189.863887 
L 343.127803 191.431423 
L 343.018841 191.585102 
L 342.910105 191.52363 
L 342.257686 190.217351 
L 342.039988 190.278823 
L 341.822515 190.739863 
L 341.278833 192.261294 
L 341.06136 191.83099 
L 340.843662 191.323847 
L 340.734925 191.293111 
L 340.517452 191.67731 
L 340.29998 192.13835 
L 340.191243 192.184454 
L 339.973545 191.923198 
L 339.756072 191.661942 
L 339.538599 191.738782 
L 339.212164 191.90783 
L 338.885955 191.738782 
L 338.668482 191.938566 
L 338.233311 192.645494 
L 338.124575 192.645494 
L 337.798366 192.13835 
L 337.472156 191.769518 
L 337.254458 191.938566 
L 336.819512 192.614758 
L 336.710776 192.59939 
L 336.493078 192.230558 
L 336.166868 191.569734 
L 335.949395 191.52363 
L 335.731923 191.569734 
L 335.514224 191.339215 
L 335.188015 190.785967 
L 335.079279 190.801335 
L 334.861806 191.323847 
L 334.535597 192.199822 
L 334.426635 192.21519 
L 334.209162 191.784886 
L 333.774216 190.647655 
L 333.556518 190.524711 
L 333.339045 190.678391 
L 332.904099 191.185535 
L 332.686401 191.047223 
L 332.360192 190.570815 
L 332.251455 190.555447 
L 331.707548 191.031855 
L 331.490075 190.309559 
L 331.055129 188.634447 
L 330.946393 188.588343 
L 330.728694 188.987911 
L 330.076276 191.170167 
L 329.641105 193.613678 
L 329.206159 195.67299 
L 329.097423 195.719094 
L 328.879724 195.13511 
L 328.336042 191.723414 
L 327.900871 189.756311 
L 327.574662 189.279903 
L 327.357189 189.372111 
L 327.030754 190.201983 
L 326.595809 191.569734 
L 326.487072 191.615838 
L 326.269599 191.185535 
L 325.725692 189.402847 
L 325.616955 189.448951 
L 325.399483 190.063671 
L 324.964311 191.508263 
L 324.855575 191.492895 
L 324.638102 190.939647 
L 324.311667 189.925359 
L 324.094195 189.787047 
L 323.876722 189.817783 
L 323.659249 189.571895 
L 322.897868 187.666263 
L 322.680396 187.835311 
L 321.048898 190.201983 
L 320.613953 191.216271 
L 320.504991 191.093327 
L 320.287518 190.048303 
L 319.743836 186.436823 
L 319.634874 186.452191 
L 319.417401 187.497215 
L 318.656021 192.691598 
L 318.329811 193.52147 
L 318.221075 193.582942 
L 318.112339 193.459998 
L 317.894866 192.67623 
L 317.568431 191.247007 
L 317.459695 191.139431 
L 317.242222 191.631206 
L 317.024749 192.29203 
L 316.915787 192.36887 
L 316.807051 192.184454 
L 316.480841 190.401767 
L 316.045896 188.127303 
L 315.828197 187.666263 
L 315.719461 187.620159 
L 315.501988 187.896783 
L 315.066817 188.634447 
L 314.523135 188.603711 
L 314.305662 189.326007 
L 313.761754 192.030774 
L 313.653018 192.092246 
L 313.435545 191.416055 
L 313.000374 189.587263 
L 312.891638 189.694839 
L 312.239219 191.846358 
L 312.021521 191.569734 
L 311.151404 189.648735 
L 310.933931 189.525791 
L 310.716458 188.911071 
L 310.390023 187.681631 
L 310.281287 187.620159 
L 310.063814 188.234879 
L 309.737605 189.464319 
L 309.628869 189.556527 
L 309.193697 189.402847 
L 308.650015 190.678391 
L 308.541053 190.616919 
L 308.106108 189.787047 
L 307.997371 189.833151 
L 307.779899 190.463239 
L 307.235991 192.783806 
L 307.018518 192.922118 
L 306.801045 192.430342 
L 306.257138 190.586183 
L 306.148401 190.601551 
L 305.930928 191.154799 
L 305.604494 192.030774 
L 305.495757 191.953934 
L 305.278284 191.170167 
L 304.299431 186.421455 
L 303.973222 185.299591 
L 303.646787 184.992231 
L 303.211842 184.961495 
L 302.885407 185.376431 
L 302.559198 185.714527 
L 302.341725 185.253487 
L 301.906779 183.839631 
L 301.797817 183.901103 
L 301.580344 184.730975 
L 301.254135 186.160199 
L 301.145399 186.252407 
L 301.036662 186.114095 
L 300.710227 184.792447 
L 300.275282 183.347855 
L 299.948847 183.009759 
L 299.513901 183.117335 
L 299.07873 183.086599 
L 298.426312 182.917551 
L 297.664931 182.364303 
L 297.121024 181.534431 
L 296.903551 181.688111 
L 296.577342 182.533351 
L 296.14217 183.947207 
L 296.033434 184.039415 
L 295.924698 183.931839 
L 295.707225 183.194175 
L 295.163317 181.073392 
L 294.619635 179.905424 
L 294.401937 179.813216 
L 294.184464 180.120576 
L 293.640782 181.134864 
L 293.423083 181.08876 
L 292.988138 180.335728 
L 292.879401 180.412568 
L 292.661929 181.257808 
L 292.226757 183.301751 
L 292.118021 183.132703 
L 291.900548 181.780319 
L 291.356641 177.800008 
L 291.139168 177.63096 
L 290.812733 178.506936 
L 290.269051 179.951528 
L 289.50767 181.595903 
L 289.290198 181.549799 
L 289.072725 181.288543 
L 288.855252 180.62772 
L 288.528817 178.491568 
L 288.202608 176.462992 
L 287.985135 176.078792 
L 287.441228 176.32468 
L 287.223755 176.524464 
L 286.679847 177.646328 
L 286.462374 177.369704 
L 286.136165 176.70888 
L 285.918467 176.724248 
L 285.483521 177.338968 
L 285.04835 178.32252 
L 284.830877 178.737456 
L 284.722141 178.752824 
L 284.504668 178.307152 
L 283.96076 176.70888 
L 283.852024 176.724248 
L 283.634551 177.108448 
L 283.090643 178.32252 
L 282.873171 178.24568 
L 282.546961 177.63096 
L 282.11179 176.739616 
L 281.894317 176.616672 
L 281.676845 176.570568 
L 281.459372 176.109528 
L 280.915464 173.758224 
L 280.806728 173.850432 
L 280.480293 175.341128 
L 280.26282 175.986584 
L 280.154084 175.909744 
L 279.610402 174.419048 
L 279.392703 174.55736 
L 279.066494 174.833984 
L 278.849021 174.741776 
L 278.522586 174.618832 
L 278.305114 174.94156 
L 277.978904 176.032688 
L 277.65247 176.970136 
L 277.543733 177.062344 
L 277.434997 177.000872 
L 277.217524 176.416888 
L 276.891315 174.48052 
L 276.56488 172.743936 
L 276.456143 172.7132 
L 276.238671 173.543072 
L 275.912236 175.09524 
L 275.803725 175.110608 
L 275.586027 174.25 
L 275.151081 172.129216 
L 274.71591 171.453024 
L 274.389701 170.592417 
L 273.954529 169.362977 
L 273.845793 169.362977 
L 273.62832 169.762545 
L 273.410847 170.192849 
L 273.302111 170.192849 
L 273.084638 169.747177 
L 272.86694 169.316873 
L 272.758203 169.393713 
L 272.54073 170.254321 
L 272.105559 172.09848 
L 271.996823 172.129216 
L 271.77935 171.79112 
L 271.126706 170.454105 
L 270.909233 170.377265 
L 270.69176 170.577049 
L 270.147853 171.283976 
L 269.93038 171.191768 
L 269.712907 170.638521 
L 268.84279 167.672497 
L 268.625318 167.257561 
L 268.516356 167.226825 
L 268.298883 167.595657 
L 267.972673 168.302585 
L 267.755201 168.241113 
L 267.428766 168.025961 
L 267.211293 167.856913 
L 266.99382 166.980937 
L 266.449913 163.738289 
L 266.341176 163.815129 
L 266.123703 164.691105 
L 265.471059 167.780073 
L 265.253587 167.964489 
L 264.818641 167.272929 
L 264.709679 167.365137 
L 264.274733 168.394793 
L 264.165997 168.133537 
L 263.948524 166.596737 
L 263.513353 163.092833 
L 263.29588 162.616425 
L 263.078407 162.724001 
L 262.643236 163.123569 
L 262.425763 163.077465 
L 261.882081 162.585689 
L 261.555646 162.985257 
L 261.338174 163.077465 
L 261.120701 162.508849 
L 260.68553 160.74153 
L 260.576793 160.695426 
L 260.35932 161.310145 
L 260.033111 162.293697 
L 259.924149 162.124649 
L 259.706676 160.818369 
L 259.271731 157.775506 
L 259.162994 157.683298 
L 258.945296 158.313386 
L 258.619087 159.389146 
L 258.51035 159.389146 
L 258.292877 158.805162 
L 257.640233 156.499962 
L 257.531497 156.43849 
L 257.314024 156.807322 
L 256.878853 158.021394 
L 256.770117 157.913818 
L 256.552644 156.914898 
L 255.682527 151.551466 
L 255.464828 151.105794 
L 255.356318 151.13653 
L 255.138619 151.628306 
L 254.594937 153.395626 
L 254.377239 153.487834 
L 254.159766 152.934586 
L 253.72482 151.29021 
L 253.289649 150.660122 
L 252.745967 148.370291 
L 252.637231 148.616179 
L 252.20206 150.736962 
L 252.093323 150.629386 
L 251.87585 149.492155 
L 251.549416 147.632627 
L 251.440679 147.402107 
L 251.331943 147.448211 
L 251.11447 148.324187 
L 250.570562 152.396706 
L 250.461826 152.243026 
L 250.244353 150.429603 
L 249.918144 147.632627 
L 249.809182 147.555787 
L 249.374236 149.046483 
L 249.2655 148.969643 
L 248.286647 146.095827 
L 247.742739 143.175907 
L 247.307793 139.825684 
L 247.199057 139.748844 
L 246.981584 141.085859 
L 246.655149 143.544739 
L 246.546413 143.514003 
L 246.32894 142.315299 
L 246.002505 140.578715 
L 245.24135 139.410748 
L 245.132388 139.456852 
L 244.588706 140.409667 
L 244.371234 139.917892 
L 243.71859 137.105548 
L 243.609853 137.136284 
L 243.39238 137.873948 
L 243.065946 139.16486 
L 242.957209 139.272436 
L 242.739736 139.01118 
L 242.304791 138.304252 
L 241.978356 138.119836 
L 241.760883 138.334988 
L 241.325712 139.272436 
L 241.216975 139.226332 
L 240.999503 138.642348 
L 240.346859 136.24494 
L 240.129386 136.029788 
L 239.911913 136.828924 
L 239.368005 140.440403 
L 239.259269 140.378931 
L 239.041796 139.39538 
L 238.497888 136.736716 
L 237.736734 133.755324 
L 237.410299 133.63238 
L 237.192826 133.678484 
L 236.975353 134.293204 
L 236.431446 137.136284 
L 236.322709 137.120916 
L 235.9965 136.721348 
L 235.887538 136.982604 
L 235.452592 139.118756 
L 235.343856 138.872868 
L 235.126383 136.844292 
L 234.691212 132.17242 
L 234.473739 131.63454 
L 234.256266 131.772852 
L 233.712359 132.571988 
L 233.603622 132.433676 
L 233.386149 131.526964 
L 233.05994 129.990165 
L 232.950978 129.897957 
L 232.733505 130.420468 
L 232.407296 131.265708 
L 232.189823 131.281076 
L 231.972125 131.004452 
L 231.754652 130.297524 
L 231.21097 127.500549 
L 231.102008 127.439077 
L 230.884535 127.884749 
L 230.44959 128.837565 
L 229.905682 129.744277 
L 229.688209 129.513757 
L 229.470736 129.252501 
L 229.144302 129.191029 
L 228.926829 128.407261 
L 228.491883 125.763965 
L 228.383147 125.671757 
L 228.165448 126.178901 
L 227.947976 126.547733 
L 227.839239 126.394053 
L 226.75165 122.905517 
L 226.534177 122.552053 
L 226.425215 122.552053 
L 226.099006 123.074565 
L 225.881533 123.212877 
L 225.66406 122.721101 
L 225.228889 121.245773 
L 225.120152 121.245773 
L 224.902679 121.829757 
L 224.576245 122.859413 
L 224.358772 122.982357 
L 224.141299 122.982357 
L 223.923826 123.305085 
L 223.488655 124.165693 
L 223.379919 124.088853 
L 223.162446 123.428029 
L 222.7275 120.846205 
L 222.074856 117.35767 
L 221.857383 116.58927 
L 221.748421 116.527798 
L 221.639685 116.789054 
L 221.313476 119.171094 
L 221.096003 120.277589 
L 220.987266 120.139277 
L 220.769568 118.617846 
L 220.443359 116.328014 
L 220.334622 116.297278 
L 220.11715 117.188622 
L 219.899451 118.187542 
L 219.790715 118.325854 
L 219.681978 118.20291 
L 219.247033 117.034942 
L 219.138296 117.157886 
L 218.594389 119.032782 
L 218.485652 118.986678 
L 218.050481 118.43343 
L 217.833008 118.479534 
L 217.724272 118.341222 
L 217.506799 117.234726 
L 216.419209 108.336655 
L 216.201737 107.906351 
L 216.092775 108.013927 
L 215.875302 108.736223 
L 215.440356 110.995318 
L 214.787712 114.622166 
L 214.678976 114.468486 
L 214.135068 112.163286 
L 214.026332 112.255494 
L 213.808859 113.239046 
L 213.373688 115.544246 
L 213.264951 115.43667 
L 213.047478 113.97671 
L 212.394834 107.476047 
L 212.177362 106.892063 
L 212.068625 106.861327 
L 211.851152 107.184055 
L 211.63368 108.121503 
L 211.089772 111.36415 
L 210.981036 111.333414 
L 210.763563 110.319126 
L 210.437128 108.628647 
L 210.328392 108.567175 
L 210.002182 108.982111 
L 209.893446 108.751591 
L 209.675973 107.414575 
L 209.349538 105.370631 
L 209.240802 105.216951 
L 208.805856 105.693359 
L 208.479421 105.432103 
L 208.370685 105.585783 
L 207.827003 107.506783 
L 207.718041 107.460679 
L 207.391832 106.953535 
L 207.283095 106.984271 
L 207.065623 107.491415 
L 206.739188 108.459599 
L 206.521715 108.521071 
L 206.304242 107.952455 
L 205.651598 105.570415 
L 205.325389 105.155479 
L 205.216653 105.247687 
L 204.998954 106.215871 
L 204.346536 110.641854 
L 204.020101 110.887742 
L 203.476419 112.501382 
L 203.367682 112.393806 
L 203.041248 111.656142 
L 202.932511 111.686878 
L 202.715038 112.316966 
L 201.627449 117.787974 
L 200.974805 121.660709 
L 200.431123 122.628893 
L 199.887215 125.195349 
L 199.778479 125.241453 
L 199.125835 124.780413 
L 198.799625 124.918725 
L 198.582153 125.318293 
L 197.929509 127.054877 
L 197.820772 126.962669 
L 197.385601 125.564181 
L 197.276865 125.625653 
L 197.059392 127.177821 
L 196.624446 132.264628 
L 196.515484 132.571988 
L 196.406748 132.341468 
L 195.971802 130.543412 
L 195.863066 130.666356 
L 195.427894 131.726748 
L 195.101685 131.849692 
L 194.992949 131.78822 
L 194.77525 131.112028 
L 194.231568 128.330421 
L 194.014096 129.390813 
L 193.687661 131.065924 
L 193.578924 130.958348 
L 193.252715 129.191029 
L 193.035242 128.361157 
L 192.92628 128.345789 
L 192.708808 129.237133 
L 192.382598 132.541252 
L 192.056389 135.891476 
L 191.838691 136.337148 
L 191.621218 135.138444 
L 191.186272 132.295364 
L 191.07731 132.203156 
L 190.968574 132.418308 
L 190.751101 133.693852 
L 190.098683 138.488668 
L 189.989721 138.534772 
L 189.554775 137.735636 
L 189.337302 138.0891 
L 188.902131 139.118756 
L 188.575922 139.39538 
L 187.814541 140.824603 
L 187.488332 143.529371 
L 187.270634 144.789547 
L 187.161897 144.389979 
L 186.944424 141.270275 
L 186.618215 135.86074 
L 186.509479 135.24602 
L 186.400517 135.292124 
L 185.856835 137.566588 
L 185.639362 138.119836 
L 185.095454 140.117676 
L 184.877982 140.578715 
L 184.44281 142.330667 
L 184.334074 142.299931 
L 184.116601 141.239539 
L 183.790392 139.687372 
L 183.355221 139.518324 
L 182.920275 137.7049 
L 182.811539 137.93542 
L 182.59384 139.518324 
L 182.158895 142.868547 
L 181.941422 143.360323 
L 181.832685 143.344955 
L 181.614987 142.791707 
L 181.180041 140.056204 
L 180.853832 138.826764 
L 180.74487 138.826764 
L 180.527397 139.303172 
L 179.222335 143.621579 
L 179.113598 143.544739 
L 178.896126 142.822443 
L 178.460954 140.978283 
L 178.352218 140.886075 
L 178.243482 140.993651 
L 178.026009 141.762051 
L 177.373365 145.235219 
L 177.155892 145.312059 
L 176.938194 145.342795 
L 176.720721 145.957515 
L 176.177039 148.109035 
L 175.741868 148.723755 
L 175.19796 149.031115 
L 174.980487 150.060771 
L 174.545541 152.98069 
L 174.436805 153.195842 
L 174.328069 153.103634 
L 173.892897 151.82809 
L 173.784161 151.98177 
L 173.566688 153.05753 
L 173.240479 155.009266 
L 173.022781 155.270522 
L 172.805308 154.59433 
L 171.826455 150.506442 
L 171.608982 149.799515 
L 171.500245 149.799515 
L 171.282547 150.690858 
L 170.956338 152.473546 
L 170.847601 152.458178 
L 170.630128 151.167266 
L 170.41243 149.645835 
L 170.303694 149.676571 
L 170.086221 152.396706 
L 169.542313 163.354089 
L 169.433577 163.154305 
L 169.216104 160.234386 
L 168.889895 156.469226 
L 168.781158 156.653642 
L 168.56346 158.620746 
L 168.019778 164.337641 
L 167.911042 164.798681 
L 167.802305 164.767945 
L 167.584607 163.154305 
L 167.149661 158.912738 
L 167.040925 159.373778 
L 166.823226 162.770105 
L 166.388281 169.993065 
L 166.279544 169.839385 
L 165.844599 165.659289 
L 165.735637 165.812969 
L 165.518164 168.425529 
L 165.191955 172.513416 
L 165.083218 172.528784 
L 164.86552 170.484841 
L 164.430574 165.905177 
L 164.321838 165.690025 
L 164.213101 165.782233 
L 163.995629 166.566001 
L 163.451721 169.163193 
L 163.342985 168.732889 
L 163.125512 166.197169 
L 162.799077 161.771185 
L 162.690341 161.433089 
L 162.581604 161.909497 
L 162.037696 167.226825 
L 161.92896 166.688945 
L 161.385278 159.404514 
L 161.276542 159.66577 
L 161.058843 162.785473 
L 160.623898 169.654969 
L 160.515161 170.054537 
L 160.406425 169.962329 
L 159.862517 168.025961 
L 159.753781 168.210377 
L 159.536308 169.639601 
L 159.101137 173.4816 
L 158.9924 173.650648 
L 158.883664 173.281816 
L 158.557455 169.839385 
L 158.23102 166.519897 
L 158.013547 166.028121 
L 157.796074 167.411241 
L 157.252167 173.0974 
L 157.14343 172.897616 
L 156.708485 170.530945 
L 156.599748 170.592417 
L 156.055841 171.9448 
L 155.838368 171.468392 
L 155.511933 170.807569 
L 155.403197 170.991985 
L 155.185724 172.805408 
L 154.53308 182.395039 
L 154.315607 182.625559 
L 154.098134 182.041575 
L 153.880661 180.612352 
L 153.336754 175.602384 
L 153.228017 175.63312 
L 153.010544 177.200656 
L 152.68411 179.874688 
L 152.575373 179.997632 
L 152.466637 179.659536 
L 152.140428 176.985504 
L 151.813993 174.603464 
L 151.705256 174.449784 
L 151.59652 174.818616 
L 151.379047 177.108448 
L 151.052838 181.611271 
L 150.944102 181.933999 
L 150.83514 181.196336 
L 150.400194 174.880088 
L 150.291458 175.433336 
L 149.965023 182.948287 
L 149.74755 187.113015 
L 149.638814 187.743103 
L 149.530077 187.358903 
L 149.312604 183.993311 
L 148.877433 176.032688 
L 148.768697 175.971216 
L 148.551224 178.414728 
L 148.007316 186.390719 
L 147.89858 186.713447 
L 147.789843 186.375351 
L 147.572371 183.778159 
L 147.137425 178.092 
L 147.028463 178.383992 
L 146.81099 181.319279 
L 146.484781 186.129463 
L 146.376045 186.344615 
L 146.267308 185.683791 
L 145.832137 180.596984 
L 145.723401 180.750664 
L 145.397191 184.070151 
L 145.070756 186.436823 
L 144.744547 187.343535 
L 144.635811 187.328167 
L 144.527074 187.005439 
L 144.309376 185.238119 
L 143.983167 181.887895 
L 143.87443 181.549799 
L 143.765694 181.795687 
L 143.221786 185.192015 
L 143.004314 183.962575 
L 142.678104 181.642007 
L 142.460406 181.396119 
L 142.02546 182.164519 
L 141.807988 183.009759 
L 141.26408 186.667343 
L 141.155344 186.728815 
L 140.611661 185.929679 
L 140.393963 185.145911 
L 139.632583 180.381832 
L 139.41511 180.827504 
L 139.088901 181.442223 
L 138.871428 181.642007 
L 138.653729 182.256727 
L 138.110047 184.300671 
L 137.892575 184.316039 
L 137.239931 183.885735 
L 136.696023 182.902183 
L 136.47855 183.209543 
L 136.043379 184.362143 
L 135.71717 186.467559 
L 135.39096 188.234879 
L 135.282224 188.111935 
L 135.064526 186.744183 
L 134.738316 184.362143 
L 134.520844 183.977943 
L 134.194409 184.377511 
L 133.759463 184.853919 
L 133.650727 184.761711 
L 133.106819 183.563007 
L 132.671874 184.454351 
L 132.454401 183.732055 
L 132.127966 182.471879 
L 132.019229 182.594823 
L 131.475547 184.485087 
L 131.040376 184.438983 
L 130.93164 183.962575 
L 130.714167 181.426855 
L 130.387732 176.816456 
L 130.278996 176.462992 
L 130.170259 176.9394 
L 129.408879 184.377511 
L 129.191406 184.638767 
L 129.08267 184.454351 
L 128.865197 182.948287 
L 128.430026 178.875768 
L 128.321289 179.198496 
L 127.99508 183.440063 
L 127.777607 185.361063 
L 127.668645 185.130543 
L 127.016227 180.351096 
L 126.90749 180.658456 
L 126.690018 182.302831 
L 126.14611 187.312799 
L 126.037374 186.821023 
L 125.493466 181.426855 
L 125.38473 181.734215 
L 125.05852 183.808895 
L 124.949784 183.885735 
L 124.732086 182.517983 
L 124.29714 178.092 
L 124.188404 177.815376 
L 124.079667 178.030528 
L 123.861969 179.598064 
L 123.100814 187.312799 
L 122.991852 187.235959 
L 122.556906 185.453271 
L 122.44817 185.576215 
L 122.230697 186.943967 
L 121.795526 189.940727 
L 121.686789 189.879255 
L 121.469317 188.772759 
L 120.925409 185.407167 
L 120.707936 184.992231 
L 120.490463 185.022967 
L 120.272765 185.376431 
L 119.946556 186.513663 
L 119.402874 188.880335 
L 118.858966 189.940727 
L 118.206322 192.737702 
L 118.097586 192.660862 
L 117.445167 191.400687 
L 117.336205 191.615838 
L 117.118732 193.075798 
L 116.683787 197.486414 
L 116.57505 197.701566 
L 116.466088 197.240526 
L 115.922406 192.29203 
L 115.81367 192.430342 
L 115.487235 193.229478 
L 115.378499 193.198742 
L 115.161026 192.553286 
L 114.834817 190.355663 
L 114.399645 186.728815 
L 114.290909 186.498295 
L 114.182173 186.774919 
L 113.638491 190.509343 
L 113.529529 190.186615 
L 113.094583 186.897863 
L 112.985847 187.143751 
L 112.768374 189.694839 
L 112.441939 193.798094 
L 112.224466 194.781646 
L 112.006993 194.996798 
L 111.898257 194.873854 
L 111.680559 193.82883 
L 111.136876 189.571895 
L 111.02814 189.863887 
L 110.701705 193.121902 
L 110.484232 194.566494 
L 110.375496 194.335974 
L 110.158023 191.938566 
L 109.614116 183.977943 
L 109.505379 183.701319 
L 109.396643 184.239199 
L 109.17917 187.466479 
L 108.743999 194.704806 
L 108.526526 195.319526 
L 108.309053 194.551126 
L 107.547673 191.369951 
L 107.438936 191.492895 
L 107.221238 192.476446 
L 106.895029 194.120822 
L 106.786292 194.274502 
L 106.677556 194.197662 
L 106.460083 193.260214 
L 106.133648 190.171247 
L 105.807439 187.466479 
L 105.698703 187.420375 
L 105.48123 188.572975 
L 105.263757 189.879255 
L 105.154795 190.048303 
L 104.828586 189.679471 
L 104.719849 190.524711 
L 104.502377 195.350262 
L 104.175942 202.142917 
L 104.067205 201.758718 
L 103.305825 193.106534 
L 102.870879 191.308479 
L 102.326972 188.803495 
L 102.218235 188.972543 
L 102.000762 190.724495 
L 101.565591 195.073638 
L 101.456855 194.98143 
L 101.130646 192.645494 
L 100.913173 191.60047 
L 100.804436 191.615838 
L 100.478002 192.338134 
L 100.260529 192.107614 
L 100.151792 191.98467 
L 100.043056 192.107614 
L 99.825583 193.536838 
L 99.281676 199.100054 
L 99.172939 198.992478 
L 98.955466 197.163686 
L 98.520295 192.783806 
L 98.411559 192.952854 
L 97.976613 195.918878 
L 97.867877 195.780566 
L 97.650178 194.090086 
L 97.323969 191.277743 
L 97.215233 191.139431 
L 96.99776 192.276662 
L 96.671325 194.28987 
L 96.562589 194.458918 
L 96.453852 194.382078 
L 96.127643 193.337054 
L 95.692472 191.477527 
L 95.366263 188.234879 
L 95.039828 185.314959 
L 94.931091 185.084439 
L 94.822355 185.253487 
L 94.278673 187.189855 
L 94.0612 187.066911 
L 93.952238 187.220591 
L 93.734765 188.834231 
L 92.973385 198.700486 
L 92.755912 196.702646 
L 92.320966 192.076878 
L 92.21223 191.953934 
L 91.994532 192.691598 
L 91.777059 193.52147 
L 91.668322 193.613678 
L 91.559586 193.383158 
L 91.342113 192.184454 
L 90.906942 189.710207 
L 90.798206 189.725575 
L 90.580733 190.908911 
L 89.819352 197.240526 
L 89.166708 199.499622 
L 89.057972 199.330574 
L 88.840499 198.039662 
L 88.079119 191.477527 
L 87.970382 191.416055 
L 87.535437 191.738782 
L 87.317738 191.339215 
L 86.882793 190.109775 
L 86.774056 190.186615 
L 86.556358 191.369951 
L 86.012676 195.765198 
L 85.903939 195.688358 
L 85.686466 194.59723 
L 85.360032 192.90675 
L 84.707388 191.569734 
L 84.598651 191.646574 
L 84.381178 192.845278 
L 83.946233 196.51823 
L 83.728534 196.90243 
L 82.96738 196.349182 
L 82.423472 194.612598 
L 81.770828 192.845278 
L 81.553355 192.82991 
L 81.118184 193.06043 
L 80.900711 192.891382 
L 80.574502 192.000038 
L 80.248293 191.047223 
L 80.139556 191.216271 
L 79.921858 192.891382 
L 79.269439 200.698326 
L 79.160703 200.852006 
L 78.943005 200.28339 
L 78.508059 198.82343 
L 77.529206 197.59399 
L 77.311507 197.394206 
L 77.094034 196.779486 
L 76.550352 194.305238 
L 76.441616 194.274502 
L 76.223918 194.858486 
L 75.788972 196.410654 
L 75.571499 196.59507 
L 75.353801 196.718014 
L 75.027592 197.05611 
L 74.918855 196.963902 
L 74.701382 195.964982 
L 74.266211 192.98359 
L 74.157475 193.075798 
L 73.940002 194.766278 
L 73.613793 198.008926 
L 73.504831 198.270182 
L 73.396094 197.962822 
L 72.852412 194.305238 
L 72.743676 194.428182 
L 72.199768 196.502862 
L 72.091032 196.28771 
L 71.764823 194.412814 
L 71.438388 193.152638 
L 71.329651 193.168006 
L 71.220915 193.352422 
L 71.220915 193.352422 
" clip-path="url(#p94b770d6b6)" style="fill: none; stroke: #d95f5f; stroke-width: 0.8; stroke-linecap: square"/>
   </g>
   <g id="patch_9">
    <path d="M 71.248438 309.446125 
L 71.248438 22.318125 
" style="fill: none; stroke: #000000; stroke-width: 0.8; stroke-linejoin: miter; stroke-linecap: square"/>
   </g>
   <g id="patch_10">
    <path d="M 71.248438 309.446125 
L 849.548438 309.446125 
" style="fill: none; stroke: #000000; stroke-width: 0.8; stroke-linejoin: miter; stroke-linecap: square"/>
   </g>
   <g id="text_18">
    <!-- O–H stretch -->
    <g style="fill: #555555" transform="translate(208.536522 75.130667) rotate(-90) scale(0.07 -0.07)">
     <defs>
      <path id="DejaVuSans-4f" d="M 2522 4238 
Q 1834 4238 1429 3725 
Q 1025 3213 1025 2328 
Q 1025 1447 1429 934 
Q 1834 422 2522 422 
Q 3209 422 3611 934 
Q 4013 1447 4013 2328 
Q 4013 3213 3611 3725 
Q 3209 4238 2522 4238 
z
M 2522 4750 
Q 3503 4750 4090 4092 
Q 4678 3434 4678 2328 
Q 4678 1225 4090 567 
Q 3503 -91 2522 -91 
Q 1538 -91 948 565 
Q 359 1222 359 2328 
Q 359 3434 948 4092 
Q 1538 4750 2522 4750 
z
" transform="scale(0.015625)"/>
      <path id="DejaVuSans-2013" d="M 313 1978 
L 2888 1978 
L 2888 1528 
L 313 1528 
L 313 1978 
z
" transform="scale(0.015625)"/>
      <path id="DejaVuSans-48" d="M 628 4666 
L 1259 4666 
L 1259 2753 
L 3553 2753 
L 3553 4666 
L 4184 4666 
L 4184 0 
L 3553 0 
L 3553 2222 
L 1259 2222 
L 1259 0 
L 628 0 
L 628 4666 
z
" transform="scale(0.015625)"/>
      <path id="DejaVuSans-74" d="M 1172 4494 
L 1172 3500 
L 2356 3500 
L 2356 3053 
L 1172 3053 
L 1172 1153 
Q 1172 725 1289 603 
Q 1406 481 1766 481 
L 2356 481 
L 2356 0 
L 1766 0 
Q 1100 0 847 248 
Q 594 497 594 1153 
L 594 3053 
L 172 3053 
L 172 3500 
L 594 3500 
L 594 4494 
L 1172 4494 
z
" transform="scale(0.015625)"/>
      <path id="DejaVuSans-68" d="M 3513 2113 
L 3513 0 
L 2938 0 
L 2938 2094 
Q 2938 2591 2744 2837 
Q 2550 3084 2163 3084 
Q 1697 3084 1428 2787 
Q 1159 2491 1159 1978 
L 1159 0 
L 581 0 
L 581 4863 
L 1159 4863 
L 1159 2956 
Q 1366 3272 1645 3428 
Q 1925 3584 2291 3584 
Q 2894 3584 3203 3211 
Q 3513 2838 3513 2113 
z
" transform="scale(0.015625)"/>
     </defs>
     <use xlink:href="#DejaVuSans-4f"/>
     <use xlink:href="#DejaVuSans-2013" x="78.710938"/>
     <use xlink:href="#DejaVuSans-48" x="128.710938"/>
     <use xlink:href="#DejaVuSans-20" x="203.90625"/>
     <use xlink:href="#DejaVuSans-73" x="235.693359"/>
     <use xlink:href="#DejaVuSans-74" x="287.792969"/>
     <use xlink:href="#DejaVuSans-72" x="327.001953"/>
     <use xlink:href="#DejaVuSans-65" x="365.865234"/>
     <use xlink:href="#DejaVuSans-74" x="427.388672"/>
     <use xlink:href="#DejaVuSans-63" x="466.597656"/>
     <use xlink:href="#DejaVuSans-68" x="521.578125"/>
    </g>
   </g>
   <g id="text_19">
    <!-- C–H stretch -->
    <g style="fill: #555555" transform="translate(315.693768 74.508324) rotate(-90) scale(0.07 -0.07)">
     <defs>
      <path id="DejaVuSans-43" d="M 4122 4306 
L 4122 3641 
Q 3803 3938 3442 4084 
Q 3081 4231 2675 4231 
Q 1875 4231 1450 3742 
Q 1025 3253 1025 2328 
Q 1025 1406 1450 917 
Q 1875 428 2675 428 
Q 3081 428 3442 575 
Q 3803 722 4122 1019 
L 4122 359 
Q 3791 134 3420 21 
Q 3050 -91 2638 -91 
Q 1578 -91 968 557 
Q 359 1206 359 2328 
Q 359 3453 968 4101 
Q 1578 4750 2638 4750 
Q 3056 4750 3426 4639 
Q 3797 4528 4122 4306 
z
" transform="scale(0.015625)"/>
     </defs>
     <use xlink:href="#DejaVuSans-43"/>
     <use xlink:href="#DejaVuSans-2013" x="69.824219"/>
     <use xlink:href="#DejaVuSans-48" x="119.824219"/>
     <use xlink:href="#DejaVuSans-20" x="195.019531"/>
     <use xlink:href="#DejaVuSans-73" x="226.806641"/>
     <use xlink:href="#DejaVuSans-74" x="278.90625"/>
     <use xlink:href="#DejaVuSans-72" x="318.115234"/>
     <use xlink:href="#DejaVuSans-65" x="356.978516"/>
     <use xlink:href="#DejaVuSans-74" x="418.501953"/>
     <use xlink:href="#DejaVuSans-63" x="457.710938"/>
     <use xlink:href="#DejaVuSans-68" x="512.691406"/>
    </g>
   </g>
   <g id="text_20">
    <!-- C=O stretch -->
    <g style="fill: #555555" transform="translate(588.662754 77.120199) rotate(-90) scale(0.07 -0.07)">
     <defs>
      <path id="DejaVuSans-3d" d="M 678 2906 
L 4684 2906 
L 4684 2381 
L 678 2381 
L 678 2906 
z
M 678 1631 
L 4684 1631 
L 4684 1100 
L 678 1100 
L 678 1631 
z
" transform="scale(0.015625)"/>
     </defs>
     <use xlink:href="#DejaVuSans-43"/>
     <use xlink:href="#DejaVuSans-3d" x="69.824219"/>
     <use xlink:href="#DejaVuSans-4f" x="153.613281"/>
     <use xlink:href="#DejaVuSans-20" x="232.324219"/>
     <use xlink:href="#DejaVuSans-73" x="264.111328"/>
     <use xlink:href="#DejaVuSans-74" x="316.210938"/>
     <use xlink:href="#DejaVuSans-72" x="355.419922"/>
     <use xlink:href="#DejaVuSans-65" x="394.283203"/>
     <use xlink:href="#DejaVuSans-74" x="455.806641"/>
     <use xlink:href="#DejaVuSans-63" x="495.015625"/>
     <use xlink:href="#DejaVuSans-68" x="549.996094"/>
    </g>
   </g>
   <g id="text_21">
    <!-- C=C stretch -->
    <g style="fill: #555555" transform="translate(605.582319 76.497855) rotate(-90) scale(0.07 -0.07)">
     <use xlink:href="#DejaVuSans-43"/>
     <use xlink:href="#DejaVuSans-3d" x="69.824219"/>
     <use xlink:href="#DejaVuSans-43" x="153.613281"/>
     <use xlink:href="#DejaVuSans-20" x="223.4375"/>
     <use xlink:href="#DejaVuSans-73" x="255.224609"/>
     <use xlink:href="#DejaVuSans-74" x="307.324219"/>
     <use xlink:href="#DejaVuSans-72" x="346.533203"/>
     <use xlink:href="#DejaVuSans-65" x="385.396484"/>
     <use xlink:href="#DejaVuSans-74" x="446.919922"/>
     <use xlink:href="#DejaVuSans-63" x="486.128906"/>
     <use xlink:href="#DejaVuSans-68" x="541.109375"/>
    </g>
   </g>
   <g id="text_22">
    <!-- C–H bend -->
    <g style="fill: #555555" transform="translate(656.341014 67.692074) rotate(-90) scale(0.07 -0.07)">
     <defs>
      <path id="DejaVuSans-64" d="M 2906 2969 
L 2906 4863 
L 3481 4863 
L 3481 0 
L 2906 0 
L 2906 525 
Q 2725 213 2448 61 
Q 2172 -91 1784 -91 
Q 1150 -91 751 415 
Q 353 922 353 1747 
Q 353 2572 751 3078 
Q 1150 3584 1784 3584 
Q 2172 3584 2448 3432 
Q 2725 3281 2906 2969 
z
M 947 1747 
Q 947 1113 1208 752 
Q 1469 391 1925 391 
Q 2381 391 2643 752 
Q 2906 1113 2906 1747 
Q 2906 2381 2643 2742 
Q 2381 3103 1925 3103 
Q 1469 3103 1208 2742 
Q 947 2381 947 1747 
z
" transform="scale(0.015625)"/>
     </defs>
     <use xlink:href="#DejaVuSans-43"/>
     <use xlink:href="#DejaVuSans-2013" x="69.824219"/>
     <use xlink:href="#DejaVuSans-48" x="119.824219"/>
     <use xlink:href="#DejaVuSans-20" x="195.019531"/>
     <use xlink:href="#DejaVuSans-62" x="226.806641"/>
     <use xlink:href="#DejaVuSans-65" x="290.283203"/>
     <use xlink:href="#DejaVuSans-6e" x="351.806641"/>
     <use xlink:href="#DejaVuSans-64" x="415.185547"/>
    </g>
   </g>
   <g id="text_23">
    <!-- C–O stretch -->
    <g style="fill: #555555" transform="translate(716.123478 74.754417) rotate(-90) scale(0.07 -0.07)">
     <use xlink:href="#DejaVuSans-43"/>
     <use xlink:href="#DejaVuSans-2013" x="69.824219"/>
     <use xlink:href="#DejaVuSans-4f" x="119.824219"/>
     <use xlink:href="#DejaVuSans-20" x="198.535156"/>
     <use xlink:href="#DejaVuSans-73" x="230.322266"/>
     <use xlink:href="#DejaVuSans-74" x="282.421875"/>
     <use xlink:href="#DejaVuSans-72" x="321.630859"/>
     <use xlink:href="#DejaVuSans-65" x="360.494141"/>
     <use xlink:href="#DejaVuSans-74" x="422.017578"/>
     <use xlink:href="#DejaVuSans-63" x="461.226562"/>
     <use xlink:href="#DejaVuSans-68" x="516.207031"/>
    </g>
   </g>
   <g id="text_24">
    <!-- Ionic / Flat -->
    <g transform="translate(429.206875 16.318125) scale(0.12 -0.12)">
     <defs>
      <path id="DejaVuSans-49" d="M 628 4666 
L 1259 4666 
L 1259 0 
L 628 0 
L 628 4666 
z
" transform="scale(0.015625)"/>
      <path id="DejaVuSans-69" d="M 603 3500 
L 1178 3500 
L 1178 0 
L 603 0 
L 603 3500 
z
M 603 4863 
L 1178 4863 
L 1178 4134 
L 603 4134 
L 603 4863 
z
" transform="scale(0.015625)"/>
      <path id="DejaVuSans-2f" d="M 1625 4666 
L 2156 4666 
L 531 -594 
L 0 -594 
L 1625 4666 
z
" transform="scale(0.015625)"/>
      <path id="DejaVuSans-46" d="M 628 4666 
L 3309 4666 
L 3309 4134 
L 1259 4134 
L 1259 2759 
L 3109 2759 
L 3109 2228 
L 1259 2228 
L 1259 0 
L 628 0 
L 628 4666 
z
" transform="scale(0.015625)"/>
      <path id="DejaVuSans-6c" d="M 603 4863 
L 1178 4863 
L 1178 0 
L 603 0 
L 603 4863 
z
" transform="scale(0.015625)"/>
     </defs>
     <use xlink:href="#DejaVuSans-49"/>
     <use xlink:href="#DejaVuSans-6f" x="29.492188"/>
     <use xlink:href="#DejaVuSans-6e" x="90.673828"/>
     <use xlink:href="#DejaVuSans-69" x="154.052734"/>
     <use xlink:href="#DejaVuSans-63" x="181.835938"/>
     <use xlink:href="#DejaVuSans-20" x="236.816406"/>
     <use xlink:href="#DejaVuSans-2f" x="268.603516"/>
     <use xlink:href="#DejaVuSans-20" x="302.294922"/>
     <use xlink:href="#DejaVuSans-46" x="334.082031"/>
     <use xlink:href="#DejaVuSans-6c" x="391.601562"/>
     <use xlink:href="#DejaVuSans-61" x="419.384766"/>
     <use xlink:href="#DejaVuSans-74" x="480.664062"/>
    </g>
   </g>
   <g id="legend_1">
    <g id="patch_11">
     <path d="M 803.919688 40.460625 
L 843.948438 40.460625 
Q 845.548438 40.460625 845.548438 38.860625 
L 845.548438 27.918125 
Q 845.548438 26.318125 843.948438 26.318125 
L 803.919688 26.318125 
Q 802.319688 26.318125 802.319688 27.918125 
L 802.319688 38.860625 
Q 802.319688 40.460625 803.919688 40.460625 
z
" style="fill: #ffffff; opacity: 0.8; stroke: #cccccc; stroke-linejoin: miter"/>
    </g>
    <g id="line2d_25">
     <path d="M 805.519688 32.796875 
L 813.519688 32.796875 
L 821.519688 32.796875 
" style="fill: none; stroke: #d95f5f; stroke-width: 0.8; stroke-linecap: square"/>
    </g>
    <g id="text_25">
     <!-- salt -->
     <g transform="translate(827.919688 35.596875) scale(0.08 -0.08)">
      <use xlink:href="#DejaVuSans-73"/>
      <use xlink:href="#DejaVuSans-61" x="52.099609"/>
      <use xlink:href="#DejaVuSans-6c" x="113.378906"/>
      <use xlink:href="#DejaVuSans-74" x="141.162109"/>
     </g>
    </g>
   </g>
  </g>
 </g>
 <defs>
  <clipPath id="p94b770d6b6">
   <rect x="71.248438" y="22.318125" width="778.3" height="287.128"/>
  </clipPath>
 </defs>
</svg>
