<?xml version="1.0" encoding="utf-8" standalone="no"?>
<!DOCTYPE svg PUBLIC "-//W3C//DTD SVG 1.1//EN"
  "http://www.w3.org/Graphics/SVG/1.1/DTD/svg11.dtd">
<svg xmlns:xlink="http://www.w3.org/1999/xlink" width="856.52375pt" height="347.72425pt" viewBox="0 0 856.52375 347.72425" xmlns="http://www.w3.org/2000/svg" version="1.1">
 <metadata>
  <rdf:RDF xmlns:dc="http://purl.org/dc/elements/1.1/" xmlns:cc="http://creativecommons.org/ns#" xmlns:rdf="http://www.w3.org/1999/02/22-rdf-syntax-ns#">
   <cc:Work>
    <dc:type rdf:resource="http://purl.org/dc/dcmitype/StillImage"/>
    <dc:date>2026-04-05T23:43:23.644169</dc:date>
    <dc:format>image/svg+xml</dc:format>
    <dc:creator>
     <cc:Agent>
      <dc:title>Matplotlib v3.9.4, https://matplotlib.org/</dc:title>
     </cc:Agent>
    </dc:creator>
   </cc:Work>
  </rdf:RDF>
 </metadata>
 <defs>
  <style type="text/css">*{stroke-linejoin: round; stroke-linecap: butt}</style>
 </defs>
 <g id="figure_1">
  <g id="patch_1">
   <path d="M 0 347.72425 
L 856.52375 347.72425 
L 856.52375 0 
L 0 0 
z
" style="fill: #ffffff"/>
  </g>
  <g id="axes_1">
   <g id="patch_2">
    <path d="M 50.14375 309.446125 
L 849.32375 309.446125 
L 849.32375 22.318125 
L 50.14375 22.318125 
z
" style="fill: #ffffff"/>
   </g>
   <g id="patch_3">
    <path d="M 235.460851 309.446125 
L 142.802301 309.446125 
L 142.802301 22.318125 
L 235.460851 22.318125 
z
" clip-path="url(#p8776ae85d4)" style="fill: #cce5ff; opacity: 0.35; stroke: #cce5ff; stroke-linejoin: miter"/>
   </g>
   <g id="patch_4">
    <path d="M 316.537083 309.446125 
L 281.790127 309.446125 
L 281.790127 22.318125 
L 316.537083 22.318125 
z
" clip-path="url(#p8776ae85d4)" style="fill: #d4edda; opacity: 0.35; stroke: #d4edda; stroke-linejoin: miter"/>
   </g>
   <g id="patch_5">
    <path d="M 587.563344 309.446125 
L 571.348098 309.446125 
L 571.348098 22.318125 
L 587.563344 22.318125 
z
" clip-path="url(#p8776ae85d4)" style="fill: #f8d7da; opacity: 0.35; stroke: #f8d7da; stroke-linejoin: miter"/>
   </g>
   <g id="patch_6">
    <path d="M 606.095054 309.446125 
L 587.563344 309.446125 
L 587.563344 22.318125 
L 606.095054 22.318125 
z
" clip-path="url(#p8776ae85d4)" style="fill: #fff3cd; opacity: 0.35; stroke: #fff3cd; stroke-linejoin: miter"/>
   </g>
   <g id="patch_7">
    <path d="M 664.006649 309.446125 
L 633.89262 309.446125 
L 633.89262 22.318125 
L 664.006649 22.318125 
z
" clip-path="url(#p8776ae85d4)" style="fill: #fce4b8; opacity: 0.35; stroke: #fce4b8; stroke-linejoin: miter"/>
   </g>
   <g id="patch_8">
    <path d="M 745.08288 309.446125 
L 675.588967 309.446125 
L 675.588967 22.318125 
L 745.08288 22.318125 
z
" clip-path="url(#p8776ae85d4)" style="fill: #e2d9f3; opacity: 0.35; stroke: #e2d9f3; stroke-linejoin: miter"/>
   </g>
   <g id="matplotlib.axis_1">
    <g id="xtick_1">
     <g id="line2d_1">
      <defs>
       <path id="m58e784ceba" d="M 0 0 
L 0 3.5 
" style="stroke: #000000; stroke-width: 0.8"/>
      </defs>
      <g>
       <use xlink:href="#m58e784ceba" x="745.08288" y="309.446125" style="stroke: #000000; stroke-width: 0.8"/>
      </g>
     </g>
     <g id="text_1">
      <!-- 1,000 -->
      <g transform="translate(730.768818 324.044562) scale(0.1 -0.1)">
       <defs>
        <path id="DejaVuSans-31" d="M 794 531 
L 1825 531 
L 1825 4091 
L 703 3866 
L 703 4441 
L 1819 4666 
L 2450 4666 
L 2450 531 
L 3481 531 
L 3481 0 
L 794 0 
L 794 531 
z
" transform="scale(0.015625)"/>
        <path id="DejaVuSans-2c" d="M 750 794 
L 1409 794 
L 1409 256 
L 897 -744 
L 494 -744 
L 750 256 
L 750 794 
z
" transform="scale(0.015625)"/>
        <path id="DejaVuSans-30" d="M 2034 4250 
Q 1547 4250 1301 3770 
Q 1056 3291 1056 2328 
Q 1056 1369 1301 889 
Q 1547 409 2034 409 
Q 2525 409 2770 889 
Q 3016 1369 3016 2328 
Q 3016 3291 2770 3770 
Q 2525 4250 2034 4250 
z
M 2034 4750 
Q 2819 4750 3233 4129 
Q 3647 3509 3647 2328 
Q 3647 1150 3233 529 
Q 2819 -91 2034 -91 
Q 1250 -91 836 529 
Q 422 1150 422 2328 
Q 422 3509 836 4129 
Q 1250 4750 2034 4750 
z
" transform="scale(0.015625)"/>
       </defs>
       <use xlink:href="#DejaVuSans-31"/>
       <use xlink:href="#DejaVuSans-2c" x="63.623047"/>
       <use xlink:href="#DejaVuSans-30" x="95.410156"/>
       <use xlink:href="#DejaVuSans-30" x="159.033203"/>
       <use xlink:href="#DejaVuSans-30" x="222.65625"/>
      </g>
     </g>
    </g>
    <g id="xtick_2">
     <g id="line2d_2">
      <g>
       <use xlink:href="#m58e784ceba" x="629.259692" y="309.446125" style="stroke: #000000; stroke-width: 0.8"/>
      </g>
     </g>
     <g id="text_2">
      <!-- 1,500 -->
      <g transform="translate(614.94563 324.044562) scale(0.1 -0.1)">
       <defs>
        <path id="DejaVuSans-35" d="M 691 4666 
L 3169 4666 
L 3169 4134 
L 1269 4134 
L 1269 2991 
Q 1406 3038 1543 3061 
Q 1681 3084 1819 3084 
Q 2600 3084 3056 2656 
Q 3513 2228 3513 1497 
Q 3513 744 3044 326 
Q 2575 -91 1722 -91 
Q 1428 -91 1123 -41 
Q 819 9 494 109 
L 494 744 
Q 775 591 1075 516 
Q 1375 441 1709 441 
Q 2250 441 2565 725 
Q 2881 1009 2881 1497 
Q 2881 1984 2565 2268 
Q 2250 2553 1709 2553 
Q 1456 2553 1204 2497 
Q 953 2441 691 2322 
L 691 4666 
z
" transform="scale(0.015625)"/>
       </defs>
       <use xlink:href="#DejaVuSans-31"/>
       <use xlink:href="#DejaVuSans-2c" x="63.623047"/>
       <use xlink:href="#DejaVuSans-35" x="95.410156"/>
       <use xlink:href="#DejaVuSans-30" x="159.033203"/>
       <use xlink:href="#DejaVuSans-30" x="222.65625"/>
      </g>
     </g>
    </g>
    <g id="xtick_3">
     <g id="line2d_3">
      <g>
       <use xlink:href="#m58e784ceba" x="513.436504" y="309.446125" style="stroke: #000000; stroke-width: 0.8"/>
      </g>
     </g>
     <g id="text_3">
      <!-- 2,000 -->
      <g transform="translate(499.122441 324.044562) scale(0.1 -0.1)">
       <defs>
        <path id="DejaVuSans-32" d="M 1228 531 
L 3431 531 
L 3431 0 
L 469 0 
L 469 531 
Q 828 903 1448 1529 
Q 2069 2156 2228 2338 
Q 2531 2678 2651 2914 
Q 2772 3150 2772 3378 
Q 2772 3750 2511 3984 
Q 2250 4219 1831 4219 
Q 1534 4219 1204 4116 
Q 875 4013 500 3803 
L 500 4441 
Q 881 4594 1212 4672 
Q 1544 4750 1819 4750 
Q 2544 4750 2975 4387 
Q 3406 4025 3406 3419 
Q 3406 3131 3298 2873 
Q 3191 2616 2906 2266 
Q 2828 2175 2409 1742 
Q 1991 1309 1228 531 
z
" transform="scale(0.015625)"/>
       </defs>
       <use xlink:href="#DejaVuSans-32"/>
       <use xlink:href="#DejaVuSans-2c" x="63.623047"/>
       <use xlink:href="#DejaVuSans-30" x="95.410156"/>
       <use xlink:href="#DejaVuSans-30" x="159.033203"/>
       <use xlink:href="#DejaVuSans-30" x="222.65625"/>
      </g>
     </g>
    </g>
    <g id="xtick_4">
     <g id="line2d_4">
      <g>
       <use xlink:href="#m58e784ceba" x="397.613315" y="309.446125" style="stroke: #000000; stroke-width: 0.8"/>
      </g>
     </g>
     <g id="text_4">
      <!-- 2,500 -->
      <g transform="translate(383.299253 324.044562) scale(0.1 -0.1)">
       <use xlink:href="#DejaVuSans-32"/>
       <use xlink:href="#DejaVuSans-2c" x="63.623047"/>
       <use xlink:href="#DejaVuSans-35" x="95.410156"/>
       <use xlink:href="#DejaVuSans-30" x="159.033203"/>
       <use xlink:href="#DejaVuSans-30" x="222.65625"/>
      </g>
     </g>
    </g>
    <g id="xtick_5">
     <g id="line2d_5">
      <g>
       <use xlink:href="#m58e784ceba" x="281.790127" y="309.446125" style="stroke: #000000; stroke-width: 0.8"/>
      </g>
     </g>
     <g id="text_5">
      <!-- 3,000 -->
      <g transform="translate(267.476064 324.044562) scale(0.1 -0.1)">
       <defs>
        <path id="DejaVuSans-33" d="M 2597 2516 
Q 3050 2419 3304 2112 
Q 3559 1806 3559 1356 
Q 3559 666 3084 287 
Q 2609 -91 1734 -91 
Q 1441 -91 1130 -33 
Q 819 25 488 141 
L 488 750 
Q 750 597 1062 519 
Q 1375 441 1716 441 
Q 2309 441 2620 675 
Q 2931 909 2931 1356 
Q 2931 1769 2642 2001 
Q 2353 2234 1838 2234 
L 1294 2234 
L 1294 2753 
L 1863 2753 
Q 2328 2753 2575 2939 
Q 2822 3125 2822 3475 
Q 2822 3834 2567 4026 
Q 2313 4219 1838 4219 
Q 1578 4219 1281 4162 
Q 984 4106 628 3988 
L 628 4550 
Q 988 4650 1302 4700 
Q 1616 4750 1894 4750 
Q 2613 4750 3031 4423 
Q 3450 4097 3450 3541 
Q 3450 3153 3228 2886 
Q 3006 2619 2597 2516 
z
" transform="scale(0.015625)"/>
       </defs>
       <use xlink:href="#DejaVuSans-33"/>
       <use xlink:href="#DejaVuSans-2c" x="63.623047"/>
       <use xlink:href="#DejaVuSans-30" x="95.410156"/>
       <use xlink:href="#DejaVuSans-30" x="159.033203"/>
       <use xlink:href="#DejaVuSans-30" x="222.65625"/>
      </g>
     </g>
    </g>
    <g id="xtick_6">
     <g id="line2d_6">
      <g>
       <use xlink:href="#m58e784ceba" x="165.966938" y="309.446125" style="stroke: #000000; stroke-width: 0.8"/>
      </g>
     </g>
     <g id="text_6">
      <!-- 3,500 -->
      <g transform="translate(151.652876 324.044562) scale(0.1 -0.1)">
       <use xlink:href="#DejaVuSans-33"/>
       <use xlink:href="#DejaVuSans-2c" x="63.623047"/>
       <use xlink:href="#DejaVuSans-35" x="95.410156"/>
       <use xlink:href="#DejaVuSans-30" x="159.033203"/>
       <use xlink:href="#DejaVuSans-30" x="222.65625"/>
      </g>
     </g>
    </g>
    <g id="xtick_7">
     <g id="line2d_7">
      <g>
       <use xlink:href="#m58e784ceba" x="50.14375" y="309.446125" style="stroke: #000000; stroke-width: 0.8"/>
      </g>
     </g>
     <g id="text_7">
      <!-- 4,000 -->
      <g transform="translate(35.829687 324.044562) scale(0.1 -0.1)">
       <defs>
        <path id="DejaVuSans-34" d="M 2419 4116 
L 825 1625 
L 2419 1625 
L 2419 4116 
z
M 2253 4666 
L 3047 4666 
L 3047 1625 
L 3713 1625 
L 3713 1100 
L 3047 1100 
L 3047 0 
L 2419 0 
L 2419 1100 
L 313 1100 
L 313 1709 
L 2253 4666 
z
" transform="scale(0.015625)"/>
       </defs>
       <use xlink:href="#DejaVuSans-34"/>
       <use xlink:href="#DejaVuSans-2c" x="63.623047"/>
       <use xlink:href="#DejaVuSans-30" x="95.410156"/>
       <use xlink:href="#DejaVuSans-30" x="159.033203"/>
       <use xlink:href="#DejaVuSans-30" x="222.65625"/>
      </g>
     </g>
    </g>
    <g id="text_8">
     <!-- Wavenumber (cm$^{-1}$) -->
     <g transform="translate(397.68375 338.444562) scale(0.1 -0.1)">
      <defs>
       <path id="DejaVuSans-57" d="M 213 4666 
L 850 4666 
L 1831 722 
L 2809 4666 
L 3519 4666 
L 4500 722 
L 5478 4666 
L 6119 4666 
L 4947 0 
L 4153 0 
L 3169 4050 
L 2175 0 
L 1381 0 
L 213 4666 
z
" transform="scale(0.015625)"/>
       <path id="DejaVuSans-61" d="M 2194 1759 
Q 1497 1759 1228 1600 
Q 959 1441 959 1056 
Q 959 750 1161 570 
Q 1363 391 1709 391 
Q 2188 391 2477 730 
Q 2766 1069 2766 1631 
L 2766 1759 
L 2194 1759 
z
M 3341 1997 
L 3341 0 
L 2766 0 
L 2766 531 
Q 2569 213 2275 61 
Q 1981 -91 1556 -91 
Q 1019 -91 701 211 
Q 384 513 384 1019 
Q 384 1609 779 1909 
Q 1175 2209 1959 2209 
L 2766 2209 
L 2766 2266 
Q 2766 2663 2505 2880 
Q 2244 3097 1772 3097 
Q 1472 3097 1187 3025 
Q 903 2953 641 2809 
L 641 3341 
Q 956 3463 1253 3523 
Q 1550 3584 1831 3584 
Q 2591 3584 2966 3190 
Q 3341 2797 3341 1997 
z
" transform="scale(0.015625)"/>
       <path id="DejaVuSans-76" d="M 191 3500 
L 800 3500 
L 1894 563 
L 2988 3500 
L 3597 3500 
L 2284 0 
L 1503 0 
L 191 3500 
z
" transform="scale(0.015625)"/>
       <path id="DejaVuSans-65" d="M 3597 1894 
L 3597 1613 
L 953 1613 
Q 991 1019 1311 708 
Q 1631 397 2203 397 
Q 2534 397 2845 478 
Q 3156 559 3463 722 
L 3463 178 
Q 3153 47 2828 -22 
Q 2503 -91 2169 -91 
Q 1331 -91 842 396 
Q 353 884 353 1716 
Q 353 2575 817 3079 
Q 1281 3584 2069 3584 
Q 2775 3584 3186 3129 
Q 3597 2675 3597 1894 
z
M 3022 2063 
Q 3016 2534 2758 2815 
Q 2500 3097 2075 3097 
Q 1594 3097 1305 2825 
Q 1016 2553 972 2059 
L 3022 2063 
z
" transform="scale(0.015625)"/>
       <path id="DejaVuSans-6e" d="M 3513 2113 
L 3513 0 
L 2938 0 
L 2938 2094 
Q 2938 2591 2744 2837 
Q 2550 3084 2163 3084 
Q 1697 3084 1428 2787 
Q 1159 2491 1159 1978 
L 1159 0 
L 581 0 
L 581 3500 
L 1159 3500 
L 1159 2956 
Q 1366 3272 1645 3428 
Q 1925 3584 2291 3584 
Q 2894 3584 3203 3211 
Q 3513 2838 3513 2113 
z
" transform="scale(0.015625)"/>
       <path id="DejaVuSans-75" d="M 544 1381 
L 544 3500 
L 1119 3500 
L 1119 1403 
Q 1119 906 1312 657 
Q 1506 409 1894 409 
Q 2359 409 2629 706 
Q 2900 1003 2900 1516 
L 2900 3500 
L 3475 3500 
L 3475 0 
L 2900 0 
L 2900 538 
Q 2691 219 2414 64 
Q 2138 -91 1772 -91 
Q 1169 -91 856 284 
Q 544 659 544 1381 
z
M 1991 3584 
L 1991 3584 
z
" transform="scale(0.015625)"/>
       <path id="DejaVuSans-6d" d="M 3328 2828 
Q 3544 3216 3844 3400 
Q 4144 3584 4550 3584 
Q 5097 3584 5394 3201 
Q 5691 2819 5691 2113 
L 5691 0 
L 5113 0 
L 5113 2094 
Q 5113 2597 4934 2840 
Q 4756 3084 4391 3084 
Q 3944 3084 3684 2787 
Q 3425 2491 3425 1978 
L 3425 0 
L 2847 0 
L 2847 2094 
Q 2847 2600 2669 2842 
Q 2491 3084 2119 3084 
Q 1678 3084 1418 2786 
Q 1159 2488 1159 1978 
L 1159 0 
L 581 0 
L 581 3500 
L 1159 3500 
L 1159 2956 
Q 1356 3278 1631 3431 
Q 1906 3584 2284 3584 
Q 2666 3584 2933 3390 
Q 3200 3197 3328 2828 
z
" transform="scale(0.015625)"/>
       <path id="DejaVuSans-62" d="M 3116 1747 
Q 3116 2381 2855 2742 
Q 2594 3103 2138 3103 
Q 1681 3103 1420 2742 
Q 1159 2381 1159 1747 
Q 1159 1113 1420 752 
Q 1681 391 2138 391 
Q 2594 391 2855 752 
Q 3116 1113 3116 1747 
z
M 1159 2969 
Q 1341 3281 1617 3432 
Q 1894 3584 2278 3584 
Q 2916 3584 3314 3078 
Q 3713 2572 3713 1747 
Q 3713 922 3314 415 
Q 2916 -91 2278 -91 
Q 1894 -91 1617 61 
Q 1341 213 1159 525 
L 1159 0 
L 581 0 
L 581 4863 
L 1159 4863 
L 1159 2969 
z
" transform="scale(0.015625)"/>
       <path id="DejaVuSans-72" d="M 2631 2963 
Q 2534 3019 2420 3045 
Q 2306 3072 2169 3072 
Q 1681 3072 1420 2755 
Q 1159 2438 1159 1844 
L 1159 0 
L 581 0 
L 581 3500 
L 1159 3500 
L 1159 2956 
Q 1341 3275 1631 3429 
Q 1922 3584 2338 3584 
Q 2397 3584 2469 3576 
Q 2541 3569 2628 3553 
L 2631 2963 
z
" transform="scale(0.015625)"/>
       <path id="DejaVuSans-20" transform="scale(0.015625)"/>
       <path id="DejaVuSans-28" d="M 1984 4856 
Q 1566 4138 1362 3434 
Q 1159 2731 1159 2009 
Q 1159 1288 1364 580 
Q 1569 -128 1984 -844 
L 1484 -844 
Q 1016 -109 783 600 
Q 550 1309 550 2009 
Q 550 2706 781 3412 
Q 1013 4119 1484 4856 
L 1984 4856 
z
" transform="scale(0.015625)"/>
       <path id="DejaVuSans-63" d="M 3122 3366 
L 3122 2828 
Q 2878 2963 2633 3030 
Q 2388 3097 2138 3097 
Q 1578 3097 1268 2742 
Q 959 2388 959 1747 
Q 959 1106 1268 751 
Q 1578 397 2138 397 
Q 2388 397 2633 464 
Q 2878 531 3122 666 
L 3122 134 
Q 2881 22 2623 -34 
Q 2366 -91 2075 -91 
Q 1284 -91 818 406 
Q 353 903 353 1747 
Q 353 2603 823 3093 
Q 1294 3584 2113 3584 
Q 2378 3584 2631 3529 
Q 2884 3475 3122 3366 
z
" transform="scale(0.015625)"/>
       <path id="DejaVuSans-2212" d="M 678 2272 
L 4684 2272 
L 4684 1741 
L 678 1741 
L 678 2272 
z
" transform="scale(0.015625)"/>
       <path id="DejaVuSans-29" d="M 513 4856 
L 1013 4856 
Q 1481 4119 1714 3412 
Q 1947 2706 1947 2009 
Q 1947 1309 1714 600 
Q 1481 -109 1013 -844 
L 513 -844 
Q 928 -128 1133 580 
Q 1338 1288 1338 2009 
Q 1338 2731 1133 3434 
Q 928 4138 513 4856 
z
" transform="scale(0.015625)"/>
      </defs>
      <use xlink:href="#DejaVuSans-57" transform="translate(0 0.684375)"/>
      <use xlink:href="#DejaVuSans-61" transform="translate(98.876953 0.684375)"/>
      <use xlink:href="#DejaVuSans-76" transform="translate(160.15625 0.684375)"/>
      <use xlink:href="#DejaVuSans-65" transform="translate(219.335938 0.684375)"/>
      <use xlink:href="#DejaVuSans-6e" transform="translate(280.859375 0.684375)"/>
      <use xlink:href="#DejaVuSans-75" transform="translate(344.238281 0.684375)"/>
      <use xlink:href="#DejaVuSans-6d" transform="translate(407.617188 0.684375)"/>
      <use xlink:href="#DejaVuSans-62" transform="translate(505.029297 0.684375)"/>
      <use xlink:href="#DejaVuSans-65" transform="translate(568.505859 0.684375)"/>
      <use xlink:href="#DejaVuSans-72" transform="translate(630.029297 0.684375)"/>
      <use xlink:href="#DejaVuSans-20" transform="translate(671.142578 0.684375)"/>
      <use xlink:href="#DejaVuSans-28" transform="translate(702.929688 0.684375)"/>
      <use xlink:href="#DejaVuSans-63" transform="translate(741.943359 0.684375)"/>
      <use xlink:href="#DejaVuSans-6d" transform="translate(796.923828 0.684375)"/>
      <use xlink:href="#DejaVuSans-2212" transform="translate(895.292969 38.965625) scale(0.7)"/>
      <use xlink:href="#DejaVuSans-31" transform="translate(953.945312 38.965625) scale(0.7)"/>
      <use xlink:href="#DejaVuSans-29" transform="translate(1001.21582 0.684375)"/>
     </g>
    </g>
   </g>
   <g id="matplotlib.axis_2">
    <g id="ytick_1">
     <g id="line2d_8">
      <path d="M 50.14375 283.651562 
L 849.32375 283.651562 
" clip-path="url(#p8776ae85d4)" style="fill: none; stroke: #b0b0b0; stroke-opacity: 0.3; stroke-width: 0.8; stroke-linecap: square"/>
     </g>
     <g id="line2d_9">
      <defs>
       <path id="m9a08f5bc51" d="M 0 0 
L -3.5 0 
" style="stroke: #000000; stroke-width: 0.8"/>
      </defs>
      <g>
       <use xlink:href="#m9a08f5bc51" x="50.14375" y="283.651562" style="stroke: #000000; stroke-width: 0.8"/>
      </g>
     </g>
     <g id="text_9">
      <!-- 0.00 -->
      <g transform="translate(20.878125 287.450781) scale(0.1 -0.1)">
       <defs>
        <path id="DejaVuSans-2e" d="M 684 794 
L 1344 794 
L 1344 0 
L 684 0 
L 684 794 
z
" transform="scale(0.015625)"/>
       </defs>
       <use xlink:href="#DejaVuSans-30"/>
       <use xlink:href="#DejaVuSans-2e" x="63.623047"/>
       <use xlink:href="#DejaVuSans-30" x="95.410156"/>
       <use xlink:href="#DejaVuSans-30" x="159.033203"/>
      </g>
     </g>
    </g>
    <g id="ytick_2">
     <g id="line2d_10">
      <path d="M 50.14375 249.347453 
L 849.32375 249.347453 
" clip-path="url(#p8776ae85d4)" style="fill: none; stroke: #b0b0b0; stroke-opacity: 0.3; stroke-width: 0.8; stroke-linecap: square"/>
     </g>
     <g id="line2d_11">
      <g>
       <use xlink:href="#m9a08f5bc51" x="50.14375" y="249.347453" style="stroke: #000000; stroke-width: 0.8"/>
      </g>
     </g>
     <g id="text_10">
      <!-- 0.05 -->
      <g transform="translate(20.878125 253.146672) scale(0.1 -0.1)">
       <use xlink:href="#DejaVuSans-30"/>
       <use xlink:href="#DejaVuSans-2e" x="63.623047"/>
       <use xlink:href="#DejaVuSans-30" x="95.410156"/>
       <use xlink:href="#DejaVuSans-35" x="159.033203"/>
      </g>
     </g>
    </g>
    <g id="ytick_3">
     <g id="line2d_12">
      <path d="M 50.14375 215.043344 
L 849.32375 215.043344 
" clip-path="url(#p8776ae85d4)" style="fill: none; stroke: #b0b0b0; stroke-opacity: 0.3; stroke-width: 0.8; stroke-linecap: square"/>
     </g>
     <g id="line2d_13">
      <g>
       <use xlink:href="#m9a08f5bc51" x="50.14375" y="215.043344" style="stroke: #000000; stroke-width: 0.8"/>
      </g>
     </g>
     <g id="text_11">
      <!-- 0.10 -->
      <g transform="translate(20.878125 218.842562) scale(0.1 -0.1)">
       <use xlink:href="#DejaVuSans-30"/>
       <use xlink:href="#DejaVuSans-2e" x="63.623047"/>
       <use xlink:href="#DejaVuSans-31" x="95.410156"/>
       <use xlink:href="#DejaVuSans-30" x="159.033203"/>
      </g>
     </g>
    </g>
    <g id="ytick_4">
     <g id="line2d_14">
      <path d="M 50.14375 180.739235 
L 849.32375 180.739235 
" clip-path="url(#p8776ae85d4)" style="fill: none; stroke: #b0b0b0; stroke-opacity: 0.3; stroke-width: 0.8; stroke-linecap: square"/>
     </g>
     <g id="line2d_15">
      <g>
       <use xlink:href="#m9a08f5bc51" x="50.14375" y="180.739235" style="stroke: #000000; stroke-width: 0.8"/>
      </g>
     </g>
     <g id="text_12">
      <!-- 0.15 -->
      <g transform="translate(20.878125 184.538453) scale(0.1 -0.1)">
       <use xlink:href="#DejaVuSans-30"/>
       <use xlink:href="#DejaVuSans-2e" x="63.623047"/>
       <use xlink:href="#DejaVuSans-31" x="95.410156"/>
       <use xlink:href="#DejaVuSans-35" x="159.033203"/>
      </g>
     </g>
    </g>
    <g id="ytick_5">
     <g id="line2d_16">
      <path d="M 50.14375 146.435126 
L 849.32375 146.435126 
" clip-path="url(#p8776ae85d4)" style="fill: none; stroke: #b0b0b0; stroke-opacity: 0.3; stroke-width: 0.8; stroke-linecap: square"/>
     </g>
     <g id="line2d_17">
      <g>
       <use xlink:href="#m9a08f5bc51" x="50.14375" y="146.435126" style="stroke: #000000; stroke-width: 0.8"/>
      </g>
     </g>
     <g id="text_13">
      <!-- 0.20 -->
      <g transform="translate(20.878125 150.234344) scale(0.1 -0.1)">
       <use xlink:href="#DejaVuSans-30"/>
       <use xlink:href="#DejaVuSans-2e" x="63.623047"/>
       <use xlink:href="#DejaVuSans-32" x="95.410156"/>
       <use xlink:href="#DejaVuSans-30" x="159.033203"/>
      </g>
     </g>
    </g>
    <g id="ytick_6">
     <g id="line2d_18">
      <path d="M 50.14375 112.131017 
L 849.32375 112.131017 
" clip-path="url(#p8776ae85d4)" style="fill: none; stroke: #b0b0b0; stroke-opacity: 0.3; stroke-width: 0.8; stroke-linecap: square"/>
     </g>
     <g id="line2d_19">
      <g>
       <use xlink:href="#m9a08f5bc51" x="50.14375" y="112.131017" style="stroke: #000000; stroke-width: 0.8"/>
      </g>
     </g>
     <g id="text_14">
      <!-- 0.25 -->
      <g transform="translate(20.878125 115.930235) scale(0.1 -0.1)">
       <use xlink:href="#DejaVuSans-30"/>
       <use xlink:href="#DejaVuSans-2e" x="63.623047"/>
       <use xlink:href="#DejaVuSans-32" x="95.410156"/>
       <use xlink:href="#DejaVuSans-35" x="159.033203"/>
      </g>
     </g>
    </g>
    <g id="ytick_7">
     <g id="line2d_20">
      <path d="M 50.14375 77.826907 
L 849.32375 77.826907 
" clip-path="url(#p8776ae85d4)" style="fill: none; stroke: #b0b0b0; stroke-opacity: 0.3; stroke-width: 0.8; stroke-linecap: square"/>
     </g>
     <g id="line2d_21">
      <g>
       <use xlink:href="#m9a08f5bc51" x="50.14375" y="77.826907" style="stroke: #000000; stroke-width: 0.8"/>
      </g>
     </g>
     <g id="text_15">
      <!-- 0.30 -->
      <g transform="translate(20.878125 81.626126) scale(0.1 -0.1)">
       <use xlink:href="#DejaVuSans-30"/>
       <use xlink:href="#DejaVuSans-2e" x="63.623047"/>
       <use xlink:href="#DejaVuSans-33" x="95.410156"/>
       <use xlink:href="#DejaVuSans-30" x="159.033203"/>
      </g>
     </g>
    </g>
    <g id="ytick_8">
     <g id="line2d_22">
      <path d="M 50.14375 43.522798 
L 849.32375 43.522798 
" clip-path="url(#p8776ae85d4)" style="fill: none; stroke: #b0b0b0; stroke-opacity: 0.3; stroke-width: 0.8; stroke-linecap: square"/>
     </g>
     <g id="line2d_23">
      <g>
       <use xlink:href="#m9a08f5bc51" x="50.14375" y="43.522798" style="stroke: #000000; stroke-width: 0.8"/>
      </g>
     </g>
     <g id="text_16">
      <!-- 0.35 -->
      <g transform="translate(20.878125 47.322017) scale(0.1 -0.1)">
       <use xlink:href="#DejaVuSans-30"/>
       <use xlink:href="#DejaVuSans-2e" x="63.623047"/>
       <use xlink:href="#DejaVuSans-33" x="95.410156"/>
       <use xlink:href="#DejaVuSans-35" x="159.033203"/>
      </g>
     </g>
    </g>
    <g id="text_17">
     <!-- Absorbance -->
     <g transform="translate(14.798438 195.429) rotate(-90) scale(0.1 -0.1)">
      <defs>
       <path id="DejaVuSans-41" d="M 2188 4044 
L 1331 1722 
L 3047 1722 
L 2188 4044 
z
M 1831 4666 
L 2547 4666 
L 4325 0 
L 3669 0 
L 3244 1197 
L 1141 1197 
L 716 0 
L 50 0 
L 1831 4666 
z
" transform="scale(0.015625)"/>
       <path id="DejaVuSans-73" d="M 2834 3397 
L 2834 2853 
Q 2591 2978 2328 3040 
Q 2066 3103 1784 3103 
Q 1356 3103 1142 2972 
Q 928 2841 928 2578 
Q 928 2378 1081 2264 
Q 1234 2150 1697 2047 
L 1894 2003 
Q 2506 1872 2764 1633 
Q 3022 1394 3022 966 
Q 3022 478 2636 193 
Q 2250 -91 1575 -91 
Q 1294 -91 989 -36 
Q 684 19 347 128 
L 347 722 
Q 666 556 975 473 
Q 1284 391 1588 391 
Q 1994 391 2212 530 
Q 2431 669 2431 922 
Q 2431 1156 2273 1281 
Q 2116 1406 1581 1522 
L 1381 1569 
Q 847 1681 609 1914 
Q 372 2147 372 2553 
Q 372 3047 722 3315 
Q 1072 3584 1716 3584 
Q 2034 3584 2315 3537 
Q 2597 3491 2834 3397 
z
" transform="scale(0.015625)"/>
       <path id="DejaVuSans-6f" d="M 1959 3097 
Q 1497 3097 1228 2736 
Q 959 2375 959 1747 
Q 959 1119 1226 758 
Q 1494 397 1959 397 
Q 2419 397 2687 759 
Q 2956 1122 2956 1747 
Q 2956 2369 2687 2733 
Q 2419 3097 1959 3097 
z
M 1959 3584 
Q 2709 3584 3137 3096 
Q 3566 2609 3566 1747 
Q 3566 888 3137 398 
Q 2709 -91 1959 -91 
Q 1206 -91 779 398 
Q 353 888 353 1747 
Q 353 2609 779 3096 
Q 1206 3584 1959 3584 
z
" transform="scale(0.015625)"/>
      </defs>
      <use xlink:href="#DejaVuSans-41"/>
      <use xlink:href="#DejaVuSans-62" x="68.408203"/>
      <use xlink:href="#DejaVuSans-73" x="131.884766"/>
      <use xlink:href="#DejaVuSans-6f" x="183.984375"/>
      <use xlink:href="#DejaVuSans-72" x="245.166016"/>
      <use xlink:href="#DejaVuSans-62" x="286.279297"/>
      <use xlink:href="#DejaVuSans-61" x="349.755859"/>
      <use xlink:href="#DejaVuSans-6e" x="411.035156"/>
      <use xlink:href="#DejaVuSans-63" x="474.414062"/>
      <use xlink:href="#DejaVuSans-65" x="529.394531"/>
     </g>
    </g>
   </g>
   <g id="line2d_24">
    <path d="M 849.301697 282.948328 
L 848.966667 283.515031 
L 848.85499 283.76751 
L 847.6265 291.592277 
L 847.514823 291.460549 
L 847.17977 290.744966 
L 846.956417 290.325083 
L 846.733063 290.330572 
L 846.509687 290.714092 
L 846.286333 291.63207 
L 845.839603 295.629871 
L 845.61625 296.394166 
L 845.504573 296.394852 
L 845.057843 296.031229 
L 844.946166 296.068963 
L 844.611113 294.951335 
L 844.276083 293.91741 
L 844.164406 293.700608 
L 844.052729 293.780193 
L 843.382646 292.555536 
L 843.047593 292.08557 
L 842.600863 290.69694 
L 841.707426 287.275448 
L 841.595749 287.347487 
L 841.372395 288.163924 
L 840.813989 290.941185 
L 840.255582 289.181384 
L 839.808852 289.916178 
L 839.585498 289.377604 
L 839.250445 288.365633 
L 839.027092 288.220183 
L 838.468685 288.11041 
L 838.021978 288.484325 
L 837.798601 288.199601 
L 837.463571 287.776288 
L 837.128518 287.946436 
L 836.793488 288.238707 
L 836.570111 288.917929 
L 836.123404 290.701056 
L 836.011728 290.800538 
L 835.788351 290.607063 
L 835.118268 289.798858 
L 834.894914 289.851 
L 834.559861 290.323025 
L 834.448184 290.264708 
L 834.224831 289.473655 
L 833.666424 286.690906 
L 833.331394 286.04393 
L 833.108017 285.958856 
L 832.884664 286.232603 
L 832.54961 286.679243 
L 832.326257 286.608576 
L 831.76785 285.975322 
L 831.321143 285.359906 
L 831.097767 285.337952 
L 830.316007 285.722844 
L 829.980976 286.048733 
L 829.7576 286.035011 
L 828.97584 285.530741 
L 828.305756 284.345877 
L 827.970726 284.324608 
L 827.523996 284.321178 
L 827.300642 284.076933 
L 826.853912 283.414863 
L 826.630559 283.467692 
L 826.295506 283.70439 
L 826.072152 283.587756 
L 825.402069 282.996353 
L 824.173579 282.361041 
L 823.950225 282.457093 
L 822.945088 283.367524 
L 822.833412 283.311951 
L 822.610058 282.563435 
L 822.386682 280.575169 
L 822.051651 276.69263 
L 821.939975 276.427116 
L 821.716598 278.101843 
L 821.269891 282.098958 
L 821.046515 282.643707 
L 820.823161 282.597054 
L 820.264754 282.295177 
L 819.706348 282.218336 
L 819.036264 282.365158 
L 818.366181 282.310271 
L 818.031151 282.533248 
L 817.472744 282.949014 
L 816.0209 283.257065 
L 815.57417 283.408003 
L 815.015763 283.540417 
L 814.01065 283.875225 
L 811.218639 283.805244 
L 810.660232 283.580209 
L 809.766772 283.54865 
L 809.208389 283.933542 
L 807.309815 283.642643 
L 805.857971 283.580209 
L 805.299565 283.326359 
L 804.182751 283.439562 
L 803.289314 283.757218 
L 800.94401 283.101324 
L 800.385604 283.157583 
L 799.71552 283.166502 
L 799.268813 282.903046 
L 798.822083 282.662917 
L 797.816946 282.425533 
L 796.47678 280.950456 
L 795.695019 280.027676 
L 794.913259 279.169387 
L 794.689906 279.156351 
L 794.354852 279.485671 
L 793.684769 280.677396 
L 793.014685 281.797082 
L 792.232925 282.748678 
L 791.562842 283.043007 
L 790.669405 283.225505 
L 789.999321 283.073195 
L 789.105861 283.340081 
L 788.659154 283.263925 
L 787.765694 282.97234 
L 785.308737 282.97234 
L 784.862007 282.926373 
L 784.191924 282.994295 
L 782.963433 282.988806 
L 782.29335 283.120534 
L 781.51159 282.995667 
L 780.618153 282.979201 
L 780.059746 282.765144 
L 778.272849 282.848846 
L 777.937819 282.707513 
L 777.491089 282.487966 
L 775.927568 282.307527 
L 775.369162 282.079061 
L 774.810755 281.788163 
L 773.917318 281.504811 
L 772.465474 280.549098 
L 771.683691 279.547418 
L 771.013608 278.355693 
L 770.008494 276.024386 
L 768.55665 272.234468 
L 768.10992 271.704813 
L 767.77489 271.634832 
L 767.439837 271.842715 
L 766.993107 272.46362 
L 765.987993 274.377789 
L 764.759503 276.814753 
L 763.977743 277.859656 
L 762.525899 279.268869 
L 761.855815 279.632492 
L 761.297409 279.965242 
L 760.627325 280.397474 
L 759.175482 280.602613 
L 758.617075 280.659557 
L 756.830178 281.049938 
L 755.936741 281.083556 
L 755.266657 281.053369 
L 754.149844 281.504125 
L 748.789176 282.057107 
L 747.560686 282.319876 
L 746.890602 282.339087 
L 745.438759 282.678011 
L 744.321922 282.634788 
L 743.540116 282.612833 
L 742.423348 282.782982 
L 741.529888 282.761713 
L 740.524775 282.703396 
L 739.966507 282.761027 
L 739.519661 282.735642 
L 738.961393 282.643021 
L 737.956048 282.634102 
L 736.951166 282.343203 
L 734.382439 282.115424 
L 728.686718 279.845864 
L 727.793258 279.11107 
L 727.234759 278.315215 
L 726.564837 276.726934 
L 726.006338 274.829231 
L 725.447839 271.979246 
L 724.777917 267.015441 
L 724.107764 261.998122 
L 723.884457 261.238629 
L 723.772804 261.137089 
L 723.66115 261.232454 
L 723.437611 261.991947 
L 723.102651 264.260821 
L 721.985883 272.799114 
L 721.427384 275.439158 
L 720.869116 277.093988 
L 720.198963 278.292574 
L 719.417157 279.154979 
L 718.858889 279.543302 
L 717.071969 280.398846 
L 716.178509 280.542923 
L 715.173395 280.641033 
L 714.503242 280.708955 
L 713.498129 280.618393 
L 712.493015 280.66779 
L 709.700981 280.404335 
L 705.233681 279.4596 
L 704.451874 279.005413 
L 703.558646 278.255525 
L 702.888493 277.47888 
L 701.436533 275.158551 
L 700.766612 273.490685 
L 699.984806 270.861618 
L 698.532846 265.709827 
L 698.086232 262.433098 
L 697.639386 257.537216 
L 697.081118 248.367041 
L 696.522619 234.485541 
L 696.076005 218.335166 
L 695.517505 188.966732 
L 694.177431 104.419453 
L 694.065777 103.707299 
L 693.954124 105.103477 
L 693.730585 113.917575 
L 693.283971 147.94039 
L 692.502164 209.754336 
L 691.943665 236.381186 
L 691.385397 252.171367 
L 690.826898 261.237943 
L 690.26863 266.452168 
L 689.710131 269.738501 
L 689.039978 272.424513 
L 688.370056 274.290657 
L 687.699903 275.544815 
L 686.471483 277.183179 
L 685.80133 277.771838 
L 684.461255 278.610916 
L 680.552454 280.051003 
L 679.658994 280.110006 
L 678.207035 279.894576 
L 677.313575 279.721683 
L 674.633194 278.667175 
L 674.074927 278.239746 
L 672.846506 277.100163 
L 671.729507 275.62097 
L 670.054472 272.987786 
L 669.161012 271.057151 
L 668.490859 269.039384 
L 667.93236 266.660051 
L 667.262438 262.837201 
L 666.703939 258.435983 
L 666.145671 252.120597 
L 665.587172 243.552803 
L 665.028672 231.582727 
L 664.470405 214.817623 
L 663.800252 187.23163 
L 662.906792 150.956407 
L 662.571831 143.973463 
L 662.236639 141.004785 
L 662.013331 140.393486 
L 661.901678 140.527958 
L 661.678371 141.789663 
L 661.343179 146.178531 
L 661.008218 154.480811 
L 660.226411 183.76966 
L 659.221298 221.221514 
L 658.551376 237.194879 
L 657.992877 246.494723 
L 657.322724 253.125707 
L 656.764456 256.65217 
L 656.094303 259.55567 
L 655.08919 262.511312 
L 654.642344 263.095168 
L 654.19573 263.319516 
L 653.525577 263.403218 
L 653.190616 263.225523 
L 652.632117 262.647842 
L 652.073849 261.762796 
L 651.515349 260.34192 
L 650.621889 257.142032 
L 649.840083 253.417978 
L 648.723316 247.952648 
L 648.276701 246.734166 
L 648.053394 246.541377 
L 647.718202 246.624393 
L 647.383241 246.962631 
L 646.936395 247.831211 
L 646.043167 249.863387 
L 645.484668 250.546724 
L 645.149707 250.669533 
L 644.256247 250.690116 
L 644.032708 250.978956 
L 643.139248 252.971339 
L 642.24602 256.556118 
L 641.575867 259.768355 
L 640.905714 263.128786 
L 638.672179 270.320985 
L 636.773606 273.793247 
L 636.32676 274.240573 
L 635.768492 274.682409 
L 634.763378 276.124554 
L 634.316532 276.420942 
L 633.534726 276.798973 
L 633.088112 276.960888 
L 632.529612 277.108396 
L 631.859691 277.591398 
L 631.189538 278.161532 
L 630.296078 278.470269 
L 629.737579 278.879174 
L 628.956004 278.890838 
L 627.95089 278.896326 
L 627.280737 279.515858 
L 626.275623 279.46303 
L 625.60547 279.159096 
L 624.935317 279.525464 
L 624.488703 279.472635 
L 623.595243 279.872621 
L 622.813437 279.753243 
L 622.366822 279.823223 
L 621.696669 279.749126 
L 621.250055 279.847922 
L 620.803209 279.621515 
L 620.356595 279.484985 
L 619.574789 279.832142 
L 618.792982 280.135391 
L 617.787869 279.731974 
L 617.452908 279.749126 
L 616.559448 279.481554 
L 616.224255 279.43147 
L 616.000948 279.380014 
L 615.777641 279.618771 
L 615.442681 280.369345 
L 615.219142 280.371403 
L 614.437567 279.765592 
L 613.767414 279.675716 
L 613.320568 279.658564 
L 612.650647 279.951521 
L 611.980494 279.880168 
L 611.087034 280.315144 
L 610.64042 280.30005 
L 610.08192 280.374147 
L 609.635074 280.285643 
L 607.40154 280.9779 
L 604.833045 281.121291 
L 604.274545 281.150792 
L 602.375972 280.835881 
L 602.041011 281.017006 
L 601.705819 280.889395 
L 600.812359 280.481862 
L 600.142437 280.462652 
L 598.020325 279.401283 
L 597.573711 279.808129 
L 597.23875 279.625632 
L 596.010098 278.837323 
L 595.563483 278.586903 
L 595.340176 278.523098 
L 594.893331 278.582787 
L 594.223178 278.165649 
L 593.888217 278.514178 
L 593.66491 278.699421 
L 593.441603 278.632185 
L 592.548143 278.06205 
L 592.324604 277.968743 
L 591.989643 277.461042 
L 591.654683 277.050079 
L 591.31949 276.861406 
L 590.761222 275.95715 
L 590.42603 275.331443 
L 589.756109 273.205961 
L 588.862649 270.620117 
L 588.080842 269.272651 
L 587.522343 269.088781 
L 586.740768 267.921756 
L 585.958961 264.80214 
L 585.512116 261.784751 
L 585.065501 257.633953 
L 584.395348 248.642846 
L 584.060388 240.453083 
L 583.166928 209.809223 
L 581.938507 121.815753 
L 581.1567 53.009257 
L 580.821508 38.02728 
L 580.598201 35.369398 
L 580.486547 35.4531 
L 580.374894 36.25513 
L 580.151587 40.812088 
L 579.928048 51.356485 
L 579.258127 104.234211 
L 578.253013 186.620331 
L 577.359553 224.135991 
L 576.801054 237.849401 
L 576.019247 249.838002 
L 575.572633 253.980566 
L 575.125787 257.839778 
L 574.790826 260.282231 
L 574.344212 261.270875 
L 573.674059 262.677343 
L 573.227213 263.227581 
L 573.003906 263.14731 
L 572.668945 262.920903 
L 572.2221 262.812502 
L 571.663832 262.142885 
L 571.440525 262.367234 
L 571.105332 263.233756 
L 570.435411 266.445993 
L 569.876912 269.348121 
L 569.430066 271.651984 
L 568.648491 274.379847 
L 568.201645 275.664193 
L 567.755031 276.379091 
L 567.196531 277.071348 
L 566.749917 277.607178 
L 566.414725 277.896704 
L 565.856457 278.730294 
L 565.186304 278.991692 
L 564.851344 279.055497 
L 564.516151 279.120675 
L 564.069537 279.328558 
L 563.511038 279.397166 
L 563.176077 279.484985 
L 562.617578 279.502137 
L 562.05931 279.585153 
L 561.724117 279.758732 
L 561.277503 280.012582 
L 559.937429 280.247908 
L 558.932084 280.972411 
L 557.815316 281.578908 
L 556.810203 282.03378 
L 556.363589 282.283514 
L 555.916743 282.485222 
L 555.470129 282.643707 
L 555.135168 282.778179 
L 553.794862 282.80425 
L 552.678095 283.292741 
L 551.784635 283.343511 
L 551.449674 283.35243 
L 551.002828 283.307149 
L 550.44456 283.379187 
L 549.5511 283.385362 
L 549.215908 283.518462 
L 548.545987 283.846409 
L 548.099141 283.879341 
L 547.540873 283.759277 
L 546.535759 284.091341 
L 546.200567 284.103004 
L 545.753953 284.066642 
L 545.195454 284.204544 
L 543.967033 284.028221 
L 543.520187 284.214835 
L 542.850266 284.149658 
L 542.40342 284.089282 
L 542.068459 284.133878 
L 541.398306 284.374692 
L 540.840038 284.437126 
L 540.169885 284.260117 
L 536.707699 284.466627 
L 536.261084 284.277955 
L 535.925892 284.153088 
L 535.479278 284.331469 
L 534.585818 284.813099 
L 533.915665 284.535922 
L 533.022205 284.609333 
L 532.24063 284.587378 
L 531.905438 284.579831 
L 531.570477 284.545527 
L 531.011978 284.781539 
L 530.565363 284.640892 
L 530.230403 284.933849 
L 529.89521 285.197991 
L 529.56025 285.236412 
L 529.113404 285.026471 
L 528.778443 284.910523 
L 528.331829 284.843973 
L 527.884983 284.730083 
L 527.326715 284.896801 
L 526.768216 284.814471 
L 525.204603 284.862497 
L 524.646335 285.338638 
L 523.864529 285.284437 
L 523.306029 285.248761 
L 522.971068 285.137616 
L 522.524223 284.88651 
L 521.854301 285.263169 
L 521.519109 285.619246 
L 521.184148 285.968461 
L 520.960841 285.880643 
L 520.513995 285.202108 
L 519.955728 284.349307 
L 519.73242 284.422032 
L 519.062268 284.852892 
L 518.727075 284.983933 
L 518.503768 284.871416 
L 518.057154 284.522886 
L 517.610308 284.368518 
L 517.275347 284.196997 
L 516.493541 284.125645 
L 516.15858 284.120156 
L 515.823388 284.129761 
L 515.376774 284.08448 
L 514.706621 284.332841 
L 514.148353 284.326667 
L 513.701507 284.147599 
L 513.143239 284.267664 
L 512.808047 284.179159 
L 512.138126 284.550329 
L 511.69128 284.408997 
L 511.133012 284.692349 
L 510.462859 285.329033 
L 510.127898 284.94071 
L 509.681053 284.558562 
L 509.234438 284.414485 
L 508.005786 284.720478 
L 507.670825 284.640892 
L 507.224211 284.495443 
L 506.218866 284.707442 
L 505.883905 284.7884 
L 505.325406 284.687546 
L 504.767138 284.389786 
L 504.096985 284.874846 
L 503.650371 284.813099 
L 503.315178 284.828193 
L 501.975104 284.190136 
L 501.416605 284.323922 
L 500.188184 284.342447 
L 499.74157 284.568168 
L 499.406378 284.427521 
L 498.624803 283.963043 
L 498.28961 284.045373 
L 497.95465 284.128389 
L 497.39615 284.099574 
L 496.391037 284.336958 
L 496.056076 284.18945 
L 495.60923 283.963729 
L 494.157502 283.764079 
L 493.040735 284.003522 
L 492.593889 284.142111 
L 490.918623 283.937658 
L 489.690202 283.937658 
L 488.908395 283.689982 
L 488.014935 283.8567 
L 487.456668 283.753788 
L 486.563207 283.743497 
L 484.329673 284.35411 
L 483.882827 284.529747 
L 483.547867 284.618252 
L 482.542753 284.372634 
L 481.984254 284.08448 
L 481.537639 284.144855 
L 481.090793 284.190822 
L 480.644179 284.124959 
L 480.308987 284.358913 
L 479.862373 284.646381 
L 479.415758 284.60796 
L 479.080566 284.558562 
L 478.857259 284.713617 
L 478.29876 285.291984 
L 477.740492 285.179467 
L 477.070339 285.5081 
L 476.735378 285.349615 
L 475.841918 284.631973 
L 475.283419 284.822704 
L 474.948458 284.691662 
L 474.389959 284.406938 
L 473.384845 284.570226 
L 472.156424 284.616879 
L 471.374618 285.088218 
L 470.928004 285.049797 
L 470.481158 285.312567 
L 470.257851 285.149965 
L 469.811005 284.608646 
L 469.476044 284.607274 
L 468.805891 284.603844 
L 467.57747 284.492699 
L 467.018971 284.244337 
L 466.014089 284.352052 
L 465.678897 284.370576 
L 465.008744 284.18602 
L 463.11017 284.5222 
L 462.663556 284.312259 
L 462.21671 284.236104 
L 461.435135 283.816908 
L 460.988289 283.884144 
L 460.430021 284.073502 
L 459.536561 283.698902 
L 458.419794 283.7236 
L 457.972948 283.567174 
L 457.191142 283.679005 
L 456.409335 283.855328 
L 455.962721 283.748299 
L 455.515875 283.591187 
L 454.510762 283.609711 
L 453.729187 283.252948 
L 453.059034 283.416922 
L 452.61242 283.499938 
L 451.830613 283.397711 
L 451.16046 283.597361 
L 450.713614 283.624805 
L 449.708501 283.374385 
L 449.150233 283.471808 
L 448.703387 283.304404 
L 448.256773 283.180909 
L 446.134892 283.204236 
L 445.576392 283.217958 
L 445.129778 283.146605 
L 444.682932 283.084172 
L 443.231205 283.370268 
L 441.555938 283.551394 
L 440.550824 283.603536 
L 439.434057 283.434074 
L 437.535483 283.558255 
L 433.738336 283.645387 
L 432.39803 283.56786 
L 431.839762 283.519148 
L 431.392916 283.412805 
L 430.499456 283.519148 
L 429.047729 283.631665 
L 428.600883 283.484158 
L 427.930961 283.794953 
L 427.372462 283.95481 
L 426.144041 283.779173 
L 425.362235 283.742125 
L 424.803735 283.720856 
L 424.02216 283.764079 
L 423.017047 283.728403 
L 422.23524 283.932169 
L 416.427866 283.891005 
L 415.757713 283.797697 
L 412.965679 283.912273 
L 411.178759 283.792209 
L 410.508606 283.856014 
L 409.615377 283.766138 
L 408.163418 283.833374 
L 407.381611 283.741439 
L 406.376498 283.868364 
L 405.483038 283.897179 
L 404.924538 283.896493 
L 403.584464 283.832688 
L 402.24439 283.910901 
L 401.68589 283.965101 
L 400.569123 283.772998 
L 399.229049 283.78672 
L 396.660322 283.633038 
L 394.650095 283.793581 
L 394.091595 283.729775 
L 393.533328 283.724287 
L 392.863175 283.693413 
L 392.304675 283.719484 
L 391.746407 283.816908 
L 390.406101 283.763393 
L 387.94926 283.598047 
L 387.167454 283.628235 
L 386.273993 283.623432 
L 385.715726 283.573348 
L 384.598727 283.624119 
L 383.370306 283.486216 
L 382.476846 283.527381 
L 380.466619 283.209725 
L 379.573159 283.040949 
L 376.222857 283.359291 
L 374.882551 283.381245 
L 373.65413 283.45397 
L 372.872324 283.443679 
L 371.643903 283.438876 
L 367.958409 283.292741 
L 366.059836 283.359977 
L 359.693962 283.502682 
L 357.348774 283.590501 
L 356.120353 283.559627 
L 352.658166 283.580895 
L 347.967559 283.651562 
L 345.845678 283.585012 
L 344.170411 283.584326 
L 343.276951 283.611083 
L 342.160184 283.582954 
L 338.586344 283.399084 
L 337.357923 283.394281 
L 335.571003 283.248832 
L 333.895968 283.053984 
L 328.981822 283.074567 
L 324.403099 283.082114 
L 320.829259 282.990179 
L 320.159106 282.92157 
L 319.488953 282.885894 
L 318.260532 283.125337 
L 316.250305 283.614513 
L 314.798346 283.543161 
L 313.234964 282.95313 
L 312.453158 282.872172 
L 311.894658 282.841299 
L 310.777891 282.586762 
L 310.10797 282.398776 
L 308.767664 281.973405 
L 305.863977 281.941845 
L 303.853749 281.956253 
L 302.40179 281.743567 
L 300.838408 281.680448 
L 298.939835 281.9638 
L 295.031034 280.947712 
L 294.02592 280.640347 
L 293.020806 280.468141 
L 292.462307 280.421487 
L 292.015693 280.118239 
L 291.010579 279.358746 
L 289.446966 278.330308 
L 288.776813 277.823294 
L 288.441853 277.845248 
L 287.660046 278.044212 
L 287.213432 277.847307 
L 286.208318 277.247671 
L 285.873126 277.378026 
L 285.314858 277.710776 
L 284.979666 277.655204 
L 284.421398 277.305302 
L 283.416284 276.326948 
L 282.299286 274.963703 
L 281.517711 274.375731 
L 281.070865 274.309867 
L 280.624251 274.525983 
L 280.065751 275.141398 
L 279.507483 276.064179 
L 278.390485 278.140264 
L 277.497256 279.26338 
L 276.827103 279.896634 
L 276.15695 280.223895 
L 275.375144 280.506561 
L 274.593337 280.87979 
L 272.136496 281.458843 
L 270.461229 281.655749 
L 269.791076 281.784046 
L 269.121155 281.850596 
L 268.562655 281.910285 
L 267.445888 282.187462 
L 264.20724 282.166194 
L 262.866934 282.318504 
L 261.303553 282.580588 
L 260.410093 282.678697 
L 258.28798 282.53462 
L 253.709258 282.93392 
L 252.927452 282.863939 
L 250.693917 283.059473 
L 250.023764 283.018308 
L 248.906997 283.328417 
L 247.343384 283.261867 
L 246.673231 283.390165 
L 245.668117 283.445051 
L 244.21639 283.506112 
L 243.099622 283.376443 
L 242.429469 283.518462 
L 241.647663 283.423783 
L 240.754203 283.565802 
L 239.414129 283.455342 
L 238.073823 283.626863 
L 237.180363 283.437504 
L 236.398788 283.5363 
L 235.840288 283.679691 
L 234.835175 283.558941 
L 234.053368 283.604908 
L 233.383215 283.519148 
L 232.601409 283.681063 
L 231.372988 283.474553 
L 230.703067 283.38742 
L 229.251107 283.609025 
L 221.656812 283.556882 
L 220.763352 283.5363 
L 219.981546 283.721542 
L 219.534931 283.716054 
L 218.864778 283.678319 
L 218.306511 283.630293 
L 217.636358 283.42241 
L 217.189743 283.580895 
L 216.742898 283.687924 
L 215.961091 283.650876 
L 215.402823 283.675575 
L 214.285824 283.54865 
L 212.05229 283.684494 
L 211.15883 283.708507 
L 210.600562 283.683808 
L 208.925296 283.550708 
L 208.143489 283.722914 
L 206.579876 283.63784 
L 206.133262 283.637154 
L 204.904841 283.449168 
L 204.346342 283.542475 
L 203.899728 283.615886 
L 203.229575 283.576093 
L 202.671075 283.635096 
L 201.889269 283.556196 
L 201.107694 283.632352 
L 198.538967 283.504054 
L 195.300319 283.462203 
L 194.18332 283.390165 
L 193.28986 283.394281 
L 192.843246 283.292055 
L 192.173093 283.327731 
L 190.721365 282.949014 
L 190.274519 282.920884 
L 187.817678 281.990557 
L 186.254065 281.765522 
L 185.472258 282.077689 
L 183.573685 282.819344 
L 182.903763 282.905104 
L 180.893536 283.10201 
L 180.000076 283.257065 
L 179.106616 282.91814 
L 177.877963 283.088288 
L 176.649543 283.025169 
L 175.421122 282.696535 
L 173.634202 283.020366 
L 172.964049 282.842671 
L 172.182474 282.855707 
L 171.735628 282.78161 
L 170.507207 282.969596 
L 169.837054 282.794645 
L 168.831941 282.956561 
L 168.161788 282.61695 
L 165.8166 282.527759 
L 165.369754 282.359669 
L 164.811486 282.4715 
L 163.806373 282.625183 
L 163.024566 282.568924 
L 162.24276 282.174427 
L 161.796145 282.377507 
L 161.237646 282.579901 
L 160.902685 282.48728 
L 160.232532 282.158647 
L 159.785918 282.377507 
L 159.339072 282.49963 
L 157.775459 282.580588 
L 156.881999 282.512665 
L 155.653578 282.336342 
L 154.425158 282.590879 
L 153.196737 282.363786 
L 152.526584 282.62038 
L 152.191623 282.382996 
L 151.856431 282.157961 
L 151.52147 282.253326 
L 151.074624 282.398776 
L 150.181164 282.189521 
L 149.39959 282.538737 
L 149.064397 282.505119 
L 148.394476 282.216964 
L 147.612669 282.492769 
L 146.942516 282.281456 
L 146.384249 282.270478 
L 145.714096 281.942531 
L 145.043943 282.196382 
L 144.597328 281.952822 
L 144.150483 281.671529 
L 143.927176 281.703088 
L 143.145369 282.061223 
L 142.475216 281.857457 
L 141.693641 282.021431 
L 141.135142 281.896564 
L 140.241682 282.328109 
L 139.795067 281.856085 
L 139.459875 281.578221 
L 139.124914 281.604293 
L 138.6783 282.042699 
L 138.343108 282.213534 
L 138.008147 281.952822 
L 137.672955 281.7518 
L 136.667841 281.725729 
L 136.221227 281.613898 
L 135.886266 281.880784 
L 135.327767 282.345947 
L 134.880921 282.404264 
L 134.099346 282.353494 
L 133.31754 282.708885 
L 132.42408 282.361041 
L 131.86558 282.600484 
L 131.195659 282.450918 
L 130.525506 282.923629 
L 129.408739 282.976457 
L 128.738586 283.339394 
L 128.403625 283.142489 
L 128.068665 282.958619 
L 127.845126 283.026541 
L 127.286858 283.348314 
L 126.951666 283.178165 
L 126.616705 283.048496 
L 124.829785 283.342825 
L 124.047978 283.591873 
L 123.601364 283.257751 
L 123.266172 283.065648 
L 122.931211 283.13357 
L 122.261058 283.442307 
L 121.814444 283.463575 
L 121.144291 283.718112 
L 119.91587 283.226877 
L 119.58091 283.328417 
L 119.02241 283.58707 
L 117.905643 283.467006 
L 117.123837 283.668714 
L 116.453684 283.960985 
L 115.895416 283.91982 
L 114.666995 283.497193 
L 113.996842 283.480041 
L 113.438343 283.446423 
L 112.880075 283.41898 
L 112.544883 283.427899 
L 111.316462 283.822396 
L 110.757962 283.526695 
L 109.641195 283.88483 
L 109.306235 283.58707 
L 108.971042 283.325673 
L 108.747735 283.41555 
L 108.189467 283.97059 
L 107.96616 283.848467 
L 107.407661 283.412805 
L 107.0727 283.547277 
L 106.625854 283.850526 
L 106.290894 283.737322 
L 105.955701 283.58364 
L 104.727281 283.551394 
L 104.280666 283.547963 
L 103.833821 283.854642 
L 103.387206 284.194253 
L 103.052014 284.122214 
L 102.6054 283.984998 
L 101.935247 284.044001 
L 101.265094 283.71674 
L 100.706826 283.90061 
L 99.813366 284.159949 
L 98.808252 284.25257 
L 98.361407 284.276583 
L 97.132986 284.093399 
L 96.574486 284.263547 
L 95.681258 284.118098 
L 94.787798 284.500245 
L 94.117645 284.016558 
L 93.112531 283.910215 
L 92.777571 283.771626 
L 92.330725 283.950008 
L 91.772457 284.08448 
L 90.878997 284.006266 
L 90.320498 284.232673 
L 89.873652 283.984312 
L 89.427038 283.728403 
L 89.092077 283.843665 
L 88.645231 284.070072 
L 87.751771 284.094771 
L 86.746657 284.234046 
L 86.300043 284.379495 
L 85.964851 284.148971 
L 85.518237 283.847095 
L 84.513123 283.875225 
L 84.178162 284.41723 
L 83.954624 284.697151 
L 83.731316 284.627857 
L 83.172817 284.191509 
L 82.502896 283.977451 
L 81.944396 283.606966 
L 81.497782 283.839548 
L 81.16259 283.893063 
L 80.604322 283.921192 
L 79.040709 284.509851 
L 78.705748 284.297165 
L 78.147249 283.788778 
L 77.812288 283.825827 
L 76.918828 284.131819 
L 76.137022 284.1229 
L 75.466869 284.039198 
L 74.908601 283.98637 
L 74.350101 283.90061 
L 73.679948 283.787406 
L 73.344988 283.8025 
L 73.010027 284.061839 
L 72.563181 284.41723 
L 72.339874 284.343133 
L 71.781606 283.929425 
L 71.446414 284.019302 
L 71.111453 284.106434 
L 70.776493 283.945205 
L 70.329647 283.662539 
L 69.994686 283.705076 
L 68.989573 284.120842 
L 68.096113 284.308142 
L 67.202652 284.063211 
L 66.644153 284.024104 
L 66.085885 283.963043 
L 65.080772 284.26835 
L 64.410619 284.200428 
L 63.628812 283.920506 
L 62.065199 284.076933 
L 61.506931 284.142111 
L 60.948432 284.317062 
L 60.501818 284.174356 
L 59.943318 284.044001 
L 58.044745 284.305398 
L 56.816324 284.158577 
L 55.587903 284.293049 
L 54.359251 284.159263 
L 53.689329 284.256 
L 53.019176 284.162693 
L 52.349024 284.145541 
L 51.008949 284.149658 
L 50.338796 284.126331 
L 50.115489 284.066642 
L 50.115489 284.066642 
" clip-path="url(#p8776ae85d4)" style="fill: none; stroke: #d95f5f; stroke-width: 0.8; stroke-linecap: square"/>
   </g>
   <g id="line2d_25">
    <path d="M 849.301697 244.848812 
L 848.85499 243.491741 
L 848.743314 243.667378 
L 848.631614 243.169969 
L 848.40826 243.255043 
L 848.07323 243.683844 
L 847.849854 243.486253 
L 847.6265 242.320599 
L 847.17977 238.746111 
L 846.956417 238.247329 
L 846.84474 238.379743 
L 846.39801 239.995467 
L 845.839603 243.314732 
L 845.61625 242.520935 
L 845.392896 241.613934 
L 845.281196 241.619423 
L 844.611113 243.517812 
L 844.38776 243.454693 
L 844.164406 243.685903 
L 843.941029 244.129798 
L 843.829353 244.205953 
L 843.717676 244.122937 
L 843.494323 243.462926 
L 842.824239 240.798869 
L 842.489186 239.971454 
L 841.930779 238.192443 
L 841.819102 238.13687 
L 841.595749 238.357788 
L 841.372395 238.57116 
L 841.149019 238.404442 
L 840.702312 237.426089 
L 840.478935 236.761275 
L 840.367259 236.694725 
L 840.143905 236.93554 
L 839.920529 237.186646 
L 839.697175 237.077559 
L 839.250445 236.568486 
L 839.138768 236.698156 
L 838.915415 237.581829 
L 838.468685 241.37312 
L 838.021978 244.607311 
L 837.686925 245.454622 
L 837.351895 245.963009 
L 837.016841 247.025751 
L 836.458435 248.812309 
L 836.235081 248.929629 
L 835.676674 248.753306 
L 835.453321 249.207492 
L 834.783237 251.106567 
L 834.671561 251.028354 
L 834.448184 250.353935 
L 833.666424 246.712211 
L 833.554747 246.6388 
L 833.331394 246.856974 
L 832.54961 247.94167 
L 832.326257 248.142692 
L 832.102904 247.965683 
L 831.544497 247.044275 
L 831.209443 246.98733 
L 830.98609 246.629881 
L 830.53936 245.85255 
L 830.316007 246.088562 
L 829.980976 247.127291 
L 829.42257 248.836322 
L 829.087516 249.117615 
L 828.752486 249.018133 
L 828.417433 248.572866 
L 828.082403 248.111133 
L 827.859026 248.121424 
L 827.523996 248.30255 
L 827.300642 248.199637 
L 826.407182 247.422992 
L 825.848776 247.160223 
L 825.513746 246.604496 
L 824.843662 244.905071 
L 823.726849 240.892862 
L 822.945088 239.237346 
L 822.610058 237.793143 
L 821.939975 233.260198 
L 821.828275 233.398786 
L 821.158191 235.71843 
L 820.934838 235.738327 
L 820.599808 235.428217 
L 820.153078 234.672841 
L 819.594671 233.218347 
L 819.147941 231.485303 
L 818.701234 228.891226 
L 817.026014 216.176751 
L 816.690984 211.441412 
L 816.35593 203.044452 
L 816.0209 189.221269 
L 814.904087 134.032818 
L 814.79241 133.75221 
L 814.680733 134.987844 
L 814.457357 141.238053 
L 812.78216 203.445124 
L 812.447106 206.851522 
L 812.335429 206.972273 
L 812.223753 206.603161 
L 812.000399 204.553833 
L 811.665346 198.922471 
L 810.995263 185.889654 
L 810.771909 184.733605 
L 810.660232 185.20906 
L 810.436856 188.276533 
L 809.990149 200.518984 
L 809.431742 215.625141 
L 808.985012 222.198495 
L 808.538305 225.291353 
L 808.091575 227.095749 
L 807.644845 228.081649 
L 807.198138 228.661389 
L 806.974762 228.736858 
L 806.751408 228.561907 
L 806.528055 228.040485 
L 806.304678 227.012047 
L 805.969648 224.234101 
L 804.741158 211.093569 
L 804.406104 210.255862 
L 804.182751 210.232535 
L 803.847698 210.417778 
L 803.736021 210.341623 
L 803.512668 209.597223 
L 803.289314 207.744115 
L 802.954261 202.564195 
L 802.395854 188.41375 
L 801.949147 178.262478 
L 801.725771 176.499247 
L 801.614094 176.724282 
L 801.39074 179.41441 
L 801.055687 187.866256 
L 799.938897 219.28539 
L 799.268813 230.295637 
L 798.710407 236.643269 
L 798.152 240.715167 
L 797.70527 242.571705 
L 797.146863 243.827236 
L 796.365103 244.941433 
L 796.030073 245.130106 
L 795.695019 245.112267 
L 795.359989 244.920164 
L 794.913259 244.315726 
L 794.243176 242.84751 
L 793.796446 242.014606 
L 793.573092 241.857494 
L 793.349739 241.892484 
L 792.679655 242.293842 
L 792.456279 242.167603 
L 792.121249 241.5762 
L 791.451165 240.129253 
L 791.227812 240.137486 
L 790.892758 240.614313 
L 790.334352 241.47466 
L 789.999321 241.617365 
L 789.552591 241.498673 
L 789.217561 241.182389 
L 788.882508 240.484643 
L 788.212424 238.259679 
L 787.654018 236.631606 
L 786.872257 234.891701 
L 786.537227 233.481116 
L 786.090497 230.504892 
L 785.643767 226.163364 
L 785.08536 218.390739 
L 784.526977 207.463508 
L 783.856893 188.948208 
L 782.29335 140.374962 
L 781.95832 136.456746 
L 781.846643 136.095181 
L 781.734943 136.267388 
L 781.51159 138.249479 
L 781.176559 144.64994 
L 780.506476 163.790947 
L 779.836393 181.474715 
L 779.389663 189.228816 
L 778.942932 193.235535 
L 778.607902 194.426574 
L 778.384526 194.471169 
L 778.049496 193.863987 
L 777.714442 193.34325 
L 777.602766 193.350797 
L 777.491089 193.518201 
L 777.267735 194.519881 
L 776.932682 198.029192 
L 776.374275 207.740685 
L 775.257485 228.605816 
L 774.587401 236.858699 
L 774.028995 241.244822 
L 773.470588 244.021397 
L 772.688828 246.863835 
L 772.130421 248.179055 
L 770.901931 250.098713 
L 770.008494 251.017377 
L 769.226734 251.503809 
L 768.444973 251.891445 
L 767.998243 251.991613 
L 767.32816 251.781672 
L 766.88143 251.449609 
L 764.982856 249.259634 
L 763.866066 247.60206 
L 763.642689 247.700169 
L 763.195982 248.349203 
L 762.637576 249.12036 
L 762.079169 249.481239 
L 761.520762 249.620513 
L 760.627325 249.440074 
L 759.957242 249.068217 
L 759.510512 248.680581 
L 758.728752 247.927949 
L 757.723638 247.250786 
L 756.495148 246.441209 
L 755.936741 245.572629 
L 754.819927 243.543198 
L 754.596574 243.517812 
L 754.261521 243.83341 
L 753.814814 244.693071 
L 752.921354 246.509817 
L 752.586324 246.789738 
L 752.139594 246.839822 
L 751.692887 246.771214 
L 751.357833 246.497467 
L 750.799427 245.714648 
L 750.017666 244.521551 
L 749.45926 244.063248 
L 749.124229 243.488997 
L 748.789176 242.47634 
L 748.007416 239.822574 
L 747.672363 239.475416 
L 747.337332 239.627727 
L 747.002279 239.749163 
L 746.778926 239.568037 
L 746.555572 238.98624 
L 746.332196 237.625053 
L 745.885489 232.283217 
L 745.662112 230.238006 
L 745.550435 229.986214 
L 745.438759 230.336802 
L 745.215405 232.505507 
L 744.656883 238.527937 
L 744.433576 239.343688 
L 744.210269 239.538536 
L 743.986961 239.380737 
L 743.651769 238.725528 
L 743.093501 236.973961 
L 742.535002 234.226201 
L 741.753195 229.044223 
L 740.859967 222.070197 
L 740.189814 214.642672 
L 739.519661 204.04476 
L 738.961393 195.301329 
L 738.737855 193.601903 
L 738.514547 193.227303 
L 738.067933 193.683547 
L 737.844394 193.316493 
L 737.39778 191.518958 
L 736.727627 188.038463 
L 736.16936 183.304496 
L 734.494093 168.065239 
L 733.935593 164.99159 
L 732.818826 160.301533 
L 732.483866 159.354053 
L 732.148673 159.039141 
L 731.702059 158.967789 
L 731.367098 159.162636 
L 730.696945 159.841857 
L 730.026793 161.07955 
L 729.021679 163.262663 
L 728.463411 163.740863 
L 728.016565 163.845147 
L 727.681605 164.324718 
L 727.234759 165.458812 
L 726.341299 168.457678 
L 726.117992 168.652525 
L 725.894684 168.530402 
L 725.671377 168.030934 
L 724.777917 165.479395 
L 724.666264 165.577505 
L 724.442725 166.507146 
L 724.107764 169.722127 
L 722.76769 185.490354 
L 722.097537 189.874419 
L 721.427384 192.836922 
L 721.092423 193.580635 
L 720.757463 193.748039 
L 720.533924 193.587496 
L 720.310617 193.122332 
L 719.975656 191.816031 
L 719.640464 189.769448 
L 719.305503 186.586713 
L 718.970543 181.670934 
L 718.523697 171.186912 
L 717.965429 157.870057 
L 717.74189 156.233065 
L 717.630237 156.389492 
L 717.40693 158.147921 
L 716.848662 163.740176 
L 716.290162 166.483819 
L 715.955202 171.207495 
L 714.614896 197.1661 
L 714.168282 200.936122 
L 713.833089 202.306914 
L 713.386475 203.137074 
L 713.051514 203.928812 
L 712.716322 205.816224 
L 711.264594 216.791481 
L 710.817748 218.159529 
L 710.594441 218.449742 
L 710.371134 218.357121 
L 710.147595 217.826779 
L 709.812635 216.187729 
L 709.030828 211.442784 
L 708.807521 211.159432 
L 708.695868 211.339872 
L 708.47256 212.43829 
L 708.137368 215.83028 
L 707.132255 227.667942 
L 706.68564 230.316219 
L 706.35068 231.383077 
L 706.015487 231.788552 
L 705.79218 231.76248 
L 704.787067 231.239686 
L 704.340221 231.637613 
L 703.1118 232.788859 
L 702.553532 233.365168 
L 702.106686 234.138383 
L 700.654959 237.235358 
L 700.096459 237.594179 
L 699.202999 237.965349 
L 698.868038 237.755408 
L 698.532846 237.207229 
L 698.086232 235.972281 
L 697.639386 233.829646 
L 697.081118 229.639742 
L 695.964351 220.47437 
L 695.740812 219.889142 
L 695.629159 219.869246 
L 695.405852 220.344015 
L 695.070891 222.154586 
L 693.730585 231.461976 
L 693.395624 232.049949 
L 693.172317 232.100719 
L 692.94901 231.962816 
L 692.725471 231.613601 
L 692.390511 230.627014 
L 690.938551 225.352415 
L 690.26863 223.438931 
L 689.821784 221.373824 
L 689.263516 217.631932 
L 688.705017 212.253047 
L 688.258403 205.600795 
L 687.253289 187.115682 
L 687.02975 186.538001 
L 686.806443 188.329362 
L 686.471483 194.440982 
L 685.689676 210.450023 
L 685.354715 213.292462 
L 684.684562 216.018266 
L 684.34937 219.847977 
L 683.344256 233.295874 
L 682.897642 236.259063 
L 682.339143 238.347497 
L 681.334029 241.316175 
L 680.552454 245.170584 
L 679.993955 247.417504 
L 679.658994 248.082317 
L 679.435455 248.211987 
L 679.212148 248.122796 
L 678.877188 247.677529 
L 678.207035 246.21686 
L 677.536882 244.948294 
L 676.978614 243.942497 
L 676.531768 242.518191 
L 676.085154 240.172476 
L 675.191694 234.818976 
L 675.08004 234.725669 
L 674.968387 234.886899 
L 674.744848 236.007957 
L 674.409887 239.3924 
L 673.516427 249.536125 
L 673.069813 252.190577 
L 672.622967 253.413862 
L 671.953046 254.41417 
L 671.617854 254.659101 
L 671.394546 254.581574 
L 671.171239 254.262546 
L 670.836047 253.290367 
L 670.389433 251.072263 
L 669.607626 246.841195 
L 669.384319 246.447383 
L 669.272666 246.457675 
L 669.049359 246.868638 
L 668.602513 248.673034 
L 668.044013 250.783423 
L 667.597399 251.658864 
L 666.927246 252.917824 
L 665.922132 255.037818 
L 665.252211 255.890619 
L 663.576945 257.472038 
L 661.901678 258.168411 
L 661.566717 257.886432 
L 660.673257 256.742733 
L 660.003104 256.208961 
L 658.997991 255.037132 
L 658.439491 253.658793 
L 657.992877 252.787469 
L 657.657916 252.527444 
L 657.322724 252.525385 
L 656.87611 252.849902 
L 654.865883 255.181896 
L 653.972422 256.62404 
L 652.855655 257.714225 
L 652.073849 258.160178 
L 651.403696 258.251427 
L 650.398582 258.239764 
L 649.840083 258.001007 
L 648.946854 257.532413 
L 647.718202 257.664141 
L 647.383241 257.304634 
L 647.048281 256.523186 
L 646.713088 254.940395 
L 646.378128 251.974461 
L 645.596321 243.19947 
L 645.484668 243.293464 
L 645.26136 244.824113 
L 644.702861 249.760474 
L 644.479554 250.516537 
L 644.256247 250.685313 
L 644.032708 250.439696 
L 642.58098 247.377711 
L 642.022481 245.918414 
L 641.799174 245.803838 
L 641.575867 246.054258 
L 641.129021 246.673104 
L 640.905714 246.56882 
L 640.570753 245.930077 
L 639.677293 243.305813 
L 638.895486 240.892862 
L 638.560526 240.699387 
L 638.002026 240.663025 
L 637.667066 240.794752 
L 637.108566 241.10692 
L 636.773606 241.1769 
L 636.550298 241.565909 
L 636.32676 242.474968 
L 635.991799 245.228215 
L 635.209993 253.510599 
L 634.763378 255.104368 
L 634.428186 255.577765 
L 634.204879 255.523565 
L 633.981572 255.202478 
L 633.646379 254.122585 
L 632.641497 250.013639 
L 632.529612 249.999917 
L 632.306305 250.545352 
L 631.971345 252.609087 
L 630.966231 260.363874 
L 630.184424 263.09997 
L 629.849464 263.709211 
L 629.290964 264.240925 
L 628.174197 264.750684 
L 627.504044 264.692367 
L 626.833891 265.466268 
L 626.387277 265.922512 
L 625.940663 266.030227 
L 625.493817 266.111871 
L 625.158856 266.530381 
L 624.823664 266.914587 
L 624.488703 266.939286 
L 624.153743 266.944775 
L 623.706897 266.98937 
L 623.371936 266.783545 
L 622.59013 266.093347 
L 622.143515 265.757166 
L 621.585016 264.850852 
L 621.13817 264.310219 
L 620.691556 264.079695 
L 620.468249 263.971981 
L 620.133056 263.446442 
L 619.798096 263.048514 
L 619.463135 263.126727 
L 618.681329 263.288643 
L 618.346368 263.169264 
L 617.229369 262.552477 
L 616.112602 262.167584 
L 615.665988 262.289707 
L 615.107488 262.989511 
L 614.549221 263.081446 
L 613.879068 263.703722 
L 613.097261 264.432342 
L 612.538993 265.149984 
L 612.092147 265.405892 
L 611.757187 265.331109 
L 611.310341 264.815862 
L 610.752073 263.770958 
L 610.193574 262.02831 
L 609.746959 260.964882 
L 609.523421 260.948416 
L 609.18846 261.465036 
L 608.853499 261.976854 
L 608.629961 262.034484 
L 607.848386 261.686641 
L 607.513193 262.258147 
L 607.066579 263.060863 
L 606.843272 263.161717 
L 606.50808 263.024501 
L 606.061466 262.581978 
L 605.056352 261.401231 
L 604.72116 261.406719 
L 604.386199 261.428674 
L 604.162892 261.183056 
L 603.8277 260.239693 
L 603.046125 257.548193 
L 602.93424 257.512517 
L 602.822586 257.631895 
L 602.599279 258.379039 
L 601.594165 263.380578 
L 601.147551 263.976783 
L 600.924012 264.035786 
L 600.589052 263.888279 
L 600.254091 263.508875 
L 599.918899 262.59913 
L 599.472284 260.394062 
L 598.578824 255.876211 
L 598.355517 255.491319 
L 598.13221 255.534542 
L 597.908671 256.032638 
L 596.010098 262.713706 
L 595.675137 263.422429 
L 595.340176 263.640603 
L 594.111524 263.921897 
L 593.888217 263.405963 
L 593.441603 262.164154 
L 592.436257 259.90763 
L 591.87799 257.61886 
L 591.207837 254.993223 
L 590.537915 252.705825 
L 589.53257 248.697047 
L 589.197609 248.279223 
L 588.974302 248.237372 
L 588.750995 248.392426 
L 588.415803 249.026366 
L 587.969189 250.331295 
L 586.405576 256.391459 
L 586.070615 256.897787 
L 585.623769 257.028829 
L 585.177155 256.930719 
L 584.730541 256.476533 
L 583.501888 255.126323 
L 583.278581 255.325287 
L 582.943621 256.208961 
L 582.496775 257.404802 
L 581.714968 258.129991 
L 581.491661 258.129991 
L 581.268354 257.963959 
L 580.933393 257.362265 
L 580.486547 255.914631 
L 579.928048 253.51746 
L 578.253013 244.962702 
L 577.806167 244.011792 
L 577.471207 243.6269 
L 577.247899 243.565838 
L 576.912707 243.716776 
L 576.242786 244.301318 
L 575.79594 244.558599 
L 575.349326 244.505085 
L 574.90248 244.093435 
L 574.455866 243.787443 
L 574.232559 243.862226 
L 574.00902 244.223105 
L 573.674059 245.508137 
L 573.11556 249.004412 
L 572.110446 257.600335 
L 571.105332 265.388054 
L 570.658718 267.648695 
L 570.100219 269.285001 
L 569.541951 270.487703 
L 568.313299 272.008747 
L 567.643377 272.371685 
L 566.079764 273.022777 
L 565.744804 273.260161 
L 561.277503 274.465608 
L 560.60735 274.499912 
L 560.049083 274.507459 
L 559.37893 274.526669 
L 558.597123 274.641931 
L 558.038855 274.542449 
L 555.916743 274.984286 
L 555.246821 274.805904 
L 553.906516 274.737982 
L 552.678095 275.168842 
L 549.662754 275.442589 
L 549.327562 275.334188 
L 548.992601 275.48787 
L 548.434333 275.794549 
L 547.987487 275.806898 
L 547.42922 275.737604 
L 546.423874 275.893345 
L 545.418761 275.915299 
L 544.972146 276.027817 
L 544.301993 275.880995 
L 543.743726 275.82062 
L 540.728385 275.724568 
L 540.169885 275.448763 
L 539.164772 275.536582 
L 538.606272 275.623714 
L 538.048005 275.702614 
L 537.377852 275.671054 
L 536.819352 275.599701 
L 536.149431 275.546187 
L 535.702585 275.771222 
L 535.032664 276.115635 
L 534.585818 276.197279 
L 533.915665 276.116321 
L 533.357397 276.200709 
L 532.128745 276.103972 
L 531.34717 276.298133 
L 530.900324 276.54375 
L 530.006864 276.528657 
L 529.448596 276.624708 
L 528.10829 276.514935 
L 527.77333 276.583543 
L 527.21483 276.890222 
L 524.869642 276.468281 
L 524.199489 276.604126 
L 522.971068 277.242182 
L 522.300916 277.125548 
L 521.630994 277.300499 
L 521.072495 277.783501 
L 520.849188 277.730673 
L 520.513995 277.368421 
L 520.067381 276.791426 
L 519.844074 276.783193 
L 519.173921 277.139956 
L 518.83896 276.834649 
L 517.9455 275.512569 
L 517.387001 275.747895 
L 516.605194 276.342728 
L 516.15858 276.295389 
L 515.600081 276.541692 
L 514.818274 276.403104 
L 514.37166 276.656268 
L 514.036699 276.79417 
L 513.589854 276.90463 
L 513.031586 277.277172 
L 512.58474 277.329315 
L 512.249779 277.453495 
L 512.02624 277.208564 
L 511.467973 276.330379 
L 511.244666 276.35302 
L 511.021127 276.615103 
L 510.574513 277.357444 
L 510.351206 277.321082 
L 509.90436 276.797601 
L 509.681053 276.870326 
L 509.346092 277.078208 
L 509.0109 276.971866 
L 508.564285 276.875814 
L 508.11744 277.100163 
L 507.782479 277.201703 
L 507.447518 276.938934 
L 507.112326 276.730365 
L 506.442405 276.767413 
L 505.660598 277.130351 
L 505.325406 276.769471 
L 504.878792 276.211687 
L 504.655484 276.254224 
L 504.208639 276.643918 
L 503.985331 276.545809 
L 503.538717 276.22678 
L 503.203525 276.374288 
L 502.756911 276.515621 
L 502.533604 276.393498 
L 501.751797 275.609993 
L 501.416605 275.817189 
L 500.858337 276.228839 
L 500.188184 276.338612 
L 499.518263 276.926584 
L 499.18307 276.761925 
L 498.401264 276.267945 
L 497.39615 276.193849 
L 496.726229 276.519051 
L 496.056076 276.581485 
L 495.385923 276.310482 
L 494.380809 276.29333 
L 493.934195 276.302936 
L 493.152389 276.798287 
L 492.258929 277.210622 
L 491.477122 277.154364 
L 490.472008 276.759866 
L 490.025394 276.75918 
L 489.466895 276.782507 
L 488.796742 276.694689 
L 488.014935 276.840138 
L 487.345014 276.652151 
L 486.674861 276.930701 
L 486.116593 277.35813 
L 485.334787 278.022258 
L 484.664634 278.444884 
L 483.65952 279.148118 
L 482.989367 279.321011 
L 482.654406 279.22496 
L 482.095907 279.010902 
L 481.202447 279.031484 
L 480.644179 279.065789 
L 480.308987 279.351885 
L 479.862373 279.810874 
L 479.52718 279.815676 
L 478.857259 279.480868 
L 478.522298 279.79921 
L 478.075453 280.219779 
L 477.293646 280.60124 
L 477.070339 280.415312 
L 476.735378 279.635923 
L 475.953572 277.035671 
L 475.618379 276.921096 
L 475.060112 276.794857 
L 474.501612 276.762611 
L 474.278305 276.988332 
L 473.608152 277.954335 
L 472.826346 277.97286 
L 472.044771 277.665495 
L 471.597925 277.749883 
L 470.034544 277.192098 
L 469.699351 277.20582 
L 469.364391 277.22503 
L 468.694238 276.945109 
L 467.912431 277.167399 
L 467.354163 277.249729 
L 466.68401 277.150247 
L 466.125511 277.131037 
L 465.567243 276.909432 
L 465.120629 276.78731 
L 464.338822 276.866895 
L 463.668669 276.747517 
L 462.886863 276.766727 
L 462.21671 276.483375 
L 461.32325 276.431233 
L 460.430021 276.796229 
L 459.983176 276.632941 
L 459.424676 276.473084 
L 459.089716 276.62265 
L 458.531448 276.947167 
L 458.084602 276.704294 
L 457.749641 276.646663 
L 456.297682 276.827788 
L 455.515875 276.584915 
L 454.622415 276.670676 
L 453.505648 276.418197 
L 452.94738 276.497783 
L 452.500534 276.530715 
L 451.383767 276.204826 
L 450.601961 276.363997 
L 447.251659 275.4371 
L 442.561052 275.891972 
L 441.332631 275.898147 
L 440.774131 276.024386 
L 439.880671 275.850807 
L 438.428944 275.550303 
L 437.870444 275.82062 
L 436.753677 276.438094 
L 436.083524 276.514249 
L 431.50457 276.897769 
L 430.946302 276.980099 
L 429.941189 276.938248 
L 429.382689 276.988332 
L 429.047729 277.043218 
L 428.377576 276.936189 
L 427.484116 277.248357 
L 427.037501 277.137212 
L 426.479002 277.004112 
L 425.809081 277.104966 
L 425.362235 277.1427 
L 424.580428 277.100163 
L 423.575315 277.100163 
L 422.681854 277.236007 
L 421.118241 277.439088 
L 420.44832 277.398609 
L 419.778167 277.37391 
L 419.219668 277.347153 
L 418.6614 277.286777 
L 417.432979 277.427424 
L 415.534406 277.234635 
L 414.529292 277.222972 
L 413.970792 277.225716 
L 413.077332 277.29158 
L 407.158304 276.944422 
L 405.706345 277.124176 
L 404.589578 277.081639 
L 403.919656 277.124176 
L 402.24439 277.019205 
L 401.35093 277.045277 
L 400.457469 276.880617 
L 398.335589 277.096733 
L 394.985055 276.899141 
L 394.203249 276.928643 
L 392.193022 276.821614 
L 391.634754 276.810636 
L 391.076254 276.822986 
L 390.406101 276.830533 
L 389.73618 276.707038 
L 389.177681 276.547181 
L 387.725953 276.641174 
L 387.0558 276.66999 
L 386.385647 276.634999 
L 385.26888 276.428489 
L 384.152113 276.464851 
L 383.593613 276.440152 
L 382.700153 276.452502 
L 381.695039 276.38801 
L 380.578272 276.431919 
L 378.568045 276.07447 
L 370.303597 275.465229 
L 369.075177 275.353398 
L 367.623449 275.318408 
L 366.618335 275.334874 
L 361.257575 275.438472 
L 360.475768 275.606562 
L 359.359001 275.825422 
L 358.353887 275.898147 
L 357.23712 276.008606 
L 355.785161 275.914613 
L 355.226893 275.9695 
L 354.109894 275.900891 
L 352.993127 275.944801 
L 351.87636 275.95715 
L 351.206438 275.889914 
L 350.424632 275.765047 
L 349.531172 275.806898 
L 348.637712 275.800723 
L 347.520944 275.728685 
L 345.957331 275.633319 
L 344.840564 275.63675 
L 343.053644 275.594213 
L 341.378377 275.599015 
L 340.373264 275.526291 
L 339.591457 275.537954 
L 338.921536 275.464543 
L 337.916422 275.489928 
L 335.571003 275.427495 
L 334.454236 275.260777 
L 333.784083 275.175703 
L 332.778969 274.965075 
L 328.200015 274.042295 
L 326.52498 273.527733 
L 325.408213 273.095501 
L 324.514753 272.633768 
L 322.727833 271.486639 
L 321.834373 270.606395 
L 320.940913 269.276082 
L 320.494298 268.161884 
L 319.712492 265.43951 
L 318.819032 261.449942 
L 318.260532 257.65385 
L 317.590379 250.989934 
L 317.143765 247.018204 
L 316.808805 245.66525 
L 316.585266 245.504706 
L 316.361959 245.673483 
L 315.915344 246.404846 
L 315.468499 247.622642 
L 313.569925 253.633408 
L 313.123311 254.317432 
L 312.788118 254.551386 
L 312.453158 254.553444 
L 311.448044 254.178157 
L 311.113083 254.55413 
L 310.44293 255.988042 
L 309.884431 256.986978 
L 309.54947 257.279249 
L 309.21451 257.303948 
L 308.65601 257.032945 
L 308.32105 256.657658 
L 307.874204 255.751344 
L 306.86909 252.936349 
L 305.193824 248.09055 
L 303.965403 244.697874 
L 303.518789 242.863976 
L 303.071943 240.090832 
L 301.731868 230.154304 
L 301.285023 229.413335 
L 300.950062 228.736858 
L 299.721641 225.643999 
L 299.498334 225.661152 
L 299.274795 226.031636 
L 298.939835 227.259037 
L 298.492989 229.966317 
L 296.594415 243.16105 
L 295.924494 246.18187 
L 295.365994 247.822292 
L 295.031034 248.332737 
L 294.807727 248.374588 
L 294.584188 248.197579 
L 294.249227 247.607548 
L 293.802381 246.260769 
L 293.13246 243.208389 
L 292.685614 241.532291 
L 292.350653 241.003321 
L 292.127346 240.988227 
L 291.904039 241.215321 
L 291.568847 242.007746 
L 291.122233 243.927404 
L 290.340426 248.747817 
L 289.00012 256.91837 
L 287.883353 262.306173 
L 287.325085 264.103022 
L 286.543279 265.744131 
L 285.873126 267.126586 
L 285.203205 268.723786 
L 284.533052 269.589621 
L 283.974552 270.01019 
L 282.187632 270.997462 
L 281.070865 271.319921 
L 279.172291 272.48283 
L 278.167177 272.848512 
L 276.71545 273.008369 
L 275.710336 272.853314 
L 275.151837 273.140097 
L 274.481684 273.451578 
L 273.588455 273.63339 
L 272.694995 273.446775 
L 270.126268 272.425199 
L 269.121155 272.444409 
L 267.445888 272.928097 
L 266.88762 272.677677 
L 265.547315 271.81733 
L 265.212354 271.951116 
L 264.653854 272.528798 
L 263.31378 273.917428 
L 262.643627 274.043667 
L 261.973474 274.084832 
L 260.856707 273.983292 
L 259.293326 274.270074 
L 258.28798 274.427873 
L 257.171213 274.494423 
L 256.1661 274.606254 
L 255.160986 274.595963 
L 254.490833 274.598021 
L 252.703913 274.539704 
L 252.145645 274.543821 
L 249.912111 274.097181 
L 249.241958 274.30575 
L 248.460151 274.324275 
L 248.013537 274.354462 
L 247.008423 274.166476 
L 246.114963 274.132858 
L 245.44481 274.133544 
L 244.663004 274.221362 
L 243.322929 274.010735 
L 242.876084 274.085518 
L 242.429469 274.157557 
L 241.089163 273.993583 
L 240.419242 274.03269 
L 239.637436 273.879007 
L 237.627208 274.001816 
L 236.286902 274.069738 
L 235.728635 274.311239 
L 234.388329 274.213129 
L 233.830061 274.187058 
L 233.494869 274.230281 
L 232.713294 274.480701 
L 231.484641 274.448455 
L 230.703067 274.541763 
L 230.144567 274.648791 
L 229.474414 274.715341 
L 228.804493 274.79973 
L 227.57584 274.786008 
L 226.794034 274.906072 
L 225.45396 275.070732 
L 224.5605 275.062499 
L 223.890578 275.040544 
L 223.108772 274.897839 
L 222.438619 274.834034 
L 221.545159 274.591161 
L 220.875006 274.580183 
L 218.529818 273.787758 
L 217.301397 272.852628 
L 216.519591 272.381976 
L 215.961091 271.995712 
L 215.179285 271.912696 
L 214.174171 271.979246 
L 213.615903 272.198792 
L 210.377024 274.044353 
L 207.026722 275.369864 
L 204.234688 275.92559 
L 203.788074 276.011351 
L 203.117921 276.051143 
L 200.99604 276.458676 
L 200.214234 276.429861 
L 199.767388 276.35645 
L 198.762274 276.451129 
L 198.204006 276.506016 
L 197.310546 276.865523 
L 196.640393 276.84151 
L 195.523626 276.859348 
L 194.965127 276.80995 
L 192.9549 277.093302 
L 190.944672 276.995879 
L 190.386405 277.153677 
L 189.604598 277.017147 
L 188.599484 277.208564 
L 188.152638 277.162597 
L 187.482486 277.253159 
L 186.924218 277.212681 
L 186.142411 277.279231 
L 185.360605 277.212681 
L 184.578798 277.303243 
L 183.68557 277.194156 
L 182.23361 277.378712 
L 181.451804 277.218855 
L 180.893536 277.251101 
L 179.776537 277.400667 
L 179.106616 277.332745 
L 178.65977 277.368421 
L 178.101502 277.303243 
L 177.096389 277.630505 
L 176.537889 277.550233 
L 175.421122 277.44389 
L 174.750969 277.470647 
L 173.745855 277.805456 
L 172.852395 277.657948 
L 172.182474 277.886413 
L 171.177129 277.764291 
L 170.395554 277.983151 
L 169.613747 277.955021 
L 169.055248 278.189662 
L 168.720287 278.024316 
L 168.273441 277.796537 
L 167.715174 277.856226 
L 166.821714 277.966685 
L 165.2581 277.830841 
L 164.811486 277.92552 
L 164.252987 278.083319 
L 162.466067 277.944044 
L 162.131106 277.946102 
L 161.014339 278.251409 
L 160.344186 278.004419 
L 159.339072 278.330995 
L 158.892458 278.373532 
L 157.775459 278.226024 
L 157.217191 278.218477 
L 156.770346 278.14095 
L 155.876886 278.318645 
L 155.430271 278.319331 
L 154.648465 278.531331 
L 153.866658 278.494968 
L 153.30839 278.528586 
L 152.749891 278.549169 
L 152.303277 278.580042 
L 151.633124 278.469583 
L 151.074624 278.538191 
L 150.29305 278.421557 
L 149.064397 278.714514 
L 148.506129 278.540936 
L 148.059284 278.805077 
L 147.612669 278.949155 
L 146.495902 278.848987 
L 146.049056 278.838695 
L 144.932289 278.658256 
L 144.37379 278.725492 
L 143.815522 278.685013 
L 143.145369 278.771459 
L 142.587101 278.643848 
L 142.140255 278.935433 
L 141.805295 279.067847 
L 141.358449 278.936805 
L 140.911835 278.785181 
L 140.576874 278.901129 
L 140.130028 279.070591 
L 139.795067 278.870941 
L 139.236568 278.517609 
L 138.901607 278.561518 
L 138.343108 278.835265 
L 137.561301 278.729608 
L 137.114687 278.858592 
L 136.556188 278.669919 
L 136.221227 278.663058 
L 135.439421 279.104209 
L 134.322653 279.019135 
L 133.31754 278.984831 
L 132.647387 278.599939 
L 132.42408 278.669233 
L 131.642273 279.253089 
L 130.97212 278.995808 
L 130.302199 279.093918 
L 129.632046 278.875744 
L 128.626932 279.299743 
L 128.068665 278.966307 
L 127.733472 279.14263 
L 127.398512 279.303173 
L 127.063319 279.159782 
L 126.728359 279.021879 
L 124.718131 279.170073 
L 124.159632 279.616026 
L 123.936325 279.542616 
L 123.266172 279.135769 
L 122.819558 279.306603 
L 122.372712 279.453425 
L 119.134064 279.286021 
L 118.12895 279.207808 
L 116.565337 279.550849 
L 115.671877 279.387561 
L 114.890302 279.137141 
L 114.443456 279.319639 
L 113.996842 279.439017 
L 113.438343 279.448622 
L 113.103382 279.463716 
L 111.986615 279.19683 
L 110.423002 279.180364 
L 109.864502 279.413632 
L 109.529542 279.371095 
L 108.747735 278.818113 
L 107.96616 279.154979 
L 107.407661 278.995808 
L 106.514201 279.175562 
L 105.955701 278.936805 
L 105.620741 279.152921 
L 105.174127 279.440389 
L 104.838934 279.315522 
L 104.280666 278.959446 
L 103.945474 279.138513 
L 103.387206 279.594072 
L 103.052014 279.535755 
L 102.717053 279.488415 
L 102.0469 279.686007 
L 101.600286 279.323069 
L 101.265094 279.153607 
L 100.81848 279.235937 
L 100.25998 279.572803 
L 99.813366 279.814304 
L 99.478405 279.734033 
L 99.03156 279.578292 
L 96.686372 279.841747 
L 96.016219 279.619457 
L 94.787798 279.725114 
L 94.340952 279.541243 
L 93.894338 279.673657 
L 93.447492 279.738149 
L 92.777571 279.610538 
L 92.107418 279.805385 
L 91.102304 279.635237 
L 90.432151 279.877424 
L 89.985537 279.550849 
L 89.538691 279.29837 
L 89.20373 279.379328 
L 88.533577 279.731288 
L 86.970196 279.769709 
L 86.411697 280.112064 
L 86.18839 280.050316 
L 85.294929 279.375212 
L 84.848084 279.244856 
L 84.624776 279.180364 
L 84.401469 279.367665 
L 83.954624 280.088051 
L 83.731316 280.027676 
L 83.284702 279.777942 
L 82.614549 279.698356 
L 81.944396 279.366979 
L 81.609436 279.474694 
L 81.050936 279.683262 
L 79.152362 279.902809 
L 78.817402 279.924763 
L 78.370788 279.604363 
L 78.035595 279.432843 
L 77.588981 279.582408 
L 76.471982 279.905553 
L 75.020254 279.74844 
L 74.126794 279.524091 
L 72.78672 279.898692 
L 72.451528 280.08119 
L 72.004914 279.99886 
L 71.446414 279.954951 
L 70.9998 279.915158 
L 70.10634 279.646214 
L 69.324533 279.945346 
L 68.877919 279.959068 
L 68.207766 280.178614 
L 67.872574 279.950835 
L 67.42596 279.69767 
L 66.5325 279.716194 
L 66.197539 279.607793 
L 65.862347 279.766278 
L 65.527386 279.928194 
L 65.192425 279.860272 
L 64.633926 279.735405 
L 63.852119 279.721683 
L 63.405505 279.736777 
L 62.177084 280.140193 
L 61.730238 279.922019 
L 61.395278 279.809502 
L 59.608358 279.974161 
L 57.933091 279.994744 
L 57.374823 279.775198 
L 57.039631 279.854097 
L 56.257824 280.165578 
L 54.694443 280.191649 
L 54.135944 279.955637 
L 51.679102 279.912414 
L 50.673989 280.031792 
L 50.115489 279.904181 
L 50.115489 279.904181 
" clip-path="url(#p8776ae85d4)" style="fill: none; stroke: #5b9bd5; stroke-width: 0.8; stroke-linecap: square"/>
   </g>
   <g id="patch_9">
    <path d="M 50.14375 309.446125 
L 50.14375 22.318125 
" style="fill: none; stroke: #000000; stroke-width: 0.8; stroke-linejoin: miter; stroke-linecap: square"/>
   </g>
   <g id="patch_10">
    <path d="M 50.14375 309.446125 
L 849.32375 309.446125 
" style="fill: none; stroke: #000000; stroke-width: 0.8; stroke-linejoin: miter; stroke-linecap: square"/>
   </g>
   <g id="text_18">
    <!-- O–H stretch -->
    <g style="fill: #555555" transform="translate(191.063139 76.331516) rotate(-90) scale(0.07 -0.07)">
     <defs>
      <path id="DejaVuSans-4f" d="M 2522 4238 
Q 1834 4238 1429 3725 
Q 1025 3213 1025 2328 
Q 1025 1447 1429 934 
Q 1834 422 2522 422 
Q 3209 422 3611 934 
Q 4013 1447 4013 2328 
Q 4013 3213 3611 3725 
Q 3209 4238 2522 4238 
z
M 2522 4750 
Q 3503 4750 4090 4092 
Q 4678 3434 4678 2328 
Q 4678 1225 4090 567 
Q 3503 -91 2522 -91 
Q 1538 -91 948 565 
Q 359 1222 359 2328 
Q 359 3434 948 4092 
Q 1538 4750 2522 4750 
z
" transform="scale(0.015625)"/>
      <path id="DejaVuSans-2013" d="M 313 1978 
L 2888 1978 
L 2888 1528 
L 313 1528 
L 313 1978 
z
" transform="scale(0.015625)"/>
      <path id="DejaVuSans-48" d="M 628 4666 
L 1259 4666 
L 1259 2753 
L 3553 2753 
L 3553 4666 
L 4184 4666 
L 4184 0 
L 3553 0 
L 3553 2222 
L 1259 2222 
L 1259 0 
L 628 0 
L 628 4666 
z
" transform="scale(0.015625)"/>
      <path id="DejaVuSans-74" d="M 1172 4494 
L 1172 3500 
L 2356 3500 
L 2356 3053 
L 1172 3053 
L 1172 1153 
Q 1172 725 1289 603 
Q 1406 481 1766 481 
L 2356 481 
L 2356 0 
L 1766 0 
Q 1100 0 847 248 
Q 594 497 594 1153 
L 594 3053 
L 172 3053 
L 172 3500 
L 594 3500 
L 594 4494 
L 1172 4494 
z
" transform="scale(0.015625)"/>
      <path id="DejaVuSans-68" d="M 3513 2113 
L 3513 0 
L 2938 0 
L 2938 2094 
Q 2938 2591 2744 2837 
Q 2550 3084 2163 3084 
Q 1697 3084 1428 2787 
Q 1159 2491 1159 1978 
L 1159 0 
L 581 0 
L 581 4863 
L 1159 4863 
L 1159 2956 
Q 1366 3272 1645 3428 
Q 1925 3584 2291 3584 
Q 2894 3584 3203 3211 
Q 3513 2838 3513 2113 
z
" transform="scale(0.015625)"/>
     </defs>
     <use xlink:href="#DejaVuSans-4f"/>
     <use xlink:href="#DejaVuSans-2013" x="78.710938"/>
     <use xlink:href="#DejaVuSans-48" x="128.710938"/>
     <use xlink:href="#DejaVuSans-20" x="203.90625"/>
     <use xlink:href="#DejaVuSans-73" x="235.693359"/>
     <use xlink:href="#DejaVuSans-74" x="287.792969"/>
     <use xlink:href="#DejaVuSans-72" x="327.001953"/>
     <use xlink:href="#DejaVuSans-65" x="365.865234"/>
     <use xlink:href="#DejaVuSans-74" x="427.388672"/>
     <use xlink:href="#DejaVuSans-63" x="466.597656"/>
     <use xlink:href="#DejaVuSans-68" x="521.578125"/>
    </g>
   </g>
   <g id="text_19">
    <!-- C–H stretch -->
    <g style="fill: #555555" transform="translate(301.095168 75.709172) rotate(-90) scale(0.07 -0.07)">
     <defs>
      <path id="DejaVuSans-43" d="M 4122 4306 
L 4122 3641 
Q 3803 3938 3442 4084 
Q 3081 4231 2675 4231 
Q 1875 4231 1450 3742 
Q 1025 3253 1025 2328 
Q 1025 1406 1450 917 
Q 1875 428 2675 428 
Q 3081 428 3442 575 
Q 3803 722 4122 1019 
L 4122 359 
Q 3791 134 3420 21 
Q 3050 -91 2638 -91 
Q 1578 -91 968 557 
Q 359 1206 359 2328 
Q 359 3453 968 4101 
Q 1578 4750 2638 4750 
Q 3056 4750 3426 4639 
Q 3797 4528 4122 4306 
z
" transform="scale(0.015625)"/>
     </defs>
     <use xlink:href="#DejaVuSans-43"/>
     <use xlink:href="#DejaVuSans-2013" x="69.824219"/>
     <use xlink:href="#DejaVuSans-48" x="119.824219"/>
     <use xlink:href="#DejaVuSans-20" x="195.019531"/>
     <use xlink:href="#DejaVuSans-73" x="226.806641"/>
     <use xlink:href="#DejaVuSans-74" x="278.90625"/>
     <use xlink:href="#DejaVuSans-72" x="318.115234"/>
     <use xlink:href="#DejaVuSans-65" x="356.978516"/>
     <use xlink:href="#DejaVuSans-74" x="418.501953"/>
     <use xlink:href="#DejaVuSans-63" x="457.710938"/>
     <use xlink:href="#DejaVuSans-68" x="512.691406"/>
    </g>
   </g>
   <g id="text_20">
    <!-- C=O stretch -->
    <g style="fill: #555555" transform="translate(581.387284 78.321047) rotate(-90) scale(0.07 -0.07)">
     <defs>
      <path id="DejaVuSans-3d" d="M 678 2906 
L 4684 2906 
L 4684 2381 
L 678 2381 
L 678 2906 
z
M 678 1631 
L 4684 1631 
L 4684 1100 
L 678 1100 
L 678 1631 
z
" transform="scale(0.015625)"/>
     </defs>
     <use xlink:href="#DejaVuSans-43"/>
     <use xlink:href="#DejaVuSans-3d" x="69.824219"/>
     <use xlink:href="#DejaVuSans-4f" x="153.613281"/>
     <use xlink:href="#DejaVuSans-20" x="232.324219"/>
     <use xlink:href="#DejaVuSans-73" x="264.111328"/>
     <use xlink:href="#DejaVuSans-74" x="316.210938"/>
     <use xlink:href="#DejaVuSans-72" x="355.419922"/>
     <use xlink:href="#DejaVuSans-65" x="394.283203"/>
     <use xlink:href="#DejaVuSans-74" x="455.806641"/>
     <use xlink:href="#DejaVuSans-63" x="495.015625"/>
     <use xlink:href="#DejaVuSans-68" x="549.996094"/>
    </g>
   </g>
   <g id="text_21">
    <!-- C=C stretch -->
    <g style="fill: #555555" transform="translate(598.760762 77.698703) rotate(-90) scale(0.07 -0.07)">
     <use xlink:href="#DejaVuSans-43"/>
     <use xlink:href="#DejaVuSans-3d" x="69.824219"/>
     <use xlink:href="#DejaVuSans-43" x="153.613281"/>
     <use xlink:href="#DejaVuSans-20" x="223.4375"/>
     <use xlink:href="#DejaVuSans-73" x="255.224609"/>
     <use xlink:href="#DejaVuSans-74" x="307.324219"/>
     <use xlink:href="#DejaVuSans-72" x="346.533203"/>
     <use xlink:href="#DejaVuSans-65" x="385.396484"/>
     <use xlink:href="#DejaVuSans-74" x="446.919922"/>
     <use xlink:href="#DejaVuSans-63" x="486.128906"/>
     <use xlink:href="#DejaVuSans-68" x="541.109375"/>
    </g>
   </g>
   <g id="text_22">
    <!-- C–H bend -->
    <g style="fill: #555555" transform="translate(650.881197 68.892922) rotate(-90) scale(0.07 -0.07)">
     <defs>
      <path id="DejaVuSans-64" d="M 2906 2969 
L 2906 4863 
L 3481 4863 
L 3481 0 
L 2906 0 
L 2906 525 
Q 2725 213 2448 61 
Q 2172 -91 1784 -91 
Q 1150 -91 751 415 
Q 353 922 353 1747 
Q 353 2572 751 3078 
Q 1150 3584 1784 3584 
Q 2172 3584 2448 3432 
Q 2725 3281 2906 2969 
z
M 947 1747 
Q 947 1113 1208 752 
Q 1469 391 1925 391 
Q 2381 391 2643 752 
Q 2906 1113 2906 1747 
Q 2906 2381 2643 2742 
Q 2381 3103 1925 3103 
Q 1469 3103 1208 2742 
Q 947 2381 947 1747 
z
" transform="scale(0.015625)"/>
     </defs>
     <use xlink:href="#DejaVuSans-43"/>
     <use xlink:href="#DejaVuSans-2013" x="69.824219"/>
     <use xlink:href="#DejaVuSans-48" x="119.824219"/>
     <use xlink:href="#DejaVuSans-20" x="195.019531"/>
     <use xlink:href="#DejaVuSans-62" x="226.806641"/>
     <use xlink:href="#DejaVuSans-65" x="290.283203"/>
     <use xlink:href="#DejaVuSans-6e" x="351.806641"/>
     <use xlink:href="#DejaVuSans-64" x="415.185547"/>
    </g>
   </g>
   <g id="text_23">
    <!-- C–O stretch -->
    <g style="fill: #555555" transform="translate(712.267486 75.955266) rotate(-90) scale(0.07 -0.07)">
     <use xlink:href="#DejaVuSans-43"/>
     <use xlink:href="#DejaVuSans-2013" x="69.824219"/>
     <use xlink:href="#DejaVuSans-4f" x="119.824219"/>
     <use xlink:href="#DejaVuSans-20" x="198.535156"/>
     <use xlink:href="#DejaVuSans-73" x="230.322266"/>
     <use xlink:href="#DejaVuSans-74" x="282.421875"/>
     <use xlink:href="#DejaVuSans-72" x="321.630859"/>
     <use xlink:href="#DejaVuSans-65" x="360.494141"/>
     <use xlink:href="#DejaVuSans-74" x="422.017578"/>
     <use xlink:href="#DejaVuSans-63" x="461.226562"/>
     <use xlink:href="#DejaVuSans-68" x="516.207031"/>
    </g>
   </g>
   <g id="text_24">
    <!-- Carbonyl (C=O) -->
    <g transform="translate(402.370313 16.318125) scale(0.12 -0.12)">
     <defs>
      <path id="DejaVuSans-79" d="M 2059 -325 
Q 1816 -950 1584 -1140 
Q 1353 -1331 966 -1331 
L 506 -1331 
L 506 -850 
L 844 -850 
Q 1081 -850 1212 -737 
Q 1344 -625 1503 -206 
L 1606 56 
L 191 3500 
L 800 3500 
L 1894 763 
L 2988 3500 
L 3597 3500 
L 2059 -325 
z
" transform="scale(0.015625)"/>
      <path id="DejaVuSans-6c" d="M 603 4863 
L 1178 4863 
L 1178 0 
L 603 0 
L 603 4863 
z
" transform="scale(0.015625)"/>
     </defs>
     <use xlink:href="#DejaVuSans-43"/>
     <use xlink:href="#DejaVuSans-61" x="69.824219"/>
     <use xlink:href="#DejaVuSans-72" x="131.103516"/>
     <use xlink:href="#DejaVuSans-62" x="172.216797"/>
     <use xlink:href="#DejaVuSans-6f" x="235.693359"/>
     <use xlink:href="#DejaVuSans-6e" x="296.875"/>
     <use xlink:href="#DejaVuSans-79" x="360.253906"/>
     <use xlink:href="#DejaVuSans-6c" x="419.433594"/>
     <use xlink:href="#DejaVuSans-20" x="447.216797"/>
     <use xlink:href="#DejaVuSans-28" x="479.003906"/>
     <use xlink:href="#DejaVuSans-43" x="518.017578"/>
     <use xlink:href="#DejaVuSans-3d" x="587.841797"/>
     <use xlink:href="#DejaVuSans-4f" x="671.630859"/>
     <use xlink:href="#DejaVuSans-29" x="750.341797"/>
    </g>
   </g>
   <g id="legend_1">
    <g id="patch_11">
     <path d="M 777.22625 52.203125 
L 843.72375 52.203125 
Q 845.32375 52.203125 845.32375 50.603125 
L 845.32375 27.918125 
Q 845.32375 26.318125 843.72375 26.318125 
L 777.22625 26.318125 
Q 775.62625 26.318125 775.62625 27.918125 
L 775.62625 50.603125 
Q 775.62625 52.203125 777.22625 52.203125 
z
" style="fill: #ffffff; opacity: 0.8; stroke: #cccccc; stroke-linejoin: miter"/>
    </g>
    <g id="line2d_26">
     <path d="M 778.82625 32.796875 
L 786.82625 32.796875 
L 794.82625 32.796875 
" style="fill: none; stroke: #d95f5f; stroke-width: 0.8; stroke-linecap: square"/>
    </g>
    <g id="text_25">
     <!-- acetone -->
     <g transform="translate(801.22625 35.596875) scale(0.08 -0.08)">
      <use xlink:href="#DejaVuSans-61"/>
      <use xlink:href="#DejaVuSans-63" x="61.279297"/>
      <use xlink:href="#DejaVuSans-65" x="116.259766"/>
      <use xlink:href="#DejaVuSans-74" x="177.783203"/>
      <use xlink:href="#DejaVuSans-6f" x="216.992188"/>
      <use xlink:href="#DejaVuSans-6e" x="278.173828"/>
      <use xlink:href="#DejaVuSans-65" x="341.552734"/>
     </g>
    </g>
    <g id="line2d_27">
     <path d="M 778.82625 44.539375 
L 786.82625 44.539375 
L 794.82625 44.539375 
" style="fill: none; stroke: #5b9bd5; stroke-width: 0.8; stroke-linecap: square"/>
    </g>
    <g id="text_26">
     <!-- sunscreen -->
     <g transform="translate(801.22625 47.339375) scale(0.08 -0.08)">
      <use xlink:href="#DejaVuSans-73"/>
      <use xlink:href="#DejaVuSans-75" x="52.099609"/>
      <use xlink:href="#DejaVuSans-6e" x="115.478516"/>
      <use xlink:href="#DejaVuSans-73" x="178.857422"/>
      <use xlink:href="#DejaVuSans-63" x="230.957031"/>
      <use xlink:href="#DejaVuSans-72" x="285.9375"/>
      <use xlink:href="#DejaVuSans-65" x="324.800781"/>
      <use xlink:href="#DejaVuSans-65" x="386.324219"/>
      <use xlink:href="#DejaVuSans-6e" x="447.847656"/>
     </g>
    </g>
   </g>
  </g>
 </g>
 <defs>
  <clipPath id="p8776ae85d4">
   <rect x="50.14375" y="22.318125" width="799.18" height="287.128"/>
  </clipPath>
 </defs>
</svg>
