<?xml version="1.0" encoding="utf-8" standalone="no"?>
<!DOCTYPE svg PUBLIC "-//W3C//DTD SVG 1.1//EN"
  "http://www.w3.org/Graphics/SVG/1.1/DTD/svg11.dtd">
<svg xmlns:xlink="http://www.w3.org/1999/xlink" width="856.517813pt" height="351.329562pt" viewBox="0 0 856.517813 351.329562" xmlns="http://www.w3.org/2000/svg" version="1.1">
 <metadata>
  <rdf:RDF xmlns:dc="http://purl.org/dc/elements/1.1/" xmlns:cc="http://creativecommons.org/ns#" xmlns:rdf="http://www.w3.org/1999/02/22-rdf-syntax-ns#">
   <cc:Work>
    <dc:type rdf:resource="http://purl.org/dc/dcmitype/StillImage"/>
    <dc:date>2026-04-05T21:34:19.334457</dc:date>
    <dc:format>image/svg+xml</dc:format>
    <dc:creator>
     <cc:Agent>
      <dc:title>Matplotlib v3.9.4, https://matplotlib.org/</dc:title>
     </cc:Agent>
    </dc:creator>
   </cc:Work>
  </rdf:RDF>
 </metadata>
 <defs>
  <style type="text/css">*{stroke-linejoin: round; stroke-linecap: butt}</style>
 </defs>
 <g id="figure_1">
  <g id="patch_1">
   <path d="M -0 351.329562 
L 856.517813 351.329562 
L 856.517813 0 
L -0 0 
z
" style="fill: #f6f8fa"/>
  </g>
  <g id="axes_1">
   <g id="patch_2">
    <path d="M 44.782813 312.94675 
L 849.317813 312.94675 
L 849.317813 21.5325 
L 44.782813 21.5325 
z
" style="fill: #f6f8fa"/>
   </g>
   <g id="patch_3">
    <path d="M 231.341653 312.94675 
L 138.062233 312.94675 
L 138.062233 21.5325 
L 231.341653 21.5325 
z
" clip-path="url(#p7e61a5a387)" style="fill: #cce5ff; opacity: 0.35; stroke: #cce5ff; stroke-linejoin: miter"/>
   </g>
   <g id="patch_4">
    <path d="M 312.961146 312.94675 
L 277.981363 312.94675 
L 277.981363 21.5325 
L 312.961146 21.5325 
z
" clip-path="url(#p7e61a5a387)" style="fill: #d4edda; opacity: 0.35; stroke: #d4edda; stroke-linejoin: miter"/>
   </g>
   <g id="patch_5">
    <path d="M 585.80345 312.94675 
L 569.479552 312.94675 
L 569.479552 21.5325 
L 585.80345 21.5325 
z
" clip-path="url(#p7e61a5a387)" style="fill: #f8d7da; opacity: 0.35; stroke: #f8d7da; stroke-linejoin: miter"/>
   </g>
   <g id="patch_6">
    <path d="M 604.459334 312.94675 
L 585.80345 312.94675 
L 585.80345 21.5325 
L 604.459334 21.5325 
z
" clip-path="url(#p7e61a5a387)" style="fill: #fff3cd; opacity: 0.35; stroke: #fff3cd; stroke-linejoin: miter"/>
   </g>
   <g id="patch_7">
    <path d="M 662.758972 312.94675 
L 632.44316 312.94675 
L 632.44316 21.5325 
L 662.758972 21.5325 
z
" clip-path="url(#p7e61a5a387)" style="fill: #fce4b8; opacity: 0.35; stroke: #fce4b8; stroke-linejoin: miter"/>
   </g>
   <g id="patch_8">
    <path d="M 744.378465 312.94675 
L 674.418899 312.94675 
L 674.418899 21.5325 
L 744.378465 21.5325 
z
" clip-path="url(#p7e61a5a387)" style="fill: #e2d9f3; opacity: 0.35; stroke: #e2d9f3; stroke-linejoin: miter"/>
   </g>
   <g id="matplotlib.axis_1">
    <g id="xtick_1">
     <g id="line2d_1">
      <defs>
       <path id="mb7540d2dac" d="M 0 0 
L 0 3.5 
" style="stroke: #000000; stroke-width: 0.8"/>
      </defs>
      <g>
       <use xlink:href="#mb7540d2dac" x="744.378465" y="312.94675" style="stroke: #000000; stroke-width: 0.8"/>
      </g>
     </g>
     <g id="text_1">
      <!-- 1,000 -->
      <g transform="translate(733.128465 326.8905) scale(0.1 -0.1)">
       <defs>
        <path id="TimesNewRomanPSMT-31" d="M 750 3822 
L 1781 4325 
L 1884 4325 
L 1884 747 
Q 1884 391 1914 303 
Q 1944 216 2037 169 
Q 2131 122 2419 116 
L 2419 0 
L 825 0 
L 825 116 
Q 1125 122 1212 167 
Q 1300 213 1334 289 
Q 1369 366 1369 747 
L 1369 3034 
Q 1369 3497 1338 3628 
Q 1316 3728 1258 3775 
Q 1200 3822 1119 3822 
Q 1003 3822 797 3725 
L 750 3822 
z
" transform="scale(0.015625)"/>
        <path id="TimesNewRomanPSMT-2c" d="M 344 -1066 
L 344 -928 
Q 666 -822 842 -598 
Q 1019 -375 1019 -125 
Q 1019 -66 991 -25 
Q 969 3 947 3 
Q 913 3 797 -59 
Q 741 -88 678 -88 
Q 525 -88 434 3 
Q 344 94 344 253 
Q 344 406 461 515 
Q 578 625 747 625 
Q 953 625 1114 445 
Q 1275 266 1275 -31 
Q 1275 -353 1051 -629 
Q 828 -906 344 -1066 
z
" transform="scale(0.015625)"/>
        <path id="TimesNewRomanPSMT-30" d="M 231 2094 
Q 231 2819 450 3342 
Q 669 3866 1031 4122 
Q 1313 4325 1613 4325 
Q 2100 4325 2488 3828 
Q 2972 3213 2972 2159 
Q 2972 1422 2759 906 
Q 2547 391 2217 158 
Q 1888 -75 1581 -75 
Q 975 -75 572 641 
Q 231 1244 231 2094 
z
M 844 2016 
Q 844 1141 1059 588 
Q 1238 122 1591 122 
Q 1759 122 1940 273 
Q 2122 425 2216 781 
Q 2359 1319 2359 2297 
Q 2359 3022 2209 3506 
Q 2097 3866 1919 4016 
Q 1791 4119 1609 4119 
Q 1397 4119 1231 3928 
Q 1006 3669 925 3112 
Q 844 2556 844 2016 
z
" transform="scale(0.015625)"/>
       </defs>
       <use xlink:href="#TimesNewRomanPSMT-31"/>
       <use xlink:href="#TimesNewRomanPSMT-2c" x="50"/>
       <use xlink:href="#TimesNewRomanPSMT-30" x="75"/>
       <use xlink:href="#TimesNewRomanPSMT-30" x="125"/>
       <use xlink:href="#TimesNewRomanPSMT-30" x="175"/>
      </g>
     </g>
    </g>
    <g id="xtick_2">
     <g id="line2d_2">
      <g>
       <use xlink:href="#mb7540d2dac" x="627.779189" y="312.94675" style="stroke: #000000; stroke-width: 0.8"/>
      </g>
     </g>
     <g id="text_2">
      <!-- 1,500 -->
      <g transform="translate(616.529189 326.8905) scale(0.1 -0.1)">
       <defs>
        <path id="TimesNewRomanPSMT-35" d="M 2778 4238 
L 2534 3706 
L 1259 3706 
L 981 3138 
Q 1809 3016 2294 2522 
Q 2709 2097 2709 1522 
Q 2709 1188 2573 903 
Q 2438 619 2231 419 
Q 2025 219 1772 97 
Q 1413 -75 1034 -75 
Q 653 -75 479 54 
Q 306 184 306 341 
Q 306 428 378 495 
Q 450 563 559 563 
Q 641 563 702 538 
Q 763 513 909 409 
Q 1144 247 1384 247 
Q 1750 247 2026 523 
Q 2303 800 2303 1197 
Q 2303 1581 2056 1914 
Q 1809 2247 1375 2428 
Q 1034 2569 447 2591 
L 1259 4238 
L 2778 4238 
z
" transform="scale(0.015625)"/>
       </defs>
       <use xlink:href="#TimesNewRomanPSMT-31"/>
       <use xlink:href="#TimesNewRomanPSMT-2c" x="50"/>
       <use xlink:href="#TimesNewRomanPSMT-35" x="75"/>
       <use xlink:href="#TimesNewRomanPSMT-30" x="125"/>
       <use xlink:href="#TimesNewRomanPSMT-30" x="175"/>
      </g>
     </g>
    </g>
    <g id="xtick_3">
     <g id="line2d_3">
      <g>
       <use xlink:href="#mb7540d2dac" x="511.179914" y="312.94675" style="stroke: #000000; stroke-width: 0.8"/>
      </g>
     </g>
     <g id="text_3">
      <!-- 2,000 -->
      <g transform="translate(499.929914 326.8905) scale(0.1 -0.1)">
       <defs>
        <path id="TimesNewRomanPSMT-32" d="M 2934 816 
L 2638 0 
L 138 0 
L 138 116 
Q 1241 1122 1691 1759 
Q 2141 2397 2141 2925 
Q 2141 3328 1894 3587 
Q 1647 3847 1303 3847 
Q 991 3847 742 3664 
Q 494 3481 375 3128 
L 259 3128 
Q 338 3706 661 4015 
Q 984 4325 1469 4325 
Q 1984 4325 2329 3994 
Q 2675 3663 2675 3213 
Q 2675 2891 2525 2569 
Q 2294 2063 1775 1497 
Q 997 647 803 472 
L 1909 472 
Q 2247 472 2383 497 
Q 2519 522 2628 598 
Q 2738 675 2819 816 
L 2934 816 
z
" transform="scale(0.015625)"/>
       </defs>
       <use xlink:href="#TimesNewRomanPSMT-32"/>
       <use xlink:href="#TimesNewRomanPSMT-2c" x="50"/>
       <use xlink:href="#TimesNewRomanPSMT-30" x="75"/>
       <use xlink:href="#TimesNewRomanPSMT-30" x="125"/>
       <use xlink:href="#TimesNewRomanPSMT-30" x="175"/>
      </g>
     </g>
    </g>
    <g id="xtick_4">
     <g id="line2d_4">
      <g>
       <use xlink:href="#mb7540d2dac" x="394.580639" y="312.94675" style="stroke: #000000; stroke-width: 0.8"/>
      </g>
     </g>
     <g id="text_4">
      <!-- 2,500 -->
      <g transform="translate(383.330639 326.8905) scale(0.1 -0.1)">
       <use xlink:href="#TimesNewRomanPSMT-32"/>
       <use xlink:href="#TimesNewRomanPSMT-2c" x="50"/>
       <use xlink:href="#TimesNewRomanPSMT-35" x="75"/>
       <use xlink:href="#TimesNewRomanPSMT-30" x="125"/>
       <use xlink:href="#TimesNewRomanPSMT-30" x="175"/>
      </g>
     </g>
    </g>
    <g id="xtick_5">
     <g id="line2d_5">
      <g>
       <use xlink:href="#mb7540d2dac" x="277.981363" y="312.94675" style="stroke: #000000; stroke-width: 0.8"/>
      </g>
     </g>
     <g id="text_5">
      <!-- 3,000 -->
      <g transform="translate(266.731363 326.8905) scale(0.1 -0.1)">
       <defs>
        <path id="TimesNewRomanPSMT-33" d="M 325 3431 
Q 506 3859 782 4092 
Q 1059 4325 1472 4325 
Q 1981 4325 2253 3994 
Q 2459 3747 2459 3466 
Q 2459 3003 1878 2509 
Q 2269 2356 2469 2072 
Q 2669 1788 2669 1403 
Q 2669 853 2319 450 
Q 1863 -75 997 -75 
Q 569 -75 414 31 
Q 259 138 259 259 
Q 259 350 332 419 
Q 406 488 509 488 
Q 588 488 669 463 
Q 722 447 909 348 
Q 1097 250 1169 231 
Q 1284 197 1416 197 
Q 1734 197 1970 444 
Q 2206 691 2206 1028 
Q 2206 1275 2097 1509 
Q 2016 1684 1919 1775 
Q 1784 1900 1550 2001 
Q 1316 2103 1072 2103 
L 972 2103 
L 972 2197 
Q 1219 2228 1467 2375 
Q 1716 2522 1828 2728 
Q 1941 2934 1941 3181 
Q 1941 3503 1739 3701 
Q 1538 3900 1238 3900 
Q 753 3900 428 3381 
L 325 3431 
z
" transform="scale(0.015625)"/>
       </defs>
       <use xlink:href="#TimesNewRomanPSMT-33"/>
       <use xlink:href="#TimesNewRomanPSMT-2c" x="50"/>
       <use xlink:href="#TimesNewRomanPSMT-30" x="75"/>
       <use xlink:href="#TimesNewRomanPSMT-30" x="125"/>
       <use xlink:href="#TimesNewRomanPSMT-30" x="175"/>
      </g>
     </g>
    </g>
    <g id="xtick_6">
     <g id="line2d_6">
      <g>
       <use xlink:href="#mb7540d2dac" x="161.382088" y="312.94675" style="stroke: #000000; stroke-width: 0.8"/>
      </g>
     </g>
     <g id="text_6">
      <!-- 3,500 -->
      <g transform="translate(150.132088 326.8905) scale(0.1 -0.1)">
       <use xlink:href="#TimesNewRomanPSMT-33"/>
       <use xlink:href="#TimesNewRomanPSMT-2c" x="50"/>
       <use xlink:href="#TimesNewRomanPSMT-35" x="75"/>
       <use xlink:href="#TimesNewRomanPSMT-30" x="125"/>
       <use xlink:href="#TimesNewRomanPSMT-30" x="175"/>
      </g>
     </g>
    </g>
    <g id="xtick_7">
     <g id="line2d_7">
      <g>
       <use xlink:href="#mb7540d2dac" x="44.782813" y="312.94675" style="stroke: #000000; stroke-width: 0.8"/>
      </g>
     </g>
     <g id="text_7">
      <!-- 4,000 -->
      <g transform="translate(33.532813 326.8905) scale(0.1 -0.1)">
       <defs>
        <path id="TimesNewRomanPSMT-34" d="M 2978 1563 
L 2978 1119 
L 2409 1119 
L 2409 0 
L 1894 0 
L 1894 1119 
L 100 1119 
L 100 1519 
L 2066 4325 
L 2409 4325 
L 2409 1563 
L 2978 1563 
z
M 1894 1563 
L 1894 3666 
L 406 1563 
L 1894 1563 
z
" transform="scale(0.015625)"/>
       </defs>
       <use xlink:href="#TimesNewRomanPSMT-34"/>
       <use xlink:href="#TimesNewRomanPSMT-2c" x="50"/>
       <use xlink:href="#TimesNewRomanPSMT-30" x="75"/>
       <use xlink:href="#TimesNewRomanPSMT-30" x="125"/>
       <use xlink:href="#TimesNewRomanPSMT-30" x="175"/>
      </g>
     </g>
    </g>
    <g id="text_8">
     <!-- Wavenumber (cm$^{-1}$) -->
     <g transform="translate(404.050313 341.929562) scale(0.1 -0.1)">
      <defs>
       <path id="TimesNewRomanPSMT-57" d="M 5991 4238 
L 5991 4122 
Q 5825 4122 5722 4062 
Q 5619 4003 5525 3841 
Q 5463 3731 5328 3319 
L 4147 -97 
L 4022 -97 
L 3056 2613 
L 2097 -97 
L 1984 -97 
L 725 3422 
Q 584 3816 547 3888 
Q 484 4006 376 4064 
Q 269 4122 84 4122 
L 84 4238 
L 1653 4238 
L 1653 4122 
L 1578 4122 
Q 1413 4122 1325 4047 
Q 1238 3972 1238 3866 
Q 1238 3756 1375 3363 
L 2209 984 
L 2913 3006 
L 2788 3363 
L 2688 3647 
Q 2622 3803 2541 3922 
Q 2500 3981 2441 4022 
Q 2363 4078 2284 4103 
Q 2225 4122 2097 4122 
L 2097 4238 
L 3747 4238 
L 3747 4122 
L 3634 4122 
Q 3459 4122 3378 4047 
Q 3297 3972 3297 3844 
Q 3297 3684 3438 3288 
L 4250 984 
L 5056 3319 
Q 5194 3706 5194 3856 
Q 5194 3928 5148 3990 
Q 5103 4053 5034 4078 
Q 4916 4122 4725 4122 
L 4725 4238 
L 5991 4238 
z
" transform="scale(0.015625)"/>
       <path id="TimesNewRomanPSMT-61" d="M 1822 413 
Q 1381 72 1269 19 
Q 1100 -59 909 -59 
Q 613 -59 420 144 
Q 228 347 228 678 
Q 228 888 322 1041 
Q 450 1253 767 1440 
Q 1084 1628 1822 1897 
L 1822 2009 
Q 1822 2438 1686 2597 
Q 1550 2756 1291 2756 
Q 1094 2756 978 2650 
Q 859 2544 859 2406 
L 866 2225 
Q 866 2081 792 2003 
Q 719 1925 600 1925 
Q 484 1925 411 2006 
Q 338 2088 338 2228 
Q 338 2497 613 2722 
Q 888 2947 1384 2947 
Q 1766 2947 2009 2819 
Q 2194 2722 2281 2516 
Q 2338 2381 2338 1966 
L 2338 994 
Q 2338 584 2353 492 
Q 2369 400 2405 369 
Q 2441 338 2488 338 
Q 2538 338 2575 359 
Q 2641 400 2828 588 
L 2828 413 
Q 2478 -56 2159 -56 
Q 2006 -56 1915 50 
Q 1825 156 1822 413 
z
M 1822 616 
L 1822 1706 
Q 1350 1519 1213 1441 
Q 966 1303 859 1153 
Q 753 1003 753 825 
Q 753 600 887 451 
Q 1022 303 1197 303 
Q 1434 303 1822 616 
z
" transform="scale(0.015625)"/>
       <path id="TimesNewRomanPSMT-76" d="M 53 2863 
L 1400 2863 
L 1400 2747 
L 1313 2747 
Q 1191 2747 1127 2687 
Q 1063 2628 1063 2528 
Q 1063 2419 1128 2269 
L 1794 688 
L 2463 2328 
Q 2534 2503 2534 2594 
Q 2534 2638 2509 2666 
Q 2475 2713 2422 2730 
Q 2369 2747 2206 2747 
L 2206 2863 
L 3141 2863 
L 3141 2747 
Q 2978 2734 2916 2681 
Q 2806 2588 2719 2369 
L 1703 -88 
L 1575 -88 
L 553 2328 
Q 484 2497 421 2570 
Q 359 2644 263 2694 
Q 209 2722 53 2747 
L 53 2863 
z
" transform="scale(0.015625)"/>
       <path id="TimesNewRomanPSMT-65" d="M 681 1784 
Q 678 1147 991 784 
Q 1303 422 1725 422 
Q 2006 422 2214 576 
Q 2422 731 2563 1106 
L 2659 1044 
Q 2594 616 2278 264 
Q 1963 -88 1488 -88 
Q 972 -88 605 314 
Q 238 716 238 1394 
Q 238 2128 614 2539 
Q 991 2950 1559 2950 
Q 2041 2950 2350 2633 
Q 2659 2316 2659 1784 
L 681 1784 
z
M 681 1966 
L 2006 1966 
Q 1991 2241 1941 2353 
Q 1863 2528 1708 2628 
Q 1553 2728 1384 2728 
Q 1125 2728 920 2526 
Q 716 2325 681 1966 
z
" transform="scale(0.015625)"/>
       <path id="TimesNewRomanPSMT-6e" d="M 1034 2341 
Q 1538 2947 1994 2947 
Q 2228 2947 2397 2830 
Q 2566 2713 2666 2444 
Q 2734 2256 2734 1869 
L 2734 647 
Q 2734 375 2778 278 
Q 2813 200 2889 156 
Q 2966 113 3172 113 
L 3172 0 
L 1756 0 
L 1756 113 
L 1816 113 
Q 2016 113 2095 173 
Q 2175 234 2206 353 
Q 2219 400 2219 647 
L 2219 1819 
Q 2219 2209 2117 2386 
Q 2016 2563 1775 2563 
Q 1403 2563 1034 2156 
L 1034 647 
Q 1034 356 1069 288 
Q 1113 197 1189 155 
Q 1266 113 1500 113 
L 1500 0 
L 84 0 
L 84 113 
L 147 113 
Q 366 113 442 223 
Q 519 334 519 647 
L 519 1709 
Q 519 2225 495 2337 
Q 472 2450 423 2490 
Q 375 2531 294 2531 
Q 206 2531 84 2484 
L 38 2597 
L 900 2947 
L 1034 2947 
L 1034 2341 
z
" transform="scale(0.015625)"/>
       <path id="TimesNewRomanPSMT-75" d="M 2709 2863 
L 2709 1128 
Q 2709 631 2732 520 
Q 2756 409 2807 365 
Q 2859 322 2928 322 
Q 3025 322 3147 375 
L 3191 266 
L 2334 -88 
L 2194 -88 
L 2194 519 
Q 1825 119 1631 15 
Q 1438 -88 1222 -88 
Q 981 -88 804 51 
Q 628 191 559 409 
Q 491 628 491 1028 
L 491 2306 
Q 491 2509 447 2587 
Q 403 2666 317 2708 
Q 231 2750 6 2747 
L 6 2863 
L 1009 2863 
L 1009 947 
Q 1009 547 1148 422 
Q 1288 297 1484 297 
Q 1619 297 1789 381 
Q 1959 466 2194 703 
L 2194 2325 
Q 2194 2569 2105 2655 
Q 2016 2741 1734 2747 
L 1734 2863 
L 2709 2863 
z
" transform="scale(0.015625)"/>
       <path id="TimesNewRomanPSMT-6d" d="M 1050 2338 
Q 1363 2650 1419 2697 
Q 1559 2816 1721 2881 
Q 1884 2947 2044 2947 
Q 2313 2947 2506 2790 
Q 2700 2634 2766 2338 
Q 3088 2713 3309 2830 
Q 3531 2947 3766 2947 
Q 3994 2947 4170 2830 
Q 4347 2713 4450 2447 
Q 4519 2266 4519 1878 
L 4519 647 
Q 4519 378 4559 278 
Q 4591 209 4675 161 
Q 4759 113 4950 113 
L 4950 0 
L 3538 0 
L 3538 113 
L 3597 113 
Q 3781 113 3884 184 
Q 3956 234 3988 344 
Q 4000 397 4000 647 
L 4000 1878 
Q 4000 2228 3916 2372 
Q 3794 2572 3525 2572 
Q 3359 2572 3192 2489 
Q 3025 2406 2788 2181 
L 2781 2147 
L 2788 2013 
L 2788 647 
Q 2788 353 2820 281 
Q 2853 209 2943 161 
Q 3034 113 3253 113 
L 3253 0 
L 1806 0 
L 1806 113 
Q 2044 113 2133 169 
Q 2222 225 2256 338 
Q 2272 391 2272 647 
L 2272 1878 
Q 2272 2228 2169 2381 
Q 2031 2581 1784 2581 
Q 1616 2581 1450 2491 
Q 1191 2353 1050 2181 
L 1050 647 
Q 1050 366 1089 281 
Q 1128 197 1204 155 
Q 1281 113 1516 113 
L 1516 0 
L 100 0 
L 100 113 
Q 297 113 375 155 
Q 453 197 493 289 
Q 534 381 534 647 
L 534 1741 
Q 534 2213 506 2350 
Q 484 2453 437 2492 
Q 391 2531 309 2531 
Q 222 2531 100 2484 
L 53 2597 
L 916 2947 
L 1050 2947 
L 1050 2338 
z
" transform="scale(0.015625)"/>
       <path id="TimesNewRomanPSMT-62" d="M 984 2369 
Q 1400 2947 1881 2947 
Q 2322 2947 2650 2570 
Q 2978 2194 2978 1541 
Q 2978 778 2472 313 
Q 2038 -88 1503 -88 
Q 1253 -88 995 3 
Q 738 94 469 275 
L 469 3241 
Q 469 3728 445 3840 
Q 422 3953 372 3993 
Q 322 4034 247 4034 
Q 159 4034 28 3984 
L -16 4094 
L 844 4444 
L 984 4444 
L 984 2369 
z
M 984 2169 
L 984 456 
Q 1144 300 1314 220 
Q 1484 141 1663 141 
Q 1947 141 2192 453 
Q 2438 766 2438 1363 
Q 2438 1913 2192 2208 
Q 1947 2503 1634 2503 
Q 1469 2503 1303 2419 
Q 1178 2356 984 2169 
z
" transform="scale(0.015625)"/>
       <path id="TimesNewRomanPSMT-72" d="M 1038 2947 
L 1038 2303 
Q 1397 2947 1775 2947 
Q 1947 2947 2059 2842 
Q 2172 2738 2172 2600 
Q 2172 2478 2090 2393 
Q 2009 2309 1897 2309 
Q 1788 2309 1652 2417 
Q 1516 2525 1450 2525 
Q 1394 2525 1328 2463 
Q 1188 2334 1038 2041 
L 1038 669 
Q 1038 431 1097 309 
Q 1138 225 1241 169 
Q 1344 113 1538 113 
L 1538 0 
L 72 0 
L 72 113 
Q 291 113 397 181 
Q 475 231 506 341 
Q 522 394 522 644 
L 522 1753 
Q 522 2253 501 2348 
Q 481 2444 426 2487 
Q 372 2531 291 2531 
Q 194 2531 72 2484 
L 41 2597 
L 906 2947 
L 1038 2947 
z
" transform="scale(0.015625)"/>
       <path id="TimesNewRomanPSMT-20" transform="scale(0.015625)"/>
       <path id="TimesNewRomanPSMT-28" d="M 1988 -1253 
L 1988 -1369 
Q 1516 -1131 1200 -813 
Q 750 -359 506 256 
Q 263 872 263 1534 
Q 263 2503 741 3301 
Q 1219 4100 1988 4444 
L 1988 4313 
Q 1603 4100 1356 3731 
Q 1109 3363 987 2797 
Q 866 2231 866 1616 
Q 866 947 969 400 
Q 1050 -31 1165 -292 
Q 1281 -553 1476 -793 
Q 1672 -1034 1988 -1253 
z
" transform="scale(0.015625)"/>
       <path id="TimesNewRomanPSMT-63" d="M 2631 1088 
Q 2516 522 2178 217 
Q 1841 -88 1431 -88 
Q 944 -88 581 321 
Q 219 731 219 1428 
Q 219 2103 620 2525 
Q 1022 2947 1584 2947 
Q 2006 2947 2278 2723 
Q 2550 2500 2550 2259 
Q 2550 2141 2473 2067 
Q 2397 1994 2259 1994 
Q 2075 1994 1981 2113 
Q 1928 2178 1911 2362 
Q 1894 2547 1784 2644 
Q 1675 2738 1481 2738 
Q 1169 2738 978 2506 
Q 725 2200 725 1697 
Q 725 1184 976 792 
Q 1228 400 1656 400 
Q 1963 400 2206 609 
Q 2378 753 2541 1131 
L 2631 1088 
z
" transform="scale(0.015625)"/>
       <path id="DejaVuSerif-2212" d="M 678 2259 
L 4684 2259 
L 4684 1753 
L 678 1753 
L 678 2259 
z
" transform="scale(0.015625)"/>
       <path id="DejaVuSerif-31" d="M 909 0 
L 909 331 
L 1722 331 
L 1722 4213 
L 781 3603 
L 781 4013 
L 1919 4750 
L 2350 4750 
L 2350 331 
L 3163 331 
L 3163 0 
L 909 0 
z
" transform="scale(0.015625)"/>
       <path id="TimesNewRomanPSMT-29" d="M 144 4313 
L 144 4444 
Q 619 4209 934 3891 
Q 1381 3434 1625 2820 
Q 1869 2206 1869 1541 
Q 1869 572 1392 -226 
Q 916 -1025 144 -1369 
L 144 -1253 
Q 528 -1038 776 -670 
Q 1025 -303 1145 264 
Q 1266 831 1266 1447 
Q 1266 2113 1163 2663 
Q 1084 3094 967 3353 
Q 850 3613 656 3853 
Q 463 4094 144 4313 
z
" transform="scale(0.015625)"/>
      </defs>
      <use xlink:href="#TimesNewRomanPSMT-57" transform="translate(0 0.7125)"/>
      <use xlink:href="#TimesNewRomanPSMT-61" transform="translate(94.384766 0.7125)"/>
      <use xlink:href="#TimesNewRomanPSMT-76" transform="translate(138.769531 0.7125)"/>
      <use xlink:href="#TimesNewRomanPSMT-65" transform="translate(188.769531 0.7125)"/>
      <use xlink:href="#TimesNewRomanPSMT-6e" transform="translate(233.154297 0.7125)"/>
      <use xlink:href="#TimesNewRomanPSMT-75" transform="translate(283.154297 0.7125)"/>
      <use xlink:href="#TimesNewRomanPSMT-6d" transform="translate(333.154297 0.7125)"/>
      <use xlink:href="#TimesNewRomanPSMT-62" transform="translate(410.9375 0.7125)"/>
      <use xlink:href="#TimesNewRomanPSMT-65" transform="translate(460.9375 0.7125)"/>
      <use xlink:href="#TimesNewRomanPSMT-72" transform="translate(505.322266 0.7125)"/>
      <use xlink:href="#TimesNewRomanPSMT-20" transform="translate(538.623047 0.7125)"/>
      <use xlink:href="#TimesNewRomanPSMT-28" transform="translate(563.623047 0.7125)"/>
      <use xlink:href="#TimesNewRomanPSMT-63" transform="translate(596.923828 0.7125)"/>
      <use xlink:href="#TimesNewRomanPSMT-6d" transform="translate(641.308594 0.7125)"/>
      <use xlink:href="#DejaVuSerif-2212" transform="translate(720.000156 37.046875) scale(0.7)"/>
      <use xlink:href="#DejaVuSerif-31" transform="translate(778.6525 37.046875) scale(0.7)"/>
      <use xlink:href="#TimesNewRomanPSMT-29" transform="translate(825.783945 0.7125)"/>
     </g>
    </g>
   </g>
   <g id="matplotlib.axis_2">
    <g id="ytick_1">
     <g id="line2d_8">
      <path d="M 44.782813 288.29816 
L 849.317813 288.29816 
" clip-path="url(#p7e61a5a387)" style="fill: none; stroke: #b0b0b0; stroke-opacity: 0.3; stroke-width: 0.8; stroke-linecap: square"/>
     </g>
     <g id="line2d_9">
      <defs>
       <path id="m9894a6427c" d="M 0 0 
L -3.5 0 
" style="stroke: #000000; stroke-width: 0.8"/>
      </defs>
      <g>
       <use xlink:href="#m9894a6427c" x="44.782813" y="288.29816" style="stroke: #000000; stroke-width: 0.8"/>
      </g>
     </g>
     <g id="text_9">
      <!-- 0.00 -->
      <g transform="translate(20.282813 291.770035) scale(0.1 -0.1)">
       <defs>
        <path id="TimesNewRomanPSMT-2e" d="M 800 606 
Q 947 606 1047 504 
Q 1147 403 1147 259 
Q 1147 116 1045 14 
Q 944 -88 800 -88 
Q 656 -88 554 14 
Q 453 116 453 259 
Q 453 406 554 506 
Q 656 606 800 606 
z
" transform="scale(0.015625)"/>
       </defs>
       <use xlink:href="#TimesNewRomanPSMT-30"/>
       <use xlink:href="#TimesNewRomanPSMT-2e" x="50"/>
       <use xlink:href="#TimesNewRomanPSMT-30" x="75"/>
       <use xlink:href="#TimesNewRomanPSMT-30" x="125"/>
      </g>
     </g>
    </g>
    <g id="ytick_2">
     <g id="line2d_10">
      <path d="M 44.782813 252.081391 
L 849.317813 252.081391 
" clip-path="url(#p7e61a5a387)" style="fill: none; stroke: #b0b0b0; stroke-opacity: 0.3; stroke-width: 0.8; stroke-linecap: square"/>
     </g>
     <g id="line2d_11">
      <g>
       <use xlink:href="#m9894a6427c" x="44.782813" y="252.081391" style="stroke: #000000; stroke-width: 0.8"/>
      </g>
     </g>
     <g id="text_10">
      <!-- 0.05 -->
      <g transform="translate(20.282813 255.553266) scale(0.1 -0.1)">
       <use xlink:href="#TimesNewRomanPSMT-30"/>
       <use xlink:href="#TimesNewRomanPSMT-2e" x="50"/>
       <use xlink:href="#TimesNewRomanPSMT-30" x="75"/>
       <use xlink:href="#TimesNewRomanPSMT-35" x="125"/>
      </g>
     </g>
    </g>
    <g id="ytick_3">
     <g id="line2d_12">
      <path d="M 44.782813 215.864622 
L 849.317813 215.864622 
" clip-path="url(#p7e61a5a387)" style="fill: none; stroke: #b0b0b0; stroke-opacity: 0.3; stroke-width: 0.8; stroke-linecap: square"/>
     </g>
     <g id="line2d_13">
      <g>
       <use xlink:href="#m9894a6427c" x="44.782813" y="215.864622" style="stroke: #000000; stroke-width: 0.8"/>
      </g>
     </g>
     <g id="text_11">
      <!-- 0.10 -->
      <g transform="translate(20.282813 219.336497) scale(0.1 -0.1)">
       <use xlink:href="#TimesNewRomanPSMT-30"/>
       <use xlink:href="#TimesNewRomanPSMT-2e" x="50"/>
       <use xlink:href="#TimesNewRomanPSMT-31" x="75"/>
       <use xlink:href="#TimesNewRomanPSMT-30" x="125"/>
      </g>
     </g>
    </g>
    <g id="ytick_4">
     <g id="line2d_14">
      <path d="M 44.782813 179.647852 
L 849.317813 179.647852 
" clip-path="url(#p7e61a5a387)" style="fill: none; stroke: #b0b0b0; stroke-opacity: 0.3; stroke-width: 0.8; stroke-linecap: square"/>
     </g>
     <g id="line2d_15">
      <g>
       <use xlink:href="#m9894a6427c" x="44.782813" y="179.647852" style="stroke: #000000; stroke-width: 0.8"/>
      </g>
     </g>
     <g id="text_12">
      <!-- 0.15 -->
      <g transform="translate(20.282813 183.119727) scale(0.1 -0.1)">
       <use xlink:href="#TimesNewRomanPSMT-30"/>
       <use xlink:href="#TimesNewRomanPSMT-2e" x="50"/>
       <use xlink:href="#TimesNewRomanPSMT-31" x="75"/>
       <use xlink:href="#TimesNewRomanPSMT-35" x="125"/>
      </g>
     </g>
    </g>
    <g id="ytick_5">
     <g id="line2d_16">
      <path d="M 44.782813 143.431083 
L 849.317813 143.431083 
" clip-path="url(#p7e61a5a387)" style="fill: none; stroke: #b0b0b0; stroke-opacity: 0.3; stroke-width: 0.8; stroke-linecap: square"/>
     </g>
     <g id="line2d_17">
      <g>
       <use xlink:href="#m9894a6427c" x="44.782813" y="143.431083" style="stroke: #000000; stroke-width: 0.8"/>
      </g>
     </g>
     <g id="text_13">
      <!-- 0.20 -->
      <g transform="translate(20.282813 146.902958) scale(0.1 -0.1)">
       <use xlink:href="#TimesNewRomanPSMT-30"/>
       <use xlink:href="#TimesNewRomanPSMT-2e" x="50"/>
       <use xlink:href="#TimesNewRomanPSMT-32" x="75"/>
       <use xlink:href="#TimesNewRomanPSMT-30" x="125"/>
      </g>
     </g>
    </g>
    <g id="ytick_6">
     <g id="line2d_18">
      <path d="M 44.782813 107.214314 
L 849.317813 107.214314 
" clip-path="url(#p7e61a5a387)" style="fill: none; stroke: #b0b0b0; stroke-opacity: 0.3; stroke-width: 0.8; stroke-linecap: square"/>
     </g>
     <g id="line2d_19">
      <g>
       <use xlink:href="#m9894a6427c" x="44.782813" y="107.214314" style="stroke: #000000; stroke-width: 0.8"/>
      </g>
     </g>
     <g id="text_14">
      <!-- 0.25 -->
      <g transform="translate(20.282813 110.686189) scale(0.1 -0.1)">
       <use xlink:href="#TimesNewRomanPSMT-30"/>
       <use xlink:href="#TimesNewRomanPSMT-2e" x="50"/>
       <use xlink:href="#TimesNewRomanPSMT-32" x="75"/>
       <use xlink:href="#TimesNewRomanPSMT-35" x="125"/>
      </g>
     </g>
    </g>
    <g id="ytick_7">
     <g id="line2d_20">
      <path d="M 44.782813 70.997545 
L 849.317813 70.997545 
" clip-path="url(#p7e61a5a387)" style="fill: none; stroke: #b0b0b0; stroke-opacity: 0.3; stroke-width: 0.8; stroke-linecap: square"/>
     </g>
     <g id="line2d_21">
      <g>
       <use xlink:href="#m9894a6427c" x="44.782813" y="70.997545" style="stroke: #000000; stroke-width: 0.8"/>
      </g>
     </g>
     <g id="text_15">
      <!-- 0.30 -->
      <g transform="translate(20.282813 74.46942) scale(0.1 -0.1)">
       <use xlink:href="#TimesNewRomanPSMT-30"/>
       <use xlink:href="#TimesNewRomanPSMT-2e" x="50"/>
       <use xlink:href="#TimesNewRomanPSMT-33" x="75"/>
       <use xlink:href="#TimesNewRomanPSMT-30" x="125"/>
      </g>
     </g>
    </g>
    <g id="ytick_8">
     <g id="line2d_22">
      <path d="M 44.782813 34.780775 
L 849.317813 34.780775 
" clip-path="url(#p7e61a5a387)" style="fill: none; stroke: #b0b0b0; stroke-opacity: 0.3; stroke-width: 0.8; stroke-linecap: square"/>
     </g>
     <g id="line2d_23">
      <g>
       <use xlink:href="#m9894a6427c" x="44.782813" y="34.780775" style="stroke: #000000; stroke-width: 0.8"/>
      </g>
     </g>
     <g id="text_16">
      <!-- 0.35 -->
      <g transform="translate(20.282813 38.25265) scale(0.1 -0.1)">
       <use xlink:href="#TimesNewRomanPSMT-30"/>
       <use xlink:href="#TimesNewRomanPSMT-2e" x="50"/>
       <use xlink:href="#TimesNewRomanPSMT-33" x="75"/>
       <use xlink:href="#TimesNewRomanPSMT-35" x="125"/>
      </g>
     </g>
    </g>
    <g id="text_17">
     <!-- Absorbance -->
     <g transform="translate(14.14375 191.120094) rotate(-90) scale(0.1 -0.1)">
      <defs>
       <path id="TimesNewRomanPSMT-41" d="M 2928 1419 
L 1288 1419 
L 1000 750 
Q 894 503 894 381 
Q 894 284 986 211 
Q 1078 138 1384 116 
L 1384 0 
L 50 0 
L 50 116 
Q 316 163 394 238 
Q 553 388 747 847 
L 2238 4334 
L 2347 4334 
L 3822 809 
Q 4000 384 4145 257 
Q 4291 131 4550 116 
L 4550 0 
L 2878 0 
L 2878 116 
Q 3131 128 3220 200 
Q 3309 272 3309 375 
Q 3309 513 3184 809 
L 2928 1419 
z
M 2841 1650 
L 2122 3363 
L 1384 1650 
L 2841 1650 
z
" transform="scale(0.015625)"/>
       <path id="TimesNewRomanPSMT-73" d="M 2050 2947 
L 2050 1972 
L 1947 1972 
Q 1828 2431 1642 2597 
Q 1456 2763 1169 2763 
Q 950 2763 815 2647 
Q 681 2531 681 2391 
Q 681 2216 781 2091 
Q 878 1963 1175 1819 
L 1631 1597 
Q 2266 1288 2266 781 
Q 2266 391 1970 151 
Q 1675 -88 1309 -88 
Q 1047 -88 709 6 
Q 606 38 541 38 
Q 469 38 428 -44 
L 325 -44 
L 325 978 
L 428 978 
Q 516 541 762 319 
Q 1009 97 1316 97 
Q 1531 97 1667 223 
Q 1803 350 1803 528 
Q 1803 744 1651 891 
Q 1500 1038 1047 1263 
Q 594 1488 453 1669 
Q 313 1847 313 2119 
Q 313 2472 555 2709 
Q 797 2947 1181 2947 
Q 1350 2947 1591 2875 
Q 1750 2828 1803 2828 
Q 1853 2828 1881 2850 
Q 1909 2872 1947 2947 
L 2050 2947 
z
" transform="scale(0.015625)"/>
       <path id="TimesNewRomanPSMT-6f" d="M 1600 2947 
Q 2250 2947 2644 2453 
Q 2978 2031 2978 1484 
Q 2978 1100 2793 706 
Q 2609 313 2286 112 
Q 1963 -88 1566 -88 
Q 919 -88 538 428 
Q 216 863 216 1403 
Q 216 1797 411 2186 
Q 606 2575 925 2761 
Q 1244 2947 1600 2947 
z
M 1503 2744 
Q 1338 2744 1170 2645 
Q 1003 2547 900 2300 
Q 797 2053 797 1666 
Q 797 1041 1045 587 
Q 1294 134 1700 134 
Q 2003 134 2200 384 
Q 2397 634 2397 1244 
Q 2397 2006 2069 2444 
Q 1847 2744 1503 2744 
z
" transform="scale(0.015625)"/>
      </defs>
      <use xlink:href="#TimesNewRomanPSMT-41"/>
      <use xlink:href="#TimesNewRomanPSMT-62" x="72.216797"/>
      <use xlink:href="#TimesNewRomanPSMT-73" x="122.216797"/>
      <use xlink:href="#TimesNewRomanPSMT-6f" x="161.132812"/>
      <use xlink:href="#TimesNewRomanPSMT-72" x="211.132812"/>
      <use xlink:href="#TimesNewRomanPSMT-62" x="244.433594"/>
      <use xlink:href="#TimesNewRomanPSMT-61" x="294.433594"/>
      <use xlink:href="#TimesNewRomanPSMT-6e" x="338.818359"/>
      <use xlink:href="#TimesNewRomanPSMT-63" x="388.818359"/>
      <use xlink:href="#TimesNewRomanPSMT-65" x="433.203125"/>
     </g>
    </g>
   </g>
   <g id="line2d_24">
    <path d="M 849.295612 160.708655 
L 848.958337 159.238979 
L 848.845912 158.957212 
L 848.733487 159.556962 
L 848.621039 159.437446 
L 848.396189 160.873079 
L 847.946465 164.153594 
L 847.83404 164.298461 
L 847.60919 163.136627 
L 847.271892 160.886117 
L 847.047042 160.081381 
L 846.934617 160.152365 
L 846.709767 160.94841 
L 846.372468 162.846893 
L 846.147618 165.104646 
L 845.81032 168.813968 
L 845.58547 169.322451 
L 845.248171 168.763264 
L 845.135746 168.919721 
L 845.023321 169.344181 
L 844.686046 171.585999 
L 844.573598 171.796781 
L 844.348748 171.609178 
L 844.011473 170.448793 
L 843.674174 168.908856 
L 843.336899 168.459044 
L 843.112026 168.051243 
L 842.887176 167.15524 
L 842.100177 162.838201 
L 841.875304 162.581786 
L 841.650454 162.962787 
L 841.200731 164.612098 
L 840.975881 166.077429 
L 840.751031 168.705318 
L 840.638606 168.487293 
L 840.413732 168.363431 
L 840.188882 168.530753 
L 839.964032 168.339528 
L 839.851584 168.235224 
L 839.739159 168.289549 
L 839.289459 169.113118 
L 838.95216 168.33808 
L 838.839735 168.430795 
L 838.390012 170.337245 
L 838.277587 170.15254 
L 837.827863 168.041102 
L 837.715438 168.110638 
L 837.378163 168.753124 
L 836.92844 168.554656 
L 836.478716 169.787475 
L 836.366291 169.746912 
L 836.029016 169.398507 
L 835.579293 169.706349 
L 835.354443 169.717214 
L 835.12957 170.65885 
L 834.67987 173.385973 
L 834.567444 173.308469 
L 834.117721 172.218344 
L 833.780423 172.100278 
L 833.555573 171.893118 
L 833.443148 172.059715 
L 833.218298 173.265009 
L 832.768574 176.046457 
L 832.431276 177.864539 
L 831.869151 181.82448 
L 831.307002 183.616486 
L 830.857279 185.078195 
L 830.29513 186.355922 
L 829.957855 187.774171 
L 829.170857 192.178854 
L 828.383835 193.251595 
L 827.934135 192.885806 
L 827.709262 193.124836 
L 827.371987 193.514529 
L 826.922263 193.554367 
L 826.24769 193.5732 
L 825.910415 193.872351 
L 825.79799 193.852794 
L 825.573116 193.484107 
L 824.673693 191.32776 
L 824.448843 191.042372 
L 823.549396 190.820726 
L 823.324546 191.087281 
L 822.537547 192.522189 
L 822.312674 192.539574 
L 821.975399 192.283883 
L 821.862974 192.556233 
L 821.638101 194.202648 
L 821.075976 198.624715 
L 819.951679 205.129971 
L 818.939807 210.550897 
L 818.377682 212.507327 
L 817.59066 214.620938 
L 817.14096 215.527806 
L 816.691236 215.856654 
L 816.353961 216.119588 
L 815.56694 216.986617 
L 814.442666 217.69719 
L 813.430794 218.683735 
L 812.868646 219.009686 
L 812.531371 218.977815 
L 811.969222 218.832948 
L 811.744372 218.995923 
L 811.407074 219.684042 
L 811.069799 220.94511 
L 810.2828 225.384562 
L 809.158504 230.903997 
L 807.921782 235.475278 
L 806.46021 239.622098 
L 805.560786 241.433661 
L 804.773764 242.994603 
L 804.211616 243.971008 
L 803.424618 245.005358 
L 802.862469 245.715931 
L 801.400897 246.859657 
L 798.815028 249.509276 
L 797.128606 251.58667 
L 796.566458 252.115435 
L 795.77946 252.868019 
L 793.980589 254.016815 
L 793.530889 254.3051 
L 792.406592 254.731734 
L 791.057445 255.369149 
L 790.045574 255.282953 
L 789.483449 255.238044 
L 788.359152 255.473453 
L 787.459728 255.540817 
L 787.12243 255.741458 
L 786.560281 256.499112 
L 785.323559 257.984724 
L 784.761434 258.317194 
L 783.637138 258.6924 
L 782.962564 258.560571 
L 781.500992 258.194057 
L 780.376695 257.48276 
L 779.814547 256.845345 
L 779.589697 256.867075 
L 778.802698 257.340066 
L 778.4654 257.12856 
L 778.0157 256.554886 
L 777.565977 255.634256 
L 776.891403 253.611912 
L 776.329255 251.338947 
L 775.99198 249.129724 
L 775.654681 245.433441 
L 775.317406 238.804323 
L 774.417959 217.137279 
L 774.305534 217.634897 
L 774.080684 221.160962 
L 773.181237 239.699602 
L 772.619112 245.925989 
L 772.169389 248.819709 
L 771.832091 249.804805 
L 771.494815 250.095988 
L 771.269965 250.085847 
L 771.045092 249.870719 
L 770.707817 249.04715 
L 770.033244 246.412018 
L 769.021372 242.541894 
L 768.571672 241.64734 
L 768.346798 241.569111 
L 768.121948 241.724843 
L 767.78465 242.327491 
L 767.222525 244.052133 
L 766.098228 247.725238 
L 765.198804 249.619375 
L 764.636656 250.301699 
L 764.074508 250.636342 
L 763.737209 250.642861 
L 763.175084 250.369786 
L 762.725361 249.993856 
L 761.938362 248.927635 
L 761.038915 247.359448 
L 760.027067 245.468933 
L 758.565495 242.603462 
L 757.666048 240.384823 
L 756.766625 237.54905 
L 756.092051 234.587967 
L 755.192628 229.490095 
L 754.405629 223.762775 
L 750.920314 195.44778 
L 750.133315 187.440252 
L 749.346317 176.439771 
L 747.99717 156.397411 
L 747.435021 151.846412 
L 746.760448 148.148679 
L 745.748599 142.84075 
L 744.174649 133.877824 
L 743.500006 132.418288 
L 742.825362 131.26587 
L 742.375756 129.644808 
L 741.925916 127.149472 
L 740.239657 114.424348 
L 739.227808 107.400468 
L 738.777968 104.973944 
L 737.990923 102.446014 
L 737.76612 102.288109 
L 737.428915 102.427181 
L 737.203878 102.82122 
L 736.979075 103.756337 
L 736.529468 106.910093 
L 736.079628 111.531353 
L 735.067779 122.846196 
L 734.730574 124.890995 
L 734.393369 125.614606 
L 734.168333 125.683417 
L 733.943529 125.344428 
L 733.493922 123.662522 
L 732.706877 120.918739 
L 732.482074 120.620313 
L 732.257037 120.713028 
L 732.032234 121.057087 
L 731.80743 121.745206 
L 731.470225 123.764653 
L 730.907984 128.671301 
L 730.458144 134.632581 
L 729.783733 147.00423 
L 728.771885 165.807976 
L 728.097241 174.48479 
L 727.422598 180.201969 
L 725.286499 193.923778 
L 724.836893 195.880208 
L 724.162249 197.613543 
L 723.825044 198.056112 
L 723.262802 198.432042 
L 722.925597 198.372646 
L 722.363355 197.911245 
L 722.02615 197.268035 
L 721.239105 195.021871 
L 720.564462 193.067614 
L 720.114855 192.244045 
L 719.890052 192.204206 
L 719.552613 192.547541 
L 719.103007 193.297228 
L 718.653167 194.803122 
L 718.20356 197.263689 
L 717.75372 201.357632 
L 715.955059 219.893375 
L 713.481522 237.800394 
L 712.806879 240.143619 
L 712.357272 241.049039 
L 712.132469 241.173624 
L 711.907432 241.07439 
L 711.570227 240.55142 
L 711.120387 239.275141 
L 710.333575 236.231484 
L 707.522833 224.595036 
L 707.185395 224.162608 
L 706.960591 224.273431 
L 706.735788 224.712378 
L 706.398583 226.135697 
L 705.948743 229.521241 
L 705.274099 236.928295 
L 703.925046 252.28348 
L 703.250402 257.67326 
L 702.575992 261.420247 
L 701.901349 263.924274 
L 701.339107 265.204175 
L 700.8895 265.793784 
L 700.552062 265.999495 
L 700.214857 265.972695 
L 699.76525 265.66775 
L 699.31541 265.153472 
L 698.641 263.917031 
L 697.966356 262.787792 
L 697.516516 262.42997 
L 697.06691 262.281482 
L 696.61707 262.379991 
L 696.279864 262.691456 
L 695.942659 263.318006 
L 694.480971 266.586207 
L 694.031364 266.954894 
L 693.581524 267.005597 
L 693.131917 266.852038 
L 692.569675 266.363836 
L 691.78263 265.330934 
L 690.208773 262.902961 
L 689.646532 262.170658 
L 688.971888 261.75489 
L 688.072675 261.189908 
L 686.723388 260.331571 
L 684.924494 260.344609 
L 683.463039 259.870169 
L 682.338789 260.023728 
L 681.664145 260.156282 
L 681.214305 259.998377 
L 679.528047 258.742379 
L 678.965805 258.348341 
L 678.516198 258.375141 
L 677.279313 258.781493 
L 676.717304 258.633004 
L 676.155063 258.181743 
L 675.480419 257.319784 
L 674.918411 256.143464 
L 674.243767 254.157336 
L 673.007115 249.691808 
L 671.882865 245.497907 
L 671.208222 243.605942 
L 670.871017 243.177136 
L 670.533578 243.09094 
L 670.196373 243.313311 
L 669.746533 244.016641 
L 668.509881 246.414191 
L 668.172676 246.586583 
L 667.835471 246.451856 
L 667.498033 246.043331 
L 666.261381 244.1702 
L 665.924176 244.064447 
L 665.586738 244.207865 
L 665.137131 244.724316 
L 664.350086 245.681163 
L 663.787844 246.094759 
L 663.450639 246.127354 
L 663.000799 245.899913 
L 662.551192 245.357385 
L 661.98895 244.173097 
L 661.089737 242.277511 
L 660.302692 240.412348 
L 659.515646 238.605131 
L 658.953405 237.393318 
L 658.053958 235.343449 
L 657.604351 234.848003 
L 657.154511 234.652433 
L 655.693056 234.498874 
L 655.018412 234.143225 
L 654.456404 233.73977 
L 653.894162 233.016883 
L 653.107117 231.283549 
L 651.645662 228.325363 
L 650.746215 227.213508 
L 649.50933 225.93071 
L 647.485633 224.734833 
L 647.036026 224.469002 
L 646.586186 224.320513 
L 645.799374 223.801889 
L 645.461936 223.703379 
L 645.124731 223.917058 
L 644.112882 225.016599 
L 643.213435 227.105582 
L 642.651194 228.896139 
L 642.201587 230.430282 
L 641.077337 232.501881 
L 640.17789 233.67458 
L 638.154193 236.936262 
L 634.331602 246.174436 
L 633.094717 250.650828 
L 629.834368 259.40587 
L 629.384761 260.247548 
L 628.82252 261.269585 
L 628.035475 262.549486 
L 627.361064 263.508506 
L 626.236581 265.157818 
L 625.786974 266.021225 
L 624.212884 267.892908 
L 623.875679 268.263768 
L 622.976232 269.543668 
L 622.076785 270.649004 
L 620.61533 271.213261 
L 620.277892 271.008274 
L 618.478998 269.562501 
L 618.254195 269.712438 
L 617.692186 270.894554 
L 616.342899 274.007023 
L 615.780891 274.921859 
L 615.106247 275.468732 
L 614.544006 275.873635 
L 613.644559 276.596522 
L 613.307354 276.350248 
L 612.745112 275.917095 
L 611.845665 275.244188 
L 610.946452 274.461906 
L 610.159406 273.974428 
L 609.484763 273.975152 
L 609.147558 274.295308 
L 607.910673 275.943896 
L 606.561619 277.1376 
L 605.886976 277.371561 
L 605.212566 277.422989 
L 604.762726 277.400534 
L 604.200717 277.463551 
L 603.413672 277.437475 
L 602.514225 277.403432 
L 601.951983 277.048507 
L 599.47868 276.333588 
L 598.466831 276.067757 
L 597.792188 275.86277 
L 596.780339 275.524506 
L 596.105696 275.678065 
L 595.543687 275.856251 
L 594.306802 275.772228 
L 593.744794 275.766434 
L 593.294954 275.729492 
L 592.845347 275.985907 
L 591.9459 276.832655 
L 591.608462 276.668955 
L 591.271257 276.615355 
L 590.484211 276.96883 
L 589.809801 277.061545 
L 588.685318 277.838757 
L 587.673469 278.337824 
L 586.661621 279.101274 
L 585.987211 279.148356 
L 584.862727 279.781425 
L 584.525522 280.190674 
L 584.075915 280.240653 
L 582.614227 280.463749 
L 581.489977 280.938188 
L 580.927735 281.329329 
L 579.915886 281.142451 
L 578.904038 281.159111 
L 577.554984 281.190981 
L 576.655537 281.631377 
L 575.980894 281.575603 
L 575.418886 281.640794 
L 574.519439 281.461883 
L 574.069599 281.560392 
L 572.832947 282.057286 
L 572.270705 281.868235 
L 571.596295 281.866786 
L 570.471811 281.687151 
L 567.436266 282.118855 
L 566.986659 282.131893 
L 566.424417 282.320944 
L 564.513122 282.092779 
L 563.613675 282.275311 
L 561.140371 281.913144 
L 560.465728 281.811012 
L 559.229076 281.820429 
L 558.666834 281.77045 
L 557.317781 282.107266 
L 556.643137 282.425249 
L 555.294084 282.750475 
L 554.057199 283.180006 
L 552.37094 282.684561 
L 549.785001 282.940251 
L 549.335394 282.905483 
L 548.773153 282.86492 
L 547.424099 282.817839 
L 546.974259 282.778724 
L 545.962411 282.933732 
L 545.062964 282.753373 
L 543.938714 282.804076 
L 543.376472 282.726572 
L 542.477025 282.790314 
L 541.352775 282.593295 
L 540.340926 282.651966 
L 539.89132 282.543315 
L 538.654668 282.84319 
L 537.530184 282.711361 
L 536.630737 282.698323 
L 535.956327 282.685285 
L 535.05688 282.622992 
L 534.045032 282.670074 
L 532.470942 282.770757 
L 531.908933 282.593295 
L 530.559646 282.872888 
L 529.660199 282.725848 
L 529.210593 282.98516 
L 528.873154 283.12713 
L 528.198744 283.131476 
L 527.636502 283.495092 
L 527.299297 283.408896 
L 526.737056 283.21912 
L 526.287449 283.071356 
L 525.725207 282.755546 
L 524.713359 283.093086 
L 523.70151 283.079324 
L 523.139268 282.781622 
L 522.802063 282.888823 
L 521.45301 283.600845 
L 519.878919 283.185801 
L 519.429313 283.064837 
L 518.867071 283.103951 
L 518.529866 282.798282 
L 517.855222 282.073946 
L 517.630419 282.223159 
L 517.180579 282.781622 
L 516.955776 282.722226 
L 516.730972 282.300663 
L 515.831525 279.902389 
L 515.606722 279.971201 
L 515.156882 280.452884 
L 514.482239 281.419147 
L 514.145034 281.381482 
L 513.695427 281.385103 
L 513.245587 281.298907 
L 512.79598 281.304702 
L 512.233738 281.569809 
L 511.784131 281.800147 
L 511.22189 281.832742 
L 510.547246 282.404243 
L 510.097639 282.800455 
L 509.872836 282.552732 
L 509.422996 281.604577 
L 509.198193 281.642242 
L 508.523549 282.375994 
L 508.186344 282.343399 
L 507.286897 281.9059 
L 506.949692 281.856646 
L 506.387451 281.705259 
L 505.488004 281.856646 
L 504.476155 281.240236 
L 503.576708 281.256896 
L 502.677262 280.09144 
L 502.340056 280.222545 
L 501.777815 280.578194 
L 501.328208 280.530387 
L 500.878368 280.248621 
L 500.428761 279.924843 
L 499.416913 279.755349 
L 499.079474 280.225442 
L 498.629868 280.851268 
L 498.292662 280.872998 
L 497.955224 280.828089 
L 497.618019 281.051909 
L 497.280581 281.244582 
L 496.943376 281.109856 
L 496.156331 280.60427 
L 495.48192 280.630346 
L 494.694875 280.747688 
L 493.90783 280.787526 
L 492.78358 280.562983 
L 492.221338 280.589783 
L 491.65933 280.566604 
L 491.20949 280.839679 
L 490.085239 281.566911 
L 489.523231 281.660351 
L 489.185793 281.543008 
L 488.286346 280.945432 
L 487.611936 280.905593 
L 486.937292 280.981648 
L 485.588005 280.76145 
L 485.138399 280.733926 
L 484.463755 281.014243 
L 482.327656 282.699772 
L 481.87805 283.066286 
L 480.866201 283.56825 
L 480.303959 284.131783 
L 480.079156 284.028203 
L 479.404513 283.306765 
L 478.954673 283.285759 
L 478.392664 283.474086 
L 477.718021 283.79714 
L 476.931209 283.662414 
L 476.368967 283.574769 
L 476.031762 283.880439 
L 475.581922 284.219428 
L 475.244717 284.412101 
L 474.794877 284.797447 
L 474.570073 284.454112 
L 474.232868 282.927213 
L 473.670627 280.207334 
L 473.333422 279.515594 
L 472.995983 279.228757 
L 472.77118 279.262076 
L 471.759331 280.017558 
L 471.084688 280.940361 
L 470.297643 281.064223 
L 469.735634 280.921529 
L 469.173393 281.172873 
L 468.948589 280.916458 
L 468.386581 280.081299 
L 468.049142 280.059569 
L 467.599536 280.04291 
L 467.262097 280.061742 
L 466.587687 280.390591 
L 465.68824 280.352925 
L 464.56399 280.495619 
L 464.001748 280.833884 
L 463.214703 280.699882 
L 462.540293 280.294978 
L 461.303408 280.887485 
L 460.741399 281.004103 
L 460.291559 280.895452 
L 459.054907 280.429705 
L 457.818256 280.244275 
L 457.256014 279.971201 
L 456.694005 280.075505 
L 455.681924 280.355823 
L 455.119915 280.379001 
L 454.445272 280.57095 
L 453.995665 280.760002 
L 453.658227 280.555739 
L 453.096218 280.139246 
L 452.75878 280.226891 
L 452.196771 280.601372 
L 451.859333 280.431153 
L 451.297325 280.102305 
L 450.847485 280.11317 
L 449.948271 280.306568 
L 449.048824 279.900216 
L 447.811939 280.070434 
L 446.462885 279.516318 
L 444.663992 279.207751 
L 444.10175 279.207027 
L 440.391794 279.954541 
L 438.705302 279.953092 
L 438.030659 280.179085 
L 437.356016 280.014661 
L 435.669757 279.429398 
L 435.219917 279.821263 
L 434.208068 280.746239 
L 433.758462 280.893279 
L 433.308622 280.741893 
L 432.746613 280.616583 
L 432.184371 280.762899 
L 431.509728 280.911388 
L 429.935871 281.10551 
L 428.361781 281.194603 
L 427.912174 281.271383 
L 426.900325 281.054082 
L 426.562887 281.096818 
L 426.225682 281.198949 
L 425.551039 281.065671 
L 424.426788 281.395968 
L 423.41494 281.150419 
L 422.852698 281.288767 
L 421.728448 281.482888 
L 421.278841 281.415525 
L 420.604198 281.292388 
L 418.692902 281.498099 
L 414.870312 281.23589 
L 413.970865 281.169251 
L 413.18382 280.996859 
L 411.609963 280.836057 
L 410.035873 280.775213 
L 409.248827 280.705677 
L 407.899774 280.416667 
L 405.65104 280.246448 
L 402.615495 280.263832 
L 402.053486 280.17836 
L 401.154039 280.223994 
L 400.254593 280.072607 
L 398.005859 279.965406 
L 396.769207 279.79229 
L 396.207198 279.753176 
L 395.420153 279.577886 
L 394.633108 279.536599 
L 393.733661 279.469236 
L 391.035321 279.352618 
L 390.135874 279.307709 
L 389.461464 279.333785 
L 388.674419 279.308434 
L 387.100329 279.413462 
L 380.129791 279.199783 
L 379.005541 279.213546 
L 378.555701 279.159221 
L 377.768655 279.253384 
L 376.532004 278.92526 
L 375.070548 278.907152 
L 374.620708 278.973066 
L 373.159253 278.739106 
L 372.147404 278.668121 
L 370.685716 278.672467 
L 370.236109 278.629007 
L 369.449064 278.489935 
L 368.437215 278.480518 
L 367.087929 278.345792 
L 366.188715 278.393598 
L 365.514072 278.318991 
L 364.839428 278.263942 
L 364.165018 278.198752 
L 363.490375 278.1734 
L 362.366124 278.243661 
L 361.016838 278.166157 
L 358.768337 278.21686 
L 357.306649 278.419674 
L 355.62039 278.794156 
L 354.945747 278.915844 
L 354.383505 278.982483 
L 350.223709 278.57106 
L 347.975209 278.474724 
L 345.838877 278.26032 
L 343.140769 278.022014 
L 342.128921 277.935818 
L 332.010203 277.455584 
L 331.223158 277.266532 
L 330.098907 277.182509 
L 329.087059 277.125287 
L 328.187612 277.047783 
L 327.288165 276.868872 
L 326.726157 276.779054 
L 325.714075 276.69648 
L 325.039665 276.502358 
L 324.477423 276.362562 
L 323.577976 276.282885 
L 320.767234 275.490462 
L 317.282082 274.09177 
L 316.71984 273.596325 
L 315.820393 272.425074 
L 315.033348 271.212537 
L 314.583741 270.153559 
L 314.134135 268.525977 
L 313.347089 265.302685 
L 313.122053 265.119428 
L 312.897249 265.373669 
L 312.335241 266.835378 
L 311.660598 268.377488 
L 311.210758 268.866415 
L 310.761151 269.018525 
L 310.199142 268.933778 
L 309.18706 268.46803 
L 308.175212 267.888562 
L 307.613203 267.580719 
L 306.713757 267.351829 
L 305.139666 266.510152 
L 301.766916 264.542132 
L 299.968022 263.710595 
L 299.40578 263.04638 
L 298.956174 262.275687 
L 298.506334 261.021862 
L 297.831923 258.894489 
L 297.606887 258.633004 
L 297.382083 258.739482 
L 297.044878 259.463817 
L 296.370235 261.794004 
L 295.245985 265.783643 
L 294.45894 267.462653 
L 293.559493 268.789635 
L 292.098037 270.132553 
L 290.299144 271.539937 
L 289.6245 272.02669 
L 288.725054 272.697425 
L 288.163045 272.984261 
L 287.151197 273.388441 
L 285.914312 274.152614 
L 285.352303 274.363396 
L 284.115418 275.328935 
L 283.553409 275.634605 
L 282.766364 275.907679 
L 281.979319 276.19017 
L 279.84322 276.578414 
L 276.47047 276.871769 
L 274.221736 276.505256 
L 272.760281 276.343005 
L 271.973236 276.093833 
L 271.073789 276.043854 
L 270.399146 275.920717 
L 269.836904 275.875808 
L 268.825289 275.514365 
L 267.700805 275.386882 
L 265.564706 274.939967 
L 264.777661 274.798722 
L 256.120631 272.241093 
L 254.096934 271.384929 
L 252.185639 270.785903 
L 251.510996 270.497618 
L 250.836586 270.265106 
L 248.812889 269.273491 
L 248.138245 269.034461 
L 245.664708 267.796571 
L 244.990298 267.606795 
L 243.641011 266.788296 
L 240.830269 265.35701 
L 238.244563 263.715666 
L 237.56992 262.997125 
L 236.333268 262.373472 
L 235.658625 261.878027 
L 234.421973 261.066047 
L 233.522526 260.380826 
L 232.285874 259.448606 
L 231.498829 258.911874 
L 230.48698 258.041222 
L 229.812337 257.479138 
L 229.137694 256.804058 
L 228.013443 255.925439 
L 226.776791 254.742599 
L 225.54014 253.346805 
L 224.865496 252.978118 
L 223.741246 251.740229 
L 223.066603 250.99199 
L 222.391959 250.53421 
L 218.00736 245.038678 
L 217.332717 244.106458 
L 216.320868 242.935932 
L 213.060519 240.098711 
L 212.498277 239.745235 
L 212.048671 239.496788 
L 211.261625 239.280212 
L 210.586982 239.09623 
L 210.02474 238.910076 
L 209.35033 238.547908 
L 207.888642 238.24079 
L 207.214231 237.932223 
L 206.539588 237.885142 
L 204.290854 236.364762 
L 203.391641 235.698373 
L 200.918104 234.687925 
L 200.355862 234.648087 
L 199.906255 234.91754 
L 199.456648 235.114559 
L 198.782005 235.186992 
L 197.882558 235.780223 
L 196.87071 236.816023 
L 195.521423 237.896731 
L 194.959414 238.17053 
L 191.474029 241.391649 
L 189.675135 242.523785 
L 189.000725 243.145265 
L 188.438483 243.54872 
L 187.76384 244.103561 
L 186.527188 244.954655 
L 185.627741 245.56527 
L 184.840696 246.043331 
L 182.479794 247.820126 
L 181.355544 248.771178 
L 180.343695 249.633137 
L 178.207363 251.648963 
L 176.745908 252.937555 
L 175.621658 254.122568 
L 174.947014 254.590489 
L 173.935166 255.642948 
L 173.485559 256.165918 
L 172.923317 256.788122 
L 171.012022 258.060779 
L 169.32553 260.193947 
L 168.875923 260.428632 
L 168.313682 260.698809 
L 166.964628 261.843259 
L 166.514788 262.355364 
L 165.727743 263.290481 
L 162.804599 265.759016 
L 162.242591 266.337036 
L 161.11834 266.888979 
L 160.556099 267.227968 
L 158.757205 268.901907 
L 158.307598 269.032288 
L 157.745356 269.079369 
L 157.408151 269.418358 
L 156.621106 270.301323 
L 156.059098 270.557014 
L 155.609258 270.86558 
L 154.934614 271.434184 
L 154.035168 271.970916 
L 153.023319 272.665554 
L 152.123872 273.063214 
L 151.112024 273.65065 
L 149.875372 274.451765 
L 148.863523 275.000087 
L 148.301282 275.281853 
L 147.739273 275.631707 
L 146.839826 275.816413 
L 146.277585 276.206105 
L 145.827978 276.383567 
L 144.478691 277.491076 
L 143.916682 277.407778 
L 143.579244 277.634495 
L 143.017236 278.034328 
L 142.342592 278.280602 
L 141.668182 278.743452 
L 139.98169 279.143285 
L 138.969842 279.722753 
L 138.632403 279.898767 
L 137.845591 279.908908 
L 137.28335 280.394937 
L 136.83351 280.278319 
L 136.496305 280.257313 
L 136.159099 280.44564 
L 135.372054 281.188084 
L 135.034849 281.063498 
L 134.697411 280.940361 
L 134.360206 281.037422 
L 133.685562 281.381482 
L 132.786116 281.407558 
L 132.111705 281.726265 
L 131.212259 281.962398 
L 130.425213 282.705567 
L 130.087775 282.620819 
L 129.638168 282.478125 
L 128.62632 282.565046 
L 127.951676 282.241268 
L 127.614471 282.351367 
L 126.715025 282.934457 
L 126.377819 282.933732 
L 125.590774 283.30097 
L 124.916131 283.145962 
L 124.241487 283.561731 
L 123.791881 283.674003 
L 123.004836 283.608813 
L 122.555229 283.724706 
L 122.105389 283.46467 
L 121.768184 283.405999 
L 120.981139 283.820319 
L 120.643933 283.911585 
L 119.856888 283.82394 
L 119.294647 283.991262 
L 118.84504 283.702976 
L 118.3952 283.489297 
L 117.158548 283.676176 
L 116.146699 283.947077 
L 115.134851 283.600845 
L 114.685244 283.848568 
L 114.235404 284.085425 
L 113.898199 283.968083 
L 113.335957 283.723258 
L 112.773949 283.722533 
L 110.750019 283.899996 
L 110.18801 283.687765 
L 109.625768 283.853638 
L 108.951358 283.943456 
L 108.164313 283.807281 
L 107.48967 283.608813 
L 106.702624 283.883336 
L 105.690776 283.692111 
L 105.016133 283.882612 
L 104.566526 283.800037 
L 103.891882 283.477708 
L 103.217472 283.809454 
L 102.542829 283.211877 
L 101.418579 283.392961 
L 100.968739 283.31763 
L 100.069292 283.487849 
L 99.28248 283.184352 
L 98.83264 283.524066 
L 98.383033 283.742091 
L 97.483586 283.723982 
L 97.146148 283.810902 
L 96.808943 283.60664 
L 96.471738 283.38282 
L 96.134299 283.433524 
L 95.234853 283.695733 
L 94.448041 283.736296 
L 93.773397 283.75368 
L 93.211156 283.864503 
L 92.649147 283.888406 
L 91.637299 284.212184 
L 90.512815 283.843497 
L 89.950807 283.992711 
L 88.938958 283.810902 
L 88.489118 283.81887 
L 87.589671 283.598672 
L 87.027663 283.874644 
L 86.577823 283.821767 
L 85.903413 283.735572 
L 85.228769 283.764545 
L 84.554126 283.474086 
L 84.216921 283.358917 
L 83.879716 283.54145 
L 83.429876 283.767442 
L 82.530429 283.745712 
L 82.193224 283.612434 
L 81.856018 283.808005 
L 81.406178 284.057901 
L 81.068973 283.942731 
L 80.169527 283.444389 
L 79.719687 283.282862 
L 79.494883 283.219845 
L 79.27008 283.421934 
L 78.707838 284.317213 
L 78.370633 284.037619 
L 77.920793 283.734847 
L 76.459338 283.553039 
L 75.897096 283.579115 
L 74.997649 283.592153 
L 73.648596 283.760199 
L 72.86155 283.325598 
L 71.624898 283.56318 
L 71.062657 283.553763 
L 69.938407 283.578391 
L 69.151361 283.316181 
L 68.476718 283.295176 
L 68.027111 283.324149 
L 67.127664 283.768891 
L 66.453254 283.4864 
L 65.553807 283.463221 
L 64.991566 283.271997 
L 64.092119 283.554488 
L 63.754914 283.577666 
L 62.967869 283.839876 
L 62.63043 283.619678 
L 62.180824 283.294451 
L 60.944172 283.36109 
L 60.044725 283.629819 
L 57.795991 283.408172 
L 57.009179 283.569699 
L 55.997331 283.410345 
L 54.985249 283.605915 
L 53.860999 283.384993 
L 52.84915 283.485676 
L 51.949704 283.298797 
L 49.251596 283.532033 
L 48.689355 283.36109 
L 47.565104 283.323425 
L 46.778059 283.122784 
L 46.103416 283.337911 
L 45.429006 283.465394 
L 44.754362 283.319803 
L 44.754362 283.319803 
" clip-path="url(#p7e61a5a387)" style="fill: none; stroke: #d95f5f; stroke-width: 0.8; stroke-linecap: square"/>
   </g>
   <g id="line2d_25">
    <path d="M 849.295612 298.926333 
L 848.958337 298.229523 
L 848.845912 298.209241 
L 848.733487 298.345416 
L 848.283763 299.332685 
L 848.058913 298.953858 
L 847.721615 297.842727 
L 847.496765 297.228491 
L 847.38434 297.162577 
L 847.271892 297.244426 
L 846.597318 299.700648 
L 846.484893 299.605035 
L 845.922745 298.347589 
L 845.697895 298.403363 
L 845.36062 298.485937 
L 844.348748 298.055682 
L 844.123898 297.348006 
L 843.561749 294.934521 
L 842.437452 291.874928 
L 842.212602 291.93867 
L 841.875304 292.026314 
L 841.650454 291.702536 
L 841.088306 290.334991 
L 840.975881 290.376278 
L 840.526157 291.112927 
L 840.076457 290.909389 
L 839.626734 291.33385 
L 839.401884 290.867378 
L 839.17701 290.327748 
L 839.064585 290.258212 
L 838.839735 290.554465 
L 838.614885 290.90794 
L 838.390012 290.85941 
L 838.052737 290.575471 
L 837.603013 290.458128 
L 836.92844 289.542568 
L 836.70359 290.076403 
L 836.141441 292.087883 
L 836.029016 292.091505 
L 835.804143 291.559118 
L 835.466868 290.758003 
L 835.354443 290.78263 
L 835.017145 291.170874 
L 834.90472 291.11003 
L 834.67987 290.53201 
L 833.667998 286.863252 
L 833.555573 286.900917 
L 832.993424 287.853418 
L 832.768574 287.545576 
L 832.318851 286.806029 
L 832.094001 286.809651 
L 831.531852 287.131256 
L 831.307002 286.780677 
L 830.857279 285.866566 
L 830.407555 285.530475 
L 830.182705 285.46456 
L 829.957855 285.681861 
L 829.395707 286.55396 
L 829.170857 286.509052 
L 828.833559 286.173684 
L 828.496283 285.310277 
L 828.04656 284.199146 
L 827.484412 283.471189 
L 826.584988 281.965296 
L 826.360115 281.817531 
L 825.685541 281.855197 
L 825.235841 281.298907 
L 824.448843 280.118965 
L 823.999119 280.141419 
L 823.774269 280.355098 
L 822.762397 282.171007 
L 822.649972 282.030486 
L 822.537547 281.523451 
L 822.312674 278.59279 
L 821.750549 264.395092 
L 821.638101 265.472903 
L 820.963527 279.407668 
L 820.738677 280.193571 
L 820.626252 280.179085 
L 820.288954 279.652493 
L 819.726829 278.731138 
L 819.16468 278.613796 
L 818.040383 278.272634 
L 817.815533 278.492832 
L 817.028535 279.558329 
L 816.353961 280.202988 
L 815.791813 280.528214 
L 815.004815 280.334093 
L 814.442666 280.040737 
L 814.105368 279.766214 
L 813.768093 279.140388 
L 813.093519 277.373734 
L 812.643796 275.348492 
L 812.194072 272.535173 
L 811.744372 267.947957 
L 811.407074 262.117782 
L 811.069799 252.337806 
L 810.395225 223.314411 
L 810.057927 211.05431 
L 809.945502 209.69256 
L 809.833077 210.342289 
L 809.608227 217.42991 
L 808.821205 252.016925 
L 808.48393 257.107554 
L 808.25908 257.960821 
L 808.146632 257.592859 
L 807.921782 255.093177 
L 807.247208 244.564963 
L 807.134783 245.664504 
L 806.909933 251.522204 
L 806.23536 273.247919 
L 805.898061 277.425886 
L 805.448338 279.903113 
L 804.886189 281.455364 
L 804.548914 282.000788 
L 803.761916 282.520861 
L 803.087342 282.89824 
L 802.637619 283.191596 
L 800.951197 283.643581 
L 800.389049 283.674727 
L 799.039902 283.946353 
L 798.140455 283.975327 
L 796.566458 283.897098 
L 795.891885 283.869574 
L 795.442161 283.701528 
L 794.767588 283.178558 
L 794.093014 282.503477 
L 793.643314 282.118855 
L 792.406592 280.560085 
L 791.732019 280.198642 
L 790.158022 279.671326 
L 789.708299 279.732894 
L 789.258575 280.1349 
L 788.584002 280.705677 
L 787.909428 280.923702 
L 786.672706 281.260517 
L 785.773283 281.658902 
L 783.412287 284.068041 
L 781.950692 284.738052 
L 781.388567 284.732257 
L 779.027548 285.004607 
L 778.24055 284.942314 
L 777.565977 284.897405 
L 776.778978 284.533065 
L 775.879531 284.58739 
L 774.980108 284.737327 
L 773.743386 284.63592 
L 772.731537 284.758333 
L 772.281814 284.806139 
L 771.719666 284.887265 
L 770.707817 284.787306 
L 768.459223 284.980704 
L 767.5598 284.934347 
L 765.536079 284.948833 
L 764.973931 284.85974 
L 763.624784 284.973461 
L 760.814065 284.58739 
L 759.240068 284.208563 
L 758.565495 284.062971 
L 758.115772 284.005024 
L 757.216348 284.059349 
L 756.541775 283.858709 
L 754.630479 283.449459 
L 754.180756 283.50306 
L 753.393757 283.638511 
L 751.257612 283.826838 
L 749.346317 284.231741 
L 748.446893 284.328802 
L 747.547446 284.283169 
L 745.298876 283.860882 
L 744.736728 283.540001 
L 740.239657 280.481133 
L 739.34021 280.443467 
L 734.842976 280.971508 
L 734.168333 281.02366 
L 733.493922 281.090299 
L 731.695029 280.922253 
L 730.907984 280.817949 
L 730.23334 280.6528 
L 729.671332 280.490549 
L 729.10909 280.366688 
L 728.322045 280.229788 
L 726.748188 279.805328 
L 723.712409 279.180951 
L 723.037999 279.039705 
L 722.475757 279.231654 
L 721.913749 279.402597 
L 720.789265 279.488793 
L 719.777417 279.804603 
L 718.878203 280.226167 
L 717.978756 280.710747 
L 717.191711 281.104785 
L 715.617621 281.99934 
L 714.718174 282.300663 
L 713.818727 282.650517 
L 711.007985 283.190871 
L 706.398583 283.477708 
L 705.049296 283.742815 
L 703.138001 283.970981 
L 702.463357 284.10788 
L 701.451509 284.347635 
L 700.777098 284.368641 
L 693.918962 284.229568 
L 693.131917 284.12454 
L 692.23247 284.016614 
L 689.758933 283.550866 
L 687.622835 283.27924 
L 686.723388 282.904034 
L 686.048744 282.326739 
L 685.486736 281.59516 
L 684.812092 280.284838 
L 684.025047 278.722446 
L 683.575441 278.318267 
L 683.238002 278.347965 
L 682.900797 278.644218 
L 682.45119 279.472133 
L 681.32694 281.943566 
L 680.764698 282.473779 
L 680.202457 282.735264 
L 678.516198 282.980814 
L 676.042661 282.671523 
L 674.693607 282.331085 
L 673.681759 282.340502 
L 673.007115 282.361507 
L 672.557275 282.344123 
L 668.509881 283.517547 
L 666.823389 283.284311 
L 665.249532 282.243441 
L 663.787844 281.769001 
L 662.213987 281.162732 
L 661.539344 281.125067 
L 660.639897 281.031628 
L 660.19029 280.659319 
L 658.6162 279.220789 
L 658.278995 279.118658 
L 657.604351 279.124452 
L 656.929708 278.749247 
L 656.592503 278.602931 
L 656.367699 278.688403 
L 656.030261 279.154875 
L 655.468252 280.470268 
L 654.906011 281.707432 
L 654.231367 282.591846 
L 653.669359 282.920694 
L 653.219519 282.858401 
L 652.769912 282.864196 
L 652.320072 282.846812 
L 651.870465 282.850434 
L 650.633813 283.17566 
L 649.95917 283.096708 
L 647.935473 283.259683 
L 647.373231 283.164795 
L 646.248981 283.411794 
L 644.337686 280.803462 
L 643.55064 279.018699 
L 642.988632 278.071993 
L 642.651194 277.769945 
L 642.201587 276.812374 
L 641.751747 276.10325 
L 640.739898 274.731358 
L 639.953086 273.097258 
L 639.615648 271.531245 
L 639.05364 267.899427 
L 637.816755 257.788429 
L 637.479549 251.73878 
L 637.029943 237.77287 
L 636.692504 227.956676 
L 636.467701 225.98576 
L 636.355299 226.8412 
L 636.017861 234.452516 
L 635.680656 240.756407 
L 635.455852 242.268819 
L 635.231049 242.747605 
L 635.118647 242.655614 
L 635.006012 242.215943 
L 634.781209 239.807528 
L 634.331602 231.637025 
L 634.2192 231.758713 
L 633.994164 237.711301 
L 633.094717 276.116288 
L 632.757512 280.114619 
L 632.307905 282.357161 
L 631.970467 283.132924 
L 631.52086 283.668208 
L 631.296057 283.71529 
L 630.733815 283.584185 
L 630.059172 283.855811 
L 629.497163 284.600428 
L 629.047323 284.916963 
L 628.710118 285.214664 
L 628.372913 285.158166 
L 627.923073 285.132814 
L 627.023626 285.21394 
L 626.686421 285.470355 
L 626.348983 285.376191 
L 626.011777 285.435587 
L 624.775126 285.630433 
L 623.98808 285.177723 
L 623.763277 285.307379 
L 623.201035 285.826003 
L 621.73958 285.883226 
L 621.177338 285.834695 
L 620.61533 285.947692 
L 620.053088 285.768057 
L 619.603248 285.837593 
L 619.266043 285.789787 
L 618.704035 286.099078 
L 618.254195 285.974492 
L 617.242346 286.15123 
L 617.017543 286.104873 
L 616.342899 285.708661 
L 615.106247 285.715904 
L 614.768809 285.735462 
L 614.2068 286.101975 
L 613.981997 286.501808 
L 613.75696 286.942204 
L 613.644559 286.956691 
L 613.307354 286.464867 
L 612.970149 286.044753 
L 612.520309 285.875258 
L 611.845665 285.836144 
L 610.38421 286.163544 
L 609.934603 286.369979 
L 609.597165 286.17296 
L 609.25996 286.02085 
L 608.472914 286.084591 
L 607.798271 286.004914 
L 605.212566 286.176582 
L 604.650324 286.204831 
L 604.088082 286.244669 
L 603.413672 286.183825 
L 602.401823 286.301167 
L 601.951983 286.151954 
L 600.940135 286.430823 
L 600.490528 286.644502 
L 600.15309 286.547441 
L 599.591081 286.275816 
L 598.916438 286.232356 
L 597.904589 286.209901 
L 596.892741 285.966524 
L 595.656089 286.453278 
L 594.756642 286.14616 
L 594.419204 286.190344 
L 593.969597 286.310584 
L 593.07015 285.940448 
L 592.845347 286.078072 
L 592.507909 286.715487 
L 592.170703 287.299302 
L 591.9459 287.357248 
L 591.721097 287.01174 
L 591.383658 286.367806 
L 591.158855 286.25481 
L 590.596613 286.264951 
L 589.809801 285.957832 
L 589.135158 286.233804 
L 587.673469 286.237426 
L 586.886657 286.60901 
L 586.549219 286.312757 
L 586.099612 285.971595 
L 585.200166 285.950589 
L 584.975362 286.103424 
L 584.525522 286.621324 
L 584.300719 286.472835 
L 583.738477 286.031715 
L 582.614227 285.605081 
L 582.277022 285.610876 
L 581.939583 285.345045 
L 581.602378 285.108911 
L 581.265173 285.276957 
L 581.040137 285.408786 
L 580.815333 285.245086 
L 580.140923 284.123091 
L 578.342029 282.895342 
L 577.667386 282.665728 
L 577.330181 282.911278 
L 576.767939 283.441491 
L 576.093296 283.407448 
L 575.081447 284.362122 
L 574.069599 284.701835 
L 573.619992 285.203075 
L 573.05775 285.860772 
L 572.832947 285.744878 
L 572.38334 285.267541 
L 572.045902 285.333455 
L 571.708697 285.350839 
L 570.921651 285.031408 
L 569.909803 285.372569 
L 569.572598 285.516712 
L 568.897954 286.115738 
L 566.874257 286.173684 
L 566.424417 286.413439 
L 564.40072 286.477905 
L 563.951114 286.693033 
L 562.377023 286.437342 
L 560.016121 286.60394 
L 559.341478 286.813997 
L 558.666834 286.714039 
L 558.217228 286.69593 
L 557.654986 286.630016 
L 555.631289 287.043611 
L 554.956645 287.144294 
L 554.057199 287.468796 
L 553.49519 287.189203 
L 552.595743 286.926269 
L 551.9211 286.92482 
L 550.234608 287.150813 
L 548.435948 287.136326 
L 546.524652 287.152986 
L 545.962411 287.23556 
L 545.175365 287.197895 
L 544.613357 287.260187 
L 543.376472 287.089969 
L 542.926865 287.12691 
L 541.915017 286.967556 
L 541.240373 287.039265 
L 540.003721 286.87629 
L 539.216676 287.183408 
L 538.654668 287.0284 
L 537.980024 286.727801 
L 536.743139 286.710417 
L 536.293532 286.879911 
L 535.956327 286.792267 
L 535.394085 286.561204 
L 534.60704 286.551063 
L 534.157434 286.504706 
L 533.033183 286.855284 
L 532.583343 286.976972 
L 531.571495 286.78285 
L 530.447245 286.99001 
L 529.997405 287.146467 
L 528.985556 287.095763 
L 527.973708 287.383325 
L 527.636502 287.487629 
L 526.399851 287.13198 
L 525.837609 286.934961 
L 525.050564 287.245701 
L 524.600957 287.094315 
L 523.813912 287.462277 
L 523.139268 286.932064 
L 522.802063 287.102282 
L 522.352457 287.342762 
L 521.677813 287.362319 
L 521.115571 287.573825 
L 520.778366 287.421714 
L 520.328526 287.201516 
L 519.991321 287.37753 
L 519.541714 287.637566 
L 519.204276 287.534711 
L 517.967624 286.769812 
L 517.518017 286.407645 
L 516.843374 286.143262 
L 516.505936 285.522507 
L 515.943927 284.294034 
L 515.719124 284.255644 
L 515.156882 284.726462 
L 514.369837 285.292168 
L 513.133185 285.423273 
L 512.79598 285.487739 
L 512.121336 285.828176 
L 511.67173 285.930308 
L 510.884685 286.435894 
L 510.434845 286.230907 
L 510.210041 286.395331 
L 509.872836 286.715487 
L 509.647799 286.556133 
L 508.973389 285.416754 
L 508.748353 285.528302 
L 508.073942 286.268572 
L 507.736504 285.925962 
L 507.511701 285.757192 
L 507.286897 285.811517 
L 506.837057 285.974492 
L 506.162647 285.854253 
L 505.600405 285.90568 
L 505.150799 285.607978 
L 504.588557 285.221908 
L 504.363754 285.263195 
L 503.464307 285.833247 
L 503.127102 285.505123 
L 502.56486 284.740949 
L 502.340056 284.703284 
L 501.665413 284.857567 
L 501.215806 284.877124 
L 500.428761 285.216837 
L 500.203958 285.119776 
L 499.416913 284.467875 
L 499.079474 284.940866 
L 498.629868 285.588421 
L 498.292662 285.723148 
L 496.943376 285.708661 
L 496.268965 285.487739 
L 494.919679 285.424722 
L 494.020232 285.802825 
L 493.683027 285.662304 
L 493.233187 285.439208 
L 492.78358 285.481944 
L 491.884133 285.620292 
L 491.546928 285.648541 
L 491.097088 286.000568 
L 490.197641 286.609734 
L 489.748034 286.698828 
L 489.073391 286.575691 
L 488.511149 286.292475 
L 487.386899 286.316378 
L 486.262649 286.301167 
L 485.813042 286.262053 
L 485.2508 286.138916 
L 484.12655 286.381569 
L 483.789112 286.661162 
L 483.0023 287.492699 
L 482.102853 287.852694 
L 480.753566 289.036982 
L 480.416361 289.1268 
L 480.079156 288.959478 
L 479.404513 288.474898 
L 478.392664 288.280052 
L 478.055459 288.348864 
L 477.493217 288.696545 
L 477.156012 288.619765 
L 476.481369 288.267738 
L 476.256565 288.437232 
L 475.01968 290.184329 
L 474.794877 290.142318 
L 474.570073 289.651219 
L 474.232868 288.056956 
L 473.670627 285.26247 
L 473.333422 284.548276 
L 472.995983 284.362846 
L 472.658778 284.533065 
L 471.759331 285.4211 
L 471.19709 286.162095 
L 470.859885 286.157749 
L 470.297643 285.866566 
L 469.960438 285.654336 
L 469.735634 285.755019 
L 469.173393 286.377947 
L 468.948589 286.185998 
L 468.386581 285.350115 
L 468.161544 285.410959 
L 467.599536 285.786889 
L 467.149696 285.605081 
L 466.587687 285.467457 
L 466.137847 285.54134 
L 465.2384 285.785441 
L 464.001748 285.710834 
L 463.551908 285.782543 
L 463.102302 285.874534 
L 462.202855 285.576832 
L 461.078605 286.152679 
L 460.628998 286.059964 
L 459.054907 285.567416 
L 457.593219 285.665201 
L 457.03121 285.388505 
L 456.468969 285.427619 
L 455.90696 285.461663 
L 455.344719 285.473976 
L 453.995665 285.685482 
L 453.658227 285.555102 
L 452.983816 285.189313 
L 451.971735 285.250157 
L 451.072521 285.056035 
L 450.285476 285.253054 
L 449.835636 285.373294 
L 449.386029 285.17555 
L 448.711386 284.94159 
L 447.137529 284.478015 
L 446.238082 284.391095 
L 444.55159 283.877541 
L 442.752696 283.986192 
L 441.740848 284.186832 
L 441.066204 284.338219 
L 440.391794 284.333873 
L 438.930106 284.232466 
L 437.805856 284.591736 
L 437.356016 284.307072 
L 436.794007 283.916655 
L 435.557355 283.789897 
L 434.77031 284.290412 
L 433.870863 284.588114 
L 432.859015 284.8764 
L 431.734531 285.513091 
L 431.172523 285.347942 
L 429.036424 285.552929 
L 428.698986 285.36605 
L 428.474182 285.441381 
L 428.024576 285.691277 
L 427.012727 285.846285 
L 426.562887 286.033163 
L 426.225682 286.192517 
L 425.438637 286.149057 
L 424.426788 286.680719 
L 423.077501 286.390985 
L 422.515493 286.348974 
L 421.953251 286.246842 
L 421.278841 286.301167 
L 420.266993 286.142538 
L 419.592349 286.213523 
L 418.468099 286.199036 
L 416.444402 286.280162 
L 415.544955 286.137468 
L 414.645508 286.267848 
L 412.734213 286.075175 
L 411.947168 286.078072 
L 411.160123 286.067207 
L 410.598114 286.11284 
L 408.012176 285.801376 
L 407.000327 285.802825 
L 406.325684 285.797754 
L 405.65104 285.764435 
L 403.85238 285.75357 
L 403.177736 285.760813 
L 401.603646 285.685482 
L 401.041638 285.788338 
L 399.804753 285.638401 
L 398.680502 285.683309 
L 398.005859 285.631157 
L 396.769207 285.594216 
L 395.532555 285.472528 
L 394.408305 285.458765 
L 393.396456 285.507296 
L 392.272206 285.324763 
L 391.147723 285.268265 
L 390.473313 285.247984 
L 389.798669 285.223356 
L 389.124026 285.180621 
L 386.763124 285.056759 
L 385.976078 284.953904 
L 385.189033 285.032856 
L 384.402221 284.874227 
L 383.727578 284.913341 
L 382.828131 284.684451 
L 381.928684 284.755436 
L 381.254041 284.556968 
L 380.804434 284.520027 
L 379.342746 284.641715 
L 377.993692 284.495399 
L 377.319049 284.340392 
L 376.869442 284.302002 
L 376.3072 284.241158 
L 375.520155 284.127437 
L 373.833663 283.967359 
L 373.271655 283.887682 
L 372.147404 283.612434 
L 371.360359 283.595775 
L 368.774421 283.17059 
L 367.874974 283.138719 
L 365.963678 282.880856 
L 364.614625 282.543315 
L 363.602776 282.492612 
L 362.703329 282.482471 
L 357.419284 282.880856 
L 355.395353 283.332841 
L 354.0463 283.46467 
L 352.472209 283.531309 
L 351.797799 283.57332 
L 351.010754 283.589256 
L 349.099459 283.674727 
L 347.075762 283.483503 
L 345.726475 283.448735 
L 341.679081 283.037312 
L 340.667232 282.892445 
L 339.767786 282.814217 
L 339.093142 282.71281 
L 335.60799 282.524483 
L 334.146301 282.267344 
L 332.122604 281.908798 
L 327.288165 279.681466 
L 326.388718 279.183848 
L 325.601673 278.971618 
L 324.589825 278.345792 
L 323.353173 277.336068 
L 322.566128 276.356043 
L 319.530582 272.068701 
L 318.855939 270.229614 
L 318.29393 268.090652 
L 317.731689 264.991945 
L 317.282082 261.186287 
L 316.832242 255.434339 
L 316.270233 244.868459 
L 315.707992 230.589636 
L 315.258385 214.657154 
L 314.808545 190.288339 
L 314.358938 151.955062 
L 313.571893 72.268753 
L 313.459491 68.655768 
L 313.347089 68.9752 
L 313.122053 80.84923 
L 312.560044 141.747728 
L 311.997803 191.570413 
L 311.435794 221.538341 
L 310.985954 236.057643 
L 310.536347 244.682305 
L 310.086507 249.53173 
L 309.6369 252.358087 
L 309.18706 254.15299 
L 308.737454 255.158368 
L 308.400249 255.498805 
L 308.175212 255.485043 
L 307.950409 255.264845 
L 307.613203 254.616565 
L 307.275765 253.564105 
L 306.826158 251.34112 
L 306.151515 246.580064 
L 305.027265 236.566851 
L 303.903015 224.816683 
L 301.879318 200.771645 
L 301.092272 188.155171 
L 300.417629 172.981794 
L 299.85562 155.47171 
L 299.293379 130.491556 
L 298.731137 94.417481 
L 297.944325 40.443629 
L 297.719289 34.778602 
L 297.606887 34.864798 
L 297.382083 40.778272 
L 297.044878 60.656208 
L 295.58319 162.224689 
L 294.90878 189.724806 
L 294.121735 211.88802 
L 293.222288 231.072043 
L 292.322841 245.803576 
L 291.535796 255.24239 
L 290.861152 260.86613 
L 290.299144 263.837354 
L 289.736902 265.603284 
L 289.062492 267.047609 
L 287.038562 270.597576 
L 283.665811 278.187162 
L 283.103569 278.588444 
L 282.541561 278.983931 
L 282.204123 279.50328 
L 281.304676 281.194603 
L 280.517864 281.856646 
L 278.943774 282.79973 
L 276.133032 284.503367 
L 274.334138 285.045894 
L 271.973236 285.279855 
L 270.848986 285.373294 
L 270.174342 285.492085 
L 268.712654 285.54134 
L 267.476002 285.786889 
L 266.464153 285.955659 
L 265.677108 286.130949 
L 263.203804 286.365633 
L 260.393062 286.301167 
L 259.943222 286.304789 
L 259.043775 286.466316 
L 258.25673 286.496014 
L 257.694722 286.515571 
L 257.020078 286.529333 
L 255.783426 286.594523 
L 255.108783 286.614805 
L 250.724184 286.846592 
L 249.937139 286.925545 
L 249.037692 286.833554 
L 247.463602 286.908885 
L 246.67679 286.935685 
L 245.327503 286.973351 
L 244.203253 287.011016 
L 243.641011 287.068963 
L 242.067154 286.905987 
L 240.830269 286.993632 
L 239.81842 286.955242 
L 237.232715 286.856008 
L 236.670473 286.952345 
L 235.32142 286.69086 
L 234.759178 286.66913 
L 233.747329 286.838624 
L 232.173239 286.658989 
L 231.386427 286.877014 
L 230.374579 286.698103 
L 228.800488 286.716936 
L 228.125845 286.600318 
L 221.042905 286.59235 
L 220.368262 286.728525 
L 218.794405 286.585107 
L 217.894958 286.480803 
L 217.107913 286.345352 
L 216.208466 286.506879 
L 215.421421 286.65247 
L 213.959966 286.46704 
L 213.510126 286.389536 
L 212.723081 286.480803 
L 211.936036 286.28161 
L 209.237928 286.451829 
L 206.876793 286.430823 
L 206.427186 286.436618 
L 205.752543 286.334487 
L 203.054202 286.465592 
L 202.379559 286.54382 
L 198.782005 286.204831 
L 197.207915 286.468489 
L 194.622209 286.178755 
L 192.935717 286.409818 
L 192.261074 286.286681 
L 190.91202 286.333763 
L 190.349779 286.338833 
L 189.000725 286.459073 
L 188.438483 286.265675 
L 187.539037 286.404747 
L 186.864393 286.395331 
L 186.414786 286.352595 
L 185.852545 286.345352 
L 185.290536 286.296821 
L 184.053651 286.361287 
L 183.491642 286.222939 
L 179.893855 286.361287 
L 178.882007 286.327244 
L 178.094962 286.453278 
L 177.532953 286.463419 
L 176.296068 286.379396 
L 175.509256 286.433721 
L 174.609809 286.315654 
L 174.159969 286.405472 
L 173.597961 286.364909 
L 172.810916 286.589453 
L 171.911469 286.404747 
L 171.236825 286.408369 
L 170.112575 286.330141 
L 169.100727 286.585831 
L 168.650887 286.458348 
L 167.526636 286.62567 
L 166.964628 286.538749 
L 165.390538 286.743012 
L 164.828529 286.757499 
L 164.378689 286.719109 
L 163.591644 286.518468 
L 163.029636 286.640156 
L 162.242591 286.898744 
L 161.680349 286.741563 
L 161.005705 286.518468 
L 160.218893 286.708968 
L 159.656652 286.81617 
L 157.745356 286.767639 
L 156.283901 286.801683 
L 155.721659 286.508327 
L 154.260204 286.727077 
L 152.686114 286.811824 
L 151.112024 286.568447 
L 150.437613 286.759672 
L 149.875372 286.844419 
L 148.863523 286.733596 
L 147.739273 286.900193 
L 146.727425 286.58221 
L 146.277585 286.620599 
L 145.490539 286.390985 
L 145.153334 286.65247 
L 144.703728 287.0284 
L 144.478691 286.981318 
L 143.804281 286.454727 
L 142.904834 286.65754 
L 142.342592 286.486597 
L 141.555547 286.388812 
L 140.656333 285.919443 
L 140.094092 285.96073 
L 139.756887 285.703591 
L 139.307047 285.34432 
L 138.969842 285.432689 
L 138.632403 285.544961 
L 138.295198 285.368223 
L 137.957993 285.201626 
L 137.732956 285.32259 
L 137.28335 285.718077 
L 136.946145 285.649266 
L 136.608706 285.528302 
L 136.271501 285.699245 
L 135.484456 286.44024 
L 135.259653 286.370704 
L 134.360206 285.591319 
L 133.910599 285.844112 
L 133.573161 285.899161 
L 133.235956 285.555826 
L 132.898517 285.228427 
L 132.44891 285.152372 
L 131.437062 285.075592 
L 130.537615 285.827452 
L 129.975607 285.925962 
L 129.413365 285.916545 
L 128.513918 286.295373 
L 127.839275 285.815863 
L 127.50207 285.954211 
L 127.05223 286.23815 
L 126.265418 286.314205 
L 125.815578 286.68579 
L 125.590774 286.631464 
L 124.803729 286.093283 
L 124.466524 286.347525 
L 124.016684 286.754601 
L 123.791881 286.758223 
L 123.117237 286.446035 
L 122.442827 286.675649 
L 121.318344 286.162819 
L 120.643933 286.071553 
L 120.194093 286.007087 
L 119.856888 286.170787 
L 119.294647 286.572793 
L 119.069843 286.443137 
L 118.3952 285.778922 
L 118.057995 285.868015 
L 117.608388 286.059964 
L 117.27095 285.880329 
L 116.933744 285.660855 
L 116.596306 285.730391 
L 116.259101 285.797754 
L 115.809494 285.545686 
L 115.134851 285.233497 
L 114.797646 285.23567 
L 114.123002 285.455868 
L 113.111154 285.308828 
L 112.661314 285.309552 
L 112.324109 285.599286 
L 111.649465 286.403299 
L 111.31226 286.431548 
L 110.975055 286.201209 
L 110.075608 285.074143 
L 109.625768 284.642439 
L 108.838956 284.479464 
L 108.501518 284.580871 
L 107.93951 284.807588 
L 106.815026 285.058932 
L 106.365419 285.440657 
L 105.578374 285.505123 
L 104.903731 286.025196 
L 104.566526 286.094732 
L 103.891882 285.740532 
L 103.554677 286.279437 
L 103.217472 286.682168 
L 102.992669 286.490943 
L 102.542829 285.918718 
L 102.318025 285.907129 
L 101.193775 286.356941 
L 100.743935 286.471386 
L 100.294328 286.580761 
L 99.95689 286.491668 
L 99.057443 285.966524 
L 98.720238 286.283783 
L 98.270398 286.729974 
L 97.933193 286.746634 
L 97.371184 286.756774 
L 97.033746 286.693033 
L 96.359103 286.350422 
L 95.234853 286.766191 
L 94.672844 286.982043 
L 93.548594 286.989286 
L 93.211156 287.008843 
L 91.862102 286.711866 
L 91.29986 286.784299 
L 90.737852 286.787921 
L 89.838405 287.173992 
L 89.388565 286.695206 
L 89.05136 286.464143 
L 88.713921 286.519917 
L 88.264315 286.60394 
L 87.702306 286.61408 
L 87.027663 286.733596 
L 86.465421 286.580761 
L 86.128216 286.574966 
L 85.341171 286.872668 
L 84.104519 286.308411 
L 83.205072 286.8379 
L 82.64283 286.867598 
L 82.080822 286.709693 
L 81.51858 287.055925 
L 81.181375 287.125461 
L 80.843937 286.820516 
L 80.39433 286.384466 
L 79.494883 286.267848 
L 79.27008 286.571345 
L 78.932641 287.301475 
L 78.82024 287.352178 
L 78.595436 287.103007 
L 78.258231 286.617702 
L 78.033195 286.544544 
L 77.471186 286.569896 
L 76.796543 286.242496 
L 76.459338 286.484424 
L 76.121899 286.667681 
L 75.335087 286.66913 
L 74.885247 286.820516 
L 74.210837 286.760396 
L 73.760997 286.989286 
L 73.423792 286.835003 
L 72.86155 286.417061 
L 72.524345 286.527884 
L 71.962104 286.758947 
L 70.500648 286.948723 
L 69.151361 286.569172 
L 68.701755 286.460521 
L 68.027111 286.164992 
L 67.689906 286.387363 
L 67.240066 286.791542 
L 66.902861 286.758947 
L 66.453254 286.687238 
L 65.778611 286.743736 
L 64.766762 286.558306 
L 62.855467 287.041438 
L 62.180824 286.722731 
L 61.393778 286.779229 
L 60.719368 286.482976 
L 60.38193 286.738666 
L 60.044725 286.96828 
L 59.70752 286.907436 
L 59.032876 286.69593 
L 58.358233 286.764742 
L 57.458786 287.027676 
L 56.446938 286.974075 
L 55.772294 287.050855 
L 54.760446 286.976248 
L 54.198437 287.008119 
L 53.523794 286.893674 
L 52.736749 287.000875 
L 52.17474 287.053752 
L 51.500097 287.121839 
L 50.375847 287.012465 
L 49.701203 287.205138 
L 48.239515 287.042887 
L 47.340301 286.985664 
L 46.553256 286.866149 
L 45.991014 286.807478 
L 45.091567 286.944377 
L 44.754362 286.965383 
L 44.754362 286.965383 
" clip-path="url(#p7e61a5a387)" style="fill: none; stroke: #ed7d31; stroke-width: 0.8; stroke-linecap: square"/>
   </g>
   <g id="patch_9">
    <path d="M 44.782813 312.94675 
L 44.782813 21.5325 
" style="fill: none; stroke: #000000; stroke-width: 0.8; stroke-linejoin: miter; stroke-linecap: square"/>
   </g>
   <g id="patch_10">
    <path d="M 44.782813 312.94675 
L 849.317813 312.94675 
" style="fill: none; stroke: #000000; stroke-width: 0.8; stroke-linejoin: miter; stroke-linecap: square"/>
   </g>
   <g id="text_18">
    <!-- O–H stretch -->
    <g style="fill: #555555" transform="translate(186.383584 68.890783) rotate(-90) scale(0.07 -0.07)">
     <defs>
      <path id="TimesNewRomanPSMT-4f" d="M 2341 4334 
Q 3166 4334 3770 3707 
Q 4375 3081 4375 2144 
Q 4375 1178 3765 540 
Q 3156 -97 2291 -97 
Q 1416 -97 820 525 
Q 225 1147 225 2134 
Q 225 3144 913 3781 
Q 1509 4334 2341 4334 
z
M 2281 4106 
Q 1713 4106 1369 3684 
Q 941 3159 941 2147 
Q 941 1109 1384 550 
Q 1725 125 2284 125 
Q 2881 125 3270 590 
Q 3659 1056 3659 2059 
Q 3659 3147 3231 3681 
Q 2888 4106 2281 4106 
z
" transform="scale(0.015625)"/>
      <path id="TimesNewRomanPSMT-2013" d="M 3253 1416 
L -56 1416 
L -56 1644 
L 3253 1644 
L 3253 1416 
z
" transform="scale(0.015625)"/>
      <path id="TimesNewRomanPSMT-48" d="M 1316 2272 
L 3284 2272 
L 3284 3484 
Q 3284 3809 3244 3913 
Q 3213 3991 3113 4047 
Q 2978 4122 2828 4122 
L 2678 4122 
L 2678 4238 
L 4491 4238 
L 4491 4122 
L 4341 4122 
Q 4191 4122 4056 4050 
Q 3956 4000 3920 3898 
Q 3884 3797 3884 3484 
L 3884 750 
Q 3884 428 3925 325 
Q 3956 247 4053 191 
Q 4191 116 4341 116 
L 4491 116 
L 4491 0 
L 2678 0 
L 2678 116 
L 2828 116 
Q 3088 116 3206 269 
Q 3284 369 3284 750 
L 3284 2041 
L 1316 2041 
L 1316 750 
Q 1316 428 1356 325 
Q 1388 247 1488 191 
Q 1622 116 1772 116 
L 1925 116 
L 1925 0 
L 109 0 
L 109 116 
L 259 116 
Q 522 116 641 269 
Q 716 369 716 750 
L 716 3484 
Q 716 3809 675 3913 
Q 644 3991 547 4047 
Q 409 4122 259 4122 
L 109 4122 
L 109 4238 
L 1925 4238 
L 1925 4122 
L 1772 4122 
Q 1622 4122 1488 4050 
Q 1391 4000 1353 3898 
Q 1316 3797 1316 3484 
L 1316 2272 
z
" transform="scale(0.015625)"/>
      <path id="TimesNewRomanPSMT-74" d="M 1031 3803 
L 1031 2863 
L 1700 2863 
L 1700 2644 
L 1031 2644 
L 1031 788 
Q 1031 509 1111 412 
Q 1191 316 1316 316 
Q 1419 316 1516 380 
Q 1613 444 1666 569 
L 1788 569 
Q 1678 263 1478 108 
Q 1278 -47 1066 -47 
Q 922 -47 784 33 
Q 647 113 581 261 
Q 516 409 516 719 
L 516 2644 
L 63 2644 
L 63 2747 
Q 234 2816 414 2980 
Q 594 3144 734 3369 
Q 806 3488 934 3803 
L 1031 3803 
z
" transform="scale(0.015625)"/>
      <path id="TimesNewRomanPSMT-68" d="M 1041 4444 
L 1041 2350 
Q 1388 2731 1591 2839 
Q 1794 2947 1997 2947 
Q 2241 2947 2416 2812 
Q 2591 2678 2675 2391 
Q 2734 2191 2734 1659 
L 2734 647 
Q 2734 375 2778 275 
Q 2809 200 2884 156 
Q 2959 113 3159 113 
L 3159 0 
L 1753 0 
L 1753 113 
L 1819 113 
Q 2019 113 2097 173 
Q 2175 234 2206 353 
Q 2216 403 2216 647 
L 2216 1659 
Q 2216 2128 2167 2275 
Q 2119 2422 2012 2495 
Q 1906 2569 1756 2569 
Q 1603 2569 1437 2487 
Q 1272 2406 1041 2159 
L 1041 647 
Q 1041 353 1073 281 
Q 1106 209 1195 161 
Q 1284 113 1503 113 
L 1503 0 
L 84 0 
L 84 113 
Q 275 113 384 172 
Q 447 203 484 290 
Q 522 378 522 647 
L 522 3238 
Q 522 3728 498 3840 
Q 475 3953 426 3993 
Q 378 4034 297 4034 
Q 231 4034 84 3984 
L 41 4094 
L 897 4444 
L 1041 4444 
z
" transform="scale(0.015625)"/>
     </defs>
     <use xlink:href="#TimesNewRomanPSMT-4f"/>
     <use xlink:href="#TimesNewRomanPSMT-2013" x="72.216797"/>
     <use xlink:href="#TimesNewRomanPSMT-48" x="122.216797"/>
     <use xlink:href="#TimesNewRomanPSMT-20" x="194.433594"/>
     <use xlink:href="#TimesNewRomanPSMT-73" x="219.433594"/>
     <use xlink:href="#TimesNewRomanPSMT-74" x="258.349609"/>
     <use xlink:href="#TimesNewRomanPSMT-72" x="286.132812"/>
     <use xlink:href="#TimesNewRomanPSMT-65" x="319.433594"/>
     <use xlink:href="#TimesNewRomanPSMT-74" x="363.818359"/>
     <use xlink:href="#TimesNewRomanPSMT-63" x="391.601562"/>
     <use xlink:href="#TimesNewRomanPSMT-68" x="435.986328"/>
    </g>
   </g>
   <g id="text_19">
    <!-- C–H stretch -->
    <g style="fill: #555555" transform="translate(297.152895 68.504689) rotate(-90) scale(0.07 -0.07)">
     <defs>
      <path id="TimesNewRomanPSMT-43" d="M 3853 4334 
L 3950 2894 
L 3853 2894 
Q 3659 3541 3300 3825 
Q 2941 4109 2438 4109 
Q 2016 4109 1675 3895 
Q 1334 3681 1139 3212 
Q 944 2744 944 2047 
Q 944 1472 1128 1050 
Q 1313 628 1683 403 
Q 2053 178 2528 178 
Q 2941 178 3256 354 
Q 3572 531 3950 1056 
L 4047 994 
Q 3728 428 3303 165 
Q 2878 -97 2294 -97 
Q 1241 -97 663 684 
Q 231 1266 231 2053 
Q 231 2688 515 3219 
Q 800 3750 1298 4042 
Q 1797 4334 2388 4334 
Q 2847 4334 3294 4109 
Q 3425 4041 3481 4041 
Q 3566 4041 3628 4100 
Q 3709 4184 3744 4334 
L 3853 4334 
z
" transform="scale(0.015625)"/>
     </defs>
     <use xlink:href="#TimesNewRomanPSMT-43"/>
     <use xlink:href="#TimesNewRomanPSMT-2013" x="66.699219"/>
     <use xlink:href="#TimesNewRomanPSMT-48" x="116.699219"/>
     <use xlink:href="#TimesNewRomanPSMT-20" x="188.916016"/>
     <use xlink:href="#TimesNewRomanPSMT-73" x="213.916016"/>
     <use xlink:href="#TimesNewRomanPSMT-74" x="252.832031"/>
     <use xlink:href="#TimesNewRomanPSMT-72" x="280.615234"/>
     <use xlink:href="#TimesNewRomanPSMT-65" x="313.916016"/>
     <use xlink:href="#TimesNewRomanPSMT-74" x="358.300781"/>
     <use xlink:href="#TimesNewRomanPSMT-63" x="386.083984"/>
     <use xlink:href="#TimesNewRomanPSMT-68" x="430.46875"/>
    </g>
   </g>
   <g id="text_20">
    <!-- C=O stretch -->
    <g style="fill: #555555" transform="translate(579.323142 68.952033) rotate(-90) scale(0.07 -0.07)">
     <defs>
      <path id="TimesNewRomanPSMT-3d" d="M 116 2759 
L 3488 2759 
L 3488 2503 
L 116 2503 
L 116 2759 
z
M 116 1741 
L 3488 1741 
L 3488 1484 
L 116 1484 
L 116 1741 
z
" transform="scale(0.015625)"/>
     </defs>
     <use xlink:href="#TimesNewRomanPSMT-43"/>
     <use xlink:href="#TimesNewRomanPSMT-3d" x="66.699219"/>
     <use xlink:href="#TimesNewRomanPSMT-4f" x="123.095703"/>
     <use xlink:href="#TimesNewRomanPSMT-20" x="195.3125"/>
     <use xlink:href="#TimesNewRomanPSMT-73" x="220.3125"/>
     <use xlink:href="#TimesNewRomanPSMT-74" x="259.228516"/>
     <use xlink:href="#TimesNewRomanPSMT-72" x="287.011719"/>
     <use xlink:href="#TimesNewRomanPSMT-65" x="320.3125"/>
     <use xlink:href="#TimesNewRomanPSMT-74" x="364.697266"/>
     <use xlink:href="#TimesNewRomanPSMT-63" x="392.480469"/>
     <use xlink:href="#TimesNewRomanPSMT-68" x="436.865234"/>
    </g>
   </g>
   <g id="text_21">
    <!-- C=C stretch -->
    <g style="fill: #555555" transform="translate(596.813033 68.565939) rotate(-90) scale(0.07 -0.07)">
     <use xlink:href="#TimesNewRomanPSMT-43"/>
     <use xlink:href="#TimesNewRomanPSMT-3d" x="66.699219"/>
     <use xlink:href="#TimesNewRomanPSMT-43" x="123.095703"/>
     <use xlink:href="#TimesNewRomanPSMT-20" x="189.794922"/>
     <use xlink:href="#TimesNewRomanPSMT-73" x="214.794922"/>
     <use xlink:href="#TimesNewRomanPSMT-74" x="253.710938"/>
     <use xlink:href="#TimesNewRomanPSMT-72" x="281.494141"/>
     <use xlink:href="#TimesNewRomanPSMT-65" x="314.794922"/>
     <use xlink:href="#TimesNewRomanPSMT-74" x="359.179688"/>
     <use xlink:href="#TimesNewRomanPSMT-63" x="386.962891"/>
     <use xlink:href="#TimesNewRomanPSMT-68" x="431.347656"/>
    </g>
   </g>
   <g id="text_22">
    <!-- C–H bend -->
    <g style="fill: #555555" transform="translate(649.282707 63.452658) rotate(-90) scale(0.07 -0.07)">
     <defs>
      <path id="TimesNewRomanPSMT-64" d="M 2222 322 
Q 2013 103 1813 7 
Q 1613 -88 1381 -88 
Q 913 -88 563 304 
Q 213 697 213 1313 
Q 213 1928 600 2439 
Q 988 2950 1597 2950 
Q 1975 2950 2222 2709 
L 2222 3238 
Q 2222 3728 2198 3840 
Q 2175 3953 2125 3993 
Q 2075 4034 2000 4034 
Q 1919 4034 1784 3984 
L 1744 4094 
L 2597 4444 
L 2738 4444 
L 2738 1134 
Q 2738 631 2761 520 
Q 2784 409 2836 365 
Q 2888 322 2956 322 
Q 3041 322 3181 375 
L 3216 266 
L 2366 -88 
L 2222 -88 
L 2222 322 
z
M 2222 541 
L 2222 2016 
Q 2203 2228 2109 2403 
Q 2016 2578 1861 2667 
Q 1706 2756 1559 2756 
Q 1284 2756 1069 2509 
Q 784 2184 784 1559 
Q 784 928 1059 592 
Q 1334 256 1672 256 
Q 1956 256 2222 541 
z
" transform="scale(0.015625)"/>
     </defs>
     <use xlink:href="#TimesNewRomanPSMT-43"/>
     <use xlink:href="#TimesNewRomanPSMT-2013" x="66.699219"/>
     <use xlink:href="#TimesNewRomanPSMT-48" x="116.699219"/>
     <use xlink:href="#TimesNewRomanPSMT-20" x="188.916016"/>
     <use xlink:href="#TimesNewRomanPSMT-62" x="213.916016"/>
     <use xlink:href="#TimesNewRomanPSMT-65" x="263.916016"/>
     <use xlink:href="#TimesNewRomanPSMT-6e" x="308.300781"/>
     <use xlink:href="#TimesNewRomanPSMT-64" x="358.300781"/>
    </g>
   </g>
   <g id="text_23">
    <!-- C–O stretch -->
    <g style="fill: #555555" transform="translate(711.080323 68.504689) rotate(-90) scale(0.07 -0.07)">
     <use xlink:href="#TimesNewRomanPSMT-43"/>
     <use xlink:href="#TimesNewRomanPSMT-2013" x="66.699219"/>
     <use xlink:href="#TimesNewRomanPSMT-4f" x="116.699219"/>
     <use xlink:href="#TimesNewRomanPSMT-20" x="188.916016"/>
     <use xlink:href="#TimesNewRomanPSMT-73" x="213.916016"/>
     <use xlink:href="#TimesNewRomanPSMT-74" x="252.832031"/>
     <use xlink:href="#TimesNewRomanPSMT-72" x="280.615234"/>
     <use xlink:href="#TimesNewRomanPSMT-65" x="313.916016"/>
     <use xlink:href="#TimesNewRomanPSMT-74" x="358.300781"/>
     <use xlink:href="#TimesNewRomanPSMT-63" x="386.083984"/>
     <use xlink:href="#TimesNewRomanPSMT-68" x="430.46875"/>
    </g>
   </g>
   <g id="text_24">
    <!-- Paper -->
    <g transform="translate(433.389063 15.5325) scale(0.12 -0.12)">
     <defs>
      <path id="TimesNewRomanPSMT-50" d="M 1313 1984 
L 1313 750 
Q 1313 350 1400 253 
Q 1519 116 1759 116 
L 1922 116 
L 1922 0 
L 106 0 
L 106 116 
L 266 116 
Q 534 116 650 291 
Q 713 388 713 750 
L 713 3488 
Q 713 3888 628 3984 
Q 506 4122 266 4122 
L 106 4122 
L 106 4238 
L 1659 4238 
Q 2228 4238 2556 4120 
Q 2884 4003 3109 3725 
Q 3334 3447 3334 3066 
Q 3334 2547 2992 2222 
Q 2650 1897 2025 1897 
Q 1872 1897 1694 1919 
Q 1516 1941 1313 1984 
z
M 1313 2163 
Q 1478 2131 1606 2115 
Q 1734 2100 1825 2100 
Q 2150 2100 2386 2351 
Q 2622 2603 2622 3003 
Q 2622 3278 2509 3514 
Q 2397 3750 2190 3867 
Q 1984 3984 1722 3984 
Q 1563 3984 1313 3925 
L 1313 2163 
z
" transform="scale(0.015625)"/>
      <path id="TimesNewRomanPSMT-70" d="M -6 2578 
L 875 2934 
L 994 2934 
L 994 2266 
Q 1216 2644 1439 2795 
Q 1663 2947 1909 2947 
Q 2341 2947 2628 2609 
Q 2981 2197 2981 1534 
Q 2981 794 2556 309 
Q 2206 -88 1675 -88 
Q 1444 -88 1275 -22 
Q 1150 25 994 166 
L 994 -706 
Q 994 -1000 1030 -1079 
Q 1066 -1159 1155 -1206 
Q 1244 -1253 1478 -1253 
L 1478 -1369 
L -22 -1369 
L -22 -1253 
L 56 -1253 
Q 228 -1256 350 -1188 
Q 409 -1153 442 -1076 
Q 475 -1000 475 -688 
L 475 2019 
Q 475 2297 450 2372 
Q 425 2447 370 2484 
Q 316 2522 222 2522 
Q 147 2522 31 2478 
L -6 2578 
z
M 994 2081 
L 994 1013 
Q 994 666 1022 556 
Q 1066 375 1236 237 
Q 1406 100 1666 100 
Q 1978 100 2172 344 
Q 2425 663 2425 1241 
Q 2425 1897 2138 2250 
Q 1938 2494 1663 2494 
Q 1513 2494 1366 2419 
Q 1253 2363 994 2081 
z
" transform="scale(0.015625)"/>
     </defs>
     <use xlink:href="#TimesNewRomanPSMT-50"/>
     <use xlink:href="#TimesNewRomanPSMT-61" x="55.615234"/>
     <use xlink:href="#TimesNewRomanPSMT-70" x="100"/>
     <use xlink:href="#TimesNewRomanPSMT-65" x="150"/>
     <use xlink:href="#TimesNewRomanPSMT-72" x="194.384766"/>
    </g>
   </g>
   <g id="legend_1">
    <g id="patch_11">
     <path d="M 395.183125 57.810625 
L 498.9175 57.810625 
Q 500.9175 57.810625 500.9175 55.810625 
L 500.9175 28.5325 
Q 500.9175 26.5325 498.9175 26.5325 
L 395.183125 26.5325 
Q 393.183125 26.5325 393.183125 28.5325 
L 393.183125 55.810625 
Q 393.183125 57.810625 395.183125 57.810625 
z
" style="fill: #f6f8fa; opacity: 0.8; stroke: #d0d7de; stroke-linejoin: miter"/>
    </g>
    <g id="line2d_26">
     <path d="M 397.183125 34.0325 
L 407.183125 34.0325 
L 417.183125 34.0325 
" style="fill: none; stroke: #d95f5f; stroke-width: 0.8; stroke-linecap: square"/>
    </g>
    <g id="text_25">
     <!-- Paper -->
     <g transform="translate(425.183125 37.5325) scale(0.1 -0.1)">
      <use xlink:href="#TimesNewRomanPSMT-50"/>
      <use xlink:href="#TimesNewRomanPSMT-61" x="55.615234"/>
      <use xlink:href="#TimesNewRomanPSMT-70" x="100"/>
      <use xlink:href="#TimesNewRomanPSMT-65" x="150"/>
      <use xlink:href="#TimesNewRomanPSMT-72" x="194.384766"/>
     </g>
    </g>
    <g id="line2d_27">
     <path d="M 397.183125 48.171562 
L 407.183125 48.171562 
L 417.183125 48.171562 
" style="fill: none; stroke: #ed7d31; stroke-width: 0.8; stroke-linecap: square"/>
    </g>
    <g id="text_26">
     <!-- Paper-Plastic Cup -->
     <g transform="translate(425.183125 51.671562) scale(0.1 -0.1)">
      <defs>
       <path id="TimesNewRomanPSMT-2d" d="M 259 1672 
L 1875 1672 
L 1875 1200 
L 259 1200 
L 259 1672 
z
" transform="scale(0.015625)"/>
       <path id="TimesNewRomanPSMT-6c" d="M 1184 4444 
L 1184 647 
Q 1184 378 1223 290 
Q 1263 203 1344 158 
Q 1425 113 1647 113 
L 1647 0 
L 244 0 
L 244 113 
Q 441 113 512 153 
Q 584 194 625 287 
Q 666 381 666 647 
L 666 3247 
Q 666 3731 644 3842 
Q 622 3953 573 3993 
Q 525 4034 450 4034 
Q 369 4034 244 3984 
L 191 4094 
L 1044 4444 
L 1184 4444 
z
" transform="scale(0.015625)"/>
       <path id="TimesNewRomanPSMT-69" d="M 928 4444 
Q 1059 4444 1151 4351 
Q 1244 4259 1244 4128 
Q 1244 3997 1151 3903 
Q 1059 3809 928 3809 
Q 797 3809 703 3903 
Q 609 3997 609 4128 
Q 609 4259 701 4351 
Q 794 4444 928 4444 
z
M 1188 2947 
L 1188 647 
Q 1188 378 1227 289 
Q 1266 200 1342 156 
Q 1419 113 1622 113 
L 1622 0 
L 231 0 
L 231 113 
Q 441 113 512 153 
Q 584 194 626 287 
Q 669 381 669 647 
L 669 1750 
Q 669 2216 641 2353 
Q 619 2453 572 2492 
Q 525 2531 444 2531 
Q 356 2531 231 2484 
L 188 2597 
L 1050 2947 
L 1188 2947 
z
" transform="scale(0.015625)"/>
      </defs>
      <use xlink:href="#TimesNewRomanPSMT-50"/>
      <use xlink:href="#TimesNewRomanPSMT-61" x="55.615234"/>
      <use xlink:href="#TimesNewRomanPSMT-70" x="100"/>
      <use xlink:href="#TimesNewRomanPSMT-65" x="150"/>
      <use xlink:href="#TimesNewRomanPSMT-72" x="194.384766"/>
      <use xlink:href="#TimesNewRomanPSMT-2d" x="225.685547"/>
      <use xlink:href="#TimesNewRomanPSMT-50" x="258.986328"/>
      <use xlink:href="#TimesNewRomanPSMT-6c" x="314.601562"/>
      <use xlink:href="#TimesNewRomanPSMT-61" x="342.384766"/>
      <use xlink:href="#TimesNewRomanPSMT-73" x="386.769531"/>
      <use xlink:href="#TimesNewRomanPSMT-74" x="425.685547"/>
      <use xlink:href="#TimesNewRomanPSMT-69" x="453.46875"/>
      <use xlink:href="#TimesNewRomanPSMT-63" x="481.251953"/>
      <use xlink:href="#TimesNewRomanPSMT-20" x="525.636719"/>
      <use xlink:href="#TimesNewRomanPSMT-43" x="550.636719"/>
      <use xlink:href="#TimesNewRomanPSMT-75" x="617.335938"/>
      <use xlink:href="#TimesNewRomanPSMT-70" x="667.335938"/>
     </g>
    </g>
   </g>
  </g>
 </g>
 <defs>
  <clipPath id="p7e61a5a387">
   <rect x="44.782813" y="21.5325" width="804.535" height="291.41425"/>
  </clipPath>
 </defs>
</svg>
