<?xml version="1.0" encoding="utf-8" standalone="no"?>
<!DOCTYPE svg PUBLIC "-//W3C//DTD SVG 1.1//EN"
  "http://www.w3.org/Graphics/SVG/1.1/DTD/svg11.dtd">
<svg xmlns:xlink="http://www.w3.org/1999/xlink" width="855.752812pt" height="348.339312pt" viewBox="0 0 855.752812 348.339312" xmlns="http://www.w3.org/2000/svg" version="1.1">
 <metadata>
  <rdf:RDF xmlns:dc="http://purl.org/dc/elements/1.1/" xmlns:cc="http://creativecommons.org/ns#" xmlns:rdf="http://www.w3.org/1999/02/22-rdf-syntax-ns#">
   <cc:Work>
    <dc:type rdf:resource="http://purl.org/dc/dcmitype/StillImage"/>
    <dc:date>2026-04-05T20:24:39.278756</dc:date>
    <dc:format>image/svg+xml</dc:format>
    <dc:creator>
     <cc:Agent>
      <dc:title>Matplotlib v3.9.4, https://matplotlib.org/</dc:title>
     </cc:Agent>
    </dc:creator>
   </cc:Work>
  </rdf:RDF>
 </metadata>
 <defs>
  <style type="text/css">*{stroke-linejoin: round; stroke-linecap: butt}</style>
 </defs>
 <g id="figure_1">
  <g id="patch_1">
   <path d="M 0 348.339312 
L 855.752812 348.339312 
L 855.752812 0 
L 0 0 
z
" style="fill: #f6f8fa"/>
  </g>
  <g id="axes_1">
   <g id="patch_2">
    <path d="M 44.782813 309.9565 
L 848.552813 309.9565 
L 848.552813 21.5325 
L 44.782813 21.5325 
z
" style="fill: #f6f8fa"/>
   </g>
   <g id="patch_3">
    <path d="M 231.164262 309.9565 
L 137.973537 309.9565 
L 137.973537 21.5325 
L 231.164262 21.5325 
z
" clip-path="url(#pe16f77c5b3)" style="fill: #cce5ff; opacity: 0.35; stroke: #cce5ff; stroke-linejoin: miter"/>
   </g>
   <g id="patch_4">
    <path d="M 312.706146 309.9565 
L 277.759624 309.9565 
L 277.759624 21.5325 
L 312.706146 21.5325 
z
" clip-path="url(#pe16f77c5b3)" style="fill: #d4edda; opacity: 0.35; stroke: #d4edda; stroke-linejoin: miter"/>
   </g>
   <g id="patch_5">
    <path d="M 585.289015 309.9565 
L 568.980639 309.9565 
L 568.980639 21.5325 
L 585.289015 21.5325 
z
" clip-path="url(#pe16f77c5b3)" style="fill: #f8d7da; opacity: 0.35; stroke: #f8d7da; stroke-linejoin: miter"/>
   </g>
   <g id="patch_6">
    <path d="M 603.92716 309.9565 
L 585.289015 309.9565 
L 585.289015 21.5325 
L 603.92716 21.5325 
z
" clip-path="url(#pe16f77c5b3)" style="fill: #fff3cd; opacity: 0.35; stroke: #fff3cd; stroke-linejoin: miter"/>
   </g>
   <g id="patch_7">
    <path d="M 662.171363 309.9565 
L 631.884378 309.9565 
L 631.884378 21.5325 
L 662.171363 21.5325 
z
" clip-path="url(#pe16f77c5b3)" style="fill: #fce4b8; opacity: 0.35; stroke: #fce4b8; stroke-linejoin: miter"/>
   </g>
   <g id="patch_8">
    <path d="M 743.713247 309.9565 
L 673.820204 309.9565 
L 673.820204 21.5325 
L 743.713247 21.5325 
z
" clip-path="url(#pe16f77c5b3)" style="fill: #e2d9f3; opacity: 0.35; stroke: #e2d9f3; stroke-linejoin: miter"/>
   </g>
   <g id="matplotlib.axis_1">
    <g id="xtick_1">
     <g id="line2d_1">
      <defs>
       <path id="mb64b319af1" d="M 0 0 
L 0 3.5 
" style="stroke: #000000; stroke-width: 0.8"/>
      </defs>
      <g>
       <use xlink:href="#mb64b319af1" x="743.713247" y="309.9565" style="stroke: #000000; stroke-width: 0.8"/>
      </g>
     </g>
     <g id="text_1">
      <!-- 1,000 -->
      <g transform="translate(732.463247 323.90025) scale(0.1 -0.1)">
       <defs>
        <path id="TimesNewRomanPSMT-31" d="M 750 3822 
L 1781 4325 
L 1884 4325 
L 1884 747 
Q 1884 391 1914 303 
Q 1944 216 2037 169 
Q 2131 122 2419 116 
L 2419 0 
L 825 0 
L 825 116 
Q 1125 122 1212 167 
Q 1300 213 1334 289 
Q 1369 366 1369 747 
L 1369 3034 
Q 1369 3497 1338 3628 
Q 1316 3728 1258 3775 
Q 1200 3822 1119 3822 
Q 1003 3822 797 3725 
L 750 3822 
z
" transform="scale(0.015625)"/>
        <path id="TimesNewRomanPSMT-2c" d="M 344 -1066 
L 344 -928 
Q 666 -822 842 -598 
Q 1019 -375 1019 -125 
Q 1019 -66 991 -25 
Q 969 3 947 3 
Q 913 3 797 -59 
Q 741 -88 678 -88 
Q 525 -88 434 3 
Q 344 94 344 253 
Q 344 406 461 515 
Q 578 625 747 625 
Q 953 625 1114 445 
Q 1275 266 1275 -31 
Q 1275 -353 1051 -629 
Q 828 -906 344 -1066 
z
" transform="scale(0.015625)"/>
        <path id="TimesNewRomanPSMT-30" d="M 231 2094 
Q 231 2819 450 3342 
Q 669 3866 1031 4122 
Q 1313 4325 1613 4325 
Q 2100 4325 2488 3828 
Q 2972 3213 2972 2159 
Q 2972 1422 2759 906 
Q 2547 391 2217 158 
Q 1888 -75 1581 -75 
Q 975 -75 572 641 
Q 231 1244 231 2094 
z
M 844 2016 
Q 844 1141 1059 588 
Q 1238 122 1591 122 
Q 1759 122 1940 273 
Q 2122 425 2216 781 
Q 2359 1319 2359 2297 
Q 2359 3022 2209 3506 
Q 2097 3866 1919 4016 
Q 1791 4119 1609 4119 
Q 1397 4119 1231 3928 
Q 1006 3669 925 3112 
Q 844 2556 844 2016 
z
" transform="scale(0.015625)"/>
       </defs>
       <use xlink:href="#TimesNewRomanPSMT-31"/>
       <use xlink:href="#TimesNewRomanPSMT-2c" x="50"/>
       <use xlink:href="#TimesNewRomanPSMT-30" x="75"/>
       <use xlink:href="#TimesNewRomanPSMT-30" x="125"/>
       <use xlink:href="#TimesNewRomanPSMT-30" x="175"/>
      </g>
     </g>
    </g>
    <g id="xtick_2">
     <g id="line2d_2">
      <g>
       <use xlink:href="#mb64b319af1" x="627.224841" y="309.9565" style="stroke: #000000; stroke-width: 0.8"/>
      </g>
     </g>
     <g id="text_2">
      <!-- 1,500 -->
      <g transform="translate(615.974841 323.90025) scale(0.1 -0.1)">
       <defs>
        <path id="TimesNewRomanPSMT-35" d="M 2778 4238 
L 2534 3706 
L 1259 3706 
L 981 3138 
Q 1809 3016 2294 2522 
Q 2709 2097 2709 1522 
Q 2709 1188 2573 903 
Q 2438 619 2231 419 
Q 2025 219 1772 97 
Q 1413 -75 1034 -75 
Q 653 -75 479 54 
Q 306 184 306 341 
Q 306 428 378 495 
Q 450 563 559 563 
Q 641 563 702 538 
Q 763 513 909 409 
Q 1144 247 1384 247 
Q 1750 247 2026 523 
Q 2303 800 2303 1197 
Q 2303 1581 2056 1914 
Q 1809 2247 1375 2428 
Q 1034 2569 447 2591 
L 1259 4238 
L 2778 4238 
z
" transform="scale(0.015625)"/>
       </defs>
       <use xlink:href="#TimesNewRomanPSMT-31"/>
       <use xlink:href="#TimesNewRomanPSMT-2c" x="50"/>
       <use xlink:href="#TimesNewRomanPSMT-35" x="75"/>
       <use xlink:href="#TimesNewRomanPSMT-30" x="125"/>
       <use xlink:href="#TimesNewRomanPSMT-30" x="175"/>
      </g>
     </g>
    </g>
    <g id="xtick_3">
     <g id="line2d_3">
      <g>
       <use xlink:href="#mb64b319af1" x="510.736436" y="309.9565" style="stroke: #000000; stroke-width: 0.8"/>
      </g>
     </g>
     <g id="text_3">
      <!-- 2,000 -->
      <g transform="translate(499.486436 323.90025) scale(0.1 -0.1)">
       <defs>
        <path id="TimesNewRomanPSMT-32" d="M 2934 816 
L 2638 0 
L 138 0 
L 138 116 
Q 1241 1122 1691 1759 
Q 2141 2397 2141 2925 
Q 2141 3328 1894 3587 
Q 1647 3847 1303 3847 
Q 991 3847 742 3664 
Q 494 3481 375 3128 
L 259 3128 
Q 338 3706 661 4015 
Q 984 4325 1469 4325 
Q 1984 4325 2329 3994 
Q 2675 3663 2675 3213 
Q 2675 2891 2525 2569 
Q 2294 2063 1775 1497 
Q 997 647 803 472 
L 1909 472 
Q 2247 472 2383 497 
Q 2519 522 2628 598 
Q 2738 675 2819 816 
L 2934 816 
z
" transform="scale(0.015625)"/>
       </defs>
       <use xlink:href="#TimesNewRomanPSMT-32"/>
       <use xlink:href="#TimesNewRomanPSMT-2c" x="50"/>
       <use xlink:href="#TimesNewRomanPSMT-30" x="75"/>
       <use xlink:href="#TimesNewRomanPSMT-30" x="125"/>
       <use xlink:href="#TimesNewRomanPSMT-30" x="175"/>
      </g>
     </g>
    </g>
    <g id="xtick_4">
     <g id="line2d_4">
      <g>
       <use xlink:href="#mb64b319af1" x="394.24803" y="309.9565" style="stroke: #000000; stroke-width: 0.8"/>
      </g>
     </g>
     <g id="text_4">
      <!-- 2,500 -->
      <g transform="translate(382.99803 323.90025) scale(0.1 -0.1)">
       <use xlink:href="#TimesNewRomanPSMT-32"/>
       <use xlink:href="#TimesNewRomanPSMT-2c" x="50"/>
       <use xlink:href="#TimesNewRomanPSMT-35" x="75"/>
       <use xlink:href="#TimesNewRomanPSMT-30" x="125"/>
       <use xlink:href="#TimesNewRomanPSMT-30" x="175"/>
      </g>
     </g>
    </g>
    <g id="xtick_5">
     <g id="line2d_5">
      <g>
       <use xlink:href="#mb64b319af1" x="277.759624" y="309.9565" style="stroke: #000000; stroke-width: 0.8"/>
      </g>
     </g>
     <g id="text_5">
      <!-- 3,000 -->
      <g transform="translate(266.509624 323.90025) scale(0.1 -0.1)">
       <defs>
        <path id="TimesNewRomanPSMT-33" d="M 325 3431 
Q 506 3859 782 4092 
Q 1059 4325 1472 4325 
Q 1981 4325 2253 3994 
Q 2459 3747 2459 3466 
Q 2459 3003 1878 2509 
Q 2269 2356 2469 2072 
Q 2669 1788 2669 1403 
Q 2669 853 2319 450 
Q 1863 -75 997 -75 
Q 569 -75 414 31 
Q 259 138 259 259 
Q 259 350 332 419 
Q 406 488 509 488 
Q 588 488 669 463 
Q 722 447 909 348 
Q 1097 250 1169 231 
Q 1284 197 1416 197 
Q 1734 197 1970 444 
Q 2206 691 2206 1028 
Q 2206 1275 2097 1509 
Q 2016 1684 1919 1775 
Q 1784 1900 1550 2001 
Q 1316 2103 1072 2103 
L 972 2103 
L 972 2197 
Q 1219 2228 1467 2375 
Q 1716 2522 1828 2728 
Q 1941 2934 1941 3181 
Q 1941 3503 1739 3701 
Q 1538 3900 1238 3900 
Q 753 3900 428 3381 
L 325 3431 
z
" transform="scale(0.015625)"/>
       </defs>
       <use xlink:href="#TimesNewRomanPSMT-33"/>
       <use xlink:href="#TimesNewRomanPSMT-2c" x="50"/>
       <use xlink:href="#TimesNewRomanPSMT-30" x="75"/>
       <use xlink:href="#TimesNewRomanPSMT-30" x="125"/>
       <use xlink:href="#TimesNewRomanPSMT-30" x="175"/>
      </g>
     </g>
    </g>
    <g id="xtick_6">
     <g id="line2d_6">
      <g>
       <use xlink:href="#mb64b319af1" x="161.271218" y="309.9565" style="stroke: #000000; stroke-width: 0.8"/>
      </g>
     </g>
     <g id="text_6">
      <!-- 3,500 -->
      <g transform="translate(150.021218 323.90025) scale(0.1 -0.1)">
       <use xlink:href="#TimesNewRomanPSMT-33"/>
       <use xlink:href="#TimesNewRomanPSMT-2c" x="50"/>
       <use xlink:href="#TimesNewRomanPSMT-35" x="75"/>
       <use xlink:href="#TimesNewRomanPSMT-30" x="125"/>
       <use xlink:href="#TimesNewRomanPSMT-30" x="175"/>
      </g>
     </g>
    </g>
    <g id="xtick_7">
     <g id="line2d_7">
      <g>
       <use xlink:href="#mb64b319af1" x="44.782812" y="309.9565" style="stroke: #000000; stroke-width: 0.8"/>
      </g>
     </g>
     <g id="text_7">
      <!-- 4,000 -->
      <g transform="translate(33.532812 323.90025) scale(0.1 -0.1)">
       <defs>
        <path id="TimesNewRomanPSMT-34" d="M 2978 1563 
L 2978 1119 
L 2409 1119 
L 2409 0 
L 1894 0 
L 1894 1119 
L 100 1119 
L 100 1519 
L 2066 4325 
L 2409 4325 
L 2409 1563 
L 2978 1563 
z
M 1894 1563 
L 1894 3666 
L 406 1563 
L 1894 1563 
z
" transform="scale(0.015625)"/>
       </defs>
       <use xlink:href="#TimesNewRomanPSMT-34"/>
       <use xlink:href="#TimesNewRomanPSMT-2c" x="50"/>
       <use xlink:href="#TimesNewRomanPSMT-30" x="75"/>
       <use xlink:href="#TimesNewRomanPSMT-30" x="125"/>
       <use xlink:href="#TimesNewRomanPSMT-30" x="175"/>
      </g>
     </g>
    </g>
    <g id="text_8">
     <!-- Wavenumber (cm$^{-1}$) -->
     <g transform="translate(403.667813 338.939312) scale(0.1 -0.1)">
      <defs>
       <path id="TimesNewRomanPSMT-57" d="M 5991 4238 
L 5991 4122 
Q 5825 4122 5722 4062 
Q 5619 4003 5525 3841 
Q 5463 3731 5328 3319 
L 4147 -97 
L 4022 -97 
L 3056 2613 
L 2097 -97 
L 1984 -97 
L 725 3422 
Q 584 3816 547 3888 
Q 484 4006 376 4064 
Q 269 4122 84 4122 
L 84 4238 
L 1653 4238 
L 1653 4122 
L 1578 4122 
Q 1413 4122 1325 4047 
Q 1238 3972 1238 3866 
Q 1238 3756 1375 3363 
L 2209 984 
L 2913 3006 
L 2788 3363 
L 2688 3647 
Q 2622 3803 2541 3922 
Q 2500 3981 2441 4022 
Q 2363 4078 2284 4103 
Q 2225 4122 2097 4122 
L 2097 4238 
L 3747 4238 
L 3747 4122 
L 3634 4122 
Q 3459 4122 3378 4047 
Q 3297 3972 3297 3844 
Q 3297 3684 3438 3288 
L 4250 984 
L 5056 3319 
Q 5194 3706 5194 3856 
Q 5194 3928 5148 3990 
Q 5103 4053 5034 4078 
Q 4916 4122 4725 4122 
L 4725 4238 
L 5991 4238 
z
" transform="scale(0.015625)"/>
       <path id="TimesNewRomanPSMT-61" d="M 1822 413 
Q 1381 72 1269 19 
Q 1100 -59 909 -59 
Q 613 -59 420 144 
Q 228 347 228 678 
Q 228 888 322 1041 
Q 450 1253 767 1440 
Q 1084 1628 1822 1897 
L 1822 2009 
Q 1822 2438 1686 2597 
Q 1550 2756 1291 2756 
Q 1094 2756 978 2650 
Q 859 2544 859 2406 
L 866 2225 
Q 866 2081 792 2003 
Q 719 1925 600 1925 
Q 484 1925 411 2006 
Q 338 2088 338 2228 
Q 338 2497 613 2722 
Q 888 2947 1384 2947 
Q 1766 2947 2009 2819 
Q 2194 2722 2281 2516 
Q 2338 2381 2338 1966 
L 2338 994 
Q 2338 584 2353 492 
Q 2369 400 2405 369 
Q 2441 338 2488 338 
Q 2538 338 2575 359 
Q 2641 400 2828 588 
L 2828 413 
Q 2478 -56 2159 -56 
Q 2006 -56 1915 50 
Q 1825 156 1822 413 
z
M 1822 616 
L 1822 1706 
Q 1350 1519 1213 1441 
Q 966 1303 859 1153 
Q 753 1003 753 825 
Q 753 600 887 451 
Q 1022 303 1197 303 
Q 1434 303 1822 616 
z
" transform="scale(0.015625)"/>
       <path id="TimesNewRomanPSMT-76" d="M 53 2863 
L 1400 2863 
L 1400 2747 
L 1313 2747 
Q 1191 2747 1127 2687 
Q 1063 2628 1063 2528 
Q 1063 2419 1128 2269 
L 1794 688 
L 2463 2328 
Q 2534 2503 2534 2594 
Q 2534 2638 2509 2666 
Q 2475 2713 2422 2730 
Q 2369 2747 2206 2747 
L 2206 2863 
L 3141 2863 
L 3141 2747 
Q 2978 2734 2916 2681 
Q 2806 2588 2719 2369 
L 1703 -88 
L 1575 -88 
L 553 2328 
Q 484 2497 421 2570 
Q 359 2644 263 2694 
Q 209 2722 53 2747 
L 53 2863 
z
" transform="scale(0.015625)"/>
       <path id="TimesNewRomanPSMT-65" d="M 681 1784 
Q 678 1147 991 784 
Q 1303 422 1725 422 
Q 2006 422 2214 576 
Q 2422 731 2563 1106 
L 2659 1044 
Q 2594 616 2278 264 
Q 1963 -88 1488 -88 
Q 972 -88 605 314 
Q 238 716 238 1394 
Q 238 2128 614 2539 
Q 991 2950 1559 2950 
Q 2041 2950 2350 2633 
Q 2659 2316 2659 1784 
L 681 1784 
z
M 681 1966 
L 2006 1966 
Q 1991 2241 1941 2353 
Q 1863 2528 1708 2628 
Q 1553 2728 1384 2728 
Q 1125 2728 920 2526 
Q 716 2325 681 1966 
z
" transform="scale(0.015625)"/>
       <path id="TimesNewRomanPSMT-6e" d="M 1034 2341 
Q 1538 2947 1994 2947 
Q 2228 2947 2397 2830 
Q 2566 2713 2666 2444 
Q 2734 2256 2734 1869 
L 2734 647 
Q 2734 375 2778 278 
Q 2813 200 2889 156 
Q 2966 113 3172 113 
L 3172 0 
L 1756 0 
L 1756 113 
L 1816 113 
Q 2016 113 2095 173 
Q 2175 234 2206 353 
Q 2219 400 2219 647 
L 2219 1819 
Q 2219 2209 2117 2386 
Q 2016 2563 1775 2563 
Q 1403 2563 1034 2156 
L 1034 647 
Q 1034 356 1069 288 
Q 1113 197 1189 155 
Q 1266 113 1500 113 
L 1500 0 
L 84 0 
L 84 113 
L 147 113 
Q 366 113 442 223 
Q 519 334 519 647 
L 519 1709 
Q 519 2225 495 2337 
Q 472 2450 423 2490 
Q 375 2531 294 2531 
Q 206 2531 84 2484 
L 38 2597 
L 900 2947 
L 1034 2947 
L 1034 2341 
z
" transform="scale(0.015625)"/>
       <path id="TimesNewRomanPSMT-75" d="M 2709 2863 
L 2709 1128 
Q 2709 631 2732 520 
Q 2756 409 2807 365 
Q 2859 322 2928 322 
Q 3025 322 3147 375 
L 3191 266 
L 2334 -88 
L 2194 -88 
L 2194 519 
Q 1825 119 1631 15 
Q 1438 -88 1222 -88 
Q 981 -88 804 51 
Q 628 191 559 409 
Q 491 628 491 1028 
L 491 2306 
Q 491 2509 447 2587 
Q 403 2666 317 2708 
Q 231 2750 6 2747 
L 6 2863 
L 1009 2863 
L 1009 947 
Q 1009 547 1148 422 
Q 1288 297 1484 297 
Q 1619 297 1789 381 
Q 1959 466 2194 703 
L 2194 2325 
Q 2194 2569 2105 2655 
Q 2016 2741 1734 2747 
L 1734 2863 
L 2709 2863 
z
" transform="scale(0.015625)"/>
       <path id="TimesNewRomanPSMT-6d" d="M 1050 2338 
Q 1363 2650 1419 2697 
Q 1559 2816 1721 2881 
Q 1884 2947 2044 2947 
Q 2313 2947 2506 2790 
Q 2700 2634 2766 2338 
Q 3088 2713 3309 2830 
Q 3531 2947 3766 2947 
Q 3994 2947 4170 2830 
Q 4347 2713 4450 2447 
Q 4519 2266 4519 1878 
L 4519 647 
Q 4519 378 4559 278 
Q 4591 209 4675 161 
Q 4759 113 4950 113 
L 4950 0 
L 3538 0 
L 3538 113 
L 3597 113 
Q 3781 113 3884 184 
Q 3956 234 3988 344 
Q 4000 397 4000 647 
L 4000 1878 
Q 4000 2228 3916 2372 
Q 3794 2572 3525 2572 
Q 3359 2572 3192 2489 
Q 3025 2406 2788 2181 
L 2781 2147 
L 2788 2013 
L 2788 647 
Q 2788 353 2820 281 
Q 2853 209 2943 161 
Q 3034 113 3253 113 
L 3253 0 
L 1806 0 
L 1806 113 
Q 2044 113 2133 169 
Q 2222 225 2256 338 
Q 2272 391 2272 647 
L 2272 1878 
Q 2272 2228 2169 2381 
Q 2031 2581 1784 2581 
Q 1616 2581 1450 2491 
Q 1191 2353 1050 2181 
L 1050 647 
Q 1050 366 1089 281 
Q 1128 197 1204 155 
Q 1281 113 1516 113 
L 1516 0 
L 100 0 
L 100 113 
Q 297 113 375 155 
Q 453 197 493 289 
Q 534 381 534 647 
L 534 1741 
Q 534 2213 506 2350 
Q 484 2453 437 2492 
Q 391 2531 309 2531 
Q 222 2531 100 2484 
L 53 2597 
L 916 2947 
L 1050 2947 
L 1050 2338 
z
" transform="scale(0.015625)"/>
       <path id="TimesNewRomanPSMT-62" d="M 984 2369 
Q 1400 2947 1881 2947 
Q 2322 2947 2650 2570 
Q 2978 2194 2978 1541 
Q 2978 778 2472 313 
Q 2038 -88 1503 -88 
Q 1253 -88 995 3 
Q 738 94 469 275 
L 469 3241 
Q 469 3728 445 3840 
Q 422 3953 372 3993 
Q 322 4034 247 4034 
Q 159 4034 28 3984 
L -16 4094 
L 844 4444 
L 984 4444 
L 984 2369 
z
M 984 2169 
L 984 456 
Q 1144 300 1314 220 
Q 1484 141 1663 141 
Q 1947 141 2192 453 
Q 2438 766 2438 1363 
Q 2438 1913 2192 2208 
Q 1947 2503 1634 2503 
Q 1469 2503 1303 2419 
Q 1178 2356 984 2169 
z
" transform="scale(0.015625)"/>
       <path id="TimesNewRomanPSMT-72" d="M 1038 2947 
L 1038 2303 
Q 1397 2947 1775 2947 
Q 1947 2947 2059 2842 
Q 2172 2738 2172 2600 
Q 2172 2478 2090 2393 
Q 2009 2309 1897 2309 
Q 1788 2309 1652 2417 
Q 1516 2525 1450 2525 
Q 1394 2525 1328 2463 
Q 1188 2334 1038 2041 
L 1038 669 
Q 1038 431 1097 309 
Q 1138 225 1241 169 
Q 1344 113 1538 113 
L 1538 0 
L 72 0 
L 72 113 
Q 291 113 397 181 
Q 475 231 506 341 
Q 522 394 522 644 
L 522 1753 
Q 522 2253 501 2348 
Q 481 2444 426 2487 
Q 372 2531 291 2531 
Q 194 2531 72 2484 
L 41 2597 
L 906 2947 
L 1038 2947 
z
" transform="scale(0.015625)"/>
       <path id="TimesNewRomanPSMT-20" transform="scale(0.015625)"/>
       <path id="TimesNewRomanPSMT-28" d="M 1988 -1253 
L 1988 -1369 
Q 1516 -1131 1200 -813 
Q 750 -359 506 256 
Q 263 872 263 1534 
Q 263 2503 741 3301 
Q 1219 4100 1988 4444 
L 1988 4313 
Q 1603 4100 1356 3731 
Q 1109 3363 987 2797 
Q 866 2231 866 1616 
Q 866 947 969 400 
Q 1050 -31 1165 -292 
Q 1281 -553 1476 -793 
Q 1672 -1034 1988 -1253 
z
" transform="scale(0.015625)"/>
       <path id="TimesNewRomanPSMT-63" d="M 2631 1088 
Q 2516 522 2178 217 
Q 1841 -88 1431 -88 
Q 944 -88 581 321 
Q 219 731 219 1428 
Q 219 2103 620 2525 
Q 1022 2947 1584 2947 
Q 2006 2947 2278 2723 
Q 2550 2500 2550 2259 
Q 2550 2141 2473 2067 
Q 2397 1994 2259 1994 
Q 2075 1994 1981 2113 
Q 1928 2178 1911 2362 
Q 1894 2547 1784 2644 
Q 1675 2738 1481 2738 
Q 1169 2738 978 2506 
Q 725 2200 725 1697 
Q 725 1184 976 792 
Q 1228 400 1656 400 
Q 1963 400 2206 609 
Q 2378 753 2541 1131 
L 2631 1088 
z
" transform="scale(0.015625)"/>
       <path id="DejaVuSerif-2212" d="M 678 2259 
L 4684 2259 
L 4684 1753 
L 678 1753 
L 678 2259 
z
" transform="scale(0.015625)"/>
       <path id="DejaVuSerif-31" d="M 909 0 
L 909 331 
L 1722 331 
L 1722 4213 
L 781 3603 
L 781 4013 
L 1919 4750 
L 2350 4750 
L 2350 331 
L 3163 331 
L 3163 0 
L 909 0 
z
" transform="scale(0.015625)"/>
       <path id="TimesNewRomanPSMT-29" d="M 144 4313 
L 144 4444 
Q 619 4209 934 3891 
Q 1381 3434 1625 2820 
Q 1869 2206 1869 1541 
Q 1869 572 1392 -226 
Q 916 -1025 144 -1369 
L 144 -1253 
Q 528 -1038 776 -670 
Q 1025 -303 1145 264 
Q 1266 831 1266 1447 
Q 1266 2113 1163 2663 
Q 1084 3094 967 3353 
Q 850 3613 656 3853 
Q 463 4094 144 4313 
z
" transform="scale(0.015625)"/>
      </defs>
      <use xlink:href="#TimesNewRomanPSMT-57" transform="translate(0 0.7125)"/>
      <use xlink:href="#TimesNewRomanPSMT-61" transform="translate(94.384766 0.7125)"/>
      <use xlink:href="#TimesNewRomanPSMT-76" transform="translate(138.769531 0.7125)"/>
      <use xlink:href="#TimesNewRomanPSMT-65" transform="translate(188.769531 0.7125)"/>
      <use xlink:href="#TimesNewRomanPSMT-6e" transform="translate(233.154297 0.7125)"/>
      <use xlink:href="#TimesNewRomanPSMT-75" transform="translate(283.154297 0.7125)"/>
      <use xlink:href="#TimesNewRomanPSMT-6d" transform="translate(333.154297 0.7125)"/>
      <use xlink:href="#TimesNewRomanPSMT-62" transform="translate(410.9375 0.7125)"/>
      <use xlink:href="#TimesNewRomanPSMT-65" transform="translate(460.9375 0.7125)"/>
      <use xlink:href="#TimesNewRomanPSMT-72" transform="translate(505.322266 0.7125)"/>
      <use xlink:href="#TimesNewRomanPSMT-20" transform="translate(538.623047 0.7125)"/>
      <use xlink:href="#TimesNewRomanPSMT-28" transform="translate(563.623047 0.7125)"/>
      <use xlink:href="#TimesNewRomanPSMT-63" transform="translate(596.923828 0.7125)"/>
      <use xlink:href="#TimesNewRomanPSMT-6d" transform="translate(641.308594 0.7125)"/>
      <use xlink:href="#DejaVuSerif-2212" transform="translate(720.000156 37.046875) scale(0.7)"/>
      <use xlink:href="#DejaVuSerif-31" transform="translate(778.6525 37.046875) scale(0.7)"/>
      <use xlink:href="#TimesNewRomanPSMT-29" transform="translate(825.783945 0.7125)"/>
     </g>
    </g>
   </g>
   <g id="matplotlib.axis_2">
    <g id="ytick_1">
     <g id="line2d_8">
      <path d="M 44.782813 293.632766 
L 848.552813 293.632766 
" clip-path="url(#pe16f77c5b3)" style="fill: none; stroke: #b0b0b0; stroke-opacity: 0.3; stroke-width: 0.8; stroke-linecap: square"/>
     </g>
     <g id="line2d_9">
      <defs>
       <path id="m78371cb305" d="M 0 0 
L -3.5 0 
" style="stroke: #000000; stroke-width: 0.8"/>
      </defs>
      <g>
       <use xlink:href="#m78371cb305" x="44.782813" y="293.632766" style="stroke: #000000; stroke-width: 0.8"/>
      </g>
     </g>
     <g id="text_9">
      <!-- 0.00 -->
      <g transform="translate(20.282813 297.104641) scale(0.1 -0.1)">
       <defs>
        <path id="TimesNewRomanPSMT-2e" d="M 800 606 
Q 947 606 1047 504 
Q 1147 403 1147 259 
Q 1147 116 1045 14 
Q 944 -88 800 -88 
Q 656 -88 554 14 
Q 453 116 453 259 
Q 453 406 554 506 
Q 656 606 800 606 
z
" transform="scale(0.015625)"/>
       </defs>
       <use xlink:href="#TimesNewRomanPSMT-30"/>
       <use xlink:href="#TimesNewRomanPSMT-2e" x="50"/>
       <use xlink:href="#TimesNewRomanPSMT-30" x="75"/>
       <use xlink:href="#TimesNewRomanPSMT-30" x="125"/>
      </g>
     </g>
    </g>
    <g id="ytick_2">
     <g id="line2d_10">
      <path d="M 44.782813 245.381237 
L 848.552813 245.381237 
" clip-path="url(#pe16f77c5b3)" style="fill: none; stroke: #b0b0b0; stroke-opacity: 0.3; stroke-width: 0.8; stroke-linecap: square"/>
     </g>
     <g id="line2d_11">
      <g>
       <use xlink:href="#m78371cb305" x="44.782813" y="245.381237" style="stroke: #000000; stroke-width: 0.8"/>
      </g>
     </g>
     <g id="text_10">
      <!-- 0.05 -->
      <g transform="translate(20.282813 248.853112) scale(0.1 -0.1)">
       <use xlink:href="#TimesNewRomanPSMT-30"/>
       <use xlink:href="#TimesNewRomanPSMT-2e" x="50"/>
       <use xlink:href="#TimesNewRomanPSMT-30" x="75"/>
       <use xlink:href="#TimesNewRomanPSMT-35" x="125"/>
      </g>
     </g>
    </g>
    <g id="ytick_3">
     <g id="line2d_12">
      <path d="M 44.782813 197.129707 
L 848.552813 197.129707 
" clip-path="url(#pe16f77c5b3)" style="fill: none; stroke: #b0b0b0; stroke-opacity: 0.3; stroke-width: 0.8; stroke-linecap: square"/>
     </g>
     <g id="line2d_13">
      <g>
       <use xlink:href="#m78371cb305" x="44.782813" y="197.129707" style="stroke: #000000; stroke-width: 0.8"/>
      </g>
     </g>
     <g id="text_11">
      <!-- 0.10 -->
      <g transform="translate(20.282813 200.601582) scale(0.1 -0.1)">
       <use xlink:href="#TimesNewRomanPSMT-30"/>
       <use xlink:href="#TimesNewRomanPSMT-2e" x="50"/>
       <use xlink:href="#TimesNewRomanPSMT-31" x="75"/>
       <use xlink:href="#TimesNewRomanPSMT-30" x="125"/>
      </g>
     </g>
    </g>
    <g id="ytick_4">
     <g id="line2d_14">
      <path d="M 44.782813 148.878178 
L 848.552813 148.878178 
" clip-path="url(#pe16f77c5b3)" style="fill: none; stroke: #b0b0b0; stroke-opacity: 0.3; stroke-width: 0.8; stroke-linecap: square"/>
     </g>
     <g id="line2d_15">
      <g>
       <use xlink:href="#m78371cb305" x="44.782813" y="148.878178" style="stroke: #000000; stroke-width: 0.8"/>
      </g>
     </g>
     <g id="text_12">
      <!-- 0.15 -->
      <g transform="translate(20.282813 152.350053) scale(0.1 -0.1)">
       <use xlink:href="#TimesNewRomanPSMT-30"/>
       <use xlink:href="#TimesNewRomanPSMT-2e" x="50"/>
       <use xlink:href="#TimesNewRomanPSMT-31" x="75"/>
       <use xlink:href="#TimesNewRomanPSMT-35" x="125"/>
      </g>
     </g>
    </g>
    <g id="ytick_5">
     <g id="line2d_16">
      <path d="M 44.782813 100.626648 
L 848.552813 100.626648 
" clip-path="url(#pe16f77c5b3)" style="fill: none; stroke: #b0b0b0; stroke-opacity: 0.3; stroke-width: 0.8; stroke-linecap: square"/>
     </g>
     <g id="line2d_17">
      <g>
       <use xlink:href="#m78371cb305" x="44.782813" y="100.626648" style="stroke: #000000; stroke-width: 0.8"/>
      </g>
     </g>
     <g id="text_13">
      <!-- 0.20 -->
      <g transform="translate(20.282813 104.098523) scale(0.1 -0.1)">
       <use xlink:href="#TimesNewRomanPSMT-30"/>
       <use xlink:href="#TimesNewRomanPSMT-2e" x="50"/>
       <use xlink:href="#TimesNewRomanPSMT-32" x="75"/>
       <use xlink:href="#TimesNewRomanPSMT-30" x="125"/>
      </g>
     </g>
    </g>
    <g id="ytick_6">
     <g id="line2d_18">
      <path d="M 44.782813 52.375119 
L 848.552813 52.375119 
" clip-path="url(#pe16f77c5b3)" style="fill: none; stroke: #b0b0b0; stroke-opacity: 0.3; stroke-width: 0.8; stroke-linecap: square"/>
     </g>
     <g id="line2d_19">
      <g>
       <use xlink:href="#m78371cb305" x="44.782813" y="52.375119" style="stroke: #000000; stroke-width: 0.8"/>
      </g>
     </g>
     <g id="text_14">
      <!-- 0.25 -->
      <g transform="translate(20.282813 55.846994) scale(0.1 -0.1)">
       <use xlink:href="#TimesNewRomanPSMT-30"/>
       <use xlink:href="#TimesNewRomanPSMT-2e" x="50"/>
       <use xlink:href="#TimesNewRomanPSMT-32" x="75"/>
       <use xlink:href="#TimesNewRomanPSMT-35" x="125"/>
      </g>
     </g>
    </g>
    <g id="text_15">
     <!-- Absorbance -->
     <g transform="translate(14.14375 189.624969) rotate(-90) scale(0.1 -0.1)">
      <defs>
       <path id="TimesNewRomanPSMT-41" d="M 2928 1419 
L 1288 1419 
L 1000 750 
Q 894 503 894 381 
Q 894 284 986 211 
Q 1078 138 1384 116 
L 1384 0 
L 50 0 
L 50 116 
Q 316 163 394 238 
Q 553 388 747 847 
L 2238 4334 
L 2347 4334 
L 3822 809 
Q 4000 384 4145 257 
Q 4291 131 4550 116 
L 4550 0 
L 2878 0 
L 2878 116 
Q 3131 128 3220 200 
Q 3309 272 3309 375 
Q 3309 513 3184 809 
L 2928 1419 
z
M 2841 1650 
L 2122 3363 
L 1384 1650 
L 2841 1650 
z
" transform="scale(0.015625)"/>
       <path id="TimesNewRomanPSMT-73" d="M 2050 2947 
L 2050 1972 
L 1947 1972 
Q 1828 2431 1642 2597 
Q 1456 2763 1169 2763 
Q 950 2763 815 2647 
Q 681 2531 681 2391 
Q 681 2216 781 2091 
Q 878 1963 1175 1819 
L 1631 1597 
Q 2266 1288 2266 781 
Q 2266 391 1970 151 
Q 1675 -88 1309 -88 
Q 1047 -88 709 6 
Q 606 38 541 38 
Q 469 38 428 -44 
L 325 -44 
L 325 978 
L 428 978 
Q 516 541 762 319 
Q 1009 97 1316 97 
Q 1531 97 1667 223 
Q 1803 350 1803 528 
Q 1803 744 1651 891 
Q 1500 1038 1047 1263 
Q 594 1488 453 1669 
Q 313 1847 313 2119 
Q 313 2472 555 2709 
Q 797 2947 1181 2947 
Q 1350 2947 1591 2875 
Q 1750 2828 1803 2828 
Q 1853 2828 1881 2850 
Q 1909 2872 1947 2947 
L 2050 2947 
z
" transform="scale(0.015625)"/>
       <path id="TimesNewRomanPSMT-6f" d="M 1600 2947 
Q 2250 2947 2644 2453 
Q 2978 2031 2978 1484 
Q 2978 1100 2793 706 
Q 2609 313 2286 112 
Q 1963 -88 1566 -88 
Q 919 -88 538 428 
Q 216 863 216 1403 
Q 216 1797 411 2186 
Q 606 2575 925 2761 
Q 1244 2947 1600 2947 
z
M 1503 2744 
Q 1338 2744 1170 2645 
Q 1003 2547 900 2300 
Q 797 2053 797 1666 
Q 797 1041 1045 587 
Q 1294 134 1700 134 
Q 2003 134 2200 384 
Q 2397 634 2397 1244 
Q 2397 2006 2069 2444 
Q 1847 2744 1503 2744 
z
" transform="scale(0.015625)"/>
      </defs>
      <use xlink:href="#TimesNewRomanPSMT-41"/>
      <use xlink:href="#TimesNewRomanPSMT-62" x="72.216797"/>
      <use xlink:href="#TimesNewRomanPSMT-73" x="122.216797"/>
      <use xlink:href="#TimesNewRomanPSMT-6f" x="161.132812"/>
      <use xlink:href="#TimesNewRomanPSMT-72" x="211.132812"/>
      <use xlink:href="#TimesNewRomanPSMT-62" x="244.433594"/>
      <use xlink:href="#TimesNewRomanPSMT-61" x="294.433594"/>
      <use xlink:href="#TimesNewRomanPSMT-6e" x="338.818359"/>
      <use xlink:href="#TimesNewRomanPSMT-63" x="388.818359"/>
      <use xlink:href="#TimesNewRomanPSMT-65" x="433.203125"/>
     </g>
    </g>
   </g>
   <g id="line2d_20">
    <path d="M 848.530633 287.053188 
L 848.305997 286.826406 
L 848.081361 286.968265 
L 847.856701 288.154288 
L 847.070451 293.129985 
L 846.845815 293.122265 
L 846.621178 293.166657 
L 846.284201 293.992723 
L 846.059565 294.287057 
L 845.497951 293.875954 
L 845.048655 295.717232 
L 844.824019 296.495047 
L 844.599382 296.631116 
L 844.262405 296.464166 
L 843.92545 296.838598 
L 843.813109 296.846318 
L 843.588473 296.373453 
L 843.251518 294.386455 
L 842.914541 292.606939 
L 842.689904 292.384982 
L 842.465245 292.34059 
L 842.240609 291.943963 
L 841.791313 290.993408 
L 841.454359 290.570724 
L 840.892745 289.307499 
L 840.668108 289.856602 
L 839.994176 292.542282 
L 839.544881 290.733814 
L 839.432562 290.644067 
L 839.207926 291.003058 
L 838.983267 291.38521 
L 838.870949 291.283882 
L 838.646312 290.378683 
L 838.309335 288.895431 
L 838.197017 288.815334 
L 837.97238 289.264073 
L 837.635403 290.019692 
L 836.849152 290.6045 
L 836.399857 291.195099 
L 836.062902 292.404282 
L 835.725925 293.580655 
L 835.501288 293.732164 
L 835.276652 293.363523 
L 834.60272 291.873516 
L 834.265743 291.503909 
L 834.041106 290.733814 
L 833.367174 287.43727 
L 833.254856 287.42569 
L 833.030197 287.928471 
L 832.356265 290.27832 
L 832.131628 290.43948 
L 831.682333 290.399914 
L 831.120742 290.811982 
L 830.896082 290.613186 
L 830.559128 289.879762 
L 829.772878 287.959351 
L 829.548218 287.956456 
L 829.211264 288.410986 
L 828.088036 289.996531 
L 827.8634 290.011972 
L 827.526422 289.353821 
L 827.189468 288.900256 
L 826.964808 289.026675 
L 826.627854 289.222577 
L 826.403218 289.044046 
L 825.953922 288.567321 
L 825.729286 288.603027 
L 825.167672 288.939823 
L 824.943012 288.825949 
L 824.156762 287.925575 
L 823.819808 288.174553 
L 823.595148 288.297112 
L 823.258194 288.165868 
L 823.033558 288.108931 
L 822.359626 288.320273 
L 821.798012 287.831967 
L 821.461034 287.219173 
L 821.12408 286.411442 
L 821.011762 286.425918 
L 820.787102 286.984671 
L 820.33783 288.046204 
L 820.000852 288.209294 
L 819.663898 288.123407 
L 818.989966 287.849338 
L 818.428352 287.724849 
L 817.417442 287.368753 
L 817.080488 287.540528 
L 816.74351 287.741255 
L 816.518874 287.697828 
L 816.069578 287.277075 
L 815.507964 286.788769 
L 814.946373 286.399862 
L 814.047782 285.473433 
L 813.37385 283.995971 
L 812.924577 282.315853 
L 812.250645 278.953686 
L 811.80135 275.44773 
L 811.352054 270.148747 
L 811.015099 263.862538 
L 810.678122 253.583997 
L 810.116508 225.267104 
L 809.667235 207.134179 
L 809.442576 203.945718 
L 809.330258 204.119424 
L 809.105621 208.25072 
L 808.768644 222.081538 
L 808.207053 246.145541 
L 807.870075 254.092568 
L 807.533121 257.653531 
L 807.42078 257.916984 
L 807.308462 257.697922 
L 807.083825 255.901035 
L 806.63453 250.9871 
L 806.522211 250.965869 
L 806.409893 251.884578 
L 806.185257 256.537955 
L 805.398984 278.2965 
L 805.062029 282.000288 
L 804.725052 283.664965 
L 804.05112 285.461852 
L 803.714165 285.934717 
L 803.152551 286.445218 
L 802.590937 286.96923 
L 801.580051 287.60229 
L 800.119846 288.187099 
L 799.558255 288.2257 
L 798.884323 288.484328 
L 798.09805 288.556705 
L 796.862527 289.16371 
L 795.963935 289.052731 
L 795.177685 289.589288 
L 794.840731 289.711847 
L 794.391435 289.621134 
L 793.717503 289.488925 
L 793.380525 289.697372 
L 792.818935 290.050573 
L 792.257321 290.081454 
L 791.583389 290.011007 
L 790.235525 290.297621 
L 789.224615 290.023552 
L 788.887661 289.881692 
L 788.550683 290.030307 
L 787.989069 290.28797 
L 787.539797 290.332362 
L 786.528887 290.210768 
L 785.967273 290.305341 
L 785.181023 290.330432 
L 782.372977 290.741535 
L 781.923681 290.727059 
L 781.36209 290.837073 
L 780.575817 290.655647 
L 779.227953 290.7425 
L 778.77868 290.694248 
L 777.655453 290.867954 
L 776.981521 290.910415 
L 776.307589 290.869884 
L 775.296702 290.805227 
L 774.62277 291.004023 
L 774.173474 291.08219 
L 773.050247 290.846723 
L 771.140769 290.558179 
L 770.354518 290.194362 
L 768.782018 290.461676 
L 768.108086 290.657577 
L 767.65879 290.553354 
L 767.097176 290.401844 
L 765.973972 290.27446 
L 765.07538 289.906783 
L 764.626108 290.012937 
L 763.390562 290.534053 
L 762.828948 290.535983 
L 762.155016 290.793646 
L 760.582516 290.712584 
L 759.908584 290.672052 
L 759.34697 290.816807 
L 758.56072 290.677843 
L 757.999106 290.782066 
L 756.538924 290.715479 
L 755.528014 290.652752 
L 753.618536 290.379648 
L 753.169264 290.357452 
L 752.495331 290.271565 
L 751.147467 290.386403 
L 750.02424 290.296656 
L 749.350308 290.369998 
L 746.317602 290.106545 
L 745.306715 289.848881 
L 742.947918 289.889413 
L 741.937032 289.517876 
L 740.926146 289.263108 
L 740.139849 288.914732 
L 739.578375 288.782523 
L 738.454961 289.064312 
L 737.893487 289.273723 
L 736.8826 289.572883 
L 736.320893 289.700267 
L 735.197712 289.528491 
L 733.962236 289.568057 
L 733.175939 289.610519 
L 728.346097 290.041887 
L 727.33521 289.982056 
L 726.661208 289.823791 
L 724.302551 289.897133 
L 722.505368 289.890378 
L 722.056189 290.063118 
L 721.269892 290.353592 
L 720.708185 290.251299 
L 720.034183 290.192432 
L 718.349528 290.335257 
L 717.450936 290.352627 
L 716.776934 290.26674 
L 715.541458 290.313061 
L 714.867456 290.43176 
L 714.08116 290.323676 
L 712.621094 290.329467 
L 711.947092 290.415354 
L 711.160795 290.540808 
L 710.599321 290.496417 
L 709.813024 290.526333 
L 708.015841 290.506067 
L 707.341839 290.468431 
L 706.443248 290.350697 
L 704.53377 290.399914 
L 703.073704 290.187607 
L 702.062818 289.934769 
L 701.164226 290.040922 
L 700.15334 290.164446 
L 699.030159 290.096894 
L 697.34527 290.11523 
L 696.446679 290.066978 
L 695.548087 290.011972 
L 694.424906 290.021622 
L 693.41402 289.873972 
L 691.729131 289.80063 
L 691.055129 289.762029 
L 690.268833 289.867217 
L 689.595064 289.715707 
L 689.033357 289.611484 
L 688.24706 289.580603 
L 686.449877 289.331625 
L 685.326696 289.273723 
L 684.203514 289.01027 
L 682.968038 288.8742 
L 682.294036 288.891571 
L 681.395445 288.822089 
L 680.384558 288.746816 
L 679.710557 288.643558 
L 677.913606 288.623293 
L 676.453308 288.163938 
L 675.779306 287.984442 
L 673.645238 287.217243 
L 672.971236 287.257774 
L 672.297467 287.417969 
L 671.73576 287.603255 
L 669.15228 288.603992 
L 668.366217 288.681194 
L 666.905918 288.820159 
L 666.231916 288.574076 
L 664.547261 287.581059 
L 663.760964 287.251984 
L 662.188371 286.417233 
L 661.626896 286.312044 
L 660.391187 286.358366 
L 659.942008 286.363191 
L 659.492596 285.986829 
L 658.03253 284.558584 
L 657.695646 284.494892 
L 656.797054 284.76124 
L 656.459937 284.558584 
L 656.010757 284.199592 
L 655.786168 284.334697 
L 655.44905 285.119266 
L 654.438164 288.208329 
L 653.764395 289.168535 
L 653.314983 289.423303 
L 652.865803 289.502435 
L 652.079507 289.465764 
L 651.630094 289.424268 
L 651.06862 289.458044 
L 650.057734 289.316184 
L 649.271437 289.180115 
L 648.148256 288.848145 
L 646.351073 287.803982 
L 645.789366 287.442095 
L 643.992183 284.870289 
L 643.543003 283.684266 
L 642.869001 282.08328 
L 642.419822 281.400039 
L 642.082705 281.036222 
L 640.734934 278.400723 
L 640.060932 277.338225 
L 639.387163 275.778735 
L 639.050046 274.067736 
L 638.488571 269.914244 
L 637.028273 255.712854 
L 636.691388 248.6276 
L 636.017386 231.836067 
L 635.792797 230.453179 
L 635.680502 230.850771 
L 635.118795 234.651062 
L 635.0065 234.616321 
L 634.78191 233.990981 
L 634.557321 232.747056 
L 634.332498 230.278508 
L 633.771024 221.467779 
L 633.658729 222.854528 
L 633.433906 231.74632 
L 632.535315 277.947159 
L 632.19843 283.093667 
L 631.749251 286.048591 
L 631.412134 287.067663 
L 630.85066 287.891799 
L 630.513542 287.937156 
L 630.176658 288.032694 
L 629.165771 288.846215 
L 628.716359 289.178185 
L 627.930295 289.712812 
L 627.593178 289.623064 
L 626.582291 289.881692 
L 626.020817 290.452025 
L 625.346815 290.411494 
L 624.897403 290.229103 
L 624.223634 290.309201 
L 623.549632 290.125845 
L 623.212748 290.214628 
L 622.538746 290.719339 
L 621.07868 290.575549 
L 620.516973 290.440445 
L 619.955266 290.414389 
L 618.607495 289.892308 
L 618.158316 290.158656 
L 617.484314 289.749483 
L 616.922607 289.960825 
L 616.473428 290.116195 
L 615.799426 290.056363 
L 615.237952 290.154796 
L 614.788539 290.316921 
L 614.114537 290.657577 
L 613.440768 291.39679 
L 613.215946 291.483643 
L 612.991356 291.240455 
L 612.542177 290.619941 
L 612.092765 290.442375 
L 609.958697 290.12295 
L 609.509518 290.322711 
L 609.284695 290.234894 
L 608.835516 289.914503 
L 608.498631 290.053468 
L 608.049219 290.231999 
L 607.375217 290.363243 
L 606.252036 290.697143 
L 605.802857 290.840933 
L 605.24115 290.960597 
L 602.43308 291.193169 
L 602.096196 291.257826 
L 601.197604 290.974107 
L 599.962128 291.226945 
L 598.726419 290.553354 
L 598.05265 290.12874 
L 597.041764 289.502435 
L 596.592351 289.305569 
L 596.255467 289.445499 
L 595.69376 289.755273 
L 595.356875 289.63947 
L 594.907463 289.131864 
L 594.345989 288.116651 
L 593.671987 286.895888 
L 593.222808 286.48961 
L 592.997985 286.474169 
L 592.773395 286.722182 
L 592.324216 287.728709 
L 591.874804 289.546827 
L 591.537919 290.681703 
L 591.425625 290.770486 
L 591.201035 290.525368 
L 590.863918 290.067943 
L 590.639328 290.10751 
L 590.077621 290.446235 
L 589.179262 290.536948 
L 588.617555 290.825492 
L 586.932667 291.298357 
L 586.483488 291.639013 
L 586.258665 291.572426 
L 585.584896 291.171938 
L 585.023189 291.38714 
L 584.461715 291.797278 
L 584.124597 292.110913 
L 583.900008 292.049151 
L 583.338301 291.647698 
L 582.327414 291.470133 
L 581.99053 291.735516 
L 581.653645 292.015375 
L 581.428823 291.978704 
L 581.091938 291.86483 
L 580.867348 292.028885 
L 580.530231 292.337695 
L 580.305641 292.192941 
L 579.856462 291.567601 
L 579.519345 291.492328 
L 578.508458 291.327308 
L 577.946984 291.306078 
L 577.048393 291.490398 
L 576.486686 291.920802 
L 576.262096 291.834914 
L 575.588094 291.304148 
L 574.80203 291.406441 
L 573.790911 290.820667 
L 573.454026 290.956736 
L 572.44314 291.743236 
L 571.769138 291.23563 
L 571.207664 291.320553 
L 570.196778 290.961562 
L 569.410481 291.223085 
L 569.073596 291.330203 
L 568.399594 291.769292 
L 567.388708 291.698845 
L 566.490116 291.689195 
L 566.040704 291.937208 
L 564.805228 291.805963 
L 564.243754 291.70946 
L 563.794342 291.948788 
L 563.457457 292.086787 
L 560.986272 291.877376 
L 560.537093 291.777012 
L 560.199976 291.735516 
L 559.750796 291.942998 
L 559.189089 292.161095 
L 558.852205 292.100298 
L 558.290498 291.920802 
L 556.942727 292.011515 
L 556.15643 292.135039 
L 555.482428 292.124424 
L 554.246952 292.534562 
L 553.57295 292.978476 
L 553.236066 292.818281 
L 552.112884 291.948788 
L 551.776 292.01248 
L 550.427996 292.515261 
L 549.641699 292.425513 
L 549.080225 292.464114 
L 548.406223 292.244087 
L 546.946158 292.387877 
L 546.496745 292.367611 
L 545.710449 292.525876 
L 544.362678 292.491135 
L 543.800971 292.525876 
L 542.67779 292.300059 
L 542.116315 292.412003 
L 539.420541 292.261458 
L 538.971128 292.444814 
L 537.286473 292.18329 
L 536.949356 292.143724 
L 536.163059 291.84746 
L 535.039878 291.747097 
L 534.590698 291.714286 
L 533.579812 291.899571 
L 533.1304 291.767362 
L 532.681221 291.971949 
L 532.119513 292.223822 
L 530.884037 292.333835 
L 530.210035 292.349276 
L 529.199149 292.230577 
L 528.862265 292.32708 
L 528.300558 292.817315 
L 527.851378 292.698617 
L 527.514261 292.778714 
L 527.065081 292.923469 
L 526.615669 292.65905 
L 526.16649 292.49403 
L 525.492488 292.33866 
L 525.155604 292.403317 
L 524.481602 292.901273 
L 523.470715 292.81442 
L 523.133831 292.849161 
L 522.347534 292.457359 
L 521.673532 292.849161 
L 521.336648 293.141566 
L 520.887468 293.700318 
L 520.662646 293.73892 
L 520.213466 293.451341 
L 519.764054 293.234209 
L 519.42717 293.414669 
L 519.090285 293.596095 
L 518.753168 293.498627 
L 518.303988 293.12516 
L 517.517692 292.166885 
L 516.84369 292.238297 
L 516.506805 291.681474 
L 516.169921 290.721269 
L 515.495919 288.360804 
L 515.271329 288.331853 
L 514.934212 288.905081 
L 514.372738 289.801595 
L 513.811031 290.253229 
L 513.024734 290.625731 
L 512.126142 290.776276 
L 511.789258 290.695213 
L 511.452373 290.856373 
L 510.778372 291.418021 
L 510.329192 291.769292 
L 509.767485 292.038536 
L 509.542895 292.115738 
L 509.318073 291.898606 
L 508.532009 290.4472 
L 508.307186 290.695213 
L 507.858007 291.489433 
L 507.745712 291.448902 
L 507.521123 290.975072 
L 507.184005 290.12681 
L 506.959416 290.065048 
L 506.622531 290.555284 
L 506.173119 291.143952 
L 505.836234 291.333098 
L 505.611645 291.254931 
L 504.825348 290.671087 
L 504.600758 290.863129 
L 504.151346 291.401616 
L 503.926756 291.419951 
L 503.477344 291.193169 
L 503.14046 290.73671 
L 502.466458 289.50533 
L 502.241868 289.450324 
L 502.017279 289.6414 
L 501.343277 290.758905 
L 501.118687 290.610291 
L 500.669508 290.163481 
L 500.220095 290.063118 
L 499.658388 290.063118 
L 499.433799 289.694476 
L 498.984619 288.890606 
L 498.76003 289.072032 
L 497.74891 290.873744 
L 497.075141 291.331168 
L 496.738257 291.437322 
L 496.401139 291.273267 
L 495.502548 290.459746 
L 494.154777 290.628626 
L 493.705365 290.904625 
L 493.36848 290.853478 
L 492.245299 290.273495 
L 491.571297 290.323676 
L 491.122118 290.43948 
L 490.785 290.865059 
L 490.223526 291.737446 
L 489.774114 291.925627 
L 488.763228 292.01827 
L 487.976931 291.622608 
L 487.527752 291.344679 
L 487.190867 291.197029 
L 486.516865 291.232735 
L 485.955158 291.044554 
L 484.719682 291.155533 
L 484.27027 291.395825 
L 483.708796 291.722971 
L 483.371678 291.869655 
L 483.034794 292.322255 
L 482.47332 293.080769 
L 481.799318 293.691633 
L 480.226724 295.345696 
L 480.002135 295.407458 
L 479.777545 295.199011 
L 479.215838 294.422161 
L 478.878953 294.39514 
L 478.429541 294.449182 
L 478.092657 294.231085 
L 477.755772 294.004303 
L 477.53095 294.132652 
L 476.969476 294.717461 
L 476.744886 294.557266 
L 476.183179 293.9078 
L 475.958589 294.05738 
L 474.385996 296.7585 
L 474.273701 296.596375 
L 474.049111 295.569583 
L 473.038225 289.220646 
L 472.701107 288.752607 
L 472.251928 288.647418 
L 471.915044 288.796998 
L 471.577926 289.229332 
L 471.128747 290.267705 
L 470.679335 291.112106 
L 470.34245 291.219225 
L 469.780976 291.158428 
L 469.331564 290.951911 
L 469.106974 291.117897 
L 468.769857 291.488468 
L 468.545267 291.436357 
L 467.75897 290.620906 
L 467.422086 290.563969 
L 466.411199 290.000391 
L 465.849492 289.927049 
L 465.400313 290.114265 
L 464.389427 290.810052 
L 463.153718 290.796541 
L 462.704538 290.981827 
L 462.030536 290.75601 
L 461.469062 290.991478 
L 460.570471 290.8998 
L 460.008764 290.875674 
L 458.885582 290.377718 
L 457.650106 290.657577 
L 457.312989 290.491592 
L 456.526925 289.778434 
L 456.189808 290.006181 
L 455.628334 290.471326 
L 455.403744 290.423075 
L 454.729742 290.001356 
L 454.28033 290.1133 
L 453.381738 290.463606 
L 452.483147 290.094964 
L 451.697083 290.719339 
L 451.359965 290.489662 
L 450.573669 289.836336 
L 450.236784 289.873007 
L 449.675077 290.085314 
L 449.338193 289.869147 
L 448.776719 289.459974 
L 448.439601 289.558407 
L 447.878127 289.714742 
L 447.31642 289.597008 
L 446.867241 289.151164 
L 446.530123 288.884816 
L 444.50835 288.415811 
L 443.946876 288.520034 
L 443.048285 288.597237 
L 442.598872 288.737166 
L 441.925104 289.028605 
L 441.251102 289.157919 
L 440.689395 289.285304 
L 439.453919 289.302674 
L 439.004506 289.275653 
L 438.443032 289.123178 
L 437.207556 289.396282 
L 436.758144 289.17722 
L 436.196437 288.871305 
L 435.747257 288.638733 
L 435.298078 288.429321 
L 435.073256 288.566356 
L 434.624076 289.238982 
L 434.062369 290.055398 
L 433.500895 290.534053 
L 433.163778 290.560109 
L 432.152891 290.292795 
L 431.816007 290.2899 
L 429.457116 291.156498 
L 429.007937 291.250106 
L 428.446463 291.39679 
L 427.435344 291.414161 
L 426.986164 291.337924 
L 426.64928 291.332133 
L 426.312163 291.189309 
L 425.638394 291.275197 
L 425.301276 291.173868 
L 424.852097 291.504874 
L 424.402685 291.678579 
L 424.0658 291.604272 
L 423.279503 291.291602 
L 422.717796 291.427671 
L 422.156322 291.624538 
L 420.246844 291.665069 
L 419.123663 291.795348 
L 417.887954 291.798243 
L 414.069231 291.53479 
L 412.496638 291.228875 
L 411.261162 291.421881 
L 410.474865 291.468203 
L 409.576273 291.340819 
L 407.77909 291.006918 
L 407.217383 291.017533 
L 406.206497 290.777241 
L 404.634136 290.869884 
L 404.072429 290.788821 
L 403.62325 291.003058 
L 403.061543 291.2337 
L 402.612363 291.200889 
L 401.26436 290.887254 
L 400.253473 290.939366 
L 398.793407 290.893044 
L 398.2317 290.966387 
L 397.220814 290.766625 
L 396.659107 290.931646 
L 394.749862 290.760835 
L 393.85127 290.679773 
L 393.064974 290.564934 
L 392.503267 290.59099 
L 391.155496 290.491592 
L 389.919787 290.43755 
L 389.246018 290.213663 
L 388.796605 290.176027 
L 387.224245 290.303411 
L 384.303881 289.726322 
L 383.854468 289.679036 
L 382.394403 289.759134 
L 380.484925 289.615344 
L 379.586333 289.625959 
L 379.024626 289.748518 
L 378.463152 289.537176 
L 378.01374 289.466729 
L 377.339971 289.539107 
L 376.104262 288.993864 
L 373.970194 288.908942 
L 373.183897 288.6976 
L 372.060716 288.39651 
L 371.274419 288.37142 
L 370.712712 288.149463 
L 369.926649 288.172623 
L 369.477236 288.012428 
L 368.69094 287.929436 
L 367.792581 287.523158 
L 366.219988 287.442095 
L 365.321396 287.188292 
L 363.86133 286.989496 
L 362.737916 286.809035 
L 358.694371 287.075383 
L 358.020369 287.176712 
L 357.458895 287.251019 
L 354.313941 288.258511 
L 352.853642 288.198679 
L 352.17964 288.202539 
L 351.618166 288.257546 
L 350.944164 288.22184 
L 349.820983 288.363699 
L 348.922391 288.38493 
L 347.79921 288.399405 
L 344.204844 288.108931 
L 343.530842 287.943911 
L 342.63225 287.92461 
L 340.385888 287.472976 
L 337.240934 287.340767 
L 334.545159 287.030992 
L 332.972566 286.803245 
L 332.411092 286.707707 
L 331.849384 286.574533 
L 330.276791 285.936647 
L 329.378432 285.463782 
L 328.367546 284.882834 
L 327.244132 284.360752 
L 326.008656 283.590658 
L 325.334654 283.441078 
L 324.660885 282.988479 
L 323.088291 281.580499 
L 321.852815 279.951528 
L 319.269336 275.634946 
L 318.707629 273.980883 
L 318.03386 271.218001 
L 317.472152 268.125078 
L 317.022973 264.466647 
L 316.573561 258.797092 
L 316.012087 248.359321 
L 315.45038 233.999666 
L 314.888906 213.516892 
L 314.439493 188.754207 
L 313.878019 142.117174 
L 313.204017 82.405906 
L 312.979428 76.989189 
L 312.8669 78.871964 
L 312.64231 91.030384 
L 311.968308 155.640147 
L 311.406834 199.27111 
L 310.845127 226.86423 
L 310.395948 240.180687 
L 309.946768 248.01577 
L 309.497356 252.475177 
L 309.048177 254.897403 
L 308.598765 256.125887 
L 308.149585 256.714556 
L 307.812468 256.798514 
L 307.587878 256.657619 
L 307.250994 256.121062 
L 306.913876 255.147346 
L 306.464697 253.058055 
L 305.90299 249.211443 
L 305.004398 241.3918 
L 303.993512 230.426158 
L 302.084034 206.05238 
L 301.185443 192.218667 
L 300.511674 178.524883 
L 299.837672 159.715471 
L 299.275965 137.142441 
L 298.71449 105.466277 
L 297.591309 37.90931 
L 297.366487 34.642682 
L 297.254192 35.117477 
L 297.029602 39.995706 
L 296.692718 55.112911 
L 295.906421 105.970988 
L 295.007829 158.148262 
L 294.221533 190.183417 
L 293.435236 214.281196 
L 292.536644 235.344919 
L 291.750348 249.143891 
L 290.964284 259.168629 
L 290.290282 265.021539 
L 289.728808 268.010239 
L 289.054806 270.222089 
L 287.819097 273.014888 
L 287.257623 274.453748 
L 284.449553 283.406337 
L 283.775551 284.90503 
L 282.42778 287.010726 
L 281.978368 287.371648 
L 281.416894 287.788541 
L 280.518303 288.634873 
L 279.844301 288.888676 
L 276.811641 289.750448 
L 274.565279 289.95407 
L 272.768096 290.481941 
L 272.318684 290.487732 
L 271.75721 290.420179 
L 270.746323 290.625731 
L 269.960026 290.569759 
L 269.17373 290.503172 
L 266.815072 290.844793 
L 265.804186 291.101491 
L 264.456182 291.021394 
L 263.669885 291.361084 
L 262.996117 291.604272 
L 261.423523 291.53479 
L 259.963457 291.355294 
L 259.289455 291.442147 
L 257.604567 291.620678 
L 256.930565 291.583041 
L 256.256796 291.621643 
L 255.24591 291.574356 
L 254.684203 291.584006 
L 254.235024 291.609097 
L 253.561022 291.724901 
L 252.999315 291.802103 
L 252.100723 291.992214 
L 251.539249 291.970019 
L 250.752952 291.899571 
L 249.742066 291.902466 
L 249.068064 291.795348 
L 247.720293 291.970984 
L 246.709407 291.869655 
L 244.013632 291.976774 
L 242.890451 291.742271 
L 240.756383 291.793418 
L 239.970086 291.654454 
L 238.172903 291.656384 
L 237.274312 291.291602 
L 236.263425 291.331168 
L 235.589423 290.989548 
L 234.241652 291.151673 
L 233.679945 291.121757 
L 232.781354 291.087016 
L 231.995057 291.077365 
L 231.321288 291.410301 
L 228.400924 291.308973 
L 227.614627 291.284847 
L 227.05292 291.144917 
L 223.907966 291.391 
L 223.233964 291.349504 
L 222.110783 291.643838 
L 221.437014 291.638048 
L 220.875307 291.659279 
L 219.190419 291.457587 
L 217.617825 291.55409 
L 216.494644 291.38714 
L 215.820875 291.450832 
L 215.146873 291.55023 
L 214.472871 291.672789 
L 213.799102 291.765432 
L 213.34969 291.584971 
L 212.788216 291.313798 
L 212.226509 291.309938 
L 211.440212 291.353364 
L 210.653915 291.335028 
L 209.867618 291.285812 
L 209.19385 291.194134 
L 207.508961 291.292567 
L 207.059782 291.23177 
L 205.824073 291.39486 
L 205.374894 291.414161 
L 204.476302 291.524174 
L 203.57771 291.38714 
L 201.219053 291.311868 
L 200.657346 291.295462 
L 199.983344 291.087016 
L 199.309575 291.292567 
L 197.736982 291.089911 
L 197.175275 291.23949 
L 196.613801 291.295462 
L 195.602914 291.267476 
L 194.928912 290.914275 
L 193.918026 290.847688 
L 192.457727 290.849618 
L 191.671664 290.886289 
L 191.222251 290.925856 
L 190.435955 290.76759 
L 189.986775 290.784961 
L 189.312773 290.646962 
L 188.863594 290.613186 
L 188.301887 290.486767 
L 187.740413 290.550459 
L 187.178706 290.212698 
L 186.729293 289.997496 
L 186.392409 290.077594 
L 185.94323 290.254194 
L 185.269228 290.159621 
L 184.033752 290.812947 
L 181.562567 291.342749 
L 180.77627 291.418021 
L 179.877678 291.316693 
L 178.529908 291.589797 
L 177.855906 291.511629 
L 176.957314 291.253966 
L 173.58777 291.739376 
L 173.250653 291.755782 
L 172.464589 291.939138 
L 171.790587 291.752887 
L 171.116585 291.559881 
L 170.442583 291.706565 
L 169.881109 291.932382 
L 169.431697 292.184255 
L 169.207107 292.136969 
L 168.757928 291.672789 
L 168.420811 291.479783 
L 168.083926 291.69209 
L 167.634514 291.973879 
L 166.84845 291.980634 
L 166.399038 292.16206 
L 165.949859 292.051081 
L 165.275857 291.894746 
L 164.377265 291.826229 
L 164.040381 291.830089 
L 163.366379 291.647698 
L 162.467787 291.949753 
L 161.68149 292.005725 
L 160.670604 291.706565 
L 160.33372 291.793418 
L 159.435128 292.196801 
L 158.761126 292.256633 
L 157.862535 291.907292 
L 157.413355 291.735516 
L 157.076471 291.881236 
L 156.627059 292.174605 
L 156.290174 292.106088 
L 155.616172 291.760607 
L 155.054698 291.833949 
L 154.043812 292.302954 
L 153.257515 292.021165 
L 152.583513 291.87062 
L 152.246629 291.824299 
L 151.797216 292.073277 
L 151.460332 292.184255 
L 150.449445 292.029851 
L 149.775443 292.278828 
L 148.20285 292.097403 
L 147.753671 292.214171 
L 147.304491 292.017305 
L 146.967374 291.942998 
L 146.181077 292.132144 
L 145.507308 291.760607 
L 145.057896 292.101263 
L 144.721012 292.288479 
L 144.496422 292.234437 
L 143.710125 291.633223 
L 142.923828 292.172675 
L 142.362121 291.99897 
L 141.912942 292.233472 
L 141.576058 292.337695 
L 141.23894 292.199696 
L 140.452643 291.682439 
L 138.880283 291.615852 
L 138.543165 291.762537 
L 138.206281 291.651559 
L 137.757102 291.518384 
L 136.85851 291.637083 
L 136.072213 291.276162 
L 135.735329 291.510664 
L 135.285917 291.815614 
L 135.061327 291.738411 
L 134.27503 291.195099 
L 133.938146 291.501979 
L 133.601028 291.704635 
L 133.376439 291.529965 
L 133.039554 291.190274 
L 132.814732 291.197994 
L 132.028668 291.702705 
L 131.579256 291.446007 
L 131.354666 291.374595 
L 131.017781 291.551195 
L 130.456074 291.850355 
L 130.11919 291.885096 
L 129.669778 291.606202 
L 129.332893 291.493294 
L 128.883481 291.750957 
L 128.546596 291.811754 
L 128.209712 291.566636 
L 127.7603 291.165183 
L 127.53571 291.186414 
L 126.974003 291.505839 
L 126.187939 291.169043 
L 125.513937 291.493294 
L 124.503051 291.657349 
L 124.053639 291.823334 
L 123.604459 291.655419 
L 123.15528 291.435392 
L 122.818163 291.543475 
L 122.481278 291.69016 
L 122.256688 291.584971 
L 121.807276 291.265546 
L 120.234683 291.669894 
L 119.785503 291.481713 
L 119.448619 291.755782 
L 119.223796 291.903432 
L 118.999207 291.818509 
L 118.21291 291.035869 
L 117.763731 291.005953 
L 117.314318 291.244316 
L 116.865139 291.352399 
L 116.528022 291.453727 
L 115.966548 291.702705 
L 114.618777 291.487503 
L 114.05707 291.585936 
L 113.383068 291.54058 
L 112.821594 291.570496 
L 112.259886 291.504874 
L 111.698179 291.662174 
L 110.350408 291.406441 
L 109.788701 291.539615 
L 109.339522 291.596552 
L 108.890343 291.330203 
L 108.553225 291.190274 
L 107.317749 291.300287 
L 106.643747 291.693055 
L 106.419158 291.653489 
L 106.082273 291.288707 
L 105.745156 290.957702 
L 105.520566 290.989548 
L 104.846564 291.339854 
L 104.50968 291.189309 
L 103.835678 290.787856 
L 103.498793 290.967352 
L 103.274204 291.08219 
L 103.049381 290.966387 
L 102.600202 290.527298 
L 102.375612 290.58906 
L 101.477021 291.207644 
L 101.140136 291.131407 
L 100.690724 291.0571 
L 100.016722 291.200889 
L 99.11813 290.862163 
L 98.781246 291.016568 
L 98.219539 291.402581 
L 97.77036 291.253966 
L 97.433475 291.272301 
L 97.096358 291.360119 
L 96.759473 291.178694 
L 96.422589 290.995338 
L 96.085471 291.115002 
L 95.523997 291.311868 
L 94.625406 291.481713 
L 93.951404 291.307043 
L 93.277402 291.562776 
L 92.491338 291.300287 
L 91.367924 291.611027 
L 90.80645 291.178694 
L 90.469332 291.299322 
L 89.907858 291.553125 
L 89.570741 291.435392 
L 89.009267 291.217295 
L 88.335265 291.283882 
L 87.773791 291.092806 
L 86.875199 291.500049 
L 86.088902 291.186414 
L 84.853426 291.448902 
L 84.067129 291.208609 
L 82.83142 291.380385 
L 82.494536 291.238525 
L 82.157652 291.128512 
L 81.932829 291.282917 
L 81.25906 291.986424 
L 81.03447 291.885096 
L 80.360468 291.250106 
L 79.798761 291.028149 
L 79.461877 290.824527 
L 79.237287 291.096666 
L 78.787875 292.146619 
L 78.563285 292.067487 
L 78.001578 291.498119 
L 77.215514 291.275197 
L 76.541513 291.248176 
L 75.979805 291.295462 
L 75.530626 291.340819 
L 75.081447 291.566636 
L 74.407445 291.501979 
L 73.845738 291.837809 
L 73.508853 291.607167 
L 72.947146 291.06868 
L 72.722557 291.095701 
L 72.048555 291.37363 
L 71.599375 291.514524 
L 71.149963 291.637083 
L 69.802192 291.320553 
L 68.903601 291.175798 
L 67.892714 291.434427 
L 67.218712 291.730691 
L 66.320121 291.511629 
L 65.758647 291.628398 
L 65.309234 291.363014 
L 64.860055 291.134302 
L 64.522938 291.234665 
L 63.961464 291.422846 
L 63.512051 291.549265 
L 62.950577 291.832019 
L 62.61346 291.660244 
L 62.164281 291.340819 
L 61.490279 291.329238 
L 60.81651 291.333098 
L 60.254803 291.404511 
L 59.580801 291.305113 
L 59.019327 291.363979 
L 58.345325 291.255896 
L 57.446733 291.564706 
L 56.997554 291.408371 
L 56.548141 291.23563 
L 56.098962 291.38521 
L 55.42496 291.623573 
L 54.863486 291.587866 
L 53.852367 291.421881 
L 52.84148 291.619713 
L 51.606004 291.424776 
L 51.156825 291.55023 
L 50.370528 291.789558 
L 49.808821 291.881236 
L 49.359642 291.638048 
L 49.022525 291.53093 
L 48.46105 291.539615 
L 47.899343 291.363014 
L 47.000752 291.520314 
L 46.439278 291.281952 
L 46.10216 291.432497 
L 45.765276 291.594622 
L 45.428391 291.487503 
L 44.978979 291.286777 
L 44.754389 291.303182 
L 44.754389 291.303182 
" clip-path="url(#pe16f77c5b3)" style="fill: none; stroke: #70ad47; stroke-width: 0.8; stroke-linecap: square"/>
   </g>
   <g id="patch_9">
    <path d="M 44.782813 309.9565 
L 44.782813 21.5325 
" style="fill: none; stroke: #000000; stroke-width: 0.8; stroke-linejoin: miter; stroke-linecap: square"/>
   </g>
   <g id="patch_10">
    <path d="M 44.782812 309.9565 
L 848.552813 309.9565 
" style="fill: none; stroke: #000000; stroke-width: 0.8; stroke-linejoin: miter; stroke-linecap: square"/>
   </g>
   <g id="text_16">
    <!-- O–H stretch -->
    <g style="fill: #555555" transform="translate(186.25054 69.157513) rotate(-90) scale(0.07 -0.07)">
     <defs>
      <path id="TimesNewRomanPSMT-4f" d="M 2341 4334 
Q 3166 4334 3770 3707 
Q 4375 3081 4375 2144 
Q 4375 1178 3765 540 
Q 3156 -97 2291 -97 
Q 1416 -97 820 525 
Q 225 1147 225 2134 
Q 225 3144 913 3781 
Q 1509 4334 2341 4334 
z
M 2281 4106 
Q 1713 4106 1369 3684 
Q 941 3159 941 2147 
Q 941 1109 1384 550 
Q 1725 125 2284 125 
Q 2881 125 3270 590 
Q 3659 1056 3659 2059 
Q 3659 3147 3231 3681 
Q 2888 4106 2281 4106 
z
" transform="scale(0.015625)"/>
      <path id="TimesNewRomanPSMT-2013" d="M 3253 1416 
L -56 1416 
L -56 1644 
L 3253 1644 
L 3253 1416 
z
" transform="scale(0.015625)"/>
      <path id="TimesNewRomanPSMT-48" d="M 1316 2272 
L 3284 2272 
L 3284 3484 
Q 3284 3809 3244 3913 
Q 3213 3991 3113 4047 
Q 2978 4122 2828 4122 
L 2678 4122 
L 2678 4238 
L 4491 4238 
L 4491 4122 
L 4341 4122 
Q 4191 4122 4056 4050 
Q 3956 4000 3920 3898 
Q 3884 3797 3884 3484 
L 3884 750 
Q 3884 428 3925 325 
Q 3956 247 4053 191 
Q 4191 116 4341 116 
L 4491 116 
L 4491 0 
L 2678 0 
L 2678 116 
L 2828 116 
Q 3088 116 3206 269 
Q 3284 369 3284 750 
L 3284 2041 
L 1316 2041 
L 1316 750 
Q 1316 428 1356 325 
Q 1388 247 1488 191 
Q 1622 116 1772 116 
L 1925 116 
L 1925 0 
L 109 0 
L 109 116 
L 259 116 
Q 522 116 641 269 
Q 716 369 716 750 
L 716 3484 
Q 716 3809 675 3913 
Q 644 3991 547 4047 
Q 409 4122 259 4122 
L 109 4122 
L 109 4238 
L 1925 4238 
L 1925 4122 
L 1772 4122 
Q 1622 4122 1488 4050 
Q 1391 4000 1353 3898 
Q 1316 3797 1316 3484 
L 1316 2272 
z
" transform="scale(0.015625)"/>
      <path id="TimesNewRomanPSMT-74" d="M 1031 3803 
L 1031 2863 
L 1700 2863 
L 1700 2644 
L 1031 2644 
L 1031 788 
Q 1031 509 1111 412 
Q 1191 316 1316 316 
Q 1419 316 1516 380 
Q 1613 444 1666 569 
L 1788 569 
Q 1678 263 1478 108 
Q 1278 -47 1066 -47 
Q 922 -47 784 33 
Q 647 113 581 261 
Q 516 409 516 719 
L 516 2644 
L 63 2644 
L 63 2747 
Q 234 2816 414 2980 
Q 594 3144 734 3369 
Q 806 3488 934 3803 
L 1031 3803 
z
" transform="scale(0.015625)"/>
      <path id="TimesNewRomanPSMT-68" d="M 1041 4444 
L 1041 2350 
Q 1388 2731 1591 2839 
Q 1794 2947 1997 2947 
Q 2241 2947 2416 2812 
Q 2591 2678 2675 2391 
Q 2734 2191 2734 1659 
L 2734 647 
Q 2734 375 2778 275 
Q 2809 200 2884 156 
Q 2959 113 3159 113 
L 3159 0 
L 1753 0 
L 1753 113 
L 1819 113 
Q 2019 113 2097 173 
Q 2175 234 2206 353 
Q 2216 403 2216 647 
L 2216 1659 
Q 2216 2128 2167 2275 
Q 2119 2422 2012 2495 
Q 1906 2569 1756 2569 
Q 1603 2569 1437 2487 
Q 1272 2406 1041 2159 
L 1041 647 
Q 1041 353 1073 281 
Q 1106 209 1195 161 
Q 1284 113 1503 113 
L 1503 0 
L 84 0 
L 84 113 
Q 275 113 384 172 
Q 447 203 484 290 
Q 522 378 522 647 
L 522 3238 
Q 522 3728 498 3840 
Q 475 3953 426 3993 
Q 378 4034 297 4034 
Q 231 4034 84 3984 
L 41 4094 
L 897 4444 
L 1041 4444 
z
" transform="scale(0.015625)"/>
     </defs>
     <use xlink:href="#TimesNewRomanPSMT-4f"/>
     <use xlink:href="#TimesNewRomanPSMT-2013" x="72.216797"/>
     <use xlink:href="#TimesNewRomanPSMT-48" x="122.216797"/>
     <use xlink:href="#TimesNewRomanPSMT-20" x="194.433594"/>
     <use xlink:href="#TimesNewRomanPSMT-73" x="219.433594"/>
     <use xlink:href="#TimesNewRomanPSMT-74" x="258.349609"/>
     <use xlink:href="#TimesNewRomanPSMT-72" x="286.132812"/>
     <use xlink:href="#TimesNewRomanPSMT-65" x="319.433594"/>
     <use xlink:href="#TimesNewRomanPSMT-74" x="363.818359"/>
     <use xlink:href="#TimesNewRomanPSMT-63" x="391.601562"/>
     <use xlink:href="#TimesNewRomanPSMT-68" x="435.986328"/>
    </g>
   </g>
   <g id="text_17">
    <!-- C–H stretch -->
    <g style="fill: #555555" transform="translate(296.914526 68.77142) rotate(-90) scale(0.07 -0.07)">
     <defs>
      <path id="TimesNewRomanPSMT-43" d="M 3853 4334 
L 3950 2894 
L 3853 2894 
Q 3659 3541 3300 3825 
Q 2941 4109 2438 4109 
Q 2016 4109 1675 3895 
Q 1334 3681 1139 3212 
Q 944 2744 944 2047 
Q 944 1472 1128 1050 
Q 1313 628 1683 403 
Q 2053 178 2528 178 
Q 2941 178 3256 354 
Q 3572 531 3950 1056 
L 4047 994 
Q 3728 428 3303 165 
Q 2878 -97 2294 -97 
Q 1241 -97 663 684 
Q 231 1266 231 2053 
Q 231 2688 515 3219 
Q 800 3750 1298 4042 
Q 1797 4334 2388 4334 
Q 2847 4334 3294 4109 
Q 3425 4041 3481 4041 
Q 3566 4041 3628 4100 
Q 3709 4184 3744 4334 
L 3853 4334 
z
" transform="scale(0.015625)"/>
     </defs>
     <use xlink:href="#TimesNewRomanPSMT-43"/>
     <use xlink:href="#TimesNewRomanPSMT-2013" x="66.699219"/>
     <use xlink:href="#TimesNewRomanPSMT-48" x="116.699219"/>
     <use xlink:href="#TimesNewRomanPSMT-20" x="188.916016"/>
     <use xlink:href="#TimesNewRomanPSMT-73" x="213.916016"/>
     <use xlink:href="#TimesNewRomanPSMT-74" x="252.832031"/>
     <use xlink:href="#TimesNewRomanPSMT-72" x="280.615234"/>
     <use xlink:href="#TimesNewRomanPSMT-65" x="313.916016"/>
     <use xlink:href="#TimesNewRomanPSMT-74" x="358.300781"/>
     <use xlink:href="#TimesNewRomanPSMT-63" x="386.083984"/>
     <use xlink:href="#TimesNewRomanPSMT-68" x="430.46875"/>
    </g>
   </g>
   <g id="text_18">
    <!-- C=O stretch -->
    <g style="fill: #555555" transform="translate(578.816468 69.218763) rotate(-90) scale(0.07 -0.07)">
     <defs>
      <path id="TimesNewRomanPSMT-3d" d="M 116 2759 
L 3488 2759 
L 3488 2503 
L 116 2503 
L 116 2759 
z
M 116 1741 
L 3488 1741 
L 3488 1484 
L 116 1484 
L 116 1741 
z
" transform="scale(0.015625)"/>
     </defs>
     <use xlink:href="#TimesNewRomanPSMT-43"/>
     <use xlink:href="#TimesNewRomanPSMT-3d" x="66.699219"/>
     <use xlink:href="#TimesNewRomanPSMT-4f" x="123.095703"/>
     <use xlink:href="#TimesNewRomanPSMT-20" x="195.3125"/>
     <use xlink:href="#TimesNewRomanPSMT-73" x="220.3125"/>
     <use xlink:href="#TimesNewRomanPSMT-74" x="259.228516"/>
     <use xlink:href="#TimesNewRomanPSMT-72" x="287.011719"/>
     <use xlink:href="#TimesNewRomanPSMT-65" x="320.3125"/>
     <use xlink:href="#TimesNewRomanPSMT-74" x="364.697266"/>
     <use xlink:href="#TimesNewRomanPSMT-63" x="392.480469"/>
     <use xlink:href="#TimesNewRomanPSMT-68" x="436.865234"/>
    </g>
   </g>
   <g id="text_19">
    <!-- C=C stretch -->
    <g style="fill: #555555" transform="translate(596.289728 68.83267) rotate(-90) scale(0.07 -0.07)">
     <use xlink:href="#TimesNewRomanPSMT-43"/>
     <use xlink:href="#TimesNewRomanPSMT-3d" x="66.699219"/>
     <use xlink:href="#TimesNewRomanPSMT-43" x="123.095703"/>
     <use xlink:href="#TimesNewRomanPSMT-20" x="189.794922"/>
     <use xlink:href="#TimesNewRomanPSMT-73" x="214.794922"/>
     <use xlink:href="#TimesNewRomanPSMT-74" x="253.710938"/>
     <use xlink:href="#TimesNewRomanPSMT-72" x="281.494141"/>
     <use xlink:href="#TimesNewRomanPSMT-65" x="314.794922"/>
     <use xlink:href="#TimesNewRomanPSMT-74" x="359.179688"/>
     <use xlink:href="#TimesNewRomanPSMT-63" x="386.962891"/>
     <use xlink:href="#TimesNewRomanPSMT-68" x="431.347656"/>
    </g>
   </g>
   <g id="text_20">
    <!-- C–H bend -->
    <g style="fill: #555555" transform="translate(648.709511 63.719388) rotate(-90) scale(0.07 -0.07)">
     <defs>
      <path id="TimesNewRomanPSMT-64" d="M 2222 322 
Q 2013 103 1813 7 
Q 1613 -88 1381 -88 
Q 913 -88 563 304 
Q 213 697 213 1313 
Q 213 1928 600 2439 
Q 988 2950 1597 2950 
Q 1975 2950 2222 2709 
L 2222 3238 
Q 2222 3728 2198 3840 
Q 2175 3953 2125 3993 
Q 2075 4034 2000 4034 
Q 1919 4034 1784 3984 
L 1744 4094 
L 2597 4444 
L 2738 4444 
L 2738 1134 
Q 2738 631 2761 520 
Q 2784 409 2836 365 
Q 2888 322 2956 322 
Q 3041 322 3181 375 
L 3216 266 
L 2366 -88 
L 2222 -88 
L 2222 322 
z
M 2222 541 
L 2222 2016 
Q 2203 2228 2109 2403 
Q 2016 2578 1861 2667 
Q 1706 2756 1559 2756 
Q 1284 2756 1069 2509 
Q 784 2184 784 1559 
Q 784 928 1059 592 
Q 1334 256 1672 256 
Q 1956 256 2222 541 
z
" transform="scale(0.015625)"/>
     </defs>
     <use xlink:href="#TimesNewRomanPSMT-43"/>
     <use xlink:href="#TimesNewRomanPSMT-2013" x="66.699219"/>
     <use xlink:href="#TimesNewRomanPSMT-48" x="116.699219"/>
     <use xlink:href="#TimesNewRomanPSMT-20" x="188.916016"/>
     <use xlink:href="#TimesNewRomanPSMT-62" x="213.916016"/>
     <use xlink:href="#TimesNewRomanPSMT-65" x="263.916016"/>
     <use xlink:href="#TimesNewRomanPSMT-6e" x="308.300781"/>
     <use xlink:href="#TimesNewRomanPSMT-64" x="358.300781"/>
    </g>
   </g>
   <g id="text_21">
    <!-- C–O stretch -->
    <g style="fill: #555555" transform="translate(710.448366 68.77142) rotate(-90) scale(0.07 -0.07)">
     <use xlink:href="#TimesNewRomanPSMT-43"/>
     <use xlink:href="#TimesNewRomanPSMT-2013" x="66.699219"/>
     <use xlink:href="#TimesNewRomanPSMT-4f" x="116.699219"/>
     <use xlink:href="#TimesNewRomanPSMT-20" x="188.916016"/>
     <use xlink:href="#TimesNewRomanPSMT-73" x="213.916016"/>
     <use xlink:href="#TimesNewRomanPSMT-74" x="252.832031"/>
     <use xlink:href="#TimesNewRomanPSMT-72" x="280.615234"/>
     <use xlink:href="#TimesNewRomanPSMT-65" x="313.916016"/>
     <use xlink:href="#TimesNewRomanPSMT-74" x="358.300781"/>
     <use xlink:href="#TimesNewRomanPSMT-63" x="386.083984"/>
     <use xlink:href="#TimesNewRomanPSMT-68" x="430.46875"/>
    </g>
   </g>
   <g id="text_22">
    <!-- Plastic Bag -->
    <g transform="translate(419.502813 15.5325) scale(0.12 -0.12)">
     <defs>
      <path id="TimesNewRomanPSMT-50" d="M 1313 1984 
L 1313 750 
Q 1313 350 1400 253 
Q 1519 116 1759 116 
L 1922 116 
L 1922 0 
L 106 0 
L 106 116 
L 266 116 
Q 534 116 650 291 
Q 713 388 713 750 
L 713 3488 
Q 713 3888 628 3984 
Q 506 4122 266 4122 
L 106 4122 
L 106 4238 
L 1659 4238 
Q 2228 4238 2556 4120 
Q 2884 4003 3109 3725 
Q 3334 3447 3334 3066 
Q 3334 2547 2992 2222 
Q 2650 1897 2025 1897 
Q 1872 1897 1694 1919 
Q 1516 1941 1313 1984 
z
M 1313 2163 
Q 1478 2131 1606 2115 
Q 1734 2100 1825 2100 
Q 2150 2100 2386 2351 
Q 2622 2603 2622 3003 
Q 2622 3278 2509 3514 
Q 2397 3750 2190 3867 
Q 1984 3984 1722 3984 
Q 1563 3984 1313 3925 
L 1313 2163 
z
" transform="scale(0.015625)"/>
      <path id="TimesNewRomanPSMT-6c" d="M 1184 4444 
L 1184 647 
Q 1184 378 1223 290 
Q 1263 203 1344 158 
Q 1425 113 1647 113 
L 1647 0 
L 244 0 
L 244 113 
Q 441 113 512 153 
Q 584 194 625 287 
Q 666 381 666 647 
L 666 3247 
Q 666 3731 644 3842 
Q 622 3953 573 3993 
Q 525 4034 450 4034 
Q 369 4034 244 3984 
L 191 4094 
L 1044 4444 
L 1184 4444 
z
" transform="scale(0.015625)"/>
      <path id="TimesNewRomanPSMT-69" d="M 928 4444 
Q 1059 4444 1151 4351 
Q 1244 4259 1244 4128 
Q 1244 3997 1151 3903 
Q 1059 3809 928 3809 
Q 797 3809 703 3903 
Q 609 3997 609 4128 
Q 609 4259 701 4351 
Q 794 4444 928 4444 
z
M 1188 2947 
L 1188 647 
Q 1188 378 1227 289 
Q 1266 200 1342 156 
Q 1419 113 1622 113 
L 1622 0 
L 231 0 
L 231 113 
Q 441 113 512 153 
Q 584 194 626 287 
Q 669 381 669 647 
L 669 1750 
Q 669 2216 641 2353 
Q 619 2453 572 2492 
Q 525 2531 444 2531 
Q 356 2531 231 2484 
L 188 2597 
L 1050 2947 
L 1188 2947 
z
" transform="scale(0.015625)"/>
      <path id="TimesNewRomanPSMT-42" d="M 2956 2163 
Q 3397 2069 3616 1863 
Q 3919 1575 3919 1159 
Q 3919 844 3719 555 
Q 3519 266 3170 133 
Q 2822 0 2106 0 
L 106 0 
L 106 116 
L 266 116 
Q 531 116 647 284 
Q 719 394 719 750 
L 719 3488 
Q 719 3881 628 3984 
Q 506 4122 266 4122 
L 106 4122 
L 106 4238 
L 1938 4238 
Q 2450 4238 2759 4163 
Q 3228 4050 3475 3764 
Q 3722 3478 3722 3106 
Q 3722 2788 3528 2536 
Q 3334 2284 2956 2163 
z
M 1319 2331 
Q 1434 2309 1582 2298 
Q 1731 2288 1909 2288 
Q 2366 2288 2595 2386 
Q 2825 2484 2947 2687 
Q 3069 2891 3069 3131 
Q 3069 3503 2766 3765 
Q 2463 4028 1881 4028 
Q 1569 4028 1319 3959 
L 1319 2331 
z
M 1319 306 
Q 1681 222 2034 222 
Q 2600 222 2897 476 
Q 3194 731 3194 1106 
Q 3194 1353 3059 1581 
Q 2925 1809 2622 1940 
Q 2319 2072 1872 2072 
Q 1678 2072 1540 2065 
Q 1403 2059 1319 2044 
L 1319 306 
z
" transform="scale(0.015625)"/>
      <path id="TimesNewRomanPSMT-67" d="M 966 1044 
Q 703 1172 562 1401 
Q 422 1631 422 1909 
Q 422 2334 742 2640 
Q 1063 2947 1563 2947 
Q 1972 2947 2272 2747 
L 2878 2747 
Q 3013 2747 3034 2739 
Q 3056 2731 3066 2713 
Q 3084 2684 3084 2613 
Q 3084 2531 3069 2500 
Q 3059 2484 3036 2475 
Q 3013 2466 2878 2466 
L 2506 2466 
Q 2681 2241 2681 1891 
Q 2681 1491 2375 1206 
Q 2069 922 1553 922 
Q 1341 922 1119 984 
Q 981 866 932 777 
Q 884 688 884 625 
Q 884 572 936 522 
Q 988 472 1138 450 
Q 1225 438 1575 428 
Q 2219 413 2409 384 
Q 2700 344 2873 169 
Q 3047 -6 3047 -263 
Q 3047 -616 2716 -925 
Q 2228 -1381 1444 -1381 
Q 841 -1381 425 -1109 
Q 191 -953 191 -784 
Q 191 -709 225 -634 
Q 278 -519 444 -313 
Q 466 -284 763 25 
Q 600 122 533 198 
Q 466 275 466 372 
Q 466 481 555 628 
Q 644 775 966 1044 
z
M 1509 2797 
Q 1278 2797 1122 2612 
Q 966 2428 966 2047 
Q 966 1553 1178 1281 
Q 1341 1075 1591 1075 
Q 1828 1075 1981 1253 
Q 2134 1431 2134 1813 
Q 2134 2309 1919 2591 
Q 1759 2797 1509 2797 
z
M 934 0 
Q 788 -159 713 -296 
Q 638 -434 638 -550 
Q 638 -700 819 -813 
Q 1131 -1006 1722 -1006 
Q 2284 -1006 2551 -807 
Q 2819 -609 2819 -384 
Q 2819 -222 2659 -153 
Q 2497 -84 2016 -72 
Q 1313 -53 934 0 
z
" transform="scale(0.015625)"/>
     </defs>
     <use xlink:href="#TimesNewRomanPSMT-50"/>
     <use xlink:href="#TimesNewRomanPSMT-6c" x="55.615234"/>
     <use xlink:href="#TimesNewRomanPSMT-61" x="83.398438"/>
     <use xlink:href="#TimesNewRomanPSMT-73" x="127.783203"/>
     <use xlink:href="#TimesNewRomanPSMT-74" x="166.699219"/>
     <use xlink:href="#TimesNewRomanPSMT-69" x="194.482422"/>
     <use xlink:href="#TimesNewRomanPSMT-63" x="222.265625"/>
     <use xlink:href="#TimesNewRomanPSMT-20" x="266.650391"/>
     <use xlink:href="#TimesNewRomanPSMT-42" x="291.650391"/>
     <use xlink:href="#TimesNewRomanPSMT-61" x="358.349609"/>
     <use xlink:href="#TimesNewRomanPSMT-67" x="402.734375"/>
    </g>
   </g>
  </g>
 </g>
 <defs>
  <clipPath id="pe16f77c5b3">
   <rect x="44.782813" y="21.5325" width="803.77" height="288.424"/>
  </clipPath>
 </defs>
</svg>
