<?xml version="1.0" encoding="utf-8" standalone="no"?>
<!DOCTYPE svg PUBLIC "-//W3C//DTD SVG 1.1//EN"
  "http://www.w3.org/Graphics/SVG/1.1/DTD/svg11.dtd">
<svg xmlns:xlink="http://www.w3.org/1999/xlink" width="856.52375pt" height="347.72425pt" viewBox="0 0 856.52375 347.72425" xmlns="http://www.w3.org/2000/svg" version="1.1">
 <metadata>
  <rdf:RDF xmlns:dc="http://purl.org/dc/elements/1.1/" xmlns:cc="http://creativecommons.org/ns#" xmlns:rdf="http://www.w3.org/1999/02/22-rdf-syntax-ns#">
   <cc:Work>
    <dc:type rdf:resource="http://purl.org/dc/dcmitype/StillImage"/>
    <dc:date>2026-04-05T23:10:13.875357</dc:date>
    <dc:format>image/svg+xml</dc:format>
    <dc:creator>
     <cc:Agent>
      <dc:title>Matplotlib v3.9.4, https://matplotlib.org/</dc:title>
     </cc:Agent>
    </dc:creator>
   </cc:Work>
  </rdf:RDF>
 </metadata>
 <defs>
  <style type="text/css">*{stroke-linejoin: round; stroke-linecap: butt}</style>
 </defs>
 <g id="figure_1">
  <g id="patch_1">
   <path d="M 0 347.72425 
L 856.52375 347.72425 
L 856.52375 0 
L 0 0 
z
" style="fill: #ffffff"/>
  </g>
  <g id="axes_1">
   <g id="patch_2">
    <path d="M 50.14375 309.446125 
L 849.32375 309.446125 
L 849.32375 22.318125 
L 50.14375 22.318125 
z
" style="fill: #ffffff"/>
   </g>
   <g id="patch_3">
    <path d="M 235.460851 309.446125 
L 142.802301 309.446125 
L 142.802301 22.318125 
L 235.460851 22.318125 
z
" clip-path="url(#pd18395599f)" style="fill: #cce5ff; opacity: 0.35; stroke: #cce5ff; stroke-linejoin: miter"/>
   </g>
   <g id="patch_4">
    <path d="M 316.537083 309.446125 
L 281.790127 309.446125 
L 281.790127 22.318125 
L 316.537083 22.318125 
z
" clip-path="url(#pd18395599f)" style="fill: #d4edda; opacity: 0.35; stroke: #d4edda; stroke-linejoin: miter"/>
   </g>
   <g id="patch_5">
    <path d="M 587.563344 309.446125 
L 571.348098 309.446125 
L 571.348098 22.318125 
L 587.563344 22.318125 
z
" clip-path="url(#pd18395599f)" style="fill: #f8d7da; opacity: 0.35; stroke: #f8d7da; stroke-linejoin: miter"/>
   </g>
   <g id="patch_6">
    <path d="M 606.095054 309.446125 
L 587.563344 309.446125 
L 587.563344 22.318125 
L 606.095054 22.318125 
z
" clip-path="url(#pd18395599f)" style="fill: #fff3cd; opacity: 0.35; stroke: #fff3cd; stroke-linejoin: miter"/>
   </g>
   <g id="patch_7">
    <path d="M 664.006649 309.446125 
L 633.89262 309.446125 
L 633.89262 22.318125 
L 664.006649 22.318125 
z
" clip-path="url(#pd18395599f)" style="fill: #fce4b8; opacity: 0.35; stroke: #fce4b8; stroke-linejoin: miter"/>
   </g>
   <g id="patch_8">
    <path d="M 745.08288 309.446125 
L 675.588967 309.446125 
L 675.588967 22.318125 
L 745.08288 22.318125 
z
" clip-path="url(#pd18395599f)" style="fill: #e2d9f3; opacity: 0.35; stroke: #e2d9f3; stroke-linejoin: miter"/>
   </g>
   <g id="matplotlib.axis_1">
    <g id="xtick_1">
     <g id="line2d_1">
      <defs>
       <path id="ma6351050a3" d="M 0 0 
L 0 3.5 
" style="stroke: #000000; stroke-width: 0.8"/>
      </defs>
      <g>
       <use xlink:href="#ma6351050a3" x="745.08288" y="309.446125" style="stroke: #000000; stroke-width: 0.8"/>
      </g>
     </g>
     <g id="text_1">
      <!-- 1,000 -->
      <g transform="translate(730.768818 324.044562) scale(0.1 -0.1)">
       <defs>
        <path id="DejaVuSans-31" d="M 794 531 
L 1825 531 
L 1825 4091 
L 703 3866 
L 703 4441 
L 1819 4666 
L 2450 4666 
L 2450 531 
L 3481 531 
L 3481 0 
L 794 0 
L 794 531 
z
" transform="scale(0.015625)"/>
        <path id="DejaVuSans-2c" d="M 750 794 
L 1409 794 
L 1409 256 
L 897 -744 
L 494 -744 
L 750 256 
L 750 794 
z
" transform="scale(0.015625)"/>
        <path id="DejaVuSans-30" d="M 2034 4250 
Q 1547 4250 1301 3770 
Q 1056 3291 1056 2328 
Q 1056 1369 1301 889 
Q 1547 409 2034 409 
Q 2525 409 2770 889 
Q 3016 1369 3016 2328 
Q 3016 3291 2770 3770 
Q 2525 4250 2034 4250 
z
M 2034 4750 
Q 2819 4750 3233 4129 
Q 3647 3509 3647 2328 
Q 3647 1150 3233 529 
Q 2819 -91 2034 -91 
Q 1250 -91 836 529 
Q 422 1150 422 2328 
Q 422 3509 836 4129 
Q 1250 4750 2034 4750 
z
" transform="scale(0.015625)"/>
       </defs>
       <use xlink:href="#DejaVuSans-31"/>
       <use xlink:href="#DejaVuSans-2c" x="63.623047"/>
       <use xlink:href="#DejaVuSans-30" x="95.410156"/>
       <use xlink:href="#DejaVuSans-30" x="159.033203"/>
       <use xlink:href="#DejaVuSans-30" x="222.65625"/>
      </g>
     </g>
    </g>
    <g id="xtick_2">
     <g id="line2d_2">
      <g>
       <use xlink:href="#ma6351050a3" x="629.259692" y="309.446125" style="stroke: #000000; stroke-width: 0.8"/>
      </g>
     </g>
     <g id="text_2">
      <!-- 1,500 -->
      <g transform="translate(614.94563 324.044562) scale(0.1 -0.1)">
       <defs>
        <path id="DejaVuSans-35" d="M 691 4666 
L 3169 4666 
L 3169 4134 
L 1269 4134 
L 1269 2991 
Q 1406 3038 1543 3061 
Q 1681 3084 1819 3084 
Q 2600 3084 3056 2656 
Q 3513 2228 3513 1497 
Q 3513 744 3044 326 
Q 2575 -91 1722 -91 
Q 1428 -91 1123 -41 
Q 819 9 494 109 
L 494 744 
Q 775 591 1075 516 
Q 1375 441 1709 441 
Q 2250 441 2565 725 
Q 2881 1009 2881 1497 
Q 2881 1984 2565 2268 
Q 2250 2553 1709 2553 
Q 1456 2553 1204 2497 
Q 953 2441 691 2322 
L 691 4666 
z
" transform="scale(0.015625)"/>
       </defs>
       <use xlink:href="#DejaVuSans-31"/>
       <use xlink:href="#DejaVuSans-2c" x="63.623047"/>
       <use xlink:href="#DejaVuSans-35" x="95.410156"/>
       <use xlink:href="#DejaVuSans-30" x="159.033203"/>
       <use xlink:href="#DejaVuSans-30" x="222.65625"/>
      </g>
     </g>
    </g>
    <g id="xtick_3">
     <g id="line2d_3">
      <g>
       <use xlink:href="#ma6351050a3" x="513.436504" y="309.446125" style="stroke: #000000; stroke-width: 0.8"/>
      </g>
     </g>
     <g id="text_3">
      <!-- 2,000 -->
      <g transform="translate(499.122441 324.044562) scale(0.1 -0.1)">
       <defs>
        <path id="DejaVuSans-32" d="M 1228 531 
L 3431 531 
L 3431 0 
L 469 0 
L 469 531 
Q 828 903 1448 1529 
Q 2069 2156 2228 2338 
Q 2531 2678 2651 2914 
Q 2772 3150 2772 3378 
Q 2772 3750 2511 3984 
Q 2250 4219 1831 4219 
Q 1534 4219 1204 4116 
Q 875 4013 500 3803 
L 500 4441 
Q 881 4594 1212 4672 
Q 1544 4750 1819 4750 
Q 2544 4750 2975 4387 
Q 3406 4025 3406 3419 
Q 3406 3131 3298 2873 
Q 3191 2616 2906 2266 
Q 2828 2175 2409 1742 
Q 1991 1309 1228 531 
z
" transform="scale(0.015625)"/>
       </defs>
       <use xlink:href="#DejaVuSans-32"/>
       <use xlink:href="#DejaVuSans-2c" x="63.623047"/>
       <use xlink:href="#DejaVuSans-30" x="95.410156"/>
       <use xlink:href="#DejaVuSans-30" x="159.033203"/>
       <use xlink:href="#DejaVuSans-30" x="222.65625"/>
      </g>
     </g>
    </g>
    <g id="xtick_4">
     <g id="line2d_4">
      <g>
       <use xlink:href="#ma6351050a3" x="397.613315" y="309.446125" style="stroke: #000000; stroke-width: 0.8"/>
      </g>
     </g>
     <g id="text_4">
      <!-- 2,500 -->
      <g transform="translate(383.299253 324.044562) scale(0.1 -0.1)">
       <use xlink:href="#DejaVuSans-32"/>
       <use xlink:href="#DejaVuSans-2c" x="63.623047"/>
       <use xlink:href="#DejaVuSans-35" x="95.410156"/>
       <use xlink:href="#DejaVuSans-30" x="159.033203"/>
       <use xlink:href="#DejaVuSans-30" x="222.65625"/>
      </g>
     </g>
    </g>
    <g id="xtick_5">
     <g id="line2d_5">
      <g>
       <use xlink:href="#ma6351050a3" x="281.790127" y="309.446125" style="stroke: #000000; stroke-width: 0.8"/>
      </g>
     </g>
     <g id="text_5">
      <!-- 3,000 -->
      <g transform="translate(267.476064 324.044562) scale(0.1 -0.1)">
       <defs>
        <path id="DejaVuSans-33" d="M 2597 2516 
Q 3050 2419 3304 2112 
Q 3559 1806 3559 1356 
Q 3559 666 3084 287 
Q 2609 -91 1734 -91 
Q 1441 -91 1130 -33 
Q 819 25 488 141 
L 488 750 
Q 750 597 1062 519 
Q 1375 441 1716 441 
Q 2309 441 2620 675 
Q 2931 909 2931 1356 
Q 2931 1769 2642 2001 
Q 2353 2234 1838 2234 
L 1294 2234 
L 1294 2753 
L 1863 2753 
Q 2328 2753 2575 2939 
Q 2822 3125 2822 3475 
Q 2822 3834 2567 4026 
Q 2313 4219 1838 4219 
Q 1578 4219 1281 4162 
Q 984 4106 628 3988 
L 628 4550 
Q 988 4650 1302 4700 
Q 1616 4750 1894 4750 
Q 2613 4750 3031 4423 
Q 3450 4097 3450 3541 
Q 3450 3153 3228 2886 
Q 3006 2619 2597 2516 
z
" transform="scale(0.015625)"/>
       </defs>
       <use xlink:href="#DejaVuSans-33"/>
       <use xlink:href="#DejaVuSans-2c" x="63.623047"/>
       <use xlink:href="#DejaVuSans-30" x="95.410156"/>
       <use xlink:href="#DejaVuSans-30" x="159.033203"/>
       <use xlink:href="#DejaVuSans-30" x="222.65625"/>
      </g>
     </g>
    </g>
    <g id="xtick_6">
     <g id="line2d_6">
      <g>
       <use xlink:href="#ma6351050a3" x="165.966938" y="309.446125" style="stroke: #000000; stroke-width: 0.8"/>
      </g>
     </g>
     <g id="text_6">
      <!-- 3,500 -->
      <g transform="translate(151.652876 324.044562) scale(0.1 -0.1)">
       <use xlink:href="#DejaVuSans-33"/>
       <use xlink:href="#DejaVuSans-2c" x="63.623047"/>
       <use xlink:href="#DejaVuSans-35" x="95.410156"/>
       <use xlink:href="#DejaVuSans-30" x="159.033203"/>
       <use xlink:href="#DejaVuSans-30" x="222.65625"/>
      </g>
     </g>
    </g>
    <g id="xtick_7">
     <g id="line2d_7">
      <g>
       <use xlink:href="#ma6351050a3" x="50.14375" y="309.446125" style="stroke: #000000; stroke-width: 0.8"/>
      </g>
     </g>
     <g id="text_7">
      <!-- 4,000 -->
      <g transform="translate(35.829687 324.044562) scale(0.1 -0.1)">
       <defs>
        <path id="DejaVuSans-34" d="M 2419 4116 
L 825 1625 
L 2419 1625 
L 2419 4116 
z
M 2253 4666 
L 3047 4666 
L 3047 1625 
L 3713 1625 
L 3713 1100 
L 3047 1100 
L 3047 0 
L 2419 0 
L 2419 1100 
L 313 1100 
L 313 1709 
L 2253 4666 
z
" transform="scale(0.015625)"/>
       </defs>
       <use xlink:href="#DejaVuSans-34"/>
       <use xlink:href="#DejaVuSans-2c" x="63.623047"/>
       <use xlink:href="#DejaVuSans-30" x="95.410156"/>
       <use xlink:href="#DejaVuSans-30" x="159.033203"/>
       <use xlink:href="#DejaVuSans-30" x="222.65625"/>
      </g>
     </g>
    </g>
    <g id="text_8">
     <!-- Wavenumber (cm$^{-1}$) -->
     <g transform="translate(397.68375 338.444562) scale(0.1 -0.1)">
      <defs>
       <path id="DejaVuSans-57" d="M 213 4666 
L 850 4666 
L 1831 722 
L 2809 4666 
L 3519 4666 
L 4500 722 
L 5478 4666 
L 6119 4666 
L 4947 0 
L 4153 0 
L 3169 4050 
L 2175 0 
L 1381 0 
L 213 4666 
z
" transform="scale(0.015625)"/>
       <path id="DejaVuSans-61" d="M 2194 1759 
Q 1497 1759 1228 1600 
Q 959 1441 959 1056 
Q 959 750 1161 570 
Q 1363 391 1709 391 
Q 2188 391 2477 730 
Q 2766 1069 2766 1631 
L 2766 1759 
L 2194 1759 
z
M 3341 1997 
L 3341 0 
L 2766 0 
L 2766 531 
Q 2569 213 2275 61 
Q 1981 -91 1556 -91 
Q 1019 -91 701 211 
Q 384 513 384 1019 
Q 384 1609 779 1909 
Q 1175 2209 1959 2209 
L 2766 2209 
L 2766 2266 
Q 2766 2663 2505 2880 
Q 2244 3097 1772 3097 
Q 1472 3097 1187 3025 
Q 903 2953 641 2809 
L 641 3341 
Q 956 3463 1253 3523 
Q 1550 3584 1831 3584 
Q 2591 3584 2966 3190 
Q 3341 2797 3341 1997 
z
" transform="scale(0.015625)"/>
       <path id="DejaVuSans-76" d="M 191 3500 
L 800 3500 
L 1894 563 
L 2988 3500 
L 3597 3500 
L 2284 0 
L 1503 0 
L 191 3500 
z
" transform="scale(0.015625)"/>
       <path id="DejaVuSans-65" d="M 3597 1894 
L 3597 1613 
L 953 1613 
Q 991 1019 1311 708 
Q 1631 397 2203 397 
Q 2534 397 2845 478 
Q 3156 559 3463 722 
L 3463 178 
Q 3153 47 2828 -22 
Q 2503 -91 2169 -91 
Q 1331 -91 842 396 
Q 353 884 353 1716 
Q 353 2575 817 3079 
Q 1281 3584 2069 3584 
Q 2775 3584 3186 3129 
Q 3597 2675 3597 1894 
z
M 3022 2063 
Q 3016 2534 2758 2815 
Q 2500 3097 2075 3097 
Q 1594 3097 1305 2825 
Q 1016 2553 972 2059 
L 3022 2063 
z
" transform="scale(0.015625)"/>
       <path id="DejaVuSans-6e" d="M 3513 2113 
L 3513 0 
L 2938 0 
L 2938 2094 
Q 2938 2591 2744 2837 
Q 2550 3084 2163 3084 
Q 1697 3084 1428 2787 
Q 1159 2491 1159 1978 
L 1159 0 
L 581 0 
L 581 3500 
L 1159 3500 
L 1159 2956 
Q 1366 3272 1645 3428 
Q 1925 3584 2291 3584 
Q 2894 3584 3203 3211 
Q 3513 2838 3513 2113 
z
" transform="scale(0.015625)"/>
       <path id="DejaVuSans-75" d="M 544 1381 
L 544 3500 
L 1119 3500 
L 1119 1403 
Q 1119 906 1312 657 
Q 1506 409 1894 409 
Q 2359 409 2629 706 
Q 2900 1003 2900 1516 
L 2900 3500 
L 3475 3500 
L 3475 0 
L 2900 0 
L 2900 538 
Q 2691 219 2414 64 
Q 2138 -91 1772 -91 
Q 1169 -91 856 284 
Q 544 659 544 1381 
z
M 1991 3584 
L 1991 3584 
z
" transform="scale(0.015625)"/>
       <path id="DejaVuSans-6d" d="M 3328 2828 
Q 3544 3216 3844 3400 
Q 4144 3584 4550 3584 
Q 5097 3584 5394 3201 
Q 5691 2819 5691 2113 
L 5691 0 
L 5113 0 
L 5113 2094 
Q 5113 2597 4934 2840 
Q 4756 3084 4391 3084 
Q 3944 3084 3684 2787 
Q 3425 2491 3425 1978 
L 3425 0 
L 2847 0 
L 2847 2094 
Q 2847 2600 2669 2842 
Q 2491 3084 2119 3084 
Q 1678 3084 1418 2786 
Q 1159 2488 1159 1978 
L 1159 0 
L 581 0 
L 581 3500 
L 1159 3500 
L 1159 2956 
Q 1356 3278 1631 3431 
Q 1906 3584 2284 3584 
Q 2666 3584 2933 3390 
Q 3200 3197 3328 2828 
z
" transform="scale(0.015625)"/>
       <path id="DejaVuSans-62" d="M 3116 1747 
Q 3116 2381 2855 2742 
Q 2594 3103 2138 3103 
Q 1681 3103 1420 2742 
Q 1159 2381 1159 1747 
Q 1159 1113 1420 752 
Q 1681 391 2138 391 
Q 2594 391 2855 752 
Q 3116 1113 3116 1747 
z
M 1159 2969 
Q 1341 3281 1617 3432 
Q 1894 3584 2278 3584 
Q 2916 3584 3314 3078 
Q 3713 2572 3713 1747 
Q 3713 922 3314 415 
Q 2916 -91 2278 -91 
Q 1894 -91 1617 61 
Q 1341 213 1159 525 
L 1159 0 
L 581 0 
L 581 4863 
L 1159 4863 
L 1159 2969 
z
" transform="scale(0.015625)"/>
       <path id="DejaVuSans-72" d="M 2631 2963 
Q 2534 3019 2420 3045 
Q 2306 3072 2169 3072 
Q 1681 3072 1420 2755 
Q 1159 2438 1159 1844 
L 1159 0 
L 581 0 
L 581 3500 
L 1159 3500 
L 1159 2956 
Q 1341 3275 1631 3429 
Q 1922 3584 2338 3584 
Q 2397 3584 2469 3576 
Q 2541 3569 2628 3553 
L 2631 2963 
z
" transform="scale(0.015625)"/>
       <path id="DejaVuSans-20" transform="scale(0.015625)"/>
       <path id="DejaVuSans-28" d="M 1984 4856 
Q 1566 4138 1362 3434 
Q 1159 2731 1159 2009 
Q 1159 1288 1364 580 
Q 1569 -128 1984 -844 
L 1484 -844 
Q 1016 -109 783 600 
Q 550 1309 550 2009 
Q 550 2706 781 3412 
Q 1013 4119 1484 4856 
L 1984 4856 
z
" transform="scale(0.015625)"/>
       <path id="DejaVuSans-63" d="M 3122 3366 
L 3122 2828 
Q 2878 2963 2633 3030 
Q 2388 3097 2138 3097 
Q 1578 3097 1268 2742 
Q 959 2388 959 1747 
Q 959 1106 1268 751 
Q 1578 397 2138 397 
Q 2388 397 2633 464 
Q 2878 531 3122 666 
L 3122 134 
Q 2881 22 2623 -34 
Q 2366 -91 2075 -91 
Q 1284 -91 818 406 
Q 353 903 353 1747 
Q 353 2603 823 3093 
Q 1294 3584 2113 3584 
Q 2378 3584 2631 3529 
Q 2884 3475 3122 3366 
z
" transform="scale(0.015625)"/>
       <path id="DejaVuSans-2212" d="M 678 2272 
L 4684 2272 
L 4684 1741 
L 678 1741 
L 678 2272 
z
" transform="scale(0.015625)"/>
       <path id="DejaVuSans-29" d="M 513 4856 
L 1013 4856 
Q 1481 4119 1714 3412 
Q 1947 2706 1947 2009 
Q 1947 1309 1714 600 
Q 1481 -109 1013 -844 
L 513 -844 
Q 928 -128 1133 580 
Q 1338 1288 1338 2009 
Q 1338 2731 1133 3434 
Q 928 4138 513 4856 
z
" transform="scale(0.015625)"/>
      </defs>
      <use xlink:href="#DejaVuSans-57" transform="translate(0 0.684375)"/>
      <use xlink:href="#DejaVuSans-61" transform="translate(98.876953 0.684375)"/>
      <use xlink:href="#DejaVuSans-76" transform="translate(160.15625 0.684375)"/>
      <use xlink:href="#DejaVuSans-65" transform="translate(219.335938 0.684375)"/>
      <use xlink:href="#DejaVuSans-6e" transform="translate(280.859375 0.684375)"/>
      <use xlink:href="#DejaVuSans-75" transform="translate(344.238281 0.684375)"/>
      <use xlink:href="#DejaVuSans-6d" transform="translate(407.617188 0.684375)"/>
      <use xlink:href="#DejaVuSans-62" transform="translate(505.029297 0.684375)"/>
      <use xlink:href="#DejaVuSans-65" transform="translate(568.505859 0.684375)"/>
      <use xlink:href="#DejaVuSans-72" transform="translate(630.029297 0.684375)"/>
      <use xlink:href="#DejaVuSans-20" transform="translate(671.142578 0.684375)"/>
      <use xlink:href="#DejaVuSans-28" transform="translate(702.929688 0.684375)"/>
      <use xlink:href="#DejaVuSans-63" transform="translate(741.943359 0.684375)"/>
      <use xlink:href="#DejaVuSans-6d" transform="translate(796.923828 0.684375)"/>
      <use xlink:href="#DejaVuSans-2212" transform="translate(895.292969 38.965625) scale(0.7)"/>
      <use xlink:href="#DejaVuSans-31" transform="translate(953.945312 38.965625) scale(0.7)"/>
      <use xlink:href="#DejaVuSans-29" transform="translate(1001.21582 0.684375)"/>
     </g>
    </g>
   </g>
   <g id="matplotlib.axis_2">
    <g id="ytick_1">
     <g id="line2d_8">
      <path d="M 50.14375 293.19574 
L 849.32375 293.19574 
" clip-path="url(#pd18395599f)" style="fill: none; stroke: #b0b0b0; stroke-opacity: 0.3; stroke-width: 0.8; stroke-linecap: square"/>
     </g>
     <g id="line2d_9">
      <defs>
       <path id="m6b2e031106" d="M 0 0 
L -3.5 0 
" style="stroke: #000000; stroke-width: 0.8"/>
      </defs>
      <g>
       <use xlink:href="#m6b2e031106" x="50.14375" y="293.19574" style="stroke: #000000; stroke-width: 0.8"/>
      </g>
     </g>
     <g id="text_9">
      <!-- 0.00 -->
      <g transform="translate(20.878125 296.994959) scale(0.1 -0.1)">
       <defs>
        <path id="DejaVuSans-2e" d="M 684 794 
L 1344 794 
L 1344 0 
L 684 0 
L 684 794 
z
" transform="scale(0.015625)"/>
       </defs>
       <use xlink:href="#DejaVuSans-30"/>
       <use xlink:href="#DejaVuSans-2e" x="63.623047"/>
       <use xlink:href="#DejaVuSans-30" x="95.410156"/>
       <use xlink:href="#DejaVuSans-30" x="159.033203"/>
      </g>
     </g>
    </g>
    <g id="ytick_2">
     <g id="line2d_10">
      <path d="M 50.14375 245.161023 
L 849.32375 245.161023 
" clip-path="url(#pd18395599f)" style="fill: none; stroke: #b0b0b0; stroke-opacity: 0.3; stroke-width: 0.8; stroke-linecap: square"/>
     </g>
     <g id="line2d_11">
      <g>
       <use xlink:href="#m6b2e031106" x="50.14375" y="245.161023" style="stroke: #000000; stroke-width: 0.8"/>
      </g>
     </g>
     <g id="text_10">
      <!-- 0.05 -->
      <g transform="translate(20.878125 248.960242) scale(0.1 -0.1)">
       <use xlink:href="#DejaVuSans-30"/>
       <use xlink:href="#DejaVuSans-2e" x="63.623047"/>
       <use xlink:href="#DejaVuSans-30" x="95.410156"/>
       <use xlink:href="#DejaVuSans-35" x="159.033203"/>
      </g>
     </g>
    </g>
    <g id="ytick_3">
     <g id="line2d_12">
      <path d="M 50.14375 197.126307 
L 849.32375 197.126307 
" clip-path="url(#pd18395599f)" style="fill: none; stroke: #b0b0b0; stroke-opacity: 0.3; stroke-width: 0.8; stroke-linecap: square"/>
     </g>
     <g id="line2d_13">
      <g>
       <use xlink:href="#m6b2e031106" x="50.14375" y="197.126307" style="stroke: #000000; stroke-width: 0.8"/>
      </g>
     </g>
     <g id="text_11">
      <!-- 0.10 -->
      <g transform="translate(20.878125 200.925525) scale(0.1 -0.1)">
       <use xlink:href="#DejaVuSans-30"/>
       <use xlink:href="#DejaVuSans-2e" x="63.623047"/>
       <use xlink:href="#DejaVuSans-31" x="95.410156"/>
       <use xlink:href="#DejaVuSans-30" x="159.033203"/>
      </g>
     </g>
    </g>
    <g id="ytick_4">
     <g id="line2d_14">
      <path d="M 50.14375 149.09159 
L 849.32375 149.09159 
" clip-path="url(#pd18395599f)" style="fill: none; stroke: #b0b0b0; stroke-opacity: 0.3; stroke-width: 0.8; stroke-linecap: square"/>
     </g>
     <g id="line2d_15">
      <g>
       <use xlink:href="#m6b2e031106" x="50.14375" y="149.09159" style="stroke: #000000; stroke-width: 0.8"/>
      </g>
     </g>
     <g id="text_12">
      <!-- 0.15 -->
      <g transform="translate(20.878125 152.890808) scale(0.1 -0.1)">
       <use xlink:href="#DejaVuSans-30"/>
       <use xlink:href="#DejaVuSans-2e" x="63.623047"/>
       <use xlink:href="#DejaVuSans-31" x="95.410156"/>
       <use xlink:href="#DejaVuSans-35" x="159.033203"/>
      </g>
     </g>
    </g>
    <g id="ytick_5">
     <g id="line2d_16">
      <path d="M 50.14375 101.056873 
L 849.32375 101.056873 
" clip-path="url(#pd18395599f)" style="fill: none; stroke: #b0b0b0; stroke-opacity: 0.3; stroke-width: 0.8; stroke-linecap: square"/>
     </g>
     <g id="line2d_17">
      <g>
       <use xlink:href="#m6b2e031106" x="50.14375" y="101.056873" style="stroke: #000000; stroke-width: 0.8"/>
      </g>
     </g>
     <g id="text_13">
      <!-- 0.20 -->
      <g transform="translate(20.878125 104.856092) scale(0.1 -0.1)">
       <use xlink:href="#DejaVuSans-30"/>
       <use xlink:href="#DejaVuSans-2e" x="63.623047"/>
       <use xlink:href="#DejaVuSans-32" x="95.410156"/>
       <use xlink:href="#DejaVuSans-30" x="159.033203"/>
      </g>
     </g>
    </g>
    <g id="ytick_6">
     <g id="line2d_18">
      <path d="M 50.14375 53.022156 
L 849.32375 53.022156 
" clip-path="url(#pd18395599f)" style="fill: none; stroke: #b0b0b0; stroke-opacity: 0.3; stroke-width: 0.8; stroke-linecap: square"/>
     </g>
     <g id="line2d_19">
      <g>
       <use xlink:href="#m6b2e031106" x="50.14375" y="53.022156" style="stroke: #000000; stroke-width: 0.8"/>
      </g>
     </g>
     <g id="text_14">
      <!-- 0.25 -->
      <g transform="translate(20.878125 56.821375) scale(0.1 -0.1)">
       <use xlink:href="#DejaVuSans-30"/>
       <use xlink:href="#DejaVuSans-2e" x="63.623047"/>
       <use xlink:href="#DejaVuSans-32" x="95.410156"/>
       <use xlink:href="#DejaVuSans-35" x="159.033203"/>
      </g>
     </g>
    </g>
    <g id="text_15">
     <!-- Absorbance -->
     <g transform="translate(14.798438 195.429) rotate(-90) scale(0.1 -0.1)">
      <defs>
       <path id="DejaVuSans-41" d="M 2188 4044 
L 1331 1722 
L 3047 1722 
L 2188 4044 
z
M 1831 4666 
L 2547 4666 
L 4325 0 
L 3669 0 
L 3244 1197 
L 1141 1197 
L 716 0 
L 50 0 
L 1831 4666 
z
" transform="scale(0.015625)"/>
       <path id="DejaVuSans-73" d="M 2834 3397 
L 2834 2853 
Q 2591 2978 2328 3040 
Q 2066 3103 1784 3103 
Q 1356 3103 1142 2972 
Q 928 2841 928 2578 
Q 928 2378 1081 2264 
Q 1234 2150 1697 2047 
L 1894 2003 
Q 2506 1872 2764 1633 
Q 3022 1394 3022 966 
Q 3022 478 2636 193 
Q 2250 -91 1575 -91 
Q 1294 -91 989 -36 
Q 684 19 347 128 
L 347 722 
Q 666 556 975 473 
Q 1284 391 1588 391 
Q 1994 391 2212 530 
Q 2431 669 2431 922 
Q 2431 1156 2273 1281 
Q 2116 1406 1581 1522 
L 1381 1569 
Q 847 1681 609 1914 
Q 372 2147 372 2553 
Q 372 3047 722 3315 
Q 1072 3584 1716 3584 
Q 2034 3584 2315 3537 
Q 2597 3491 2834 3397 
z
" transform="scale(0.015625)"/>
       <path id="DejaVuSans-6f" d="M 1959 3097 
Q 1497 3097 1228 2736 
Q 959 2375 959 1747 
Q 959 1119 1226 758 
Q 1494 397 1959 397 
Q 2419 397 2687 759 
Q 2956 1122 2956 1747 
Q 2956 2369 2687 2733 
Q 2419 3097 1959 3097 
z
M 1959 3584 
Q 2709 3584 3137 3096 
Q 3566 2609 3566 1747 
Q 3566 888 3137 398 
Q 2709 -91 1959 -91 
Q 1206 -91 779 398 
Q 353 888 353 1747 
Q 353 2609 779 3096 
Q 1206 3584 1959 3584 
z
" transform="scale(0.015625)"/>
      </defs>
      <use xlink:href="#DejaVuSans-41"/>
      <use xlink:href="#DejaVuSans-62" x="68.408203"/>
      <use xlink:href="#DejaVuSans-73" x="131.884766"/>
      <use xlink:href="#DejaVuSans-6f" x="183.984375"/>
      <use xlink:href="#DejaVuSans-72" x="245.166016"/>
      <use xlink:href="#DejaVuSans-62" x="286.279297"/>
      <use xlink:href="#DejaVuSans-61" x="349.755859"/>
      <use xlink:href="#DejaVuSans-6e" x="411.035156"/>
      <use xlink:href="#DejaVuSans-63" x="474.414062"/>
      <use xlink:href="#DejaVuSans-65" x="529.394531"/>
     </g>
    </g>
   </g>
   <g id="line2d_20">
    <path d="M 849.301697 286.645726 
L 849.078344 286.419963 
L 848.85499 286.561185 
L 848.631614 287.741878 
L 847.849854 292.695218 
L 847.6265 292.687533 
L 847.403147 292.731725 
L 847.068093 293.554079 
L 846.84474 293.847091 
L 846.286333 293.437835 
L 845.839603 295.27084 
L 845.504573 296.186382 
L 845.281196 296.077823 
L 845.16952 295.94909 
L 844.83449 296.272844 
L 844.611113 296.394852 
L 844.38776 295.924112 
L 844.052729 293.946042 
L 843.717676 292.174522 
L 843.494323 291.953562 
L 843.270946 291.90937 
L 843.047593 291.514525 
L 842.600863 290.568241 
L 842.265832 290.147457 
L 841.707426 288.889908 
L 841.484072 289.436543 
L 840.813989 292.110156 
L 840.367259 290.309814 
L 840.255582 290.22047 
L 840.032229 290.577848 
L 839.808852 290.958283 
L 839.697175 290.85741 
L 839.473822 289.956279 
L 839.138768 288.479692 
L 839.027092 288.399954 
L 838.803738 288.846677 
L 838.468685 289.598901 
L 837.686925 290.181081 
L 837.240195 290.769026 
L 836.905165 291.972776 
L 836.570111 293.143863 
L 836.346758 293.294692 
L 836.123404 292.927706 
L 835.453321 291.444394 
L 835.118268 291.076448 
L 834.894914 290.309814 
L 834.224831 287.028082 
L 834.113154 287.016554 
L 833.889777 287.517076 
L 833.219694 289.856367 
L 832.99634 290.016803 
L 832.54961 289.977414 
L 831.991227 290.387631 
L 831.76785 290.189728 
L 831.43282 289.4596 
L 830.65106 287.547818 
L 830.427683 287.544936 
L 830.092653 287.997423 
L 828.97584 289.575844 
L 828.752486 289.591215 
L 828.417433 288.936021 
L 828.082403 288.484495 
L 827.859026 288.610346 
L 827.523996 288.805367 
L 827.300642 288.627639 
L 826.853912 288.153056 
L 826.630559 288.188601 
L 826.072152 288.523884 
L 825.848776 288.410522 
L 825.067015 287.514194 
L 824.731985 287.762053 
L 824.508609 287.884061 
L 824.173579 287.753407 
L 823.950225 287.696726 
L 823.280142 287.907118 
L 822.721735 287.421006 
L 822.386682 286.810966 
L 822.051651 286.006864 
L 821.939975 286.021275 
L 821.716598 286.577517 
L 821.269891 287.634281 
L 820.934838 287.796638 
L 820.599808 287.711136 
L 819.929724 287.438299 
L 819.371318 287.314369 
L 818.366181 286.959873 
L 818.031151 287.130877 
L 817.696097 287.330701 
L 817.472744 287.28747 
L 817.026014 286.868607 
L 816.467607 286.382496 
L 815.909223 285.995336 
L 815.015763 285.07307 
L 814.34568 283.602246 
L 813.898973 281.929678 
L 813.22889 278.582619 
L 812.78216 275.092416 
L 812.335429 269.817243 
L 812.000399 263.559281 
L 811.665346 253.326925 
L 811.106939 225.137271 
L 810.660232 207.085825 
L 810.436856 203.911691 
L 810.325179 204.084616 
L 810.101826 208.197348 
L 809.766772 221.966019 
L 809.208389 245.921893 
L 808.873335 253.833211 
L 808.538305 257.378173 
L 808.426605 257.640443 
L 808.314929 257.422365 
L 808.091575 255.633552 
L 807.644845 250.741697 
L 807.533168 250.720561 
L 807.421492 251.635142 
L 807.198138 256.267611 
L 806.416355 277.928386 
L 806.081325 281.615531 
L 805.746271 283.272728 
L 805.076188 285.061541 
L 804.741158 285.532281 
L 804.182751 286.040489 
L 803.624344 286.562146 
L 802.619231 287.192361 
L 801.167364 287.774542 
L 800.60898 287.81297 
L 799.938897 288.070436 
L 799.157113 288.142488 
L 797.928646 288.746765 
L 797.035186 288.636285 
L 796.253426 289.170431 
L 795.806696 289.289557 
L 794.689906 289.115671 
L 793.684769 289.668071 
L 793.126362 289.606586 
L 792.679655 289.590254 
L 791.339488 289.875581 
L 790.334352 289.602743 
L 789.999321 289.461521 
L 789.664268 289.609468 
L 789.105861 289.865974 
L 788.659154 289.910166 
L 787.654018 289.789118 
L 787.095611 289.883266 
L 786.313851 289.908244 
L 783.52184 290.3175 
L 783.07511 290.303089 
L 782.516726 290.412609 
L 781.734943 290.231998 
L 780.394776 290.318461 
L 779.948069 290.270426 
L 778.831256 290.443351 
L 778.161172 290.485621 
L 777.491089 290.445272 
L 776.485975 290.380906 
L 775.815892 290.578809 
L 775.369162 290.656625 
L 774.252348 290.422216 
L 772.353774 290.134968 
L 771.572014 289.772786 
L 770.008494 290.038899 
L 769.33841 290.233919 
L 768.89168 290.130165 
L 768.333274 289.979335 
L 767.216483 289.852524 
L 766.323023 289.486499 
L 765.876316 289.592176 
L 764.647826 290.110951 
L 764.089419 290.112872 
L 763.419336 290.369377 
L 761.855815 290.288679 
L 761.185732 290.24833 
L 760.627325 290.392434 
L 759.845565 290.254094 
L 759.287158 290.357849 
L 757.835315 290.291561 
L 756.830178 290.229116 
L 754.931604 289.95724 
L 754.484897 289.935144 
L 753.814814 289.849642 
L 752.474647 289.963964 
L 751.357833 289.87462 
L 750.68775 289.947633 
L 747.672363 289.685363 
L 746.667249 289.428858 
L 744.321922 289.469207 
L 743.316808 289.099339 
L 742.311695 288.845716 
L 741.418235 288.458556 
L 740.971621 288.36729 
L 739.854622 288.647813 
L 739.296354 288.856284 
L 738.29124 289.154099 
L 737.732741 289.280911 
L 736.615974 289.109907 
L 735.387553 289.149296 
L 734.605746 289.191566 
L 729.803485 289.620997 
L 728.798372 289.561433 
L 728.128219 289.40388 
L 725.783031 289.476892 
L 723.996111 289.470167 
L 723.549497 289.642132 
L 722.76769 289.931301 
L 722.209191 289.829467 
L 721.539038 289.770865 
L 719.864003 289.913048 
L 718.970543 289.93034 
L 718.30039 289.844838 
L 717.071969 289.890952 
L 716.401816 290.009117 
L 715.620009 289.901519 
L 714.168282 289.907283 
L 713.498129 289.992785 
L 712.716322 290.117675 
L 712.158054 290.073484 
L 711.376248 290.103265 
L 709.589328 290.08309 
L 708.919175 290.045623 
L 708.025715 289.928419 
L 706.127141 289.977414 
L 704.675413 289.766061 
L 703.670299 289.514359 
L 702.776839 289.620036 
L 701.771726 289.743005 
L 700.654959 289.675756 
L 698.979692 289.694009 
L 698.086232 289.645975 
L 697.192772 289.591215 
L 696.076005 289.600822 
L 695.070891 289.453836 
L 693.395624 289.380823 
L 692.725471 289.342395 
L 691.943665 289.447111 
L 691.273744 289.296282 
L 690.715244 289.192527 
L 689.933438 289.161785 
L 688.146517 288.913925 
L 687.02975 288.856284 
L 685.912983 288.594014 
L 684.684562 288.458556 
L 684.014409 288.475849 
L 683.120949 288.406679 
L 682.115836 288.331745 
L 681.445683 288.22895 
L 679.658994 288.208776 
L 678.207035 287.751485 
L 677.536882 287.572796 
L 675.415001 286.809044 
L 674.744848 286.849393 
L 674.074927 287.008869 
L 673.516427 287.193322 
L 670.947701 288.189562 
L 670.166126 288.266417 
L 668.714166 288.404757 
L 668.044013 288.15978 
L 666.368978 287.171226 
L 665.587172 286.843629 
L 664.023559 286.012629 
L 663.465291 285.907913 
L 662.236639 285.954026 
L 661.790024 285.95883 
L 661.343179 285.584159 
L 659.891451 284.162331 
L 659.55649 284.098925 
L 658.66303 284.364077 
L 658.327838 284.162331 
L 657.881223 283.804953 
L 657.657916 283.93945 
L 657.322724 284.720495 
L 656.31761 287.795677 
L 655.647689 288.751568 
L 655.200843 289.005191 
L 654.754229 289.083968 
L 653.972422 289.047462 
L 653.525577 289.006152 
L 652.967309 289.039776 
L 651.962195 288.898554 
L 651.180389 288.763096 
L 650.063621 288.432618 
L 648.276701 287.393146 
L 647.718202 287.032886 
L 645.931282 284.472636 
L 645.484668 283.291942 
L 644.814515 281.69815 
L 644.3679 281.017979 
L 644.032708 280.655797 
L 642.692634 278.032141 
L 642.022481 276.974416 
L 641.352559 275.421934 
L 641.017367 273.718623 
L 640.459099 269.583795 
L 639.00714 255.446217 
L 638.672179 248.392799 
L 638.002026 231.676718 
L 637.778719 230.300043 
L 637.667066 230.695849 
L 637.108566 234.479063 
L 636.996913 234.444478 
L 636.773606 233.821948 
L 636.550298 232.583613 
L 636.32676 230.126157 
L 635.768492 221.355018 
L 635.656838 222.735535 
L 635.4333 231.587373 
L 634.53984 277.580614 
L 634.204879 282.703997 
L 633.758265 285.645643 
L 633.423072 286.660137 
L 632.864805 287.48057 
L 632.529612 287.525722 
L 632.194652 287.620831 
L 631.189538 288.430696 
L 630.742692 288.761175 
L 629.961117 289.2934 
L 629.625925 289.204055 
L 628.620811 289.461521 
L 628.062544 290.029292 
L 627.392391 289.988942 
L 626.945545 289.807371 
L 626.275623 289.887109 
L 625.60547 289.704577 
L 625.27051 289.792961 
L 624.600357 290.295404 
L 623.148629 290.15226 
L 622.59013 290.017763 
L 622.03163 289.991825 
L 620.691556 289.472089 
L 620.244942 289.737241 
L 619.574789 289.329906 
L 619.016289 289.540298 
L 618.569675 289.69497 
L 617.899522 289.635407 
L 617.341254 289.733398 
L 616.894408 289.894794 
L 616.224255 290.233919 
L 615.554334 290.969811 
L 615.330795 291.056274 
L 615.107488 290.814179 
L 614.660874 290.196452 
L 614.214028 290.019685 
L 612.092147 289.701695 
L 611.645533 289.900559 
L 611.421994 289.813135 
L 610.97538 289.494185 
L 610.64042 289.632525 
L 610.193574 289.810253 
L 609.523421 289.940908 
L 608.406654 290.273308 
L 607.960039 290.416451 
L 607.40154 290.535578 
L 604.609506 290.767105 
L 604.274545 290.831471 
L 603.381085 290.549027 
L 602.152665 290.800729 
L 600.924012 290.130165 
L 600.254091 289.707459 
L 599.248977 289.083968 
L 598.802131 288.887987 
L 598.467171 289.027287 
L 597.908671 289.33567 
L 597.573711 289.220387 
L 597.126865 288.715062 
L 596.568597 287.704411 
L 595.898444 286.489133 
L 595.45183 286.084681 
L 595.228291 286.06931 
L 595.004984 286.316208 
L 594.55837 287.318212 
L 594.111524 289.12816 
L 593.776563 290.257937 
L 593.66491 290.346321 
L 593.441603 290.102304 
L 593.10641 289.646935 
L 592.883103 289.686324 
L 592.324604 290.023527 
L 591.431375 290.113833 
L 590.872876 290.40108 
L 589.197609 290.871821 
L 588.750995 291.210946 
L 588.527456 291.144658 
L 587.857535 290.74597 
L 587.299036 290.960204 
L 586.740768 291.3685 
L 586.405576 291.680725 
L 586.182269 291.619241 
L 585.623769 291.219592 
L 584.618655 291.042824 
L 584.283695 291.307015 
L 583.948734 291.585616 
L 583.725195 291.54911 
L 583.390235 291.435748 
L 583.166928 291.599066 
L 582.831735 291.906488 
L 582.608428 291.762384 
L 582.161814 291.139854 
L 581.826622 291.06492 
L 580.821508 290.900641 
L 580.26324 290.879506 
L 579.36978 291.062999 
L 578.811281 291.491468 
L 578.587974 291.405967 
L 577.917821 290.877585 
L 577.136246 290.979418 
L 576.130901 290.396277 
L 575.79594 290.531735 
L 574.790826 291.314701 
L 574.120673 290.809375 
L 573.562406 290.893917 
L 572.557292 290.536538 
L 571.775485 290.796886 
L 571.440525 290.903523 
L 570.770372 291.340639 
L 569.765258 291.270509 
L 568.871798 291.260902 
L 568.424952 291.5078 
L 567.196531 291.377146 
L 566.638264 291.281076 
L 566.191418 291.519329 
L 565.856457 291.656708 
L 563.399384 291.448237 
L 562.95277 291.348325 
L 562.617578 291.307015 
L 562.170963 291.513564 
L 561.612464 291.730681 
L 561.277503 291.670158 
L 560.719004 291.491468 
L 559.37893 291.581774 
L 558.597123 291.704743 
L 557.92697 291.694175 
L 556.698549 292.10247 
L 556.028396 292.544389 
L 555.693436 292.384914 
L 554.576668 291.519329 
L 554.241708 291.582734 
L 552.901402 292.083256 
L 552.119595 291.993912 
L 551.561328 292.032339 
L 550.891175 291.813301 
L 549.439447 291.956444 
L 548.992601 291.93627 
L 548.210794 292.093824 
L 546.87072 292.059239 
L 546.312221 292.093824 
L 545.195454 291.869021 
L 544.637186 291.980462 
L 541.956806 291.830593 
L 541.50996 292.013125 
L 539.834925 291.752777 
L 539.499732 291.713389 
L 538.717926 291.418456 
L 537.601159 291.318543 
L 537.154544 291.28588 
L 536.149431 291.470333 
L 535.702585 291.338718 
L 535.255971 291.542385 
L 534.697471 291.793126 
L 533.469051 291.902646 
L 532.798898 291.918017 
L 531.793784 291.799851 
L 531.458823 291.895921 
L 530.900324 292.383953 
L 530.45371 292.265788 
L 530.118517 292.345526 
L 529.671903 292.48963 
L 529.225057 292.2264 
L 528.778443 292.062121 
L 528.10829 291.907449 
L 527.77333 291.971816 
L 527.103177 292.467534 
L 526.098063 292.381071 
L 525.763102 292.415656 
L 524.981296 292.025614 
L 524.311143 292.415656 
L 523.976182 292.706747 
L 523.529568 293.262989 
L 523.306029 293.301417 
L 522.859415 293.01513 
L 522.412569 292.798973 
L 522.077608 292.978623 
L 521.742648 293.159234 
L 521.407455 293.062204 
L 520.960841 292.690415 
L 520.179035 291.736445 
L 519.508882 291.807537 
L 519.173921 291.253216 
L 518.83896 290.297325 
L 518.168807 287.947467 
L 517.9455 287.918646 
L 517.610308 288.489299 
L 517.05204 289.381784 
L 516.493541 289.831389 
L 515.711734 290.202217 
L 514.818274 290.352085 
L 514.483314 290.271387 
L 514.148353 290.431823 
L 513.366546 291.111994 
L 513.031586 291.340639 
L 512.473086 291.608673 
L 512.249779 291.685529 
L 512.02624 291.469372 
L 511.244666 290.024488 
L 511.021127 290.271387 
L 510.574513 291.062038 
L 510.462859 291.021689 
L 510.239552 290.549988 
L 509.90436 289.705538 
L 509.681053 289.644053 
L 509.346092 290.132086 
L 508.787592 290.813218 
L 508.452632 290.889113 
L 508.11744 290.613394 
L 507.670825 290.236802 
L 507.447518 290.316539 
L 506.777365 291.007278 
L 506.330751 290.839157 
L 505.995559 290.514442 
L 505.102099 289.032091 
L 504.878792 289.094536 
L 504.655484 289.415408 
L 504.208639 290.280033 
L 503.985331 290.294443 
L 503.203525 289.66711 
L 502.756911 289.682481 
L 502.533604 289.706498 
L 502.310065 289.497067 
L 501.751797 288.474888 
L 501.52849 288.655499 
L 500.523145 290.449115 
L 499.853223 290.904484 
L 499.518263 291.010161 
L 499.18307 290.846842 
L 498.28961 290.036977 
L 496.949536 290.205099 
L 496.50269 290.479857 
L 496.16773 290.42894 
L 495.050962 289.851563 
L 494.380809 289.901519 
L 493.934195 290.016803 
L 493.599003 290.440469 
L 493.040735 291.308936 
L 492.593889 291.496272 
L 491.588776 291.588499 
L 490.806969 291.194614 
L 490.360355 290.917934 
L 490.025394 290.770948 
L 489.355241 290.806493 
L 488.796742 290.619158 
L 487.568321 290.729638 
L 487.121475 290.968851 
L 486.563207 291.294526 
L 486.228015 291.440552 
L 485.893054 291.891117 
L 485.334787 292.646223 
L 484.664634 293.254342 
L 483.101021 294.900973 
L 482.877714 294.962457 
L 482.654406 294.754947 
L 482.095907 293.981588 
L 481.760946 293.954689 
L 481.314101 294.008488 
L 480.97914 293.791371 
L 480.644179 293.565607 
L 480.42064 293.69338 
L 479.862373 294.275561 
L 479.639066 294.116085 
L 479.080566 293.469538 
L 478.857259 293.618446 
L 477.293646 296.307429 
L 477.181992 296.146032 
L 476.958685 295.123854 
L 475.953572 288.803446 
L 475.618379 288.337509 
L 475.171765 288.232793 
L 474.836805 288.381701 
L 474.501612 288.812092 
L 474.054998 289.845799 
L 473.608152 290.686407 
L 473.273192 290.793044 
L 472.714924 290.73252 
L 472.268078 290.526931 
L 472.044771 290.692171 
L 471.709578 291.061077 
L 471.486271 291.0092 
L 470.704465 290.197413 
L 470.369504 290.140732 
L 469.364391 289.579687 
L 468.805891 289.506674 
L 468.359277 289.693049 
L 467.354163 290.385709 
L 466.125511 290.372259 
L 465.678897 290.556713 
L 465.008744 290.33191 
L 464.450476 290.56632 
L 463.557016 290.475054 
L 462.998516 290.451036 
L 461.881749 289.955318 
L 460.653329 290.233919 
L 460.318136 290.06868 
L 459.536561 289.358727 
L 459.201369 289.585451 
L 458.643101 290.048505 
L 458.419794 290.000471 
L 457.749641 289.580647 
L 457.302795 289.692088 
L 456.409335 290.04082 
L 455.515875 289.673835 
L 454.7343 290.295404 
L 454.399108 290.066759 
L 453.617302 289.416369 
L 453.282341 289.452875 
L 452.723841 289.664228 
L 452.388881 289.449032 
L 451.830613 289.041698 
L 451.495421 289.139689 
L 450.937153 289.295321 
L 450.378654 289.178116 
L 449.932039 288.734276 
L 449.596847 288.469124 
L 447.58662 288.002227 
L 447.028352 288.105982 
L 444.236318 288.786153 
L 443.789472 288.867812 
L 442.561052 288.885105 
L 442.114206 288.858205 
L 441.555938 288.706416 
L 440.327517 288.978292 
L 439.880671 288.760214 
L 439.322172 288.455674 
L 438.875558 288.224147 
L 438.428944 288.015676 
L 438.205405 288.152095 
L 437.758791 288.821699 
L 437.200291 289.634446 
L 436.642023 290.110951 
L 436.306831 290.136889 
L 435.301717 289.870777 
L 434.966757 289.867895 
L 432.621337 290.730598 
L 432.174723 290.823786 
L 431.616455 290.969811 
L 430.61111 290.987104 
L 430.164496 290.911209 
L 429.829535 290.905445 
L 429.494343 290.763262 
L 428.824421 290.848764 
L 428.489229 290.747891 
L 428.042615 291.077409 
L 427.595769 291.250334 
L 427.260808 291.176361 
L 426.479002 290.865096 
L 425.920502 291.000554 
L 425.362235 291.196535 
L 423.463661 291.236884 
L 422.346894 291.366578 
L 421.118241 291.36946 
L 417.321326 291.107191 
L 415.757713 290.802651 
L 414.529292 290.994789 
L 413.747485 291.040903 
L 412.854025 290.914091 
L 411.067105 290.581691 
L 410.508606 290.592258 
L 409.503492 290.353046 
L 407.828457 290.41453 
L 407.381611 290.364574 
L 406.823344 290.643175 
L 406.264844 290.817061 
L 405.706345 290.70466 
L 404.701231 290.453918 
L 403.026196 290.484661 
L 402.021082 290.495228 
L 401.462583 290.513482 
L 400.680777 290.300207 
L 399.89897 290.490425 
L 398.558896 290.252173 
L 397.777089 290.327107 
L 392.639868 289.792 
L 392.193022 289.754533 
L 390.62964 289.881345 
L 387.725953 289.306849 
L 387.279107 289.259775 
L 385.827379 289.339513 
L 383.928806 289.19637 
L 383.035345 289.206937 
L 382.476846 289.328945 
L 381.918578 289.118553 
L 381.471732 289.048423 
L 380.801811 289.120475 
L 379.573159 288.577682 
L 377.451278 288.493141 
L 376.669471 288.282749 
L 375.552704 287.983013 
L 374.770898 287.958035 
L 374.212398 287.737075 
L 373.430823 287.760132 
L 372.983977 287.600656 
L 372.202171 287.518037 
L 371.308943 287.113584 
L 369.74533 287.032886 
L 368.851869 286.780223 
L 367.400142 286.58232 
L 366.283143 286.40267 
L 362.262688 286.667822 
L 361.592535 286.768695 
L 361.034268 286.842668 
L 357.907273 287.845633 
L 356.455314 287.78607 
L 355.785161 287.789913 
L 355.226893 287.844673 
L 354.55674 287.809127 
L 353.439973 287.950349 
L 352.546513 287.971484 
L 351.429745 287.985895 
L 347.855905 287.696726 
L 347.185752 287.532447 
L 346.292292 287.513233 
L 344.058758 287.063628 
L 340.931763 286.932013 
L 338.251383 286.62363 
L 336.68777 286.396906 
L 336.129502 286.301798 
L 335.571003 286.169222 
L 334.00739 285.534203 
L 333.114161 285.063463 
L 332.109048 284.485125 
L 330.992049 283.965389 
L 329.763628 283.198755 
L 329.093475 283.049847 
L 328.423554 282.599282 
L 326.859941 281.197629 
L 325.63152 279.575977 
L 323.062793 275.278791 
L 322.504294 273.632161 
L 321.834373 270.881693 
L 321.275873 267.802667 
L 320.829259 264.160675 
L 320.382413 258.516596 
L 319.824145 248.125726 
L 319.265646 233.830594 
L 318.707378 213.439857 
L 318.260532 188.78844 
L 317.702265 142.360965 
L 317.032112 82.918003 
L 316.808805 77.525626 
L 316.696919 79.399941 
L 316.473612 91.503728 
L 315.803459 155.823175 
L 315.245191 199.258087 
L 314.686692 226.72722 
L 314.240078 239.983842 
L 313.793464 247.783719 
L 313.346618 252.223087 
L 312.900004 254.63443 
L 312.453158 255.857394 
L 312.006543 256.443418 
L 311.671351 256.526998 
L 311.448044 256.386737 
L 311.113083 255.852591 
L 310.777891 254.88325 
L 310.331277 252.803347 
L 309.772777 248.974019 
L 308.879317 241.189513 
L 307.874204 230.273143 
L 305.97563 206.008886 
L 305.08217 192.237333 
L 304.412249 178.60508 
L 303.742096 159.880187 
L 303.183596 137.408586 
L 302.625329 105.874755 
L 301.508561 38.621348 
L 301.285023 35.369398 
L 301.173369 35.842059 
L 300.950062 40.698369 
L 300.615101 55.747646 
L 299.833295 106.377198 
L 298.939835 158.32002 
L 298.158028 190.211229 
L 297.376222 214.200727 
L 296.482762 235.169802 
L 295.700955 248.906771 
L 294.91938 258.886463 
L 294.249227 264.713074 
L 293.690959 267.688345 
L 293.020806 269.890256 
L 291.792154 272.670506 
L 291.233886 274.102901 
L 288.441853 283.015262 
L 287.7717 284.507221 
L 286.431625 286.603456 
L 285.984779 286.962755 
L 285.426512 287.377775 
L 284.533052 288.220304 
L 283.862899 288.472967 
L 280.847558 289.330867 
L 278.614023 289.533573 
L 276.827103 290.059073 
L 276.380257 290.064837 
L 275.82199 289.997589 
L 274.816876 290.202217 
L 274.035069 290.146496 
L 273.253263 290.080208 
L 270.908075 290.420294 
L 269.902961 290.675839 
L 268.562655 290.596101 
L 267.780849 290.934266 
L 267.110928 291.176361 
L 265.547315 291.107191 
L 264.095587 290.928502 
L 263.425434 291.014964 
L 261.750167 291.192692 
L 261.080014 291.155225 
L 260.410093 291.193653 
L 259.404979 291.146579 
L 258.84648 291.156186 
L 258.399866 291.181164 
L 257.729713 291.296447 
L 257.171213 291.373303 
L 256.277753 291.56256 
L 255.719485 291.540464 
L 254.937679 291.470333 
L 253.932565 291.473215 
L 253.262412 291.366578 
L 251.922338 291.541424 
L 250.917224 291.440552 
L 248.236844 291.547189 
L 247.120077 291.31374 
L 244.998196 291.364657 
L 244.21639 291.226317 
L 242.429469 291.228238 
L 241.536009 290.865096 
L 240.530896 290.904484 
L 239.860743 290.564398 
L 238.520668 290.725795 
L 237.962169 290.696013 
L 237.068709 290.661428 
L 236.286902 290.651822 
L 235.616981 290.983261 
L 232.713294 290.882388 
L 231.931487 290.858371 
L 231.372988 290.71907 
L 228.245993 290.964047 
L 227.57584 290.922737 
L 226.459073 291.215749 
L 225.789152 291.209985 
L 225.230653 291.23112 
L 223.555386 291.030335 
L 221.991773 291.126405 
L 220.875006 290.960204 
L 220.205084 291.02361 
L 219.534931 291.122562 
L 218.864778 291.24457 
L 218.194857 291.336797 
L 217.748011 291.157147 
L 217.189743 290.887192 
L 216.631244 290.883349 
L 215.849438 290.92658 
L 215.067631 290.908327 
L 214.285824 290.859332 
L 213.615903 290.768066 
L 211.940637 290.866056 
L 211.494022 290.805533 
L 210.26537 290.96789 
L 209.818756 290.987104 
L 208.925296 291.096623 
L 207.920182 290.951558 
L 206.579876 290.91313 
L 205.016495 290.817061 
L 204.569649 290.640293 
L 203.341228 290.771908 
L 202.001154 290.697935 
L 201.107694 290.868938 
L 200.10258 290.841078 
L 199.432427 290.489464 
L 198.427314 290.423176 
L 196.975354 290.425098 
L 196.193779 290.461604 
L 195.746933 290.500993 
L 194.965127 290.343439 
L 194.518513 290.360731 
L 193.84836 290.223352 
L 193.401745 290.189728 
L 192.843246 290.063877 
L 192.284978 290.127282 
L 191.726479 289.791039 
L 191.279633 289.576805 
L 190.944672 289.656542 
L 190.498058 289.832349 
L 189.827905 289.738201 
L 188.599484 290.388591 
L 186.142411 290.916012 
L 185.360605 290.990947 
L 184.467145 290.890074 
L 183.12707 291.16195 
L 182.456917 291.084134 
L 181.563457 290.827629 
L 178.213156 291.310858 
L 177.877963 291.32719 
L 177.096389 291.509722 
L 176.426236 291.324308 
L 175.756083 291.132169 
L 175.08593 291.278194 
L 174.527662 291.502997 
L 174.080816 291.753738 
L 173.857509 291.706664 
L 173.410895 291.24457 
L 173.075702 291.052431 
L 172.740742 291.263784 
L 172.293896 291.544307 
L 171.512321 291.551031 
L 171.065475 291.731642 
L 170.618861 291.621162 
L 169.948708 291.46553 
L 169.055248 291.39732 
L 168.720287 291.401163 
L 168.050134 291.219592 
L 167.156674 291.520289 
L 166.374868 291.576009 
L 165.369754 291.278194 
L 165.034793 291.364657 
L 164.141333 291.766227 
L 163.47118 291.82579 
L 162.57772 291.478019 
L 162.131106 291.307015 
L 161.796145 291.45208 
L 161.3493 291.744131 
L 161.014339 291.675922 
L 160.344186 291.331993 
L 159.785918 291.405006 
L 158.780805 291.871903 
L 157.998998 291.591381 
L 157.328845 291.441512 
L 156.993884 291.395399 
L 156.547038 291.643258 
L 156.212078 291.753738 
L 155.206964 291.600027 
L 154.536811 291.847886 
L 152.973198 291.667275 
L 152.526584 291.783519 
L 152.07997 291.587538 
L 151.744777 291.513564 
L 150.962971 291.70186 
L 150.29305 291.331993 
L 149.846204 291.671118 
L 149.511243 291.857493 
L 149.287936 291.803694 
L 148.506129 291.205181 
L 147.724323 291.74221 
L 147.165824 291.569285 
L 146.719209 291.802733 
L 146.384249 291.906488 
L 146.049056 291.769109 
L 145.26725 291.254177 
L 143.703868 291.187889 
L 143.368676 291.333915 
L 143.033715 291.223435 
L 142.587101 291.090859 
L 141.693641 291.209024 
L 140.911835 290.849725 
L 140.576874 291.083173 
L 140.130028 291.386753 
L 139.906721 291.309897 
L 139.124914 290.769026 
L 138.789954 291.074527 
L 138.454762 291.276273 
L 138.231454 291.102387 
L 137.896494 290.764223 
L 137.672955 290.771908 
L 136.89138 291.274351 
L 136.444534 291.018807 
L 136.221227 290.947715 
L 135.886266 291.123522 
L 135.327767 291.421338 
L 134.992806 291.455923 
L 134.545961 291.178282 
L 134.211 291.065881 
L 133.764154 291.322386 
L 133.429193 291.38291 
L 133.094233 291.138894 
L 132.647387 290.739245 
L 132.42408 290.76038 
L 131.86558 291.07837 
L 131.084005 290.743087 
L 130.413852 291.065881 
L 129.408739 291.229199 
L 128.961893 291.394438 
L 128.515279 291.227277 
L 128.068665 291.008239 
L 127.733472 291.115837 
L 127.398512 291.261862 
L 127.175204 291.157147 
L 126.728359 290.839157 
L 125.164746 291.241688 
L 124.718131 291.054352 
L 124.383171 291.32719 
L 124.159632 291.474176 
L 123.936325 291.389635 
L 123.154518 290.610512 
L 122.707904 290.58073 
L 122.261058 290.818022 
L 121.814444 290.925619 
L 121.479252 291.026492 
L 120.920984 291.274351 
L 119.58091 291.060117 
L 119.02241 291.158107 
L 118.352257 291.112955 
L 117.79399 291.142736 
L 117.23549 291.077409 
L 116.676991 291.234002 
L 115.336916 290.979418 
L 114.778417 291.111994 
L 114.331803 291.168675 
L 113.885189 290.903523 
L 113.549996 290.764223 
L 112.321576 290.873742 
L 111.651423 291.264745 
L 111.428115 291.225356 
L 111.093155 290.862214 
L 110.757962 290.532695 
L 110.534655 290.564398 
L 109.864502 290.91313 
L 109.529542 290.763262 
L 108.859389 290.363613 
L 108.524428 290.542302 
L 108.301121 290.656625 
L 108.077582 290.541342 
L 107.630968 290.104226 
L 107.407661 290.16571 
L 106.514201 290.781515 
L 106.17924 290.70562 
L 105.732394 290.631647 
L 105.062241 290.77479 
L 104.168781 290.437587 
L 103.833821 290.591298 
L 103.275321 290.975576 
L 102.828707 290.827629 
L 102.493746 290.845882 
L 102.0469 290.903523 
L 101.376748 290.581691 
L 99.92502 291.084134 
L 99.590059 291.010161 
L 99.143213 290.859332 
L 98.808252 290.999593 
L 98.473292 291.14754 
L 98.1381 291.026492 
L 97.691485 290.855489 
L 97.244639 291.038021 
L 96.686372 291.281076 
L 96.462833 291.183086 
L 95.904565 290.752694 
L 95.569373 290.872781 
L 95.011105 291.125444 
L 94.675913 291.008239 
L 94.117645 290.791122 
L 93.447492 290.85741 
L 92.889224 290.667193 
L 91.995764 291.072606 
L 91.213958 290.76038 
L 89.985537 291.021689 
L 89.20373 290.782476 
L 87.975078 290.95348 
L 87.640117 290.812257 
L 87.305157 290.702738 
L 87.081618 290.856449 
L 86.411697 291.556796 
L 86.18839 291.455923 
L 85.518237 290.823786 
L 84.959737 290.602826 
L 84.624776 290.40012 
L 84.401469 290.671035 
L 83.954624 291.716271 
L 83.731316 291.637494 
L 83.172817 291.070684 
L 82.391242 290.848764 
L 81.721089 290.821864 
L 81.16259 290.868938 
L 80.715976 290.914091 
L 80.157476 291.125444 
L 79.710862 291.02361 
L 78.929055 291.370421 
L 78.482441 290.916973 
L 78.147249 290.643175 
L 77.923942 290.670075 
L 77.253789 290.946755 
L 76.807175 291.087016 
L 76.360329 291.209024 
L 75.020254 290.893917 
L 74.126794 290.749812 
L 73.121681 291.007278 
L 72.451528 291.302212 
L 71.558068 291.084134 
L 70.9998 291.200378 
L 70.552954 290.936187 
L 70.10634 290.708502 
L 69.771148 290.808415 
L 69.21288 290.99575 
L 68.766034 291.121601 
L 68.207766 291.403085 
L 67.872574 291.232081 
L 67.42596 290.914091 
L 66.755807 290.902563 
L 66.085885 290.906406 
L 65.527386 290.977497 
L 64.857233 290.878545 
L 64.298965 290.937148 
L 63.628812 290.82955 
L 62.735352 291.136972 
L 62.288738 290.98134 
L 61.841892 290.809375 
L 61.395278 290.958283 
L 60.725125 291.195575 
L 60.166857 291.160029 
L 59.161512 290.994789 
L 58.156398 291.191732 
L 56.927977 290.997671 
L 56.481363 291.122562 
L 55.699557 291.360814 
L 55.141057 291.45208 
L 54.694443 291.209985 
L 54.359251 291.103348 
L 53.800983 291.111994 
L 53.242484 290.936187 
L 52.349024 291.09278 
L 51.790756 290.855489 
L 51.455563 291.005357 
L 51.120603 291.166754 
L 50.785642 291.060117 
L 50.338796 290.860292 
L 50.115489 290.876624 
L 50.115489 290.876624 
" clip-path="url(#pd18395599f)" style="fill: none; stroke: #70ad47; stroke-width: 0.8; stroke-linecap: square"/>
   </g>
   <g id="patch_9">
    <path d="M 50.14375 309.446125 
L 50.14375 22.318125 
" style="fill: none; stroke: #000000; stroke-width: 0.8; stroke-linejoin: miter; stroke-linecap: square"/>
   </g>
   <g id="patch_10">
    <path d="M 50.14375 309.446125 
L 849.32375 309.446125 
" style="fill: none; stroke: #000000; stroke-width: 0.8; stroke-linejoin: miter; stroke-linecap: square"/>
   </g>
   <g id="text_16">
    <!-- O–H stretch -->
    <g style="fill: #555555" transform="translate(191.063139 76.808725) rotate(-90) scale(0.07 -0.07)">
     <defs>
      <path id="DejaVuSans-4f" d="M 2522 4238 
Q 1834 4238 1429 3725 
Q 1025 3213 1025 2328 
Q 1025 1447 1429 934 
Q 1834 422 2522 422 
Q 3209 422 3611 934 
Q 4013 1447 4013 2328 
Q 4013 3213 3611 3725 
Q 3209 4238 2522 4238 
z
M 2522 4750 
Q 3503 4750 4090 4092 
Q 4678 3434 4678 2328 
Q 4678 1225 4090 567 
Q 3503 -91 2522 -91 
Q 1538 -91 948 565 
Q 359 1222 359 2328 
Q 359 3434 948 4092 
Q 1538 4750 2522 4750 
z
" transform="scale(0.015625)"/>
      <path id="DejaVuSans-2013" d="M 313 1978 
L 2888 1978 
L 2888 1528 
L 313 1528 
L 313 1978 
z
" transform="scale(0.015625)"/>
      <path id="DejaVuSans-48" d="M 628 4666 
L 1259 4666 
L 1259 2753 
L 3553 2753 
L 3553 4666 
L 4184 4666 
L 4184 0 
L 3553 0 
L 3553 2222 
L 1259 2222 
L 1259 0 
L 628 0 
L 628 4666 
z
" transform="scale(0.015625)"/>
      <path id="DejaVuSans-74" d="M 1172 4494 
L 1172 3500 
L 2356 3500 
L 2356 3053 
L 1172 3053 
L 1172 1153 
Q 1172 725 1289 603 
Q 1406 481 1766 481 
L 2356 481 
L 2356 0 
L 1766 0 
Q 1100 0 847 248 
Q 594 497 594 1153 
L 594 3053 
L 172 3053 
L 172 3500 
L 594 3500 
L 594 4494 
L 1172 4494 
z
" transform="scale(0.015625)"/>
      <path id="DejaVuSans-68" d="M 3513 2113 
L 3513 0 
L 2938 0 
L 2938 2094 
Q 2938 2591 2744 2837 
Q 2550 3084 2163 3084 
Q 1697 3084 1428 2787 
Q 1159 2491 1159 1978 
L 1159 0 
L 581 0 
L 581 4863 
L 1159 4863 
L 1159 2956 
Q 1366 3272 1645 3428 
Q 1925 3584 2291 3584 
Q 2894 3584 3203 3211 
Q 3513 2838 3513 2113 
z
" transform="scale(0.015625)"/>
     </defs>
     <use xlink:href="#DejaVuSans-4f"/>
     <use xlink:href="#DejaVuSans-2013" x="78.710938"/>
     <use xlink:href="#DejaVuSans-48" x="128.710938"/>
     <use xlink:href="#DejaVuSans-20" x="203.90625"/>
     <use xlink:href="#DejaVuSans-73" x="235.693359"/>
     <use xlink:href="#DejaVuSans-74" x="287.792969"/>
     <use xlink:href="#DejaVuSans-72" x="327.001953"/>
     <use xlink:href="#DejaVuSans-65" x="365.865234"/>
     <use xlink:href="#DejaVuSans-74" x="427.388672"/>
     <use xlink:href="#DejaVuSans-63" x="466.597656"/>
     <use xlink:href="#DejaVuSans-68" x="521.578125"/>
    </g>
   </g>
   <g id="text_17">
    <!-- C–H stretch -->
    <g style="fill: #555555" transform="translate(301.095168 76.186381) rotate(-90) scale(0.07 -0.07)">
     <defs>
      <path id="DejaVuSans-43" d="M 4122 4306 
L 4122 3641 
Q 3803 3938 3442 4084 
Q 3081 4231 2675 4231 
Q 1875 4231 1450 3742 
Q 1025 3253 1025 2328 
Q 1025 1406 1450 917 
Q 1875 428 2675 428 
Q 3081 428 3442 575 
Q 3803 722 4122 1019 
L 4122 359 
Q 3791 134 3420 21 
Q 3050 -91 2638 -91 
Q 1578 -91 968 557 
Q 359 1206 359 2328 
Q 359 3453 968 4101 
Q 1578 4750 2638 4750 
Q 3056 4750 3426 4639 
Q 3797 4528 4122 4306 
z
" transform="scale(0.015625)"/>
     </defs>
     <use xlink:href="#DejaVuSans-43"/>
     <use xlink:href="#DejaVuSans-2013" x="69.824219"/>
     <use xlink:href="#DejaVuSans-48" x="119.824219"/>
     <use xlink:href="#DejaVuSans-20" x="195.019531"/>
     <use xlink:href="#DejaVuSans-73" x="226.806641"/>
     <use xlink:href="#DejaVuSans-74" x="278.90625"/>
     <use xlink:href="#DejaVuSans-72" x="318.115234"/>
     <use xlink:href="#DejaVuSans-65" x="356.978516"/>
     <use xlink:href="#DejaVuSans-74" x="418.501953"/>
     <use xlink:href="#DejaVuSans-63" x="457.710938"/>
     <use xlink:href="#DejaVuSans-68" x="512.691406"/>
    </g>
   </g>
   <g id="text_18">
    <!-- C=O stretch -->
    <g style="fill: #555555" transform="translate(581.387284 78.798256) rotate(-90) scale(0.07 -0.07)">
     <defs>
      <path id="DejaVuSans-3d" d="M 678 2906 
L 4684 2906 
L 4684 2381 
L 678 2381 
L 678 2906 
z
M 678 1631 
L 4684 1631 
L 4684 1100 
L 678 1100 
L 678 1631 
z
" transform="scale(0.015625)"/>
     </defs>
     <use xlink:href="#DejaVuSans-43"/>
     <use xlink:href="#DejaVuSans-3d" x="69.824219"/>
     <use xlink:href="#DejaVuSans-4f" x="153.613281"/>
     <use xlink:href="#DejaVuSans-20" x="232.324219"/>
     <use xlink:href="#DejaVuSans-73" x="264.111328"/>
     <use xlink:href="#DejaVuSans-74" x="316.210938"/>
     <use xlink:href="#DejaVuSans-72" x="355.419922"/>
     <use xlink:href="#DejaVuSans-65" x="394.283203"/>
     <use xlink:href="#DejaVuSans-74" x="455.806641"/>
     <use xlink:href="#DejaVuSans-63" x="495.015625"/>
     <use xlink:href="#DejaVuSans-68" x="549.996094"/>
    </g>
   </g>
   <g id="text_19">
    <!-- C=C stretch -->
    <g style="fill: #555555" transform="translate(598.760762 78.175912) rotate(-90) scale(0.07 -0.07)">
     <use xlink:href="#DejaVuSans-43"/>
     <use xlink:href="#DejaVuSans-3d" x="69.824219"/>
     <use xlink:href="#DejaVuSans-43" x="153.613281"/>
     <use xlink:href="#DejaVuSans-20" x="223.4375"/>
     <use xlink:href="#DejaVuSans-73" x="255.224609"/>
     <use xlink:href="#DejaVuSans-74" x="307.324219"/>
     <use xlink:href="#DejaVuSans-72" x="346.533203"/>
     <use xlink:href="#DejaVuSans-65" x="385.396484"/>
     <use xlink:href="#DejaVuSans-74" x="446.919922"/>
     <use xlink:href="#DejaVuSans-63" x="486.128906"/>
     <use xlink:href="#DejaVuSans-68" x="541.109375"/>
    </g>
   </g>
   <g id="text_20">
    <!-- C–H bend -->
    <g style="fill: #555555" transform="translate(650.881197 69.370131) rotate(-90) scale(0.07 -0.07)">
     <defs>
      <path id="DejaVuSans-64" d="M 2906 2969 
L 2906 4863 
L 3481 4863 
L 3481 0 
L 2906 0 
L 2906 525 
Q 2725 213 2448 61 
Q 2172 -91 1784 -91 
Q 1150 -91 751 415 
Q 353 922 353 1747 
Q 353 2572 751 3078 
Q 1150 3584 1784 3584 
Q 2172 3584 2448 3432 
Q 2725 3281 2906 2969 
z
M 947 1747 
Q 947 1113 1208 752 
Q 1469 391 1925 391 
Q 2381 391 2643 752 
Q 2906 1113 2906 1747 
Q 2906 2381 2643 2742 
Q 2381 3103 1925 3103 
Q 1469 3103 1208 2742 
Q 947 2381 947 1747 
z
" transform="scale(0.015625)"/>
     </defs>
     <use xlink:href="#DejaVuSans-43"/>
     <use xlink:href="#DejaVuSans-2013" x="69.824219"/>
     <use xlink:href="#DejaVuSans-48" x="119.824219"/>
     <use xlink:href="#DejaVuSans-20" x="195.019531"/>
     <use xlink:href="#DejaVuSans-62" x="226.806641"/>
     <use xlink:href="#DejaVuSans-65" x="290.283203"/>
     <use xlink:href="#DejaVuSans-6e" x="351.806641"/>
     <use xlink:href="#DejaVuSans-64" x="415.185547"/>
    </g>
   </g>
   <g id="text_21">
    <!-- C–O stretch -->
    <g style="fill: #555555" transform="translate(712.267486 76.432475) rotate(-90) scale(0.07 -0.07)">
     <use xlink:href="#DejaVuSans-43"/>
     <use xlink:href="#DejaVuSans-2013" x="69.824219"/>
     <use xlink:href="#DejaVuSans-4f" x="119.824219"/>
     <use xlink:href="#DejaVuSans-20" x="198.535156"/>
     <use xlink:href="#DejaVuSans-73" x="230.322266"/>
     <use xlink:href="#DejaVuSans-74" x="282.421875"/>
     <use xlink:href="#DejaVuSans-72" x="321.630859"/>
     <use xlink:href="#DejaVuSans-65" x="360.494141"/>
     <use xlink:href="#DejaVuSans-74" x="422.017578"/>
     <use xlink:href="#DejaVuSans-63" x="461.226562"/>
     <use xlink:href="#DejaVuSans-68" x="516.207031"/>
    </g>
   </g>
   <g id="text_22">
    <!-- Plastic Bag -->
    <g transform="translate(416.819063 16.318125) scale(0.12 -0.12)">
     <defs>
      <path id="DejaVuSans-50" d="M 1259 4147 
L 1259 2394 
L 2053 2394 
Q 2494 2394 2734 2622 
Q 2975 2850 2975 3272 
Q 2975 3691 2734 3919 
Q 2494 4147 2053 4147 
L 1259 4147 
z
M 628 4666 
L 2053 4666 
Q 2838 4666 3239 4311 
Q 3641 3956 3641 3272 
Q 3641 2581 3239 2228 
Q 2838 1875 2053 1875 
L 1259 1875 
L 1259 0 
L 628 0 
L 628 4666 
z
" transform="scale(0.015625)"/>
      <path id="DejaVuSans-6c" d="M 603 4863 
L 1178 4863 
L 1178 0 
L 603 0 
L 603 4863 
z
" transform="scale(0.015625)"/>
      <path id="DejaVuSans-69" d="M 603 3500 
L 1178 3500 
L 1178 0 
L 603 0 
L 603 3500 
z
M 603 4863 
L 1178 4863 
L 1178 4134 
L 603 4134 
L 603 4863 
z
" transform="scale(0.015625)"/>
      <path id="DejaVuSans-42" d="M 1259 2228 
L 1259 519 
L 2272 519 
Q 2781 519 3026 730 
Q 3272 941 3272 1375 
Q 3272 1813 3026 2020 
Q 2781 2228 2272 2228 
L 1259 2228 
z
M 1259 4147 
L 1259 2741 
L 2194 2741 
Q 2656 2741 2882 2914 
Q 3109 3088 3109 3444 
Q 3109 3797 2882 3972 
Q 2656 4147 2194 4147 
L 1259 4147 
z
M 628 4666 
L 2241 4666 
Q 2963 4666 3353 4366 
Q 3744 4066 3744 3513 
Q 3744 3084 3544 2831 
Q 3344 2578 2956 2516 
Q 3422 2416 3680 2098 
Q 3938 1781 3938 1306 
Q 3938 681 3513 340 
Q 3088 0 2303 0 
L 628 0 
L 628 4666 
z
" transform="scale(0.015625)"/>
      <path id="DejaVuSans-67" d="M 2906 1791 
Q 2906 2416 2648 2759 
Q 2391 3103 1925 3103 
Q 1463 3103 1205 2759 
Q 947 2416 947 1791 
Q 947 1169 1205 825 
Q 1463 481 1925 481 
Q 2391 481 2648 825 
Q 2906 1169 2906 1791 
z
M 3481 434 
Q 3481 -459 3084 -895 
Q 2688 -1331 1869 -1331 
Q 1566 -1331 1297 -1286 
Q 1028 -1241 775 -1147 
L 775 -588 
Q 1028 -725 1275 -790 
Q 1522 -856 1778 -856 
Q 2344 -856 2625 -561 
Q 2906 -266 2906 331 
L 2906 616 
Q 2728 306 2450 153 
Q 2172 0 1784 0 
Q 1141 0 747 490 
Q 353 981 353 1791 
Q 353 2603 747 3093 
Q 1141 3584 1784 3584 
Q 2172 3584 2450 3431 
Q 2728 3278 2906 2969 
L 2906 3500 
L 3481 3500 
L 3481 434 
z
" transform="scale(0.015625)"/>
     </defs>
     <use xlink:href="#DejaVuSans-50"/>
     <use xlink:href="#DejaVuSans-6c" x="60.302734"/>
     <use xlink:href="#DejaVuSans-61" x="88.085938"/>
     <use xlink:href="#DejaVuSans-73" x="149.365234"/>
     <use xlink:href="#DejaVuSans-74" x="201.464844"/>
     <use xlink:href="#DejaVuSans-69" x="240.673828"/>
     <use xlink:href="#DejaVuSans-63" x="268.457031"/>
     <use xlink:href="#DejaVuSans-20" x="323.4375"/>
     <use xlink:href="#DejaVuSans-42" x="355.224609"/>
     <use xlink:href="#DejaVuSans-61" x="423.828125"/>
     <use xlink:href="#DejaVuSans-67" x="485.107422"/>
    </g>
   </g>
  </g>
 </g>
 <defs>
  <clipPath id="pd18395599f">
   <rect x="50.14375" y="22.318125" width="799.18" height="287.128"/>
  </clipPath>
 </defs>
</svg>
