<?xml version="1.0" encoding="utf-8" standalone="no"?>
<!DOCTYPE svg PUBLIC "-//W3C//DTD SVG 1.1//EN"
  "http://www.w3.org/Graphics/SVG/1.1/DTD/svg11.dtd">
<svg xmlns:xlink="http://www.w3.org/1999/xlink" width="856.46125pt" height="347.72425pt" viewBox="0 0 856.46125 347.72425" xmlns="http://www.w3.org/2000/svg" version="1.1">
 <metadata>
  <rdf:RDF xmlns:dc="http://purl.org/dc/elements/1.1/" xmlns:cc="http://creativecommons.org/ns#" xmlns:rdf="http://www.w3.org/1999/02/22-rdf-syntax-ns#">
   <cc:Work>
    <dc:type rdf:resource="http://purl.org/dc/dcmitype/StillImage"/>
    <dc:date>2026-04-05T23:10:14.068940</dc:date>
    <dc:format>image/svg+xml</dc:format>
    <dc:creator>
     <cc:Agent>
      <dc:title>Matplotlib v3.9.4, https://matplotlib.org/</dc:title>
     </cc:Agent>
    </dc:creator>
   </cc:Work>
  </rdf:RDF>
 </metadata>
 <defs>
  <style type="text/css">*{stroke-linejoin: round; stroke-linecap: butt}</style>
 </defs>
 <g id="figure_1">
  <g id="patch_1">
   <path d="M 0 347.72425 
L 856.46125 347.72425 
L 856.46125 0 
L 0 0 
z
" style="fill: #ffffff"/>
  </g>
  <g id="axes_1">
   <g id="patch_2">
    <path d="M 43.78125 309.446125 
L 849.26125 309.446125 
L 849.26125 22.318125 
L 43.78125 22.318125 
z
" style="fill: #ffffff"/>
   </g>
   <g id="patch_3">
    <path d="M 230.559221 309.446125 
L 137.170236 309.446125 
L 137.170236 22.318125 
L 230.559221 22.318125 
z
" clip-path="url(#p3945299117)" style="fill: #cce5ff; opacity: 0.35; stroke: #cce5ff; stroke-linejoin: miter"/>
   </g>
   <g id="patch_4">
    <path d="M 312.274583 309.446125 
L 277.253714 309.446125 
L 277.253714 22.318125 
L 312.274583 22.318125 
z
" clip-path="url(#p3945299117)" style="fill: #d4edda; opacity: 0.35; stroke: #d4edda; stroke-linejoin: miter"/>
   </g>
   <g id="patch_5">
    <path d="M 585.437366 309.446125 
L 569.094293 309.446125 
L 569.094293 22.318125 
L 585.437366 22.318125 
z
" clip-path="url(#p3945299117)" style="fill: #f8d7da; opacity: 0.35; stroke: #f8d7da; stroke-linejoin: miter"/>
   </g>
   <g id="patch_6">
    <path d="M 604.115163 309.446125 
L 585.437366 309.446125 
L 585.437366 22.318125 
L 604.115163 22.318125 
z
" clip-path="url(#p3945299117)" style="fill: #fff3cd; opacity: 0.35; stroke: #fff3cd; stroke-linejoin: miter"/>
   </g>
   <g id="patch_7">
    <path d="M 662.483279 309.446125 
L 632.131859 309.446125 
L 632.131859 22.318125 
L 662.483279 22.318125 
z
" clip-path="url(#p3945299117)" style="fill: #fce4b8; opacity: 0.35; stroke: #fce4b8; stroke-linejoin: miter"/>
   </g>
   <g id="patch_8">
    <path d="M 744.198641 309.446125 
L 674.156902 309.446125 
L 674.156902 22.318125 
L 744.198641 22.318125 
z
" clip-path="url(#p3945299117)" style="fill: #e2d9f3; opacity: 0.35; stroke: #e2d9f3; stroke-linejoin: miter"/>
   </g>
   <g id="matplotlib.axis_1">
    <g id="xtick_1">
     <g id="line2d_1">
      <defs>
       <path id="ma39df8c220" d="M 0 0 
L 0 3.5 
" style="stroke: #000000; stroke-width: 0.8"/>
      </defs>
      <g>
       <use xlink:href="#ma39df8c220" x="744.198641" y="309.446125" style="stroke: #000000; stroke-width: 0.8"/>
      </g>
     </g>
     <g id="text_1">
      <!-- 1,000 -->
      <g transform="translate(729.884579 324.044562) scale(0.1 -0.1)">
       <defs>
        <path id="DejaVuSans-31" d="M 794 531 
L 1825 531 
L 1825 4091 
L 703 3866 
L 703 4441 
L 1819 4666 
L 2450 4666 
L 2450 531 
L 3481 531 
L 3481 0 
L 794 0 
L 794 531 
z
" transform="scale(0.015625)"/>
        <path id="DejaVuSans-2c" d="M 750 794 
L 1409 794 
L 1409 256 
L 897 -744 
L 494 -744 
L 750 256 
L 750 794 
z
" transform="scale(0.015625)"/>
        <path id="DejaVuSans-30" d="M 2034 4250 
Q 1547 4250 1301 3770 
Q 1056 3291 1056 2328 
Q 1056 1369 1301 889 
Q 1547 409 2034 409 
Q 2525 409 2770 889 
Q 3016 1369 3016 2328 
Q 3016 3291 2770 3770 
Q 2525 4250 2034 4250 
z
M 2034 4750 
Q 2819 4750 3233 4129 
Q 3647 3509 3647 2328 
Q 3647 1150 3233 529 
Q 2819 -91 2034 -91 
Q 1250 -91 836 529 
Q 422 1150 422 2328 
Q 422 3509 836 4129 
Q 1250 4750 2034 4750 
z
" transform="scale(0.015625)"/>
       </defs>
       <use xlink:href="#DejaVuSans-31"/>
       <use xlink:href="#DejaVuSans-2c" x="63.623047"/>
       <use xlink:href="#DejaVuSans-30" x="95.410156"/>
       <use xlink:href="#DejaVuSans-30" x="159.033203"/>
       <use xlink:href="#DejaVuSans-30" x="222.65625"/>
      </g>
     </g>
    </g>
    <g id="xtick_2">
     <g id="line2d_2">
      <g>
       <use xlink:href="#ma39df8c220" x="627.462409" y="309.446125" style="stroke: #000000; stroke-width: 0.8"/>
      </g>
     </g>
     <g id="text_2">
      <!-- 1,500 -->
      <g transform="translate(613.148347 324.044562) scale(0.1 -0.1)">
       <defs>
        <path id="DejaVuSans-35" d="M 691 4666 
L 3169 4666 
L 3169 4134 
L 1269 4134 
L 1269 2991 
Q 1406 3038 1543 3061 
Q 1681 3084 1819 3084 
Q 2600 3084 3056 2656 
Q 3513 2228 3513 1497 
Q 3513 744 3044 326 
Q 2575 -91 1722 -91 
Q 1428 -91 1123 -41 
Q 819 9 494 109 
L 494 744 
Q 775 591 1075 516 
Q 1375 441 1709 441 
Q 2250 441 2565 725 
Q 2881 1009 2881 1497 
Q 2881 1984 2565 2268 
Q 2250 2553 1709 2553 
Q 1456 2553 1204 2497 
Q 953 2441 691 2322 
L 691 4666 
z
" transform="scale(0.015625)"/>
       </defs>
       <use xlink:href="#DejaVuSans-31"/>
       <use xlink:href="#DejaVuSans-2c" x="63.623047"/>
       <use xlink:href="#DejaVuSans-35" x="95.410156"/>
       <use xlink:href="#DejaVuSans-30" x="159.033203"/>
       <use xlink:href="#DejaVuSans-30" x="222.65625"/>
      </g>
     </g>
    </g>
    <g id="xtick_3">
     <g id="line2d_3">
      <g>
       <use xlink:href="#ma39df8c220" x="510.726178" y="309.446125" style="stroke: #000000; stroke-width: 0.8"/>
      </g>
     </g>
     <g id="text_3">
      <!-- 2,000 -->
      <g transform="translate(496.412115 324.044562) scale(0.1 -0.1)">
       <defs>
        <path id="DejaVuSans-32" d="M 1228 531 
L 3431 531 
L 3431 0 
L 469 0 
L 469 531 
Q 828 903 1448 1529 
Q 2069 2156 2228 2338 
Q 2531 2678 2651 2914 
Q 2772 3150 2772 3378 
Q 2772 3750 2511 3984 
Q 2250 4219 1831 4219 
Q 1534 4219 1204 4116 
Q 875 4013 500 3803 
L 500 4441 
Q 881 4594 1212 4672 
Q 1544 4750 1819 4750 
Q 2544 4750 2975 4387 
Q 3406 4025 3406 3419 
Q 3406 3131 3298 2873 
Q 3191 2616 2906 2266 
Q 2828 2175 2409 1742 
Q 1991 1309 1228 531 
z
" transform="scale(0.015625)"/>
       </defs>
       <use xlink:href="#DejaVuSans-32"/>
       <use xlink:href="#DejaVuSans-2c" x="63.623047"/>
       <use xlink:href="#DejaVuSans-30" x="95.410156"/>
       <use xlink:href="#DejaVuSans-30" x="159.033203"/>
       <use xlink:href="#DejaVuSans-30" x="222.65625"/>
      </g>
     </g>
    </g>
    <g id="xtick_4">
     <g id="line2d_4">
      <g>
       <use xlink:href="#ma39df8c220" x="393.989946" y="309.446125" style="stroke: #000000; stroke-width: 0.8"/>
      </g>
     </g>
     <g id="text_4">
      <!-- 2,500 -->
      <g transform="translate(379.675883 324.044562) scale(0.1 -0.1)">
       <use xlink:href="#DejaVuSans-32"/>
       <use xlink:href="#DejaVuSans-2c" x="63.623047"/>
       <use xlink:href="#DejaVuSans-35" x="95.410156"/>
       <use xlink:href="#DejaVuSans-30" x="159.033203"/>
       <use xlink:href="#DejaVuSans-30" x="222.65625"/>
      </g>
     </g>
    </g>
    <g id="xtick_5">
     <g id="line2d_5">
      <g>
       <use xlink:href="#ma39df8c220" x="277.253714" y="309.446125" style="stroke: #000000; stroke-width: 0.8"/>
      </g>
     </g>
     <g id="text_5">
      <!-- 3,000 -->
      <g transform="translate(262.939651 324.044562) scale(0.1 -0.1)">
       <defs>
        <path id="DejaVuSans-33" d="M 2597 2516 
Q 3050 2419 3304 2112 
Q 3559 1806 3559 1356 
Q 3559 666 3084 287 
Q 2609 -91 1734 -91 
Q 1441 -91 1130 -33 
Q 819 25 488 141 
L 488 750 
Q 750 597 1062 519 
Q 1375 441 1716 441 
Q 2309 441 2620 675 
Q 2931 909 2931 1356 
Q 2931 1769 2642 2001 
Q 2353 2234 1838 2234 
L 1294 2234 
L 1294 2753 
L 1863 2753 
Q 2328 2753 2575 2939 
Q 2822 3125 2822 3475 
Q 2822 3834 2567 4026 
Q 2313 4219 1838 4219 
Q 1578 4219 1281 4162 
Q 984 4106 628 3988 
L 628 4550 
Q 988 4650 1302 4700 
Q 1616 4750 1894 4750 
Q 2613 4750 3031 4423 
Q 3450 4097 3450 3541 
Q 3450 3153 3228 2886 
Q 3006 2619 2597 2516 
z
" transform="scale(0.015625)"/>
       </defs>
       <use xlink:href="#DejaVuSans-33"/>
       <use xlink:href="#DejaVuSans-2c" x="63.623047"/>
       <use xlink:href="#DejaVuSans-30" x="95.410156"/>
       <use xlink:href="#DejaVuSans-30" x="159.033203"/>
       <use xlink:href="#DejaVuSans-30" x="222.65625"/>
      </g>
     </g>
    </g>
    <g id="xtick_6">
     <g id="line2d_6">
      <g>
       <use xlink:href="#ma39df8c220" x="160.517482" y="309.446125" style="stroke: #000000; stroke-width: 0.8"/>
      </g>
     </g>
     <g id="text_6">
      <!-- 3,500 -->
      <g transform="translate(146.203419 324.044562) scale(0.1 -0.1)">
       <use xlink:href="#DejaVuSans-33"/>
       <use xlink:href="#DejaVuSans-2c" x="63.623047"/>
       <use xlink:href="#DejaVuSans-35" x="95.410156"/>
       <use xlink:href="#DejaVuSans-30" x="159.033203"/>
       <use xlink:href="#DejaVuSans-30" x="222.65625"/>
      </g>
     </g>
    </g>
    <g id="xtick_7">
     <g id="line2d_7">
      <g>
       <use xlink:href="#ma39df8c220" x="43.78125" y="309.446125" style="stroke: #000000; stroke-width: 0.8"/>
      </g>
     </g>
     <g id="text_7">
      <!-- 4,000 -->
      <g transform="translate(29.467188 324.044562) scale(0.1 -0.1)">
       <defs>
        <path id="DejaVuSans-34" d="M 2419 4116 
L 825 1625 
L 2419 1625 
L 2419 4116 
z
M 2253 4666 
L 3047 4666 
L 3047 1625 
L 3713 1625 
L 3713 1100 
L 3047 1100 
L 3047 0 
L 2419 0 
L 2419 1100 
L 313 1100 
L 313 1709 
L 2253 4666 
z
" transform="scale(0.015625)"/>
       </defs>
       <use xlink:href="#DejaVuSans-34"/>
       <use xlink:href="#DejaVuSans-2c" x="63.623047"/>
       <use xlink:href="#DejaVuSans-30" x="95.410156"/>
       <use xlink:href="#DejaVuSans-30" x="159.033203"/>
       <use xlink:href="#DejaVuSans-30" x="222.65625"/>
      </g>
     </g>
    </g>
    <g id="text_8">
     <!-- Wavenumber (cm$^{-1}$) -->
     <g transform="translate(394.47125 338.444562) scale(0.1 -0.1)">
      <defs>
       <path id="DejaVuSans-57" d="M 213 4666 
L 850 4666 
L 1831 722 
L 2809 4666 
L 3519 4666 
L 4500 722 
L 5478 4666 
L 6119 4666 
L 4947 0 
L 4153 0 
L 3169 4050 
L 2175 0 
L 1381 0 
L 213 4666 
z
" transform="scale(0.015625)"/>
       <path id="DejaVuSans-61" d="M 2194 1759 
Q 1497 1759 1228 1600 
Q 959 1441 959 1056 
Q 959 750 1161 570 
Q 1363 391 1709 391 
Q 2188 391 2477 730 
Q 2766 1069 2766 1631 
L 2766 1759 
L 2194 1759 
z
M 3341 1997 
L 3341 0 
L 2766 0 
L 2766 531 
Q 2569 213 2275 61 
Q 1981 -91 1556 -91 
Q 1019 -91 701 211 
Q 384 513 384 1019 
Q 384 1609 779 1909 
Q 1175 2209 1959 2209 
L 2766 2209 
L 2766 2266 
Q 2766 2663 2505 2880 
Q 2244 3097 1772 3097 
Q 1472 3097 1187 3025 
Q 903 2953 641 2809 
L 641 3341 
Q 956 3463 1253 3523 
Q 1550 3584 1831 3584 
Q 2591 3584 2966 3190 
Q 3341 2797 3341 1997 
z
" transform="scale(0.015625)"/>
       <path id="DejaVuSans-76" d="M 191 3500 
L 800 3500 
L 1894 563 
L 2988 3500 
L 3597 3500 
L 2284 0 
L 1503 0 
L 191 3500 
z
" transform="scale(0.015625)"/>
       <path id="DejaVuSans-65" d="M 3597 1894 
L 3597 1613 
L 953 1613 
Q 991 1019 1311 708 
Q 1631 397 2203 397 
Q 2534 397 2845 478 
Q 3156 559 3463 722 
L 3463 178 
Q 3153 47 2828 -22 
Q 2503 -91 2169 -91 
Q 1331 -91 842 396 
Q 353 884 353 1716 
Q 353 2575 817 3079 
Q 1281 3584 2069 3584 
Q 2775 3584 3186 3129 
Q 3597 2675 3597 1894 
z
M 3022 2063 
Q 3016 2534 2758 2815 
Q 2500 3097 2075 3097 
Q 1594 3097 1305 2825 
Q 1016 2553 972 2059 
L 3022 2063 
z
" transform="scale(0.015625)"/>
       <path id="DejaVuSans-6e" d="M 3513 2113 
L 3513 0 
L 2938 0 
L 2938 2094 
Q 2938 2591 2744 2837 
Q 2550 3084 2163 3084 
Q 1697 3084 1428 2787 
Q 1159 2491 1159 1978 
L 1159 0 
L 581 0 
L 581 3500 
L 1159 3500 
L 1159 2956 
Q 1366 3272 1645 3428 
Q 1925 3584 2291 3584 
Q 2894 3584 3203 3211 
Q 3513 2838 3513 2113 
z
" transform="scale(0.015625)"/>
       <path id="DejaVuSans-75" d="M 544 1381 
L 544 3500 
L 1119 3500 
L 1119 1403 
Q 1119 906 1312 657 
Q 1506 409 1894 409 
Q 2359 409 2629 706 
Q 2900 1003 2900 1516 
L 2900 3500 
L 3475 3500 
L 3475 0 
L 2900 0 
L 2900 538 
Q 2691 219 2414 64 
Q 2138 -91 1772 -91 
Q 1169 -91 856 284 
Q 544 659 544 1381 
z
M 1991 3584 
L 1991 3584 
z
" transform="scale(0.015625)"/>
       <path id="DejaVuSans-6d" d="M 3328 2828 
Q 3544 3216 3844 3400 
Q 4144 3584 4550 3584 
Q 5097 3584 5394 3201 
Q 5691 2819 5691 2113 
L 5691 0 
L 5113 0 
L 5113 2094 
Q 5113 2597 4934 2840 
Q 4756 3084 4391 3084 
Q 3944 3084 3684 2787 
Q 3425 2491 3425 1978 
L 3425 0 
L 2847 0 
L 2847 2094 
Q 2847 2600 2669 2842 
Q 2491 3084 2119 3084 
Q 1678 3084 1418 2786 
Q 1159 2488 1159 1978 
L 1159 0 
L 581 0 
L 581 3500 
L 1159 3500 
L 1159 2956 
Q 1356 3278 1631 3431 
Q 1906 3584 2284 3584 
Q 2666 3584 2933 3390 
Q 3200 3197 3328 2828 
z
" transform="scale(0.015625)"/>
       <path id="DejaVuSans-62" d="M 3116 1747 
Q 3116 2381 2855 2742 
Q 2594 3103 2138 3103 
Q 1681 3103 1420 2742 
Q 1159 2381 1159 1747 
Q 1159 1113 1420 752 
Q 1681 391 2138 391 
Q 2594 391 2855 752 
Q 3116 1113 3116 1747 
z
M 1159 2969 
Q 1341 3281 1617 3432 
Q 1894 3584 2278 3584 
Q 2916 3584 3314 3078 
Q 3713 2572 3713 1747 
Q 3713 922 3314 415 
Q 2916 -91 2278 -91 
Q 1894 -91 1617 61 
Q 1341 213 1159 525 
L 1159 0 
L 581 0 
L 581 4863 
L 1159 4863 
L 1159 2969 
z
" transform="scale(0.015625)"/>
       <path id="DejaVuSans-72" d="M 2631 2963 
Q 2534 3019 2420 3045 
Q 2306 3072 2169 3072 
Q 1681 3072 1420 2755 
Q 1159 2438 1159 1844 
L 1159 0 
L 581 0 
L 581 3500 
L 1159 3500 
L 1159 2956 
Q 1341 3275 1631 3429 
Q 1922 3584 2338 3584 
Q 2397 3584 2469 3576 
Q 2541 3569 2628 3553 
L 2631 2963 
z
" transform="scale(0.015625)"/>
       <path id="DejaVuSans-20" transform="scale(0.015625)"/>
       <path id="DejaVuSans-28" d="M 1984 4856 
Q 1566 4138 1362 3434 
Q 1159 2731 1159 2009 
Q 1159 1288 1364 580 
Q 1569 -128 1984 -844 
L 1484 -844 
Q 1016 -109 783 600 
Q 550 1309 550 2009 
Q 550 2706 781 3412 
Q 1013 4119 1484 4856 
L 1984 4856 
z
" transform="scale(0.015625)"/>
       <path id="DejaVuSans-63" d="M 3122 3366 
L 3122 2828 
Q 2878 2963 2633 3030 
Q 2388 3097 2138 3097 
Q 1578 3097 1268 2742 
Q 959 2388 959 1747 
Q 959 1106 1268 751 
Q 1578 397 2138 397 
Q 2388 397 2633 464 
Q 2878 531 3122 666 
L 3122 134 
Q 2881 22 2623 -34 
Q 2366 -91 2075 -91 
Q 1284 -91 818 406 
Q 353 903 353 1747 
Q 353 2603 823 3093 
Q 1294 3584 2113 3584 
Q 2378 3584 2631 3529 
Q 2884 3475 3122 3366 
z
" transform="scale(0.015625)"/>
       <path id="DejaVuSans-2212" d="M 678 2272 
L 4684 2272 
L 4684 1741 
L 678 1741 
L 678 2272 
z
" transform="scale(0.015625)"/>
       <path id="DejaVuSans-29" d="M 513 4856 
L 1013 4856 
Q 1481 4119 1714 3412 
Q 1947 2706 1947 2009 
Q 1947 1309 1714 600 
Q 1481 -109 1013 -844 
L 513 -844 
Q 928 -128 1133 580 
Q 1338 1288 1338 2009 
Q 1338 2731 1133 3434 
Q 928 4138 513 4856 
z
" transform="scale(0.015625)"/>
      </defs>
      <use xlink:href="#DejaVuSans-57" transform="translate(0 0.684375)"/>
      <use xlink:href="#DejaVuSans-61" transform="translate(98.876953 0.684375)"/>
      <use xlink:href="#DejaVuSans-76" transform="translate(160.15625 0.684375)"/>
      <use xlink:href="#DejaVuSans-65" transform="translate(219.335938 0.684375)"/>
      <use xlink:href="#DejaVuSans-6e" transform="translate(280.859375 0.684375)"/>
      <use xlink:href="#DejaVuSans-75" transform="translate(344.238281 0.684375)"/>
      <use xlink:href="#DejaVuSans-6d" transform="translate(407.617188 0.684375)"/>
      <use xlink:href="#DejaVuSans-62" transform="translate(505.029297 0.684375)"/>
      <use xlink:href="#DejaVuSans-65" transform="translate(568.505859 0.684375)"/>
      <use xlink:href="#DejaVuSans-72" transform="translate(630.029297 0.684375)"/>
      <use xlink:href="#DejaVuSans-20" transform="translate(671.142578 0.684375)"/>
      <use xlink:href="#DejaVuSans-28" transform="translate(702.929688 0.684375)"/>
      <use xlink:href="#DejaVuSans-63" transform="translate(741.943359 0.684375)"/>
      <use xlink:href="#DejaVuSans-6d" transform="translate(796.923828 0.684375)"/>
      <use xlink:href="#DejaVuSans-2212" transform="translate(895.292969 38.965625) scale(0.7)"/>
      <use xlink:href="#DejaVuSans-31" transform="translate(953.945312 38.965625) scale(0.7)"/>
      <use xlink:href="#DejaVuSans-29" transform="translate(1001.21582 0.684375)"/>
     </g>
    </g>
   </g>
   <g id="matplotlib.axis_2">
    <g id="ytick_1">
     <g id="line2d_8">
      <path d="M 43.78125 295.313161 
L 849.26125 295.313161 
" clip-path="url(#p3945299117)" style="fill: none; stroke: #b0b0b0; stroke-opacity: 0.3; stroke-width: 0.8; stroke-linecap: square"/>
     </g>
     <g id="line2d_9">
      <defs>
       <path id="m0fd336d002" d="M 0 0 
L -3.5 0 
" style="stroke: #000000; stroke-width: 0.8"/>
      </defs>
      <g>
       <use xlink:href="#m0fd336d002" x="43.78125" y="295.313161" style="stroke: #000000; stroke-width: 0.8"/>
      </g>
     </g>
     <g id="text_9">
      <!-- 0.0 -->
      <g transform="translate(20.878125 299.11238) scale(0.1 -0.1)">
       <defs>
        <path id="DejaVuSans-2e" d="M 684 794 
L 1344 794 
L 1344 0 
L 684 0 
L 684 794 
z
" transform="scale(0.015625)"/>
       </defs>
       <use xlink:href="#DejaVuSans-30"/>
       <use xlink:href="#DejaVuSans-2e" x="63.623047"/>
       <use xlink:href="#DejaVuSans-30" x="95.410156"/>
      </g>
     </g>
    </g>
    <g id="ytick_2">
     <g id="line2d_10">
      <path d="M 43.78125 235.418837 
L 849.26125 235.418837 
" clip-path="url(#p3945299117)" style="fill: none; stroke: #b0b0b0; stroke-opacity: 0.3; stroke-width: 0.8; stroke-linecap: square"/>
     </g>
     <g id="line2d_11">
      <g>
       <use xlink:href="#m0fd336d002" x="43.78125" y="235.418837" style="stroke: #000000; stroke-width: 0.8"/>
      </g>
     </g>
     <g id="text_10">
      <!-- 0.1 -->
      <g transform="translate(20.878125 239.218055) scale(0.1 -0.1)">
       <use xlink:href="#DejaVuSans-30"/>
       <use xlink:href="#DejaVuSans-2e" x="63.623047"/>
       <use xlink:href="#DejaVuSans-31" x="95.410156"/>
      </g>
     </g>
    </g>
    <g id="ytick_3">
     <g id="line2d_12">
      <path d="M 43.78125 175.524512 
L 849.26125 175.524512 
" clip-path="url(#p3945299117)" style="fill: none; stroke: #b0b0b0; stroke-opacity: 0.3; stroke-width: 0.8; stroke-linecap: square"/>
     </g>
     <g id="line2d_13">
      <g>
       <use xlink:href="#m0fd336d002" x="43.78125" y="175.524512" style="stroke: #000000; stroke-width: 0.8"/>
      </g>
     </g>
     <g id="text_11">
      <!-- 0.2 -->
      <g transform="translate(20.878125 179.323731) scale(0.1 -0.1)">
       <use xlink:href="#DejaVuSans-30"/>
       <use xlink:href="#DejaVuSans-2e" x="63.623047"/>
       <use xlink:href="#DejaVuSans-32" x="95.410156"/>
      </g>
     </g>
    </g>
    <g id="ytick_4">
     <g id="line2d_14">
      <path d="M 43.78125 115.630188 
L 849.26125 115.630188 
" clip-path="url(#p3945299117)" style="fill: none; stroke: #b0b0b0; stroke-opacity: 0.3; stroke-width: 0.8; stroke-linecap: square"/>
     </g>
     <g id="line2d_15">
      <g>
       <use xlink:href="#m0fd336d002" x="43.78125" y="115.630188" style="stroke: #000000; stroke-width: 0.8"/>
      </g>
     </g>
     <g id="text_12">
      <!-- 0.3 -->
      <g transform="translate(20.878125 119.429407) scale(0.1 -0.1)">
       <use xlink:href="#DejaVuSans-30"/>
       <use xlink:href="#DejaVuSans-2e" x="63.623047"/>
       <use xlink:href="#DejaVuSans-33" x="95.410156"/>
      </g>
     </g>
    </g>
    <g id="ytick_5">
     <g id="line2d_16">
      <path d="M 43.78125 55.735864 
L 849.26125 55.735864 
" clip-path="url(#p3945299117)" style="fill: none; stroke: #b0b0b0; stroke-opacity: 0.3; stroke-width: 0.8; stroke-linecap: square"/>
     </g>
     <g id="line2d_17">
      <g>
       <use xlink:href="#m0fd336d002" x="43.78125" y="55.735864" style="stroke: #000000; stroke-width: 0.8"/>
      </g>
     </g>
     <g id="text_13">
      <!-- 0.4 -->
      <g transform="translate(20.878125 59.535082) scale(0.1 -0.1)">
       <use xlink:href="#DejaVuSans-30"/>
       <use xlink:href="#DejaVuSans-2e" x="63.623047"/>
       <use xlink:href="#DejaVuSans-34" x="95.410156"/>
      </g>
     </g>
    </g>
    <g id="text_14">
     <!-- Absorbance -->
     <g transform="translate(14.798438 195.429) rotate(-90) scale(0.1 -0.1)">
      <defs>
       <path id="DejaVuSans-41" d="M 2188 4044 
L 1331 1722 
L 3047 1722 
L 2188 4044 
z
M 1831 4666 
L 2547 4666 
L 4325 0 
L 3669 0 
L 3244 1197 
L 1141 1197 
L 716 0 
L 50 0 
L 1831 4666 
z
" transform="scale(0.015625)"/>
       <path id="DejaVuSans-73" d="M 2834 3397 
L 2834 2853 
Q 2591 2978 2328 3040 
Q 2066 3103 1784 3103 
Q 1356 3103 1142 2972 
Q 928 2841 928 2578 
Q 928 2378 1081 2264 
Q 1234 2150 1697 2047 
L 1894 2003 
Q 2506 1872 2764 1633 
Q 3022 1394 3022 966 
Q 3022 478 2636 193 
Q 2250 -91 1575 -91 
Q 1294 -91 989 -36 
Q 684 19 347 128 
L 347 722 
Q 666 556 975 473 
Q 1284 391 1588 391 
Q 1994 391 2212 530 
Q 2431 669 2431 922 
Q 2431 1156 2273 1281 
Q 2116 1406 1581 1522 
L 1381 1569 
Q 847 1681 609 1914 
Q 372 2147 372 2553 
Q 372 3047 722 3315 
Q 1072 3584 1716 3584 
Q 2034 3584 2315 3537 
Q 2597 3491 2834 3397 
z
" transform="scale(0.015625)"/>
       <path id="DejaVuSans-6f" d="M 1959 3097 
Q 1497 3097 1228 2736 
Q 959 2375 959 1747 
Q 959 1119 1226 758 
Q 1494 397 1959 397 
Q 2419 397 2687 759 
Q 2956 1122 2956 1747 
Q 2956 2369 2687 2733 
Q 2419 3097 1959 3097 
z
M 1959 3584 
Q 2709 3584 3137 3096 
Q 3566 2609 3566 1747 
Q 3566 888 3137 398 
Q 2709 -91 1959 -91 
Q 1206 -91 779 398 
Q 353 888 353 1747 
Q 353 2609 779 3096 
Q 1206 3584 1959 3584 
z
" transform="scale(0.015625)"/>
      </defs>
      <use xlink:href="#DejaVuSans-41"/>
      <use xlink:href="#DejaVuSans-62" x="68.408203"/>
      <use xlink:href="#DejaVuSans-73" x="131.884766"/>
      <use xlink:href="#DejaVuSans-6f" x="183.984375"/>
      <use xlink:href="#DejaVuSans-72" x="245.166016"/>
      <use xlink:href="#DejaVuSans-62" x="286.279297"/>
      <use xlink:href="#DejaVuSans-61" x="349.755859"/>
      <use xlink:href="#DejaVuSans-6e" x="411.035156"/>
      <use xlink:href="#DejaVuSans-63" x="474.414062"/>
      <use xlink:href="#DejaVuSans-65" x="529.394531"/>
     </g>
    </g>
   </g>
   <g id="line2d_18">
    <path d="M 849.239023 121.653161 
L 849.013909 122.887583 
L 848.788795 122.190413 
L 848.563658 123.921359 
L 848.225986 131.014045 
L 847.888292 136.573436 
L 846.762698 148.642143 
L 846.650141 149.139266 
L 845.974775 155.244294 
L 845.862194 155.482673 
L 845.524523 155.353302 
L 845.186829 156.154089 
L 844.961714 156.626655 
L 844.624043 158.540878 
L 844.398906 159.173362 
L 844.286349 159.306327 
L 844.173792 158.717566 
L 843.498426 151.490118 
L 843.048174 153.237834 
L 842.82306 151.225984 
L 842.372808 146.456 
L 842.035137 145.966663 
L 841.81 144.599875 
L 841.584886 143.277408 
L 841.472328 143.46907 
L 841.247214 146.235589 
L 840.796963 153.938598 
L 840.459268 156.647019 
L 839.896483 162.244743 
L 839.446231 164.740539 
L 839.108536 166.639788 
L 838.770865 167.94249 
L 838.095499 172.005122 
L 837.870385 172.631017 
L 837.532691 175.31069 
L 836.519654 183.795918 
L 835.731708 188.162215 
L 835.394036 189.814699 
L 835.168922 190.349555 
L 834.831228 192.102063 
L 834.493556 193.407161 
L 834.155862 194.079774 
L 833.70561 195.274666 
L 833.480496 195.613069 
L 833.255382 196.628876 
L 832.692573 200.036863 
L 832.242321 202.266729 
L 831.90465 203.602971 
L 831.792093 203.646694 
L 831.341842 203.358603 
L 831.116727 203.559848 
L 830.779033 204.280376 
L 830.328781 205.730418 
L 830.216224 205.801692 
L 829.99111 205.402197 
L 829.428301 203.495162 
L 829.09063 201.138919 
L 828.527821 196.958295 
L 828.190127 195.457942 
L 827.965013 195.233938 
L 827.739898 195.992799 
L 827.289647 199.289382 
L 825.826358 211.718053 
L 825.488663 213.3352 
L 824.813298 215.155988 
L 824.363069 215.730973 
L 823.912818 216.186769 
L 823.687704 216.057397 
L 822.674643 214.62173 
L 822.224392 213.393298 
L 821.88672 211.567719 
L 821.549026 209.761905 
L 821.098797 208.431652 
L 820.648546 205.649561 
L 819.860623 199.470862 
L 819.297814 195.547784 
L 818.960143 194.282217 
L 818.847563 194.1786 
L 818.622448 194.421172 
L 818.284777 195.3118 
L 817.947083 196.891213 
L 816.934046 204.563676 
L 816.25868 209.014424 
L 815.583314 211.978594 
L 815.133062 213.890421 
L 814.570254 217.551761 
L 813.894888 223.84306 
L 812.881851 232.765518 
L 812.431599 234.8726 
L 811.981348 236.099835 
L 811.531119 236.804791 
L 811.305982 236.908408 
L 811.080868 236.774245 
L 810.743173 236.215431 
L 810.067807 234.477897 
L 809.392441 232.955982 
L 808.829656 231.629922 
L 807.929153 228.629815 
L 806.916116 225.270941 
L 806.690978 225.176308 
L 806.465864 225.630307 
L 806.24075 226.879104 
L 805.903055 230.385318 
L 804.664881 245.729644 
L 804.214653 248.170937 
L 803.651844 250.091748 
L 802.863921 252.00657 
L 801.738304 254.729366 
L 800.049877 259.226231 
L 798.924283 261.69807 
L 797.686109 264.217226 
L 797.010743 265.247408 
L 795.20976 267.341912 
L 793.071105 269.397486 
L 792.170625 270.038954 
L 790.932451 270.972706 
L 790.257085 271.069136 
L 789.356605 271.186529 
L 788.793796 271.309911 
L 788.230988 271.075725 
L 787.443065 270.588784 
L 785.979776 269.08903 
L 785.079273 267.804297 
L 784.29135 266.148817 
L 783.503427 263.985434 
L 782.940618 261.911294 
L 782.265253 258.554816 
L 781.815001 255.30495 
L 781.364773 250.670327 
L 780.914521 243.826203 
L 780.464269 232.969758 
L 779.338675 199.467867 
L 779.226118 199.826634 
L 779.000981 203.852132 
L 777.762806 237.64451 
L 777.537692 238.666906 
L 777.425135 238.541727 
L 777.200021 237.123429 
L 776.862326 232.195324 
L 776.412075 220.589601 
L 775.28648 186.556448 
L 775.173923 186.60616 
L 774.948786 190.024928 
L 774.611115 201.960669 
L 773.710611 238.620188 
L 773.260383 249.102294 
L 772.810131 255.130059 
L 772.35988 258.555415 
L 772.022209 259.944364 
L 771.684514 260.512163 
L 771.4594 260.509168 
L 771.121729 260.114464 
L 770.784034 259.313677 
L 770.333782 257.462943 
L 769.883554 254.747933 
L 769.433302 250.758971 
L 768.870494 243.505169 
L 768.307685 232.884708 
L 767.7449 217.68233 
L 767.294648 199.672107 
L 766.844396 173.42282 
L 765.718802 96.244192 
L 765.606222 94.828889 
L 765.493665 95.698555 
L 765.268551 103.344664 
L 764.25549 151.650036 
L 763.580124 166.971603 
L 763.242453 170.263395 
L 762.792202 171.2241 
L 762.567087 174.209832 
L 762.229393 185.178279 
L 761.103799 234.224544 
L 760.653547 242.593578 
L 760.315876 245.131899 
L 760.090738 245.565534 
L 759.978181 245.44335 
L 759.753067 244.544336 
L 759.415373 241.710735 
L 758.965144 235.212201 
L 758.514893 224.791787 
L 757.839527 207.400272 
L 757.614413 205.537558 
L 757.501832 206.06343 
L 757.276718 210.038617 
L 756.826466 225.387735 
L 756.263681 243.853155 
L 755.813429 252.395284 
L 755.363178 256.638797 
L 755.025507 258.156519 
L 754.687812 258.814757 
L 754.462698 258.911786 
L 754.237584 258.80757 
L 753.899889 258.350576 
L 753.562218 257.530623 
L 753.111966 255.839806 
L 752.549158 252.679782 
L 751.986349 247.80079 
L 751.42354 240.521833 
L 750.860755 230.291882 
L 750.297946 215.636939 
L 749.735137 194.931471 
L 749.172329 166.113916 
L 748.384406 112.210222 
L 747.371345 45.963506 
L 747.033674 35.824595 
L 746.921117 35.369398 
L 746.808537 36.738582 
L 746.583422 45.035144 
L 746.245751 68.607154 
L 745.345248 140.602528 
L 745.007577 153.567852 
L 744.782439 156.965058 
L 744.669882 157.202838 
L 744.557325 156.546996 
L 744.332211 152.950341 
L 743.769285 137.260424 
L 743.431684 129.633481 
L 743.206617 128.238542 
L 743.094083 128.937509 
L 742.869016 132.678508 
L 742.19358 147.119629 
L 741.968512 148.449882 
L 741.855979 148.25822 
L 741.293076 145.395271 
L 741.180543 145.789376 
L 740.955475 148.347463 
L 740.617641 156.715299 
L 740.054972 179.507485 
L 739.379536 203.870699 
L 739.041935 209.540895 
L 738.816634 210.638758 
L 738.7041 210.495011 
L 738.479033 208.995257 
L 738.141432 204.002467 
L 737.691063 192.845352 
L 737.240928 176.148611 
L 736.678026 145.723492 
L 735.890057 99.431169 
L 735.664989 93.895137 
L 735.439922 92.597826 
L 735.214854 93.553739 
L 734.87702 95.093023 
L 734.764486 95.105002 
L 734.539419 94.32398 
L 734.201817 91.731155 
L 733.863983 86.402956 
L 732.963479 65.722044 
L 732.625878 63.703606 
L 732.513344 63.67845 
L 732.400811 64.05279 
L 732.175743 66.15508 
L 731.837909 72.821918 
L 731.387774 88.60527 
L 730.712338 113.14098 
L 730.48727 116.573524 
L 730.374737 117.004763 
L 730.26197 116.5304 
L 730.036902 112.990645 
L 729.586767 99.368879 
L 729.136399 86.522145 
L 728.911331 84.004787 
L 728.798798 84.367747 
L 728.57373 88.573526 
L 728.235895 101.836525 
L 726.772724 169.892649 
L 726.209821 184.221767 
L 725.196784 203.180118 
L 724.408815 214.595377 
L 722.720575 236.336418 
L 722.495508 236.949735 
L 722.382741 236.911403 
L 722.157673 236.183687 
L 721.820072 233.72203 
L 721.369704 228.429768 
L 720.919569 219.89303 
L 720.131599 202.721926 
L 719.906532 201.123346 
L 719.793998 201.300035 
L 719.568697 203.414903 
L 718.780961 214.464208 
L 718.668427 214.788835 
L 718.55566 214.584596 
L 718.330593 212.642822 
L 717.880458 204.862549 
L 717.430089 198.154984 
L 717.205022 197.205659 
L 717.092488 197.485964 
L 716.867421 199.29058 
L 716.191985 206.319778 
L 715.966918 207.127154 
L 715.854384 207.172673 
L 715.629083 206.735445 
L 714.95388 204.863747 
L 714.616046 204.552895 
L 714.503512 204.625368 
L 714.278445 205.256654 
L 713.940843 207.688962 
L 713.490475 213.279499 
L 712.702506 223.088991 
L 712.027303 230.623697 
L 711.576935 238.501597 
L 710.451364 259.793431 
L 709.888462 265.582217 
L 709.325793 268.921925 
L 708.875425 270.455219 
L 708.537824 271.04997 
L 708.312756 271.172154 
L 708.087689 271.022419 
L 707.862388 270.516312 
L 707.524787 268.943487 
L 706.624283 263.701535 
L 706.51175 263.664401 
L 706.286682 264.200455 
L 705.498713 267.517403 
L 705.386179 267.586281 
L 705.161111 267.301783 
L 704.485676 265.592399 
L 704.373142 265.640315 
L 704.147841 266.23806 
L 703.81024 268.26129 
L 702.347068 279.295023 
L 701.896699 280.651629 
L 701.446565 281.275129 
L 701.10873 281.426063 
L 700.658595 281.344606 
L 699.870625 280.885217 
L 699.420491 280.409656 
L 698.970122 279.602281 
L 698.294686 277.770113 
L 697.619484 275.185673 
L 696.944048 271.802243 
L 696.49368 268.47092 
L 695.818477 262.824682 
L 695.59341 262.374277 
L 695.480643 262.642005 
L 695.255575 264.089052 
L 694.130005 274.151298 
L 693.792403 275.285697 
L 693.454569 275.688785 
L 693.229501 275.642667 
L 693.004434 275.370747 
L 692.666833 274.571756 
L 692.216464 272.821644 
L 691.766329 270.144967 
L 691.203427 265.225247 
L 689.965323 253.115214 
L 689.514954 251.307004 
L 689.064819 250.30617 
L 688.839752 250.151043 
L 688.614451 250.318149 
L 688.389384 250.849411 
L 688.051782 252.351561 
L 687.601414 255.676295 
L 687.038745 262.087383 
L 686.250776 270.951144 
L 685.800407 274.069842 
L 685.350273 275.903207 
L 684.900138 276.821387 
L 684.562303 277.090313 
L 684.224702 277.093307 
L 683.886867 276.861516 
L 683.436732 276.202679 
L 682.986364 275.150934 
L 682.086094 272.22869 
L 680.510155 266.431519 
L 679.947253 263.960878 
L 679.27205 260.592421 
L 679.046749 260.430107 
L 678.821682 261.033842 
L 678.371547 263.689557 
L 677.245976 270.625319 
L 676.683074 273.333741 
L 676.232706 274.533424 
L 675.895105 274.836489 
L 675.670037 274.759226 
L 675.332436 274.263301 
L 674.994601 273.321762 
L 674.544466 271.357827 
L 673.531429 266.604014 
L 673.193595 266.03981 
L 672.74346 265.831378 
L 672.405859 265.606774 
L 672.068024 265.115041 
L 671.730423 264.252563 
L 671.280054 262.326362 
L 670.492318 257.610882 
L 669.704349 251.592101 
L 669.141447 247.090443 
L 668.916379 246.368717 
L 668.803846 246.417231 
L 668.578778 247.378535 
L 668.12841 251.438172 
L 667.565741 255.696659 
L 667.115373 257.57794 
L 666.665238 258.616507 
L 666.439937 258.797987 
L 666.214869 258.604528 
L 665.989802 257.883401 
L 665.652201 255.613406 
L 665.201832 250.188777 
L 664.413863 239.507223 
L 664.188795 238.350065 
L 663.963728 238.096113 
L 663.73866 238.464463 
L 663.400826 239.588679 
L 663.063225 241.437617 
L 662.612856 245.658969 
L 661.487285 257.537212 
L 661.149684 259.294511 
L 660.812083 259.980301 
L 660.699316 259.970718 
L 660.474248 259.618539 
L 660.136647 258.305656 
L 659.686279 255.153417 
L 659.12361 251.393252 
L 658.898543 250.866781 
L 658.785776 250.853604 
L 658.560708 251.313592 
L 657.772739 253.982483 
L 657.547671 254.074122 
L 657.097536 254.101673 
L 656.872235 254.429295 
L 656.534634 255.637364 
L 655.521597 260.424118 
L 655.29653 260.497788 
L 655.071462 260.073137 
L 654.283493 257.953477 
L 654.170959 257.927124 
L 653.945658 258.261933 
L 653.495523 259.880876 
L 652.482486 263.424225 
L 651.919584 264.838929 
L 651.694516 265.048559 
L 651.469449 265.03059 
L 651.244382 264.838929 
L 650.906547 264.120796 
L 650.456412 262.28204 
L 650.006044 259.490365 
L 649.10554 253.065501 
L 648.767939 252.273099 
L 648.655405 252.27849 
L 648.430338 252.636658 
L 647.529835 254.948579 
L 647.304767 254.956964 
L 647.079466 254.627545 
L 646.741865 253.615331 
L 646.404264 251.829881 
L 645.841362 248.692018 
L 645.391227 247.317443 
L 645.053392 246.784383 
L 644.265423 246.399263 
L 644.040355 246.483115 
L 643.702754 246.972452 
L 643.252386 248.20328 
L 642.126815 251.739441 
L 641.67668 252.505489 
L 641.338845 253.281121 
L 640.663643 255.721815 
L 639.875673 259.525104 
L 639.312771 262.195193 
L 638.97517 262.742627 
L 638.750103 262.773173 
L 638.524802 262.556356 
L 638.299734 262.027489 
L 637.962133 260.527136 
L 637.624532 257.724681 
L 637.174163 253.914803 
L 636.949096 253.426664 
L 636.836562 253.528484 
L 636.611261 254.192712 
L 636.048593 256.941263 
L 634.810488 264.099234 
L 634.472654 265.273761 
L 634.247586 265.625341 
L 634.022519 265.585212 
L 633.459617 264.685599 
L 633.347083 264.773045 
L 633.122015 265.485188 
L 632.784181 267.680914 
L 631.208475 279.781365 
L 630.645573 281.882458 
L 629.970371 283.736187 
L 629.294935 284.805899 
L 628.394431 285.716892 
L 627.718996 286.376329 
L 627.268861 286.632077 
L 626.368357 286.929153 
L 626.14329 287.108836 
L 625.580388 287.750304 
L 623.891915 287.740122 
L 621.865841 287.980898 
L 620.402669 287.147169 
L 619.839767 286.437421 
L 619.164331 285.277268 
L 618.601662 284.413592 
L 618.03876 283.929646 
L 617.813693 283.954801 
L 617.363558 284.359088 
L 615.450018 286.547027 
L 613.874079 287.43526 
L 613.536477 287.714368 
L 613.198643 287.519711 
L 612.410673 286.984256 
L 611.51017 286.452394 
L 610.947501 285.951678 
L 610.046998 285.141308 
L 609.82193 285.099382 
L 609.259028 285.402447 
L 608.808893 285.804338 
L 607.232954 287.915014 
L 606.557518 288.533722 
L 604.869279 289.291984 
L 604.08131 289.515989 
L 601.942702 289.988555 
L 601.3798 289.983764 
L 595.97678 290.407816 
L 595.526645 290.736037 
L 595.189044 290.712678 
L 594.288541 290.521016 
L 591.924632 290.644398 
L 591.587031 291.055273 
L 591.361963 290.998374 
L 590.911595 290.72825 
L 589.560957 290.707886 
L 588.772987 290.986994 
L 587.985017 291.04569 
L 587.309582 291.163682 
L 585.84641 291.208603 
L 584.608305 291.30623 
L 584.157937 291.536225 
L 581.794262 291.48232 
L 581.456427 291.596718 
L 580.893758 291.619478 
L 580.555924 291.78239 
L 580.218322 291.65242 
L 579.768188 291.518256 
L 578.867684 291.527241 
L 577.967181 291.349953 
L 576.954144 291.537423 
L 576.391242 291.797364 
L 575.490739 291.634451 
L 575.040604 291.670987 
L 574.252634 291.465549 
L 573.01453 291.640441 
L 572.564161 291.920147 
L 571.326057 291.713512 
L 570.538087 291.526642 
L 569.862651 291.73747 
L 569.412516 291.748251 
L 568.962148 291.762026 
L 568.399479 291.868638 
L 567.61151 291.866242 
L 567.161141 291.823119 
L 566.711007 291.753641 
L 565.585436 292.017775 
L 564.684933 291.880617 
L 564.12203 292.01478 
L 563.559362 292.214827 
L 562.546325 292.116601 
L 561.195453 291.939912 
L 560.407484 291.962073 
L 559.844815 291.993817 
L 558.831778 292.162719 
L 558.043808 292.141157 
L 557.255839 292.232197 
L 556.017734 292.413677 
L 555.454832 292.531069 
L 553.541292 292.98986 
L 552.866089 292.487946 
L 552.190654 292.167511 
L 551.740519 292.211234 
L 550.502181 292.387922 
L 549.489144 292.4568 
L 549.039009 292.470576 
L 548.363573 292.270529 
L 545.324462 292.379537 
L 544.76156 292.259748 
L 543.635989 292.345397 
L 542.960553 292.327429 
L 542.285351 292.426853 
L 540.259277 292.270529 
L 539.583841 292.369954 
L 539.020939 292.564011 
L 537.782834 292.414275 
L 536.994865 292.337611 
L 536.206895 292.404692 
L 534.856257 292.351985 
L 532.717649 292.201052 
L 531.704612 292.327429 
L 530.579042 292.332819 
L 528.890569 292.463389 
L 528.327667 292.761663 
L 527.539697 292.656249 
L 526.977028 292.955121 
L 526.414126 292.826947 
L 525.288556 292.562214 
L 523.375015 292.965303 
L 523.037414 292.854499 
L 522.699579 292.705961 
L 522.474512 292.788615 
L 521.911843 293.173137 
L 521.236407 293.127018 
L 520.448438 293.561252 
L 520.110837 293.411516 
L 519.547935 293.157564 
L 519.0978 293.236026 
L 518.534898 293.446255 
L 518.30983 293.28454 
L 517.521861 292.363365 
L 517.184259 292.556824 
L 516.846425 292.718539 
L 516.621357 292.572396 
L 516.283756 291.956084 
L 515.270719 289.696271 
L 515.045418 289.762754 
L 514.145148 290.520417 
L 513.019344 291.121157 
L 512.681743 291.176859 
L 512.006307 291.430212 
L 511.443638 291.54461 
L 509.980233 292.420864 
L 509.530098 292.707159 
L 509.304797 292.542449 
L 508.404527 291.380499 
L 508.179226 291.523048 
L 507.616558 292.123788 
L 507.278723 291.880018 
L 506.941122 291.738668 
L 505.703017 292.029754 
L 505.365183 291.937517 
L 504.915048 291.820723 
L 504.464913 291.85606 
L 503.676943 291.636847 
L 503.339109 291.663201 
L 503.114041 291.460159 
L 502.77644 290.701298 
L 502.326072 289.638174 
L 502.101004 289.523176 
L 501.875937 289.702859 
L 501.425568 290.146676 
L 500.07493 290.430575 
L 499.737329 290.23532 
L 499.286961 289.570493 
L 499.061893 289.320135 
L 498.836826 289.390211 
L 498.498991 290.039466 
L 498.048856 290.767781 
L 497.598488 290.876189 
L 496.472917 291.10798 
L 495.347346 290.699501 
L 492.75837 290.67195 
L 491.970634 290.657575 
L 490.957364 290.935485 
L 489.269124 292.074076 
L 488.93129 292.086055 
L 488.481155 291.81114 
L 488.030786 291.56138 
L 484.766608 291.001967 
L 483.978638 291.088215 
L 483.528503 291.40266 
L 482.177632 292.732913 
L 480.039024 294.788486 
L 479.813956 294.841194 
L 479.476355 294.631563 
L 478.575852 293.926008 
L 478.238017 293.762497 
L 477.787882 293.866713 
L 476.549544 294.267406 
L 475.874342 294.147617 
L 475.536741 294.533337 
L 474.298403 296.394852 
L 474.185869 296.309203 
L 473.960802 295.610836 
L 473.623201 293.317482 
L 473.060298 289.565701 
L 472.722697 288.840381 
L 472.497396 288.869729 
L 471.034224 290.466512 
L 470.583856 291.087616 
L 470.246255 291.216988 
L 469.570819 291.156495 
L 469.120684 291.18165 
L 468.557782 291.333782 
L 468.220181 290.974416 
L 467.769812 290.494063 
L 467.09461 290.303001 
L 466.756775 290.107745 
L 466.419174 290.166441 
L 465.856272 290.274251 
L 464.955769 290.436565 
L 464.505634 290.548567 
L 463.717664 290.51323 
L 463.154996 290.591691 
L 462.592094 290.49047 
L 461.916658 290.238914 
L 461.353989 290.415602 
L 460.228418 290.869002 
L 459.215381 290.646195 
L 458.652479 290.452736 
L 457.526908 290.586301 
L 457.07654 290.478491 
L 456.513871 290.236518 
L 456.063503 290.334146 
L 455.500834 290.469507 
L 455.050466 290.161051 
L 454.712865 290.077798 
L 453.924895 290.471903 
L 453.47476 290.594686 
L 452.911858 290.403623 
L 452.461723 290.403623 
L 451.56122 290.604269 
L 451.110852 290.386254 
L 450.322882 289.942437 
L 449.084778 290.148473 
L 448.296808 290.096365 
L 447.621606 290.038268 
L 445.933133 289.475261 
L 444.582261 289.13566 
L 443.794525 288.814028 
L 443.231623 288.993711 
L 442.218586 289.276412 
L 440.192512 289.675907 
L 438.166438 289.528567 
L 437.265935 289.589659 
L 436.703032 289.469272 
L 435.014793 288.711608 
L 434.676958 288.949389 
L 433.32632 290.35451 
L 432.875952 290.300605 
L 432.087982 290.17303 
L 431.525314 290.291621 
L 430.737344 290.570728 
L 430.174442 290.638409 
L 429.611773 290.853429 
L 428.936338 290.94926 
L 428.261135 291.058867 
L 426.572662 291.014545 
L 426.00976 290.869002 
L 425.559625 291.042097 
L 424.884189 290.982801 
L 423.983686 291.191233 
L 423.30825 290.993582 
L 422.745582 290.876788 
L 422.070146 291.089413 
L 420.832041 291.200218 
L 419.706471 291.125949 
L 418.580666 291.142719 
L 417.567629 291.141521 
L 416.892427 291.091809 
L 414.641052 290.809707 
L 413.853316 290.832466 
L 411.039272 290.416201 
L 408.56283 290.005925 
L 407.437259 289.744187 
L 406.311688 289.627393 
L 405.748786 289.502812 
L 404.623216 289.535155 
L 403.94778 289.512994 
L 403.272577 289.559712 
L 401.471571 289.393805 
L 398.544993 289.386617 
L 397.869558 289.360863 
L 397.081588 289.268626 
L 395.618416 289.294979 
L 394.492845 289.205737 
L 393.367041 289.160217 
L 392.24147 289.1129 
L 389.089826 289.038032 
L 388.639457 288.984128 
L 387.964255 288.932019 
L 387.288819 288.922436 
L 386.388316 288.915848 
L 385.375279 288.692442 
L 384.699843 288.771503 
L 383.461738 288.455261 
L 381.660732 288.279171 
L 380.985529 288.388179 
L 379.297057 288.192924 
L 378.396553 288.240839 
L 377.383516 288.212689 
L 376.820614 288.150997 
L 375.807577 287.821579 
L 372.655932 287.852724 
L 369.954422 287.538279 
L 369.278987 287.420287 
L 367.815815 287.06152 
L 367.027845 286.953111 
L 366.352409 286.825536 
L 364.438869 286.38112 
L 362.300261 286.061883 
L 359.26115 285.973839 
L 358.135579 286.14873 
L 356.55964 286.659629 
L 355.659137 286.956106 
L 353.520529 287.21425 
L 349.693449 286.862072 
L 347.667375 286.485935 
L 346.203969 286.167297 
L 345.528767 286.019957 
L 344.853331 285.905559 
L 343.840294 285.718689 
L 342.264355 285.429399 
L 341.589152 285.392265 
L 340.013213 285.716293 
L 337.424237 286.261332 
L 335.961065 286.145736 
L 333.484623 285.8822 
L 332.133985 285.771396 
L 331.571082 285.71809 
L 330.783113 285.540803 
L 329.770309 285.429399 
L 328.644505 285.198806 
L 325.380327 284.605852 
L 324.592357 284.414191 
L 322.003381 283.891912 
L 320.089841 283.313333 
L 317.838699 282.471818 
L 317.05073 282.184924 
L 315.812625 281.651864 
L 314.574521 280.473144 
L 314.124152 279.855035 
L 313.674017 278.711053 
L 312.998581 276.062526 
L 312.548447 274.774199 
L 312.323146 274.70592 
L 312.098078 275.025156 
L 311.647943 276.336842 
L 310.859974 278.597254 
L 310.409605 279.208176 
L 309.95947 279.484289 
L 309.509335 279.502856 
L 308.496065 279.142891 
L 307.595562 278.585874 
L 305.907322 277.342468 
L 304.894285 276.5309 
L 303.655947 275.320435 
L 302.980745 274.407646 
L 301.855174 272.889325 
L 301.51734 272.668914 
L 301.179738 272.66532 
L 300.391769 272.763547 
L 299.828867 272.582666 
L 299.491266 272.313141 
L 299.153664 271.751333 
L 298.81583 270.772659 
L 298.365695 268.761408 
L 297.12759 262.197589 
L 297.014823 262.1347 
L 296.789756 262.393443 
L 296.452154 263.443391 
L 295.101516 268.512248 
L 294.763682 269.071062 
L 294.538614 269.146528 
L 294.313547 269.012365 
L 293.975712 268.538002 
L 292.962675 266.854972 
L 292.737608 266.903486 
L 291.837104 267.45092 
L 291.386969 267.234702 
L 291.049135 267.119106 
L 290.824067 267.200562 
L 290.599 267.489252 
L 290.261165 268.485295 
L 289.81103 270.90802 
L 288.910527 276.051146 
L 288.347858 277.922245 
L 287.89749 278.61103 
L 287.559889 278.761364 
L 286.546852 278.913496 
L 285.308514 279.860425 
L 285.083446 279.659779 
L 284.745845 278.836232 
L 283.957876 276.333248 
L 283.845342 276.375174 
L 283.620274 276.934587 
L 282.494704 281.367366 
L 282.156869 281.760872 
L 281.819268 281.794413 
L 280.918765 281.533274 
L 280.468396 281.811782 
L 279.905727 282.182528 
L 279.567893 282.145993 
L 279.117758 281.753086 
L 278.66739 281.406897 
L 278.442322 281.462598 
L 278.104721 281.833344 
L 276.528782 283.899099 
L 276.078647 284.192582 
L 275.741046 284.184795 
L 275.290677 283.965582 
L 273.714738 282.874308 
L 273.377137 282.943186 
L 272.701701 283.430127 
L 272.139033 283.704443 
L 271.351063 283.74577 
L 270.338026 283.764337 
L 268.874621 283.446298 
L 268.311952 283.21271 
L 267.073614 283.030033 
L 263.359301 282.014225 
L 262.796398 281.84712 
L 260.657791 280.867249 
L 259.644754 280.374917 
L 258.856784 280.114377 
L 258.181348 279.829879 
L 256.492875 278.942245 
L 255.029703 278.039638 
L 254.466801 277.659309 
L 253.904133 277.304135 
L 253.228697 276.798627 
L 251.652758 275.960107 
L 249.401616 274.35973 
L 243.323394 269.074655 
L 242.197823 267.866587 
L 241.634921 267.296393 
L 240.284283 265.553468 
L 239.496313 264.58857 
L 235.444165 258.708745 
L 234.430895 256.923894 
L 233.080257 254.513147 
L 230.716581 249.583245 
L 229.928612 248.007426 
L 229.140642 246.374107 
L 228.015072 243.770501 
L 225.876464 239.521598 
L 224.525592 237.568444 
L 223.06242 235.883616 
L 219.685474 233.42196 
L 218.897738 232.834396 
L 218.222303 232.287561 
L 217.434333 231.871296 
L 213.607252 228.416591 
L 212.369148 226.860537 
L 211.91878 226.397553 
L 211.13081 225.389532 
L 210.568141 224.784 
L 209.667638 223.674757 
L 208.879668 222.939854 
L 208.091699 222.116307 
L 207.303963 221.473042 
L 206.403459 220.574028 
L 205.728024 220.150575 
L 204.714987 219.268931 
L 203.814483 218.741262 
L 202.576379 218.383693 
L 201.225507 218.797563 
L 200.662605 219.113805 
L 199.649802 220.239219 
L 199.086899 221.34966 
L 198.29893 222.840429 
L 197.173359 225.161933 
L 195.59742 228.308781 
L 194.922218 229.044284 
L 194.134248 229.548594 
L 193.796647 229.564166 
L 193.008677 229.245529 
L 192.558309 228.864601 
L 191.883107 227.911083 
L 191.095137 226.467031 
L 189.406664 222.837435 
L 189.069063 222.640382 
L 188.731228 222.680512 
L 188.281093 223.028498 
L 187.830725 223.686736 
L 187.38059 224.913372 
L 186.592621 227.869157 
L 185.354516 232.847573 
L 184.228945 236.765261 
L 183.440976 238.760341 
L 180.964533 243.860942 
L 174.886311 259.870095 
L 173.085305 263.182252 
L 172.63517 263.841688 
L 171.734666 265.334854 
L 170.946697 266.286574 
L 170.158727 267.058612 
L 168.132653 269.477145 
L 167.457217 270.066505 
L 166.556714 271.233846 
L 165.994045 271.794456 
L 164.868241 273.304991 
L 164.080505 273.96323 
L 163.517603 274.625661 
L 162.6171 275.686989 
L 160.928627 277.708422 
L 160.140657 278.454106 
L 159.127854 279.397442 
L 158.564952 280.035915 
L 157.776982 280.94571 
L 155.300773 282.688036 
L 154.512804 283.033626 
L 153.387233 283.674496 
L 152.148895 283.45109 
L 151.69876 283.220497 
L 150.91079 282.44786 
L 150.573189 281.757877 
L 149.672686 279.03568 
L 148.772183 275.739696 
L 147.421311 270.417486 
L 147.08371 269.858672 
L 146.858642 269.805366 
L 146.633575 269.99583 
L 146.408274 270.454021 
L 146.070673 271.724979 
L 145.507771 275.104217 
L 144.157132 283.775717 
L 143.59423 285.807932 
L 143.031562 286.818349 
L 141.568156 289.220111 
L 140.892954 289.884938 
L 139.654616 290.379665 
L 138.979414 290.807311 
L 138.07891 290.818691 
L 137.628542 291.001368 
L 136.95334 291.030717 
L 136.277904 291.343964 
L 135.602468 291.406853 
L 134.476897 291.978245 
L 133.238793 291.930329 
L 132.788424 292.110012 
L 131.775387 292.129777 
L 131.212719 292.272326 
L 130.312215 292.271727 
L 129.524246 292.72333 
L 129.074111 292.666431 
L 128.398675 292.519091 
L 127.385638 292.539455 
L 126.822736 292.432843 
L 125.922233 292.662837 
L 125.584631 292.478961 
L 125.359564 292.55922 
L 124.796662 292.931164 
L 124.459061 292.813771 
L 124.008692 292.601745 
L 123.671091 292.762262 
L 123.220723 292.993454 
L 122.770588 292.926971 
L 122.320453 292.851504 
L 121.307182 293.018609 
L 120.857048 292.979678 
L 120.181612 292.923377 
L 119.506409 292.81437 
L 119.056041 292.689789 
L 118.043004 292.913794 
L 117.367568 292.656847 
L 116.917433 292.782027 
L 116.01693 293.079102 
L 115.116427 293.072514 
L 113.878322 292.546642 
L 113.427954 292.918586 
L 113.202886 293.018609 
L 112.865285 292.876061 
L 112.414917 292.707159 
L 110.163775 292.936554 
L 108.475302 292.697576 
L 107.462265 292.652655 
L 107.124664 292.664035 
L 106.449228 292.551433 
L 105.548725 292.840124 
L 105.09859 292.662238 
L 104.760755 292.590964 
L 103.747718 292.77424 
L 102.847215 292.401698 
L 102.171779 292.602943 
L 101.496577 292.204645 
L 101.046209 292.378938 
L 100.596074 292.515497 
L 100.145705 292.365761 
L 99.69557 292.311257 
L 98.907601 292.437035 
L 98.344932 292.465785 
L 97.106594 292.772444 
L 95.418121 292.441228 
L 94.630385 292.598151 
L 93.617348 292.880852 
L 92.716845 292.777235 
L 92.153943 292.952127 
L 91.25344 292.922778 
L 90.803305 293.038973 
L 89.677734 292.875462 
L 89.227365 292.815567 
L 88.326862 292.568803 
L 87.313825 292.684399 
L 86.86369 292.573594 
L 85.963187 292.805385 
L 84.95015 292.710752 
L 84.274714 292.777235 
L 83.486745 292.562813 
L 83.149143 292.49094 
L 82.698775 292.752678 
L 82.24864 292.90481 
L 81.798272 292.897623 
L 81.010302 292.673019 
L 80.222566 292.864681 
L 78.421559 292.427452 
L 77.746124 292.859889 
L 77.070688 292.505315 
L 76.170418 292.331022 
L 75.832583 292.24717 
L 75.382448 292.474769 
L 75.044614 292.548439 
L 74.256644 292.515497 
L 72.793472 292.849707 
L 72.455871 292.720335 
L 71.892969 292.446019 
L 70.542331 292.525679 
L 70.091962 292.60414 
L 69.641827 292.625702 
L 68.966392 292.544845 
L 68.40349 292.506513 
L 67.953355 292.446019 
L 67.165385 292.519689 
L 66.827784 292.504117 
L 66.039814 292.747887 
L 65.364378 292.644869 
L 64.80171 292.602344 
L 63.901207 292.339408 
L 63.113237 292.566407 
L 62.663102 292.565209 
L 61.987666 292.807781 
L 61.087163 292.393911 
L 60.074126 292.577787 
L 59.39869 292.53047 
L 58.836021 292.510106 
L 58.273119 292.486748 
L 57.597683 292.546642 
L 56.922481 292.555027 
L 56.134512 292.631093 
L 55.346542 292.543048 
L 54.671106 292.606536 
L 54.108437 292.630494 
L 53.0954 292.718539 
L 51.18186 292.658045 
L 50.393891 292.745491 
L 48.48035 292.6838 
L 47.804914 292.489742 
L 46.791877 292.613125 
L 46.341743 292.673618 
L 45.103405 292.546642 
L 43.752766 292.513101 
L 43.752766 292.513101 
" clip-path="url(#p3945299117)" style="fill: none; stroke: #9b59b6; stroke-width: 0.8; stroke-linecap: square"/>
   </g>
   <g id="patch_9">
    <path d="M 43.78125 309.446125 
L 43.78125 22.318125 
" style="fill: none; stroke: #000000; stroke-width: 0.8; stroke-linejoin: miter; stroke-linecap: square"/>
   </g>
   <g id="patch_10">
    <path d="M 43.78125 309.446125 
L 849.26125 309.446125 
" style="fill: none; stroke: #000000; stroke-width: 0.8; stroke-linejoin: miter; stroke-linecap: square"/>
   </g>
   <g id="text_15">
    <!-- O–H stretch -->
    <g style="fill: #555555" transform="translate(185.796291 76.914596) rotate(-90) scale(0.07 -0.07)">
     <defs>
      <path id="DejaVuSans-4f" d="M 2522 4238 
Q 1834 4238 1429 3725 
Q 1025 3213 1025 2328 
Q 1025 1447 1429 934 
Q 1834 422 2522 422 
Q 3209 422 3611 934 
Q 4013 1447 4013 2328 
Q 4013 3213 3611 3725 
Q 3209 4238 2522 4238 
z
M 2522 4750 
Q 3503 4750 4090 4092 
Q 4678 3434 4678 2328 
Q 4678 1225 4090 567 
Q 3503 -91 2522 -91 
Q 1538 -91 948 565 
Q 359 1222 359 2328 
Q 359 3434 948 4092 
Q 1538 4750 2522 4750 
z
" transform="scale(0.015625)"/>
      <path id="DejaVuSans-2013" d="M 313 1978 
L 2888 1978 
L 2888 1528 
L 313 1528 
L 313 1978 
z
" transform="scale(0.015625)"/>
      <path id="DejaVuSans-48" d="M 628 4666 
L 1259 4666 
L 1259 2753 
L 3553 2753 
L 3553 4666 
L 4184 4666 
L 4184 0 
L 3553 0 
L 3553 2222 
L 1259 2222 
L 1259 0 
L 628 0 
L 628 4666 
z
" transform="scale(0.015625)"/>
      <path id="DejaVuSans-74" d="M 1172 4494 
L 1172 3500 
L 2356 3500 
L 2356 3053 
L 1172 3053 
L 1172 1153 
Q 1172 725 1289 603 
Q 1406 481 1766 481 
L 2356 481 
L 2356 0 
L 1766 0 
Q 1100 0 847 248 
Q 594 497 594 1153 
L 594 3053 
L 172 3053 
L 172 3500 
L 594 3500 
L 594 4494 
L 1172 4494 
z
" transform="scale(0.015625)"/>
      <path id="DejaVuSans-68" d="M 3513 2113 
L 3513 0 
L 2938 0 
L 2938 2094 
Q 2938 2591 2744 2837 
Q 2550 3084 2163 3084 
Q 1697 3084 1428 2787 
Q 1159 2491 1159 1978 
L 1159 0 
L 581 0 
L 581 4863 
L 1159 4863 
L 1159 2956 
Q 1366 3272 1645 3428 
Q 1925 3584 2291 3584 
Q 2894 3584 3203 3211 
Q 3513 2838 3513 2113 
z
" transform="scale(0.015625)"/>
     </defs>
     <use xlink:href="#DejaVuSans-4f"/>
     <use xlink:href="#DejaVuSans-2013" x="78.710938"/>
     <use xlink:href="#DejaVuSans-48" x="128.710938"/>
     <use xlink:href="#DejaVuSans-20" x="203.90625"/>
     <use xlink:href="#DejaVuSans-73" x="235.693359"/>
     <use xlink:href="#DejaVuSans-74" x="287.792969"/>
     <use xlink:href="#DejaVuSans-72" x="327.001953"/>
     <use xlink:href="#DejaVuSans-65" x="365.865234"/>
     <use xlink:href="#DejaVuSans-74" x="427.388672"/>
     <use xlink:href="#DejaVuSans-63" x="466.597656"/>
     <use xlink:href="#DejaVuSans-68" x="521.578125"/>
    </g>
   </g>
   <g id="text_16">
    <!-- C–H stretch -->
    <g style="fill: #555555" transform="translate(296.695711 76.292252) rotate(-90) scale(0.07 -0.07)">
     <defs>
      <path id="DejaVuSans-43" d="M 4122 4306 
L 4122 3641 
Q 3803 3938 3442 4084 
Q 3081 4231 2675 4231 
Q 1875 4231 1450 3742 
Q 1025 3253 1025 2328 
Q 1025 1406 1450 917 
Q 1875 428 2675 428 
Q 3081 428 3442 575 
Q 3803 722 4122 1019 
L 4122 359 
Q 3791 134 3420 21 
Q 3050 -91 2638 -91 
Q 1578 -91 968 557 
Q 359 1206 359 2328 
Q 359 3453 968 4101 
Q 1578 4750 2638 4750 
Q 3056 4750 3426 4639 
Q 3797 4528 4122 4306 
z
" transform="scale(0.015625)"/>
     </defs>
     <use xlink:href="#DejaVuSans-43"/>
     <use xlink:href="#DejaVuSans-2013" x="69.824219"/>
     <use xlink:href="#DejaVuSans-48" x="119.824219"/>
     <use xlink:href="#DejaVuSans-20" x="195.019531"/>
     <use xlink:href="#DejaVuSans-73" x="226.806641"/>
     <use xlink:href="#DejaVuSans-74" x="278.90625"/>
     <use xlink:href="#DejaVuSans-72" x="318.115234"/>
     <use xlink:href="#DejaVuSans-65" x="356.978516"/>
     <use xlink:href="#DejaVuSans-74" x="418.501953"/>
     <use xlink:href="#DejaVuSans-63" x="457.710938"/>
     <use xlink:href="#DejaVuSans-68" x="512.691406"/>
    </g>
   </g>
   <g id="text_17">
    <!-- C=O stretch -->
    <g style="fill: #555555" transform="translate(579.197392 78.904127) rotate(-90) scale(0.07 -0.07)">
     <defs>
      <path id="DejaVuSans-3d" d="M 678 2906 
L 4684 2906 
L 4684 2381 
L 678 2381 
L 678 2906 
z
M 678 1631 
L 4684 1631 
L 4684 1100 
L 678 1100 
L 678 1631 
z
" transform="scale(0.015625)"/>
     </defs>
     <use xlink:href="#DejaVuSans-43"/>
     <use xlink:href="#DejaVuSans-3d" x="69.824219"/>
     <use xlink:href="#DejaVuSans-4f" x="153.613281"/>
     <use xlink:href="#DejaVuSans-20" x="232.324219"/>
     <use xlink:href="#DejaVuSans-73" x="264.111328"/>
     <use xlink:href="#DejaVuSans-74" x="316.210938"/>
     <use xlink:href="#DejaVuSans-72" x="355.419922"/>
     <use xlink:href="#DejaVuSans-65" x="394.283203"/>
     <use xlink:href="#DejaVuSans-74" x="455.806641"/>
     <use xlink:href="#DejaVuSans-63" x="495.015625"/>
     <use xlink:href="#DejaVuSans-68" x="549.996094"/>
    </g>
   </g>
   <g id="text_18">
    <!-- C=C stretch -->
    <g style="fill: #555555" transform="translate(596.707827 78.281783) rotate(-90) scale(0.07 -0.07)">
     <use xlink:href="#DejaVuSans-43"/>
     <use xlink:href="#DejaVuSans-3d" x="69.824219"/>
     <use xlink:href="#DejaVuSans-43" x="153.613281"/>
     <use xlink:href="#DejaVuSans-20" x="223.4375"/>
     <use xlink:href="#DejaVuSans-73" x="255.224609"/>
     <use xlink:href="#DejaVuSans-74" x="307.324219"/>
     <use xlink:href="#DejaVuSans-72" x="346.533203"/>
     <use xlink:href="#DejaVuSans-65" x="385.396484"/>
     <use xlink:href="#DejaVuSans-74" x="446.919922"/>
     <use xlink:href="#DejaVuSans-63" x="486.128906"/>
     <use xlink:href="#DejaVuSans-68" x="541.109375"/>
    </g>
   </g>
   <g id="text_19">
    <!-- C–H bend -->
    <g style="fill: #555555" transform="translate(649.239131 69.476002) rotate(-90) scale(0.07 -0.07)">
     <defs>
      <path id="DejaVuSans-64" d="M 2906 2969 
L 2906 4863 
L 3481 4863 
L 3481 0 
L 2906 0 
L 2906 525 
Q 2725 213 2448 61 
Q 2172 -91 1784 -91 
Q 1150 -91 751 415 
Q 353 922 353 1747 
Q 353 2572 751 3078 
Q 1150 3584 1784 3584 
Q 2172 3584 2448 3432 
Q 2725 3281 2906 2969 
z
M 947 1747 
Q 947 1113 1208 752 
Q 1469 391 1925 391 
Q 2381 391 2643 752 
Q 2906 1113 2906 1747 
Q 2906 2381 2643 2742 
Q 2381 3103 1925 3103 
Q 1469 3103 1208 2742 
Q 947 2381 947 1747 
z
" transform="scale(0.015625)"/>
     </defs>
     <use xlink:href="#DejaVuSans-43"/>
     <use xlink:href="#DejaVuSans-2013" x="69.824219"/>
     <use xlink:href="#DejaVuSans-48" x="119.824219"/>
     <use xlink:href="#DejaVuSans-20" x="195.019531"/>
     <use xlink:href="#DejaVuSans-62" x="226.806641"/>
     <use xlink:href="#DejaVuSans-65" x="290.283203"/>
     <use xlink:href="#DejaVuSans-6e" x="351.806641"/>
     <use xlink:href="#DejaVuSans-64" x="415.185547"/>
    </g>
   </g>
   <g id="text_20">
    <!-- C–O stretch -->
    <g style="fill: #555555" transform="translate(711.109334 76.538346) rotate(-90) scale(0.07 -0.07)">
     <use xlink:href="#DejaVuSans-43"/>
     <use xlink:href="#DejaVuSans-2013" x="69.824219"/>
     <use xlink:href="#DejaVuSans-4f" x="119.824219"/>
     <use xlink:href="#DejaVuSans-20" x="198.535156"/>
     <use xlink:href="#DejaVuSans-73" x="230.322266"/>
     <use xlink:href="#DejaVuSans-74" x="282.421875"/>
     <use xlink:href="#DejaVuSans-72" x="321.630859"/>
     <use xlink:href="#DejaVuSans-65" x="360.494141"/>
     <use xlink:href="#DejaVuSans-74" x="422.017578"/>
     <use xlink:href="#DejaVuSans-63" x="461.226562"/>
     <use xlink:href="#DejaVuSans-68" x="516.207031"/>
    </g>
   </g>
   <g id="text_21">
    <!-- Sugar -->
    <g transform="translate(428.957188 16.318125) scale(0.12 -0.12)">
     <defs>
      <path id="DejaVuSans-53" d="M 3425 4513 
L 3425 3897 
Q 3066 4069 2747 4153 
Q 2428 4238 2131 4238 
Q 1616 4238 1336 4038 
Q 1056 3838 1056 3469 
Q 1056 3159 1242 3001 
Q 1428 2844 1947 2747 
L 2328 2669 
Q 3034 2534 3370 2195 
Q 3706 1856 3706 1288 
Q 3706 609 3251 259 
Q 2797 -91 1919 -91 
Q 1588 -91 1214 -16 
Q 841 59 441 206 
L 441 856 
Q 825 641 1194 531 
Q 1563 422 1919 422 
Q 2459 422 2753 634 
Q 3047 847 3047 1241 
Q 3047 1584 2836 1778 
Q 2625 1972 2144 2069 
L 1759 2144 
Q 1053 2284 737 2584 
Q 422 2884 422 3419 
Q 422 4038 858 4394 
Q 1294 4750 2059 4750 
Q 2388 4750 2728 4690 
Q 3069 4631 3425 4513 
z
" transform="scale(0.015625)"/>
      <path id="DejaVuSans-67" d="M 2906 1791 
Q 2906 2416 2648 2759 
Q 2391 3103 1925 3103 
Q 1463 3103 1205 2759 
Q 947 2416 947 1791 
Q 947 1169 1205 825 
Q 1463 481 1925 481 
Q 2391 481 2648 825 
Q 2906 1169 2906 1791 
z
M 3481 434 
Q 3481 -459 3084 -895 
Q 2688 -1331 1869 -1331 
Q 1566 -1331 1297 -1286 
Q 1028 -1241 775 -1147 
L 775 -588 
Q 1028 -725 1275 -790 
Q 1522 -856 1778 -856 
Q 2344 -856 2625 -561 
Q 2906 -266 2906 331 
L 2906 616 
Q 2728 306 2450 153 
Q 2172 0 1784 0 
Q 1141 0 747 490 
Q 353 981 353 1791 
Q 353 2603 747 3093 
Q 1141 3584 1784 3584 
Q 2172 3584 2450 3431 
Q 2728 3278 2906 2969 
L 2906 3500 
L 3481 3500 
L 3481 434 
z
" transform="scale(0.015625)"/>
     </defs>
     <use xlink:href="#DejaVuSans-53"/>
     <use xlink:href="#DejaVuSans-75" x="63.476562"/>
     <use xlink:href="#DejaVuSans-67" x="126.855469"/>
     <use xlink:href="#DejaVuSans-61" x="190.332031"/>
     <use xlink:href="#DejaVuSans-72" x="251.611328"/>
    </g>
   </g>
  </g>
 </g>
 <defs>
  <clipPath id="p3945299117">
   <rect x="43.78125" y="22.318125" width="805.48" height="287.128"/>
  </clipPath>
 </defs>
</svg>
