<?xml version="1.0" encoding="utf-8" standalone="no"?>
<!DOCTYPE svg PUBLIC "-//W3C//DTD SVG 1.1//EN"
  "http://www.w3.org/Graphics/SVG/1.1/DTD/svg11.dtd">
<svg xmlns:xlink="http://www.w3.org/1999/xlink" width="855.792812pt" height="348.316812pt" viewBox="0 0 855.792812 348.316812" xmlns="http://www.w3.org/2000/svg" version="1.1">
 <metadata>
  <rdf:RDF xmlns:dc="http://purl.org/dc/elements/1.1/" xmlns:cc="http://creativecommons.org/ns#" xmlns:rdf="http://www.w3.org/1999/02/22-rdf-syntax-ns#">
   <cc:Work>
    <dc:type rdf:resource="http://purl.org/dc/dcmitype/StillImage"/>
    <dc:date>2026-04-05T20:24:39.461665</dc:date>
    <dc:format>image/svg+xml</dc:format>
    <dc:creator>
     <cc:Agent>
      <dc:title>Matplotlib v3.9.4, https://matplotlib.org/</dc:title>
     </cc:Agent>
    </dc:creator>
   </cc:Work>
  </rdf:RDF>
 </metadata>
 <defs>
  <style type="text/css">*{stroke-linejoin: round; stroke-linecap: butt}</style>
 </defs>
 <g id="figure_1">
  <g id="patch_1">
   <path d="M 0 348.316812 
L 855.792812 348.316812 
L 855.792812 0 
L 0 0 
z
" style="fill: #f6f8fa"/>
  </g>
  <g id="axes_1">
   <g id="patch_2">
    <path d="M 39.782813 309.934 
L 848.592813 309.934 
L 848.592813 21.51 
L 39.782813 21.51 
z
" style="fill: #f6f8fa"/>
   </g>
   <g id="patch_3">
    <path d="M 227.332957 309.934 
L 133.557885 309.934 
L 133.557885 21.51 
L 227.332957 21.51 
z
" clip-path="url(#pa7a8cac8d6)" style="fill: #cce5ff; opacity: 0.35; stroke: #cce5ff; stroke-linejoin: miter"/>
   </g>
   <g id="patch_4">
    <path d="M 309.386146 309.934 
L 274.220494 309.934 
L 274.220494 21.51 
L 309.386146 21.51 
z
" clip-path="url(#pa7a8cac8d6)" style="fill: #d4edda; opacity: 0.35; stroke: #d4edda; stroke-linejoin: miter"/>
   </g>
   <g id="patch_5">
    <path d="M 583.678233 309.934 
L 567.267595 309.934 
L 567.267595 21.51 
L 583.678233 21.51 
z
" clip-path="url(#pa7a8cac8d6)" style="fill: #f8d7da; opacity: 0.35; stroke: #f8d7da; stroke-linejoin: miter"/>
   </g>
   <g id="patch_6">
    <path d="M 602.433247 309.934 
L 583.678233 309.934 
L 583.678233 21.51 
L 602.433247 21.51 
z
" clip-path="url(#pa7a8cac8d6)" style="fill: #fff3cd; opacity: 0.35; stroke: #fff3cd; stroke-linejoin: miter"/>
   </g>
   <g id="patch_7">
    <path d="M 661.042668 309.934 
L 630.565769 309.934 
L 630.565769 21.51 
L 661.042668 21.51 
z
" clip-path="url(#pa7a8cac8d6)" style="fill: #fce4b8; opacity: 0.35; stroke: #fce4b8; stroke-linejoin: miter"/>
   </g>
   <g id="patch_8">
    <path d="M 743.095856 309.934 
L 672.764552 309.934 
L 672.764552 21.51 
L 743.095856 21.51 
z
" clip-path="url(#pa7a8cac8d6)" style="fill: #e2d9f3; opacity: 0.35; stroke: #e2d9f3; stroke-linejoin: miter"/>
   </g>
   <g id="matplotlib.axis_1">
    <g id="xtick_1">
     <g id="line2d_1">
      <defs>
       <path id="m7bba78caf4" d="M 0 0 
L 0 3.5 
" style="stroke: #000000; stroke-width: 0.8"/>
      </defs>
      <g>
       <use xlink:href="#m7bba78caf4" x="743.095856" y="309.934" style="stroke: #000000; stroke-width: 0.8"/>
      </g>
     </g>
     <g id="text_1">
      <!-- 1,000 -->
      <g transform="translate(731.845856 323.87775) scale(0.1 -0.1)">
       <defs>
        <path id="TimesNewRomanPSMT-31" d="M 750 3822 
L 1781 4325 
L 1884 4325 
L 1884 747 
Q 1884 391 1914 303 
Q 1944 216 2037 169 
Q 2131 122 2419 116 
L 2419 0 
L 825 0 
L 825 116 
Q 1125 122 1212 167 
Q 1300 213 1334 289 
Q 1369 366 1369 747 
L 1369 3034 
Q 1369 3497 1338 3628 
Q 1316 3728 1258 3775 
Q 1200 3822 1119 3822 
Q 1003 3822 797 3725 
L 750 3822 
z
" transform="scale(0.015625)"/>
        <path id="TimesNewRomanPSMT-2c" d="M 344 -1066 
L 344 -928 
Q 666 -822 842 -598 
Q 1019 -375 1019 -125 
Q 1019 -66 991 -25 
Q 969 3 947 3 
Q 913 3 797 -59 
Q 741 -88 678 -88 
Q 525 -88 434 3 
Q 344 94 344 253 
Q 344 406 461 515 
Q 578 625 747 625 
Q 953 625 1114 445 
Q 1275 266 1275 -31 
Q 1275 -353 1051 -629 
Q 828 -906 344 -1066 
z
" transform="scale(0.015625)"/>
        <path id="TimesNewRomanPSMT-30" d="M 231 2094 
Q 231 2819 450 3342 
Q 669 3866 1031 4122 
Q 1313 4325 1613 4325 
Q 2100 4325 2488 3828 
Q 2972 3213 2972 2159 
Q 2972 1422 2759 906 
Q 2547 391 2217 158 
Q 1888 -75 1581 -75 
Q 975 -75 572 641 
Q 231 1244 231 2094 
z
M 844 2016 
Q 844 1141 1059 588 
Q 1238 122 1591 122 
Q 1759 122 1940 273 
Q 2122 425 2216 781 
Q 2359 1319 2359 2297 
Q 2359 3022 2209 3506 
Q 2097 3866 1919 4016 
Q 1791 4119 1609 4119 
Q 1397 4119 1231 3928 
Q 1006 3669 925 3112 
Q 844 2556 844 2016 
z
" transform="scale(0.015625)"/>
       </defs>
       <use xlink:href="#TimesNewRomanPSMT-31"/>
       <use xlink:href="#TimesNewRomanPSMT-2c" x="50"/>
       <use xlink:href="#TimesNewRomanPSMT-30" x="75"/>
       <use xlink:href="#TimesNewRomanPSMT-30" x="125"/>
       <use xlink:href="#TimesNewRomanPSMT-30" x="175"/>
      </g>
     </g>
    </g>
    <g id="xtick_2">
     <g id="line2d_2">
      <g>
       <use xlink:href="#m7bba78caf4" x="625.877015" y="309.934" style="stroke: #000000; stroke-width: 0.8"/>
      </g>
     </g>
     <g id="text_2">
      <!-- 1,500 -->
      <g transform="translate(614.627015 323.87775) scale(0.1 -0.1)">
       <defs>
        <path id="TimesNewRomanPSMT-35" d="M 2778 4238 
L 2534 3706 
L 1259 3706 
L 981 3138 
Q 1809 3016 2294 2522 
Q 2709 2097 2709 1522 
Q 2709 1188 2573 903 
Q 2438 619 2231 419 
Q 2025 219 1772 97 
Q 1413 -75 1034 -75 
Q 653 -75 479 54 
Q 306 184 306 341 
Q 306 428 378 495 
Q 450 563 559 563 
Q 641 563 702 538 
Q 763 513 909 409 
Q 1144 247 1384 247 
Q 1750 247 2026 523 
Q 2303 800 2303 1197 
Q 2303 1581 2056 1914 
Q 1809 2247 1375 2428 
Q 1034 2569 447 2591 
L 1259 4238 
L 2778 4238 
z
" transform="scale(0.015625)"/>
       </defs>
       <use xlink:href="#TimesNewRomanPSMT-31"/>
       <use xlink:href="#TimesNewRomanPSMT-2c" x="50"/>
       <use xlink:href="#TimesNewRomanPSMT-35" x="75"/>
       <use xlink:href="#TimesNewRomanPSMT-30" x="125"/>
       <use xlink:href="#TimesNewRomanPSMT-30" x="175"/>
      </g>
     </g>
    </g>
    <g id="xtick_3">
     <g id="line2d_3">
      <g>
       <use xlink:href="#m7bba78caf4" x="508.658175" y="309.934" style="stroke: #000000; stroke-width: 0.8"/>
      </g>
     </g>
     <g id="text_3">
      <!-- 2,000 -->
      <g transform="translate(497.408175 323.87775) scale(0.1 -0.1)">
       <defs>
        <path id="TimesNewRomanPSMT-32" d="M 2934 816 
L 2638 0 
L 138 0 
L 138 116 
Q 1241 1122 1691 1759 
Q 2141 2397 2141 2925 
Q 2141 3328 1894 3587 
Q 1647 3847 1303 3847 
Q 991 3847 742 3664 
Q 494 3481 375 3128 
L 259 3128 
Q 338 3706 661 4015 
Q 984 4325 1469 4325 
Q 1984 4325 2329 3994 
Q 2675 3663 2675 3213 
Q 2675 2891 2525 2569 
Q 2294 2063 1775 1497 
Q 997 647 803 472 
L 1909 472 
Q 2247 472 2383 497 
Q 2519 522 2628 598 
Q 2738 675 2819 816 
L 2934 816 
z
" transform="scale(0.015625)"/>
       </defs>
       <use xlink:href="#TimesNewRomanPSMT-32"/>
       <use xlink:href="#TimesNewRomanPSMT-2c" x="50"/>
       <use xlink:href="#TimesNewRomanPSMT-30" x="75"/>
       <use xlink:href="#TimesNewRomanPSMT-30" x="125"/>
       <use xlink:href="#TimesNewRomanPSMT-30" x="175"/>
      </g>
     </g>
    </g>
    <g id="xtick_4">
     <g id="line2d_4">
      <g>
       <use xlink:href="#m7bba78caf4" x="391.439334" y="309.934" style="stroke: #000000; stroke-width: 0.8"/>
      </g>
     </g>
     <g id="text_4">
      <!-- 2,500 -->
      <g transform="translate(380.189334 323.87775) scale(0.1 -0.1)">
       <use xlink:href="#TimesNewRomanPSMT-32"/>
       <use xlink:href="#TimesNewRomanPSMT-2c" x="50"/>
       <use xlink:href="#TimesNewRomanPSMT-35" x="75"/>
       <use xlink:href="#TimesNewRomanPSMT-30" x="125"/>
       <use xlink:href="#TimesNewRomanPSMT-30" x="175"/>
      </g>
     </g>
    </g>
    <g id="xtick_5">
     <g id="line2d_5">
      <g>
       <use xlink:href="#m7bba78caf4" x="274.220494" y="309.934" style="stroke: #000000; stroke-width: 0.8"/>
      </g>
     </g>
     <g id="text_5">
      <!-- 3,000 -->
      <g transform="translate(262.970494 323.87775) scale(0.1 -0.1)">
       <defs>
        <path id="TimesNewRomanPSMT-33" d="M 325 3431 
Q 506 3859 782 4092 
Q 1059 4325 1472 4325 
Q 1981 4325 2253 3994 
Q 2459 3747 2459 3466 
Q 2459 3003 1878 2509 
Q 2269 2356 2469 2072 
Q 2669 1788 2669 1403 
Q 2669 853 2319 450 
Q 1863 -75 997 -75 
Q 569 -75 414 31 
Q 259 138 259 259 
Q 259 350 332 419 
Q 406 488 509 488 
Q 588 488 669 463 
Q 722 447 909 348 
Q 1097 250 1169 231 
Q 1284 197 1416 197 
Q 1734 197 1970 444 
Q 2206 691 2206 1028 
Q 2206 1275 2097 1509 
Q 2016 1684 1919 1775 
Q 1784 1900 1550 2001 
Q 1316 2103 1072 2103 
L 972 2103 
L 972 2197 
Q 1219 2228 1467 2375 
Q 1716 2522 1828 2728 
Q 1941 2934 1941 3181 
Q 1941 3503 1739 3701 
Q 1538 3900 1238 3900 
Q 753 3900 428 3381 
L 325 3431 
z
" transform="scale(0.015625)"/>
       </defs>
       <use xlink:href="#TimesNewRomanPSMT-33"/>
       <use xlink:href="#TimesNewRomanPSMT-2c" x="50"/>
       <use xlink:href="#TimesNewRomanPSMT-30" x="75"/>
       <use xlink:href="#TimesNewRomanPSMT-30" x="125"/>
       <use xlink:href="#TimesNewRomanPSMT-30" x="175"/>
      </g>
     </g>
    </g>
    <g id="xtick_6">
     <g id="line2d_6">
      <g>
       <use xlink:href="#m7bba78caf4" x="157.001653" y="309.934" style="stroke: #000000; stroke-width: 0.8"/>
      </g>
     </g>
     <g id="text_6">
      <!-- 3,500 -->
      <g transform="translate(145.751653 323.87775) scale(0.1 -0.1)">
       <use xlink:href="#TimesNewRomanPSMT-33"/>
       <use xlink:href="#TimesNewRomanPSMT-2c" x="50"/>
       <use xlink:href="#TimesNewRomanPSMT-35" x="75"/>
       <use xlink:href="#TimesNewRomanPSMT-30" x="125"/>
       <use xlink:href="#TimesNewRomanPSMT-30" x="175"/>
      </g>
     </g>
    </g>
    <g id="xtick_7">
     <g id="line2d_7">
      <g>
       <use xlink:href="#m7bba78caf4" x="39.782813" y="309.934" style="stroke: #000000; stroke-width: 0.8"/>
      </g>
     </g>
     <g id="text_7">
      <!-- 4,000 -->
      <g transform="translate(28.532813 323.87775) scale(0.1 -0.1)">
       <defs>
        <path id="TimesNewRomanPSMT-34" d="M 2978 1563 
L 2978 1119 
L 2409 1119 
L 2409 0 
L 1894 0 
L 1894 1119 
L 100 1119 
L 100 1519 
L 2066 4325 
L 2409 4325 
L 2409 1563 
L 2978 1563 
z
M 1894 1563 
L 1894 3666 
L 406 1563 
L 1894 1563 
z
" transform="scale(0.015625)"/>
       </defs>
       <use xlink:href="#TimesNewRomanPSMT-34"/>
       <use xlink:href="#TimesNewRomanPSMT-2c" x="50"/>
       <use xlink:href="#TimesNewRomanPSMT-30" x="75"/>
       <use xlink:href="#TimesNewRomanPSMT-30" x="125"/>
       <use xlink:href="#TimesNewRomanPSMT-30" x="175"/>
      </g>
     </g>
    </g>
    <g id="text_8">
     <!-- Wavenumber (cm$^{-1}$) -->
     <g transform="translate(401.187813 338.916812) scale(0.1 -0.1)">
      <defs>
       <path id="TimesNewRomanPSMT-57" d="M 5991 4238 
L 5991 4122 
Q 5825 4122 5722 4062 
Q 5619 4003 5525 3841 
Q 5463 3731 5328 3319 
L 4147 -97 
L 4022 -97 
L 3056 2613 
L 2097 -97 
L 1984 -97 
L 725 3422 
Q 584 3816 547 3888 
Q 484 4006 376 4064 
Q 269 4122 84 4122 
L 84 4238 
L 1653 4238 
L 1653 4122 
L 1578 4122 
Q 1413 4122 1325 4047 
Q 1238 3972 1238 3866 
Q 1238 3756 1375 3363 
L 2209 984 
L 2913 3006 
L 2788 3363 
L 2688 3647 
Q 2622 3803 2541 3922 
Q 2500 3981 2441 4022 
Q 2363 4078 2284 4103 
Q 2225 4122 2097 4122 
L 2097 4238 
L 3747 4238 
L 3747 4122 
L 3634 4122 
Q 3459 4122 3378 4047 
Q 3297 3972 3297 3844 
Q 3297 3684 3438 3288 
L 4250 984 
L 5056 3319 
Q 5194 3706 5194 3856 
Q 5194 3928 5148 3990 
Q 5103 4053 5034 4078 
Q 4916 4122 4725 4122 
L 4725 4238 
L 5991 4238 
z
" transform="scale(0.015625)"/>
       <path id="TimesNewRomanPSMT-61" d="M 1822 413 
Q 1381 72 1269 19 
Q 1100 -59 909 -59 
Q 613 -59 420 144 
Q 228 347 228 678 
Q 228 888 322 1041 
Q 450 1253 767 1440 
Q 1084 1628 1822 1897 
L 1822 2009 
Q 1822 2438 1686 2597 
Q 1550 2756 1291 2756 
Q 1094 2756 978 2650 
Q 859 2544 859 2406 
L 866 2225 
Q 866 2081 792 2003 
Q 719 1925 600 1925 
Q 484 1925 411 2006 
Q 338 2088 338 2228 
Q 338 2497 613 2722 
Q 888 2947 1384 2947 
Q 1766 2947 2009 2819 
Q 2194 2722 2281 2516 
Q 2338 2381 2338 1966 
L 2338 994 
Q 2338 584 2353 492 
Q 2369 400 2405 369 
Q 2441 338 2488 338 
Q 2538 338 2575 359 
Q 2641 400 2828 588 
L 2828 413 
Q 2478 -56 2159 -56 
Q 2006 -56 1915 50 
Q 1825 156 1822 413 
z
M 1822 616 
L 1822 1706 
Q 1350 1519 1213 1441 
Q 966 1303 859 1153 
Q 753 1003 753 825 
Q 753 600 887 451 
Q 1022 303 1197 303 
Q 1434 303 1822 616 
z
" transform="scale(0.015625)"/>
       <path id="TimesNewRomanPSMT-76" d="M 53 2863 
L 1400 2863 
L 1400 2747 
L 1313 2747 
Q 1191 2747 1127 2687 
Q 1063 2628 1063 2528 
Q 1063 2419 1128 2269 
L 1794 688 
L 2463 2328 
Q 2534 2503 2534 2594 
Q 2534 2638 2509 2666 
Q 2475 2713 2422 2730 
Q 2369 2747 2206 2747 
L 2206 2863 
L 3141 2863 
L 3141 2747 
Q 2978 2734 2916 2681 
Q 2806 2588 2719 2369 
L 1703 -88 
L 1575 -88 
L 553 2328 
Q 484 2497 421 2570 
Q 359 2644 263 2694 
Q 209 2722 53 2747 
L 53 2863 
z
" transform="scale(0.015625)"/>
       <path id="TimesNewRomanPSMT-65" d="M 681 1784 
Q 678 1147 991 784 
Q 1303 422 1725 422 
Q 2006 422 2214 576 
Q 2422 731 2563 1106 
L 2659 1044 
Q 2594 616 2278 264 
Q 1963 -88 1488 -88 
Q 972 -88 605 314 
Q 238 716 238 1394 
Q 238 2128 614 2539 
Q 991 2950 1559 2950 
Q 2041 2950 2350 2633 
Q 2659 2316 2659 1784 
L 681 1784 
z
M 681 1966 
L 2006 1966 
Q 1991 2241 1941 2353 
Q 1863 2528 1708 2628 
Q 1553 2728 1384 2728 
Q 1125 2728 920 2526 
Q 716 2325 681 1966 
z
" transform="scale(0.015625)"/>
       <path id="TimesNewRomanPSMT-6e" d="M 1034 2341 
Q 1538 2947 1994 2947 
Q 2228 2947 2397 2830 
Q 2566 2713 2666 2444 
Q 2734 2256 2734 1869 
L 2734 647 
Q 2734 375 2778 278 
Q 2813 200 2889 156 
Q 2966 113 3172 113 
L 3172 0 
L 1756 0 
L 1756 113 
L 1816 113 
Q 2016 113 2095 173 
Q 2175 234 2206 353 
Q 2219 400 2219 647 
L 2219 1819 
Q 2219 2209 2117 2386 
Q 2016 2563 1775 2563 
Q 1403 2563 1034 2156 
L 1034 647 
Q 1034 356 1069 288 
Q 1113 197 1189 155 
Q 1266 113 1500 113 
L 1500 0 
L 84 0 
L 84 113 
L 147 113 
Q 366 113 442 223 
Q 519 334 519 647 
L 519 1709 
Q 519 2225 495 2337 
Q 472 2450 423 2490 
Q 375 2531 294 2531 
Q 206 2531 84 2484 
L 38 2597 
L 900 2947 
L 1034 2947 
L 1034 2341 
z
" transform="scale(0.015625)"/>
       <path id="TimesNewRomanPSMT-75" d="M 2709 2863 
L 2709 1128 
Q 2709 631 2732 520 
Q 2756 409 2807 365 
Q 2859 322 2928 322 
Q 3025 322 3147 375 
L 3191 266 
L 2334 -88 
L 2194 -88 
L 2194 519 
Q 1825 119 1631 15 
Q 1438 -88 1222 -88 
Q 981 -88 804 51 
Q 628 191 559 409 
Q 491 628 491 1028 
L 491 2306 
Q 491 2509 447 2587 
Q 403 2666 317 2708 
Q 231 2750 6 2747 
L 6 2863 
L 1009 2863 
L 1009 947 
Q 1009 547 1148 422 
Q 1288 297 1484 297 
Q 1619 297 1789 381 
Q 1959 466 2194 703 
L 2194 2325 
Q 2194 2569 2105 2655 
Q 2016 2741 1734 2747 
L 1734 2863 
L 2709 2863 
z
" transform="scale(0.015625)"/>
       <path id="TimesNewRomanPSMT-6d" d="M 1050 2338 
Q 1363 2650 1419 2697 
Q 1559 2816 1721 2881 
Q 1884 2947 2044 2947 
Q 2313 2947 2506 2790 
Q 2700 2634 2766 2338 
Q 3088 2713 3309 2830 
Q 3531 2947 3766 2947 
Q 3994 2947 4170 2830 
Q 4347 2713 4450 2447 
Q 4519 2266 4519 1878 
L 4519 647 
Q 4519 378 4559 278 
Q 4591 209 4675 161 
Q 4759 113 4950 113 
L 4950 0 
L 3538 0 
L 3538 113 
L 3597 113 
Q 3781 113 3884 184 
Q 3956 234 3988 344 
Q 4000 397 4000 647 
L 4000 1878 
Q 4000 2228 3916 2372 
Q 3794 2572 3525 2572 
Q 3359 2572 3192 2489 
Q 3025 2406 2788 2181 
L 2781 2147 
L 2788 2013 
L 2788 647 
Q 2788 353 2820 281 
Q 2853 209 2943 161 
Q 3034 113 3253 113 
L 3253 0 
L 1806 0 
L 1806 113 
Q 2044 113 2133 169 
Q 2222 225 2256 338 
Q 2272 391 2272 647 
L 2272 1878 
Q 2272 2228 2169 2381 
Q 2031 2581 1784 2581 
Q 1616 2581 1450 2491 
Q 1191 2353 1050 2181 
L 1050 647 
Q 1050 366 1089 281 
Q 1128 197 1204 155 
Q 1281 113 1516 113 
L 1516 0 
L 100 0 
L 100 113 
Q 297 113 375 155 
Q 453 197 493 289 
Q 534 381 534 647 
L 534 1741 
Q 534 2213 506 2350 
Q 484 2453 437 2492 
Q 391 2531 309 2531 
Q 222 2531 100 2484 
L 53 2597 
L 916 2947 
L 1050 2947 
L 1050 2338 
z
" transform="scale(0.015625)"/>
       <path id="TimesNewRomanPSMT-62" d="M 984 2369 
Q 1400 2947 1881 2947 
Q 2322 2947 2650 2570 
Q 2978 2194 2978 1541 
Q 2978 778 2472 313 
Q 2038 -88 1503 -88 
Q 1253 -88 995 3 
Q 738 94 469 275 
L 469 3241 
Q 469 3728 445 3840 
Q 422 3953 372 3993 
Q 322 4034 247 4034 
Q 159 4034 28 3984 
L -16 4094 
L 844 4444 
L 984 4444 
L 984 2369 
z
M 984 2169 
L 984 456 
Q 1144 300 1314 220 
Q 1484 141 1663 141 
Q 1947 141 2192 453 
Q 2438 766 2438 1363 
Q 2438 1913 2192 2208 
Q 1947 2503 1634 2503 
Q 1469 2503 1303 2419 
Q 1178 2356 984 2169 
z
" transform="scale(0.015625)"/>
       <path id="TimesNewRomanPSMT-72" d="M 1038 2947 
L 1038 2303 
Q 1397 2947 1775 2947 
Q 1947 2947 2059 2842 
Q 2172 2738 2172 2600 
Q 2172 2478 2090 2393 
Q 2009 2309 1897 2309 
Q 1788 2309 1652 2417 
Q 1516 2525 1450 2525 
Q 1394 2525 1328 2463 
Q 1188 2334 1038 2041 
L 1038 669 
Q 1038 431 1097 309 
Q 1138 225 1241 169 
Q 1344 113 1538 113 
L 1538 0 
L 72 0 
L 72 113 
Q 291 113 397 181 
Q 475 231 506 341 
Q 522 394 522 644 
L 522 1753 
Q 522 2253 501 2348 
Q 481 2444 426 2487 
Q 372 2531 291 2531 
Q 194 2531 72 2484 
L 41 2597 
L 906 2947 
L 1038 2947 
z
" transform="scale(0.015625)"/>
       <path id="TimesNewRomanPSMT-20" transform="scale(0.015625)"/>
       <path id="TimesNewRomanPSMT-28" d="M 1988 -1253 
L 1988 -1369 
Q 1516 -1131 1200 -813 
Q 750 -359 506 256 
Q 263 872 263 1534 
Q 263 2503 741 3301 
Q 1219 4100 1988 4444 
L 1988 4313 
Q 1603 4100 1356 3731 
Q 1109 3363 987 2797 
Q 866 2231 866 1616 
Q 866 947 969 400 
Q 1050 -31 1165 -292 
Q 1281 -553 1476 -793 
Q 1672 -1034 1988 -1253 
z
" transform="scale(0.015625)"/>
       <path id="TimesNewRomanPSMT-63" d="M 2631 1088 
Q 2516 522 2178 217 
Q 1841 -88 1431 -88 
Q 944 -88 581 321 
Q 219 731 219 1428 
Q 219 2103 620 2525 
Q 1022 2947 1584 2947 
Q 2006 2947 2278 2723 
Q 2550 2500 2550 2259 
Q 2550 2141 2473 2067 
Q 2397 1994 2259 1994 
Q 2075 1994 1981 2113 
Q 1928 2178 1911 2362 
Q 1894 2547 1784 2644 
Q 1675 2738 1481 2738 
Q 1169 2738 978 2506 
Q 725 2200 725 1697 
Q 725 1184 976 792 
Q 1228 400 1656 400 
Q 1963 400 2206 609 
Q 2378 753 2541 1131 
L 2631 1088 
z
" transform="scale(0.015625)"/>
       <path id="DejaVuSerif-2212" d="M 678 2259 
L 4684 2259 
L 4684 1753 
L 678 1753 
L 678 2259 
z
" transform="scale(0.015625)"/>
       <path id="DejaVuSerif-31" d="M 909 0 
L 909 331 
L 1722 331 
L 1722 4213 
L 781 3603 
L 781 4013 
L 1919 4750 
L 2350 4750 
L 2350 331 
L 3163 331 
L 3163 0 
L 909 0 
z
" transform="scale(0.015625)"/>
       <path id="TimesNewRomanPSMT-29" d="M 144 4313 
L 144 4444 
Q 619 4209 934 3891 
Q 1381 3434 1625 2820 
Q 1869 2206 1869 1541 
Q 1869 572 1392 -226 
Q 916 -1025 144 -1369 
L 144 -1253 
Q 528 -1038 776 -670 
Q 1025 -303 1145 264 
Q 1266 831 1266 1447 
Q 1266 2113 1163 2663 
Q 1084 3094 967 3353 
Q 850 3613 656 3853 
Q 463 4094 144 4313 
z
" transform="scale(0.015625)"/>
      </defs>
      <use xlink:href="#TimesNewRomanPSMT-57" transform="translate(0 0.7125)"/>
      <use xlink:href="#TimesNewRomanPSMT-61" transform="translate(94.384766 0.7125)"/>
      <use xlink:href="#TimesNewRomanPSMT-76" transform="translate(138.769531 0.7125)"/>
      <use xlink:href="#TimesNewRomanPSMT-65" transform="translate(188.769531 0.7125)"/>
      <use xlink:href="#TimesNewRomanPSMT-6e" transform="translate(233.154297 0.7125)"/>
      <use xlink:href="#TimesNewRomanPSMT-75" transform="translate(283.154297 0.7125)"/>
      <use xlink:href="#TimesNewRomanPSMT-6d" transform="translate(333.154297 0.7125)"/>
      <use xlink:href="#TimesNewRomanPSMT-62" transform="translate(410.9375 0.7125)"/>
      <use xlink:href="#TimesNewRomanPSMT-65" transform="translate(460.9375 0.7125)"/>
      <use xlink:href="#TimesNewRomanPSMT-72" transform="translate(505.322266 0.7125)"/>
      <use xlink:href="#TimesNewRomanPSMT-20" transform="translate(538.623047 0.7125)"/>
      <use xlink:href="#TimesNewRomanPSMT-28" transform="translate(563.623047 0.7125)"/>
      <use xlink:href="#TimesNewRomanPSMT-63" transform="translate(596.923828 0.7125)"/>
      <use xlink:href="#TimesNewRomanPSMT-6d" transform="translate(641.308594 0.7125)"/>
      <use xlink:href="#DejaVuSerif-2212" transform="translate(720.000156 37.046875) scale(0.7)"/>
      <use xlink:href="#DejaVuSerif-31" transform="translate(778.6525 37.046875) scale(0.7)"/>
      <use xlink:href="#TimesNewRomanPSMT-29" transform="translate(825.783945 0.7125)"/>
     </g>
    </g>
   </g>
   <g id="matplotlib.axis_2">
    <g id="ytick_1">
     <g id="line2d_8">
      <path d="M 39.782813 295.737244 
L 848.592813 295.737244 
" clip-path="url(#pa7a8cac8d6)" style="fill: none; stroke: #b0b0b0; stroke-opacity: 0.3; stroke-width: 0.8; stroke-linecap: square"/>
     </g>
     <g id="line2d_9">
      <defs>
       <path id="mbbb2568450" d="M 0 0 
L -3.5 0 
" style="stroke: #000000; stroke-width: 0.8"/>
      </defs>
      <g>
       <use xlink:href="#mbbb2568450" x="39.782813" y="295.737244" style="stroke: #000000; stroke-width: 0.8"/>
      </g>
     </g>
     <g id="text_9">
      <!-- 0.0 -->
      <g transform="translate(20.282813 299.209119) scale(0.1 -0.1)">
       <defs>
        <path id="TimesNewRomanPSMT-2e" d="M 800 606 
Q 947 606 1047 504 
Q 1147 403 1147 259 
Q 1147 116 1045 14 
Q 944 -88 800 -88 
Q 656 -88 554 14 
Q 453 116 453 259 
Q 453 406 554 506 
Q 656 606 800 606 
z
" transform="scale(0.015625)"/>
       </defs>
       <use xlink:href="#TimesNewRomanPSMT-30"/>
       <use xlink:href="#TimesNewRomanPSMT-2e" x="50"/>
       <use xlink:href="#TimesNewRomanPSMT-30" x="75"/>
      </g>
     </g>
    </g>
    <g id="ytick_2">
     <g id="line2d_10">
      <path d="M 39.782813 235.572577 
L 848.592813 235.572577 
" clip-path="url(#pa7a8cac8d6)" style="fill: none; stroke: #b0b0b0; stroke-opacity: 0.3; stroke-width: 0.8; stroke-linecap: square"/>
     </g>
     <g id="line2d_11">
      <g>
       <use xlink:href="#mbbb2568450" x="39.782813" y="235.572577" style="stroke: #000000; stroke-width: 0.8"/>
      </g>
     </g>
     <g id="text_10">
      <!-- 0.1 -->
      <g transform="translate(20.282813 239.044452) scale(0.1 -0.1)">
       <use xlink:href="#TimesNewRomanPSMT-30"/>
       <use xlink:href="#TimesNewRomanPSMT-2e" x="50"/>
       <use xlink:href="#TimesNewRomanPSMT-31" x="75"/>
      </g>
     </g>
    </g>
    <g id="ytick_3">
     <g id="line2d_12">
      <path d="M 39.782813 175.40791 
L 848.592813 175.40791 
" clip-path="url(#pa7a8cac8d6)" style="fill: none; stroke: #b0b0b0; stroke-opacity: 0.3; stroke-width: 0.8; stroke-linecap: square"/>
     </g>
     <g id="line2d_13">
      <g>
       <use xlink:href="#mbbb2568450" x="39.782813" y="175.40791" style="stroke: #000000; stroke-width: 0.8"/>
      </g>
     </g>
     <g id="text_11">
      <!-- 0.2 -->
      <g transform="translate(20.282813 178.879785) scale(0.1 -0.1)">
       <use xlink:href="#TimesNewRomanPSMT-30"/>
       <use xlink:href="#TimesNewRomanPSMT-2e" x="50"/>
       <use xlink:href="#TimesNewRomanPSMT-32" x="75"/>
      </g>
     </g>
    </g>
    <g id="ytick_4">
     <g id="line2d_14">
      <path d="M 39.782813 115.243243 
L 848.592813 115.243243 
" clip-path="url(#pa7a8cac8d6)" style="fill: none; stroke: #b0b0b0; stroke-opacity: 0.3; stroke-width: 0.8; stroke-linecap: square"/>
     </g>
     <g id="line2d_15">
      <g>
       <use xlink:href="#mbbb2568450" x="39.782813" y="115.243243" style="stroke: #000000; stroke-width: 0.8"/>
      </g>
     </g>
     <g id="text_12">
      <!-- 0.3 -->
      <g transform="translate(20.282813 118.715118) scale(0.1 -0.1)">
       <use xlink:href="#TimesNewRomanPSMT-30"/>
       <use xlink:href="#TimesNewRomanPSMT-2e" x="50"/>
       <use xlink:href="#TimesNewRomanPSMT-33" x="75"/>
      </g>
     </g>
    </g>
    <g id="ytick_5">
     <g id="line2d_16">
      <path d="M 39.782813 55.078575 
L 848.592813 55.078575 
" clip-path="url(#pa7a8cac8d6)" style="fill: none; stroke: #b0b0b0; stroke-opacity: 0.3; stroke-width: 0.8; stroke-linecap: square"/>
     </g>
     <g id="line2d_17">
      <g>
       <use xlink:href="#mbbb2568450" x="39.782813" y="55.078575" style="stroke: #000000; stroke-width: 0.8"/>
      </g>
     </g>
     <g id="text_13">
      <!-- 0.4 -->
      <g transform="translate(20.282813 58.55045) scale(0.1 -0.1)">
       <use xlink:href="#TimesNewRomanPSMT-30"/>
       <use xlink:href="#TimesNewRomanPSMT-2e" x="50"/>
       <use xlink:href="#TimesNewRomanPSMT-34" x="75"/>
      </g>
     </g>
    </g>
    <g id="text_14">
     <!-- Absorbance -->
     <g transform="translate(14.14375 189.602469) rotate(-90) scale(0.1 -0.1)">
      <defs>
       <path id="TimesNewRomanPSMT-41" d="M 2928 1419 
L 1288 1419 
L 1000 750 
Q 894 503 894 381 
Q 894 284 986 211 
Q 1078 138 1384 116 
L 1384 0 
L 50 0 
L 50 116 
Q 316 163 394 238 
Q 553 388 747 847 
L 2238 4334 
L 2347 4334 
L 3822 809 
Q 4000 384 4145 257 
Q 4291 131 4550 116 
L 4550 0 
L 2878 0 
L 2878 116 
Q 3131 128 3220 200 
Q 3309 272 3309 375 
Q 3309 513 3184 809 
L 2928 1419 
z
M 2841 1650 
L 2122 3363 
L 1384 1650 
L 2841 1650 
z
" transform="scale(0.015625)"/>
       <path id="TimesNewRomanPSMT-73" d="M 2050 2947 
L 2050 1972 
L 1947 1972 
Q 1828 2431 1642 2597 
Q 1456 2763 1169 2763 
Q 950 2763 815 2647 
Q 681 2531 681 2391 
Q 681 2216 781 2091 
Q 878 1963 1175 1819 
L 1631 1597 
Q 2266 1288 2266 781 
Q 2266 391 1970 151 
Q 1675 -88 1309 -88 
Q 1047 -88 709 6 
Q 606 38 541 38 
Q 469 38 428 -44 
L 325 -44 
L 325 978 
L 428 978 
Q 516 541 762 319 
Q 1009 97 1316 97 
Q 1531 97 1667 223 
Q 1803 350 1803 528 
Q 1803 744 1651 891 
Q 1500 1038 1047 1263 
Q 594 1488 453 1669 
Q 313 1847 313 2119 
Q 313 2472 555 2709 
Q 797 2947 1181 2947 
Q 1350 2947 1591 2875 
Q 1750 2828 1803 2828 
Q 1853 2828 1881 2850 
Q 1909 2872 1947 2947 
L 2050 2947 
z
" transform="scale(0.015625)"/>
       <path id="TimesNewRomanPSMT-6f" d="M 1600 2947 
Q 2250 2947 2644 2453 
Q 2978 2031 2978 1484 
Q 2978 1100 2793 706 
Q 2609 313 2286 112 
Q 1963 -88 1566 -88 
Q 919 -88 538 428 
Q 216 863 216 1403 
Q 216 1797 411 2186 
Q 606 2575 925 2761 
Q 1244 2947 1600 2947 
z
M 1503 2744 
Q 1338 2744 1170 2645 
Q 1003 2547 900 2300 
Q 797 2053 797 1666 
Q 797 1041 1045 587 
Q 1294 134 1700 134 
Q 2003 134 2200 384 
Q 2397 634 2397 1244 
Q 2397 2006 2069 2444 
Q 1847 2744 1503 2744 
z
" transform="scale(0.015625)"/>
      </defs>
      <use xlink:href="#TimesNewRomanPSMT-41"/>
      <use xlink:href="#TimesNewRomanPSMT-62" x="72.216797"/>
      <use xlink:href="#TimesNewRomanPSMT-73" x="122.216797"/>
      <use xlink:href="#TimesNewRomanPSMT-6f" x="161.132812"/>
      <use xlink:href="#TimesNewRomanPSMT-72" x="211.132812"/>
      <use xlink:href="#TimesNewRomanPSMT-62" x="244.433594"/>
      <use xlink:href="#TimesNewRomanPSMT-61" x="294.433594"/>
      <use xlink:href="#TimesNewRomanPSMT-6e" x="338.818359"/>
      <use xlink:href="#TimesNewRomanPSMT-63" x="388.818359"/>
      <use xlink:href="#TimesNewRomanPSMT-65" x="433.203125"/>
     </g>
    </g>
   </g>
   <g id="line2d_18">
    <path d="M 848.570494 121.293401 
L 848.344449 122.533395 
L 848.118404 121.833079 
L 847.892336 123.571837 
L 847.553269 130.696537 
L 847.214178 136.281022 
L 846.083931 148.404202 
L 845.970908 148.903569 
L 845.29275 155.036153 
L 845.179705 155.275609 
L 844.840637 155.145653 
L 844.501547 155.950055 
L 844.275502 156.424754 
L 843.936435 158.347617 
L 843.710366 158.982956 
L 843.597344 159.116521 
L 843.484322 158.525103 
L 842.806164 151.265032 
L 842.354051 153.020637 
L 842.128006 150.999706 
L 841.675893 146.208192 
L 841.336826 145.716646 
L 841.110757 144.343689 
L 840.884713 143.015253 
L 840.77169 143.20778 
L 840.545645 145.986786 
L 840.093532 153.724564 
L 839.754442 156.44521 
L 839.18933 162.0682 
L 838.737216 164.575261 
L 838.398126 166.483083 
L 838.059059 167.791665 
L 837.380901 171.872634 
L 837.154856 172.501355 
L 836.815765 175.193122 
L 835.79854 183.71665 
L 835.007336 188.102655 
L 834.668269 189.762598 
L 834.442224 190.299868 
L 834.103134 192.060286 
L 833.764067 193.371274 
L 833.424976 194.046924 
L 832.972863 195.247209 
L 832.746818 195.587139 
L 832.520773 196.607532 
L 831.955638 200.030902 
L 831.616547 201.601199 
L 831.164457 203.613106 
L 831.051435 203.657026 
L 830.599322 203.367634 
L 830.373277 203.569787 
L 830.034186 204.293568 
L 829.582073 205.750155 
L 829.469051 205.821751 
L 829.243006 205.420452 
L 828.677871 203.504809 
L 828.338803 201.137931 
L 827.773668 196.938438 
L 827.434577 195.431313 
L 827.208533 195.206297 
L 826.982488 195.968583 
L 826.530375 199.280046 
L 825.061036 211.764817 
L 824.721946 213.389263 
L 824.043788 215.218268 
L 823.591698 215.795849 
L 823.139585 216.253702 
L 822.91354 216.123747 
L 821.896292 214.6816 
L 821.444179 213.447622 
L 821.105112 211.613803 
L 820.766021 209.799839 
L 820.313931 208.463581 
L 819.861818 205.668932 
L 819.070638 199.462345 
L 818.505502 195.52156 
L 818.166435 194.25028 
L 818.053389 194.146195 
L 817.827345 194.389862 
L 817.488277 195.284511 
L 817.149187 196.871053 
L 816.131962 204.578147 
L 815.453804 209.048983 
L 814.775646 212.026533 
L 814.323533 213.946989 
L 813.758397 217.624855 
L 813.080239 223.944552 
L 812.063014 232.907282 
L 811.610901 235.023875 
L 811.158788 236.256649 
L 810.706699 236.964787 
L 810.48063 237.068872 
L 810.254586 236.934103 
L 809.915495 236.372767 
L 809.237337 234.62739 
L 808.559179 233.098606 
L 807.994067 231.76656 
L 807.089841 228.752912 
L 806.072616 225.378877 
L 805.846548 225.283817 
L 805.620503 225.739865 
L 805.394458 226.994299 
L 805.055367 230.516338 
L 803.812074 245.929925 
L 803.359984 248.382236 
L 802.794849 250.311717 
L 802.003669 252.235182 
L 800.873398 254.970267 
L 799.177991 259.487431 
L 798.047744 261.970426 
L 796.80445 264.500952 
L 796.126292 265.535785 
L 794.317864 267.639743 
L 792.170368 269.704594 
L 791.266165 270.348958 
L 790.022872 271.286925 
L 789.344714 271.38379 
L 788.440511 271.501713 
L 787.875375 271.625652 
L 787.31024 271.390408 
L 786.51906 270.90127 
L 785.049722 269.394746 
L 784.145495 268.104214 
L 783.354315 266.441263 
L 782.563135 264.268115 
L 781.997999 262.184613 
L 781.319841 258.812985 
L 780.867728 255.54845 
L 780.415639 250.892908 
L 779.963526 244.017891 
L 779.511413 233.112444 
L 778.381165 199.459337 
L 778.268143 199.819724 
L 778.042074 203.863391 
L 776.798781 237.808296 
L 776.572736 238.835307 
L 776.459714 238.709563 
L 776.233669 237.284863 
L 775.894578 232.334515 
L 775.442465 220.676407 
L 774.312218 186.48964 
L 774.199195 186.539577 
L 773.973127 189.973776 
L 773.63406 201.963391 
L 772.729834 238.788379 
L 772.277744 249.317797 
L 771.825631 255.372769 
L 771.373518 258.813586 
L 771.034451 260.208805 
L 770.69536 260.779166 
L 770.469315 260.776158 
L 770.130248 260.379673 
L 769.791158 259.575271 
L 769.339044 257.716183 
L 768.886955 254.988918 
L 768.434842 250.981952 
L 767.869706 243.695409 
L 767.304571 233.02701 
L 766.739459 217.756014 
L 766.287346 199.664499 
L 765.835233 173.296732 
L 764.704985 95.769745 
L 764.591939 94.348054 
L 764.478917 95.221645 
L 764.252872 102.902266 
L 763.235624 151.425672 
L 762.557466 166.816395 
L 762.218398 170.123045 
L 761.766285 171.088087 
L 761.540241 174.087295 
L 761.20115 185.105251 
L 760.070902 234.372894 
L 759.618789 242.779703 
L 759.279722 245.329481 
L 759.053654 245.765073 
L 758.940631 245.642337 
L 758.714587 244.739266 
L 758.375496 241.892875 
L 757.923406 235.365009 
L 757.471293 224.89756 
L 756.793135 207.427546 
L 756.567091 205.556425 
L 756.454045 206.08467 
L 756.228 210.077799 
L 755.775887 225.496199 
L 755.210775 244.044965 
L 754.758662 252.62565 
L 754.306549 256.888317 
L 753.967481 258.41289 
L 753.628391 259.074099 
L 753.402346 259.171566 
L 753.176301 259.06688 
L 752.837211 258.607823 
L 752.498143 257.784169 
L 752.04603 256.08572 
L 751.480895 252.911432 
L 750.915759 248.010419 
L 750.350624 240.698607 
L 749.785512 230.422482 
L 749.220376 215.701391 
L 748.655241 194.902465 
L 748.090105 165.954837 
L 747.298925 111.80784 
L 746.281677 45.262108 
L 745.942609 35.077433 
L 745.829587 34.620182 
L 745.716541 35.995546 
L 745.490496 44.329556 
L 745.151429 68.007962 
L 744.247203 140.328299 
L 743.908136 153.352144 
L 743.682067 156.764684 
L 743.569045 157.003538 
L 743.456023 156.344735 
L 743.229978 152.731847 
L 742.664725 136.97111 
L 742.325728 129.309742 
L 742.09973 127.908507 
L 741.986731 128.610628 
L 741.760733 132.368513 
L 741.082505 146.874816 
L 740.856507 148.211074 
L 740.743508 148.018547 
L 740.178279 145.142676 
L 740.06528 145.538559 
L 739.839282 148.108192 
L 739.500051 156.513798 
L 738.935056 179.40886 
L 738.256828 203.882042 
L 737.917831 209.577831 
L 737.691599 210.680649 
L 737.5786 210.536254 
L 737.352602 209.029731 
L 737.013605 204.014404 
L 736.561374 192.80693 
L 736.109379 176.034826 
L 735.544149 145.472378 
L 734.752922 98.971107 
L 734.526924 93.410086 
L 734.300926 92.10692 
L 734.074928 93.067148 
L 733.735697 94.61338 
L 733.622698 94.625413 
L 733.3967 93.840865 
L 733.057703 91.236337 
L 732.718472 85.884088 
L 731.814246 65.10983 
L 731.475249 63.082281 
L 731.36225 63.057012 
L 731.249251 63.433041 
L 731.023253 65.544821 
L 730.684022 72.24175 
L 730.232026 88.096343 
L 729.553798 112.742799 
L 729.3278 116.190836 
L 729.214801 116.624022 
L 729.101567 116.147517 
L 728.87557 112.591786 
L 728.423574 98.908535 
L 727.971343 86.003816 
L 727.745345 83.475095 
L 727.632347 83.839693 
L 727.406349 88.064456 
L 727.067117 101.38732 
L 725.597896 169.750626 
L 725.032667 184.144421 
L 724.015442 203.188343 
L 723.224215 214.655127 
L 721.528996 236.4943 
L 721.302998 237.110386 
L 721.189765 237.071881 
L 720.963767 236.34088 
L 720.62477 233.868112 
L 720.17254 228.551962 
L 719.720544 219.976692 
L 718.929316 202.728084 
L 718.703319 201.122289 
L 718.59032 201.299774 
L 718.364087 203.424189 
L 717.573095 214.523367 
L 717.460096 214.849459 
L 717.346862 214.644298 
L 717.120864 212.693759 
L 716.668868 204.878369 
L 716.216638 198.140528 
L 715.99064 197.186918 
L 715.877641 197.468488 
L 715.651643 199.28125 
L 714.973415 206.342175 
L 714.747417 207.153195 
L 714.634418 207.19892 
L 714.408186 206.759718 
L 713.730192 204.879572 
L 713.390961 204.567317 
L 713.277962 204.640117 
L 713.051964 205.274252 
L 712.712967 207.717539 
L 712.260737 213.333309 
L 711.469509 223.187079 
L 710.791516 230.755794 
L 710.339285 238.669252 
L 709.209061 260.05719 
L 708.643832 265.872105 
L 708.078837 269.226887 
L 707.626607 270.767102 
L 707.28761 271.364538 
L 707.061612 271.487274 
L 706.835614 271.336862 
L 706.609382 270.82847 
L 706.270385 269.248546 
L 705.366159 263.982935 
L 705.25316 263.945632 
L 705.027162 264.484106 
L 704.235935 267.816026 
L 704.122936 267.885215 
L 703.896938 267.599433 
L 703.21871 265.882333 
L 703.105711 265.930465 
L 702.879478 266.530908 
L 702.540482 268.563271 
L 701.071261 279.646806 
L 700.61903 281.009535 
L 700.167034 281.63585 
L 699.827803 281.787465 
L 699.375807 281.705641 
L 698.58458 281.244178 
L 698.132584 280.76647 
L 697.680354 279.95545 
L 697.002126 278.115013 
L 696.324132 275.518908 
L 695.645904 272.120206 
L 695.193673 268.773847 
L 694.51568 263.102124 
L 694.289682 262.649686 
L 694.176448 262.918622 
L 693.95045 264.3722 
L 692.820226 274.479864 
L 692.481229 275.619383 
L 692.141998 276.024291 
L 691.916 275.977964 
L 691.690002 275.704817 
L 691.351005 274.90222 
L 690.898775 273.144208 
L 690.446779 270.455449 
L 689.88155 265.513524 
L 688.638327 253.34883 
L 688.186097 251.532458 
L 687.734101 250.527107 
L 687.508103 250.37128 
L 687.281871 250.53914 
L 687.055873 251.0728 
L 686.716876 252.58173 
L 686.264646 255.921471 
L 685.699651 262.361497 
L 684.908424 271.265266 
L 684.456193 274.39804 
L 684.004197 276.239681 
L 683.552202 277.162005 
L 683.21297 277.432144 
L 682.873973 277.435153 
L 682.534742 277.202315 
L 682.082746 276.540504 
L 681.630516 275.484012 
L 680.726524 272.548578 
L 679.14407 266.72524 
L 678.578841 264.243448 
L 677.900847 260.859787 
L 677.674614 260.69674 
L 677.448617 261.3032 
L 676.996621 263.970902 
L 675.866397 270.93797 
L 675.301167 273.658616 
L 674.848937 274.863715 
L 674.50994 275.168148 
L 674.283942 275.090535 
L 673.944945 274.592372 
L 673.605714 273.646583 
L 673.153718 271.673784 
L 672.136493 266.898514 
L 671.797262 266.331763 
L 671.345266 266.12239 
L 671.006269 265.896773 
L 670.667038 265.402821 
L 670.328041 264.536449 
L 669.875811 262.601554 
L 669.084818 257.86479 
L 668.293591 251.818842 
L 667.728361 247.296866 
L 667.502363 246.571882 
L 667.389364 246.620615 
L 667.163367 247.586258 
L 666.711136 251.664219 
L 666.146141 255.941927 
L 665.693911 257.831699 
L 665.241915 258.874954 
L 665.015683 259.057253 
L 664.789685 258.862921 
L 664.563687 258.138539 
L 664.22469 255.858298 
L 663.77246 250.409184 
L 662.981233 239.679417 
L 662.755235 238.517036 
L 662.529237 238.261938 
L 662.303239 238.63195 
L 661.964008 239.761241 
L 661.625011 241.618524 
L 661.17278 245.85893 
L 660.042556 257.790787 
L 659.70356 259.556018 
L 659.364563 260.244904 
L 659.251329 260.235277 
L 659.025331 259.881509 
L 658.686334 258.5627 
L 658.234104 255.396233 
L 657.669109 251.619095 
L 657.443111 251.090248 
L 657.329878 251.077012 
L 657.10388 251.539076 
L 656.312653 254.220014 
L 656.086655 254.312066 
L 655.634659 254.339742 
L 655.408427 254.668842 
L 655.06943 255.882364 
L 654.052205 260.690724 
L 653.826207 260.764727 
L 653.600209 260.338159 
L 652.808982 258.208931 
L 652.695983 258.182459 
L 652.46975 258.518779 
L 652.017755 260.14503 
L 651.00053 263.704372 
L 650.4353 265.125462 
L 650.209302 265.336038 
L 649.983304 265.317989 
L 649.757306 265.125462 
L 649.531074 264.713935 
L 649.192077 263.587653 
L 648.740081 261.3032 
L 648.174852 256.990597 
L 647.609623 253.298893 
L 647.270626 252.502914 
L 647.157627 252.508329 
L 646.931629 252.868114 
L 646.027403 255.19047 
L 645.801405 255.198893 
L 645.575173 254.867987 
L 645.236176 253.851205 
L 644.897179 252.057696 
L 644.33195 248.905669 
L 643.879954 247.52489 
L 643.540722 246.989424 
L 642.749495 246.602565 
L 642.523497 246.686796 
L 642.184501 247.178341 
L 641.73227 248.414725 
L 640.602046 251.966847 
L 640.15005 252.736353 
L 639.810819 253.515486 
L 639.132825 255.967196 
L 638.341598 259.787652 
L 637.776369 262.469793 
L 637.437372 263.019698 
L 637.211374 263.050382 
L 636.985142 262.832586 
L 636.759144 262.301332 
L 636.420147 260.794207 
L 636.08115 257.979102 
L 635.62892 254.152028 
L 635.402922 253.661686 
L 635.289923 253.763966 
L 635.06369 254.431192 
L 634.498696 257.192149 
L 633.255473 264.382428 
L 632.916241 265.562257 
L 632.690243 265.915424 
L 632.464245 265.875113 
L 631.899016 264.97144 
L 631.786017 265.05928 
L 631.560019 265.774638 
L 631.220788 267.980275 
L 629.638568 280.135343 
L 629.073339 282.245919 
L 628.395345 284.108016 
L 627.717117 285.182557 
L 626.812891 286.097661 
L 626.134662 286.760074 
L 625.682667 287.016977 
L 624.77844 287.315394 
L 624.552443 287.495888 
L 623.987213 288.140252 
L 622.29176 288.130024 
L 620.25731 288.371886 
L 618.788089 287.534394 
L 618.22286 286.821442 
L 617.544631 285.656053 
L 616.979637 284.788478 
L 616.414407 284.302348 
L 616.188409 284.327617 
L 615.736414 284.733728 
L 613.814962 286.931544 
L 612.232508 287.823786 
L 611.893511 288.104153 
L 611.55428 287.908618 
L 610.763053 287.370746 
L 609.858826 286.836483 
L 609.293832 286.333507 
L 608.389605 285.519479 
L 608.163608 285.477364 
L 607.598378 285.781797 
L 607.146382 286.185502 
L 605.563928 288.305705 
L 604.8857 288.927206 
L 603.190481 289.68889 
L 602.399254 289.913906 
L 600.251805 290.388605 
L 599.686575 290.383792 
L 594.261219 290.809758 
L 593.809223 291.13946 
L 593.470226 291.115996 
L 592.566 290.923469 
L 590.192318 291.047408 
L 589.853321 291.460138 
L 589.627323 291.402982 
L 589.175093 291.131639 
L 587.818871 291.111183 
L 587.027644 291.39155 
L 586.236417 291.450512 
L 585.558189 291.569036 
L 584.088968 291.61416 
L 582.845745 291.712228 
L 582.393514 291.94326 
L 580.020067 291.889112 
L 579.680836 292.004027 
L 579.115841 292.026889 
L 578.77661 292.190537 
L 578.437613 292.05998 
L 577.985617 291.925211 
L 577.081391 291.934236 
L 576.177165 291.756148 
L 575.15994 291.944464 
L 574.59471 292.205578 
L 573.690484 292.04193 
L 573.238488 292.078631 
L 572.447261 291.872266 
L 571.204038 292.047947 
L 570.751808 292.328916 
L 569.508585 292.121348 
L 568.717358 291.933634 
L 568.03913 292.145414 
L 567.587134 292.156243 
L 567.134903 292.170081 
L 566.569909 292.277174 
L 565.778681 292.274768 
L 565.326451 292.231449 
L 564.874455 292.161658 
L 563.744231 292.426984 
L 562.840005 292.289207 
L 562.274776 292.423976 
L 561.709781 292.624926 
L 560.692556 292.526256 
L 559.336099 292.34877 
L 558.544872 292.371031 
L 557.979877 292.402918 
L 556.962652 292.572583 
L 556.284424 292.548517 
L 555.267199 292.668846 
L 551.537296 293.340284 
L 550.407072 292.602665 
L 549.955076 292.596047 
L 548.598619 292.798802 
L 547.581394 292.867991 
L 547.129398 292.881829 
L 546.45117 292.680879 
L 543.399495 292.790379 
L 542.834266 292.67005 
L 541.704041 292.756085 
L 541.025813 292.738036 
L 540.347819 292.837909 
L 538.313369 292.680879 
L 537.635141 292.780753 
L 537.069912 292.975686 
L 535.826689 292.825274 
L 535.035462 292.748264 
L 534.244234 292.815648 
L 532.888012 292.762703 
L 530.740563 292.611088 
L 529.723338 292.738036 
L 528.593114 292.74345 
L 526.897661 292.874609 
L 526.332432 293.174229 
L 525.541204 293.06834 
L 524.97621 293.368561 
L 524.41098 293.239809 
L 523.280756 292.973881 
L 521.359305 293.378789 
L 521.020308 293.267485 
L 520.681077 293.118276 
L 520.455079 293.201304 
L 519.890084 293.587561 
L 519.211856 293.541234 
L 518.420629 293.977428 
L 518.081632 293.827016 
L 517.516403 293.571918 
L 517.064407 293.650734 
L 516.499178 293.861912 
L 516.27318 293.699467 
L 515.481952 292.774134 
L 515.142956 292.968466 
L 514.803724 293.130911 
L 514.577726 292.984109 
L 514.238729 292.365015 
L 513.221504 290.095002 
L 512.995272 290.161785 
L 512.09128 290.922868 
L 510.960822 291.526319 
L 510.621825 291.582272 
L 509.943597 291.836769 
L 509.378602 291.951683 
L 507.909146 292.831893 
L 507.457151 293.11948 
L 507.230918 292.954027 
L 506.326927 291.786832 
L 506.100694 291.930024 
L 505.535699 292.533476 
L 505.196468 292.288606 
L 504.857471 292.146617 
L 503.614248 292.439017 
L 503.275017 292.346364 
L 502.823021 292.229043 
L 502.371025 292.26454 
L 501.579798 292.044337 
L 501.240567 292.070809 
L 501.014569 291.866851 
L 500.675572 291.104565 
L 500.223341 290.036642 
L 499.997344 289.921126 
L 499.771346 290.10162 
L 499.319115 290.54744 
L 497.962893 290.832621 
L 497.623896 290.636484 
L 497.171666 289.968656 
L 496.945668 289.717168 
L 496.71967 289.78756 
L 496.380439 290.439745 
L 495.928443 291.171348 
L 495.476213 291.280246 
L 494.345989 291.513083 
L 493.215765 291.10276 
L 490.616085 291.075084 
L 489.825093 291.060645 
L 488.807633 291.339809 
L 487.112414 292.483539 
L 486.773183 292.495572 
L 486.321187 292.219416 
L 485.868957 291.96853 
L 482.591283 291.406592 
L 481.800056 291.493229 
L 481.34806 291.809093 
L 479.991604 293.14535 
L 477.844155 295.210202 
L 477.618157 295.263147 
L 477.27916 295.05257 
L 476.374934 294.343831 
L 476.035703 294.179581 
L 475.583707 294.284268 
L 474.340249 294.686769 
L 473.662256 294.56644 
L 473.323259 294.9539 
L 472.079801 296.823818 
L 471.966802 296.737783 
L 471.740804 296.036263 
L 471.401807 293.732558 
L 470.836578 289.963843 
L 470.497581 289.235249 
L 470.271349 289.264729 
L 468.802128 290.868719 
L 468.349898 291.492627 
L 468.010901 291.622583 
L 467.332673 291.561816 
L 466.880677 291.587086 
L 466.315447 291.739904 
L 465.976451 291.378916 
L 465.52422 290.896395 
L 464.846227 290.70447 
L 464.506995 290.508333 
L 464.167998 290.567294 
L 463.602769 290.675591 
L 462.698543 290.838637 
L 462.246547 290.951145 
L 461.45532 290.915648 
L 460.890325 290.994464 
L 460.325096 290.892785 
L 459.646868 290.640094 
L 459.081873 290.817579 
L 457.951649 291.273026 
L 456.934424 291.049213 
L 456.369194 290.854882 
L 455.23897 290.989049 
L 454.78674 290.880752 
L 454.221745 290.637687 
L 453.769515 290.735756 
L 453.20452 290.871728 
L 452.75229 290.56188 
L 452.413293 290.478251 
L 451.622066 290.874134 
L 451.17007 290.997472 
L 450.604841 290.805547 
L 450.152845 290.805547 
L 449.248619 291.007098 
L 448.796388 290.788099 
L 448.005161 290.342279 
L 446.761938 290.549245 
L 445.970711 290.496902 
L 445.292717 290.438542 
L 443.597264 289.872994 
L 442.240808 289.531861 
L 441.449815 289.208776 
L 440.884586 289.38927 
L 439.86736 289.673247 
L 437.83291 290.074546 
L 435.79846 289.926541 
L 434.894234 289.987909 
L 434.329005 289.866978 
L 432.633786 289.105895 
L 432.294554 289.344748 
L 430.938333 290.756211 
L 430.486102 290.702063 
L 429.694875 290.573913 
L 429.12988 290.693039 
L 428.338653 290.973406 
L 427.773424 291.041392 
L 427.208429 291.257383 
L 426.530201 291.353647 
L 425.852207 291.463748 
L 424.156754 291.419226 
L 423.591524 291.273026 
L 423.139529 291.446902 
L 422.4613 291.387339 
L 421.557074 291.596712 
L 420.878846 291.398168 
L 420.313851 291.280847 
L 419.748622 291.464951 
L 418.957395 291.558207 
L 418.279401 291.587687 
L 417.488174 291.507668 
L 416.131717 291.547979 
L 415.114492 291.546775 
L 414.436499 291.496839 
L 412.175816 291.213463 
L 411.384823 291.236326 
L 408.559146 290.818181 
L 406.072465 290.406053 
L 404.942241 290.143134 
L 403.812017 290.025812 
L 403.246788 289.90067 
L 402.116564 289.933159 
L 401.438336 289.910898 
L 400.760342 289.957826 
L 398.95189 289.79117 
L 396.013213 289.78395 
L 395.334985 289.75808 
L 394.543758 289.665426 
L 393.074537 289.691899 
L 391.944313 289.602253 
L 390.926853 289.570366 
L 389.570631 289.510201 
L 386.631955 289.473501 
L 386.066726 289.379644 
L 385.388732 289.327301 
L 384.823503 289.306845 
L 383.806278 289.311056 
L 382.789053 289.086642 
L 382.110824 289.166059 
L 380.867601 288.84839 
L 379.059149 288.671506 
L 378.381155 288.781005 
L 376.685702 288.584869 
L 375.781476 288.633 
L 374.764251 288.604723 
L 374.199022 288.542753 
L 373.181797 288.211848 
L 370.017122 288.243133 
L 367.304444 287.927269 
L 366.626216 287.808744 
L 365.156995 287.448358 
L 364.365768 287.33946 
L 363.687539 287.211309 
L 361.879087 286.786547 
L 359.50564 286.43699 
L 355.775736 286.452633 
L 354.306515 286.852728 
L 352.611062 287.411658 
L 351.367839 287.643893 
L 348.542162 287.454375 
L 347.072706 287.263051 
L 344.925257 286.870176 
L 343.455802 286.5501 
L 342.777808 286.402095 
L 342.09958 286.28718 
L 341.082355 286.099466 
L 339.4999 285.808871 
L 338.821907 285.771569 
L 337.239452 286.09706 
L 334.639773 286.644558 
L 333.170552 286.52844 
L 330.683871 286.263716 
L 329.327649 286.152411 
L 328.76242 286.098865 
L 327.971193 285.920777 
L 326.954202 285.808871 
L 325.823744 285.577237 
L 322.546071 284.981607 
L 321.754843 284.78908 
L 319.155164 284.264444 
L 317.233713 283.683253 
L 314.973265 282.83794 
L 314.182037 282.549751 
L 312.938814 282.014285 
L 311.695591 280.830245 
L 311.243361 280.209345 
L 310.791365 279.0602 
L 310.113137 276.399719 
L 309.661141 275.105577 
L 309.434909 275.036989 
L 309.208911 275.357667 
L 308.756915 276.675273 
L 307.965688 278.945887 
L 307.513458 279.559567 
L 307.061462 279.836926 
L 306.609466 279.855577 
L 305.592006 279.493987 
L 304.68778 278.934456 
L 302.992561 277.685438 
L 301.975336 276.870206 
L 300.731879 275.654278 
L 300.053885 274.737369 
L 298.923661 273.212195 
L 298.58443 272.990789 
L 298.245433 272.987179 
L 297.454206 273.085849 
L 296.888976 272.904151 
L 296.549979 272.63341 
L 296.210983 272.069066 
L 295.871751 271.085975 
L 295.419755 269.065646 
L 294.176532 262.4722 
L 294.063299 262.409027 
L 293.837301 262.668938 
L 293.498304 263.723625 
L 292.142082 268.815361 
L 291.802851 269.376697 
L 291.576853 269.452504 
L 291.350855 269.317736 
L 291.011624 268.841231 
L 289.994399 267.150604 
L 289.768401 267.199338 
L 288.864175 267.749243 
L 288.412179 267.532048 
L 288.072947 267.41593 
L 287.846949 267.497754 
L 287.620952 267.787748 
L 287.28172 268.788287 
L 286.829724 271.221947 
L 285.925498 276.388287 
L 285.360503 278.267832 
L 284.908273 278.959725 
L 284.569276 279.110738 
L 283.552051 279.263557 
L 282.308594 280.21476 
L 282.082596 280.013209 
L 281.743599 279.185944 
L 280.952372 276.671663 
L 280.839373 276.713778 
L 280.613375 277.275716 
L 279.483151 281.728503 
L 279.143919 282.123785 
L 278.804923 282.157477 
L 277.900696 281.895159 
L 277.448466 282.174925 
L 276.883471 282.547344 
L 276.54424 282.510644 
L 276.092244 282.115964 
L 275.640014 281.768212 
L 275.414016 281.824165 
L 275.075019 282.196584 
L 273.492565 284.271664 
L 273.040569 284.566471 
L 272.701572 284.558649 
L 272.249342 284.338446 
L 270.666887 283.242246 
L 270.32789 283.311436 
L 269.649662 283.800574 
L 269.084667 284.076128 
L 268.29344 284.117642 
L 267.276215 284.136293 
L 265.80676 283.816819 
L 265.241765 283.582177 
L 263.998307 283.398674 
L 260.268638 282.378282 
L 259.703409 282.210422 
L 257.55596 281.226128 
L 256.538735 280.731575 
L 255.747508 280.469858 
L 255.069279 280.184076 
L 253.373826 279.292436 
L 251.904605 278.385754 
L 251.339376 278.003709 
L 250.774381 277.646932 
L 250.096153 277.139142 
L 248.513699 276.296837 
L 246.25325 274.689237 
L 240.1499 269.380307 
L 239.132675 268.258236 
L 238.454447 267.594018 
L 237.098225 265.843226 
L 236.306997 264.873973 
L 232.238097 258.967608 
L 231.220637 257.174701 
L 229.864416 254.753073 
L 227.490968 249.800919 
L 226.699741 248.217987 
L 225.908514 246.577296 
L 224.77829 243.961938 
L 222.630841 239.693857 
L 221.274384 237.731887 
L 219.805163 236.039455 
L 216.414257 233.566687 
L 215.623264 232.976472 
L 214.945036 232.427168 
L 214.153809 232.009024 
L 210.310906 228.538726 
L 209.067683 226.975648 
L 208.615453 226.510575 
L 207.824226 225.498004 
L 207.259231 224.889739 
L 206.355005 223.775489 
L 205.563778 223.037269 
L 204.77255 222.210004 
L 203.981558 221.563836 
L 203.077332 220.660764 
L 202.399103 220.2354 
L 201.381878 219.349776 
L 200.477652 218.819725 
L 199.234429 218.460542 
L 197.877973 218.87628 
L 197.312743 219.19395 
L 196.295753 220.324444 
L 195.730524 221.439897 
L 194.939296 222.937395 
L 193.809072 225.269378 
L 192.226618 228.430429 
L 191.548624 229.169252 
L 190.757397 229.675838 
L 190.4184 229.691481 
L 189.627173 229.371405 
L 189.174943 228.988757 
L 188.496949 228.030936 
L 187.705722 226.580366 
L 186.010268 222.934387 
L 185.671272 222.736445 
L 185.33204 222.776756 
L 184.880044 223.126312 
L 184.427814 223.787522 
L 183.975818 225.019694 
L 183.184591 227.988821 
L 182.054367 232.546294 
L 180.924143 236.57853 
L 180.132916 238.690912 
L 176.742009 246.097182 
L 175.611785 248.93876 
L 173.916332 253.898735 
L 173.012106 256.292085 
L 171.429886 260.134201 
L 169.621433 263.461307 
L 169.169438 264.12372 
L 168.265211 265.623625 
L 167.473984 266.579642 
L 166.682757 267.355164 
L 164.648307 269.784613 
L 163.970079 270.376634 
L 163.065853 271.549243 
L 162.500858 272.112384 
L 161.370399 273.629737 
L 160.579407 274.290947 
L 160.014177 274.956368 
L 159.109951 276.022486 
L 157.414498 278.053044 
L 156.623271 278.802094 
L 155.719279 279.654025 
L 155.15405 280.240029 
L 154.249824 281.304944 
L 151.763378 283.055134 
L 150.97215 283.402284 
L 149.841926 284.046046 
L 148.598469 283.821632 
L 148.146473 283.589998 
L 147.355246 282.813874 
L 147.016249 282.120777 
L 146.112023 279.386293 
L 145.207797 276.075431 
L 143.85134 270.729199 
L 143.512343 270.167862 
L 143.286345 270.114316 
L 143.060347 270.305639 
L 142.834115 270.765899 
L 142.495118 272.042593 
L 141.929889 275.437084 
L 140.573667 284.147724 
L 140.008438 286.189112 
L 139.443443 287.20409 
L 137.973988 289.616693 
L 137.295994 290.28452 
L 136.052536 290.781481 
L 135.374543 291.211056 
L 134.470316 291.222488 
L 134.018086 291.40599 
L 133.340092 291.435471 
L 132.661864 291.750132 
L 131.983636 291.813305 
L 130.853412 292.387276 
L 129.610189 292.339144 
L 129.157959 292.519638 
L 128.140733 292.539492 
L 127.575739 292.682684 
L 126.671513 292.682082 
L 125.880285 293.135724 
L 125.428289 293.078568 
L 124.750061 292.930563 
L 123.732836 292.951019 
L 123.167607 292.843925 
L 122.263381 293.074958 
L 121.924384 292.890252 
L 121.698386 292.970873 
L 121.133157 293.344495 
L 120.79416 293.226573 
L 120.34193 293.01359 
L 120.002933 293.174831 
L 119.550702 293.407067 
L 119.098707 293.340284 
L 118.646711 293.264476 
L 117.629251 293.432336 
L 117.177255 293.393229 
L 116.499027 293.336674 
L 115.821033 293.227174 
L 115.368803 293.102032 
L 114.351578 293.327048 
L 113.67335 293.068941 
L 113.221354 293.194685 
L 112.317128 293.493102 
L 111.412902 293.486484 
L 110.169679 292.958238 
L 109.717448 293.331861 
L 109.49145 293.432336 
L 109.152453 293.289144 
L 108.700223 293.11948 
L 106.439775 293.34991 
L 104.744322 293.109853 
L 103.727097 293.06473 
L 103.3881 293.076161 
L 102.709872 292.963051 
L 101.805645 293.253045 
L 101.35365 293.074356 
L 101.014418 293.00276 
L 99.997193 293.186864 
L 99.092967 292.81264 
L 98.414739 293.014793 
L 97.736745 292.614698 
L 97.284515 292.789777 
L 96.832519 292.926953 
L 96.380289 292.776541 
L 95.928293 292.721791 
L 95.137066 292.848137 
L 94.572071 292.877016 
L 93.328613 293.185059 
L 91.63316 292.852348 
L 90.955166 292.972076 
L 89.824942 293.293957 
L 88.920716 293.189872 
L 88.355487 293.365553 
L 87.451261 293.336072 
L 86.999265 293.452792 
L 85.869041 293.288542 
L 85.41681 293.228378 
L 84.512584 292.980499 
L 83.495359 293.096617 
L 83.043363 292.985312 
L 82.139137 293.21815 
L 81.121912 293.123089 
L 80.443684 293.189872 
L 79.652457 292.974483 
L 79.31346 292.902285 
L 78.86123 293.165205 
L 78.409234 293.318023 
L 77.957003 293.310803 
L 77.165776 293.085186 
L 76.374784 293.277713 
L 74.566331 292.838511 
L 73.888103 293.2729 
L 73.209875 292.916725 
L 72.305883 292.741646 
L 71.966652 292.657415 
L 71.514656 292.886041 
L 71.175425 292.960043 
L 70.384197 292.926953 
L 68.914977 293.262672 
L 68.57598 293.132716 
L 68.01075 292.857162 
L 66.654528 292.937181 
L 66.202298 293.015996 
L 65.750302 293.037656 
L 65.072074 292.956433 
L 64.506845 292.917928 
L 64.054849 292.857162 
L 63.263622 292.931164 
L 62.924625 292.915521 
L 62.133398 293.160392 
L 61.455169 293.056908 
L 60.890175 293.014191 
L 60.098948 292.727808 
L 59.646717 292.9077 
L 59.30772 292.991931 
L 58.742726 292.976889 
L 58.064497 293.220556 
L 57.160271 292.804818 
L 56.143046 292.989524 
L 55.464818 292.941994 
L 54.899823 292.921538 
L 54.334594 292.898074 
L 53.656366 292.958238 
L 52.978372 292.966661 
L 52.187145 293.04307 
L 51.395917 292.954628 
L 50.717689 293.018403 
L 50.152694 293.042469 
L 49.135469 293.130911 
L 47.214018 293.070145 
L 46.422791 293.157985 
L 44.50134 293.096015 
L 43.823111 292.901082 
L 42.805886 293.025021 
L 42.353891 293.085787 
L 41.110433 292.958238 
L 39.754211 292.924546 
L 39.754211 292.924546 
" clip-path="url(#pa7a8cac8d6)" style="fill: none; stroke: #9b59b6; stroke-width: 0.8; stroke-linecap: square"/>
   </g>
   <g id="patch_9">
    <path d="M 39.782813 309.934 
L 39.782813 21.51 
" style="fill: none; stroke: #000000; stroke-width: 0.8; stroke-linejoin: miter; stroke-linecap: square"/>
   </g>
   <g id="patch_10">
    <path d="M 39.782813 309.934 
L 848.592813 309.934 
" style="fill: none; stroke: #000000; stroke-width: 0.8; stroke-linejoin: miter; stroke-linecap: square"/>
   </g>
   <g id="text_15">
    <!-- O–H stretch -->
    <g style="fill: #555555" transform="translate(182.127062 69.241362) rotate(-90) scale(0.07 -0.07)">
     <defs>
      <path id="TimesNewRomanPSMT-4f" d="M 2341 4334 
Q 3166 4334 3770 3707 
Q 4375 3081 4375 2144 
Q 4375 1178 3765 540 
Q 3156 -97 2291 -97 
Q 1416 -97 820 525 
Q 225 1147 225 2134 
Q 225 3144 913 3781 
Q 1509 4334 2341 4334 
z
M 2281 4106 
Q 1713 4106 1369 3684 
Q 941 3159 941 2147 
Q 941 1109 1384 550 
Q 1725 125 2284 125 
Q 2881 125 3270 590 
Q 3659 1056 3659 2059 
Q 3659 3147 3231 3681 
Q 2888 4106 2281 4106 
z
" transform="scale(0.015625)"/>
      <path id="TimesNewRomanPSMT-2013" d="M 3253 1416 
L -56 1416 
L -56 1644 
L 3253 1644 
L 3253 1416 
z
" transform="scale(0.015625)"/>
      <path id="TimesNewRomanPSMT-48" d="M 1316 2272 
L 3284 2272 
L 3284 3484 
Q 3284 3809 3244 3913 
Q 3213 3991 3113 4047 
Q 2978 4122 2828 4122 
L 2678 4122 
L 2678 4238 
L 4491 4238 
L 4491 4122 
L 4341 4122 
Q 4191 4122 4056 4050 
Q 3956 4000 3920 3898 
Q 3884 3797 3884 3484 
L 3884 750 
Q 3884 428 3925 325 
Q 3956 247 4053 191 
Q 4191 116 4341 116 
L 4491 116 
L 4491 0 
L 2678 0 
L 2678 116 
L 2828 116 
Q 3088 116 3206 269 
Q 3284 369 3284 750 
L 3284 2041 
L 1316 2041 
L 1316 750 
Q 1316 428 1356 325 
Q 1388 247 1488 191 
Q 1622 116 1772 116 
L 1925 116 
L 1925 0 
L 109 0 
L 109 116 
L 259 116 
Q 522 116 641 269 
Q 716 369 716 750 
L 716 3484 
Q 716 3809 675 3913 
Q 644 3991 547 4047 
Q 409 4122 259 4122 
L 109 4122 
L 109 4238 
L 1925 4238 
L 1925 4122 
L 1772 4122 
Q 1622 4122 1488 4050 
Q 1391 4000 1353 3898 
Q 1316 3797 1316 3484 
L 1316 2272 
z
" transform="scale(0.015625)"/>
      <path id="TimesNewRomanPSMT-74" d="M 1031 3803 
L 1031 2863 
L 1700 2863 
L 1700 2644 
L 1031 2644 
L 1031 788 
Q 1031 509 1111 412 
Q 1191 316 1316 316 
Q 1419 316 1516 380 
Q 1613 444 1666 569 
L 1788 569 
Q 1678 263 1478 108 
Q 1278 -47 1066 -47 
Q 922 -47 784 33 
Q 647 113 581 261 
Q 516 409 516 719 
L 516 2644 
L 63 2644 
L 63 2747 
Q 234 2816 414 2980 
Q 594 3144 734 3369 
Q 806 3488 934 3803 
L 1031 3803 
z
" transform="scale(0.015625)"/>
      <path id="TimesNewRomanPSMT-68" d="M 1041 4444 
L 1041 2350 
Q 1388 2731 1591 2839 
Q 1794 2947 1997 2947 
Q 2241 2947 2416 2812 
Q 2591 2678 2675 2391 
Q 2734 2191 2734 1659 
L 2734 647 
Q 2734 375 2778 275 
Q 2809 200 2884 156 
Q 2959 113 3159 113 
L 3159 0 
L 1753 0 
L 1753 113 
L 1819 113 
Q 2019 113 2097 173 
Q 2175 234 2206 353 
Q 2216 403 2216 647 
L 2216 1659 
Q 2216 2128 2167 2275 
Q 2119 2422 2012 2495 
Q 1906 2569 1756 2569 
Q 1603 2569 1437 2487 
Q 1272 2406 1041 2159 
L 1041 647 
Q 1041 353 1073 281 
Q 1106 209 1195 161 
Q 1284 113 1503 113 
L 1503 0 
L 84 0 
L 84 113 
Q 275 113 384 172 
Q 447 203 484 290 
Q 522 378 522 647 
L 522 3238 
Q 522 3728 498 3840 
Q 475 3953 426 3993 
Q 378 4034 297 4034 
Q 231 4034 84 3984 
L 41 4094 
L 897 4444 
L 1041 4444 
z
" transform="scale(0.015625)"/>
     </defs>
     <use xlink:href="#TimesNewRomanPSMT-4f"/>
     <use xlink:href="#TimesNewRomanPSMT-2013" x="72.216797"/>
     <use xlink:href="#TimesNewRomanPSMT-48" x="122.216797"/>
     <use xlink:href="#TimesNewRomanPSMT-20" x="194.433594"/>
     <use xlink:href="#TimesNewRomanPSMT-73" x="219.433594"/>
     <use xlink:href="#TimesNewRomanPSMT-74" x="258.349609"/>
     <use xlink:href="#TimesNewRomanPSMT-72" x="286.132812"/>
     <use xlink:href="#TimesNewRomanPSMT-65" x="319.433594"/>
     <use xlink:href="#TimesNewRomanPSMT-74" x="363.818359"/>
     <use xlink:href="#TimesNewRomanPSMT-63" x="391.601562"/>
     <use xlink:href="#TimesNewRomanPSMT-68" x="435.986328"/>
    </g>
   </g>
   <g id="text_16">
    <!-- C–H stretch -->
    <g style="fill: #555555" transform="translate(293.48496 68.855268) rotate(-90) scale(0.07 -0.07)">
     <defs>
      <path id="TimesNewRomanPSMT-43" d="M 3853 4334 
L 3950 2894 
L 3853 2894 
Q 3659 3541 3300 3825 
Q 2941 4109 2438 4109 
Q 2016 4109 1675 3895 
Q 1334 3681 1139 3212 
Q 944 2744 944 2047 
Q 944 1472 1128 1050 
Q 1313 628 1683 403 
Q 2053 178 2528 178 
Q 2941 178 3256 354 
Q 3572 531 3950 1056 
L 4047 994 
Q 3728 428 3303 165 
Q 2878 -97 2294 -97 
Q 1241 -97 663 684 
Q 231 1266 231 2053 
Q 231 2688 515 3219 
Q 800 3750 1298 4042 
Q 1797 4334 2388 4334 
Q 2847 4334 3294 4109 
Q 3425 4041 3481 4041 
Q 3566 4041 3628 4100 
Q 3709 4184 3744 4334 
L 3853 4334 
z
" transform="scale(0.015625)"/>
     </defs>
     <use xlink:href="#TimesNewRomanPSMT-43"/>
     <use xlink:href="#TimesNewRomanPSMT-2013" x="66.699219"/>
     <use xlink:href="#TimesNewRomanPSMT-48" x="116.699219"/>
     <use xlink:href="#TimesNewRomanPSMT-20" x="188.916016"/>
     <use xlink:href="#TimesNewRomanPSMT-73" x="213.916016"/>
     <use xlink:href="#TimesNewRomanPSMT-74" x="252.832031"/>
     <use xlink:href="#TimesNewRomanPSMT-72" x="280.615234"/>
     <use xlink:href="#TimesNewRomanPSMT-65" x="313.916016"/>
     <use xlink:href="#TimesNewRomanPSMT-74" x="358.300781"/>
     <use xlink:href="#TimesNewRomanPSMT-63" x="386.083984"/>
     <use xlink:href="#TimesNewRomanPSMT-68" x="430.46875"/>
    </g>
   </g>
   <g id="text_17">
    <!-- C=O stretch -->
    <g style="fill: #555555" transform="translate(577.154555 69.302612) rotate(-90) scale(0.07 -0.07)">
     <defs>
      <path id="TimesNewRomanPSMT-3d" d="M 116 2759 
L 3488 2759 
L 3488 2503 
L 116 2503 
L 116 2759 
z
M 116 1741 
L 3488 1741 
L 3488 1484 
L 116 1484 
L 116 1741 
z
" transform="scale(0.015625)"/>
     </defs>
     <use xlink:href="#TimesNewRomanPSMT-43"/>
     <use xlink:href="#TimesNewRomanPSMT-3d" x="66.699219"/>
     <use xlink:href="#TimesNewRomanPSMT-4f" x="123.095703"/>
     <use xlink:href="#TimesNewRomanPSMT-20" x="195.3125"/>
     <use xlink:href="#TimesNewRomanPSMT-73" x="220.3125"/>
     <use xlink:href="#TimesNewRomanPSMT-74" x="259.228516"/>
     <use xlink:href="#TimesNewRomanPSMT-72" x="287.011719"/>
     <use xlink:href="#TimesNewRomanPSMT-65" x="320.3125"/>
     <use xlink:href="#TimesNewRomanPSMT-74" x="364.697266"/>
     <use xlink:href="#TimesNewRomanPSMT-63" x="392.480469"/>
     <use xlink:href="#TimesNewRomanPSMT-68" x="436.865234"/>
    </g>
   </g>
   <g id="text_18">
    <!-- C=C stretch -->
    <g style="fill: #555555" transform="translate(594.737381 68.916518) rotate(-90) scale(0.07 -0.07)">
     <use xlink:href="#TimesNewRomanPSMT-43"/>
     <use xlink:href="#TimesNewRomanPSMT-3d" x="66.699219"/>
     <use xlink:href="#TimesNewRomanPSMT-43" x="123.095703"/>
     <use xlink:href="#TimesNewRomanPSMT-20" x="189.794922"/>
     <use xlink:href="#TimesNewRomanPSMT-73" x="214.794922"/>
     <use xlink:href="#TimesNewRomanPSMT-74" x="253.710938"/>
     <use xlink:href="#TimesNewRomanPSMT-72" x="281.494141"/>
     <use xlink:href="#TimesNewRomanPSMT-65" x="314.794922"/>
     <use xlink:href="#TimesNewRomanPSMT-74" x="359.179688"/>
     <use xlink:href="#TimesNewRomanPSMT-63" x="386.962891"/>
     <use xlink:href="#TimesNewRomanPSMT-68" x="431.347656"/>
    </g>
   </g>
   <g id="text_19">
    <!-- C–H bend -->
    <g style="fill: #555555" transform="translate(647.485859 63.803237) rotate(-90) scale(0.07 -0.07)">
     <defs>
      <path id="TimesNewRomanPSMT-64" d="M 2222 322 
Q 2013 103 1813 7 
Q 1613 -88 1381 -88 
Q 913 -88 563 304 
Q 213 697 213 1313 
Q 213 1928 600 2439 
Q 988 2950 1597 2950 
Q 1975 2950 2222 2709 
L 2222 3238 
Q 2222 3728 2198 3840 
Q 2175 3953 2125 3993 
Q 2075 4034 2000 4034 
Q 1919 4034 1784 3984 
L 1744 4094 
L 2597 4444 
L 2738 4444 
L 2738 1134 
Q 2738 631 2761 520 
Q 2784 409 2836 365 
Q 2888 322 2956 322 
Q 3041 322 3181 375 
L 3216 266 
L 2366 -88 
L 2222 -88 
L 2222 322 
z
M 2222 541 
L 2222 2016 
Q 2203 2228 2109 2403 
Q 2016 2578 1861 2667 
Q 1706 2756 1559 2756 
Q 1284 2756 1069 2509 
Q 784 2184 784 1559 
Q 784 928 1059 592 
Q 1334 256 1672 256 
Q 1956 256 2222 541 
z
" transform="scale(0.015625)"/>
     </defs>
     <use xlink:href="#TimesNewRomanPSMT-43"/>
     <use xlink:href="#TimesNewRomanPSMT-2013" x="66.699219"/>
     <use xlink:href="#TimesNewRomanPSMT-48" x="116.699219"/>
     <use xlink:href="#TimesNewRomanPSMT-20" x="188.916016"/>
     <use xlink:href="#TimesNewRomanPSMT-62" x="213.916016"/>
     <use xlink:href="#TimesNewRomanPSMT-65" x="263.916016"/>
     <use xlink:href="#TimesNewRomanPSMT-6e" x="308.300781"/>
     <use xlink:href="#TimesNewRomanPSMT-64" x="358.300781"/>
    </g>
   </g>
   <g id="text_20">
    <!-- C–O stretch -->
    <g style="fill: #555555" transform="translate(709.611844 68.855268) rotate(-90) scale(0.07 -0.07)">
     <use xlink:href="#TimesNewRomanPSMT-43"/>
     <use xlink:href="#TimesNewRomanPSMT-2013" x="66.699219"/>
     <use xlink:href="#TimesNewRomanPSMT-4f" x="116.699219"/>
     <use xlink:href="#TimesNewRomanPSMT-20" x="188.916016"/>
     <use xlink:href="#TimesNewRomanPSMT-73" x="213.916016"/>
     <use xlink:href="#TimesNewRomanPSMT-74" x="252.832031"/>
     <use xlink:href="#TimesNewRomanPSMT-72" x="280.615234"/>
     <use xlink:href="#TimesNewRomanPSMT-65" x="313.916016"/>
     <use xlink:href="#TimesNewRomanPSMT-74" x="358.300781"/>
     <use xlink:href="#TimesNewRomanPSMT-63" x="386.083984"/>
     <use xlink:href="#TimesNewRomanPSMT-68" x="430.46875"/>
    </g>
   </g>
   <g id="text_21">
    <!-- Sugar -->
    <g transform="translate(430.19 15.51) scale(0.12 -0.12)">
     <defs>
      <path id="TimesNewRomanPSMT-53" d="M 2934 4334 
L 2934 2869 
L 2819 2869 
Q 2763 3291 2617 3541 
Q 2472 3791 2203 3937 
Q 1934 4084 1647 4084 
Q 1322 4084 1109 3886 
Q 897 3688 897 3434 
Q 897 3241 1031 3081 
Q 1225 2847 1953 2456 
Q 2547 2138 2764 1967 
Q 2981 1797 3098 1565 
Q 3216 1334 3216 1081 
Q 3216 600 2842 251 
Q 2469 -97 1881 -97 
Q 1697 -97 1534 -69 
Q 1438 -53 1133 45 
Q 828 144 747 144 
Q 669 144 623 97 
Q 578 50 556 -97 
L 441 -97 
L 441 1356 
L 556 1356 
Q 638 900 775 673 
Q 913 447 1195 297 
Q 1478 147 1816 147 
Q 2206 147 2432 353 
Q 2659 559 2659 841 
Q 2659 997 2573 1156 
Q 2488 1316 2306 1453 
Q 2184 1547 1640 1851 
Q 1097 2156 867 2337 
Q 638 2519 519 2737 
Q 400 2956 400 3219 
Q 400 3675 750 4004 
Q 1100 4334 1641 4334 
Q 1978 4334 2356 4169 
Q 2531 4091 2603 4091 
Q 2684 4091 2736 4139 
Q 2788 4188 2819 4334 
L 2934 4334 
z
" transform="scale(0.015625)"/>
      <path id="TimesNewRomanPSMT-67" d="M 966 1044 
Q 703 1172 562 1401 
Q 422 1631 422 1909 
Q 422 2334 742 2640 
Q 1063 2947 1563 2947 
Q 1972 2947 2272 2747 
L 2878 2747 
Q 3013 2747 3034 2739 
Q 3056 2731 3066 2713 
Q 3084 2684 3084 2613 
Q 3084 2531 3069 2500 
Q 3059 2484 3036 2475 
Q 3013 2466 2878 2466 
L 2506 2466 
Q 2681 2241 2681 1891 
Q 2681 1491 2375 1206 
Q 2069 922 1553 922 
Q 1341 922 1119 984 
Q 981 866 932 777 
Q 884 688 884 625 
Q 884 572 936 522 
Q 988 472 1138 450 
Q 1225 438 1575 428 
Q 2219 413 2409 384 
Q 2700 344 2873 169 
Q 3047 -6 3047 -263 
Q 3047 -616 2716 -925 
Q 2228 -1381 1444 -1381 
Q 841 -1381 425 -1109 
Q 191 -953 191 -784 
Q 191 -709 225 -634 
Q 278 -519 444 -313 
Q 466 -284 763 25 
Q 600 122 533 198 
Q 466 275 466 372 
Q 466 481 555 628 
Q 644 775 966 1044 
z
M 1509 2797 
Q 1278 2797 1122 2612 
Q 966 2428 966 2047 
Q 966 1553 1178 1281 
Q 1341 1075 1591 1075 
Q 1828 1075 1981 1253 
Q 2134 1431 2134 1813 
Q 2134 2309 1919 2591 
Q 1759 2797 1509 2797 
z
M 934 0 
Q 788 -159 713 -296 
Q 638 -434 638 -550 
Q 638 -700 819 -813 
Q 1131 -1006 1722 -1006 
Q 2284 -1006 2551 -807 
Q 2819 -609 2819 -384 
Q 2819 -222 2659 -153 
Q 2497 -84 2016 -72 
Q 1313 -53 934 0 
z
" transform="scale(0.015625)"/>
     </defs>
     <use xlink:href="#TimesNewRomanPSMT-53"/>
     <use xlink:href="#TimesNewRomanPSMT-75" x="55.615234"/>
     <use xlink:href="#TimesNewRomanPSMT-67" x="105.615234"/>
     <use xlink:href="#TimesNewRomanPSMT-61" x="155.615234"/>
     <use xlink:href="#TimesNewRomanPSMT-72" x="200"/>
    </g>
   </g>
  </g>
 </g>
 <defs>
  <clipPath id="pa7a8cac8d6">
   <rect x="39.782813" y="21.51" width="808.81" height="288.424"/>
  </clipPath>
 </defs>
</svg>
