<?xml version="1.0" encoding="utf-8" standalone="no"?>
<!DOCTYPE svg PUBLIC "-//W3C//DTD SVG 1.1//EN"
  "http://www.w3.org/Graphics/SVG/1.1/DTD/svg11.dtd">
<svg xmlns:xlink="http://www.w3.org/1999/xlink" width="856.52375pt" height="347.72425pt" viewBox="0 0 856.52375 347.72425" xmlns="http://www.w3.org/2000/svg" version="1.1">
 <metadata>
  <rdf:RDF xmlns:dc="http://purl.org/dc/elements/1.1/" xmlns:cc="http://creativecommons.org/ns#" xmlns:rdf="http://www.w3.org/1999/02/22-rdf-syntax-ns#">
   <cc:Work>
    <dc:type rdf:resource="http://purl.org/dc/dcmitype/StillImage"/>
    <dc:date>2026-04-05T23:10:13.438165</dc:date>
    <dc:format>image/svg+xml</dc:format>
    <dc:creator>
     <cc:Agent>
      <dc:title>Matplotlib v3.9.4, https://matplotlib.org/</dc:title>
     </cc:Agent>
    </dc:creator>
   </cc:Work>
  </rdf:RDF>
 </metadata>
 <defs>
  <style type="text/css">*{stroke-linejoin: round; stroke-linecap: butt}</style>
 </defs>
 <g id="figure_1">
  <g id="patch_1">
   <path d="M 0 347.72425 
L 856.52375 347.72425 
L 856.52375 0 
L 0 0 
z
" style="fill: #ffffff"/>
  </g>
  <g id="axes_1">
   <g id="patch_2">
    <path d="M 50.14375 309.446125 
L 849.32375 309.446125 
L 849.32375 22.318125 
L 50.14375 22.318125 
z
" style="fill: #ffffff"/>
   </g>
   <g id="patch_3">
    <path d="M 235.460851 309.446125 
L 142.802301 309.446125 
L 142.802301 22.318125 
L 235.460851 22.318125 
z
" clip-path="url(#p1bdfc6ef7a)" style="fill: #cce5ff; opacity: 0.35; stroke: #cce5ff; stroke-linejoin: miter"/>
   </g>
   <g id="patch_4">
    <path d="M 316.537083 309.446125 
L 281.790127 309.446125 
L 281.790127 22.318125 
L 316.537083 22.318125 
z
" clip-path="url(#p1bdfc6ef7a)" style="fill: #d4edda; opacity: 0.35; stroke: #d4edda; stroke-linejoin: miter"/>
   </g>
   <g id="patch_5">
    <path d="M 587.563344 309.446125 
L 571.348098 309.446125 
L 571.348098 22.318125 
L 587.563344 22.318125 
z
" clip-path="url(#p1bdfc6ef7a)" style="fill: #f8d7da; opacity: 0.35; stroke: #f8d7da; stroke-linejoin: miter"/>
   </g>
   <g id="patch_6">
    <path d="M 606.095054 309.446125 
L 587.563344 309.446125 
L 587.563344 22.318125 
L 606.095054 22.318125 
z
" clip-path="url(#p1bdfc6ef7a)" style="fill: #fff3cd; opacity: 0.35; stroke: #fff3cd; stroke-linejoin: miter"/>
   </g>
   <g id="patch_7">
    <path d="M 664.006649 309.446125 
L 633.89262 309.446125 
L 633.89262 22.318125 
L 664.006649 22.318125 
z
" clip-path="url(#p1bdfc6ef7a)" style="fill: #fce4b8; opacity: 0.35; stroke: #fce4b8; stroke-linejoin: miter"/>
   </g>
   <g id="patch_8">
    <path d="M 745.08288 309.446125 
L 675.588967 309.446125 
L 675.588967 22.318125 
L 745.08288 22.318125 
z
" clip-path="url(#p1bdfc6ef7a)" style="fill: #e2d9f3; opacity: 0.35; stroke: #e2d9f3; stroke-linejoin: miter"/>
   </g>
   <g id="matplotlib.axis_1">
    <g id="xtick_1">
     <g id="line2d_1">
      <defs>
       <path id="m41002019fb" d="M 0 0 
L 0 3.5 
" style="stroke: #000000; stroke-width: 0.8"/>
      </defs>
      <g>
       <use xlink:href="#m41002019fb" x="745.08288" y="309.446125" style="stroke: #000000; stroke-width: 0.8"/>
      </g>
     </g>
     <g id="text_1">
      <!-- 1,000 -->
      <g transform="translate(730.768818 324.044562) scale(0.1 -0.1)">
       <defs>
        <path id="DejaVuSans-31" d="M 794 531 
L 1825 531 
L 1825 4091 
L 703 3866 
L 703 4441 
L 1819 4666 
L 2450 4666 
L 2450 531 
L 3481 531 
L 3481 0 
L 794 0 
L 794 531 
z
" transform="scale(0.015625)"/>
        <path id="DejaVuSans-2c" d="M 750 794 
L 1409 794 
L 1409 256 
L 897 -744 
L 494 -744 
L 750 256 
L 750 794 
z
" transform="scale(0.015625)"/>
        <path id="DejaVuSans-30" d="M 2034 4250 
Q 1547 4250 1301 3770 
Q 1056 3291 1056 2328 
Q 1056 1369 1301 889 
Q 1547 409 2034 409 
Q 2525 409 2770 889 
Q 3016 1369 3016 2328 
Q 3016 3291 2770 3770 
Q 2525 4250 2034 4250 
z
M 2034 4750 
Q 2819 4750 3233 4129 
Q 3647 3509 3647 2328 
Q 3647 1150 3233 529 
Q 2819 -91 2034 -91 
Q 1250 -91 836 529 
Q 422 1150 422 2328 
Q 422 3509 836 4129 
Q 1250 4750 2034 4750 
z
" transform="scale(0.015625)"/>
       </defs>
       <use xlink:href="#DejaVuSans-31"/>
       <use xlink:href="#DejaVuSans-2c" x="63.623047"/>
       <use xlink:href="#DejaVuSans-30" x="95.410156"/>
       <use xlink:href="#DejaVuSans-30" x="159.033203"/>
       <use xlink:href="#DejaVuSans-30" x="222.65625"/>
      </g>
     </g>
    </g>
    <g id="xtick_2">
     <g id="line2d_2">
      <g>
       <use xlink:href="#m41002019fb" x="629.259692" y="309.446125" style="stroke: #000000; stroke-width: 0.8"/>
      </g>
     </g>
     <g id="text_2">
      <!-- 1,500 -->
      <g transform="translate(614.94563 324.044562) scale(0.1 -0.1)">
       <defs>
        <path id="DejaVuSans-35" d="M 691 4666 
L 3169 4666 
L 3169 4134 
L 1269 4134 
L 1269 2991 
Q 1406 3038 1543 3061 
Q 1681 3084 1819 3084 
Q 2600 3084 3056 2656 
Q 3513 2228 3513 1497 
Q 3513 744 3044 326 
Q 2575 -91 1722 -91 
Q 1428 -91 1123 -41 
Q 819 9 494 109 
L 494 744 
Q 775 591 1075 516 
Q 1375 441 1709 441 
Q 2250 441 2565 725 
Q 2881 1009 2881 1497 
Q 2881 1984 2565 2268 
Q 2250 2553 1709 2553 
Q 1456 2553 1204 2497 
Q 953 2441 691 2322 
L 691 4666 
z
" transform="scale(0.015625)"/>
       </defs>
       <use xlink:href="#DejaVuSans-31"/>
       <use xlink:href="#DejaVuSans-2c" x="63.623047"/>
       <use xlink:href="#DejaVuSans-35" x="95.410156"/>
       <use xlink:href="#DejaVuSans-30" x="159.033203"/>
       <use xlink:href="#DejaVuSans-30" x="222.65625"/>
      </g>
     </g>
    </g>
    <g id="xtick_3">
     <g id="line2d_3">
      <g>
       <use xlink:href="#m41002019fb" x="513.436504" y="309.446125" style="stroke: #000000; stroke-width: 0.8"/>
      </g>
     </g>
     <g id="text_3">
      <!-- 2,000 -->
      <g transform="translate(499.122441 324.044562) scale(0.1 -0.1)">
       <defs>
        <path id="DejaVuSans-32" d="M 1228 531 
L 3431 531 
L 3431 0 
L 469 0 
L 469 531 
Q 828 903 1448 1529 
Q 2069 2156 2228 2338 
Q 2531 2678 2651 2914 
Q 2772 3150 2772 3378 
Q 2772 3750 2511 3984 
Q 2250 4219 1831 4219 
Q 1534 4219 1204 4116 
Q 875 4013 500 3803 
L 500 4441 
Q 881 4594 1212 4672 
Q 1544 4750 1819 4750 
Q 2544 4750 2975 4387 
Q 3406 4025 3406 3419 
Q 3406 3131 3298 2873 
Q 3191 2616 2906 2266 
Q 2828 2175 2409 1742 
Q 1991 1309 1228 531 
z
" transform="scale(0.015625)"/>
       </defs>
       <use xlink:href="#DejaVuSans-32"/>
       <use xlink:href="#DejaVuSans-2c" x="63.623047"/>
       <use xlink:href="#DejaVuSans-30" x="95.410156"/>
       <use xlink:href="#DejaVuSans-30" x="159.033203"/>
       <use xlink:href="#DejaVuSans-30" x="222.65625"/>
      </g>
     </g>
    </g>
    <g id="xtick_4">
     <g id="line2d_4">
      <g>
       <use xlink:href="#m41002019fb" x="397.613315" y="309.446125" style="stroke: #000000; stroke-width: 0.8"/>
      </g>
     </g>
     <g id="text_4">
      <!-- 2,500 -->
      <g transform="translate(383.299253 324.044562) scale(0.1 -0.1)">
       <use xlink:href="#DejaVuSans-32"/>
       <use xlink:href="#DejaVuSans-2c" x="63.623047"/>
       <use xlink:href="#DejaVuSans-35" x="95.410156"/>
       <use xlink:href="#DejaVuSans-30" x="159.033203"/>
       <use xlink:href="#DejaVuSans-30" x="222.65625"/>
      </g>
     </g>
    </g>
    <g id="xtick_5">
     <g id="line2d_5">
      <g>
       <use xlink:href="#m41002019fb" x="281.790127" y="309.446125" style="stroke: #000000; stroke-width: 0.8"/>
      </g>
     </g>
     <g id="text_5">
      <!-- 3,000 -->
      <g transform="translate(267.476064 324.044562) scale(0.1 -0.1)">
       <defs>
        <path id="DejaVuSans-33" d="M 2597 2516 
Q 3050 2419 3304 2112 
Q 3559 1806 3559 1356 
Q 3559 666 3084 287 
Q 2609 -91 1734 -91 
Q 1441 -91 1130 -33 
Q 819 25 488 141 
L 488 750 
Q 750 597 1062 519 
Q 1375 441 1716 441 
Q 2309 441 2620 675 
Q 2931 909 2931 1356 
Q 2931 1769 2642 2001 
Q 2353 2234 1838 2234 
L 1294 2234 
L 1294 2753 
L 1863 2753 
Q 2328 2753 2575 2939 
Q 2822 3125 2822 3475 
Q 2822 3834 2567 4026 
Q 2313 4219 1838 4219 
Q 1578 4219 1281 4162 
Q 984 4106 628 3988 
L 628 4550 
Q 988 4650 1302 4700 
Q 1616 4750 1894 4750 
Q 2613 4750 3031 4423 
Q 3450 4097 3450 3541 
Q 3450 3153 3228 2886 
Q 3006 2619 2597 2516 
z
" transform="scale(0.015625)"/>
       </defs>
       <use xlink:href="#DejaVuSans-33"/>
       <use xlink:href="#DejaVuSans-2c" x="63.623047"/>
       <use xlink:href="#DejaVuSans-30" x="95.410156"/>
       <use xlink:href="#DejaVuSans-30" x="159.033203"/>
       <use xlink:href="#DejaVuSans-30" x="222.65625"/>
      </g>
     </g>
    </g>
    <g id="xtick_6">
     <g id="line2d_6">
      <g>
       <use xlink:href="#m41002019fb" x="165.966938" y="309.446125" style="stroke: #000000; stroke-width: 0.8"/>
      </g>
     </g>
     <g id="text_6">
      <!-- 3,500 -->
      <g transform="translate(151.652876 324.044562) scale(0.1 -0.1)">
       <use xlink:href="#DejaVuSans-33"/>
       <use xlink:href="#DejaVuSans-2c" x="63.623047"/>
       <use xlink:href="#DejaVuSans-35" x="95.410156"/>
       <use xlink:href="#DejaVuSans-30" x="159.033203"/>
       <use xlink:href="#DejaVuSans-30" x="222.65625"/>
      </g>
     </g>
    </g>
    <g id="xtick_7">
     <g id="line2d_7">
      <g>
       <use xlink:href="#m41002019fb" x="50.14375" y="309.446125" style="stroke: #000000; stroke-width: 0.8"/>
      </g>
     </g>
     <g id="text_7">
      <!-- 4,000 -->
      <g transform="translate(35.829687 324.044562) scale(0.1 -0.1)">
       <defs>
        <path id="DejaVuSans-34" d="M 2419 4116 
L 825 1625 
L 2419 1625 
L 2419 4116 
z
M 2253 4666 
L 3047 4666 
L 3047 1625 
L 3713 1625 
L 3713 1100 
L 3047 1100 
L 3047 0 
L 2419 0 
L 2419 1100 
L 313 1100 
L 313 1709 
L 2253 4666 
z
" transform="scale(0.015625)"/>
       </defs>
       <use xlink:href="#DejaVuSans-34"/>
       <use xlink:href="#DejaVuSans-2c" x="63.623047"/>
       <use xlink:href="#DejaVuSans-30" x="95.410156"/>
       <use xlink:href="#DejaVuSans-30" x="159.033203"/>
       <use xlink:href="#DejaVuSans-30" x="222.65625"/>
      </g>
     </g>
    </g>
    <g id="text_8">
     <!-- Wavenumber (cm$^{-1}$) -->
     <g transform="translate(397.68375 338.444562) scale(0.1 -0.1)">
      <defs>
       <path id="DejaVuSans-57" d="M 213 4666 
L 850 4666 
L 1831 722 
L 2809 4666 
L 3519 4666 
L 4500 722 
L 5478 4666 
L 6119 4666 
L 4947 0 
L 4153 0 
L 3169 4050 
L 2175 0 
L 1381 0 
L 213 4666 
z
" transform="scale(0.015625)"/>
       <path id="DejaVuSans-61" d="M 2194 1759 
Q 1497 1759 1228 1600 
Q 959 1441 959 1056 
Q 959 750 1161 570 
Q 1363 391 1709 391 
Q 2188 391 2477 730 
Q 2766 1069 2766 1631 
L 2766 1759 
L 2194 1759 
z
M 3341 1997 
L 3341 0 
L 2766 0 
L 2766 531 
Q 2569 213 2275 61 
Q 1981 -91 1556 -91 
Q 1019 -91 701 211 
Q 384 513 384 1019 
Q 384 1609 779 1909 
Q 1175 2209 1959 2209 
L 2766 2209 
L 2766 2266 
Q 2766 2663 2505 2880 
Q 2244 3097 1772 3097 
Q 1472 3097 1187 3025 
Q 903 2953 641 2809 
L 641 3341 
Q 956 3463 1253 3523 
Q 1550 3584 1831 3584 
Q 2591 3584 2966 3190 
Q 3341 2797 3341 1997 
z
" transform="scale(0.015625)"/>
       <path id="DejaVuSans-76" d="M 191 3500 
L 800 3500 
L 1894 563 
L 2988 3500 
L 3597 3500 
L 2284 0 
L 1503 0 
L 191 3500 
z
" transform="scale(0.015625)"/>
       <path id="DejaVuSans-65" d="M 3597 1894 
L 3597 1613 
L 953 1613 
Q 991 1019 1311 708 
Q 1631 397 2203 397 
Q 2534 397 2845 478 
Q 3156 559 3463 722 
L 3463 178 
Q 3153 47 2828 -22 
Q 2503 -91 2169 -91 
Q 1331 -91 842 396 
Q 353 884 353 1716 
Q 353 2575 817 3079 
Q 1281 3584 2069 3584 
Q 2775 3584 3186 3129 
Q 3597 2675 3597 1894 
z
M 3022 2063 
Q 3016 2534 2758 2815 
Q 2500 3097 2075 3097 
Q 1594 3097 1305 2825 
Q 1016 2553 972 2059 
L 3022 2063 
z
" transform="scale(0.015625)"/>
       <path id="DejaVuSans-6e" d="M 3513 2113 
L 3513 0 
L 2938 0 
L 2938 2094 
Q 2938 2591 2744 2837 
Q 2550 3084 2163 3084 
Q 1697 3084 1428 2787 
Q 1159 2491 1159 1978 
L 1159 0 
L 581 0 
L 581 3500 
L 1159 3500 
L 1159 2956 
Q 1366 3272 1645 3428 
Q 1925 3584 2291 3584 
Q 2894 3584 3203 3211 
Q 3513 2838 3513 2113 
z
" transform="scale(0.015625)"/>
       <path id="DejaVuSans-75" d="M 544 1381 
L 544 3500 
L 1119 3500 
L 1119 1403 
Q 1119 906 1312 657 
Q 1506 409 1894 409 
Q 2359 409 2629 706 
Q 2900 1003 2900 1516 
L 2900 3500 
L 3475 3500 
L 3475 0 
L 2900 0 
L 2900 538 
Q 2691 219 2414 64 
Q 2138 -91 1772 -91 
Q 1169 -91 856 284 
Q 544 659 544 1381 
z
M 1991 3584 
L 1991 3584 
z
" transform="scale(0.015625)"/>
       <path id="DejaVuSans-6d" d="M 3328 2828 
Q 3544 3216 3844 3400 
Q 4144 3584 4550 3584 
Q 5097 3584 5394 3201 
Q 5691 2819 5691 2113 
L 5691 0 
L 5113 0 
L 5113 2094 
Q 5113 2597 4934 2840 
Q 4756 3084 4391 3084 
Q 3944 3084 3684 2787 
Q 3425 2491 3425 1978 
L 3425 0 
L 2847 0 
L 2847 2094 
Q 2847 2600 2669 2842 
Q 2491 3084 2119 3084 
Q 1678 3084 1418 2786 
Q 1159 2488 1159 1978 
L 1159 0 
L 581 0 
L 581 3500 
L 1159 3500 
L 1159 2956 
Q 1356 3278 1631 3431 
Q 1906 3584 2284 3584 
Q 2666 3584 2933 3390 
Q 3200 3197 3328 2828 
z
" transform="scale(0.015625)"/>
       <path id="DejaVuSans-62" d="M 3116 1747 
Q 3116 2381 2855 2742 
Q 2594 3103 2138 3103 
Q 1681 3103 1420 2742 
Q 1159 2381 1159 1747 
Q 1159 1113 1420 752 
Q 1681 391 2138 391 
Q 2594 391 2855 752 
Q 3116 1113 3116 1747 
z
M 1159 2969 
Q 1341 3281 1617 3432 
Q 1894 3584 2278 3584 
Q 2916 3584 3314 3078 
Q 3713 2572 3713 1747 
Q 3713 922 3314 415 
Q 2916 -91 2278 -91 
Q 1894 -91 1617 61 
Q 1341 213 1159 525 
L 1159 0 
L 581 0 
L 581 4863 
L 1159 4863 
L 1159 2969 
z
" transform="scale(0.015625)"/>
       <path id="DejaVuSans-72" d="M 2631 2963 
Q 2534 3019 2420 3045 
Q 2306 3072 2169 3072 
Q 1681 3072 1420 2755 
Q 1159 2438 1159 1844 
L 1159 0 
L 581 0 
L 581 3500 
L 1159 3500 
L 1159 2956 
Q 1341 3275 1631 3429 
Q 1922 3584 2338 3584 
Q 2397 3584 2469 3576 
Q 2541 3569 2628 3553 
L 2631 2963 
z
" transform="scale(0.015625)"/>
       <path id="DejaVuSans-20" transform="scale(0.015625)"/>
       <path id="DejaVuSans-28" d="M 1984 4856 
Q 1566 4138 1362 3434 
Q 1159 2731 1159 2009 
Q 1159 1288 1364 580 
Q 1569 -128 1984 -844 
L 1484 -844 
Q 1016 -109 783 600 
Q 550 1309 550 2009 
Q 550 2706 781 3412 
Q 1013 4119 1484 4856 
L 1984 4856 
z
" transform="scale(0.015625)"/>
       <path id="DejaVuSans-63" d="M 3122 3366 
L 3122 2828 
Q 2878 2963 2633 3030 
Q 2388 3097 2138 3097 
Q 1578 3097 1268 2742 
Q 959 2388 959 1747 
Q 959 1106 1268 751 
Q 1578 397 2138 397 
Q 2388 397 2633 464 
Q 2878 531 3122 666 
L 3122 134 
Q 2881 22 2623 -34 
Q 2366 -91 2075 -91 
Q 1284 -91 818 406 
Q 353 903 353 1747 
Q 353 2603 823 3093 
Q 1294 3584 2113 3584 
Q 2378 3584 2631 3529 
Q 2884 3475 3122 3366 
z
" transform="scale(0.015625)"/>
       <path id="DejaVuSans-2212" d="M 678 2272 
L 4684 2272 
L 4684 1741 
L 678 1741 
L 678 2272 
z
" transform="scale(0.015625)"/>
       <path id="DejaVuSans-29" d="M 513 4856 
L 1013 4856 
Q 1481 4119 1714 3412 
Q 1947 2706 1947 2009 
Q 1947 1309 1714 600 
Q 1481 -109 1013 -844 
L 513 -844 
Q 928 -128 1133 580 
Q 1338 1288 1338 2009 
Q 1338 2731 1133 3434 
Q 928 4138 513 4856 
z
" transform="scale(0.015625)"/>
      </defs>
      <use xlink:href="#DejaVuSans-57" transform="translate(0 0.684375)"/>
      <use xlink:href="#DejaVuSans-61" transform="translate(98.876953 0.684375)"/>
      <use xlink:href="#DejaVuSans-76" transform="translate(160.15625 0.684375)"/>
      <use xlink:href="#DejaVuSans-65" transform="translate(219.335938 0.684375)"/>
      <use xlink:href="#DejaVuSans-6e" transform="translate(280.859375 0.684375)"/>
      <use xlink:href="#DejaVuSans-75" transform="translate(344.238281 0.684375)"/>
      <use xlink:href="#DejaVuSans-6d" transform="translate(407.617188 0.684375)"/>
      <use xlink:href="#DejaVuSans-62" transform="translate(505.029297 0.684375)"/>
      <use xlink:href="#DejaVuSans-65" transform="translate(568.505859 0.684375)"/>
      <use xlink:href="#DejaVuSans-72" transform="translate(630.029297 0.684375)"/>
      <use xlink:href="#DejaVuSans-20" transform="translate(671.142578 0.684375)"/>
      <use xlink:href="#DejaVuSans-28" transform="translate(702.929688 0.684375)"/>
      <use xlink:href="#DejaVuSans-63" transform="translate(741.943359 0.684375)"/>
      <use xlink:href="#DejaVuSans-6d" transform="translate(796.923828 0.684375)"/>
      <use xlink:href="#DejaVuSans-2212" transform="translate(895.292969 38.965625) scale(0.7)"/>
      <use xlink:href="#DejaVuSans-31" transform="translate(953.945312 38.965625) scale(0.7)"/>
      <use xlink:href="#DejaVuSans-29" transform="translate(1001.21582 0.684375)"/>
     </g>
    </g>
   </g>
   <g id="matplotlib.axis_2">
    <g id="ytick_1">
     <g id="line2d_8">
      <path d="M 50.14375 297.091041 
L 849.32375 297.091041 
" clip-path="url(#p1bdfc6ef7a)" style="fill: none; stroke: #b0b0b0; stroke-opacity: 0.3; stroke-width: 0.8; stroke-linecap: square"/>
     </g>
     <g id="line2d_9">
      <defs>
       <path id="me561ed6095" d="M 0 0 
L -3.5 0 
" style="stroke: #000000; stroke-width: 0.8"/>
      </defs>
      <g>
       <use xlink:href="#me561ed6095" x="50.14375" y="297.091041" style="stroke: #000000; stroke-width: 0.8"/>
      </g>
     </g>
     <g id="text_9">
      <!-- 0.00 -->
      <g transform="translate(20.878125 300.890259) scale(0.1 -0.1)">
       <defs>
        <path id="DejaVuSans-2e" d="M 684 794 
L 1344 794 
L 1344 0 
L 684 0 
L 684 794 
z
" transform="scale(0.015625)"/>
       </defs>
       <use xlink:href="#DejaVuSans-30"/>
       <use xlink:href="#DejaVuSans-2e" x="63.623047"/>
       <use xlink:href="#DejaVuSans-30" x="95.410156"/>
       <use xlink:href="#DejaVuSans-30" x="159.033203"/>
      </g>
     </g>
    </g>
    <g id="ytick_2">
     <g id="line2d_10">
      <path d="M 50.14375 258.110724 
L 849.32375 258.110724 
" clip-path="url(#p1bdfc6ef7a)" style="fill: none; stroke: #b0b0b0; stroke-opacity: 0.3; stroke-width: 0.8; stroke-linecap: square"/>
     </g>
     <g id="line2d_11">
      <g>
       <use xlink:href="#me561ed6095" x="50.14375" y="258.110724" style="stroke: #000000; stroke-width: 0.8"/>
      </g>
     </g>
     <g id="text_10">
      <!-- 0.05 -->
      <g transform="translate(20.878125 261.909943) scale(0.1 -0.1)">
       <use xlink:href="#DejaVuSans-30"/>
       <use xlink:href="#DejaVuSans-2e" x="63.623047"/>
       <use xlink:href="#DejaVuSans-30" x="95.410156"/>
       <use xlink:href="#DejaVuSans-35" x="159.033203"/>
      </g>
     </g>
    </g>
    <g id="ytick_3">
     <g id="line2d_12">
      <path d="M 50.14375 219.130407 
L 849.32375 219.130407 
" clip-path="url(#p1bdfc6ef7a)" style="fill: none; stroke: #b0b0b0; stroke-opacity: 0.3; stroke-width: 0.8; stroke-linecap: square"/>
     </g>
     <g id="line2d_13">
      <g>
       <use xlink:href="#me561ed6095" x="50.14375" y="219.130407" style="stroke: #000000; stroke-width: 0.8"/>
      </g>
     </g>
     <g id="text_11">
      <!-- 0.10 -->
      <g transform="translate(20.878125 222.929626) scale(0.1 -0.1)">
       <use xlink:href="#DejaVuSans-30"/>
       <use xlink:href="#DejaVuSans-2e" x="63.623047"/>
       <use xlink:href="#DejaVuSans-31" x="95.410156"/>
       <use xlink:href="#DejaVuSans-30" x="159.033203"/>
      </g>
     </g>
    </g>
    <g id="ytick_4">
     <g id="line2d_14">
      <path d="M 50.14375 180.15009 
L 849.32375 180.15009 
" clip-path="url(#p1bdfc6ef7a)" style="fill: none; stroke: #b0b0b0; stroke-opacity: 0.3; stroke-width: 0.8; stroke-linecap: square"/>
     </g>
     <g id="line2d_15">
      <g>
       <use xlink:href="#me561ed6095" x="50.14375" y="180.15009" style="stroke: #000000; stroke-width: 0.8"/>
      </g>
     </g>
     <g id="text_12">
      <!-- 0.15 -->
      <g transform="translate(20.878125 183.949309) scale(0.1 -0.1)">
       <use xlink:href="#DejaVuSans-30"/>
       <use xlink:href="#DejaVuSans-2e" x="63.623047"/>
       <use xlink:href="#DejaVuSans-31" x="95.410156"/>
       <use xlink:href="#DejaVuSans-35" x="159.033203"/>
      </g>
     </g>
    </g>
    <g id="ytick_5">
     <g id="line2d_16">
      <path d="M 50.14375 141.169774 
L 849.32375 141.169774 
" clip-path="url(#p1bdfc6ef7a)" style="fill: none; stroke: #b0b0b0; stroke-opacity: 0.3; stroke-width: 0.8; stroke-linecap: square"/>
     </g>
     <g id="line2d_17">
      <g>
       <use xlink:href="#me561ed6095" x="50.14375" y="141.169774" style="stroke: #000000; stroke-width: 0.8"/>
      </g>
     </g>
     <g id="text_13">
      <!-- 0.20 -->
      <g transform="translate(20.878125 144.968992) scale(0.1 -0.1)">
       <use xlink:href="#DejaVuSans-30"/>
       <use xlink:href="#DejaVuSans-2e" x="63.623047"/>
       <use xlink:href="#DejaVuSans-32" x="95.410156"/>
       <use xlink:href="#DejaVuSans-30" x="159.033203"/>
      </g>
     </g>
    </g>
    <g id="ytick_6">
     <g id="line2d_18">
      <path d="M 50.14375 102.189457 
L 849.32375 102.189457 
" clip-path="url(#p1bdfc6ef7a)" style="fill: none; stroke: #b0b0b0; stroke-opacity: 0.3; stroke-width: 0.8; stroke-linecap: square"/>
     </g>
     <g id="line2d_19">
      <g>
       <use xlink:href="#me561ed6095" x="50.14375" y="102.189457" style="stroke: #000000; stroke-width: 0.8"/>
      </g>
     </g>
     <g id="text_14">
      <!-- 0.25 -->
      <g transform="translate(20.878125 105.988676) scale(0.1 -0.1)">
       <use xlink:href="#DejaVuSans-30"/>
       <use xlink:href="#DejaVuSans-2e" x="63.623047"/>
       <use xlink:href="#DejaVuSans-32" x="95.410156"/>
       <use xlink:href="#DejaVuSans-35" x="159.033203"/>
      </g>
     </g>
    </g>
    <g id="ytick_7">
     <g id="line2d_20">
      <path d="M 50.14375 63.20914 
L 849.32375 63.20914 
" clip-path="url(#p1bdfc6ef7a)" style="fill: none; stroke: #b0b0b0; stroke-opacity: 0.3; stroke-width: 0.8; stroke-linecap: square"/>
     </g>
     <g id="line2d_21">
      <g>
       <use xlink:href="#me561ed6095" x="50.14375" y="63.20914" style="stroke: #000000; stroke-width: 0.8"/>
      </g>
     </g>
     <g id="text_15">
      <!-- 0.30 -->
      <g transform="translate(20.878125 67.008359) scale(0.1 -0.1)">
       <use xlink:href="#DejaVuSans-30"/>
       <use xlink:href="#DejaVuSans-2e" x="63.623047"/>
       <use xlink:href="#DejaVuSans-33" x="95.410156"/>
       <use xlink:href="#DejaVuSans-30" x="159.033203"/>
      </g>
     </g>
    </g>
    <g id="ytick_8">
     <g id="line2d_22">
      <path d="M 50.14375 24.228823 
L 849.32375 24.228823 
" clip-path="url(#p1bdfc6ef7a)" style="fill: none; stroke: #b0b0b0; stroke-opacity: 0.3; stroke-width: 0.8; stroke-linecap: square"/>
     </g>
     <g id="line2d_23">
      <g>
       <use xlink:href="#me561ed6095" x="50.14375" y="24.228823" style="stroke: #000000; stroke-width: 0.8"/>
      </g>
     </g>
     <g id="text_16">
      <!-- 0.35 -->
      <g transform="translate(20.878125 28.028042) scale(0.1 -0.1)">
       <use xlink:href="#DejaVuSans-30"/>
       <use xlink:href="#DejaVuSans-2e" x="63.623047"/>
       <use xlink:href="#DejaVuSans-33" x="95.410156"/>
       <use xlink:href="#DejaVuSans-35" x="159.033203"/>
      </g>
     </g>
    </g>
    <g id="text_17">
     <!-- Absorbance -->
     <g transform="translate(14.798438 195.429) rotate(-90) scale(0.1 -0.1)">
      <defs>
       <path id="DejaVuSans-41" d="M 2188 4044 
L 1331 1722 
L 3047 1722 
L 2188 4044 
z
M 1831 4666 
L 2547 4666 
L 4325 0 
L 3669 0 
L 3244 1197 
L 1141 1197 
L 716 0 
L 50 0 
L 1831 4666 
z
" transform="scale(0.015625)"/>
       <path id="DejaVuSans-73" d="M 2834 3397 
L 2834 2853 
Q 2591 2978 2328 3040 
Q 2066 3103 1784 3103 
Q 1356 3103 1142 2972 
Q 928 2841 928 2578 
Q 928 2378 1081 2264 
Q 1234 2150 1697 2047 
L 1894 2003 
Q 2506 1872 2764 1633 
Q 3022 1394 3022 966 
Q 3022 478 2636 193 
Q 2250 -91 1575 -91 
Q 1294 -91 989 -36 
Q 684 19 347 128 
L 347 722 
Q 666 556 975 473 
Q 1284 391 1588 391 
Q 1994 391 2212 530 
Q 2431 669 2431 922 
Q 2431 1156 2273 1281 
Q 2116 1406 1581 1522 
L 1381 1569 
Q 847 1681 609 1914 
Q 372 2147 372 2553 
Q 372 3047 722 3315 
Q 1072 3584 1716 3584 
Q 2034 3584 2315 3537 
Q 2597 3491 2834 3397 
z
" transform="scale(0.015625)"/>
       <path id="DejaVuSans-6f" d="M 1959 3097 
Q 1497 3097 1228 2736 
Q 959 2375 959 1747 
Q 959 1119 1226 758 
Q 1494 397 1959 397 
Q 2419 397 2687 759 
Q 2956 1122 2956 1747 
Q 2956 2369 2687 2733 
Q 2419 3097 1959 3097 
z
M 1959 3584 
Q 2709 3584 3137 3096 
Q 3566 2609 3566 1747 
Q 3566 888 3137 398 
Q 2709 -91 1959 -91 
Q 1206 -91 779 398 
Q 353 888 353 1747 
Q 353 2609 779 3096 
Q 1206 3584 1959 3584 
z
" transform="scale(0.015625)"/>
      </defs>
      <use xlink:href="#DejaVuSans-41"/>
      <use xlink:href="#DejaVuSans-62" x="68.408203"/>
      <use xlink:href="#DejaVuSans-73" x="131.884766"/>
      <use xlink:href="#DejaVuSans-6f" x="183.984375"/>
      <use xlink:href="#DejaVuSans-72" x="245.166016"/>
      <use xlink:href="#DejaVuSans-62" x="286.279297"/>
      <use xlink:href="#DejaVuSans-61" x="349.755859"/>
      <use xlink:href="#DejaVuSans-6e" x="411.035156"/>
      <use xlink:href="#DejaVuSans-63" x="474.414062"/>
      <use xlink:href="#DejaVuSans-65" x="529.394531"/>
     </g>
    </g>
   </g>
   <g id="line2d_24">
    <path d="M 849.301697 37.797871 
L 848.966667 42.05764 
L 848.85499 42.378838 
L 848.631614 41.588317 
L 848.519937 41.728647 
L 848.296584 43.598922 
L 847.849854 48.163517 
L 847.738177 48.03878 
L 847.403147 45.44503 
L 847.17977 43.812534 
L 846.956417 43.340093 
L 846.621363 40.786882 
L 846.286333 38.17754 
L 846.174656 38.565784 
L 845.504573 47.436924 
L 845.16952 48.106606 
L 844.946166 46.859236 
L 844.722813 43.431307 
L 844.38776 36.952778 
L 844.276083 36.368073 
L 844.052729 37.46342 
L 843.829353 38.704554 
L 843.717676 38.338139 
L 843.270946 35.369398 
L 843.159269 35.58223 
L 842.824239 37.210048 
L 842.489186 36.925492 
L 842.377509 37.401052 
L 841.707426 43.050859 
L 841.595749 42.981474 
L 841.372395 41.783219 
L 841.037342 39.693094 
L 840.925665 39.981549 
L 840.813989 41.212547 
L 840.702312 40.586523 
L 840.590612 41.157195 
L 840.143905 45.928386 
L 839.697175 43.776672 
L 839.362145 44.872799 
L 839.138768 42.839586 
L 838.915415 40.708922 
L 838.803738 40.800135 
L 838.357008 43.535774 
L 838.021978 41.9407 
L 837.910278 42.221358 
L 837.463571 45.377984 
L 837.128518 44.429203 
L 837.016841 44.671661 
L 836.458435 47.659892 
L 836.346758 47.709007 
L 836.235081 48.048915 
L 835.788351 51.512706 
L 835.676674 51.417594 
L 835.341644 50.046267 
L 835.229944 50.59355 
L 834.783237 54.065917 
L 834.448184 52.651711 
L 834.336507 52.880915 
L 834.001477 54.994428 
L 833.889777 54.903994 
L 833.554747 53.107781 
L 833.44307 53.221603 
L 833.108017 54.670891 
L 832.99634 54.426875 
L 832.66131 52.861425 
L 832.54961 53.147541 
L 832.21458 55.162043 
L 832.102904 55.214277 
L 831.76785 54.608523 
L 831.544497 55.88084 
L 831.321143 57.38626 
L 831.209443 57.623261 
L 830.874413 57.394056 
L 830.65106 58.369344 
L 830.316007 59.895813 
L 830.092653 60.075902 
L 829.869277 61.048071 
L 829.42257 64.090095 
L 828.97584 64.783165 
L 828.640809 66.095243 
L 828.52911 66.16073 
L 828.305756 65.953354 
L 828.194079 66.044568 
L 827.970726 66.966063 
L 827.635673 68.232144 
L 827.300642 68.508904 
L 826.630559 70.836808 
L 826.518859 70.89216 
L 826.295506 71.469849 
L 825.848776 73.40873 
L 825.513746 73.86324 
L 824.731985 76.053154 
L 824.508609 76.528714 
L 823.950225 78.384177 
L 823.726849 78.927563 
L 822.945088 82.10134 
L 822.610058 82.113814 
L 822.386682 81.850307 
L 822.163328 81.402813 
L 822.051651 81.539244 
L 821.828275 83.335457 
L 821.381568 87.511029 
L 820.934838 88.791142 
L 820.376431 90.362829 
L 820.153078 90.908553 
L 818.701234 96.354883 
L 818.254504 97.33017 
L 817.026014 102.270536 
L 816.35593 104.390285 
L 815.797524 106.609045 
L 814.569056 110.652863 
L 814.01065 112.935551 
L 813.56392 114.574283 
L 812.447106 118.734262 
L 811.888723 120.607656 
L 811.330316 122.702459 
L 809.990149 126.816441 
L 808.873335 131.105835 
L 808.426605 132.467028 
L 807.756522 134.895502 
L 807.309815 136.704968 
L 806.751408 138.770145 
L 803.736021 149.195821 
L 802.730907 152.799941 
L 799.827197 162.274497 
L 799.38049 163.690262 
L 798.040323 168.363222 
L 794.131499 181.416171 
L 793.126362 184.709228 
L 792.232925 187.612482 
L 791.674518 189.328396 
L 790.557728 192.359505 
L 789.664268 194.957933 
L 788.882508 197.238282 
L 785.53209 207.324049 
L 784.3036 210.726251 
L 782.74008 215.269797 
L 780.506476 221.496512 
L 778.272849 227.36227 
L 777.379412 229.537372 
L 776.709329 231.24549 
L 775.480838 234.277379 
L 774.699078 235.937161 
L 773.023858 239.85936 
L 770.790254 244.709291 
L 769.673441 246.972488 
L 768.333274 249.431367 
L 766.658077 252.229374 
L 765.541263 253.91956 
L 762.972606 258.028086 
L 759.733888 262.216131 
L 757.500261 264.342897 
L 754.596574 266.776828 
L 753.47976 267.620362 
L 752.698 268.206626 
L 748.007416 270.941485 
L 744.321922 272.415721 
L 743.763654 272.566964 
L 742.758541 272.920126 
L 741.865081 273.245222 
L 741.194928 273.42687 
L 740.413121 273.617094 
L 739.1847 273.914124 
L 737.732741 274.230644 
L 737.286127 274.246236 
L 736.50432 274.525335 
L 735.945821 274.553401 
L 733.712286 275.087432 
L 730.361985 275.494386 
L 729.803485 275.488149 
L 728.798372 275.627699 
L 728.016565 275.657324 
L 727.011452 275.849107 
L 726.229645 275.896663 
L 725.671377 275.86314 
L 725.112878 275.832735 
L 724.107764 276.047907 
L 723.437611 276.076752 
L 722.432498 276.223318 
L 721.427384 276.132104 
L 720.757463 276.175762 
L 718.412043 276.442387 
L 717.630237 276.527364 
L 716.401816 276.571022 
L 713.274821 276.805684 
L 712.269708 276.917947 
L 711.599555 276.869612 
L 711.041055 276.857917 
L 709.142482 277.058276 
L 705.903834 277.094918 
L 704.451874 277.075428 
L 701.660072 277.069191 
L 700.878266 277.059836 
L 699.761498 277.126882 
L 685.354715 276.916388 
L 684.126063 276.862595 
L 681.445683 276.976418 
L 667.0389 277.066852 
L 666.480632 277.053599 
L 665.475518 277.257076 
L 664.135212 277.251619 
L 661.790024 277.317106 
L 661.008218 277.243043 
L 660.338065 277.420014 
L 658.216184 277.261754 
L 657.322724 277.468349 
L 656.652803 277.342053 
L 655.870996 277.258635 
L 654.865883 277.240704 
L 653.190616 276.968622 
L 649.170161 277.094918 
L 648.388355 276.956928 
L 647.271588 276.988891 
L 646.824742 276.900016 
L 645.707975 276.948352 
L 644.702861 276.790871 
L 644.144362 276.919506 
L 643.697747 276.975638 
L 643.139248 276.955368 
L 642.58098 277.006043 
L 641.575867 276.87195 
L 641.017367 276.981875 
L 640.012254 276.657559 
L 639.230447 276.822835 
L 638.783833 276.670032 
L 637.778719 276.620917 
L 636.773606 276.23813 
L 636.215106 276.083768 
L 635.545185 275.754775 
L 634.204879 276.005028 
L 633.088112 275.854564 
L 631.524499 275.626919 
L 630.854577 275.695524 
L 630.072771 275.595735 
L 627.839005 274.969711 
L 627.504044 274.848092 
L 626.722238 274.910461 
L 626.275623 274.752201 
L 625.828778 274.327315 
L 625.493817 274.066927 
L 625.158856 274.164378 
L 624.823664 274.23922 
L 624.37705 274.018591 
L 623.81855 273.897752 
L 623.371936 273.715324 
L 622.813437 273.378534 
L 622.255169 273.311488 
L 621.585016 272.666754 
L 620.914863 272.176381 
L 620.356595 271.945618 
L 619.798096 271.418604 
L 619.239828 271.32817 
L 618.681329 271.305561 
L 617.787869 270.632761 
L 616.335909 269.538973 
L 615.889295 269.335496 
L 615.554334 269.132798 
L 615.330795 269.138256 
L 615.107488 268.908272 
L 613.879068 267.170529 
L 613.320568 266.429903 
L 612.7623 265.602741 
L 611.645533 264.089525 
L 610.752073 262.583325 
L 609.970267 261.259554 
L 608.406654 257.859691 
L 607.178233 254.522196 
L 605.726273 249.595084 
L 604.162892 243.528967 
L 603.157778 239.022842 
L 602.375972 235.569966 
L 601.705819 232.408662 
L 600.142437 226.437657 
L 598.690478 222.5903 
L 598.355517 222.33303 
L 597.573711 222.038339 
L 597.126865 222.238698 
L 596.791904 222.347063 
L 596.34529 222.872518 
L 595.786791 223.735542 
L 594.781677 226.079038 
L 594.111524 228.006225 
L 593.329717 231.134006 
L 592.994757 231.951033 
L 591.31949 238.066265 
L 590.761222 240.380137 
L 590.202723 242.531071 
L 589.420916 245.710306 
L 586.517229 256.81112 
L 586.182269 258.330573 
L 584.060388 264.696059 
L 583.613542 266.354281 
L 583.055274 267.873734 
L 582.608428 269.502332 
L 581.714968 271.174587 
L 580.709854 273.474426 
L 578.811281 277.587629 
L 578.364667 278.461568 
L 577.806167 279.082914 
L 577.136246 280.136942 
L 575.79594 281.554266 
L 575.014133 282.881156 
L 574.679173 283.313058 
L 574.120673 283.482233 
L 573.562406 283.891526 
L 573.003906 284.094224 
L 572.445638 284.639168 
L 571.998792 285.036768 
L 571.440525 285.342373 
L 570.658718 286.133674 
L 568.648491 287.183803 
L 568.313299 287.459784 
L 567.196531 287.641432 
L 566.303071 287.947818 
L 565.521265 288.431174 
L 562.95277 289.064994 
L 562.505924 289.146073 
L 561.50081 289.575636 
L 560.495697 289.779113 
L 560.049083 289.722981 
L 559.602237 289.758843 
L 557.703663 290.286637 
L 554.911629 290.639019 
L 554.353361 290.484657 
L 553.794862 290.555601 
L 553.013055 290.861207 
L 552.454788 290.949302 
L 551.338021 291.057667 
L 550.891175 290.922795 
L 549.662754 291.039736 
L 549.215908 290.911881 
L 548.880947 291.088072 
L 548.434333 291.308701 
L 547.987487 291.283753 
L 547.317334 291.148881 
L 546.647413 291.279075 
L 545.195454 291.286092 
L 544.301993 291.127832 
L 543.743726 290.985164 
L 542.291766 291.266602 
L 541.956806 291.372628 
L 541.398306 291.68525 
L 540.840038 291.569869 
L 540.058232 291.319615 
L 539.611386 291.286872 
L 539.164772 291.184743 
L 538.048005 291.317276 
L 537.489505 291.226842 
L 536.819352 291.297006 
L 535.255971 291.335207 
L 534.474164 291.5075 
L 533.245744 291.359375 
L 532.352283 291.435776 
L 531.570477 291.106782 
L 531.235516 291.237756 
L 530.900324 291.400694 
L 530.118517 291.301684 
L 529.671903 291.523092 
L 529.225057 291.435776 
L 527.996637 290.951641 
L 527.661676 291.011671 
L 527.103177 291.234638 
L 525.316256 290.980486 
L 524.757989 291.101325 
L 524.087836 290.891611 
L 523.641221 291.102105 
L 522.971068 290.726335 
L 522.077608 291.403813 
L 521.407455 291.339105 
L 520.960841 291.148102 
L 519.955728 290.55794 
L 519.620535 290.685015 
L 519.173921 290.918897 
L 518.615422 290.780907 
L 516.940387 290.176712 
L 516.605194 290.108107 
L 516.046927 289.776774 
L 515.600081 289.779893 
L 514.930159 289.524182 
L 514.148353 289.956084 
L 513.031586 289.456356 
L 512.58474 288.943375 
L 512.249779 288.923105 
L 511.69128 288.907513 
L 511.356319 289.010421 
L 511.021127 289.425951 
L 510.574513 290.069906 
L 510.351206 289.981811 
L 509.681053 289.093059 
L 508.452632 288.918428 
L 508.11744 288.820977 
L 507.000672 288.909852 
L 506.554058 288.512253 
L 506.218866 288.387516 
L 505.548944 288.519269 
L 504.767138 288.272913 
L 503.985331 288.468595 
L 503.650371 288.368025 
L 502.980218 288.430394 
L 502.086758 287.993814 
L 501.640144 287.60635 
L 501.416605 287.681192 
L 500.746683 288.156752 
L 500.411491 288.059301 
L 499.964877 287.939242 
L 499.18307 287.953275 
L 498.84811 287.709258 
L 498.28961 287.222004 
L 497.284497 287.26956 
L 496.279383 287.46758 
L 495.832769 287.317116 
L 495.385923 287.158076 
L 494.492463 287.062185 
L 493.710656 286.852471 
L 493.264042 287.140925 
L 492.482236 287.746679 
L 492.147275 287.692886 
L 491.030508 287.183024 
L 490.248701 287.296846 
L 489.801855 287.38806 
L 489.466895 287.434057 
L 488.461781 287.266442 
L 486.786515 287.020086 
L 486.116593 287.275017 
L 485.334787 287.670278 
L 484.664634 287.732646 
L 484.217788 287.70536 
L 483.771174 287.675735 
L 483.101021 287.871416 
L 482.76606 287.677294 
L 482.431099 287.488629 
L 482.207561 287.576725 
L 481.649293 287.977443 
L 481.314101 287.724071 
L 480.97914 287.554896 
L 480.644179 287.710038 
L 479.639066 288.369585 
L 479.303873 288.247966 
L 478.968913 288.083469 
L 478.745606 288.194953 
L 478.410413 288.445986 
L 478.187106 288.347756 
L 477.740492 288.024219 
L 477.070339 288.251864 
L 476.847032 288.243288 
L 476.51184 288.609703 
L 476.288532 288.798368 
L 476.065225 288.677529 
L 475.506726 288.017203 
L 475.060112 287.945479 
L 474.501612 288.014084 
L 473.943344 288.314233 
L 473.719806 288.156752 
L 473.273192 287.712377 
L 472.938231 287.822301 
L 472.714924 287.855044 
L 472.156424 287.671837 
L 471.821464 288.089706 
L 471.486271 288.465476 
L 471.151311 288.453782 
L 470.816118 288.450664 
L 470.369504 288.539539 
L 469.476044 288.24017 
L 469.141083 288.124788 
L 468.805891 288.031236 
L 468.47093 288.309555 
L 468.13597 288.583197 
L 467.689124 288.605805 
L 467.130856 288.697019 
L 466.795664 288.690003 
L 466.34905 288.292404 
L 466.014089 288.139601 
L 465.343936 288.166107 
L 465.008744 288.184038 
L 463.780323 288.994829 
L 463.333709 289.418155 
L 463.11017 289.418935 
L 461.881749 288.810842 
L 461.546789 288.77576 
L 460.430021 289.135938 
L 459.871522 288.958187 
L 459.313254 289.224813 
L 458.643101 289.502353 
L 457.749641 289.602142 
L 456.632874 289.90463 
L 455.962721 289.697254 
L 455.515875 289.613836 
L 454.399108 289.846159 
L 453.393994 289.739353 
L 452.500534 290.118242 
L 451.607074 290.066788 
L 450.378654 290.313923 
L 449.485193 290.218811 
L 449.038579 290.241419 
L 448.48008 290.243758 
L 447.809927 290.372393 
L 447.251659 290.430084 
L 446.469853 290.614071 
L 444.459625 290.65617 
L 442.896012 290.95242 
L 442.337744 291.002315 
L 440.662478 291.375747 
L 439.657364 291.430319 
L 435.413371 291.914455 
L 434.296604 291.98306 
L 433.738336 292.049327 
L 432.844876 291.946419 
L 432.063069 291.921471 
L 431.169609 291.901981 
L 429.159382 292.090646 
L 428.489229 291.997093 
L 427.260808 292.281649 
L 426.702309 292.275412 
L 425.697195 292.35961 
L 424.803735 292.503837 
L 424.245468 292.595831 
L 423.1287 292.686265 
L 420.001474 293.058917 
L 419.108246 293.099456 
L 417.544633 293.305272 
L 416.87448 293.425332 
L 415.534406 293.247581 
L 413.747485 293.479904 
L 412.965679 293.64674 
L 412.295526 293.521223 
L 411.513951 293.496276 
L 410.173645 293.512648 
L 409.503492 293.535256 
L 408.610032 293.654536 
L 406.153191 293.794086 
L 405.036423 293.682602 
L 404.142963 293.801882 
L 403.249503 293.805 
L 402.467697 293.892316 
L 401.797544 293.833066 
L 400.904084 293.928178 
L 399.00551 294.069287 
L 398.447242 294.029527 
L 397.553782 294.172195 
L 396.437015 294.069287 
L 395.766862 294.12152 
L 394.985055 294.084099 
L 394.314902 294.256392 
L 393.198135 294.16206 
L 392.193022 294.330455 
L 391.634754 294.424787 
L 390.62964 294.37879 
L 389.73618 294.317201 
L 389.177681 294.166737 
L 388.172567 294.387366 
L 387.614068 294.30083 
L 386.832493 294.393603 
L 386.273993 294.33903 
L 385.380533 294.430244 
L 383.258653 294.501188 
L 382.365192 294.681278 
L 381.583386 294.593962 
L 380.243312 294.690633 
L 378.344738 294.457531 
L 377.339624 294.602537 
L 376.669471 294.531593 
L 375.999318 294.486376 
L 375.441051 294.416991 
L 374.435937 294.516001 
L 373.765784 294.500409 
L 372.872324 294.539389 
L 372.314056 294.51756 
L 371.420596 294.51834 
L 358.242234 294.624366 
L 357.23712 294.67738 
L 354.109894 294.523797 
L 351.094553 294.466886 
L 350.312978 294.328116 
L 349.307865 294.39828 
L 345.734024 294.126977 
L 344.952218 294.099691 
L 343.612144 293.972615 
L 340.373264 293.849438 
L 339.92665 293.76446 
L 339.144843 293.791747 
L 338.363037 293.698974 
L 337.357923 293.642062 
L 336.352809 293.555526 
L 335.682656 293.593727 
L 332.332355 293.154029 
L 331.215588 293.028512 
L 329.875282 292.79463 
L 328.981822 292.800087 
L 324.73806 292.188876 
L 324.067907 292.117932 
L 322.39264 291.791277 
L 321.611066 291.743721 
L 320.940913 291.60651 
L 320.27076 291.519974 
L 319.042339 291.109121 
L 318.148879 290.890052 
L 316.696919 290.212574 
L 314.910231 290.740368 
L 314.240078 290.473742 
L 313.234964 290.109666 
L 312.006543 289.672307 
L 311.336391 289.42829 
L 310.666238 289.265352 
L 309.661124 288.883345 
L 308.097511 288.367246 
L 307.204051 288.113874 
L 305.305709 287.474597 
L 304.635556 287.181465 
L 304.077056 286.942905 
L 303.407135 286.738648 
L 302.40179 286.047137 
L 301.285023 284.848882 
L 300.838408 284.91359 
L 299.051488 285.357965 
L 296.929607 284.110595 
L 295.365994 282.883495 
L 292.015693 280.945394 
L 290.675387 279.899162 
L 289.89358 279.347201 
L 286.096665 275.68461 
L 283.751245 273.330978 
L 282.411171 272.05944 
L 280.847558 270.589103 
L 276.603796 265.340793 
L 275.598451 263.786258 
L 273.364916 260.656918 
L 272.694995 259.535065 
L 271.913189 258.192583 
L 270.572883 256.153912 
L 266.664082 249.00804 
L 265.435661 246.489912 
L 264.542201 244.629771 
L 263.760394 242.846032 
L 262.866934 240.963283 
L 259.18144 232.212981 
L 255.942792 223.525048 
L 254.155872 218.565193 
L 253.039105 215.099842 
L 249.576918 204.446522 
L 248.236844 200.233529 
L 239.190821 171.445006 
L 238.185476 168.588528 
L 236.398788 163.354251 
L 235.505328 160.934353 
L 234.835175 159.244167 
L 231.261334 151.423936 
L 230.479528 150.103283 
L 229.251107 147.921164 
L 228.245993 146.298804 
L 226.34742 144.198544 
L 225.230653 143.050184 
L 224.783807 142.656483 
L 223.778693 141.579067 
L 222.661926 141.148724 
L 221.433505 140.34495 
L 220.651699 139.811699 
L 220.093199 139.662015 
L 218.753125 139.521686 
L 217.859665 138.990774 
L 217.301397 138.6228 
L 215.62613 138.452066 
L 214.621017 138.200253 
L 214.062517 137.979624 
L 213.615903 137.819805 
L 212.94575 137.712219 
L 212.387482 137.530571 
L 211.717329 137.465864 
L 211.270484 137.398038 
L 210.712216 137.483795 
L 210.153716 137.171173 
L 209.707102 137.026166 
L 209.148603 136.892074 
L 208.590103 136.683919 
L 208.143489 136.660531 
L 207.58499 136.421971 
L 206.468223 136.528777 
L 204.457995 136.36428 
L 204.011381 136.436783 
L 203.564535 136.218494 
L 203.117921 136.058674 
L 202.001154 136.254356 
L 200.772501 136.914682 
L 199.990695 137.07684 
L 199.320774 137.046436 
L 198.873928 137.299028 
L 198.092353 137.901664 
L 197.645507 138.240793 
L 196.752047 138.951794 
L 195.858587 139.609002 
L 195.411973 139.927081 
L 195.07678 140.158624 
L 192.843246 143.211563 
L 189.604598 148.440382 
L 188.934445 149.853029 
L 188.152638 151.129245 
L 186.365718 155.024158 
L 185.695565 156.538933 
L 185.248951 157.497849 
L 184.02053 160.557804 
L 183.350377 162.161454 
L 180.223383 169.939586 
L 179.55323 171.409144 
L 176.649543 179.060201 
L 170.283669 195.215203 
L 169.725401 196.772077 
L 169.055248 198.848169 
L 168.050134 200.473648 
L 166.71006 203.854021 
L 165.146447 207.273374 
L 157.552152 225.020333 
L 156.547038 227.192316 
L 156.100424 228.127064 
L 155.653578 229.038424 
L 154.425158 232.295619 
L 153.866658 233.092377 
L 152.191623 236.536678 
L 151.52147 237.645278 
L 150.851317 238.915257 
L 150.516357 239.444609 
L 148.84109 243.193736 
L 148.394476 243.972563 
L 147.389362 245.962118 
L 146.942516 246.653629 
L 145.825749 248.925402 
L 145.26725 249.915502 
L 144.597328 251.055287 
L 144.038829 251.898821 
L 143.145369 253.529757 
L 142.810408 253.874343 
L 142.475216 254.601716 
L 141.916948 255.845968 
L 140.688528 257.70221 
L 140.130028 258.835758 
L 139.013261 260.323247 
L 138.119801 261.934693 
L 136.221227 264.898756 
L 135.10446 267.392717 
L 133.987693 269.28872 
L 133.205886 270.71462 
L 132.42408 271.837253 
L 131.86558 273.133738 
L 131.307313 274.285217 
L 130.748813 275.570008 
L 130.302199 276.29816 
L 129.967007 276.771381 
L 129.408739 278.21911 
L 128.738586 279.793915 
L 124.941438 285.9224 
L 124.606478 286.456431 
L 124.047978 287.565031 
L 123.713018 287.70614 
L 123.266172 287.734985 
L 122.931211 288.024219 
L 122.484597 288.732102 
L 121.70279 290.044179 
L 121.144291 290.59614 
L 120.697677 290.713081 
L 120.362485 290.779348 
L 119.91587 291.176947 
L 119.134064 292.007228 
L 118.68745 292.004109 
L 118.352257 292.105458 
L 116.788876 293.157927 
L 115.671877 293.422213 
L 114.778417 293.415976 
L 113.996842 294.033425 
L 113.215036 294.132435 
L 112.544883 294.050576 
L 112.209922 294.091116 
L 111.316462 294.474682 
L 110.423002 294.226767 
L 109.417888 294.880077 
L 108.747735 294.346826 
L 108.077582 294.492613 
L 107.630968 294.197922 
L 107.296007 294.30005 
L 106.625854 294.674261 
L 105.732394 294.752222 
L 105.174127 295.041456 
L 104.727281 294.930752 
L 104.39232 294.888653 
L 103.275321 295.173989 
L 101.935247 295.25117 
L 101.376748 294.937768 
L 100.930133 295.162295 
L 99.92502 295.566131 
L 99.478405 295.484272 
L 99.03156 295.457765 
L 98.026446 295.827299 
L 97.356293 295.696325 
L 96.574486 295.952036 
L 96.016219 295.691647 
L 94.899452 295.881092 
L 94.229299 295.50844 
L 93.335838 295.536506 
L 92.889224 295.305742 
L 92.554032 295.52715 
L 92.107418 295.782861 
L 91.660572 295.640973 
L 91.325611 295.580943 
L 90.990651 295.712697 
L 90.432151 296.005049 
L 90.09719 295.881871 
L 89.427038 295.569249 
L 88.980423 295.68697 
L 88.645231 295.700223 
L 88.198617 295.641753 
L 87.751771 295.708799 
L 87.305157 295.616026 
L 86.970196 295.893565 
L 86.52335 296.357431 
L 86.300043 296.383158 
L 85.964851 296.067418 
L 85.518237 295.591858 
L 85.183276 295.612907 
L 84.848084 295.605891 
L 84.513123 295.585621 
L 84.289816 295.836654 
L 83.954624 296.254523 
L 83.731316 296.199951 
L 83.172817 295.911496 
L 82.502896 295.885769 
L 81.721089 295.52715 
L 80.939283 295.861602 
L 80.380783 296.072095 
L 79.487555 295.92397 
L 78.929055 296.166428 
L 78.594095 295.960612 
L 78.258902 295.787539 
L 77.030482 295.840552 
L 76.360329 295.926309 
L 75.802061 296.018302 
L 74.461755 295.791437 
L 74.015141 295.732187 
L 73.233334 295.482713 
L 72.898374 295.636295 
L 72.339874 295.936444 
L 71.558068 295.957493 
L 70.9998 296.084569 
L 70.664608 295.879532 
L 70.217993 295.529489 
L 69.994686 295.575486 
L 69.324533 295.949697 
L 68.877919 296.039352 
L 68.31942 296.284928 
L 68.096113 296.171885 
L 67.537613 295.6667 
L 67.202652 295.764151 
L 66.867692 295.860822 
L 66.420846 295.644091 
L 66.085885 295.594197 
L 65.080772 295.911496 
L 64.633926 295.847569 
L 63.852119 295.849907 
L 63.405505 295.909937 
L 62.623699 296.129007 
L 62.065199 295.967628 
L 61.618585 295.907598 
L 60.836778 295.934885 
L 60.054972 295.881871 
L 57.374823 295.998812 
L 56.70467 296.0222 
L 55.364364 296.12199 
L 53.354137 295.959052 
L 52.349024 295.965289 
L 51.902409 295.826519 
L 51.455563 295.926309 
L 50.897296 296.075214 
L 50.115489 295.927868 
L 50.115489 295.927868 
" clip-path="url(#p1bdfc6ef7a)" style="fill: none; stroke: #5b9bd5; stroke-width: 0.8; stroke-linecap: square"/>
   </g>
   <g id="patch_9">
    <path d="M 50.14375 309.446125 
L 50.14375 22.318125 
" style="fill: none; stroke: #000000; stroke-width: 0.8; stroke-linejoin: miter; stroke-linecap: square"/>
   </g>
   <g id="patch_10">
    <path d="M 50.14375 309.446125 
L 849.32375 309.446125 
" style="fill: none; stroke: #000000; stroke-width: 0.8; stroke-linejoin: miter; stroke-linecap: square"/>
   </g>
   <g id="text_18">
    <!-- O–H stretch -->
    <g style="fill: #555555" transform="translate(191.063139 77.00349) rotate(-90) scale(0.07 -0.07)">
     <defs>
      <path id="DejaVuSans-4f" d="M 2522 4238 
Q 1834 4238 1429 3725 
Q 1025 3213 1025 2328 
Q 1025 1447 1429 934 
Q 1834 422 2522 422 
Q 3209 422 3611 934 
Q 4013 1447 4013 2328 
Q 4013 3213 3611 3725 
Q 3209 4238 2522 4238 
z
M 2522 4750 
Q 3503 4750 4090 4092 
Q 4678 3434 4678 2328 
Q 4678 1225 4090 567 
Q 3503 -91 2522 -91 
Q 1538 -91 948 565 
Q 359 1222 359 2328 
Q 359 3434 948 4092 
Q 1538 4750 2522 4750 
z
" transform="scale(0.015625)"/>
      <path id="DejaVuSans-2013" d="M 313 1978 
L 2888 1978 
L 2888 1528 
L 313 1528 
L 313 1978 
z
" transform="scale(0.015625)"/>
      <path id="DejaVuSans-48" d="M 628 4666 
L 1259 4666 
L 1259 2753 
L 3553 2753 
L 3553 4666 
L 4184 4666 
L 4184 0 
L 3553 0 
L 3553 2222 
L 1259 2222 
L 1259 0 
L 628 0 
L 628 4666 
z
" transform="scale(0.015625)"/>
      <path id="DejaVuSans-74" d="M 1172 4494 
L 1172 3500 
L 2356 3500 
L 2356 3053 
L 1172 3053 
L 1172 1153 
Q 1172 725 1289 603 
Q 1406 481 1766 481 
L 2356 481 
L 2356 0 
L 1766 0 
Q 1100 0 847 248 
Q 594 497 594 1153 
L 594 3053 
L 172 3053 
L 172 3500 
L 594 3500 
L 594 4494 
L 1172 4494 
z
" transform="scale(0.015625)"/>
      <path id="DejaVuSans-68" d="M 3513 2113 
L 3513 0 
L 2938 0 
L 2938 2094 
Q 2938 2591 2744 2837 
Q 2550 3084 2163 3084 
Q 1697 3084 1428 2787 
Q 1159 2491 1159 1978 
L 1159 0 
L 581 0 
L 581 4863 
L 1159 4863 
L 1159 2956 
Q 1366 3272 1645 3428 
Q 1925 3584 2291 3584 
Q 2894 3584 3203 3211 
Q 3513 2838 3513 2113 
z
" transform="scale(0.015625)"/>
     </defs>
     <use xlink:href="#DejaVuSans-4f"/>
     <use xlink:href="#DejaVuSans-2013" x="78.710938"/>
     <use xlink:href="#DejaVuSans-48" x="128.710938"/>
     <use xlink:href="#DejaVuSans-20" x="203.90625"/>
     <use xlink:href="#DejaVuSans-73" x="235.693359"/>
     <use xlink:href="#DejaVuSans-74" x="287.792969"/>
     <use xlink:href="#DejaVuSans-72" x="327.001953"/>
     <use xlink:href="#DejaVuSans-65" x="365.865234"/>
     <use xlink:href="#DejaVuSans-74" x="427.388672"/>
     <use xlink:href="#DejaVuSans-63" x="466.597656"/>
     <use xlink:href="#DejaVuSans-68" x="521.578125"/>
    </g>
   </g>
   <g id="text_19">
    <!-- C–H stretch -->
    <g style="fill: #555555" transform="translate(301.095168 76.381146) rotate(-90) scale(0.07 -0.07)">
     <defs>
      <path id="DejaVuSans-43" d="M 4122 4306 
L 4122 3641 
Q 3803 3938 3442 4084 
Q 3081 4231 2675 4231 
Q 1875 4231 1450 3742 
Q 1025 3253 1025 2328 
Q 1025 1406 1450 917 
Q 1875 428 2675 428 
Q 3081 428 3442 575 
Q 3803 722 4122 1019 
L 4122 359 
Q 3791 134 3420 21 
Q 3050 -91 2638 -91 
Q 1578 -91 968 557 
Q 359 1206 359 2328 
Q 359 3453 968 4101 
Q 1578 4750 2638 4750 
Q 3056 4750 3426 4639 
Q 3797 4528 4122 4306 
z
" transform="scale(0.015625)"/>
     </defs>
     <use xlink:href="#DejaVuSans-43"/>
     <use xlink:href="#DejaVuSans-2013" x="69.824219"/>
     <use xlink:href="#DejaVuSans-48" x="119.824219"/>
     <use xlink:href="#DejaVuSans-20" x="195.019531"/>
     <use xlink:href="#DejaVuSans-73" x="226.806641"/>
     <use xlink:href="#DejaVuSans-74" x="278.90625"/>
     <use xlink:href="#DejaVuSans-72" x="318.115234"/>
     <use xlink:href="#DejaVuSans-65" x="356.978516"/>
     <use xlink:href="#DejaVuSans-74" x="418.501953"/>
     <use xlink:href="#DejaVuSans-63" x="457.710938"/>
     <use xlink:href="#DejaVuSans-68" x="512.691406"/>
    </g>
   </g>
   <g id="text_20">
    <!-- C=O stretch -->
    <g style="fill: #555555" transform="translate(581.387284 78.993021) rotate(-90) scale(0.07 -0.07)">
     <defs>
      <path id="DejaVuSans-3d" d="M 678 2906 
L 4684 2906 
L 4684 2381 
L 678 2381 
L 678 2906 
z
M 678 1631 
L 4684 1631 
L 4684 1100 
L 678 1100 
L 678 1631 
z
" transform="scale(0.015625)"/>
     </defs>
     <use xlink:href="#DejaVuSans-43"/>
     <use xlink:href="#DejaVuSans-3d" x="69.824219"/>
     <use xlink:href="#DejaVuSans-4f" x="153.613281"/>
     <use xlink:href="#DejaVuSans-20" x="232.324219"/>
     <use xlink:href="#DejaVuSans-73" x="264.111328"/>
     <use xlink:href="#DejaVuSans-74" x="316.210938"/>
     <use xlink:href="#DejaVuSans-72" x="355.419922"/>
     <use xlink:href="#DejaVuSans-65" x="394.283203"/>
     <use xlink:href="#DejaVuSans-74" x="455.806641"/>
     <use xlink:href="#DejaVuSans-63" x="495.015625"/>
     <use xlink:href="#DejaVuSans-68" x="549.996094"/>
    </g>
   </g>
   <g id="text_21">
    <!-- C=C stretch -->
    <g style="fill: #555555" transform="translate(598.760762 78.370677) rotate(-90) scale(0.07 -0.07)">
     <use xlink:href="#DejaVuSans-43"/>
     <use xlink:href="#DejaVuSans-3d" x="69.824219"/>
     <use xlink:href="#DejaVuSans-43" x="153.613281"/>
     <use xlink:href="#DejaVuSans-20" x="223.4375"/>
     <use xlink:href="#DejaVuSans-73" x="255.224609"/>
     <use xlink:href="#DejaVuSans-74" x="307.324219"/>
     <use xlink:href="#DejaVuSans-72" x="346.533203"/>
     <use xlink:href="#DejaVuSans-65" x="385.396484"/>
     <use xlink:href="#DejaVuSans-74" x="446.919922"/>
     <use xlink:href="#DejaVuSans-63" x="486.128906"/>
     <use xlink:href="#DejaVuSans-68" x="541.109375"/>
    </g>
   </g>
   <g id="text_22">
    <!-- C–H bend -->
    <g style="fill: #555555" transform="translate(650.881197 69.564896) rotate(-90) scale(0.07 -0.07)">
     <defs>
      <path id="DejaVuSans-64" d="M 2906 2969 
L 2906 4863 
L 3481 4863 
L 3481 0 
L 2906 0 
L 2906 525 
Q 2725 213 2448 61 
Q 2172 -91 1784 -91 
Q 1150 -91 751 415 
Q 353 922 353 1747 
Q 353 2572 751 3078 
Q 1150 3584 1784 3584 
Q 2172 3584 2448 3432 
Q 2725 3281 2906 2969 
z
M 947 1747 
Q 947 1113 1208 752 
Q 1469 391 1925 391 
Q 2381 391 2643 752 
Q 2906 1113 2906 1747 
Q 2906 2381 2643 2742 
Q 2381 3103 1925 3103 
Q 1469 3103 1208 2742 
Q 947 2381 947 1747 
z
" transform="scale(0.015625)"/>
     </defs>
     <use xlink:href="#DejaVuSans-43"/>
     <use xlink:href="#DejaVuSans-2013" x="69.824219"/>
     <use xlink:href="#DejaVuSans-48" x="119.824219"/>
     <use xlink:href="#DejaVuSans-20" x="195.019531"/>
     <use xlink:href="#DejaVuSans-62" x="226.806641"/>
     <use xlink:href="#DejaVuSans-65" x="290.283203"/>
     <use xlink:href="#DejaVuSans-6e" x="351.806641"/>
     <use xlink:href="#DejaVuSans-64" x="415.185547"/>
    </g>
   </g>
   <g id="text_23">
    <!-- C–O stretch -->
    <g style="fill: #555555" transform="translate(712.267486 76.62724) rotate(-90) scale(0.07 -0.07)">
     <use xlink:href="#DejaVuSans-43"/>
     <use xlink:href="#DejaVuSans-2013" x="69.824219"/>
     <use xlink:href="#DejaVuSans-4f" x="119.824219"/>
     <use xlink:href="#DejaVuSans-20" x="198.535156"/>
     <use xlink:href="#DejaVuSans-73" x="230.322266"/>
     <use xlink:href="#DejaVuSans-74" x="282.421875"/>
     <use xlink:href="#DejaVuSans-72" x="321.630859"/>
     <use xlink:href="#DejaVuSans-65" x="360.494141"/>
     <use xlink:href="#DejaVuSans-74" x="422.017578"/>
     <use xlink:href="#DejaVuSans-63" x="461.226562"/>
     <use xlink:href="#DejaVuSans-68" x="516.207031"/>
    </g>
   </g>
   <g id="text_24">
    <!-- Water -->
    <g transform="translate(431.99625 16.318125) scale(0.12 -0.12)">
     <use xlink:href="#DejaVuSans-57"/>
     <use xlink:href="#DejaVuSans-61" x="92.501953"/>
     <use xlink:href="#DejaVuSans-74" x="153.78125"/>
     <use xlink:href="#DejaVuSans-65" x="192.990234"/>
     <use xlink:href="#DejaVuSans-72" x="254.513672"/>
    </g>
   </g>
  </g>
 </g>
 <defs>
  <clipPath id="p1bdfc6ef7a">
   <rect x="50.14375" y="22.318125" width="799.18" height="287.128"/>
  </clipPath>
 </defs>
</svg>
