<?xml version="1.0" encoding="utf-8" standalone="no"?>
<!DOCTYPE svg PUBLIC "-//W3C//DTD SVG 1.1//EN"
  "http://www.w3.org/Graphics/SVG/1.1/DTD/svg11.dtd">
<svg xmlns:xlink="http://www.w3.org/1999/xlink" width="855.752812pt" height="348.339312pt" viewBox="0 0 855.752812 348.339312" xmlns="http://www.w3.org/2000/svg" version="1.1">
 <metadata>
  <rdf:RDF xmlns:dc="http://purl.org/dc/elements/1.1/" xmlns:cc="http://creativecommons.org/ns#" xmlns:rdf="http://www.w3.org/1999/02/22-rdf-syntax-ns#">
   <cc:Work>
    <dc:type rdf:resource="http://purl.org/dc/dcmitype/StillImage"/>
    <dc:date>2026-04-05T20:24:38.890636</dc:date>
    <dc:format>image/svg+xml</dc:format>
    <dc:creator>
     <cc:Agent>
      <dc:title>Matplotlib v3.9.4, https://matplotlib.org/</dc:title>
     </cc:Agent>
    </dc:creator>
   </cc:Work>
  </rdf:RDF>
 </metadata>
 <defs>
  <style type="text/css">*{stroke-linejoin: round; stroke-linecap: butt}</style>
 </defs>
 <g id="figure_1">
  <g id="patch_1">
   <path d="M 0 348.339312 
L 855.752812 348.339312 
L 855.752812 0 
L 0 0 
z
" style="fill: #f6f8fa"/>
  </g>
  <g id="axes_1">
   <g id="patch_2">
    <path d="M 44.782813 309.9565 
L 848.552813 309.9565 
L 848.552813 21.5325 
L 44.782813 21.5325 
z
" style="fill: #f6f8fa"/>
   </g>
   <g id="patch_3">
    <path d="M 231.164262 309.9565 
L 137.973537 309.9565 
L 137.973537 21.5325 
L 231.164262 21.5325 
z
" clip-path="url(#pdef6121c39)" style="fill: #cce5ff; opacity: 0.35; stroke: #cce5ff; stroke-linejoin: miter"/>
   </g>
   <g id="patch_4">
    <path d="M 312.706146 309.9565 
L 277.759624 309.9565 
L 277.759624 21.5325 
L 312.706146 21.5325 
z
" clip-path="url(#pdef6121c39)" style="fill: #d4edda; opacity: 0.35; stroke: #d4edda; stroke-linejoin: miter"/>
   </g>
   <g id="patch_5">
    <path d="M 585.289015 309.9565 
L 568.980639 309.9565 
L 568.980639 21.5325 
L 585.289015 21.5325 
z
" clip-path="url(#pdef6121c39)" style="fill: #f8d7da; opacity: 0.35; stroke: #f8d7da; stroke-linejoin: miter"/>
   </g>
   <g id="patch_6">
    <path d="M 603.92716 309.9565 
L 585.289015 309.9565 
L 585.289015 21.5325 
L 603.92716 21.5325 
z
" clip-path="url(#pdef6121c39)" style="fill: #fff3cd; opacity: 0.35; stroke: #fff3cd; stroke-linejoin: miter"/>
   </g>
   <g id="patch_7">
    <path d="M 662.171363 309.9565 
L 631.884378 309.9565 
L 631.884378 21.5325 
L 662.171363 21.5325 
z
" clip-path="url(#pdef6121c39)" style="fill: #fce4b8; opacity: 0.35; stroke: #fce4b8; stroke-linejoin: miter"/>
   </g>
   <g id="patch_8">
    <path d="M 743.713247 309.9565 
L 673.820204 309.9565 
L 673.820204 21.5325 
L 743.713247 21.5325 
z
" clip-path="url(#pdef6121c39)" style="fill: #e2d9f3; opacity: 0.35; stroke: #e2d9f3; stroke-linejoin: miter"/>
   </g>
   <g id="matplotlib.axis_1">
    <g id="xtick_1">
     <g id="line2d_1">
      <defs>
       <path id="m11f483bdc0" d="M 0 0 
L 0 3.5 
" style="stroke: #000000; stroke-width: 0.8"/>
      </defs>
      <g>
       <use xlink:href="#m11f483bdc0" x="743.713247" y="309.9565" style="stroke: #000000; stroke-width: 0.8"/>
      </g>
     </g>
     <g id="text_1">
      <!-- 1,000 -->
      <g transform="translate(732.463247 323.90025) scale(0.1 -0.1)">
       <defs>
        <path id="TimesNewRomanPSMT-31" d="M 750 3822 
L 1781 4325 
L 1884 4325 
L 1884 747 
Q 1884 391 1914 303 
Q 1944 216 2037 169 
Q 2131 122 2419 116 
L 2419 0 
L 825 0 
L 825 116 
Q 1125 122 1212 167 
Q 1300 213 1334 289 
Q 1369 366 1369 747 
L 1369 3034 
Q 1369 3497 1338 3628 
Q 1316 3728 1258 3775 
Q 1200 3822 1119 3822 
Q 1003 3822 797 3725 
L 750 3822 
z
" transform="scale(0.015625)"/>
        <path id="TimesNewRomanPSMT-2c" d="M 344 -1066 
L 344 -928 
Q 666 -822 842 -598 
Q 1019 -375 1019 -125 
Q 1019 -66 991 -25 
Q 969 3 947 3 
Q 913 3 797 -59 
Q 741 -88 678 -88 
Q 525 -88 434 3 
Q 344 94 344 253 
Q 344 406 461 515 
Q 578 625 747 625 
Q 953 625 1114 445 
Q 1275 266 1275 -31 
Q 1275 -353 1051 -629 
Q 828 -906 344 -1066 
z
" transform="scale(0.015625)"/>
        <path id="TimesNewRomanPSMT-30" d="M 231 2094 
Q 231 2819 450 3342 
Q 669 3866 1031 4122 
Q 1313 4325 1613 4325 
Q 2100 4325 2488 3828 
Q 2972 3213 2972 2159 
Q 2972 1422 2759 906 
Q 2547 391 2217 158 
Q 1888 -75 1581 -75 
Q 975 -75 572 641 
Q 231 1244 231 2094 
z
M 844 2016 
Q 844 1141 1059 588 
Q 1238 122 1591 122 
Q 1759 122 1940 273 
Q 2122 425 2216 781 
Q 2359 1319 2359 2297 
Q 2359 3022 2209 3506 
Q 2097 3866 1919 4016 
Q 1791 4119 1609 4119 
Q 1397 4119 1231 3928 
Q 1006 3669 925 3112 
Q 844 2556 844 2016 
z
" transform="scale(0.015625)"/>
       </defs>
       <use xlink:href="#TimesNewRomanPSMT-31"/>
       <use xlink:href="#TimesNewRomanPSMT-2c" x="50"/>
       <use xlink:href="#TimesNewRomanPSMT-30" x="75"/>
       <use xlink:href="#TimesNewRomanPSMT-30" x="125"/>
       <use xlink:href="#TimesNewRomanPSMT-30" x="175"/>
      </g>
     </g>
    </g>
    <g id="xtick_2">
     <g id="line2d_2">
      <g>
       <use xlink:href="#m11f483bdc0" x="627.224841" y="309.9565" style="stroke: #000000; stroke-width: 0.8"/>
      </g>
     </g>
     <g id="text_2">
      <!-- 1,500 -->
      <g transform="translate(615.974841 323.90025) scale(0.1 -0.1)">
       <defs>
        <path id="TimesNewRomanPSMT-35" d="M 2778 4238 
L 2534 3706 
L 1259 3706 
L 981 3138 
Q 1809 3016 2294 2522 
Q 2709 2097 2709 1522 
Q 2709 1188 2573 903 
Q 2438 619 2231 419 
Q 2025 219 1772 97 
Q 1413 -75 1034 -75 
Q 653 -75 479 54 
Q 306 184 306 341 
Q 306 428 378 495 
Q 450 563 559 563 
Q 641 563 702 538 
Q 763 513 909 409 
Q 1144 247 1384 247 
Q 1750 247 2026 523 
Q 2303 800 2303 1197 
Q 2303 1581 2056 1914 
Q 1809 2247 1375 2428 
Q 1034 2569 447 2591 
L 1259 4238 
L 2778 4238 
z
" transform="scale(0.015625)"/>
       </defs>
       <use xlink:href="#TimesNewRomanPSMT-31"/>
       <use xlink:href="#TimesNewRomanPSMT-2c" x="50"/>
       <use xlink:href="#TimesNewRomanPSMT-35" x="75"/>
       <use xlink:href="#TimesNewRomanPSMT-30" x="125"/>
       <use xlink:href="#TimesNewRomanPSMT-30" x="175"/>
      </g>
     </g>
    </g>
    <g id="xtick_3">
     <g id="line2d_3">
      <g>
       <use xlink:href="#m11f483bdc0" x="510.736436" y="309.9565" style="stroke: #000000; stroke-width: 0.8"/>
      </g>
     </g>
     <g id="text_3">
      <!-- 2,000 -->
      <g transform="translate(499.486436 323.90025) scale(0.1 -0.1)">
       <defs>
        <path id="TimesNewRomanPSMT-32" d="M 2934 816 
L 2638 0 
L 138 0 
L 138 116 
Q 1241 1122 1691 1759 
Q 2141 2397 2141 2925 
Q 2141 3328 1894 3587 
Q 1647 3847 1303 3847 
Q 991 3847 742 3664 
Q 494 3481 375 3128 
L 259 3128 
Q 338 3706 661 4015 
Q 984 4325 1469 4325 
Q 1984 4325 2329 3994 
Q 2675 3663 2675 3213 
Q 2675 2891 2525 2569 
Q 2294 2063 1775 1497 
Q 997 647 803 472 
L 1909 472 
Q 2247 472 2383 497 
Q 2519 522 2628 598 
Q 2738 675 2819 816 
L 2934 816 
z
" transform="scale(0.015625)"/>
       </defs>
       <use xlink:href="#TimesNewRomanPSMT-32"/>
       <use xlink:href="#TimesNewRomanPSMT-2c" x="50"/>
       <use xlink:href="#TimesNewRomanPSMT-30" x="75"/>
       <use xlink:href="#TimesNewRomanPSMT-30" x="125"/>
       <use xlink:href="#TimesNewRomanPSMT-30" x="175"/>
      </g>
     </g>
    </g>
    <g id="xtick_4">
     <g id="line2d_4">
      <g>
       <use xlink:href="#m11f483bdc0" x="394.24803" y="309.9565" style="stroke: #000000; stroke-width: 0.8"/>
      </g>
     </g>
     <g id="text_4">
      <!-- 2,500 -->
      <g transform="translate(382.99803 323.90025) scale(0.1 -0.1)">
       <use xlink:href="#TimesNewRomanPSMT-32"/>
       <use xlink:href="#TimesNewRomanPSMT-2c" x="50"/>
       <use xlink:href="#TimesNewRomanPSMT-35" x="75"/>
       <use xlink:href="#TimesNewRomanPSMT-30" x="125"/>
       <use xlink:href="#TimesNewRomanPSMT-30" x="175"/>
      </g>
     </g>
    </g>
    <g id="xtick_5">
     <g id="line2d_5">
      <g>
       <use xlink:href="#m11f483bdc0" x="277.759624" y="309.9565" style="stroke: #000000; stroke-width: 0.8"/>
      </g>
     </g>
     <g id="text_5">
      <!-- 3,000 -->
      <g transform="translate(266.509624 323.90025) scale(0.1 -0.1)">
       <defs>
        <path id="TimesNewRomanPSMT-33" d="M 325 3431 
Q 506 3859 782 4092 
Q 1059 4325 1472 4325 
Q 1981 4325 2253 3994 
Q 2459 3747 2459 3466 
Q 2459 3003 1878 2509 
Q 2269 2356 2469 2072 
Q 2669 1788 2669 1403 
Q 2669 853 2319 450 
Q 1863 -75 997 -75 
Q 569 -75 414 31 
Q 259 138 259 259 
Q 259 350 332 419 
Q 406 488 509 488 
Q 588 488 669 463 
Q 722 447 909 348 
Q 1097 250 1169 231 
Q 1284 197 1416 197 
Q 1734 197 1970 444 
Q 2206 691 2206 1028 
Q 2206 1275 2097 1509 
Q 2016 1684 1919 1775 
Q 1784 1900 1550 2001 
Q 1316 2103 1072 2103 
L 972 2103 
L 972 2197 
Q 1219 2228 1467 2375 
Q 1716 2522 1828 2728 
Q 1941 2934 1941 3181 
Q 1941 3503 1739 3701 
Q 1538 3900 1238 3900 
Q 753 3900 428 3381 
L 325 3431 
z
" transform="scale(0.015625)"/>
       </defs>
       <use xlink:href="#TimesNewRomanPSMT-33"/>
       <use xlink:href="#TimesNewRomanPSMT-2c" x="50"/>
       <use xlink:href="#TimesNewRomanPSMT-30" x="75"/>
       <use xlink:href="#TimesNewRomanPSMT-30" x="125"/>
       <use xlink:href="#TimesNewRomanPSMT-30" x="175"/>
      </g>
     </g>
    </g>
    <g id="xtick_6">
     <g id="line2d_6">
      <g>
       <use xlink:href="#m11f483bdc0" x="161.271218" y="309.9565" style="stroke: #000000; stroke-width: 0.8"/>
      </g>
     </g>
     <g id="text_6">
      <!-- 3,500 -->
      <g transform="translate(150.021218 323.90025) scale(0.1 -0.1)">
       <use xlink:href="#TimesNewRomanPSMT-33"/>
       <use xlink:href="#TimesNewRomanPSMT-2c" x="50"/>
       <use xlink:href="#TimesNewRomanPSMT-35" x="75"/>
       <use xlink:href="#TimesNewRomanPSMT-30" x="125"/>
       <use xlink:href="#TimesNewRomanPSMT-30" x="175"/>
      </g>
     </g>
    </g>
    <g id="xtick_7">
     <g id="line2d_7">
      <g>
       <use xlink:href="#m11f483bdc0" x="44.782812" y="309.9565" style="stroke: #000000; stroke-width: 0.8"/>
      </g>
     </g>
     <g id="text_7">
      <!-- 4,000 -->
      <g transform="translate(33.532812 323.90025) scale(0.1 -0.1)">
       <defs>
        <path id="TimesNewRomanPSMT-34" d="M 2978 1563 
L 2978 1119 
L 2409 1119 
L 2409 0 
L 1894 0 
L 1894 1119 
L 100 1119 
L 100 1519 
L 2066 4325 
L 2409 4325 
L 2409 1563 
L 2978 1563 
z
M 1894 1563 
L 1894 3666 
L 406 1563 
L 1894 1563 
z
" transform="scale(0.015625)"/>
       </defs>
       <use xlink:href="#TimesNewRomanPSMT-34"/>
       <use xlink:href="#TimesNewRomanPSMT-2c" x="50"/>
       <use xlink:href="#TimesNewRomanPSMT-30" x="75"/>
       <use xlink:href="#TimesNewRomanPSMT-30" x="125"/>
       <use xlink:href="#TimesNewRomanPSMT-30" x="175"/>
      </g>
     </g>
    </g>
    <g id="text_8">
     <!-- Wavenumber (cm$^{-1}$) -->
     <g transform="translate(403.667813 338.939312) scale(0.1 -0.1)">
      <defs>
       <path id="TimesNewRomanPSMT-57" d="M 5991 4238 
L 5991 4122 
Q 5825 4122 5722 4062 
Q 5619 4003 5525 3841 
Q 5463 3731 5328 3319 
L 4147 -97 
L 4022 -97 
L 3056 2613 
L 2097 -97 
L 1984 -97 
L 725 3422 
Q 584 3816 547 3888 
Q 484 4006 376 4064 
Q 269 4122 84 4122 
L 84 4238 
L 1653 4238 
L 1653 4122 
L 1578 4122 
Q 1413 4122 1325 4047 
Q 1238 3972 1238 3866 
Q 1238 3756 1375 3363 
L 2209 984 
L 2913 3006 
L 2788 3363 
L 2688 3647 
Q 2622 3803 2541 3922 
Q 2500 3981 2441 4022 
Q 2363 4078 2284 4103 
Q 2225 4122 2097 4122 
L 2097 4238 
L 3747 4238 
L 3747 4122 
L 3634 4122 
Q 3459 4122 3378 4047 
Q 3297 3972 3297 3844 
Q 3297 3684 3438 3288 
L 4250 984 
L 5056 3319 
Q 5194 3706 5194 3856 
Q 5194 3928 5148 3990 
Q 5103 4053 5034 4078 
Q 4916 4122 4725 4122 
L 4725 4238 
L 5991 4238 
z
" transform="scale(0.015625)"/>
       <path id="TimesNewRomanPSMT-61" d="M 1822 413 
Q 1381 72 1269 19 
Q 1100 -59 909 -59 
Q 613 -59 420 144 
Q 228 347 228 678 
Q 228 888 322 1041 
Q 450 1253 767 1440 
Q 1084 1628 1822 1897 
L 1822 2009 
Q 1822 2438 1686 2597 
Q 1550 2756 1291 2756 
Q 1094 2756 978 2650 
Q 859 2544 859 2406 
L 866 2225 
Q 866 2081 792 2003 
Q 719 1925 600 1925 
Q 484 1925 411 2006 
Q 338 2088 338 2228 
Q 338 2497 613 2722 
Q 888 2947 1384 2947 
Q 1766 2947 2009 2819 
Q 2194 2722 2281 2516 
Q 2338 2381 2338 1966 
L 2338 994 
Q 2338 584 2353 492 
Q 2369 400 2405 369 
Q 2441 338 2488 338 
Q 2538 338 2575 359 
Q 2641 400 2828 588 
L 2828 413 
Q 2478 -56 2159 -56 
Q 2006 -56 1915 50 
Q 1825 156 1822 413 
z
M 1822 616 
L 1822 1706 
Q 1350 1519 1213 1441 
Q 966 1303 859 1153 
Q 753 1003 753 825 
Q 753 600 887 451 
Q 1022 303 1197 303 
Q 1434 303 1822 616 
z
" transform="scale(0.015625)"/>
       <path id="TimesNewRomanPSMT-76" d="M 53 2863 
L 1400 2863 
L 1400 2747 
L 1313 2747 
Q 1191 2747 1127 2687 
Q 1063 2628 1063 2528 
Q 1063 2419 1128 2269 
L 1794 688 
L 2463 2328 
Q 2534 2503 2534 2594 
Q 2534 2638 2509 2666 
Q 2475 2713 2422 2730 
Q 2369 2747 2206 2747 
L 2206 2863 
L 3141 2863 
L 3141 2747 
Q 2978 2734 2916 2681 
Q 2806 2588 2719 2369 
L 1703 -88 
L 1575 -88 
L 553 2328 
Q 484 2497 421 2570 
Q 359 2644 263 2694 
Q 209 2722 53 2747 
L 53 2863 
z
" transform="scale(0.015625)"/>
       <path id="TimesNewRomanPSMT-65" d="M 681 1784 
Q 678 1147 991 784 
Q 1303 422 1725 422 
Q 2006 422 2214 576 
Q 2422 731 2563 1106 
L 2659 1044 
Q 2594 616 2278 264 
Q 1963 -88 1488 -88 
Q 972 -88 605 314 
Q 238 716 238 1394 
Q 238 2128 614 2539 
Q 991 2950 1559 2950 
Q 2041 2950 2350 2633 
Q 2659 2316 2659 1784 
L 681 1784 
z
M 681 1966 
L 2006 1966 
Q 1991 2241 1941 2353 
Q 1863 2528 1708 2628 
Q 1553 2728 1384 2728 
Q 1125 2728 920 2526 
Q 716 2325 681 1966 
z
" transform="scale(0.015625)"/>
       <path id="TimesNewRomanPSMT-6e" d="M 1034 2341 
Q 1538 2947 1994 2947 
Q 2228 2947 2397 2830 
Q 2566 2713 2666 2444 
Q 2734 2256 2734 1869 
L 2734 647 
Q 2734 375 2778 278 
Q 2813 200 2889 156 
Q 2966 113 3172 113 
L 3172 0 
L 1756 0 
L 1756 113 
L 1816 113 
Q 2016 113 2095 173 
Q 2175 234 2206 353 
Q 2219 400 2219 647 
L 2219 1819 
Q 2219 2209 2117 2386 
Q 2016 2563 1775 2563 
Q 1403 2563 1034 2156 
L 1034 647 
Q 1034 356 1069 288 
Q 1113 197 1189 155 
Q 1266 113 1500 113 
L 1500 0 
L 84 0 
L 84 113 
L 147 113 
Q 366 113 442 223 
Q 519 334 519 647 
L 519 1709 
Q 519 2225 495 2337 
Q 472 2450 423 2490 
Q 375 2531 294 2531 
Q 206 2531 84 2484 
L 38 2597 
L 900 2947 
L 1034 2947 
L 1034 2341 
z
" transform="scale(0.015625)"/>
       <path id="TimesNewRomanPSMT-75" d="M 2709 2863 
L 2709 1128 
Q 2709 631 2732 520 
Q 2756 409 2807 365 
Q 2859 322 2928 322 
Q 3025 322 3147 375 
L 3191 266 
L 2334 -88 
L 2194 -88 
L 2194 519 
Q 1825 119 1631 15 
Q 1438 -88 1222 -88 
Q 981 -88 804 51 
Q 628 191 559 409 
Q 491 628 491 1028 
L 491 2306 
Q 491 2509 447 2587 
Q 403 2666 317 2708 
Q 231 2750 6 2747 
L 6 2863 
L 1009 2863 
L 1009 947 
Q 1009 547 1148 422 
Q 1288 297 1484 297 
Q 1619 297 1789 381 
Q 1959 466 2194 703 
L 2194 2325 
Q 2194 2569 2105 2655 
Q 2016 2741 1734 2747 
L 1734 2863 
L 2709 2863 
z
" transform="scale(0.015625)"/>
       <path id="TimesNewRomanPSMT-6d" d="M 1050 2338 
Q 1363 2650 1419 2697 
Q 1559 2816 1721 2881 
Q 1884 2947 2044 2947 
Q 2313 2947 2506 2790 
Q 2700 2634 2766 2338 
Q 3088 2713 3309 2830 
Q 3531 2947 3766 2947 
Q 3994 2947 4170 2830 
Q 4347 2713 4450 2447 
Q 4519 2266 4519 1878 
L 4519 647 
Q 4519 378 4559 278 
Q 4591 209 4675 161 
Q 4759 113 4950 113 
L 4950 0 
L 3538 0 
L 3538 113 
L 3597 113 
Q 3781 113 3884 184 
Q 3956 234 3988 344 
Q 4000 397 4000 647 
L 4000 1878 
Q 4000 2228 3916 2372 
Q 3794 2572 3525 2572 
Q 3359 2572 3192 2489 
Q 3025 2406 2788 2181 
L 2781 2147 
L 2788 2013 
L 2788 647 
Q 2788 353 2820 281 
Q 2853 209 2943 161 
Q 3034 113 3253 113 
L 3253 0 
L 1806 0 
L 1806 113 
Q 2044 113 2133 169 
Q 2222 225 2256 338 
Q 2272 391 2272 647 
L 2272 1878 
Q 2272 2228 2169 2381 
Q 2031 2581 1784 2581 
Q 1616 2581 1450 2491 
Q 1191 2353 1050 2181 
L 1050 647 
Q 1050 366 1089 281 
Q 1128 197 1204 155 
Q 1281 113 1516 113 
L 1516 0 
L 100 0 
L 100 113 
Q 297 113 375 155 
Q 453 197 493 289 
Q 534 381 534 647 
L 534 1741 
Q 534 2213 506 2350 
Q 484 2453 437 2492 
Q 391 2531 309 2531 
Q 222 2531 100 2484 
L 53 2597 
L 916 2947 
L 1050 2947 
L 1050 2338 
z
" transform="scale(0.015625)"/>
       <path id="TimesNewRomanPSMT-62" d="M 984 2369 
Q 1400 2947 1881 2947 
Q 2322 2947 2650 2570 
Q 2978 2194 2978 1541 
Q 2978 778 2472 313 
Q 2038 -88 1503 -88 
Q 1253 -88 995 3 
Q 738 94 469 275 
L 469 3241 
Q 469 3728 445 3840 
Q 422 3953 372 3993 
Q 322 4034 247 4034 
Q 159 4034 28 3984 
L -16 4094 
L 844 4444 
L 984 4444 
L 984 2369 
z
M 984 2169 
L 984 456 
Q 1144 300 1314 220 
Q 1484 141 1663 141 
Q 1947 141 2192 453 
Q 2438 766 2438 1363 
Q 2438 1913 2192 2208 
Q 1947 2503 1634 2503 
Q 1469 2503 1303 2419 
Q 1178 2356 984 2169 
z
" transform="scale(0.015625)"/>
       <path id="TimesNewRomanPSMT-72" d="M 1038 2947 
L 1038 2303 
Q 1397 2947 1775 2947 
Q 1947 2947 2059 2842 
Q 2172 2738 2172 2600 
Q 2172 2478 2090 2393 
Q 2009 2309 1897 2309 
Q 1788 2309 1652 2417 
Q 1516 2525 1450 2525 
Q 1394 2525 1328 2463 
Q 1188 2334 1038 2041 
L 1038 669 
Q 1038 431 1097 309 
Q 1138 225 1241 169 
Q 1344 113 1538 113 
L 1538 0 
L 72 0 
L 72 113 
Q 291 113 397 181 
Q 475 231 506 341 
Q 522 394 522 644 
L 522 1753 
Q 522 2253 501 2348 
Q 481 2444 426 2487 
Q 372 2531 291 2531 
Q 194 2531 72 2484 
L 41 2597 
L 906 2947 
L 1038 2947 
z
" transform="scale(0.015625)"/>
       <path id="TimesNewRomanPSMT-20" transform="scale(0.015625)"/>
       <path id="TimesNewRomanPSMT-28" d="M 1988 -1253 
L 1988 -1369 
Q 1516 -1131 1200 -813 
Q 750 -359 506 256 
Q 263 872 263 1534 
Q 263 2503 741 3301 
Q 1219 4100 1988 4444 
L 1988 4313 
Q 1603 4100 1356 3731 
Q 1109 3363 987 2797 
Q 866 2231 866 1616 
Q 866 947 969 400 
Q 1050 -31 1165 -292 
Q 1281 -553 1476 -793 
Q 1672 -1034 1988 -1253 
z
" transform="scale(0.015625)"/>
       <path id="TimesNewRomanPSMT-63" d="M 2631 1088 
Q 2516 522 2178 217 
Q 1841 -88 1431 -88 
Q 944 -88 581 321 
Q 219 731 219 1428 
Q 219 2103 620 2525 
Q 1022 2947 1584 2947 
Q 2006 2947 2278 2723 
Q 2550 2500 2550 2259 
Q 2550 2141 2473 2067 
Q 2397 1994 2259 1994 
Q 2075 1994 1981 2113 
Q 1928 2178 1911 2362 
Q 1894 2547 1784 2644 
Q 1675 2738 1481 2738 
Q 1169 2738 978 2506 
Q 725 2200 725 1697 
Q 725 1184 976 792 
Q 1228 400 1656 400 
Q 1963 400 2206 609 
Q 2378 753 2541 1131 
L 2631 1088 
z
" transform="scale(0.015625)"/>
       <path id="DejaVuSerif-2212" d="M 678 2259 
L 4684 2259 
L 4684 1753 
L 678 1753 
L 678 2259 
z
" transform="scale(0.015625)"/>
       <path id="DejaVuSerif-31" d="M 909 0 
L 909 331 
L 1722 331 
L 1722 4213 
L 781 3603 
L 781 4013 
L 1919 4750 
L 2350 4750 
L 2350 331 
L 3163 331 
L 3163 0 
L 909 0 
z
" transform="scale(0.015625)"/>
       <path id="TimesNewRomanPSMT-29" d="M 144 4313 
L 144 4444 
Q 619 4209 934 3891 
Q 1381 3434 1625 2820 
Q 1869 2206 1869 1541 
Q 1869 572 1392 -226 
Q 916 -1025 144 -1369 
L 144 -1253 
Q 528 -1038 776 -670 
Q 1025 -303 1145 264 
Q 1266 831 1266 1447 
Q 1266 2113 1163 2663 
Q 1084 3094 967 3353 
Q 850 3613 656 3853 
Q 463 4094 144 4313 
z
" transform="scale(0.015625)"/>
      </defs>
      <use xlink:href="#TimesNewRomanPSMT-57" transform="translate(0 0.7125)"/>
      <use xlink:href="#TimesNewRomanPSMT-61" transform="translate(94.384766 0.7125)"/>
      <use xlink:href="#TimesNewRomanPSMT-76" transform="translate(138.769531 0.7125)"/>
      <use xlink:href="#TimesNewRomanPSMT-65" transform="translate(188.769531 0.7125)"/>
      <use xlink:href="#TimesNewRomanPSMT-6e" transform="translate(233.154297 0.7125)"/>
      <use xlink:href="#TimesNewRomanPSMT-75" transform="translate(283.154297 0.7125)"/>
      <use xlink:href="#TimesNewRomanPSMT-6d" transform="translate(333.154297 0.7125)"/>
      <use xlink:href="#TimesNewRomanPSMT-62" transform="translate(410.9375 0.7125)"/>
      <use xlink:href="#TimesNewRomanPSMT-65" transform="translate(460.9375 0.7125)"/>
      <use xlink:href="#TimesNewRomanPSMT-72" transform="translate(505.322266 0.7125)"/>
      <use xlink:href="#TimesNewRomanPSMT-20" transform="translate(538.623047 0.7125)"/>
      <use xlink:href="#TimesNewRomanPSMT-28" transform="translate(563.623047 0.7125)"/>
      <use xlink:href="#TimesNewRomanPSMT-63" transform="translate(596.923828 0.7125)"/>
      <use xlink:href="#TimesNewRomanPSMT-6d" transform="translate(641.308594 0.7125)"/>
      <use xlink:href="#DejaVuSerif-2212" transform="translate(720.000156 37.046875) scale(0.7)"/>
      <use xlink:href="#DejaVuSerif-31" transform="translate(778.6525 37.046875) scale(0.7)"/>
      <use xlink:href="#TimesNewRomanPSMT-29" transform="translate(825.783945 0.7125)"/>
     </g>
    </g>
   </g>
   <g id="matplotlib.axis_2">
    <g id="ytick_1">
     <g id="line2d_8">
      <path d="M 44.782813 297.545649 
L 848.552813 297.545649 
" clip-path="url(#pdef6121c39)" style="fill: none; stroke: #b0b0b0; stroke-opacity: 0.3; stroke-width: 0.8; stroke-linecap: square"/>
     </g>
     <g id="line2d_9">
      <defs>
       <path id="madc3b1d2ee" d="M 0 0 
L -3.5 0 
" style="stroke: #000000; stroke-width: 0.8"/>
      </defs>
      <g>
       <use xlink:href="#madc3b1d2ee" x="44.782813" y="297.545649" style="stroke: #000000; stroke-width: 0.8"/>
      </g>
     </g>
     <g id="text_9">
      <!-- 0.00 -->
      <g transform="translate(20.282813 301.017524) scale(0.1 -0.1)">
       <defs>
        <path id="TimesNewRomanPSMT-2e" d="M 800 606 
Q 947 606 1047 504 
Q 1147 403 1147 259 
Q 1147 116 1045 14 
Q 944 -88 800 -88 
Q 656 -88 554 14 
Q 453 116 453 259 
Q 453 406 554 506 
Q 656 606 800 606 
z
" transform="scale(0.015625)"/>
       </defs>
       <use xlink:href="#TimesNewRomanPSMT-30"/>
       <use xlink:href="#TimesNewRomanPSMT-2e" x="50"/>
       <use xlink:href="#TimesNewRomanPSMT-30" x="75"/>
       <use xlink:href="#TimesNewRomanPSMT-30" x="125"/>
      </g>
     </g>
    </g>
    <g id="ytick_2">
     <g id="line2d_10">
      <path d="M 44.782813 258.389388 
L 848.552813 258.389388 
" clip-path="url(#pdef6121c39)" style="fill: none; stroke: #b0b0b0; stroke-opacity: 0.3; stroke-width: 0.8; stroke-linecap: square"/>
     </g>
     <g id="line2d_11">
      <g>
       <use xlink:href="#madc3b1d2ee" x="44.782813" y="258.389388" style="stroke: #000000; stroke-width: 0.8"/>
      </g>
     </g>
     <g id="text_10">
      <!-- 0.05 -->
      <g transform="translate(20.282813 261.861263) scale(0.1 -0.1)">
       <use xlink:href="#TimesNewRomanPSMT-30"/>
       <use xlink:href="#TimesNewRomanPSMT-2e" x="50"/>
       <use xlink:href="#TimesNewRomanPSMT-30" x="75"/>
       <use xlink:href="#TimesNewRomanPSMT-35" x="125"/>
      </g>
     </g>
    </g>
    <g id="ytick_3">
     <g id="line2d_12">
      <path d="M 44.782813 219.233127 
L 848.552813 219.233127 
" clip-path="url(#pdef6121c39)" style="fill: none; stroke: #b0b0b0; stroke-opacity: 0.3; stroke-width: 0.8; stroke-linecap: square"/>
     </g>
     <g id="line2d_13">
      <g>
       <use xlink:href="#madc3b1d2ee" x="44.782813" y="219.233127" style="stroke: #000000; stroke-width: 0.8"/>
      </g>
     </g>
     <g id="text_11">
      <!-- 0.10 -->
      <g transform="translate(20.282813 222.705002) scale(0.1 -0.1)">
       <use xlink:href="#TimesNewRomanPSMT-30"/>
       <use xlink:href="#TimesNewRomanPSMT-2e" x="50"/>
       <use xlink:href="#TimesNewRomanPSMT-31" x="75"/>
       <use xlink:href="#TimesNewRomanPSMT-30" x="125"/>
      </g>
     </g>
    </g>
    <g id="ytick_4">
     <g id="line2d_14">
      <path d="M 44.782813 180.076866 
L 848.552813 180.076866 
" clip-path="url(#pdef6121c39)" style="fill: none; stroke: #b0b0b0; stroke-opacity: 0.3; stroke-width: 0.8; stroke-linecap: square"/>
     </g>
     <g id="line2d_15">
      <g>
       <use xlink:href="#madc3b1d2ee" x="44.782813" y="180.076866" style="stroke: #000000; stroke-width: 0.8"/>
      </g>
     </g>
     <g id="text_12">
      <!-- 0.15 -->
      <g transform="translate(20.282813 183.548741) scale(0.1 -0.1)">
       <use xlink:href="#TimesNewRomanPSMT-30"/>
       <use xlink:href="#TimesNewRomanPSMT-2e" x="50"/>
       <use xlink:href="#TimesNewRomanPSMT-31" x="75"/>
       <use xlink:href="#TimesNewRomanPSMT-35" x="125"/>
      </g>
     </g>
    </g>
    <g id="ytick_5">
     <g id="line2d_16">
      <path d="M 44.782813 140.920605 
L 848.552813 140.920605 
" clip-path="url(#pdef6121c39)" style="fill: none; stroke: #b0b0b0; stroke-opacity: 0.3; stroke-width: 0.8; stroke-linecap: square"/>
     </g>
     <g id="line2d_17">
      <g>
       <use xlink:href="#madc3b1d2ee" x="44.782813" y="140.920605" style="stroke: #000000; stroke-width: 0.8"/>
      </g>
     </g>
     <g id="text_13">
      <!-- 0.20 -->
      <g transform="translate(20.282813 144.39248) scale(0.1 -0.1)">
       <use xlink:href="#TimesNewRomanPSMT-30"/>
       <use xlink:href="#TimesNewRomanPSMT-2e" x="50"/>
       <use xlink:href="#TimesNewRomanPSMT-32" x="75"/>
       <use xlink:href="#TimesNewRomanPSMT-30" x="125"/>
      </g>
     </g>
    </g>
    <g id="ytick_6">
     <g id="line2d_18">
      <path d="M 44.782813 101.764344 
L 848.552813 101.764344 
" clip-path="url(#pdef6121c39)" style="fill: none; stroke: #b0b0b0; stroke-opacity: 0.3; stroke-width: 0.8; stroke-linecap: square"/>
     </g>
     <g id="line2d_19">
      <g>
       <use xlink:href="#madc3b1d2ee" x="44.782813" y="101.764344" style="stroke: #000000; stroke-width: 0.8"/>
      </g>
     </g>
     <g id="text_14">
      <!-- 0.25 -->
      <g transform="translate(20.282813 105.236219) scale(0.1 -0.1)">
       <use xlink:href="#TimesNewRomanPSMT-30"/>
       <use xlink:href="#TimesNewRomanPSMT-2e" x="50"/>
       <use xlink:href="#TimesNewRomanPSMT-32" x="75"/>
       <use xlink:href="#TimesNewRomanPSMT-35" x="125"/>
      </g>
     </g>
    </g>
    <g id="ytick_7">
     <g id="line2d_20">
      <path d="M 44.782813 62.608083 
L 848.552813 62.608083 
" clip-path="url(#pdef6121c39)" style="fill: none; stroke: #b0b0b0; stroke-opacity: 0.3; stroke-width: 0.8; stroke-linecap: square"/>
     </g>
     <g id="line2d_21">
      <g>
       <use xlink:href="#madc3b1d2ee" x="44.782813" y="62.608083" style="stroke: #000000; stroke-width: 0.8"/>
      </g>
     </g>
     <g id="text_15">
      <!-- 0.30 -->
      <g transform="translate(20.282813 66.079958) scale(0.1 -0.1)">
       <use xlink:href="#TimesNewRomanPSMT-30"/>
       <use xlink:href="#TimesNewRomanPSMT-2e" x="50"/>
       <use xlink:href="#TimesNewRomanPSMT-33" x="75"/>
       <use xlink:href="#TimesNewRomanPSMT-30" x="125"/>
      </g>
     </g>
    </g>
    <g id="ytick_8">
     <g id="line2d_22">
      <path d="M 44.782813 23.451822 
L 848.552813 23.451822 
" clip-path="url(#pdef6121c39)" style="fill: none; stroke: #b0b0b0; stroke-opacity: 0.3; stroke-width: 0.8; stroke-linecap: square"/>
     </g>
     <g id="line2d_23">
      <g>
       <use xlink:href="#madc3b1d2ee" x="44.782813" y="23.451822" style="stroke: #000000; stroke-width: 0.8"/>
      </g>
     </g>
     <g id="text_16">
      <!-- 0.35 -->
      <g transform="translate(20.282813 26.923697) scale(0.1 -0.1)">
       <use xlink:href="#TimesNewRomanPSMT-30"/>
       <use xlink:href="#TimesNewRomanPSMT-2e" x="50"/>
       <use xlink:href="#TimesNewRomanPSMT-33" x="75"/>
       <use xlink:href="#TimesNewRomanPSMT-35" x="125"/>
      </g>
     </g>
    </g>
    <g id="text_17">
     <!-- Absorbance -->
     <g transform="translate(14.14375 189.624969) rotate(-90) scale(0.1 -0.1)">
      <defs>
       <path id="TimesNewRomanPSMT-41" d="M 2928 1419 
L 1288 1419 
L 1000 750 
Q 894 503 894 381 
Q 894 284 986 211 
Q 1078 138 1384 116 
L 1384 0 
L 50 0 
L 50 116 
Q 316 163 394 238 
Q 553 388 747 847 
L 2238 4334 
L 2347 4334 
L 3822 809 
Q 4000 384 4145 257 
Q 4291 131 4550 116 
L 4550 0 
L 2878 0 
L 2878 116 
Q 3131 128 3220 200 
Q 3309 272 3309 375 
Q 3309 513 3184 809 
L 2928 1419 
z
M 2841 1650 
L 2122 3363 
L 1384 1650 
L 2841 1650 
z
" transform="scale(0.015625)"/>
       <path id="TimesNewRomanPSMT-73" d="M 2050 2947 
L 2050 1972 
L 1947 1972 
Q 1828 2431 1642 2597 
Q 1456 2763 1169 2763 
Q 950 2763 815 2647 
Q 681 2531 681 2391 
Q 681 2216 781 2091 
Q 878 1963 1175 1819 
L 1631 1597 
Q 2266 1288 2266 781 
Q 2266 391 1970 151 
Q 1675 -88 1309 -88 
Q 1047 -88 709 6 
Q 606 38 541 38 
Q 469 38 428 -44 
L 325 -44 
L 325 978 
L 428 978 
Q 516 541 762 319 
Q 1009 97 1316 97 
Q 1531 97 1667 223 
Q 1803 350 1803 528 
Q 1803 744 1651 891 
Q 1500 1038 1047 1263 
Q 594 1488 453 1669 
Q 313 1847 313 2119 
Q 313 2472 555 2709 
Q 797 2947 1181 2947 
Q 1350 2947 1591 2875 
Q 1750 2828 1803 2828 
Q 1853 2828 1881 2850 
Q 1909 2872 1947 2947 
L 2050 2947 
z
" transform="scale(0.015625)"/>
       <path id="TimesNewRomanPSMT-6f" d="M 1600 2947 
Q 2250 2947 2644 2453 
Q 2978 2031 2978 1484 
Q 2978 1100 2793 706 
Q 2609 313 2286 112 
Q 1963 -88 1566 -88 
Q 919 -88 538 428 
Q 216 863 216 1403 
Q 216 1797 411 2186 
Q 606 2575 925 2761 
Q 1244 2947 1600 2947 
z
M 1503 2744 
Q 1338 2744 1170 2645 
Q 1003 2547 900 2300 
Q 797 2053 797 1666 
Q 797 1041 1045 587 
Q 1294 134 1700 134 
Q 2003 134 2200 384 
Q 2397 634 2397 1244 
Q 2397 2006 2069 2444 
Q 1847 2744 1503 2744 
z
" transform="scale(0.015625)"/>
      </defs>
      <use xlink:href="#TimesNewRomanPSMT-41"/>
      <use xlink:href="#TimesNewRomanPSMT-62" x="72.216797"/>
      <use xlink:href="#TimesNewRomanPSMT-73" x="122.216797"/>
      <use xlink:href="#TimesNewRomanPSMT-6f" x="161.132812"/>
      <use xlink:href="#TimesNewRomanPSMT-72" x="211.132812"/>
      <use xlink:href="#TimesNewRomanPSMT-62" x="244.433594"/>
      <use xlink:href="#TimesNewRomanPSMT-61" x="294.433594"/>
      <use xlink:href="#TimesNewRomanPSMT-6e" x="338.818359"/>
      <use xlink:href="#TimesNewRomanPSMT-63" x="388.818359"/>
      <use xlink:href="#TimesNewRomanPSMT-65" x="433.203125"/>
     </g>
    </g>
   </g>
   <g id="line2d_24">
    <path d="M 848.530633 37.082117 
L 848.193679 41.361113 
L 848.081361 41.683761 
L 847.856701 40.889672 
L 847.744383 41.030634 
L 847.519747 42.909352 
L 847.070451 47.49455 
L 846.958133 47.36925 
L 846.621178 44.763792 
L 846.396519 43.123928 
L 846.171883 42.649354 
L 845.834905 40.084619 
L 845.497951 37.463499 
L 845.385633 37.853495 
L 844.711701 46.764677 
L 844.374723 47.437382 
L 844.150087 46.184381 
L 843.92545 42.74098 
L 843.588473 36.233209 
L 843.476155 35.645865 
L 843.251518 36.746156 
L 843.026859 37.992892 
L 842.914541 37.624823 
L 842.465245 34.642682 
L 842.352927 34.856475 
L 842.015972 36.49164 
L 841.678995 36.2058 
L 841.566677 36.683506 
L 840.892745 42.358815 
L 840.780426 42.289116 
L 840.55579 41.085453 
L 840.218813 38.985894 
L 840.106494 39.275651 
L 839.994176 40.512205 
L 839.881858 39.883356 
L 839.769517 40.456603 
L 839.320244 45.24933 
L 838.870949 43.087904 
L 838.533994 44.188978 
L 838.309335 42.146588 
L 838.084698 40.006306 
L 837.97238 40.097932 
L 837.523084 42.845918 
L 837.18613 41.243644 
L 837.073789 41.525569 
L 836.624516 44.696443 
L 836.287539 43.74338 
L 836.17522 43.986932 
L 835.613607 46.988651 
L 835.501288 47.037988 
L 835.38897 47.37943 
L 834.939675 50.858856 
L 834.827356 50.763314 
L 834.490402 49.385797 
L 834.378061 49.935551 
L 833.928788 53.423591 
L 833.59181 52.003002 
L 833.479492 52.23324 
L 833.142538 54.356293 
L 833.030197 54.26545 
L 832.693242 52.46113 
L 832.580924 52.575466 
L 832.243946 54.031296 
L 832.131628 53.786178 
L 831.794674 52.213662 
L 831.682333 52.501069 
L 831.345378 54.524665 
L 831.23306 54.577134 
L 830.896082 53.968646 
L 830.671446 55.246706 
L 830.44681 56.758921 
L 830.334468 56.996991 
L 829.997514 56.766752 
L 829.772878 57.746442 
L 829.4359 59.279801 
L 829.211264 59.460703 
L 828.986604 60.43726 
L 828.537332 63.493015 
L 828.088036 64.189213 
L 827.751082 65.507213 
L 827.63874 65.572995 
L 827.414104 65.364684 
L 827.301786 65.45631 
L 827.07715 66.381964 
L 826.740172 67.653759 
L 826.403218 67.931769 
L 825.729286 70.270181 
L 825.616944 70.325782 
L 825.392308 70.906078 
L 824.943012 72.853711 
L 824.606058 73.310273 
L 823.932126 75.444289 
L 823.70749 75.668263 
L 823.370512 76.933793 
L 823.033558 77.851616 
L 822.808898 78.397454 
L 822.022648 81.585557 
L 821.685694 81.598087 
L 821.461034 81.33339 
L 821.236398 80.883877 
L 821.12408 81.020924 
L 820.89942 82.825244 
L 820.450148 87.019663 
L 820.000852 88.305554 
L 819.439238 89.884335 
L 819.214602 90.432522 
L 817.75442 95.903435 
L 817.305124 96.883125 
L 816.069578 101.845789 
L 815.395646 103.975107 
L 814.946373 105.872619 
L 814.384759 107.846878 
L 813.935464 109.050541 
L 813.598509 110.265952 
L 813.036895 112.558942 
L 812.5876 114.205072 
L 811.464372 118.383828 
L 810.902781 120.265678 
L 810.341167 122.369935 
L 808.993303 126.502487 
L 807.870075 130.811242 
L 807.42078 132.178578 
L 806.746848 134.618013 
L 806.297575 136.435647 
L 805.735961 138.510146 
L 802.703256 148.982879 
L 801.692369 152.603267 
L 798.771982 162.120588 
L 798.322709 163.542743 
L 796.974845 168.236796 
L 793.043571 181.348662 
L 792.145003 184.323754 
L 791.134093 187.572941 
L 790.572479 189.296599 
L 789.898547 191.230919 
L 788.550683 194.951547 
L 787.876751 196.925805 
L 785.742637 203.25659 
L 784.844069 206.11343 
L 783.496205 209.907672 
L 782.934591 211.514645 
L 782.036022 214.171006 
L 780.463499 218.560423 
L 778.217066 224.619462 
L 777.206157 227.194378 
L 776.19527 229.687066 
L 775.521338 231.402893 
L 774.285792 234.448467 
L 773.499542 236.115741 
L 771.814701 240.055644 
L 769.568268 244.927466 
L 768.445041 247.200878 
L 767.097176 249.670855 
L 765.412358 252.481491 
L 764.28913 254.179307 
L 761.70572 258.306377 
L 758.448402 262.513325 
L 756.201946 264.649691 
L 753.281582 267.094608 
L 752.158354 267.941949 
L 751.372104 268.53086 
L 746.65458 271.278063 
L 743.060213 272.748772 
L 742.386444 272.910879 
L 741.375558 273.265635 
L 740.476966 273.592198 
L 739.802964 273.774666 
L 739.016668 273.965749 
L 737.781192 274.264119 
L 736.320893 274.582068 
L 735.871714 274.597731 
L 735.085417 274.87809 
L 734.52371 274.906282 
L 732.277348 275.442723 
L 728.907804 275.851514 
L 728.346097 275.845249 
L 727.33521 275.985429 
L 726.661208 275.986212 
L 725.425732 276.199222 
L 724.751731 276.255607 
L 724.190256 276.221932 
L 723.628549 276.191391 
L 722.617663 276.407533 
L 721.943661 276.436509 
L 720.932775 276.583736 
L 719.921888 276.492111 
L 719.248119 276.535966 
L 716.889229 276.803794 
L 716.102932 276.889155 
L 714.867456 276.93301 
L 711.722502 277.168731 
L 710.711616 277.281501 
L 710.037614 277.232947 
L 709.475907 277.2212 
L 707.566429 277.422463 
L 704.30918 277.45927 
L 702.848882 277.439692 
L 700.041045 277.433427 
L 699.254748 277.42403 
L 698.131567 277.491378 
L 683.64204 277.279935 
L 682.406331 277.225899 
L 679.710557 277.340235 
L 665.333557 277.456921 
L 664.77185 277.393488 
L 663.42408 277.5971 
L 662.750078 277.589269 
L 661.402074 277.619811 
L 660.61601 277.627642 
L 659.717418 277.626076 
L 659.268006 277.57204 
L 658.369415 277.773303 
L 656.797054 277.54933 
L 656.347642 277.626859 
L 655.44905 277.834387 
L 654.775281 277.707521 
L 653.988985 277.623727 
L 652.978098 277.605715 
L 651.29321 277.332404 
L 647.249664 277.45927 
L 646.463368 277.320657 
L 645.340186 277.352765 
L 644.890774 277.263489 
L 643.767593 277.312043 
L 642.756707 277.153851 
L 642.194999 277.283067 
L 641.74582 277.339452 
L 641.184113 277.319091 
L 640.622639 277.369994 
L 639.611753 277.235296 
L 639.050046 277.345717 
L 638.039159 277.019937 
L 637.252862 277.18596 
L 636.803683 277.032467 
L 635.792797 276.98313 
L 634.78191 276.598616 
L 634.220203 276.443557 
L 633.546434 276.113078 
L 632.19843 276.364461 
L 631.075249 276.213318 
L 629.502656 275.984645 
L 628.828887 276.05356 
L 628.04259 275.95332 
L 625.795995 275.324471 
L 625.45911 275.202303 
L 624.672813 275.264953 
L 624.223634 275.105979 
L 623.774222 274.679176 
L 623.437337 274.417612 
L 623.100453 274.515503 
L 622.763336 274.590683 
L 622.314156 274.369058 
L 621.752449 274.247674 
L 621.30327 274.064422 
L 620.741563 273.726112 
L 620.180089 273.658764 
L 619.506087 273.011119 
L 618.832085 272.518533 
L 618.270611 272.286728 
L 617.708904 271.757336 
L 617.14743 271.666493 
L 616.585722 271.643782 
L 615.687131 270.967945 
L 614.226832 269.869221 
L 613.889948 269.7588 
L 613.440768 269.461212 
L 613.215946 269.466694 
L 612.991356 269.235672 
L 611.75588 267.490086 
L 611.194173 266.746117 
L 610.632699 265.915221 
L 609.509518 264.395175 
L 608.610926 262.882177 
L 607.824629 261.552431 
L 606.252036 258.137222 
L 605.01656 254.784663 
L 603.556261 249.835311 
L 601.983901 243.741814 
L 600.973014 239.21535 
L 600.186718 235.746889 
L 599.512716 232.571316 
L 597.940355 226.57336 
L 596.480057 222.708637 
L 596.143172 222.450206 
L 595.356875 222.154184 
L 594.907463 222.355447 
L 594.570579 222.464302 
L 594.121399 222.992128 
L 593.559692 223.859048 
L 592.548806 226.213122 
L 591.874804 228.149008 
L 591.088507 231.290906 
L 590.751623 232.111621 
L 589.066734 238.254456 
L 588.50526 240.578771 
L 587.943553 242.739414 
L 587.157256 245.932998 
L 584.236892 257.083918 
L 583.900008 258.610229 
L 581.76594 265.004447 
L 581.316528 266.670154 
L 580.755054 268.196465 
L 580.305641 269.832414 
L 579.40705 271.512217 
L 578.396163 273.822437 
L 576.486686 277.954205 
L 576.037506 278.832089 
L 575.475799 279.45624 
L 574.80203 280.515025 
L 573.454026 281.938747 
L 572.66773 283.271626 
L 572.330845 283.705477 
L 571.769138 283.875415 
L 571.207664 284.286556 
L 570.645957 284.490168 
L 570.084483 285.037573 
L 569.63507 285.436967 
L 569.073596 285.743952 
L 568.2873 286.538824 
L 566.265527 287.593694 
L 565.928409 287.87092 
L 564.917523 288.035376 
L 564.131226 288.260133 
L 563.794342 288.450433 
L 563.345162 288.791092 
L 560.424798 289.481025 
L 559.975386 289.625121 
L 559.189089 289.954816 
L 558.627615 290.062888 
L 556.605842 290.389451 
L 556.044135 290.533546 
L 555.482428 290.639268 
L 554.920954 290.744206 
L 553.011476 291.10601 
L 552.562064 291.113842 
L 551.888295 290.909446 
L 551.326588 290.98071 
L 550.540291 291.287695 
L 549.978817 291.376189 
L 548.855636 291.485043 
L 548.406223 291.349562 
L 547.170747 291.467031 
L 546.721335 291.338599 
L 546.384451 291.515585 
L 545.935271 291.737209 
L 545.485859 291.712149 
L 544.811857 291.576669 
L 544.138088 291.70745 
L 542.67779 291.714499 
L 541.779198 291.555524 
L 541.217724 291.412212 
L 539.757425 291.69492 
L 539.420541 291.801426 
L 538.858834 292.115459 
L 538.29736 291.999556 
L 537.511063 291.748173 
L 537.061651 291.715282 
L 536.612471 291.612692 
L 535.48929 291.745824 
L 534.927583 291.654981 
L 534.253581 291.725462 
L 532.681221 291.763836 
L 531.894924 291.936906 
L 530.659448 291.788112 
L 529.760856 291.864859 
L 528.974559 291.53438 
L 528.637675 291.665945 
L 528.300558 291.829618 
L 527.514261 291.730161 
L 527.065081 291.952569 
L 526.615669 291.864859 
L 525.380193 291.378538 
L 525.043309 291.438839 
L 524.481602 291.662812 
L 522.684418 291.407514 
L 522.122944 291.528898 
L 521.448942 291.318237 
L 520.999763 291.529681 
L 520.325761 291.152215 
L 519.42717 291.832751 
L 518.753168 291.767751 
L 518.303988 291.575885 
L 517.293102 290.98306 
L 516.955985 291.110709 
L 516.506805 291.345647 
L 515.945098 291.207033 
L 514.260443 290.600111 
L 513.923325 290.531196 
L 513.361851 290.198368 
L 512.912439 290.201501 
L 512.23867 289.944636 
L 511.452373 290.378487 
L 510.329192 289.876504 
L 509.87978 289.361207 
L 509.542895 289.340846 
L 508.981188 289.325184 
L 508.644304 289.428556 
L 508.307186 289.845962 
L 507.858007 290.492823 
L 507.633418 290.40433 
L 506.959416 289.511567 
L 505.72394 289.336147 
L 505.386822 289.238257 
L 504.263641 289.327533 
L 503.814462 288.928139 
L 503.477344 288.802839 
L 502.803575 288.935187 
L 502.017279 288.68772 
L 501.230982 288.884284 
L 500.894097 288.783261 
L 500.220095 288.845911 
L 499.321504 288.407361 
L 498.872325 288.018148 
L 498.647502 288.093328 
L 497.973733 288.571034 
L 497.636616 288.473143 
L 497.187436 288.352542 
L 496.401139 288.366638 
L 496.064255 288.12152 
L 495.502548 287.632067 
L 494.491662 287.679837 
L 493.480775 287.878751 
L 493.031596 287.727608 
L 492.582184 287.567851 
L 491.683592 287.471526 
L 490.897295 287.260866 
L 490.448116 287.550622 
L 489.661819 288.15911 
L 489.324935 288.105074 
L 488.201754 287.592911 
L 487.415457 287.707247 
L 486.966045 287.798873 
L 486.62916 287.845077 
L 485.618274 287.676705 
L 483.933385 287.429237 
L 483.259616 287.685319 
L 482.47332 288.082364 
L 481.799318 288.145014 
L 481.349906 288.117604 
L 480.900726 288.087846 
L 480.226724 288.28441 
L 479.88984 288.089412 
L 479.552955 287.899896 
L 479.328133 287.988389 
L 478.766659 288.390915 
L 478.429541 288.136399 
L 478.092657 287.966461 
L 477.755772 288.122303 
L 476.744886 288.784827 
L 476.407768 288.66266 
L 476.070884 288.49742 
L 475.846294 288.609407 
L 475.509177 288.861573 
L 475.284587 288.7629 
L 474.835408 288.437903 
L 474.161406 288.666575 
L 473.936816 288.657961 
L 473.599699 289.02603 
L 473.375109 289.215546 
L 473.15052 289.094162 
L 472.588813 288.430855 
L 472.139633 288.358807 
L 471.577926 288.427722 
L 471.016452 288.729225 
L 470.791629 288.571034 
L 470.34245 288.124653 
L 470.005566 288.235073 
L 469.780976 288.267965 
L 469.219269 288.08393 
L 468.882384 288.503685 
L 468.545267 288.881152 
L 468.208383 288.869405 
L 467.871265 288.866272 
L 467.422086 288.955548 
L 466.523494 288.654828 
L 466.18661 288.538926 
L 465.849492 288.444951 
L 465.512608 288.724527 
L 465.175723 288.999403 
L 464.726311 289.022114 
L 464.164837 289.11374 
L 463.82772 289.106692 
L 463.490835 288.821634 
L 463.153718 288.564769 
L 462.704538 288.62272 
L 461.805947 288.745671 
L 461.131945 289.14898 
L 460.682766 289.536627 
L 460.345881 289.838131 
L 460.121058 289.838914 
L 458.885582 289.228076 
L 458.548698 289.192835 
L 457.425517 289.554639 
L 456.86381 289.376087 
L 456.302336 289.643916 
L 455.628334 289.922708 
L 454.729742 290.022948 
L 453.606561 290.326801 
L 452.932559 290.118489 
L 452.483147 290.034695 
L 451.359965 290.268066 
L 450.349079 290.160778 
L 449.450488 290.541377 
L 448.551896 290.489691 
L 447.31642 290.737941 
L 446.417828 290.6424 
L 445.968649 290.665111 
L 445.406942 290.66746 
L 444.73294 290.796676 
L 444.171466 290.854627 
L 443.385169 291.039445 
L 441.363396 291.081733 
L 439.790803 291.379321 
L 439.229329 291.429441 
L 437.544441 291.804558 
L 436.533554 291.859377 
L 432.265186 292.345698 
L 431.142005 292.414613 
L 430.580531 292.481178 
L 429.681939 292.377806 
L 428.895642 292.352746 
L 427.997051 292.333168 
L 425.975278 292.522684 
L 425.301276 292.428709 
L 424.0658 292.71455 
L 423.504093 292.708285 
L 422.493207 292.792862 
L 421.594615 292.93774 
L 421.033141 293.030149 
L 419.90996 293.120992 
L 416.764773 293.495325 
L 415.866414 293.536048 
L 414.293821 293.742793 
L 413.619819 293.863394 
L 412.272048 293.684842 
L 410.474865 293.918213 
L 409.688568 294.085802 
L 409.014566 293.959719 
L 408.228502 293.934659 
L 406.880499 293.951104 
L 406.206497 293.973815 
L 405.307905 294.093633 
L 402.836953 294.233812 
L 401.713772 294.121826 
L 400.81518 294.241644 
L 399.916589 294.244776 
L 399.130292 294.332486 
L 398.45629 294.272969 
L 397.557698 294.36851 
L 395.648221 294.510256 
L 395.086746 294.470316 
L 394.188155 294.613628 
L 393.064974 294.510256 
L 392.390972 294.562725 
L 391.604675 294.525135 
L 390.930673 294.698206 
L 389.807492 294.603448 
L 388.796605 294.772603 
L 388.235131 294.867361 
L 387.224245 294.821156 
L 386.325653 294.759289 
L 385.763946 294.608146 
L 384.75306 294.829771 
L 384.191353 294.742844 
L 383.405289 294.836036 
L 382.843582 294.781217 
L 381.94499 294.872843 
L 379.810923 294.944107 
L 378.912331 295.125009 
L 378.126035 295.037299 
L 376.778264 295.134406 
L 374.868786 294.900252 
L 373.857899 295.045913 
L 373.183897 294.974649 
L 372.509896 294.929228 
L 371.948421 294.85953 
L 370.937535 294.958986 
L 370.263533 294.943324 
L 369.364942 294.98248 
L 368.803467 294.960553 
L 367.904876 294.961336 
L 354.650825 295.067841 
L 353.639939 295.121093 
L 350.494752 294.966818 
L 347.462093 294.90965 
L 346.676029 294.770253 
L 345.665142 294.840734 
L 342.070776 294.568207 
L 341.284479 294.540798 
L 339.936709 294.413148 
L 336.679227 294.289414 
L 336.230047 294.204054 
L 335.443751 294.231463 
L 334.657454 294.138271 
L 333.646568 294.081103 
L 332.635681 293.994176 
L 331.961679 294.032549 
L 328.592136 293.590867 
L 327.468954 293.464783 
L 326.120951 293.229846 
L 325.222359 293.235328 
L 320.954224 292.621358 
L 320.280222 292.550093 
L 318.595334 292.221964 
L 317.80927 292.174193 
L 317.135268 292.036363 
L 316.461266 291.949436 
L 315.22579 291.536729 
L 314.327198 291.316671 
L 312.8669 290.636135 
L 311.06995 291.166311 
L 310.395948 290.898482 
L 309.385061 290.532763 
L 308.149585 290.093429 
L 307.475583 289.848311 
L 306.801582 289.684638 
L 305.790695 289.300907 
L 304.218102 288.782478 
L 303.31951 288.527962 
L 301.410265 287.885799 
L 300.736263 287.591344 
L 300.174556 287.351708 
L 299.500787 287.146529 
L 298.489668 286.451897 
L 297.366487 285.248234 
L 296.917307 285.313233 
L 295.120124 285.759614 
L 292.986057 284.506614 
L 291.413463 283.273975 
L 288.043919 281.327126 
L 286.695916 280.276172 
L 285.909619 279.721719 
L 282.090896 276.042597 
L 279.732006 273.678342 
L 278.384235 272.401064 
L 276.811641 270.92409 
L 272.543506 265.652091 
L 271.532387 264.09054 
L 269.286024 260.947075 
L 268.612256 259.820158 
L 267.825959 258.471616 
L 266.477955 256.423744 
L 262.546704 249.245618 
L 261.311228 246.716124 
L 260.412637 244.847587 
L 259.62634 243.055796 
L 258.727748 241.164549 
L 255.021087 232.374751 
L 251.763838 223.647604 
L 249.966655 218.665361 
L 248.843474 215.18437 
L 245.361403 204.482964 
L 244.013632 200.250955 
L 234.915654 171.33249 
L 233.904535 168.463119 
L 232.107585 163.205216 
L 231.208993 160.774396 
L 230.534991 159.07658 
L 226.940625 151.221051 
L 226.154328 149.894437 
L 225.031147 147.90295 
L 223.907966 146.072786 
L 221.998488 143.963047 
L 220.875307 142.809503 
L 220.425895 142.414025 
L 219.415008 141.331746 
L 218.291827 140.899461 
L 217.056351 140.092059 
L 216.270054 139.556401 
L 215.708347 139.406041 
L 214.360576 139.265079 
L 213.461985 138.73177 
L 212.900511 138.362135 
L 211.215622 138.190631 
L 210.204736 137.937681 
L 209.643029 137.716057 
L 209.19385 137.555516 
L 208.519848 137.447445 
L 207.958373 137.264977 
L 207.284372 137.199977 
L 206.834959 137.131845 
L 206.273485 137.217989 
L 205.711778 136.903956 
L 205.262599 136.758295 
L 204.700892 136.623597 
L 204.139185 136.414503 
L 203.690005 136.391009 
L 203.128298 136.151373 
L 202.005117 136.258661 
L 199.983344 136.093421 
L 199.534165 136.166252 
L 199.084753 135.946977 
L 198.635573 135.786436 
L 197.512392 135.983001 
L 196.276683 136.646308 
L 195.490386 136.809198 
L 194.816617 136.778656 
L 194.367205 137.032389 
L 193.581141 137.637744 
L 193.131729 137.978404 
L 192.233138 138.692614 
L 191.334546 139.352789 
L 190.885367 139.672304 
L 190.548249 139.904892 
L 188.301887 142.97161 
L 185.044638 148.224031 
L 184.370636 149.643054 
L 183.584339 150.92503 
L 181.787156 154.837524 
L 181.113154 156.359136 
L 180.663975 157.32238 
L 179.428499 160.396146 
L 178.754497 162.007035 
L 175.609543 169.820275 
L 174.935541 171.296466 
L 172.015177 178.982057 
L 165.612741 195.209978 
L 165.051267 196.773879 
L 164.377265 198.859341 
L 163.366379 200.492158 
L 162.018608 203.887788 
L 160.446014 207.322576 
L 152.808103 225.149638 
L 151.797216 227.331425 
L 151.348037 228.270392 
L 150.898625 229.185866 
L 149.663149 232.457763 
L 149.101442 233.258117 
L 147.416786 236.717964 
L 146.742784 237.831568 
L 146.068782 239.107279 
L 145.731898 239.639021 
L 144.04701 243.40507 
L 143.59783 244.187412 
L 142.586944 246.185948 
L 142.137532 246.88058 
L 141.01435 249.162607 
L 140.452643 250.157176 
L 139.778874 251.302105 
L 139.217167 252.149446 
L 138.318576 253.787744 
L 137.981691 254.133886 
L 137.644574 254.864541 
L 137.0831 256.114409 
L 135.847624 257.97903 
L 135.285917 259.117695 
L 134.162735 260.611897 
L 133.264144 262.230617 
L 132.140963 264.079576 
L 131.130076 265.778958 
L 130.456074 267.324064 
L 128.209712 271.18957 
L 127.648005 271.974261 
L 127.086531 273.188105 
L 126.412529 274.636887 
L 125.850822 275.927477 
L 125.401642 276.658916 
L 125.064525 277.134273 
L 124.503051 278.588537 
L 123.829049 280.17045 
L 120.010093 286.326597 
L 119.673209 286.863038 
L 119.111501 287.976642 
L 118.774617 288.118388 
L 118.325205 288.147363 
L 117.98832 288.437903 
L 117.539141 289.14898 
L 116.752844 290.46698 
L 116.191137 291.021433 
L 115.741958 291.138902 
L 115.40484 291.205467 
L 114.955661 291.604861 
L 114.169364 292.438889 
L 113.720185 292.435757 
L 113.383068 292.537563 
L 111.810707 293.594782 
L 110.687293 293.860262 
L 109.788701 293.853997 
L 109.002638 294.474232 
L 108.216341 294.573689 
L 107.542339 294.491461 
L 107.205455 294.532183 
L 106.306863 294.917481 
L 105.408271 294.668447 
L 104.397385 295.324706 
L 103.723383 294.789048 
L 103.049381 294.935493 
L 102.600202 294.639471 
L 102.263317 294.742061 
L 101.589315 295.117961 
L 100.690724 295.196273 
L 100.12925 295.486813 
L 99.679838 295.375609 
L 99.342953 295.33332 
L 98.219539 295.619944 
L 96.871768 295.697473 
L 96.310061 295.382657 
L 95.860882 295.608197 
L 94.849995 296.013856 
L 94.400816 295.931628 
L 93.951404 295.905002 
L 92.940517 296.276203 
L 92.266515 296.144638 
L 91.480219 296.401503 
L 90.918745 296.139939 
L 89.907858 296.386624 
L 89.009267 295.970784 
L 88.44756 296.089036 
L 87.99838 295.821207 
L 87.773791 295.752292 
L 87.436673 295.9747 
L 86.987494 296.231565 
L 86.538082 296.089036 
L 86.201197 296.028735 
L 85.864313 296.161084 
L 85.302606 296.454756 
L 84.965721 296.331022 
L 84.291719 296.016989 
L 83.84254 296.13524 
L 83.505422 296.148554 
L 83.056243 296.089819 
L 82.606831 296.157168 
L 82.157652 296.063976 
L 81.820767 296.342769 
L 81.371355 296.808728 
L 81.146765 296.834571 
L 80.809648 296.517406 
L 80.360468 296.039699 
L 80.023584 296.060844 
L 79.686467 296.053795 
L 79.349582 296.033434 
L 79.124992 296.285601 
L 78.787875 296.705356 
L 78.563285 296.650537 
L 78.001578 296.360781 
L 77.327809 296.334937 
L 76.541513 295.9747 
L 75.755216 296.310661 
L 75.193509 296.522104 
L 74.29515 296.373311 
L 73.733443 296.616862 
L 73.396559 296.410117 
L 73.059441 296.236264 
L 71.823965 296.289516 
L 71.149963 296.37566 
L 70.588489 296.468069 
L 69.240485 296.240179 
L 68.791306 296.180662 
L 68.005009 295.930062 
L 67.668125 296.084337 
L 67.106418 296.385841 
L 66.320121 296.406985 
L 65.758647 296.534634 
L 65.421529 296.328672 
L 64.97235 295.977049 
L 64.74776 296.023254 
L 64.073758 296.399154 
L 63.624579 296.489213 
L 63.062872 296.735898 
L 62.838282 296.622344 
L 62.276575 296.114879 
L 61.939691 296.21277 
L 61.602806 296.309877 
L 61.153394 296.092169 
L 60.81651 296.042049 
L 59.805623 296.360781 
L 59.356211 296.296564 
L 58.569914 296.298914 
L 58.120735 296.359214 
L 57.334438 296.579272 
L 56.772731 296.417166 
L 56.323552 296.356865 
L 55.537255 296.384274 
L 54.750958 296.331022 
L 52.055417 296.448491 
L 51.381415 296.471984 
L 50.033411 296.572224 
L 48.011638 296.408551 
L 47.000752 296.414816 
L 46.551572 296.27542 
L 46.10216 296.37566 
L 45.540686 296.525237 
L 44.754389 296.377226 
L 44.754389 296.377226 
" clip-path="url(#pdef6121c39)" style="fill: none; stroke: #5b9bd5; stroke-width: 0.8; stroke-linecap: square"/>
   </g>
   <g id="patch_9">
    <path d="M 44.782813 309.9565 
L 44.782813 21.5325 
" style="fill: none; stroke: #000000; stroke-width: 0.8; stroke-linejoin: miter; stroke-linecap: square"/>
   </g>
   <g id="patch_10">
    <path d="M 44.782812 309.9565 
L 848.552813 309.9565 
" style="fill: none; stroke: #000000; stroke-width: 0.8; stroke-linejoin: miter; stroke-linecap: square"/>
   </g>
   <g id="text_18">
    <!-- O–H stretch -->
    <g style="fill: #555555" transform="translate(186.25054 69.353157) rotate(-90) scale(0.07 -0.07)">
     <defs>
      <path id="TimesNewRomanPSMT-4f" d="M 2341 4334 
Q 3166 4334 3770 3707 
Q 4375 3081 4375 2144 
Q 4375 1178 3765 540 
Q 3156 -97 2291 -97 
Q 1416 -97 820 525 
Q 225 1147 225 2134 
Q 225 3144 913 3781 
Q 1509 4334 2341 4334 
z
M 2281 4106 
Q 1713 4106 1369 3684 
Q 941 3159 941 2147 
Q 941 1109 1384 550 
Q 1725 125 2284 125 
Q 2881 125 3270 590 
Q 3659 1056 3659 2059 
Q 3659 3147 3231 3681 
Q 2888 4106 2281 4106 
z
" transform="scale(0.015625)"/>
      <path id="TimesNewRomanPSMT-2013" d="M 3253 1416 
L -56 1416 
L -56 1644 
L 3253 1644 
L 3253 1416 
z
" transform="scale(0.015625)"/>
      <path id="TimesNewRomanPSMT-48" d="M 1316 2272 
L 3284 2272 
L 3284 3484 
Q 3284 3809 3244 3913 
Q 3213 3991 3113 4047 
Q 2978 4122 2828 4122 
L 2678 4122 
L 2678 4238 
L 4491 4238 
L 4491 4122 
L 4341 4122 
Q 4191 4122 4056 4050 
Q 3956 4000 3920 3898 
Q 3884 3797 3884 3484 
L 3884 750 
Q 3884 428 3925 325 
Q 3956 247 4053 191 
Q 4191 116 4341 116 
L 4491 116 
L 4491 0 
L 2678 0 
L 2678 116 
L 2828 116 
Q 3088 116 3206 269 
Q 3284 369 3284 750 
L 3284 2041 
L 1316 2041 
L 1316 750 
Q 1316 428 1356 325 
Q 1388 247 1488 191 
Q 1622 116 1772 116 
L 1925 116 
L 1925 0 
L 109 0 
L 109 116 
L 259 116 
Q 522 116 641 269 
Q 716 369 716 750 
L 716 3484 
Q 716 3809 675 3913 
Q 644 3991 547 4047 
Q 409 4122 259 4122 
L 109 4122 
L 109 4238 
L 1925 4238 
L 1925 4122 
L 1772 4122 
Q 1622 4122 1488 4050 
Q 1391 4000 1353 3898 
Q 1316 3797 1316 3484 
L 1316 2272 
z
" transform="scale(0.015625)"/>
      <path id="TimesNewRomanPSMT-74" d="M 1031 3803 
L 1031 2863 
L 1700 2863 
L 1700 2644 
L 1031 2644 
L 1031 788 
Q 1031 509 1111 412 
Q 1191 316 1316 316 
Q 1419 316 1516 380 
Q 1613 444 1666 569 
L 1788 569 
Q 1678 263 1478 108 
Q 1278 -47 1066 -47 
Q 922 -47 784 33 
Q 647 113 581 261 
Q 516 409 516 719 
L 516 2644 
L 63 2644 
L 63 2747 
Q 234 2816 414 2980 
Q 594 3144 734 3369 
Q 806 3488 934 3803 
L 1031 3803 
z
" transform="scale(0.015625)"/>
      <path id="TimesNewRomanPSMT-68" d="M 1041 4444 
L 1041 2350 
Q 1388 2731 1591 2839 
Q 1794 2947 1997 2947 
Q 2241 2947 2416 2812 
Q 2591 2678 2675 2391 
Q 2734 2191 2734 1659 
L 2734 647 
Q 2734 375 2778 275 
Q 2809 200 2884 156 
Q 2959 113 3159 113 
L 3159 0 
L 1753 0 
L 1753 113 
L 1819 113 
Q 2019 113 2097 173 
Q 2175 234 2206 353 
Q 2216 403 2216 647 
L 2216 1659 
Q 2216 2128 2167 2275 
Q 2119 2422 2012 2495 
Q 1906 2569 1756 2569 
Q 1603 2569 1437 2487 
Q 1272 2406 1041 2159 
L 1041 647 
Q 1041 353 1073 281 
Q 1106 209 1195 161 
Q 1284 113 1503 113 
L 1503 0 
L 84 0 
L 84 113 
Q 275 113 384 172 
Q 447 203 484 290 
Q 522 378 522 647 
L 522 3238 
Q 522 3728 498 3840 
Q 475 3953 426 3993 
Q 378 4034 297 4034 
Q 231 4034 84 3984 
L 41 4094 
L 897 4444 
L 1041 4444 
z
" transform="scale(0.015625)"/>
     </defs>
     <use xlink:href="#TimesNewRomanPSMT-4f"/>
     <use xlink:href="#TimesNewRomanPSMT-2013" x="72.216797"/>
     <use xlink:href="#TimesNewRomanPSMT-48" x="122.216797"/>
     <use xlink:href="#TimesNewRomanPSMT-20" x="194.433594"/>
     <use xlink:href="#TimesNewRomanPSMT-73" x="219.433594"/>
     <use xlink:href="#TimesNewRomanPSMT-74" x="258.349609"/>
     <use xlink:href="#TimesNewRomanPSMT-72" x="286.132812"/>
     <use xlink:href="#TimesNewRomanPSMT-65" x="319.433594"/>
     <use xlink:href="#TimesNewRomanPSMT-74" x="363.818359"/>
     <use xlink:href="#TimesNewRomanPSMT-63" x="391.601562"/>
     <use xlink:href="#TimesNewRomanPSMT-68" x="435.986328"/>
    </g>
   </g>
   <g id="text_19">
    <!-- C–H stretch -->
    <g style="fill: #555555" transform="translate(296.914526 68.967064) rotate(-90) scale(0.07 -0.07)">
     <defs>
      <path id="TimesNewRomanPSMT-43" d="M 3853 4334 
L 3950 2894 
L 3853 2894 
Q 3659 3541 3300 3825 
Q 2941 4109 2438 4109 
Q 2016 4109 1675 3895 
Q 1334 3681 1139 3212 
Q 944 2744 944 2047 
Q 944 1472 1128 1050 
Q 1313 628 1683 403 
Q 2053 178 2528 178 
Q 2941 178 3256 354 
Q 3572 531 3950 1056 
L 4047 994 
Q 3728 428 3303 165 
Q 2878 -97 2294 -97 
Q 1241 -97 663 684 
Q 231 1266 231 2053 
Q 231 2688 515 3219 
Q 800 3750 1298 4042 
Q 1797 4334 2388 4334 
Q 2847 4334 3294 4109 
Q 3425 4041 3481 4041 
Q 3566 4041 3628 4100 
Q 3709 4184 3744 4334 
L 3853 4334 
z
" transform="scale(0.015625)"/>
     </defs>
     <use xlink:href="#TimesNewRomanPSMT-43"/>
     <use xlink:href="#TimesNewRomanPSMT-2013" x="66.699219"/>
     <use xlink:href="#TimesNewRomanPSMT-48" x="116.699219"/>
     <use xlink:href="#TimesNewRomanPSMT-20" x="188.916016"/>
     <use xlink:href="#TimesNewRomanPSMT-73" x="213.916016"/>
     <use xlink:href="#TimesNewRomanPSMT-74" x="252.832031"/>
     <use xlink:href="#TimesNewRomanPSMT-72" x="280.615234"/>
     <use xlink:href="#TimesNewRomanPSMT-65" x="313.916016"/>
     <use xlink:href="#TimesNewRomanPSMT-74" x="358.300781"/>
     <use xlink:href="#TimesNewRomanPSMT-63" x="386.083984"/>
     <use xlink:href="#TimesNewRomanPSMT-68" x="430.46875"/>
    </g>
   </g>
   <g id="text_20">
    <!-- C=O stretch -->
    <g style="fill: #555555" transform="translate(578.816468 69.414407) rotate(-90) scale(0.07 -0.07)">
     <defs>
      <path id="TimesNewRomanPSMT-3d" d="M 116 2759 
L 3488 2759 
L 3488 2503 
L 116 2503 
L 116 2759 
z
M 116 1741 
L 3488 1741 
L 3488 1484 
L 116 1484 
L 116 1741 
z
" transform="scale(0.015625)"/>
     </defs>
     <use xlink:href="#TimesNewRomanPSMT-43"/>
     <use xlink:href="#TimesNewRomanPSMT-3d" x="66.699219"/>
     <use xlink:href="#TimesNewRomanPSMT-4f" x="123.095703"/>
     <use xlink:href="#TimesNewRomanPSMT-20" x="195.3125"/>
     <use xlink:href="#TimesNewRomanPSMT-73" x="220.3125"/>
     <use xlink:href="#TimesNewRomanPSMT-74" x="259.228516"/>
     <use xlink:href="#TimesNewRomanPSMT-72" x="287.011719"/>
     <use xlink:href="#TimesNewRomanPSMT-65" x="320.3125"/>
     <use xlink:href="#TimesNewRomanPSMT-74" x="364.697266"/>
     <use xlink:href="#TimesNewRomanPSMT-63" x="392.480469"/>
     <use xlink:href="#TimesNewRomanPSMT-68" x="436.865234"/>
    </g>
   </g>
   <g id="text_21">
    <!-- C=C stretch -->
    <g style="fill: #555555" transform="translate(596.289728 69.028314) rotate(-90) scale(0.07 -0.07)">
     <use xlink:href="#TimesNewRomanPSMT-43"/>
     <use xlink:href="#TimesNewRomanPSMT-3d" x="66.699219"/>
     <use xlink:href="#TimesNewRomanPSMT-43" x="123.095703"/>
     <use xlink:href="#TimesNewRomanPSMT-20" x="189.794922"/>
     <use xlink:href="#TimesNewRomanPSMT-73" x="214.794922"/>
     <use xlink:href="#TimesNewRomanPSMT-74" x="253.710938"/>
     <use xlink:href="#TimesNewRomanPSMT-72" x="281.494141"/>
     <use xlink:href="#TimesNewRomanPSMT-65" x="314.794922"/>
     <use xlink:href="#TimesNewRomanPSMT-74" x="359.179688"/>
     <use xlink:href="#TimesNewRomanPSMT-63" x="386.962891"/>
     <use xlink:href="#TimesNewRomanPSMT-68" x="431.347656"/>
    </g>
   </g>
   <g id="text_22">
    <!-- C–H bend -->
    <g style="fill: #555555" transform="translate(648.709511 63.915032) rotate(-90) scale(0.07 -0.07)">
     <defs>
      <path id="TimesNewRomanPSMT-64" d="M 2222 322 
Q 2013 103 1813 7 
Q 1613 -88 1381 -88 
Q 913 -88 563 304 
Q 213 697 213 1313 
Q 213 1928 600 2439 
Q 988 2950 1597 2950 
Q 1975 2950 2222 2709 
L 2222 3238 
Q 2222 3728 2198 3840 
Q 2175 3953 2125 3993 
Q 2075 4034 2000 4034 
Q 1919 4034 1784 3984 
L 1744 4094 
L 2597 4444 
L 2738 4444 
L 2738 1134 
Q 2738 631 2761 520 
Q 2784 409 2836 365 
Q 2888 322 2956 322 
Q 3041 322 3181 375 
L 3216 266 
L 2366 -88 
L 2222 -88 
L 2222 322 
z
M 2222 541 
L 2222 2016 
Q 2203 2228 2109 2403 
Q 2016 2578 1861 2667 
Q 1706 2756 1559 2756 
Q 1284 2756 1069 2509 
Q 784 2184 784 1559 
Q 784 928 1059 592 
Q 1334 256 1672 256 
Q 1956 256 2222 541 
z
" transform="scale(0.015625)"/>
     </defs>
     <use xlink:href="#TimesNewRomanPSMT-43"/>
     <use xlink:href="#TimesNewRomanPSMT-2013" x="66.699219"/>
     <use xlink:href="#TimesNewRomanPSMT-48" x="116.699219"/>
     <use xlink:href="#TimesNewRomanPSMT-20" x="188.916016"/>
     <use xlink:href="#TimesNewRomanPSMT-62" x="213.916016"/>
     <use xlink:href="#TimesNewRomanPSMT-65" x="263.916016"/>
     <use xlink:href="#TimesNewRomanPSMT-6e" x="308.300781"/>
     <use xlink:href="#TimesNewRomanPSMT-64" x="358.300781"/>
    </g>
   </g>
   <g id="text_23">
    <!-- C–O stretch -->
    <g style="fill: #555555" transform="translate(710.448366 68.967064) rotate(-90) scale(0.07 -0.07)">
     <use xlink:href="#TimesNewRomanPSMT-43"/>
     <use xlink:href="#TimesNewRomanPSMT-2013" x="66.699219"/>
     <use xlink:href="#TimesNewRomanPSMT-4f" x="116.699219"/>
     <use xlink:href="#TimesNewRomanPSMT-20" x="188.916016"/>
     <use xlink:href="#TimesNewRomanPSMT-73" x="213.916016"/>
     <use xlink:href="#TimesNewRomanPSMT-74" x="252.832031"/>
     <use xlink:href="#TimesNewRomanPSMT-72" x="280.615234"/>
     <use xlink:href="#TimesNewRomanPSMT-65" x="313.916016"/>
     <use xlink:href="#TimesNewRomanPSMT-74" x="358.300781"/>
     <use xlink:href="#TimesNewRomanPSMT-63" x="386.083984"/>
     <use xlink:href="#TimesNewRomanPSMT-68" x="430.46875"/>
    </g>
   </g>
   <g id="text_24">
    <!-- Water -->
    <g transform="translate(432.492813 15.5325) scale(0.12 -0.12)">
     <use xlink:href="#TimesNewRomanPSMT-57"/>
     <use xlink:href="#TimesNewRomanPSMT-61" x="86.384766"/>
     <use xlink:href="#TimesNewRomanPSMT-74" x="130.769531"/>
     <use xlink:href="#TimesNewRomanPSMT-65" x="158.552734"/>
     <use xlink:href="#TimesNewRomanPSMT-72" x="202.9375"/>
    </g>
   </g>
  </g>
 </g>
 <defs>
  <clipPath id="pdef6121c39">
   <rect x="44.782813" y="21.5325" width="803.77" height="288.424"/>
  </clipPath>
 </defs>
</svg>
